<svg width="24" height="24" viewBox="0 0 24 24" fill="none" xmlns="http://www.w3.org/2000/svg">
<g clip-path="url(#clip0)">
<path d="M22.151 2.85003L20.892 6.28903L23.013 8.41103C23.124 8.51385 23.2005 8.64842 23.2322 8.79637C23.2639 8.94432 23.2491 9.09843 23.1899 9.23768C23.1308 9.37692 23.03 9.49451 22.9016 9.5744C22.7731 9.65428 22.6231 9.69257 22.472 9.68403L18.819 9.65503L17.5 13.018C17.4373 13.1701 17.3284 13.2986 17.1887 13.3854C17.0491 13.4723 16.8856 13.513 16.7215 13.502C16.5574 13.4909 16.401 13.4286 16.2742 13.3238C16.1474 13.2191 16.0567 13.0771 16.015 12.918L14.932 9.07003L11.08 7.99103C10.921 7.94899 10.7792 7.85816 10.6746 7.73131C10.57 7.60446 10.5077 7.44798 10.4967 7.28392C10.4857 7.11985 10.5263 6.95645 10.613 6.81672C10.6997 6.677 10.8281 6.56798 10.98 6.50503L14.343 5.18203L14.314 1.52903C14.3042 1.37734 14.3416 1.22634 14.4213 1.09688C14.5009 0.967413 14.6188 0.86587 14.7587 0.806271C14.8985 0.746672 15.0534 0.731956 15.2019 0.764155C15.3505 0.796354 15.4854 0.87388 15.588 0.986029L17.71 3.10703L21.151 1.85003C21.29 1.80723 21.438 1.80313 21.5792 1.83817C21.7203 1.87322 21.8493 1.94608 21.9521 2.04892C22.0549 2.15176 22.1278 2.28069 22.1629 2.42184C22.1979 2.56299 22.1938 2.71103 22.151 2.85003Z" stroke="black" stroke-width="1.5" stroke-linecap="round" stroke-linejoin="round"/>
<path d="M14.932 9.07001L0.75 23.25" stroke="black" stroke-width="1.5" stroke-linecap="round" stroke-linejoin="round"/>
</g>
<defs>
<clipPath id="clip0">
<rect width="24" height="24" fill="white"/>
</clipPath>
</defs>
</svg>
