<svg width="64" height="18" viewBox="0 0 64 18" fill="none" xmlns="http://www.w3.org/2000/svg">
<path d="M51.5016 1.34351V1.34451H47.5554V17.0253H51.5016V9.1849H55.2994L51.5016 1.34351Z" fill="#2250FF"/>
<path d="M59.0971 1.34351V9.1849H55.2994L59.0971 17.0253H63.0424V1.34351H59.0971Z" fill="#2250FF"/>
<path d="M38.4083 0.888184C38.4083 0.888184 38.4036 0.888184 38.4008 0.888184C38.398 0.888184 38.3961 0.888184 38.3933 0.888184C36.1384 0.894175 34.1071 1.72095 32.6721 3.21873C31.2353 4.71851 30.4445 6.83938 30.4445 9.19189V9.19988C30.4445 11.5524 31.2362 13.6733 32.6721 15.173C34.1071 16.6708 36.1384 17.4976 38.3933 17.5036C38.3933 17.5036 38.398 17.5036 38.4008 17.5036C38.4036 17.5036 38.4055 17.5036 38.4083 17.5036C40.6631 17.4976 42.6944 16.6708 44.1294 15.173C45.5663 13.6733 46.357 11.5524 46.357 9.19988V9.19189C46.357 6.83938 45.5663 4.71851 44.1294 3.21873C42.6944 1.72095 40.6631 0.894175 38.4083 0.888184ZM42.5479 9.19789C42.5479 12.1375 40.9599 13.9678 38.4008 13.9748C35.8417 13.9668 34.2536 12.1375 34.2536 9.19789V9.19189C34.2536 6.25225 35.8417 4.42195 38.4008 4.41496C40.9599 4.42295 42.5479 6.25225 42.5479 9.19189V9.19789Z" fill="#2250FF"/>
<path d="M21.552 10.7845H28.7917V7.4904H21.552V4.63962H29.4641V1.3455H17.5842V12.2613L19.9132 17.0453H29.5758V13.7521H21.552V10.7845Z" fill="#2250FF"/>
<path d="M4.18008 1.34351V1.34451H0.233887V17.0253H4.18008V9.1849H7.97789L4.18008 1.34351Z" fill="#2250FF"/>
<path d="M11.7757 9.1849H7.97789L11.7757 17.0253H15.721V1.34351H11.7757V9.1849Z" fill="#2250FF"/>
</svg>
