<svg viewBox="0 0 24 24" fill="none" xmlns="http://www.w3.org/2000/svg">
<path d="M23.374 0.287004C23.0507 0.0552186 22.6486 -0.0386481 22.2561 0.0260513C21.8635 0.0907506 21.5128 0.308717 21.281 0.632004L7.24601 20.2L2.56101 15.511C2.42174 15.3717 2.25639 15.2611 2.07441 15.1857C1.89242 15.1103 1.69736 15.0714 1.50036 15.0714C1.30336 15.0713 1.10828 15.1101 0.926258 15.1854C0.744236 15.2608 0.578838 15.3712 0.439505 15.5105C0.300173 15.6498 0.189635 15.8151 0.114204 15.9971C0.0387723 16.1791 -7.56019e-05 16.3742 -0.000122029 16.5711C-0.000168455 16.7681 0.0385875 16.9632 0.113933 17.1453C0.189279 17.3273 0.299738 17.4927 0.439005 17.632L6.37401 23.566C6.52982 23.7159 6.71575 23.831 6.91944 23.9036C7.12313 23.9762 7.33994 24.0047 7.55546 23.9871C7.77099 23.9695 7.98031 23.9063 8.16953 23.8016C8.35876 23.6969 8.52356 23.5532 8.653 23.38L23.719 2.38C23.9508 2.0567 24.0447 1.65456 23.98 1.26206C23.9153 0.869546 23.6973 0.518812 23.374 0.287004Z" fill="currentColor"/>
</svg>
