<svg viewBox="0 0 24 24" fill="none" xmlns="http://www.w3.org/2000/svg">
<path d="M15 17.25V19.5C15 19.8978 14.842 20.2794 14.5607 20.5607C14.2794 20.842 13.8978 21 13.5 21H10.5C10.1022 21 9.72064 20.842 9.43934 20.5607C9.15804 20.2794 9 19.8978 9 19.5V17.25" stroke="currentColor" stroke-width="1.5" stroke-linecap="round" stroke-linejoin="round"/>
<path d="M12 0.75V2.25" stroke="currentColor" stroke-width="1.5" stroke-linecap="round" stroke-linejoin="round"/>
<path d="M1.5 11.25H3" stroke="currentColor" stroke-width="1.5" stroke-linecap="round" stroke-linejoin="round"/>
<path d="M3.75 3.75L4.85 4.807" stroke="currentColor" stroke-width="1.5" stroke-linecap="round" stroke-linejoin="round"/>
<path d="M22.5 11.25H21" stroke="currentColor" stroke-width="1.5" stroke-linecap="round" stroke-linejoin="round"/>
<path d="M20.25 3.75L19.15 4.807" stroke="currentColor" stroke-width="1.5" stroke-linecap="round" stroke-linejoin="round"/>
<path d="M8.915 17.25H15.085C16.1992 16.6969 17.1345 15.8402 17.7829 14.7786C18.4314 13.7171 18.7666 12.4938 18.75 11.25C18.7184 9.46966 17.9971 7.77106 16.738 6.51197C15.4789 5.25289 13.7803 4.53159 12 4.5C10.219 4.53162 8.5198 5.25347 7.26061 6.51341C6.00141 7.77335 5.28056 9.47296 5.25 11.254C5.23414 12.4972 5.56973 13.7195 6.21813 14.7803C6.86653 15.8411 7.80138 16.6972 8.915 17.25V17.25Z" stroke="currentColor" stroke-width="1.5" stroke-linecap="round" stroke-linejoin="round"/>
<path d="M12 21V23.25" stroke="currentColor" stroke-width="1.5" stroke-linecap="round" stroke-linejoin="round"/>
<path d="M12 13.5V17.25" stroke="currentColor" stroke-width="1.5" stroke-linecap="round" stroke-linejoin="round"/>
<path d="M9.75 11.25L12 13.5L14.25 11.25" stroke="currentColor" stroke-width="1.5" stroke-linecap="round" stroke-linejoin="round"/>
</svg>
