<svg width="315" height="169" viewBox="0 0 315 169" fill="none" xmlns="http://www.w3.org/2000/svg">
<path d="M315 0H0V169H315V0Z" fill="#F6F7F9"/>
<path d="M198.62 139.446C198.36 139.446 198.1 139.36 197.926 139.186C197.753 139.013 197.623 138.753 197.623 138.493C197.623 138.233 197.71 137.973 197.926 137.8C198.1 137.626 198.36 137.496 198.62 137.496C198.923 137.496 199.14 137.583 199.356 137.8C199.573 137.973 199.66 138.233 199.66 138.493C199.66 138.753 199.573 139.013 199.356 139.186C199.14 139.36 198.88 139.446 198.62 139.446ZM198.403 136.456C197.84 136.456 197.407 136.63 197.017 137.063C196.67 137.453 196.453 137.93 196.453 138.493C196.453 139.056 196.627 139.533 197.017 139.923C197.407 140.313 197.84 140.486 198.403 140.486C199.01 140.486 199.443 140.226 199.573 139.923V140.443H200.743V135.027H199.573V137.02C199.443 136.673 199.01 136.456 198.403 136.456ZM195.847 140.399V134.983H194.677V140.399H195.847ZM193.94 140.399V136.5H192.77V140.399H193.94ZM192.684 135.503C192.684 135.85 192.987 136.153 193.334 136.153C193.68 136.153 193.984 135.85 193.984 135.503C193.984 135.113 193.68 134.853 193.334 134.853C192.987 134.853 192.684 135.157 192.684 135.503ZM188.264 138.84C188.264 139.403 188.437 139.793 188.784 140.096C189.131 140.399 189.607 140.529 190.127 140.529C190.647 140.529 191.124 140.399 191.47 140.096C191.817 139.793 192.034 139.403 192.034 138.84V136.5H190.864V138.753C190.864 139.23 190.561 139.49 190.171 139.49C189.781 139.49 189.477 139.273 189.477 138.753V136.5H188.307V138.84H188.264ZM185.578 139.446C185.274 139.446 185.058 139.36 184.841 139.186C184.668 139.013 184.538 138.753 184.538 138.493C184.538 138.233 184.625 137.973 184.841 137.8C185.058 137.626 185.274 137.496 185.578 137.496C185.838 137.496 186.098 137.583 186.271 137.8C186.444 137.973 186.574 138.233 186.574 138.493C186.574 138.753 186.488 139.013 186.271 139.186C186.054 139.36 185.838 139.446 185.578 139.446ZM184.625 140.399V139.879C184.755 140.226 185.188 140.443 185.794 140.443C186.358 140.443 186.791 140.269 187.181 139.879C187.571 139.49 187.744 139.013 187.744 138.45C187.744 137.886 187.571 137.41 187.181 137.02C186.834 136.63 186.358 136.413 185.794 136.413C185.188 136.413 184.755 136.673 184.625 136.976V134.983H183.455V140.399H184.625ZM179.945 138.016C179.988 137.67 180.378 137.366 180.898 137.366C181.375 137.366 181.765 137.67 181.765 138.016H179.945ZM178.775 138.493C178.775 139.1 178.948 139.576 179.382 139.966C179.772 140.313 180.292 140.529 180.942 140.529C181.592 140.529 182.155 140.269 182.631 139.836L181.938 139.186C181.678 139.446 181.332 139.576 180.985 139.576C180.378 139.576 179.988 139.273 179.945 138.796H182.891C182.891 138.666 182.891 138.536 182.891 138.406C182.891 137.843 182.718 137.366 182.328 136.976C181.938 136.586 181.462 136.413 180.898 136.413C180.292 136.413 179.772 136.586 179.382 136.976C178.948 137.323 178.775 137.843 178.775 138.493ZM175.136 140.399L175.829 138.146L176.522 140.399H177.475L178.732 136.5H177.649L176.955 138.666L176.262 136.5H175.352L174.702 138.666L174.009 136.5H172.926L174.139 140.399H175.136Z" fill="#0E0916"/>
<path d="M193.161 108.29H174.27V113.663H193.161V108.29Z" fill="#2250FF"/>
<path d="M193.161 115.526H174.27V120.899H193.161V115.526Z" fill="#E6E2FF"/>
<path d="M193.161 122.807H174.27V128.179H193.161V122.807Z" fill="#340096"/>
<path d="M118.2 44.6764H94.5862L93.8496 42.12H117.464L118.2 44.6764Z" fill="#2250FF"/>
<path d="M119.413 48.6631H95.7991L95.0625 46.1067H118.677L119.413 48.6631Z" fill="#2250FF"/>
<path d="M120.714 52.6497H97.0999L96.3633 50.0933H119.977L120.714 52.6497Z" fill="#E6E2FF"/>
<path d="M121.927 56.6364H98.3128L97.5762 54.08H121.19L121.927 56.6364Z" fill="#340096"/>
<path d="M160.057 88.7033H172.665L172.275 128.18L160.057 88.7033Z" fill="#2250FF"/>
<path d="M109.969 92.8633H119.371L119.111 122.46L109.969 92.8633Z" fill="#2250FF"/>
<path d="M202.735 98.3233H195.412L195.152 121.463L202.735 98.3233Z" fill="#340096"/>
<path d="M189 74.5767H197.536L197.839 47.6234L189 74.5767Z" fill="#340096"/>
<path d="M139.562 67.1667H147.448L147.232 42.25L139.562 67.1667Z" fill="#2250FF"/>
<path d="M170.367 50.0492H160.229L167.984 42.25L170.367 50.0492Z" fill="#2250FF"/>
<path d="M197.189 42.25H220.5L208.845 62.27L197.189 42.25Z" fill="#340096"/>
<path d="M208.845 62.27V42.25H197.189L208.845 62.27Z" fill="#E6E2FF"/>
<path d="M197.189 42.25H220.5L208.845 48.316L197.189 42.25Z" fill="#2250FF"/>
<path d="M136.616 93.5567H126.26L121.061 102.527L126.26 111.54H136.616L141.815 102.527L136.616 93.5567Z" fill="#340096"/>
<path d="M180.985 88.7033V94.5533H187.268V99.8833H193.161V106.47H174.27V88.7033H180.985Z" fill="#340096"/>
<path d="M158.583 68.8133H139.042L135.879 79.2133H155.42L158.583 68.8133Z" fill="#2250FF"/>
<path d="M109.363 91.39L99.7441 61.0567L112.439 61.2733L122.058 91.65L109.363 91.39Z" fill="#340096"/>
<path d="M208.845 79.2133H199.746V65.3033H213.221L208.845 79.2133Z" fill="#2250FF"/>
<path d="M167.25 87.7934C172.826 87.7934 177.345 83.2729 177.345 77.6967C177.345 72.1204 172.826 67.6 167.25 67.6C161.674 67.6 157.154 72.1204 157.154 77.6967C157.154 83.2729 161.674 87.7934 167.25 87.7934Z" fill="#340096"/>
<path d="M120.539 71.2824C123.028 71.2824 125.046 69.2649 125.046 66.7762C125.046 64.2875 123.028 62.27 120.539 62.27C118.051 62.27 116.033 64.2875 116.033 66.7762C116.033 69.2649 118.051 71.2824 120.539 71.2824Z" fill="#E6E2FF"/>
<path d="M205.205 86.4493C207.024 86.4493 208.498 84.975 208.498 83.1563C208.498 81.3376 207.024 79.8633 205.205 79.8633C203.386 79.8633 201.912 81.3376 201.912 83.1563C201.912 84.975 203.386 86.4493 205.205 86.4493Z" fill="#340096"/>
<path d="M123.573 81.4657C126.061 81.4657 128.079 79.4482 128.079 76.9595C128.079 74.4708 126.061 72.4533 123.573 72.4533C121.084 72.4533 119.066 74.4708 119.066 76.9595C119.066 79.4482 121.084 81.4657 123.573 81.4657Z" fill="#340096"/>
<path d="M126.91 91.649C129.399 91.649 131.417 89.6315 131.417 87.1428C131.417 84.6542 129.399 82.6367 126.91 82.6367C124.422 82.6367 122.404 84.6542 122.404 87.1428C122.404 89.6315 124.422 91.649 126.91 91.649Z" fill="#2250FF"/>
<path d="M134.752 82.2033C134.882 88.01 139.691 92.6033 145.497 92.4733C151.304 92.3433 155.896 87.5333 155.766 81.7267L151.217 81.8133C151.304 85.1067 148.66 87.8367 145.368 87.88C142.075 87.9667 139.345 85.3233 139.301 82.03L134.752 82.2033Z" fill="#340096"/>
<path d="M192.424 77.4367C187.614 77.4367 183.715 81.3367 183.715 86.1467C183.715 90.9567 187.614 94.8567 192.424 94.8567C197.233 94.8567 201.133 90.9567 201.133 86.1467C201.09 81.3367 197.19 77.4367 192.424 77.4367ZM192.424 91.0433C189.694 91.0433 187.528 88.8333 187.528 86.1467C187.528 83.4167 189.738 81.25 192.424 81.25C195.154 81.25 197.32 83.46 197.32 86.1467C197.32 88.8767 195.11 91.0433 192.424 91.0433Z" fill="#2250FF"/>
<path d="M166.036 66.7333H159.97C156.114 66.7333 152.951 63.6133 152.951 59.7133V59.41C152.951 55.5533 156.071 52.39 159.97 52.39H166.036C169.893 52.39 173.056 55.51 173.056 59.41V59.7133C173.056 63.57 169.893 66.7333 166.036 66.7333Z" fill="#E6E2FF"/>
<path d="M142.119 113.533H120.801V128.353H142.119V113.533Z" fill="#2250FF"/>
<path d="M149.18 57.85V42.25H163.998L149.18 57.85Z" fill="#340096"/>
<path d="M131.46 119.773C126.737 119.773 122.924 123.586 122.924 128.309H140.039C139.995 123.63 136.182 119.773 131.46 119.773Z" fill="#340096"/>
<path d="M147.188 111.54H138.826L143.808 102.527L138.436 93.5567H152.734L147.188 111.54Z" fill="#E6E2FF"/>
<path d="M204.641 62.7891H200.568V54.21L204.641 62.7891Z" fill="#2250FF"/>
<path d="M197.795 97.0657H203.081L206.071 87.75L197.795 97.0657Z" fill="#2250FF"/>
</svg>
