<svg width="1001" height="470" viewBox="0 0 1001 470" fill="none" xmlns="http://www.w3.org/2000/svg">
<circle r="24.2274" transform="matrix(1 0 0 -1 55.9751 224.872)" fill="#283AE0" stroke="#0E0916" stroke-width="0.823467"/>
<circle r="24.2274" transform="matrix(1 0 0 -1 55.9751 158.127)" fill="#283AE0" stroke="#0E0916" stroke-width="0.823467"/>
<circle r="24.2274" transform="matrix(1 0 0 -1 55.9751 91.3833)" fill="#283AE0" stroke="#0E0916" stroke-width="0.823467"/>
<circle r="24.2274" transform="matrix(1 0 0 -1 55.9751 24.6391)" fill="#283AE0" stroke="#0E0916" stroke-width="0.823467"/>
<circle r="24.2274" transform="matrix(1 0 0 -1 119.252 191.499)" fill="#6B85E5" stroke="#0E0916" stroke-width="0.823467"/>
<circle r="24.2274" transform="matrix(1 0 0 -1 119.252 124.755)" fill="#6B85E5" stroke="#0E0916" stroke-width="0.823467"/>
<circle r="24.2274" transform="matrix(1 0 0 -1 119.252 58.0112)" fill="#6B85E5" stroke="#0E0916" stroke-width="0.823467"/>
<circle r="24.2274" transform="matrix(1 0 0 -1 182.53 158.127)" fill="#18A1F5" stroke="#0E0916" stroke-width="0.823467"/>
<circle r="24.2274" transform="matrix(1 0 0 -1 182.53 91.3833)" fill="#18A1F5" stroke="#0E0916" stroke-width="0.823467"/>
<circle r="24.2274" transform="matrix(1 0 0 -1 245.807 124.755)" fill="#61D691" stroke="#0E0916" stroke-width="0.823467"/>
<rect x="322.64" y="100.75" width="271.994" height="311.5" rx="8.62828" fill="#F0F9FE"/>
<rect x="343.74" y="128.885" width="114.556" height="11.3951" fill="#6B85E5" stroke="#0E0916" stroke-width="1.5"/>
<rect x="343.74" y="284.799" width="230.612" height="11.3951" stroke="#0E0916" stroke-width="1.5"/>
<rect x="343.74" y="302.383" width="230.612" height="11.3951" stroke="#0E0916" stroke-width="1.5"/>
<rect x="343.74" y="319.968" width="101.661" height="11.3951" stroke="#0E0916" stroke-width="1.5"/>
<rect x="343.74" y="378.581" width="114.556" height="11.3951" rx="5.69757" fill="#61D691" stroke="#0E0916" stroke-width="1.5"/>
<g clip-path="url(#clip0_581_48833)">
<rect x="342.99" y="156.27" width="232.112" height="106.678" fill="#6B85E5"/>
<path fill-rule="evenodd" clip-rule="evenodd" d="M339.595 200.478C336.89 199.882 335.541 196.475 335.816 193.577C336.314 188.329 341.155 184.06 346.105 184.168C345.332 183.872 344.666 183.181 344.373 182.354C343.931 181.105 344.188 179.683 344.741 178.485C346.757 174.121 352.968 172.76 356.469 175.913C355.677 170.818 358.112 165.519 361.978 162.347C365.843 159.175 370.647 158.413 375.541 158.656C380.435 158.899 385.464 160.043 389.99 162.021C395.757 164.54 401.356 167.765 405.75 172.438C410.144 177.111 413.249 183.382 413.307 189.96C413.339 193.51 412.252 197.404 409.381 199.261C408.949 199.541 408.489 199.752 408.017 199.926C411.94 209.996 420.192 234.257 412 246.814C407.822 253.218 401.596 256.307 393.981 255.923L393.913 256.264V272.674L357.318 279.36L356.086 235.127C356.086 235.127 344.589 233.839 347.32 224.61C347.083 225.083 346.638 225.408 346.128 225.474C345.661 225.535 345.189 225.379 344.846 225.038C344.48 224.673 344.181 224.22 343.902 223.774C341.18 219.421 339.152 214.587 337.929 209.535C337.158 206.349 336.999 202.302 339.595 200.478Z" fill="#5A77E2"/>
<rect x="480.147" y="148.063" width="35.1685" height="45.7191" fill="#5F7BE2"/>
<rect x="480.147" y="200.816" width="35.1685" height="46.8914" fill="#5F7BE2"/>
<rect x="520.006" y="148.063" width="35.1685" height="45.7191" fill="#5F7BE2"/>
<rect x="520.006" y="200.816" width="35.1685" height="46.8914" fill="#5F7BE2"/>
</g>
<rect x="343.74" y="157.02" width="230.612" height="105.178" stroke="#0E0916" stroke-width="1.5"/>
<path d="M494.119 213.712C494.119 233.37 478.23 249.303 458.636 249.303C439.043 249.303 423.154 233.37 423.154 213.712C423.154 194.054 439.043 178.121 458.636 178.121C478.23 178.121 494.119 194.054 494.119 213.712Z" fill="#18A1F5" stroke="#0E0916" stroke-width="1.5"/>
<path d="M451.591 205.782C451.591 204.597 452.838 203.826 453.899 204.356L469.757 212.285C470.932 212.873 470.932 214.55 469.757 215.137L453.899 223.067C452.838 223.597 451.591 222.826 451.591 221.64V213.711V205.782Z" fill="#9DD7FB" stroke="#0E0916" stroke-width="1.5"/>
<rect x="322.64" y="100.75" width="271.994" height="311.5" rx="8.62828" stroke="#0E0916" stroke-width="1.5"/>
<line x1="0.428711" y1="436.5" x2="1000.43" y2="436.5" stroke="#0E0916"/>
<path d="M722.48 194.349C722.48 240.306 685.336 277.559 639.52 277.559C593.704 277.559 556.561 240.306 556.561 194.349C556.561 148.391 593.704 111.138 639.52 111.138C685.336 111.138 722.48 148.391 722.48 194.349Z" fill="#61D691" stroke="#0E0916"/>
<mask id="mask0_581_48833" style="mask-type:alpha" maskUnits="userSpaceOnUse" x="556" y="110" width="167" height="169">
<path d="M722.48 194.349C722.48 240.306 685.336 277.559 639.52 277.559C593.704 277.559 556.561 240.306 556.561 194.349C556.561 148.391 593.704 111.138 639.52 111.138C685.336 111.138 722.48 148.391 722.48 194.349Z" fill="#61D691" stroke="black"/>
</mask>
<g mask="url(#mask0_581_48833)">
<path fill-rule="evenodd" clip-rule="evenodd" d="M606.036 168.517C605.939 169.215 596.357 202.03 604.078 219.574C606.292 224.605 609.635 228.826 614.417 230.268L614.458 230.423V249.128L653.072 256.154L654.372 209.524C654.372 209.524 661.416 211.501 663.76 206.184C666.102 200.866 662.28 197.651 659.321 196.414C659.321 196.414 658.796 174.793 656.372 174.445C653.947 174.097 606.036 168.517 606.036 168.517Z" fill="#FFD8BA"/>
<path d="M616.912 220.245C620.655 222.927 623.337 219.182 623.337 219.182" stroke="#0E0916" stroke-linecap="round" stroke-linejoin="round"/>
<path d="M621.375 211.478C621.375 211.478 611.554 213.795 612.75 205.765C613.425 201.235 615.029 194.186 616.3 188.898" stroke="#0E0916" stroke-linecap="round" stroke-linejoin="round"/>
<path d="M632.234 195.738C632.234 195.738 628.188 194.304 625.889 195.558" stroke="#0E0916" stroke-linecap="round" stroke-linejoin="round"/>
<path d="M611.038 196.426C611.038 196.426 608.274 194.828 605.352 196.361" stroke="#0E0916" stroke-linecap="round" stroke-linejoin="round"/>
<path d="M653.072 256.154L654.372 209.523C654.372 209.523 661.417 211.502 663.759 206.184C666.102 200.866 662.28 197.65 659.32 196.413" stroke="#0E0916" stroke-linecap="round" stroke-linejoin="round"/>
<path d="M656.449 201.064C657.237 200.295 658.591 200.294 659.486 200.937C660.382 201.58 660.818 202.744 660.743 203.844C660.67 204.946 660.138 205.978 659.423 206.814C659.075 207.22 658.676 207.593 658.193 207.82" stroke="#0E0916" stroke-linecap="round" stroke-linejoin="round"/>
<path d="M606.036 168.517C605.939 169.215 596.357 202.03 604.078 219.574C607.915 228.293 615.147 234.583 627.387 228.184" stroke="#0E0916" stroke-linecap="round" stroke-linejoin="round"/>
<path d="M662.53 213.985C662.53 217.117 659.999 219.652 656.882 219.652C653.763 219.652 651.233 217.117 651.233 213.985C651.233 210.853 653.763 208.317 656.882 208.317C659.999 208.317 662.53 210.853 662.53 213.985Z" fill="white" stroke="#0E0916"/>
<path d="M614.458 230.422V249.127" stroke="#0E0916" stroke-linecap="round" stroke-linejoin="round"/>
<path d="M542.249 266.752L542.272 266.734L542.293 266.714L541.948 266.352C542.293 266.714 542.293 266.714 542.293 266.714L542.294 266.713L542.299 266.709L542.317 266.691C542.334 266.676 542.359 266.652 542.392 266.621C542.459 266.558 542.56 266.465 542.693 266.344C542.958 266.101 543.354 265.745 543.872 265.295C544.907 264.394 546.429 263.116 548.37 261.611C552.254 258.601 557.814 254.685 564.518 251.061C577.883 243.837 595.723 237.816 613.878 242.353C614.412 243.38 615.672 244.558 617.495 245.62C619.481 246.777 622.204 247.838 625.587 248.443C632.332 249.648 641.704 249.041 653.127 243.768C673.576 246.905 685.176 248.894 692.573 251.224C696.27 252.389 698.894 253.632 701.036 255.133C703.179 256.633 704.863 258.407 706.667 260.664L707.057 260.352L706.667 260.664C710.338 265.258 711.23 270.927 711.187 275.491C711.166 277.769 710.912 279.757 710.664 281.174C710.54 281.883 710.417 282.448 710.326 282.834C710.307 282.917 710.288 282.992 710.272 283.059H520.575L542.249 266.752Z" fill="#374052" stroke="#0E0916"/>
<path fill-rule="evenodd" clip-rule="evenodd" d="M600.387 179.916C601.385 184.313 607.823 184.808 612.29 185.319C625 186.77 638.06 185.036 649.955 180.317C648.509 184.687 648.252 189.682 650.413 193.744C652.573 197.807 657.814 200.135 662.156 198.64C667.564 196.779 669.173 190.3 668.775 184.578C668.002 173.475 660.939 163.649 650.689 159.412C643.679 156.514 635.815 156.13 628.322 157.302C617.514 158.991 597.055 165.247 600.387 179.916Z" fill="#374052"/>
<path fill-rule="evenodd" clip-rule="evenodd" d="M683.637 166.653C691.679 154.663 688.991 138.73 677.633 131.066C666.275 123.401 650.548 126.908 642.505 138.897C634.463 150.886 637.151 166.82 648.509 174.484C659.867 182.149 675.594 178.642 683.637 166.653Z" fill="#374052"/>
</g>
<path fill-rule="evenodd" clip-rule="evenodd" d="M722.98 194.349C722.98 240.581 685.613 278.059 639.52 278.059C593.426 278.059 556.061 240.581 556.061 194.349C556.061 148.116 593.426 110.638 639.52 110.638C685.613 110.638 722.98 148.116 722.98 194.349Z" stroke="#0E0916" stroke-width="0.948414" stroke-linecap="round" stroke-linejoin="round"/>
<path d="M763.428 116.05H763.428L797.73 115.825C797.73 115.825 797.73 115.825 797.73 115.825C801.729 115.798 804.952 112.525 804.925 108.512V108.512L804.7 74.1068V74.1066C804.675 70.0929 801.409 66.8618 797.414 66.8888L797.413 66.8888L763.111 67.1143L763.111 67.1143C759.113 67.1393 755.89 70.411 755.915 74.4275L763.428 116.05ZM763.428 116.05C759.433 116.077 756.167 112.846 756.139 108.832C756.139 108.832 756.139 108.832 756.139 108.832L755.915 74.4277L763.428 116.05Z" fill="#F0F9FE" stroke="#0E0916" stroke-width="1.5"/>
<path d="M771.487 87.7404L778.757 100.214L822.413 64.6377" stroke="#0E0916" stroke-width="2.50327" stroke-linecap="round" stroke-linejoin="round"/>
<path d="M923.675 85.2057L923.672 104.485L839.856 104.477L839.858 85.1983L923.675 85.2057Z" fill="#283AE0" stroke="#0E0916"/>
<path d="M763.428 183.264H763.428L797.73 183.041C801.712 183.014 804.922 179.755 804.895 175.758V175.758L804.67 141.353V141.353C804.645 137.356 801.393 134.138 797.414 134.165L797.414 134.165L763.112 134.388C763.112 134.388 763.112 134.388 763.112 134.388C759.13 134.415 755.92 137.674 755.945 141.673L763.428 183.264ZM763.428 183.264C759.449 183.291 756.197 180.076 756.169 176.078C756.169 176.078 756.169 176.078 756.169 176.078L755.945 141.674L763.428 183.264Z" fill="#F0F9FE" stroke="#0E0916" stroke-width="1.56"/>
<path d="M771.487 154.983L778.757 167.459L822.413 131.88" stroke="#0E0916" stroke-width="2" stroke-linecap="round" stroke-linejoin="round"/>
<path d="M923.671 152.452L923.669 171.731L839.854 171.723V152.444L923.671 152.452Z" fill="#283AE0" stroke="#0E0916"/>
<path d="M49.5092 344.72C49.5092 344.72 49.5093 344.72 49.5093 344.721C49.5093 344.72 49.5092 344.72 49.5091 344.72L49.5092 344.72ZM36.5711 359.5C43.156 358.033 48.313 352.862 49.7806 346.262C51.2482 352.862 56.4052 358.033 62.9901 359.5C56.4052 360.967 51.2482 366.138 49.7806 372.738C48.313 366.138 43.156 360.967 36.5711 359.5ZM49.5091 374.28C49.5093 374.28 49.5093 374.279 49.5095 374.278C49.5094 374.279 49.5093 374.28 49.5092 374.28L49.5091 374.28ZM50.0517 374.278C50.0518 374.279 50.052 374.28 50.0521 374.28L50.052 374.28L50.0517 374.278ZM50.0519 344.721C50.0519 344.72 50.052 344.72 50.052 344.72L50.0521 344.72C50.052 344.72 50.0519 344.72 50.0519 344.721Z" fill="#F0F9FE" stroke="#0E0916" stroke-width="1.5"/>
<path d="M303.746 42.7197C303.747 42.7201 303.747 42.7205 303.747 42.7209C303.747 42.7204 303.747 42.72 303.746 42.7196L303.746 42.7197ZM290.808 57.5C297.393 56.0329 302.55 50.8625 304.018 44.2618C305.486 50.8625 310.643 56.0329 317.227 57.5C310.643 58.9671 305.486 64.1375 304.018 70.7383C302.55 64.1375 297.393 58.9671 290.808 57.5ZM303.746 72.2805C303.747 72.2796 303.747 72.2788 303.747 72.278C303.747 72.2788 303.747 72.2795 303.746 72.2803L303.746 72.2805ZM304.289 72.278C304.289 72.2788 304.289 72.2796 304.289 72.2805L304.289 72.2803L304.289 72.278ZM304.289 42.7209C304.289 42.7205 304.289 42.7201 304.289 42.7197L304.289 42.7196C304.289 42.72 304.289 42.7204 304.289 42.7209Z" fill="#F0F9FE" stroke="#0E0916" stroke-width="1.5"/>
<path d="M929.868 214.72C929.868 214.72 929.868 214.72 929.868 214.721C929.868 214.72 929.868 214.72 929.868 214.72L929.868 214.72ZM916.93 229.5C923.515 228.033 928.672 222.862 930.139 216.262C931.607 222.862 936.764 228.033 943.349 229.5C936.764 230.967 931.607 236.138 930.139 242.738C928.672 236.138 923.515 230.967 916.93 229.5ZM929.868 244.28C929.868 244.28 929.868 244.279 929.868 244.278C929.868 244.279 929.868 244.28 929.868 244.28L929.868 244.28ZM930.411 244.278C930.411 244.279 930.411 244.28 930.411 244.28L930.411 244.28L930.411 244.278ZM930.411 214.721C930.411 214.72 930.411 214.72 930.411 214.72L930.411 214.72C930.411 214.72 930.411 214.72 930.411 214.721Z" fill="#F0F9FE" stroke="#0E0916" stroke-width="1.5"/>
<path fill-rule="evenodd" clip-rule="evenodd" d="M106.993 249L107.654 254.069C109.026 264.577 117.271 272.847 127.746 274.221L132.8 274.884L127.746 275.548C117.271 276.923 109.026 285.192 107.654 295.701L106.993 300.769L106.332 295.701C104.96 285.192 96.7153 276.923 86.24 275.548L81.1865 274.884L86.24 274.221C96.7153 272.847 104.96 264.577 106.332 254.069L106.993 249Z" fill="#F0F9FE" stroke="#0E0916" stroke-width="1.58544" stroke-linecap="round" stroke-linejoin="round"/>
<path fill-rule="evenodd" clip-rule="evenodd" d="M690.243 13L690.904 18.0687C692.276 28.577 700.521 36.8467 710.996 38.2212L716.05 38.8839L710.996 39.5482C700.521 40.9228 692.276 49.1925 690.904 59.7008L690.243 64.7695L689.582 59.7008C688.21 49.1925 679.965 40.9228 669.49 39.5482L664.437 38.8839L669.49 38.2212C679.965 36.8467 688.21 28.577 689.582 18.0687L690.243 13Z" fill="#F0F9FE" stroke="#0E0916" stroke-width="1.58544" stroke-linecap="round" stroke-linejoin="round"/>
<path fill-rule="evenodd" clip-rule="evenodd" d="M262.882 290.572V247.863L262.772 247.591C272.61 246.159 279.405 239.175 283.816 230.732C297.556 204.423 282.22 155.974 282.077 154.94L261.993 145.51L219.273 152.45L181.065 195.299L193.701 297.29L262.882 290.572Z" fill="#CC9D7A"/>
<path d="M254.896 233.134C245.984 236.151 242.846 227.375 242.846 227.375" stroke="#0E0916" stroke-width="1.26455" stroke-linecap="round" stroke-linejoin="round"/>
<path d="M262.881 247.863V275.284" stroke="#0E0916" stroke-width="1.26455" stroke-linecap="round" stroke-linejoin="round"/>
<path d="M183.377 172.824L183.768 172.634L183.634 172.22C181.326 165.11 184.126 157.261 189.247 150.986C194.369 144.711 201.709 140.143 208.251 139.545L208.251 139.545C208.692 139.505 209.055 139.218 209.35 138.908C209.656 138.585 209.97 138.148 210.302 137.653C210.489 137.373 210.684 137.071 210.891 136.751C211.433 135.913 212.057 134.949 212.832 133.924C214.955 131.112 218.145 127.934 223.448 126.298L223.301 125.82L223.448 126.298C227.817 124.95 236.218 124.623 243.934 125.658C247.784 126.175 251.428 127.026 254.286 128.239C257.167 129.461 259.141 131.004 259.833 132.834L260.795 132.581C260.795 132.58 260.794 132.578 260.794 132.577C260.791 132.559 260.786 132.533 260.864 132.471C260.972 132.383 261.189 132.281 261.556 132.2C262.281 132.039 263.393 131.999 264.8 132.108C267.602 132.327 271.437 133.127 275.369 134.567C279.301 136.006 283.301 138.074 286.453 140.81C289.602 143.544 291.88 146.924 292.437 150.998C293.245 156.916 292.384 160.837 290.866 163.576C289.346 166.319 287.135 167.939 285.109 169.201C283.371 170.284 282.05 171.08 281.019 171.624C279.977 172.173 279.281 172.437 278.779 172.502C278.323 172.561 278.042 172.456 277.776 172.213C277.467 171.933 277.175 171.465 276.771 170.741C276.695 170.604 276.615 170.461 276.533 170.311C275.758 168.903 274.664 166.917 272.564 164.552C270.241 161.935 266.699 158.867 261.003 155.56L259.734 154.823L260.289 156.182C264.151 165.623 263.379 173.024 259.994 178.805C256.592 184.613 250.509 188.862 243.604 191.874C236.706 194.884 229.041 196.637 222.556 197.483C219.315 197.906 216.376 198.101 213.982 198.115C211.575 198.13 209.76 197.96 208.745 197.674L208.745 197.674C204.515 196.481 200.879 196.285 198.003 197.454C195.096 198.636 193.072 201.169 191.987 205.184L192.47 205.315L191.987 205.185C190.407 211.036 193.826 215.309 197.475 218.051C199.307 219.428 201.229 220.447 202.689 221.121C203.42 221.458 204.038 221.711 204.474 221.879C204.616 221.934 204.739 221.979 204.84 222.016L206.095 265.669C205.131 266.159 203.995 266.972 202.739 268.001C201.342 269.146 199.764 270.583 198.064 272.198C196.412 273.767 194.637 275.51 192.791 277.322L192.628 277.482C190.723 279.353 188.743 281.296 186.739 283.203C182.727 287.019 178.634 290.678 174.874 293.316C172.995 294.636 171.211 295.691 169.574 296.384C167.932 297.079 166.471 297.396 165.223 297.28C163.468 297.117 162.441 296.538 161.875 295.709C161.297 294.863 161.121 293.645 161.327 292.04C161.738 288.819 163.628 284.413 165.973 279.385C166.431 278.405 166.904 277.403 167.386 276.384C169.358 272.211 171.464 267.756 173.12 263.373C175.177 257.926 176.572 252.515 176.129 247.821C174.665 232.299 173.199 215.092 173.769 200.954C174.055 193.884 174.848 187.612 176.392 182.714C177.939 177.805 180.209 174.369 183.377 172.824Z" fill="#374052" stroke="#0E0916"/>
<path d="M243.729 244.261C264.435 253.381 276.986 243.807 283.814 230.732C292.991 213.16 289.198 185.713 285.624 169.111" stroke="#0E0916" stroke-width="1.26455" stroke-linecap="round" stroke-linejoin="round"/>
<path d="M204.005 213.843C204.005 213.843 198.36 213.01 197.974 207.984C197.598 203.07 203.817 202.787 203.817 202.787" stroke="#0E0916" stroke-width="1.26455" stroke-linecap="round" stroke-linejoin="round"/>
<path fill-rule="evenodd" clip-rule="evenodd" d="M266.6 197.675C266.6 205.327 272.784 211.529 280.413 211.529C288.042 211.529 294.227 205.327 294.227 197.675C294.227 190.023 288.042 183.82 280.413 183.82C272.784 183.82 266.6 190.023 266.6 197.675Z" fill="white"/>
<path fill-rule="evenodd" clip-rule="evenodd" d="M266.6 197.675C266.6 205.327 272.784 211.529 280.413 211.529C288.042 211.529 294.227 205.327 294.227 197.675C294.227 190.023 288.042 183.82 280.413 183.82C272.784 183.82 266.6 190.023 266.6 197.675Z" stroke="#0E0916" stroke-width="1.26455" stroke-linecap="round" stroke-linejoin="round"/>
<path fill-rule="evenodd" clip-rule="evenodd" d="M278.13 198.47C278.13 198.47 281.385 196.975 284.825 198.403L278.13 198.47Z" fill="#D4D2DF"/>
<path d="M278.13 198.47C278.13 198.47 281.385 196.975 284.825 198.403" stroke="#0E0916" stroke-width="1.26455" stroke-linecap="round" stroke-linejoin="round"/>
<path fill-rule="evenodd" clip-rule="evenodd" d="M230.625 197.675C230.625 205.327 236.809 211.529 244.438 211.529C252.067 211.529 258.252 205.327 258.252 197.675C258.252 190.023 252.067 183.82 244.438 183.82C236.809 183.82 230.625 190.023 230.625 197.675Z" fill="white"/>
<path fill-rule="evenodd" clip-rule="evenodd" d="M230.625 197.675C230.625 205.327 236.809 211.529 244.438 211.529C252.067 211.529 258.252 205.327 258.252 197.675C258.252 190.023 252.067 183.82 244.438 183.82C236.809 183.82 230.625 190.023 230.625 197.675Z" stroke="#0E0916" stroke-width="1.26455" stroke-linecap="round" stroke-linejoin="round"/>
<path fill-rule="evenodd" clip-rule="evenodd" d="M242.155 198.47C242.155 198.47 245.411 196.975 248.85 198.403L242.155 198.47Z" fill="#D4D2DF"/>
<path d="M242.155 198.47C242.155 198.47 245.411 196.975 248.85 198.403" stroke="#0E0916" stroke-width="1.26455" stroke-linecap="round" stroke-linejoin="round"/>
<path d="M263.572 204.095C263.572 204.095 267.193 217.058 262.695 219.512C262.695 219.512 260.416 220.729 257.436 219.816" stroke="#0E0916" stroke-width="1.26455" stroke-linecap="round" stroke-linejoin="round"/>
<path d="M258.252 197.674H266.6" stroke="#0E0916" stroke-width="1.26455" stroke-linecap="round" stroke-linejoin="round"/>
<path fill-rule="evenodd" clip-rule="evenodd" d="M151.285 416.896C151.285 416.896 117.903 292.234 170.31 272.383C189.102 269.388 206.959 266.228 206.959 266.228C225.553 276.223 244.188 276.948 262.882 265.248C262.882 265.248 313.582 267.809 325.137 290.988C336.692 314.167 351.925 409.521 351.925 409.521L151.285 416.896Z" fill="#18A1F5"/>
<path fill-rule="evenodd" clip-rule="evenodd" d="M151.285 416.896C151.285 416.896 117.903 292.234 170.31 272.383C189.102 269.388 206.959 266.228 206.959 266.228C225.553 276.223 244.188 276.948 262.882 265.248C262.882 265.248 313.582 267.809 325.137 290.988C336.692 314.167 351.925 409.521 351.925 409.521L151.285 416.896Z" stroke="#0E0916" stroke-width="1.26455" stroke-linecap="round" stroke-linejoin="round"/>
<path d="M329.811 351.097L325.388 353.769L324.869 353.235C324.268 352.617 323.4 351.725 322.332 350.627C320.197 348.433 317.262 345.419 314.062 342.141C307.665 335.587 300.209 327.972 295.984 323.745L329.811 351.097ZM329.811 351.097L300.318 319.531L300.318 319.53C299.312 318.452 297.677 318.262 296.449 319.078C294.859 320.137 294.634 322.393 295.984 323.745L329.811 351.097Z" fill="#F0F9FE" stroke="#0E0916" stroke-width="1.5"/>
<path fill-rule="evenodd" clip-rule="evenodd" d="M346.518 382.458C350.016 380.346 353.503 378.216 357.016 376.129C361.361 373.544 362.267 368.444 361.099 365.215C360.067 362.361 356.563 360.778 353.78 359.592C353.78 359.592 354.237 358.327 354.03 357.532C353.216 354.412 351.302 351.926 347.962 350.827C346.956 347.063 344.577 344.555 341.067 343.451C340.76 343.355 340.458 343.034 340.293 342.739C339.23 340.83 337.91 339.161 336.02 338.016C333.516 336.5 330.839 336.261 328.081 337.111C326.955 337.457 325.829 337.899 324.807 338.48C321.549 340.334 318.256 342.145 315.326 344.521C311.881 347.317 308.901 350.569 306.045 353.953C304.433 355.863 303.485 358.943 301.809 360.797C301.464 361.18 301.041 361.501 300.629 361.818C299.047 363.033 282.599 369.875 283.62 371.58C288.751 380.141 296.061 389.52 301.199 398.076C301.771 399.03 314.665 390.95 315.521 391.119C316.619 390.973 332.584 390.227 338.786 386.483C340.771 385.285 343.285 384.047 345.814 382.905C345.807 382.901 345.802 382.898 345.796 382.894C346.133 382.69 346.325 382.574 346.518 382.458Z" fill="#CC9D7A"/>
<path fill-rule="evenodd" clip-rule="evenodd" d="M346.518 382.458C350.016 380.346 353.503 378.216 357.016 376.129C361.361 373.544 362.267 368.444 361.099 365.215C360.067 362.361 356.563 360.778 353.78 359.592C353.78 359.592 354.237 358.327 354.03 357.532C353.216 354.412 351.302 351.926 347.962 350.827C346.956 347.063 344.577 344.555 341.067 343.451C340.76 343.355 340.458 343.034 340.293 342.739C339.23 340.83 337.91 339.161 336.02 338.016C333.516 336.5 330.839 336.261 328.081 337.111C326.955 337.457 325.829 337.899 324.807 338.48C321.549 340.334 318.256 342.145 315.326 344.521C311.881 347.317 308.901 350.569 306.045 353.953C304.433 355.863 303.485 358.943 301.809 360.797C301.464 361.18 301.041 361.501 300.629 361.818C299.047 363.033 282.599 369.875 283.62 371.58C288.751 380.141 296.061 389.52 301.199 398.076C301.771 399.03 314.665 390.95 315.521 391.119C316.619 390.973 332.584 390.227 338.786 386.483C340.771 385.285 343.285 384.047 345.814 382.905C345.807 382.901 345.802 382.898 345.796 382.894C346.133 382.69 346.325 382.574 346.518 382.458Z" stroke="#0E0916" stroke-width="1.26455"/>
<path fill-rule="evenodd" clip-rule="evenodd" d="M154.334 284.14C154.334 284.14 132.952 302.51 139.139 350.352C144.891 394.804 155.098 456.733 168.708 463.917C182.317 471.102 211.684 467.51 233.173 455.297C254.661 443.082 316.979 410.035 316.979 410.035L291.192 364.056L208.104 396.385C208.104 396.385 197.359 322.643 190.913 309.942" fill="#18A1F5"/>
<path d="M154.334 284.14C154.334 284.14 132.952 302.51 139.139 350.352C144.891 394.804 155.098 456.733 168.708 463.917C182.317 471.102 211.684 467.51 233.173 455.297C254.661 443.082 316.979 410.035 316.979 410.035L291.192 364.056L208.104 396.385C208.104 396.385 197.359 322.643 190.913 309.942" stroke="#0E0916" stroke-width="1.5" stroke-linecap="round" stroke-linejoin="round"/>
<g clip-path="url(#clip1_581_48833)">
<mask id="path-77-inside-1_581_48833" fill="white">
<path fill-rule="evenodd" clip-rule="evenodd" d="M361.977 437.367C361.977 437.367 363.413 442.157 362.934 447.186C362.456 452.215 362.216 464.597 348.805 468.823C335.395 473.049 323.663 465.856 318.657 458.441C315.476 453.729 315.039 439.044 315.039 439.044L337.071 429.225L361.977 437.367Z"/>
</mask>
<path fill-rule="evenodd" clip-rule="evenodd" d="M361.977 437.367C361.977 437.367 363.413 442.157 362.934 447.186C362.456 452.215 362.216 464.597 348.805 468.823C335.395 473.049 323.663 465.856 318.657 458.441C315.476 453.729 315.039 439.044 315.039 439.044L337.071 429.225L361.977 437.367Z" fill="#18A1F5"/>
<path d="M361.977 437.367L362.935 437.08L362.784 436.579L362.287 436.417L361.977 437.367ZM362.934 447.186L361.938 447.091L361.938 447.092L362.934 447.186ZM318.657 458.441L317.828 459L318.657 458.441ZM315.039 439.044L314.632 438.13L314.02 438.403L314.04 439.074L315.039 439.044ZM337.071 429.225L337.382 428.274L337.016 428.154L336.664 428.311L337.071 429.225ZM361.977 437.367C361.019 437.654 361.019 437.654 361.019 437.654C361.019 437.654 361.019 437.654 361.019 437.654C361.019 437.654 361.019 437.654 361.019 437.654C361.019 437.654 361.019 437.654 361.019 437.655C361.019 437.656 361.02 437.659 361.021 437.662C361.023 437.67 361.027 437.681 361.031 437.698C361.041 437.73 361.055 437.779 361.073 437.845C361.109 437.978 361.16 438.175 361.222 438.428C361.344 438.936 361.503 439.667 361.648 440.552C361.939 442.329 362.167 444.692 361.938 447.091L363.929 447.281C364.18 444.651 363.929 442.105 363.622 440.229C363.468 439.288 363.298 438.507 363.166 437.96C363.1 437.686 363.043 437.469 363.002 437.32C362.982 437.245 362.966 437.187 362.954 437.147C362.948 437.126 362.944 437.111 362.94 437.099C362.939 437.094 362.937 437.089 362.936 437.086C362.936 437.085 362.936 437.083 362.935 437.082C362.935 437.082 362.935 437.081 362.935 437.081C362.935 437.081 362.935 437.08 362.935 437.08C362.935 437.08 362.935 437.08 361.977 437.367ZM361.938 447.092C361.448 452.256 361.2 463.868 348.505 467.869L349.106 469.777C363.232 465.325 363.464 452.175 363.929 447.281L361.938 447.092ZM348.505 467.869C335.61 471.933 324.304 465.018 319.486 457.881L317.828 459C323.022 466.694 335.179 474.165 349.106 469.777L348.505 467.869ZM319.486 457.881C318.795 456.858 318.204 455.202 317.722 453.189C317.246 451.202 316.899 448.967 316.648 446.857C316.397 444.751 316.245 442.787 316.155 441.35C316.11 440.631 316.081 440.045 316.063 439.64C316.054 439.437 316.048 439.28 316.044 439.173C316.042 439.12 316.041 439.08 316.04 439.053C316.039 439.04 316.039 439.03 316.039 439.023C316.039 439.02 316.039 439.017 316.039 439.016C316.039 439.015 316.039 439.015 316.039 439.014C316.039 439.014 316.039 439.014 316.039 439.014C316.039 439.014 316.039 439.014 315.039 439.044C314.04 439.074 314.04 439.074 314.04 439.074C314.04 439.074 314.04 439.074 314.04 439.075C314.04 439.075 314.04 439.076 314.04 439.077C314.04 439.079 314.04 439.082 314.04 439.086C314.04 439.093 314.04 439.105 314.041 439.119C314.042 439.148 314.043 439.191 314.045 439.246C314.049 439.358 314.056 439.52 314.065 439.728C314.083 440.144 314.113 440.742 314.159 441.474C314.25 442.937 314.406 444.94 314.662 447.093C314.918 449.244 315.276 451.563 315.777 453.655C316.272 455.72 316.928 457.667 317.828 459L319.486 457.881ZM315.446 439.957L337.478 430.138L336.664 428.311L314.632 438.13L315.446 439.957ZM336.761 430.175L361.666 438.318L362.287 436.417L337.382 428.274L336.761 430.175Z" fill="#0E0916" mask="url(#path-77-inside-1_581_48833)"/>
<path fill-rule="evenodd" clip-rule="evenodd" d="M353.646 348L258.65 446.114L262.307 449.819L330.366 442.156L421.948 354.913L421.848 350.714L353.646 348Z" fill="#374052"/>
<path fill-rule="evenodd" clip-rule="evenodd" d="M335.188 441.807C337.688 450.808 340.827 449.807 346.828 449.806C354.821 448.306 353.206 440.545 354.821 440.308C357.83 439.867 365.115 440.268 370.877 432.319C376.638 424.371 373.4 416.229 369.476 409.993C365.553 403.758 355.976 398.227 342.893 399.952C337.091 400.952 336.503 405.441 339.102 409.993C333.395 410.881 329.817 414.812 335.188 421.418C328.011 422.64 332.605 429.196 337.33 433.812C339.542 435.973 335.188 437.307 335.188 441.807Z" fill="#CC9D7A"/>
<path d="M335.188 441.807L334.556 441.806L334.556 441.893L334.579 441.976L335.188 441.807ZM342.893 399.952L342.811 399.325L342.798 399.327L342.786 399.329L342.893 399.952ZM339.102 409.993L339.2 410.618L340.107 410.477L339.652 409.68L339.102 409.993ZM335.188 421.418L335.294 422.042L336.362 421.86L335.679 421.02L335.188 421.418ZM346.828 449.806L346.828 450.439L346.886 450.439L346.944 450.428L346.828 449.806ZM337.33 433.812L337.772 433.36L337.33 433.812ZM339.005 409.368C336.073 409.825 333.494 411.088 332.423 413.284C331.326 415.531 331.949 418.436 334.698 421.817L335.679 421.02C333.057 417.794 332.783 415.43 333.559 413.838C334.361 412.196 336.424 411.05 339.2 410.618L339.005 409.368ZM342.786 399.329C339.725 399.856 337.878 401.347 337.242 403.458C336.623 405.51 337.212 407.958 338.553 410.307L339.652 409.68C338.393 407.477 337.976 405.404 338.452 403.823C338.911 402.301 340.26 401.047 343.001 400.575L342.786 399.329ZM354.913 440.934C357.827 440.506 365.438 440.899 371.389 432.69L370.365 431.948C364.792 439.636 357.833 439.228 354.729 439.682L354.913 440.934ZM371.389 432.69C377.396 424.403 373.96 415.931 370.011 409.657L368.941 410.33C372.84 416.526 375.88 424.339 370.365 431.948L371.389 432.69ZM370.011 409.657C365.94 403.186 356.105 397.573 342.811 399.325L342.976 400.579C355.847 398.882 365.166 404.331 368.941 410.33L370.011 409.657ZM334.579 441.976C335.839 446.513 337.314 448.754 339.425 449.753C340.461 450.244 341.592 450.406 342.804 450.454C343.993 450.501 345.374 450.439 346.828 450.439L346.828 449.174C345.281 449.174 344.019 449.237 342.854 449.191C341.712 449.145 340.777 448.995 339.966 448.611C338.382 447.86 337.037 446.101 335.797 441.637L334.579 441.976ZM346.944 450.428C349.049 450.033 350.561 449.216 351.656 448.182C352.746 447.153 353.389 445.94 353.809 444.803C354.223 443.683 354.438 442.576 354.627 441.838C354.727 441.446 354.813 441.183 354.9 441.019C354.987 440.854 355.004 440.92 354.913 440.934L354.729 439.682C354.234 439.755 353.948 440.115 353.783 440.426C353.618 440.737 353.503 441.131 353.402 441.524C353.19 442.355 353.006 443.326 352.623 444.364C352.246 445.384 351.693 446.408 350.788 447.263C349.886 448.114 348.602 448.83 346.711 449.185L346.944 450.428ZM335.082 420.795C333.204 421.115 331.927 421.811 331.286 422.901C330.645 423.991 330.75 425.289 331.2 426.554C332.094 429.07 334.518 431.949 336.888 434.264L337.772 433.36C335.416 431.059 333.181 428.352 332.392 426.13C331.999 425.027 332.007 424.168 332.376 423.542C332.744 422.914 333.584 422.333 335.294 422.042L335.082 420.795ZM336.888 434.264C337.117 434.488 337.228 434.669 337.28 434.81C337.329 434.943 337.337 435.072 337.308 435.22C337.241 435.564 336.994 435.962 336.57 436.571C335.768 437.722 334.556 439.333 334.556 441.806L335.82 441.807C335.82 439.78 336.785 438.474 337.607 437.294C337.995 436.736 338.422 436.115 338.549 435.461C338.617 435.109 338.603 434.744 338.466 434.373C338.333 434.01 338.095 433.676 337.772 433.36L336.888 434.264Z" fill="#0E0916"/>
</g>
<rect x="658.946" y="260.75" width="230.803" height="56.5" rx="13.25" fill="#F0F9FE" stroke="#0E0916" stroke-width="1.5"/>
<rect x="725.746" y="280.75" width="149.048" height="17.5" rx="4.25" fill="#6B85E5" stroke="#0E0916" stroke-width="1.5"/>
<mask id="path-84-inside-2_581_48833" fill="white">
<path d="M677.522 291.03C677.138 290.116 677.034 289.108 677.223 288.135L680.664 270.417C680.8 269.718 681.6 269.379 682.194 269.77L697.242 279.671C698.069 280.215 698.716 280.993 699.1 281.907L707.993 303.068C708.207 303.577 707.968 304.164 707.459 304.379L687.724 312.723C687.215 312.938 686.629 312.7 686.415 312.191L677.522 291.03Z"/>
</mask>
<path d="M677.522 291.03C677.138 290.116 677.034 289.108 677.223 288.135L680.664 270.417C680.8 269.718 681.6 269.379 682.194 269.77L697.242 279.671C698.069 280.215 698.716 280.993 699.1 281.907L707.993 303.068C708.207 303.577 707.968 304.164 707.459 304.379L687.724 312.723C687.215 312.938 686.629 312.7 686.415 312.191L677.522 291.03Z" fill="#6B85E5"/>
<path d="M680.664 270.417L682.135 270.701L680.664 270.417ZM682.194 269.77L681.37 271.025L682.194 269.77ZM677.223 288.135L678.694 288.419L677.223 288.135ZM697.718 282.491L706.612 303.652L709.375 302.484L700.481 281.323L697.718 282.491ZM706.878 302.996L687.143 311.341L688.305 314.106L708.041 305.762L706.878 302.996ZM687.797 311.607L678.904 290.446L676.14 291.614L685.034 312.775L687.797 311.607ZM678.694 288.419L682.135 270.701L679.192 270.132L675.752 287.85L678.694 288.419ZM681.37 271.025L696.418 280.926L698.066 278.416L683.018 268.515L681.37 271.025ZM682.135 270.701C682.067 271.051 681.667 271.22 681.37 271.025L683.018 268.515C681.534 267.538 679.532 268.384 679.192 270.132L682.135 270.701ZM687.143 311.341C687.397 311.233 687.69 311.352 687.797 311.607L685.034 312.775C685.569 314.048 687.033 314.644 688.305 314.106L687.143 311.341ZM706.612 303.652C706.505 303.397 706.624 303.104 706.878 302.996L708.041 305.762C709.312 305.224 709.91 303.757 709.375 302.484L706.612 303.652ZM700.481 281.323C699.982 280.135 699.142 279.123 698.066 278.416L696.418 280.926C696.997 281.307 697.449 281.851 697.718 282.491L700.481 281.323ZM678.904 290.446C678.635 289.806 678.562 289.101 678.694 288.419L675.752 287.85C675.506 289.116 675.641 290.426 676.14 291.614L678.904 290.446Z" fill="#0E0916" mask="url(#path-84-inside-2_581_48833)"/>
<path d="M689.6 281.5C689.6 283.158 688.26 284.5 686.61 284.5C684.96 284.5 683.621 283.158 683.621 281.5C683.621 279.842 684.96 278.5 686.61 278.5C688.26 278.5 689.6 279.842 689.6 281.5Z" fill="#F0F9FE" stroke="#0E0916"/>
<rect x="658.946" y="334.75" width="230.803" height="56.5" rx="13.25" fill="#F0F9FE" stroke="#0E0916" stroke-width="1.5"/>
<rect x="725.746" y="354.75" width="149.048" height="17.5" rx="4.25" fill="#CC9D7A" stroke="#0E0916" stroke-width="1.5"/>
<mask id="path-89-inside-3_581_48833" fill="white">
<path d="M677.522 365.03C677.138 364.116 677.034 363.108 677.223 362.135L680.664 344.417C680.8 343.718 681.6 343.379 682.194 343.77L697.242 353.671C698.069 354.215 698.716 354.993 699.1 355.907L707.993 377.068C708.207 377.577 707.968 378.164 707.459 378.379L687.724 386.723C687.215 386.938 686.629 386.7 686.415 386.191L677.522 365.03Z"/>
</mask>
<path d="M677.522 365.03C677.138 364.116 677.034 363.108 677.223 362.135L680.664 344.417C680.8 343.718 681.6 343.379 682.194 343.77L697.242 353.671C698.069 354.215 698.716 354.993 699.1 355.907L707.993 377.068C708.207 377.577 707.968 378.164 707.459 378.379L687.724 386.723C687.215 386.938 686.629 386.7 686.415 386.191L677.522 365.03Z" fill="#CC9D7A"/>
<path d="M680.664 344.417L682.135 344.701L680.664 344.417ZM682.194 343.77L681.37 345.025L682.194 343.77ZM677.223 362.135L678.694 362.419L677.223 362.135ZM697.718 356.491L706.612 377.652L709.375 376.484L700.481 355.323L697.718 356.491ZM706.878 376.996L687.143 385.341L688.305 388.106L708.041 379.762L706.878 376.996ZM687.797 385.607L678.904 364.446L676.14 365.614L685.034 386.775L687.797 385.607ZM678.694 362.419L682.135 344.701L679.192 344.132L675.752 361.85L678.694 362.419ZM681.37 345.025L696.418 354.926L698.066 352.416L683.018 342.515L681.37 345.025ZM682.135 344.701C682.067 345.051 681.667 345.22 681.37 345.025L683.018 342.515C681.534 341.538 679.532 342.384 679.192 344.132L682.135 344.701ZM687.143 385.341C687.397 385.233 687.69 385.352 687.797 385.607L685.034 386.775C685.569 388.048 687.033 388.644 688.305 388.106L687.143 385.341ZM706.612 377.652C706.505 377.397 706.624 377.104 706.878 376.996L708.041 379.762C709.312 379.224 709.91 377.757 709.375 376.484L706.612 377.652ZM700.481 355.323C699.982 354.135 699.142 353.123 698.066 352.416L696.418 354.926C696.997 355.307 697.449 355.851 697.718 356.491L700.481 355.323ZM678.904 364.446C678.635 363.806 678.562 363.101 678.694 362.419L675.752 361.85C675.506 363.116 675.641 364.426 676.14 365.614L678.904 364.446Z" fill="#0E0916" mask="url(#path-89-inside-3_581_48833)"/>
<path d="M689.6 355.5C689.6 357.158 688.26 358.5 686.61 358.5C684.96 358.5 683.621 357.158 683.621 355.5C683.621 353.842 684.96 352.5 686.61 352.5C688.26 352.5 689.6 353.842 689.6 355.5Z" fill="#F0F9FE" stroke="#0E0916"/>
<defs>
<clipPath id="clip0_581_48833">
<rect x="342.99" y="156.27" width="232.112" height="106.678" fill="white"/>
</clipPath>
<clipPath id="clip1_581_48833">
<rect width="162.512" height="88" fill="white" transform="translate(259.65 348)"/>
</clipPath>
</defs>
</svg>
