<svg viewBox="0 0 490 254" fill="none" xmlns="http://www.w3.org/2000/svg">
<path fill-rule="evenodd" clip-rule="evenodd" d="M51.7254 133.59C51.2944 161.343 48.0434 162.287 53.4864 179.544C58.2504 194.651 65.3294 197.309 81.7694 203.694C98.2094 210.08 111.306 204.606 129.263 206.326C201.008 213.197 274.035 208.591 344.705 195.418C376.225 189.543 407.543 181.903 436.409 169.476C447.293 164.79 458.048 159.251 465.642 151.069C479.541 136.093 480.232 114.16 471.104 96.7847C461.976 79.4107 444.418 66.1957 425.1 56.8287C387.055 38.3797 342.13 33.3847 298.365 32.3037C241.302 30.8947 236.852 57.2447 180.116 60.2687C126.376 63.1337 127.684 26.4996 83.1244 45.3046C64.0594 53.3506 41.9424 59.9836 38.6224 85.2986C35.3034 110.613 52.1564 105.837 51.7254 133.59Z" fill="#FFEBDE"/>
<mask id="mask0" masktype="alpha" maskUnits="userSpaceOnUse" x="38" y="32" width="440" height="178">
<path d="M180.116 60.2698C157.757 61.4618 144.927 55.8168 134.359 50.1718C119.525 42.2478 109.145 34.3248 83.1244 45.3048C64.0594 53.3508 41.9424 59.9838 38.6224 85.2988C35.3034 110.613 52.1554 105.837 51.7254 133.59C51.2944 161.343 48.0434 162.287 53.4864 179.544C58.2504 194.651 65.3294 197.308 81.7694 203.695C92.0014 207.669 100.939 207.049 110.559 206.429C116.395 206.053 122.482 205.676 129.263 206.325C201.008 213.197 274.034 208.591 344.706 195.418C376.225 189.543 407.543 181.903 436.409 169.476C447.293 164.789 458.048 159.251 465.642 151.069C479.541 136.093 480.231 114.16 471.104 96.7848C461.976 79.4108 444.419 66.1958 425.1 56.8288C387.055 38.3798 342.13 33.3848 298.365 32.3038C296.885 32.2668 295.431 32.2498 294.02 32.2498C241.027 32.2468 235.38 57.3228 180.116 60.2698Z" fill="white"/>
</mask>
<g mask="url(#mask0)">
<path d="M46.3904 205.7H486.924" stroke="#FFD8BA" stroke-width="1.972"/>
</g>
<mask id="mask1" masktype="alpha" maskUnits="userSpaceOnUse" x="38" y="32" width="440" height="178">
<path d="M180.116 60.2698C157.757 61.4618 144.927 55.8168 134.359 50.1718C119.525 42.2478 109.145 34.3248 83.1244 45.3048C64.0594 53.3508 41.9424 59.9838 38.6224 85.2988C35.3034 110.613 52.1554 105.837 51.7254 133.59C51.2944 161.343 48.0434 162.287 53.4864 179.544C58.2504 194.651 65.3294 197.308 81.7694 203.695C92.0014 207.669 100.939 207.049 110.559 206.429C116.395 206.053 122.482 205.676 129.263 206.325C201.008 213.197 274.034 208.591 344.706 195.418C376.225 189.543 407.543 181.903 436.409 169.476C447.293 164.789 458.048 159.251 465.642 151.069C479.541 136.093 480.231 114.16 471.104 96.7848C461.976 79.4108 444.419 66.1958 425.1 56.8288C387.055 38.3798 342.13 33.3848 298.365 32.3038C296.885 32.2668 295.431 32.2498 294.02 32.2498C241.027 32.2468 235.38 57.3228 180.116 60.2698Z" fill="white"/>
</mask>
<g mask="url(#mask1)">
<path d="M46.3904 170.771H486.924" stroke="#FFD8BA" stroke-width="1.972"/>
</g>
<mask id="mask2" masktype="alpha" maskUnits="userSpaceOnUse" x="38" y="32" width="440" height="178">
<path d="M180.116 60.2698C157.757 61.4618 144.927 55.8168 134.359 50.1718C119.525 42.2478 109.145 34.3248 83.1244 45.3048C64.0594 53.3508 41.9424 59.9838 38.6224 85.2988C35.3034 110.613 52.1554 105.837 51.7254 133.59C51.2944 161.343 48.0434 162.287 53.4864 179.544C58.2504 194.651 65.3294 197.308 81.7694 203.695C92.0014 207.669 100.939 207.049 110.559 206.429C116.395 206.053 122.482 205.676 129.263 206.325C201.008 213.197 274.034 208.591 344.706 195.418C376.225 189.543 407.543 181.903 436.409 169.476C447.293 164.789 458.048 159.251 465.642 151.069C479.541 136.093 480.231 114.16 471.104 96.7848C461.976 79.4108 444.419 66.1958 425.1 56.8288C387.055 38.3798 342.13 33.3848 298.365 32.3038C296.885 32.2668 295.431 32.2498 294.02 32.2498C241.027 32.2468 235.38 57.3228 180.116 60.2698Z" fill="white"/>
</mask>
<g mask="url(#mask2)">
<path d="M46.3904 135.841H486.924" stroke="#FFD8BA" stroke-width="1.972"/>
</g>
<mask id="mask3" masktype="alpha" maskUnits="userSpaceOnUse" x="38" y="32" width="440" height="178">
<path d="M180.116 60.2698C157.757 61.4618 144.927 55.8168 134.359 50.1718C119.525 42.2478 109.145 34.3248 83.1244 45.3048C64.0594 53.3508 41.9424 59.9838 38.6224 85.2988C35.3034 110.613 52.1554 105.837 51.7254 133.59C51.2944 161.343 48.0434 162.287 53.4864 179.544C58.2504 194.651 65.3294 197.308 81.7694 203.695C92.0014 207.669 100.939 207.049 110.559 206.429C116.395 206.053 122.482 205.676 129.263 206.325C201.008 213.197 274.034 208.591 344.706 195.418C376.225 189.543 407.543 181.903 436.409 169.476C447.293 164.789 458.048 159.251 465.642 151.069C479.541 136.093 480.231 114.16 471.104 96.7848C461.976 79.4108 444.419 66.1958 425.1 56.8288C387.055 38.3798 342.13 33.3848 298.365 32.3038C296.885 32.2668 295.431 32.2498 294.02 32.2498C241.027 32.2468 235.38 57.3228 180.116 60.2698Z" fill="white"/>
</mask>
<g mask="url(#mask3)">
<path d="M46.3904 100.911H486.924" stroke="#FFD8BA" stroke-width="1.972"/>
</g>
<mask id="mask4" masktype="alpha" maskUnits="userSpaceOnUse" x="38" y="32" width="440" height="178">
<path d="M180.116 60.2698C157.757 61.4618 144.927 55.8168 134.359 50.1718C119.525 42.2478 109.145 34.3248 83.1244 45.3048C64.0594 53.3508 41.9424 59.9838 38.6224 85.2988C35.3034 110.613 52.1554 105.837 51.7254 133.59C51.2944 161.343 48.0434 162.287 53.4864 179.544C58.2504 194.651 65.3294 197.308 81.7694 203.695C92.0014 207.669 100.939 207.049 110.559 206.429C116.395 206.053 122.482 205.676 129.263 206.325C201.008 213.197 274.034 208.591 344.706 195.418C376.225 189.543 407.543 181.903 436.409 169.476C447.293 164.789 458.048 159.251 465.642 151.069C479.541 136.093 480.231 114.16 471.104 96.7848C461.976 79.4108 444.419 66.1958 425.1 56.8288C387.055 38.3798 342.13 33.3848 298.365 32.3038C296.885 32.2668 295.431 32.2498 294.02 32.2498C241.027 32.2468 235.38 57.3228 180.116 60.2698Z" fill="white"/>
</mask>
<g mask="url(#mask4)">
<path d="M46.3904 65.9821H486.924" stroke="#FFD8BA" stroke-width="1.972"/>
</g>
<mask id="mask5" masktype="alpha" maskUnits="userSpaceOnUse" x="38" y="32" width="440" height="178">
<path d="M180.116 60.2698C157.757 61.4618 144.927 55.8168 134.359 50.1718C119.525 42.2478 109.145 34.3248 83.1244 45.3048C64.0594 53.3508 41.9424 59.9838 38.6224 85.2988C35.3034 110.613 52.1554 105.837 51.7254 133.59C51.2944 161.343 48.0434 162.287 53.4864 179.544C58.2504 194.651 65.3294 197.308 81.7694 203.695C92.0014 207.669 100.939 207.049 110.559 206.429C116.395 206.053 122.482 205.676 129.263 206.325C201.008 213.197 274.034 208.591 344.706 195.418C376.225 189.543 407.543 181.903 436.409 169.476C447.293 164.789 458.048 159.251 465.642 151.069C479.541 136.093 480.231 114.16 471.104 96.7848C461.976 79.4108 444.419 66.1958 425.1 56.8288C387.055 38.3798 342.13 33.3848 298.365 32.3038C296.885 32.2668 295.431 32.2498 294.02 32.2498C241.027 32.2468 235.38 57.3228 180.116 60.2698Z" fill="white"/>
</mask>
<g mask="url(#mask5)">
<path d="M304.489 221.034V15.7188" stroke="#FFD8BA" stroke-width="1.972"/>
</g>
<mask id="mask6" masktype="alpha" maskUnits="userSpaceOnUse" x="38" y="32" width="440" height="178">
<path d="M180.116 60.2698C157.757 61.4618 144.927 55.8168 134.359 50.1718C119.525 42.2478 109.145 34.3248 83.1244 45.3048C64.0594 53.3508 41.9424 59.9838 38.6224 85.2988C35.3034 110.613 52.1554 105.837 51.7254 133.59C51.2944 161.343 48.0434 162.287 53.4864 179.544C58.2504 194.651 65.3294 197.308 81.7694 203.695C92.0014 207.669 100.939 207.049 110.559 206.429C116.395 206.053 122.482 205.676 129.263 206.325C201.008 213.197 274.034 208.591 344.706 195.418C376.225 189.543 407.543 181.903 436.409 169.476C447.293 164.789 458.048 159.251 465.642 151.069C479.541 136.093 480.231 114.16 471.104 96.7848C461.976 79.4108 444.419 66.1958 425.1 56.8288C387.055 38.3798 342.13 33.3848 298.365 32.3038C296.885 32.2668 295.431 32.2498 294.02 32.2498C241.027 32.2468 235.38 57.3228 180.116 60.2698Z" fill="white"/>
</mask>
<g mask="url(#mask6)">
<path d="M258.382 221.034V15.7188" stroke="#FFD8BA" stroke-width="1.972"/>
</g>
<mask id="mask7" masktype="alpha" maskUnits="userSpaceOnUse" x="38" y="32" width="440" height="178">
<path d="M180.116 60.2698C157.757 61.4618 144.927 55.8168 134.359 50.1718C119.525 42.2478 109.145 34.3248 83.1244 45.3048C64.0594 53.3508 41.9424 59.9838 38.6224 85.2988C35.3034 110.613 52.1554 105.837 51.7254 133.59C51.2944 161.343 48.0434 162.287 53.4864 179.544C58.2504 194.651 65.3294 197.308 81.7694 203.695C92.0014 207.669 100.939 207.049 110.559 206.429C116.395 206.053 122.482 205.676 129.263 206.325C201.008 213.197 274.034 208.591 344.706 195.418C376.225 189.543 407.543 181.903 436.409 169.476C447.293 164.789 458.048 159.251 465.642 151.069C479.541 136.093 480.231 114.16 471.104 96.7848C461.976 79.4108 444.419 66.1958 425.1 56.8288C387.055 38.3798 342.13 33.3848 298.365 32.3038C296.885 32.2668 295.431 32.2498 294.02 32.2498C241.027 32.2468 235.38 57.3228 180.116 60.2698Z" fill="white"/>
</mask>
<g mask="url(#mask7)">
<path d="M212.275 221.034V15.7188" stroke="#FFD8BA" stroke-width="1.972"/>
</g>
<mask id="mask8" masktype="alpha" maskUnits="userSpaceOnUse" x="38" y="32" width="440" height="178">
<path d="M180.116 60.2698C157.757 61.4618 144.927 55.8168 134.359 50.1718C119.525 42.2478 109.145 34.3248 83.1244 45.3048C64.0594 53.3508 41.9424 59.9838 38.6224 85.2988C35.3034 110.613 52.1554 105.837 51.7254 133.59C51.2944 161.343 48.0434 162.287 53.4864 179.544C58.2504 194.651 65.3294 197.308 81.7694 203.695C92.0014 207.669 100.939 207.049 110.559 206.429C116.395 206.053 122.482 205.676 129.263 206.325C201.008 213.197 274.034 208.591 344.706 195.418C376.225 189.543 407.543 181.903 436.409 169.476C447.293 164.789 458.048 159.251 465.642 151.069C479.541 136.093 480.231 114.16 471.104 96.7848C461.976 79.4108 444.419 66.1958 425.1 56.8288C387.055 38.3798 342.13 33.3848 298.365 32.3038C296.885 32.2668 295.431 32.2498 294.02 32.2498C241.027 32.2468 235.38 57.3228 180.116 60.2698Z" fill="white"/>
</mask>
<g mask="url(#mask8)">
<path d="M166.168 221.034V15.7188" stroke="#FFD8BA" stroke-width="1.972"/>
</g>
<mask id="mask9" masktype="alpha" maskUnits="userSpaceOnUse" x="38" y="32" width="440" height="178">
<path d="M180.116 60.2698C157.757 61.4618 144.927 55.8168 134.359 50.1718C119.525 42.2478 109.145 34.3248 83.1244 45.3048C64.0594 53.3508 41.9424 59.9838 38.6224 85.2988C35.3034 110.613 52.1554 105.837 51.7254 133.59C51.2944 161.343 48.0434 162.287 53.4864 179.544C58.2504 194.651 65.3294 197.308 81.7694 203.695C92.0014 207.669 100.939 207.049 110.559 206.429C116.395 206.053 122.482 205.676 129.263 206.325C201.008 213.197 274.034 208.591 344.706 195.418C376.225 189.543 407.543 181.903 436.409 169.476C447.293 164.789 458.048 159.251 465.642 151.069C479.541 136.093 480.231 114.16 471.104 96.7848C461.976 79.4108 444.419 66.1958 425.1 56.8288C387.055 38.3798 342.13 33.3848 298.365 32.3038C296.885 32.2668 295.431 32.2498 294.02 32.2498C241.027 32.2468 235.38 57.3228 180.116 60.2698Z" fill="white"/>
</mask>
<g mask="url(#mask9)">
<path d="M120.06 221.034V15.7188" stroke="#FFD8BA" stroke-width="1.972"/>
</g>
<mask id="mask10" masktype="alpha" maskUnits="userSpaceOnUse" x="38" y="32" width="440" height="178">
<path d="M180.116 60.2698C157.757 61.4618 144.927 55.8168 134.359 50.1718C119.525 42.2478 109.145 34.3248 83.1244 45.3048C64.0594 53.3508 41.9424 59.9838 38.6224 85.2988C35.3034 110.613 52.1554 105.837 51.7254 133.59C51.2944 161.343 48.0434 162.287 53.4864 179.544C58.2504 194.651 65.3294 197.308 81.7694 203.695C92.0014 207.669 100.939 207.049 110.559 206.429C116.395 206.053 122.482 205.676 129.263 206.325C201.008 213.197 274.034 208.591 344.706 195.418C376.225 189.543 407.543 181.903 436.409 169.476C447.293 164.789 458.048 159.251 465.642 151.069C479.541 136.093 480.231 114.16 471.104 96.7848C461.976 79.4108 444.419 66.1958 425.1 56.8288C387.055 38.3798 342.13 33.3848 298.365 32.3038C296.885 32.2668 295.431 32.2498 294.02 32.2498C241.027 32.2468 235.38 57.3228 180.116 60.2698Z" fill="white"/>
</mask>
<g mask="url(#mask10)">
<path d="M73.9529 221.034V15.7188" stroke="#FFD8BA" stroke-width="1.972"/>
</g>
<mask id="mask11" masktype="alpha" maskUnits="userSpaceOnUse" x="38" y="32" width="440" height="178">
<path d="M180.116 60.2698C157.757 61.4618 144.927 55.8168 134.359 50.1718C119.525 42.2478 109.145 34.3248 83.1244 45.3048C64.0594 53.3508 41.9424 59.9838 38.6224 85.2988C35.3034 110.613 52.1554 105.837 51.7254 133.59C51.2944 161.343 48.0434 162.287 53.4864 179.544C58.2504 194.651 65.3294 197.308 81.7694 203.695C92.0014 207.669 100.939 207.049 110.559 206.429C116.395 206.053 122.482 205.676 129.263 206.325C201.008 213.197 274.034 208.591 344.706 195.418C376.225 189.543 407.543 181.903 436.409 169.476C447.293 164.789 458.048 159.251 465.642 151.069C479.541 136.093 480.231 114.16 471.104 96.7848C461.976 79.4108 444.419 66.1958 425.1 56.8288C387.055 38.3798 342.13 33.3848 298.365 32.3038C296.885 32.2668 295.431 32.2498 294.02 32.2498C241.027 32.2468 235.38 57.3228 180.116 60.2698Z" fill="white"/>
</mask>
<g mask="url(#mask11)">
<path d="M442.811 221.034V15.7188" stroke="#FFD8BA" stroke-width="1.972"/>
</g>
<mask id="mask12" masktype="alpha" maskUnits="userSpaceOnUse" x="38" y="32" width="440" height="178">
<path d="M180.116 60.2698C157.757 61.4618 144.927 55.8168 134.359 50.1718C119.525 42.2478 109.145 34.3248 83.1244 45.3048C64.0594 53.3508 41.9424 59.9838 38.6224 85.2988C35.3034 110.613 52.1554 105.837 51.7254 133.59C51.2944 161.343 48.0434 162.287 53.4864 179.544C58.2504 194.651 65.3294 197.308 81.7694 203.695C92.0014 207.669 100.939 207.049 110.559 206.429C116.395 206.053 122.482 205.676 129.263 206.325C201.008 213.197 274.034 208.591 344.706 195.418C376.225 189.543 407.543 181.903 436.409 169.476C447.293 164.789 458.048 159.251 465.642 151.069C479.541 136.093 480.231 114.16 471.104 96.7848C461.976 79.4108 444.419 66.1958 425.1 56.8288C387.055 38.3798 342.13 33.3848 298.365 32.3038C296.885 32.2668 295.431 32.2498 294.02 32.2498C241.027 32.2468 235.38 57.3228 180.116 60.2698Z" fill="white"/>
</mask>
<g mask="url(#mask12)">
<path d="M396.704 221.034V15.7188" stroke="#FFD8BA" stroke-width="1.972"/>
</g>
<mask id="mask13" masktype="alpha" maskUnits="userSpaceOnUse" x="38" y="32" width="440" height="178">
<path d="M180.116 60.2698C157.757 61.4618 144.927 55.8168 134.359 50.1718C119.525 42.2478 109.145 34.3248 83.1244 45.3048C64.0594 53.3508 41.9424 59.9838 38.6224 85.2988C35.3034 110.613 52.1554 105.837 51.7254 133.59C51.2944 161.343 48.0434 162.287 53.4864 179.544C58.2504 194.651 65.3294 197.308 81.7694 203.695C92.0014 207.669 100.939 207.049 110.559 206.429C116.395 206.053 122.482 205.676 129.263 206.325C201.008 213.197 274.034 208.591 344.706 195.418C376.225 189.543 407.543 181.903 436.409 169.476C447.293 164.789 458.048 159.251 465.642 151.069C479.541 136.093 480.231 114.16 471.104 96.7848C461.976 79.4108 444.419 66.1958 425.1 56.8288C387.055 38.3798 342.13 33.3848 298.365 32.3038C296.885 32.2668 295.431 32.2498 294.02 32.2498C241.027 32.2468 235.38 57.3228 180.116 60.2698Z" fill="white"/>
</mask>
<g mask="url(#mask13)">
<path d="M350.597 221.034V15.7188" stroke="#FFD8BA" stroke-width="1.972"/>
</g>
<path d="M483.369 51.0743C408.458 124.407 366.182 85.8703 307.759 125.271C275.358 147.121 207.776 175.634 182.417 162.686C157.057 149.738 186.22 109.551 187.765 103.696C145.261 116.692 143.17 129.571 100.666 142.567C66.54 153.001 38.162 150.358 3 155.676" stroke="#340096" stroke-width="6" stroke-linecap="round" stroke-linejoin="round"/>
<path d="M482.995 77.9071C482.995 77.9071 479.709 60.7271 486.494 46.8301C470.765 52.5211 460.122 56.0431 445.097 51.4871" stroke="#340096" stroke-width="6" stroke-linecap="round" stroke-linejoin="round"/>
<path fill-rule="evenodd" clip-rule="evenodd" d="M426.218 23.7768C424.444 21.2638 419.867 23.6758 419.867 23.6758L419.754 23.8538C419.751 23.8438 419.747 23.8338 419.744 23.8238C419.786 23.7738 419.823 23.7268 419.867 23.6758C423.689 19.2628 421.325 14.2118 416.679 13.3618C412.033 12.5128 405.712 19.2938 403.218 21.9578C401.621 23.6628 399.877 24.7628 398.826 25.3348L397.364 25.1418C396.536 22.0108 396.052 17.7458 395.766 12.6438C395.284 4.05077 380.141 -1.11723 377.949 1.83677C375.758 4.79077 380.432 9.10477 383.838 13.0068C387.244 16.9088 384.599 30.7238 384.824 43.9488C385.049 57.1748 379.568 72.6588 377.428 77.9848C375.288 83.3118 375.289 94.4068 375.289 94.4068L403.197 100.985C403.197 100.985 404.958 83.5638 406.166 79.0288C407.373 74.4938 411.425 72.5078 416.536 67.4148C421.648 62.3208 423.325 56.1808 423.671 55.6988L423.686 55.4228C425.983 54.7578 428.248 53.4228 430.165 52.0558C434.197 49.1808 434.389 45.8978 433.116 43.9138C431.469 41.3438 428.998 42.7028 428.998 42.7028L428.891 42.7718C430.373 40.7378 430.748 38.6008 429.871 36.3948C428.491 32.9238 424.594 33.7788 424.594 33.7788L423.069 35.3408C423.067 35.3268 423.066 35.3118 423.064 35.2978C423.611 34.7398 424.12 34.2218 424.594 33.7788C427.909 30.6818 427.992 26.2898 426.218 23.7768Z" fill="white"/>
<path fill-rule="evenodd" clip-rule="evenodd" d="M426.218 23.7768C424.444 21.2638 419.867 23.6758 419.867 23.6758L419.754 23.8538C419.751 23.8438 419.747 23.8338 419.744 23.8238C419.786 23.7738 419.823 23.7268 419.867 23.6758C423.689 19.2628 421.325 14.2118 416.679 13.3618C412.033 12.5128 405.712 19.2938 403.218 21.9578C401.621 23.6628 399.877 24.7628 398.826 25.3348L397.364 25.1418C396.536 22.0108 396.052 17.7458 395.766 12.6438C395.284 4.05077 380.141 -1.11723 377.949 1.83677C375.758 4.79077 380.432 9.10477 383.838 13.0068C387.244 16.9088 384.599 30.7238 384.824 43.9488C385.049 57.1748 379.568 72.6588 377.428 77.9848C375.288 83.3118 375.289 94.4068 375.289 94.4068L403.197 100.985C403.197 100.985 404.958 83.5638 406.166 79.0288C407.373 74.4938 411.425 72.5078 416.536 67.4148C421.648 62.3208 423.325 56.1808 423.671 55.6988L423.686 55.4228C425.983 54.7578 428.248 53.4228 430.165 52.0558C434.197 49.1808 434.389 45.8978 433.116 43.9138C431.469 41.3438 428.998 42.7028 428.998 42.7028L428.891 42.7718C430.373 40.7378 430.748 38.6008 429.871 36.3948C428.491 32.9238 424.594 33.7788 424.594 33.7788L423.069 35.3408C423.067 35.3268 423.066 35.3118 423.064 35.2978C423.611 34.7398 424.12 34.2218 424.594 33.7788C427.909 30.6818 427.992 26.2898 426.218 23.7768Z" stroke="#0E0916"/>
<path d="M402.176 32.2736C402.176 32.2736 403.057 28.8096 407.964 24.0996C407.782 22.3666 408.678 21.3816 409.464 20.2356" stroke="#0E0916"/>
<path d="M375.289 94.4064C375.289 94.4064 375.288 83.3114 377.428 77.9854C379.567 72.6594 385.049 57.1744 384.824 43.9494C384.599 30.7234 387.244 16.9084 383.838 13.0064C380.432 9.10444 375.758 4.79144 377.949 1.83644C380.14 -1.11756 395.284 4.05144 395.766 12.6434C396.247 21.2364 397.285 27.4844 399.591 29.8674C401.896 32.2504 405.841 36.3184 406.092 42.4834C406.092 42.4834 407 51.6004 407.045 53.6764" stroke="#0E0916"/>
<path d="M397.86 25.8136C397.86 25.8136 400.724 24.6216 403.217 21.9576C405.712 19.2936 412.033 12.5126 416.679 13.3616C421.325 14.2116 423.688 19.2626 419.867 23.6766C416.047 28.0896 415.863 30.5846 412.756 32.3726C409.65 34.1596 405.037 37.4236 405.037 37.4236" stroke="#0E0916"/>
<path d="M419.867 23.6761C419.867 23.6761 424.443 21.2641 426.218 23.7771C427.992 26.2901 427.909 30.6821 424.594 33.7791C421.278 36.8761 416.457 43.4031 406.383 44.8361" stroke="#0E0916"/>
<path d="M424.594 33.7792C424.594 33.7792 428.491 32.9242 429.871 36.3952C431.251 39.8652 429.542 43.1652 425.276 46.1642C421.009 49.1632 416.668 51.4522 414.66 51.9102C414.66 51.9102 409.699 53.6242 407.365 51.4162" stroke="#0E0916"/>
<path d="M428.998 42.7025C428.998 42.7025 431.469 41.3435 433.116 43.9135C434.389 45.8975 434.196 49.1805 430.165 52.0555C426.133 54.9305 420.558 57.7055 416.401 54.2625C413.745 52.0625 414.672 51.9545 414.672 51.9545" stroke="#0E0916"/>
<path d="M423.671 55.6985C423.325 56.1805 421.648 62.3215 416.536 67.4145C411.425 72.5085 407.373 74.4935 406.166 79.0285C404.958 83.5635 403.196 100.985 403.196 100.985" stroke="#0E0916"/>
<path fill-rule="evenodd" clip-rule="evenodd" d="M356.384 253.135C357.219 193.788 354.957 146.963 363.562 120.596C367.902 107.297 367.321 94.0095 370.397 89.6675C370.397 89.6675 392 87.6055 400.746 92.2435C406.002 95.0315 411.07 98.6335 411.1 99.7525C411.169 102.321 406.738 115.167 407.02 121.531C407.302 127.895 406.915 139.378 408.352 147.817C409.789 156.255 412.073 241.079 408.64 253.135" fill="#E6E2FF"/>
<mask id="mask14" masktype="alpha" maskUnits="userSpaceOnUse" x="356" y="89" width="56" height="165">
<path d="M370.396 89.6678C367.32 94.0098 367.901 107.297 363.561 120.597C354.957 146.963 357.218 193.788 356.383 253.135H408.639C412.073 241.08 409.788 156.256 408.351 147.817C406.915 139.379 407.301 127.896 407.019 121.532C406.736 115.168 411.168 102.321 411.099 99.7528C411.069 98.6338 406.001 95.0308 400.745 92.2438C396.116 89.7888 387.886 89.2108 381.163 89.2108C375.184 89.2108 370.396 89.6678 370.396 89.6678Z" fill="white"/>
</mask>
<g mask="url(#mask14)">
<path fill-rule="evenodd" clip-rule="evenodd" d="M365.677 63.9137C375.903 65.0367 383.399 74.8667 385.34 84.9697C387.281 95.0717 384.937 105.444 382.76 115.498C379.097 132.418 375.875 149.466 374.256 166.702C372.47 185.72 372.643 204.859 372.698 223.959C372.778 250.608 372.626 277.257 372.246 303.903C372.192 307.753 371.029 312.83 367.183 313.017C365.725 313.087 364.361 312.331 363.154 311.51C358.975 308.671 355.589 304.813 352.56 300.771C346.848 293.148 342.233 284.705 338.9 275.781C336.084 268.243 334.189 260.393 332.562 252.512C321.111 197.019 322.909 138.839 337.768 84.1597" fill="#D5BFFF"/>
</g>
<path d="M356.384 253.135C357.219 193.788 354.957 146.963 363.562 120.596C367.902 107.297 367.321 94.0094 370.397 89.6674C370.397 89.6674 392 87.6054 400.746 92.2434C406.002 95.0314 411.07 98.6334 411.1 99.7524C411.169 102.321 406.738 115.167 407.02 121.531C407.302 127.895 406.915 139.378 408.352 147.817C409.789 156.255 412.073 241.079 408.64 253.135" stroke="#0E0916"/>
<path fill-rule="evenodd" clip-rule="evenodd" d="M336.12 50.3417C334.346 47.8287 329.77 50.2407 329.77 50.2407L329.656 50.4187C329.653 50.4087 329.649 50.3987 329.646 50.3887C329.689 50.3387 329.726 50.2917 329.77 50.2407C333.591 45.8277 331.227 40.7767 326.582 39.9267C321.935 39.0777 315.614 45.8577 313.121 48.5227C311.524 50.2277 309.779 51.3277 308.728 51.8997L307.266 51.7067C306.439 48.5757 305.954 44.3107 305.669 39.2087C305.187 30.6157 290.043 25.4477 287.851 28.4017C285.661 31.3557 290.334 35.6697 293.74 39.5717C297.146 43.4737 294.502 57.2887 294.726 70.5137C294.952 83.7397 289.471 99.2237 287.33 104.55C285.19 109.877 285.191 120.972 285.191 120.972L313.099 127.55C313.099 127.55 314.86 110.129 316.068 105.594C317.276 101.059 321.327 99.0727 326.438 93.9797C331.551 88.8857 333.227 82.7457 333.573 82.2637L333.589 81.9867C335.885 81.3227 338.15 79.9877 340.067 78.6207C344.099 75.7447 344.291 72.4627 343.019 70.4787C341.372 67.9077 338.9 69.2677 338.9 69.2677L338.793 69.3367C340.275 67.3027 340.65 65.1657 339.773 62.9597C338.393 59.4887 334.496 60.3437 334.496 60.3437L332.971 61.9057C332.97 61.8917 332.968 61.8767 332.966 61.8627C333.513 61.3047 334.022 60.7867 334.496 60.3437C337.811 57.2467 337.895 52.8547 336.12 50.3417Z" fill="white"/>
<path fill-rule="evenodd" clip-rule="evenodd" d="M336.12 50.3417C334.346 47.8287 329.77 50.2407 329.77 50.2407L329.656 50.4187C329.653 50.4087 329.649 50.3987 329.646 50.3887C329.689 50.3387 329.726 50.2917 329.77 50.2407C333.591 45.8277 331.227 40.7767 326.582 39.9267C321.935 39.0777 315.614 45.8577 313.121 48.5227C311.524 50.2277 309.779 51.3277 308.728 51.8997L307.266 51.7067C306.439 48.5757 305.954 44.3107 305.669 39.2087C305.187 30.6157 290.043 25.4477 287.851 28.4017C285.661 31.3557 290.334 35.6697 293.74 39.5717C297.146 43.4737 294.502 57.2887 294.726 70.5137C294.952 83.7397 289.471 99.2237 287.33 104.55C285.19 109.877 285.191 120.972 285.191 120.972L313.099 127.55C313.099 127.55 314.86 110.129 316.068 105.594C317.276 101.059 321.327 99.0727 326.438 93.9797C331.551 88.8857 333.227 82.7457 333.573 82.2637L333.589 81.9867C335.885 81.3227 338.15 79.9877 340.067 78.6207C344.099 75.7447 344.291 72.4627 343.019 70.4787C341.372 67.9077 338.9 69.2677 338.9 69.2677L338.793 69.3367C340.275 67.3027 340.65 65.1657 339.773 62.9597C338.393 59.4887 334.496 60.3437 334.496 60.3437L332.971 61.9057C332.97 61.8917 332.968 61.8767 332.966 61.8627C333.513 61.3047 334.022 60.7867 334.496 60.3437C337.811 57.2467 337.895 52.8547 336.12 50.3417Z" stroke="#0E0916"/>
<path d="M312.078 58.8384C312.078 58.8384 312.959 55.3744 317.867 50.6644C317.684 48.9314 318.58 47.9464 319.366 46.8004" stroke="#0E0916"/>
<path d="M285.191 120.971C285.191 120.971 285.19 109.876 287.33 104.55C289.47 99.2233 294.952 83.7393 294.726 70.5133C294.502 57.2883 297.146 43.4733 293.74 39.5713C290.334 35.6693 285.661 31.3563 287.851 28.4013C290.043 25.4473 305.187 30.6163 305.669 39.2083C306.15 47.8013 307.188 54.0493 309.494 56.4313C311.799 58.8153 315.743 62.8833 315.995 69.0483C315.995 69.0483 316.902 78.1653 316.947 80.2413" stroke="#0E0916"/>
<path d="M307.763 52.3784C307.763 52.3784 310.626 51.1864 313.12 48.5224C315.614 45.8584 321.935 39.0774 326.581 39.9264C331.227 40.7754 333.59 45.8274 329.77 50.2404C325.949 54.6544 325.765 57.1494 322.659 58.9374C319.553 60.7244 314.939 63.9884 314.939 63.9884" stroke="#0E0916"/>
<path d="M329.77 50.2408C329.77 50.2408 334.345 47.8288 336.12 50.3418C337.895 52.8548 337.811 57.2468 334.496 60.3438C331.181 63.4408 326.36 69.9678 316.286 71.4008" stroke="#0E0916"/>
<path d="M334.496 60.3441C334.496 60.3441 338.393 59.4891 339.773 62.9601C341.153 66.4301 339.444 69.7301 335.178 72.7291C330.911 75.7281 326.57 78.0171 324.562 78.4751C324.562 78.4751 319.601 80.1891 317.267 77.9811" stroke="#0E0916"/>
<path d="M338.9 69.2675C338.9 69.2675 341.372 67.9085 343.019 70.4785C344.291 72.4625 344.099 75.7455 340.067 78.6205C336.035 81.4955 330.46 84.2705 326.303 80.8275C323.648 78.6275 324.575 78.5195 324.575 78.5195" stroke="#0E0916"/>
<path d="M333.573 82.2633C333.227 82.7453 331.55 88.8853 326.438 93.9793C321.327 99.0733 317.276 101.058 316.068 105.593C314.86 110.128 313.099 127.55 313.099 127.55" stroke="#0E0916"/>
<path fill-rule="evenodd" clip-rule="evenodd" d="M264.251 253.135C265.085 193.788 264.86 173.528 273.464 147.161C277.805 133.862 277.224 120.574 280.299 116.232C280.299 116.232 301.903 114.17 310.648 118.808C315.904 121.596 320.972 125.198 321.002 126.317C321.072 128.886 316.64 141.732 316.922 148.096C317.204 154.46 316.817 165.943 318.255 174.382C319.691 182.82 319.939 241.079 316.507 253.135" fill="#E6E2FF"/>
<mask id="mask15" masktype="alpha" maskUnits="userSpaceOnUse" x="264" y="115" width="58" height="139">
<path d="M280.298 116.233C277.223 120.574 277.804 133.863 273.464 147.162C264.86 173.528 265.085 193.788 264.25 253.135H316.506C319.939 241.08 319.691 182.821 318.254 174.383C316.817 165.943 317.204 154.461 316.921 148.097C316.639 141.732 321.072 128.887 321.002 126.317C320.971 125.198 315.904 121.597 310.648 118.809C306.018 116.354 297.786 115.776 291.061 115.776C285.084 115.776 280.298 116.233 280.298 116.233Z" fill="white"/>
</mask>
<g mask="url(#mask15)">
<path fill-rule="evenodd" clip-rule="evenodd" d="M275.581 90.4785C285.807 91.6015 293.303 101.432 295.243 111.535C297.184 121.637 294.84 132.009 292.663 142.063C289 158.983 285.779 176.031 284.16 193.268C282.373 212.284 280.51 204.859 280.566 223.959C280.644 250.608 280.494 277.257 280.114 303.903C280.06 307.753 278.896 312.83 275.051 313.017C273.592 313.087 272.228 312.331 271.02 311.51C266.843 308.671 263.457 304.813 260.428 300.771C254.716 293.148 250.1 284.705 246.768 275.781C243.951 268.243 242.056 260.393 240.43 252.512C228.977 197.02 232.812 165.404 247.671 110.725" fill="#D5BFFF"/>
</g>
<path d="M264.251 253.135C265.085 193.788 264.86 173.528 273.464 147.161C277.805 133.862 277.224 120.574 280.299 116.232C280.299 116.232 301.903 114.17 310.648 118.808C315.904 121.596 320.972 125.198 321.002 126.317C321.072 128.886 316.64 141.732 316.922 148.096C317.204 154.46 316.817 165.943 318.255 174.382C319.691 182.82 319.939 241.079 316.507 253.135" stroke="#0E0916"/>
<path fill-rule="evenodd" clip-rule="evenodd" d="M246.637 81.72C244.862 79.207 240.286 81.619 240.286 81.619L240.173 81.797C240.169 81.787 240.166 81.777 240.162 81.767C240.205 81.717 240.242 81.67 240.286 81.619C244.107 77.206 241.744 72.155 237.098 71.305C232.452 70.456 226.131 77.236 223.637 79.901C222.04 81.606 220.296 82.706 219.244 83.278L217.783 83.085C216.955 79.954 216.47 75.689 216.185 70.587C215.703 61.994 200.559 56.826 198.367 59.78C196.177 62.734 200.85 67.048 204.256 70.95C207.662 74.852 205.018 88.667 205.242 101.892C205.468 115.118 199.987 130.602 197.846 135.928C195.706 141.255 195.707 152.35 195.707 152.35L223.616 158.928C223.616 158.928 225.376 141.507 226.584 136.972C227.792 132.437 231.843 130.451 236.954 125.358C242.067 120.264 243.743 114.124 244.089 113.642L244.105 113.365C246.401 112.701 248.666 111.366 250.583 109.999C254.616 107.123 254.807 103.841 253.535 101.857C251.888 99.286 249.417 100.646 249.417 100.646L249.309 100.715C250.791 98.681 251.167 96.544 250.289 94.338C248.909 90.867 245.013 91.722 245.013 91.722L243.487 93.284C243.486 93.27 243.484 93.255 243.483 93.241C244.029 92.683 244.538 92.165 245.013 91.722C248.327 88.625 248.411 84.233 246.637 81.72Z" fill="white"/>
<path fill-rule="evenodd" clip-rule="evenodd" d="M246.637 81.72C244.862 79.207 240.286 81.619 240.286 81.619L240.173 81.797C240.169 81.787 240.166 81.777 240.162 81.767C240.205 81.717 240.242 81.67 240.286 81.619C244.107 77.206 241.744 72.155 237.098 71.305C232.452 70.456 226.131 77.236 223.637 79.901C222.04 81.606 220.296 82.706 219.244 83.278L217.783 83.085C216.955 79.954 216.47 75.689 216.185 70.587C215.703 61.994 200.559 56.826 198.367 59.78C196.177 62.734 200.85 67.048 204.256 70.95C207.662 74.852 205.018 88.667 205.242 101.892C205.468 115.118 199.987 130.602 197.846 135.928C195.706 141.255 195.707 152.35 195.707 152.35L223.616 158.928C223.616 158.928 225.376 141.507 226.584 136.972C227.792 132.437 231.843 130.451 236.954 125.358C242.067 120.264 243.743 114.124 244.089 113.642L244.105 113.365C246.401 112.701 248.666 111.366 250.583 109.999C254.616 107.123 254.807 103.841 253.535 101.857C251.888 99.286 249.417 100.646 249.417 100.646L249.309 100.715C250.791 98.681 251.167 96.544 250.289 94.338C248.909 90.867 245.013 91.722 245.013 91.722L243.487 93.284C243.486 93.27 243.484 93.255 243.483 93.241C244.029 92.683 244.538 92.165 245.013 91.722C248.327 88.625 248.411 84.233 246.637 81.72Z" stroke="#0E0916"/>
<path d="M222.594 90.2167C222.594 90.2167 223.475 86.7527 228.383 82.0427C228.2 80.3097 229.096 79.3247 229.882 78.1787" stroke="#0E0916"/>
<path d="M195.707 152.35C195.707 152.35 195.706 141.255 197.846 135.929C199.986 130.602 205.468 115.118 205.242 101.892C205.018 88.6666 207.662 74.8516 204.256 70.9496C200.85 67.0476 196.177 62.7346 198.367 59.7796C200.559 56.8256 215.703 61.9946 216.185 70.5866C216.666 79.1796 217.704 85.4276 220.01 87.8096C222.315 90.1936 226.259 94.2616 226.511 100.427C226.511 100.427 227.418 109.544 227.463 111.62" stroke="#0E0916"/>
<path d="M218.279 83.7567C218.279 83.7567 221.142 82.5647 223.636 79.9007C226.131 77.2367 232.452 70.4557 237.097 71.3047C241.744 72.1537 244.106 77.2057 240.286 81.6187C236.465 86.0327 236.281 88.5277 233.175 90.3157C230.069 92.1027 225.455 95.3667 225.455 95.3667" stroke="#0E0916"/>
<path d="M240.286 81.6191C240.286 81.6191 244.861 79.2071 246.637 81.7201C248.411 84.2331 248.327 88.6251 245.013 91.7221C241.697 94.8191 236.876 101.346 226.802 102.779" stroke="#0E0916"/>
<path d="M245.013 91.7223C245.013 91.7223 248.909 90.8673 250.289 94.3383C251.669 97.8083 249.96 101.108 245.694 104.107C241.427 107.106 237.086 109.395 235.079 109.853C235.079 109.853 230.117 111.567 227.784 109.359" stroke="#0E0916"/>
<path d="M249.416 100.646C249.416 100.646 251.888 99.2867 253.535 101.857C254.807 103.841 254.615 107.124 250.583 109.999C246.551 112.874 240.977 115.649 236.819 112.206C234.164 110.006 235.091 109.898 235.091 109.898" stroke="#0E0916"/>
<path d="M244.089 113.642C243.743 114.124 242.067 120.264 236.954 125.358C231.843 130.452 227.792 132.437 226.584 136.972C225.376 141.507 223.615 158.929 223.615 158.929" stroke="#0E0916"/>
<path fill-rule="evenodd" clip-rule="evenodd" d="M175.316 253.135C176.43 211.66 175.376 204.906 183.98 178.539C188.32 165.24 187.739 151.952 190.814 147.61C190.814 147.61 212.419 145.548 221.164 150.187C226.42 152.974 231.487 156.576 231.517 157.695C231.587 160.264 227.155 173.11 227.437 179.474C227.719 185.839 231.005 241.079 227.572 253.135" fill="#E6E2FF"/>
<mask id="mask16" masktype="alpha" maskUnits="userSpaceOnUse" x="175" y="147" width="57" height="107">
<path d="M190.814 147.611C187.739 151.953 188.32 165.24 183.98 178.54C175.375 204.907 176.43 211.661 175.316 253.135H227.572C231.005 241.08 227.719 185.839 227.437 179.475C227.155 173.111 231.587 160.264 231.517 157.696C231.487 156.577 226.42 152.975 221.164 150.187C216.534 147.732 208.303 147.154 201.579 147.154C195.601 147.154 190.814 147.611 190.814 147.611Z" fill="white"/>
</mask>
<g mask="url(#mask16)">
<path fill-rule="evenodd" clip-rule="evenodd" d="M186.097 121.857C196.323 122.98 203.819 132.81 205.759 142.913C207.7 153.015 205.356 163.387 203.179 173.441C199.516 190.361 191.576 204.859 191.632 223.959C191.711 250.608 191.56 277.257 191.18 303.903C191.125 307.753 189.962 312.83 186.117 313.016C184.659 313.087 183.294 312.33 182.087 311.51C177.909 308.671 174.523 304.813 171.493 300.771C165.782 293.148 161.166 284.704 157.833 275.781C155.018 268.242 153.122 260.392 151.495 252.512C140.043 197.019 143.328 196.782 158.187 142.103" fill="#D5BFFF"/>
</g>
<path d="M175.316 253.135C176.43 211.66 175.376 204.906 183.98 178.539C188.32 165.24 187.739 151.952 190.814 147.61C190.814 147.61 212.419 145.548 221.164 150.187C226.42 152.974 231.487 156.576 231.517 157.695C231.587 160.264 227.155 173.11 227.437 179.474C227.719 185.839 231.005 241.079 227.572 253.135" stroke="#0E0916"/>
<path fill-rule="evenodd" clip-rule="evenodd" d="M155.137 112.022C153.363 109.509 148.787 111.921 148.787 111.921L148.673 112.099C148.67 112.089 148.666 112.079 148.663 112.069C148.706 112.019 148.743 111.972 148.787 111.921C152.608 107.508 150.244 102.458 145.599 101.608C140.952 100.759 134.631 107.539 132.138 110.203C130.541 111.908 128.796 113.008 127.745 113.58L126.283 113.387C125.456 110.256 124.971 105.992 124.685 100.889C124.203 92.2965 109.06 87.1285 106.868 90.0825C104.677 93.0365 109.351 97.3505 112.757 101.252C116.163 105.154 113.519 118.969 113.743 132.194C113.968 145.421 108.487 160.904 106.347 166.231C104.207 171.557 104.208 182.652 104.208 182.652L132.116 189.23C132.116 189.23 133.877 171.809 135.085 167.274C136.293 162.74 140.344 160.754 145.455 155.66C150.567 150.566 152.244 144.426 152.59 143.944L152.606 143.668C154.902 143.003 157.167 141.668 159.084 140.301C163.116 137.426 163.308 134.144 162.036 132.16C160.388 129.59 157.917 130.948 157.917 130.948L157.81 131.017C159.292 128.983 159.667 126.847 158.79 124.64C157.41 121.169 153.513 122.024 153.513 122.024L151.988 123.586C151.986 123.572 151.985 123.558 151.983 123.543C152.53 122.986 153.039 122.467 153.513 122.024C156.828 118.927 156.912 114.535 155.137 112.022Z" fill="white"/>
<path fill-rule="evenodd" clip-rule="evenodd" d="M155.137 112.022C153.363 109.509 148.787 111.921 148.787 111.921L148.673 112.099C148.67 112.089 148.666 112.079 148.663 112.069C148.706 112.019 148.743 111.972 148.787 111.921C152.608 107.508 150.244 102.458 145.599 101.608C140.952 100.759 134.631 107.539 132.138 110.203C130.541 111.908 128.796 113.008 127.745 113.58L126.283 113.387C125.456 110.256 124.971 105.991 124.685 100.889C124.203 92.2965 109.06 87.1285 106.868 90.0825C104.677 93.0365 109.351 97.3505 112.757 101.252C116.163 105.154 113.519 118.969 113.743 132.194C113.968 145.42 108.487 160.904 106.347 166.231C104.207 171.557 104.208 182.652 104.208 182.652L132.116 189.23C132.116 189.23 133.877 171.809 135.085 167.274C136.293 162.739 140.344 160.753 145.455 155.66C150.567 150.566 152.244 144.426 152.59 143.944L152.606 143.668C154.902 143.003 157.167 141.668 159.084 140.301C163.116 137.426 163.308 134.144 162.036 132.16C160.388 129.59 157.917 130.948 157.917 130.948L157.81 131.017C159.292 128.983 159.667 126.846 158.79 124.64C157.41 121.169 153.513 122.024 153.513 122.024L151.988 123.586C151.986 123.572 151.985 123.558 151.983 123.543C152.53 122.985 153.039 122.467 153.513 122.024C156.828 118.927 156.912 114.535 155.137 112.022Z" stroke="#0E0916"/>
<path d="M131.095 120.519C131.095 120.519 131.976 117.055 136.883 112.345C136.701 110.612 137.597 109.627 138.383 108.481" stroke="#0E0916"/>
<path d="M104.208 182.652C104.208 182.652 104.207 171.558 106.347 166.231C108.487 160.905 113.968 145.421 113.743 132.195C113.519 118.969 116.163 105.154 112.757 101.253C109.351 97.3509 104.677 93.0369 106.868 90.0829C109.06 87.1279 124.203 92.2969 124.685 100.89C125.166 109.482 126.204 115.73 128.51 118.113C130.816 120.496 134.76 124.564 135.011 130.729C135.011 130.729 135.919 139.846 135.964 141.922" stroke="#0E0916"/>
<path d="M126.78 114.059C126.78 114.059 129.643 112.867 132.137 110.203C134.631 107.539 140.952 100.758 145.598 101.607C150.244 102.457 152.607 107.508 148.786 111.922C144.966 116.335 144.782 118.83 141.676 120.618C138.57 122.405 133.956 125.669 133.956 125.669" stroke="#0E0916"/>
<path d="M148.786 111.922C148.786 111.922 153.362 109.51 155.137 112.023C156.912 114.536 156.828 118.928 153.513 122.025C150.197 125.122 145.376 131.649 135.303 133.082" stroke="#0E0916"/>
<path d="M153.513 122.025C153.513 122.025 157.41 121.17 158.79 124.641C160.17 128.111 158.461 131.411 154.195 134.41C149.928 137.409 145.587 139.698 143.579 140.156C143.579 140.156 138.618 141.87 136.284 139.662" stroke="#0E0916"/>
<path d="M157.917 130.948C157.917 130.948 160.388 129.589 162.036 132.159C163.308 134.143 163.116 137.426 159.084 140.301C155.052 143.176 149.477 145.951 145.32 142.508C142.665 140.308 143.592 140.2 143.592 140.2" stroke="#0E0916"/>
<path d="M152.59 143.944C152.244 144.426 150.567 150.567 145.455 155.66C140.344 160.754 136.293 162.739 135.085 167.274C133.877 171.809 132.116 189.231 132.116 189.231" stroke="#0E0916"/>
<path fill-rule="evenodd" clip-rule="evenodd" d="M84.6844 253.135C86.3974 234.835 83.8764 235.209 92.4804 208.842C96.8204 195.543 96.2394 182.255 99.3154 177.913C99.3154 177.913 120.919 175.851 129.664 180.489C134.92 183.277 139.988 186.879 140.018 187.998C140.087 190.567 135.656 203.413 135.938 209.777C136.22 216.141 136.136 241.079 132.703 253.135" fill="#E6E2FF"/>
<mask id="mask17" masktype="alpha" maskUnits="userSpaceOnUse" x="84" y="177" width="57" height="77">
<path d="M99.3144 177.914C96.2384 182.255 96.8204 195.543 92.4804 208.843C83.8774 235.209 86.3974 234.835 84.6844 253.135H132.703C136.136 241.08 136.22 216.142 135.938 209.778C135.656 203.414 140.087 190.567 140.018 187.999C139.987 186.88 134.92 183.278 129.664 180.49C125.035 178.035 116.803 177.457 110.079 177.457C104.101 177.457 99.3144 177.914 99.3144 177.914Z" fill="white"/>
</mask>
<g mask="url(#mask17)">
<path fill-rule="evenodd" clip-rule="evenodd" d="M94.5975 152.159C104.824 153.282 112.319 163.112 114.259 173.215C116.201 183.317 113.856 193.689 111.68 203.743C108.017 220.663 100.928 277.256 100.548 303.902C100.493 307.752 99.3295 312.829 95.4845 313.016C94.0255 313.086 92.6615 312.33 91.4535 311.509C87.2765 308.67 83.8905 304.813 80.8615 300.77C75.1495 293.147 70.5335 284.704 67.2005 275.78C64.3845 268.242 62.4895 260.392 60.8635 252.511C49.4105 197.019 51.8285 227.084 66.6875 172.405" fill="#D5BFFF"/>
</g>
<path d="M84.6844 253.135C86.3974 234.835 83.8764 235.209 92.4804 208.842C96.8204 195.543 96.2394 182.255 99.3154 177.913C99.3154 177.913 120.919 175.851 129.664 180.489C134.92 183.277 139.988 186.879 140.018 187.998C140.087 190.567 135.656 203.413 135.938 209.777C136.22 216.141 136.136 241.079 132.703 253.135" stroke="#0E0916"/>
<path d="M19.199 253.135C21.45 253.555 460.444 253.135 460.444 253.135" stroke="#0E0916"/>
</svg>
