<svg viewBox="0 0 455 333" fill="none" xmlns="http://www.w3.org/2000/svg">
<ellipse cx="227.423" cy="166.705" rx="120.459" ry="120.649" fill="#FFEBDE"/>
<path fill-rule="evenodd" clip-rule="evenodd" d="M260.452 6.60194V103.634C260.452 106.728 257.948 109.236 254.859 109.236H108.123C105.034 109.236 102.53 106.728 102.53 103.634V6.60194C102.53 3.50811 105.034 1 108.123 1H254.859C257.948 1 260.452 3.50811 260.452 6.60194Z" fill="#E6E2FF"/>
<path fill-rule="evenodd" clip-rule="evenodd" d="M260.452 6.60194V103.634C260.452 106.728 257.948 109.236 254.859 109.236H108.123C105.034 109.236 102.53 106.728 102.53 103.634V6.60194C102.53 3.50811 105.034 1 108.123 1H254.859C257.948 1 260.452 3.50811 260.452 6.60194Z" stroke="#0E0916" stroke-width="0.736" stroke-linecap="round" stroke-linejoin="round"/>
<path fill-rule="evenodd" clip-rule="evenodd" d="M102.753 23.7412H260.683V13.5526H102.753V23.7412Z" fill="#F2F0FF"/>
<path fill-rule="evenodd" clip-rule="evenodd" d="M102.753 23.7412H260.683V13.5526H102.753V23.7412Z" stroke="#0E0916" stroke-width="0.736" stroke-linecap="round" stroke-linejoin="round"/>
<path d="M102.531 100.252H260.461" stroke="#0E0916" stroke-width="0.736" stroke-linecap="round" stroke-linejoin="round"/>
<path fill-rule="evenodd" clip-rule="evenodd" d="M187.614 49.9096H249.353V41.1557H187.614V49.9096Z" fill="#FBFBFC"/>
<path fill-rule="evenodd" clip-rule="evenodd" d="M187.614 49.9096H249.353V41.1557H187.614V49.9096Z" stroke="#0E0916" stroke-width="0.736" stroke-linecap="round" stroke-linejoin="round"/>
<path fill-rule="evenodd" clip-rule="evenodd" d="M187.614 79.0927H236.193V70.3379H187.614V79.0927Z" fill="#F2F0FF"/>
<path fill-rule="evenodd" clip-rule="evenodd" d="M187.614 79.0927H236.193V70.3379H187.614V79.0927Z" stroke="#0E0916" stroke-width="0.736" stroke-linecap="round" stroke-linejoin="round"/>
<path fill-rule="evenodd" clip-rule="evenodd" d="M187.615 64.1022H218.042V55.3473H187.615V64.1022Z" fill="#F2F0FF"/>
<path fill-rule="evenodd" clip-rule="evenodd" d="M187.615 64.1022H218.042V55.3473H187.615V64.1022Z" stroke="#0E0916" stroke-width="0.736" stroke-linecap="round" stroke-linejoin="round"/>
<path fill-rule="evenodd" clip-rule="evenodd" d="M114.643 92.5074H176.966V30.4955H114.643V92.5074Z" fill="#2250FF"/>
<path fill-rule="evenodd" clip-rule="evenodd" d="M163.424 53.5903C164.691 53.313 165.32 51.727 165.192 50.3793C164.959 47.9373 162.695 45.9519 160.379 46.0009C160.741 45.8638 161.053 45.5424 161.19 45.1569C161.397 44.5762 161.277 43.9143 161.018 43.3567C160.074 41.3261 157.169 40.6934 155.531 42.1602C155.902 39.7902 154.763 37.3242 152.954 35.8484C151.146 34.3725 148.899 34.0181 146.61 34.1302C144.321 34.2444 141.967 34.776 139.85 35.6962C137.153 36.8686 134.534 38.3695 132.478 40.5432C130.422 42.7179 128.969 45.6355 128.943 48.6963C128.928 50.3483 129.436 52.1596 130.779 53.0246C130.981 53.1538 131.197 53.2529 131.417 53.333C129.582 58.0188 125.722 69.3068 129.554 75.15C131.508 78.1297 134.421 79.5665 137.984 79.3883L138.015 79.5465V87.1819L155.134 90.2928L155.71 69.7123C155.71 69.7123 161.089 69.1126 159.811 64.8182C159.922 65.0385 160.13 65.1897 160.368 65.2207C160.587 65.2488 160.808 65.1767 160.968 65.0175C161.14 64.8483 161.279 64.637 161.41 64.4298C162.683 62.4042 163.632 60.1545 164.204 57.8035C164.565 56.3217 164.639 54.4394 163.424 53.5903Z" fill="#FFA578"/>
<path fill-rule="evenodd" clip-rule="evenodd" d="M163.424 53.5903C164.691 53.313 165.32 51.727 165.192 50.3793C164.959 47.9373 162.695 45.9519 160.379 46.0009C160.741 45.8638 161.053 45.5424 161.19 45.1569C161.397 44.5762 161.277 43.9143 161.018 43.3567C160.074 41.3261 157.169 40.6934 155.531 42.1602C155.902 39.7902 154.763 37.3242 152.954 35.8484C151.146 34.3725 148.899 34.0181 146.61 34.1302C144.321 34.2444 141.967 34.776 139.85 35.6962C137.153 36.8686 134.534 38.3695 132.478 40.5432C130.422 42.7179 128.969 45.6355 128.943 48.6963C128.928 50.3483 129.436 52.1596 130.779 53.0246C130.981 53.1538 131.197 53.2529 131.417 53.333C129.582 58.0188 125.722 69.3068 129.554 75.15C131.508 78.1297 134.421 79.5665 137.984 79.3883L138.015 79.5465V87.1819L155.134 90.2928L155.71 69.7123C155.71 69.7123 161.089 69.1126 159.811 64.8182C159.922 65.0385 160.13 65.1897 160.368 65.2207C160.587 65.2488 160.808 65.1767 160.968 65.0175C161.14 64.8483 161.279 64.637 161.41 64.4298C162.683 62.4042 163.632 60.1545 164.204 57.8035C164.565 56.3217 164.639 54.4394 163.424 53.5903Z" stroke="#340096" stroke-width="0.847" stroke-linecap="round" stroke-linejoin="round"/>
<path d="M144.397 71.5662C144.397 71.5662 143.016 75.444 139.138 74.0683" stroke="#340096" stroke-width="0.847" stroke-linecap="round" stroke-linejoin="round"/>
<path d="M139.547 68.56C139.547 68.56 135.86 69.8486 136.188 66.2691C136.371 64.2506 136.869 61.0937 137.269 58.7248C137.626 56.6012 135.33 56.478 133.458 57.5363" stroke="#340096" stroke-width="0.847" stroke-linecap="round" stroke-linejoin="round"/>
<path d="M146.836 61.9445C146.836 61.9445 144.538 61.2745 143.232 61.8605" stroke="#340096" stroke-width="0.847" stroke-linecap="round" stroke-linejoin="round"/>
<path d="M134.051 61.8011C134.051 61.8011 132.108 61.0011 130.447 61.7171" stroke="#340096" stroke-width="0.847" stroke-linecap="round" stroke-linejoin="round"/>
<path d="M138.015 79.5463V87.1817" stroke="#340096" stroke-width="0.847" stroke-linecap="round" stroke-linejoin="round"/>
<path d="M155.134 90.2925L155.71 69.712C155.71 69.712 161.434 69.0742 159.67 64.4014" stroke="#340096" stroke-width="0.847" stroke-linecap="round" stroke-linejoin="round"/>
<path d="M155.786 64.8421C155.877 64.3625 156.368 64.016 156.856 64.021C157.345 64.0251 157.799 64.3354 158.052 64.753C158.305 65.1705 158.375 65.6791 158.328 66.1647C158.306 66.401 158.255 66.6383 158.138 66.8435" stroke="#340096" stroke-width="0.847" stroke-linecap="round" stroke-linejoin="round"/>
<path d="M132.271 51.2153C132.228 51.5247 124.688 67.7308 129.553 75.1499C132.481 79.6125 137.55 80.6357 143.747 77.9104" stroke="#340096" stroke-width="0.847" stroke-linecap="round" stroke-linejoin="round"/>
<path fill-rule="evenodd" clip-rule="evenodd" d="M160.368 65.2204C160.109 65.1874 159.882 65.0162 159.78 64.7639C159.368 63.7416 158.6 62.8635 157.611 62.477C156.496 62.0415 155.115 62.3218 154.349 63.276C153.743 64.03 153.439 65.1984 152.447 65.3296C152.034 65.3836 151.624 65.2164 151.318 64.9201C150.691 64.3113 150.548 63.4322 150.477 62.5872C150.282 60.2042 150.571 57.8082 150.904 55.4423C151.037 54.5012 151.166 53.4899 150.754 52.6418C150.072 51.2431 148.299 50.9668 146.8 50.9788C143.947 51.0028 141.099 51.4384 138.359 52.2714C136.92 52.7089 135.502 53.2576 134.02 53.4889C132.919 53.6601 131.728 53.6341 130.779 53.0243C129.436 52.1603 128.928 50.348 128.942 48.696C128.969 45.6352 130.423 42.7176 132.478 40.5439C134.533 38.3692 137.152 36.8693 139.85 35.6969C141.968 34.7767 144.32 34.2441 146.609 34.1309C148.898 34.0178 151.146 34.3722 152.954 35.848C154.763 37.3239 155.901 39.7899 155.531 42.1599C157.169 40.693 160.075 41.3268 161.017 43.3573C161.276 43.915 161.396 44.5759 161.189 45.1566C160.982 45.7383 160.382 46.1838 159.805 46.0507C162.306 45.6192 164.94 47.7348 165.192 50.379C165.321 51.7277 164.69 53.3127 163.424 53.59C164.638 54.4391 164.564 56.3214 164.204 57.8042C163.632 60.1542 162.683 62.4039 161.41 64.4294C161.279 64.6367 161.139 64.848 160.968 65.0172C160.807 65.1764 160.587 65.2485 160.368 65.2204Z" fill="#340096"/>
<path fill-rule="evenodd" clip-rule="evenodd" d="M160.368 65.2204C160.109 65.1874 159.882 65.0162 159.78 64.7639C159.368 63.7416 158.6 62.8635 157.611 62.477C156.496 62.0415 155.115 62.3218 154.349 63.276C153.743 64.03 153.439 65.1984 152.447 65.3296C152.034 65.3836 151.624 65.2164 151.318 64.9201C150.691 64.3113 150.548 63.4322 150.477 62.5872C150.282 60.2042 150.571 57.8082 150.904 55.4423C151.037 54.5012 151.166 53.4899 150.754 52.6418C150.072 51.2431 148.299 50.9668 146.8 50.9788C143.947 51.0028 141.099 51.4384 138.359 52.2714C136.92 52.7089 135.502 53.2576 134.02 53.4889C132.919 53.6601 131.728 53.6341 130.779 53.0243C129.436 52.1603 128.928 50.348 128.942 48.696C128.969 45.6352 130.423 42.7176 132.478 40.5439C134.533 38.3692 137.152 36.8693 139.85 35.6969C141.968 34.7767 144.32 34.2441 146.609 34.1309C148.898 34.0178 151.146 34.3722 152.954 35.848C154.763 37.3239 155.901 39.7899 155.531 42.1599C157.169 40.693 160.075 41.3268 161.017 43.3573C161.276 43.915 161.396 44.5759 161.189 45.1566C160.982 45.7383 160.382 46.1838 159.805 46.0507C162.306 45.6191 164.94 47.7348 165.192 50.379C165.321 51.7277 164.69 53.3127 163.424 53.59C164.638 54.4391 164.564 56.3214 164.204 57.8042C163.632 60.1542 162.683 62.4039 161.41 64.4294C161.279 64.6367 161.139 64.848 160.968 65.0172C160.807 65.1764 160.587 65.2485 160.368 65.2204Z" stroke="#340096" stroke-width="0.847" stroke-linecap="round" stroke-linejoin="round"/>
<path d="M156.534 69.5197C156.534 69.5197 154.676 70.0137 152.558 69.6137" stroke="#340096" stroke-width="0.847" stroke-linecap="round" stroke-linejoin="round"/>
<mask id="maskConnect0" maskType="alpha" maskUnits="userSpaceOnUse" x="114" y="83" width="63" height="10">
<path d="M114.644 83.5741H176.967V92.5073H114.644V83.5741Z" fill="white"/>
</mask>
<g mask="url(#maskConnect0)">
<path fill-rule="evenodd" clip-rule="evenodd" d="M104.666 95.5578C104.666 95.5578 120.987 80.0186 137.936 84.3299C138.654 86.037 145.312 89.8057 155.807 84.9397C174.706 87.8333 177.558 89.5554 180.666 92.8004C184.511 96.8134 182.324 103.467 182.324 103.467H94.1384L104.666 95.5578Z" fill="#F2F0FF"/>
</g>
<mask id="maskConnect1" maskType="alpha" maskUnits="userSpaceOnUse" x="114" y="83" width="63" height="10">
<path d="M114.644 83.5741H176.967V92.5073H114.644V83.5741Z" fill="white"/>
</mask>
<g mask="url(#maskConnect1)">
<path fill-rule="evenodd" clip-rule="evenodd" d="M104.666 95.5578C104.666 95.5578 120.987 80.0186 137.936 84.3299C138.654 86.037 145.312 89.8057 155.807 84.9397C174.706 87.8333 177.558 89.5554 180.666 92.8004C184.511 96.8134 182.324 103.467 182.324 103.467H94.1384L104.666 95.5578Z" stroke="#340096" stroke-width="0.847" stroke-linecap="round" stroke-linejoin="round"/>
</g>
<path fill-rule="evenodd" clip-rule="evenodd" d="M114.643 92.5074H176.966V30.4955H114.643V92.5074Z" stroke="#0E0916" stroke-width="0.736" stroke-linecap="round" stroke-linejoin="round"/>
<path fill-rule="evenodd" clip-rule="evenodd" d="M111.427 7.33425C111.427 8.23136 110.7 8.95926 109.805 8.95926C108.909 8.95926 108.183 8.23136 108.183 7.33425C108.183 6.43714 108.909 5.71024 109.805 5.71024C110.7 5.71024 111.427 6.43714 111.427 7.33425Z" fill="#F2F0FF"/>
<path fill-rule="evenodd" clip-rule="evenodd" d="M111.427 7.33425C111.427 8.23136 110.7 8.95926 109.805 8.95926C108.909 8.95926 108.183 8.23136 108.183 7.33425C108.183 6.43714 108.909 5.71024 109.805 5.71024C110.7 5.71024 111.427 6.43714 111.427 7.33425Z" stroke="#0E0916" stroke-width="0.736" stroke-linecap="round" stroke-linejoin="round"/>
<path fill-rule="evenodd" clip-rule="evenodd" d="M118.717 7.33425C118.717 8.23136 117.991 8.95926 117.096 8.95926C116.199 8.95926 115.474 8.23136 115.474 7.33425C115.474 6.43714 116.199 5.71024 117.096 5.71024C117.991 5.71024 118.717 6.43714 118.717 7.33425Z" fill="#F2F0FF"/>
<path fill-rule="evenodd" clip-rule="evenodd" d="M118.717 7.33425C118.717 8.23136 117.991 8.95926 117.096 8.95926C116.199 8.95926 115.474 8.23136 115.474 7.33425C115.474 6.43714 116.199 5.71024 117.096 5.71024C117.991 5.71024 118.717 6.43714 118.717 7.33425Z" stroke="#0E0916" stroke-width="0.736" stroke-linecap="round" stroke-linejoin="round"/>
<path fill-rule="evenodd" clip-rule="evenodd" d="M126.008 7.33425C126.008 8.23136 125.282 8.95926 124.386 8.95926C123.491 8.95926 122.765 8.23136 122.765 7.33425C122.765 6.43714 123.491 5.71024 124.386 5.71024C125.282 5.71024 126.008 6.43714 126.008 7.33425Z" fill="#F2F0FF"/>
<path fill-rule="evenodd" clip-rule="evenodd" d="M126.008 7.33425C126.008 8.23136 125.282 8.95926 124.386 8.95926C123.491 8.95926 122.765 8.23136 122.765 7.33425C122.765 6.43714 123.491 5.71024 124.386 5.71024C125.282 5.71024 126.008 6.43714 126.008 7.33425Z" stroke="#0E0916" stroke-width="0.736" stroke-linecap="round" stroke-linejoin="round"/>
<path fill-rule="evenodd" clip-rule="evenodd" d="M433.298 26.7149V125.264C433.298 128.406 430.754 130.953 427.617 130.953H278.587C275.45 130.953 272.907 128.406 272.907 125.264V26.7149C272.907 23.572 275.45 21.0248 278.587 21.0248H427.617C430.754 21.0248 433.298 23.572 433.298 26.7149Z" fill="#E6E2FF"/>
<path fill-rule="evenodd" clip-rule="evenodd" d="M433.298 26.7149V125.264C433.298 128.406 430.754 130.953 427.617 130.953H278.587C275.45 130.953 272.907 128.406 272.907 125.264V26.7149C272.907 23.572 275.45 21.0248 278.587 21.0248H427.617C430.754 21.0248 433.298 23.572 433.298 26.7149Z" stroke="#0E0916" stroke-width="0.747" stroke-linecap="round" stroke-linejoin="round"/>
<path fill-rule="evenodd" clip-rule="evenodd" d="M273.133 44.1221H433.534V33.7753H273.133V44.1221Z" fill="#F2F0FF"/>
<path fill-rule="evenodd" clip-rule="evenodd" d="M273.133 44.1221H433.534V33.7753H273.133V44.1221Z" stroke="#0E0916" stroke-width="0.747" stroke-linecap="round" stroke-linejoin="round"/>
<path d="M272.907 121.829H433.307" stroke="#0E0916" stroke-width="0.747" stroke-linecap="round" stroke-linejoin="round"/>
<path fill-rule="evenodd" clip-rule="evenodd" d="M359.321 70.699H422.026V61.808H359.321V70.699Z" fill="#FBFBFC"/>
<path fill-rule="evenodd" clip-rule="evenodd" d="M359.321 70.699H422.026V61.808H359.321V70.699Z" stroke="#0E0916" stroke-width="0.747" stroke-linecap="round" stroke-linejoin="round"/>
<path fill-rule="evenodd" clip-rule="evenodd" d="M359.322 100.339H408.66V91.4478H359.322V100.339Z" fill="#F2F0FF"/>
<path fill-rule="evenodd" clip-rule="evenodd" d="M359.322 100.339H408.66V91.4478H359.322V100.339Z" stroke="#0E0916" stroke-width="0.747" stroke-linecap="round" stroke-linejoin="round"/>
<path fill-rule="evenodd" clip-rule="evenodd" d="M359.322 85.1139H390.225V76.2229H359.322V85.1139Z" fill="#F2F0FF"/>
<path fill-rule="evenodd" clip-rule="evenodd" d="M359.322 85.1139H390.225V76.2229H359.322V85.1139Z" stroke="#0E0916" stroke-width="0.747" stroke-linecap="round" stroke-linejoin="round"/>
<path fill-rule="evenodd" clip-rule="evenodd" d="M285.21 113.963H348.507V50.9826H285.21V113.963Z" fill="#FBFBFC"/>
<path fill-rule="evenodd" clip-rule="evenodd" d="M310.493 101.062V93.3743H310.263C307.683 92.8968 305.885 91.0184 304.706 88.7626C300.907 81.4996 305.145 68.1251 305.185 67.8397C305.185 67.8397 319.717 63.2711 320.068 63.3882C320.42 63.5053 332.962 74.7763 332.962 74.7763L332.61 86.9854L325.461 102.129L310.493 101.062Z" fill="#FFEBDE"/>
<path d="M310.407 88.768C311.852 89.978 313.064 88.537 313.064 88.537" stroke="#340096" stroke-width="0.753" stroke-linecap="round" stroke-linejoin="round"/>
<path d="M312.45 84.449C312.45 84.449 309.174 85.0297 309.565 82.9792C309.786 81.8227 310.314 80.0235 310.733 78.6738" stroke="#340096" stroke-width="0.742" stroke-linecap="round" stroke-linejoin="round"/>
<path d="M317.786 79.4561C317.786 79.4561 315.832 78.9061 314.721 79.3841" stroke="#340096" stroke-width="0.742" stroke-linecap="round" stroke-linejoin="round"/>
<path d="M307.547 79.7099C307.547 79.7099 306.211 79.0979 304.799 79.6829" stroke="#340096" stroke-width="0.742" stroke-linecap="round" stroke-linejoin="round"/>
<path d="M310.493 94.0091V101.062" stroke="#340096" stroke-width="0.753" stroke-linecap="round" stroke-linejoin="round"/>
<path fill-rule="evenodd" clip-rule="evenodd" d="M335.354 77.2863C336.813 72.7987 336.803 69.774 334.67 65.5858C333.174 62.6472 330.117 60.7298 326.284 61.4947C327.114 60.4775 326.265 58.9185 325.271 58.0765C322.724 55.9238 319.064 55.286 315.979 56.4585C313.434 57.4247 312.194 59.0777 311.205 61.689C311.36 60.6907 309.92 59.5083 307.865 59.8447C305.163 60.2872 304.238 62.3288 303.837 63.5503C303.76 63.7856 303.705 64.0309 303.671 64.2802C302.666 63.9698 301.186 64.3883 300.922 65.4536C300.114 68.6966 303.069 71.3209 304.274 71.8936C314.933 76.9599 321.294 63.1047 318.902 68.7767C316.51 74.4498 323.093 80.4462 325.496 79.7694C327.811 79.1186 329.374 79.5871 329.958 81.7468C330.787 84.8116 326.402 86.2584 326.402 86.2584L326.049 98.4936C328.183 99.4557 327.504 95.6991 330.517 95.4197C334.593 95.0423 338.465 92.1287 339.677 88.0706C340.888 84.0136 339.06 79.0905 335.354 77.2863Z" fill="#340096"/>
<path d="M305.186 67.8395C305.146 68.1249 300.907 81.5004 304.706 88.7624C306.592 92.3719 310.063 95.0152 315.786 92.497" stroke="#340096" stroke-width="0.753" stroke-linecap="round" stroke-linejoin="round"/>
<mask id="maskConnect2" maskType="alpha" maskUnits="userSpaceOnUse" x="285" y="97" width="64" height="17">
<path d="M285.21 97.4439H348.507V113.963H285.21V97.4439Z" fill="white"/>
</mask>
<g mask="url(#maskConnect2)">
<path fill-rule="evenodd" clip-rule="evenodd" d="M280.8 108.105C280.8 108.105 295.32 94.2807 310.399 98.1164C311.036 99.6353 316.959 102.987 326.297 98.6581C343.109 101.233 345.406 102.251 348.412 105.651C351.686 109.356 349.886 115.142 349.886 115.142H271.435L280.8 108.105Z" fill="#2250FF"/>
</g>
<mask id="maskConnect3" maskType="alpha" maskUnits="userSpaceOnUse" x="285" y="97" width="64" height="17">
<path d="M285.21 97.4439H348.507V113.963H285.21V97.4439Z" fill="white"/>
</mask>
<g mask="url(#maskConnect3)">
<path fill-rule="evenodd" clip-rule="evenodd" d="M280.8 108.105C280.8 108.105 295.32 94.2807 310.399 98.1164C311.036 99.6353 316.959 102.987 326.297 98.6581C343.109 101.233 345.406 102.251 348.412 105.651C351.686 109.356 349.886 115.142 349.886 115.142H271.435L280.8 108.105Z" stroke="#340096" stroke-width="0.753" stroke-linecap="round" stroke-linejoin="round"/>
</g>
<path d="M326.768 84.1003C326.768 84.1003 328.33 83.8711 328.436 82.4833C328.54 81.1267 326.821 81.0486 326.821 81.0486" stroke="#340096" stroke-width="0.753" stroke-linecap="round" stroke-linejoin="round"/>
<path fill-rule="evenodd" clip-rule="evenodd" d="M285.21 113.963H348.507V50.9826H285.21V113.963Z" stroke="#0E0916" stroke-width="0.747" stroke-linecap="round" stroke-linejoin="round"/>
<path fill-rule="evenodd" clip-rule="evenodd" d="M281.943 27.4585C281.943 28.3696 281.206 29.1085 280.296 29.1085C279.386 29.1085 278.649 28.3696 278.649 27.4585C278.649 26.5473 279.386 25.8094 280.296 25.8094C281.206 25.8094 281.943 26.5473 281.943 27.4585Z" fill="#F2F0FF"/>
<path fill-rule="evenodd" clip-rule="evenodd" d="M281.943 27.4585C281.943 28.3696 281.206 29.1085 280.296 29.1085C279.386 29.1085 278.649 28.3696 278.649 27.4585C278.649 26.5473 279.386 25.8094 280.296 25.8094C281.206 25.8094 281.943 26.5473 281.943 27.4585Z" stroke="#0E0916" stroke-width="0.747" stroke-linecap="round" stroke-linejoin="round"/>
<path fill-rule="evenodd" clip-rule="evenodd" d="M289.348 27.4585C289.348 28.3696 288.611 29.1085 287.701 29.1085C286.79 29.1085 286.054 28.3696 286.054 27.4585C286.054 26.5473 286.79 25.8094 287.701 25.8094C288.611 25.8094 289.348 26.5473 289.348 27.4585Z" fill="#F2F0FF"/>
<path fill-rule="evenodd" clip-rule="evenodd" d="M289.348 27.4585C289.348 28.3696 288.611 29.1085 287.701 29.1085C286.79 29.1085 286.054 28.3696 286.054 27.4585C286.054 26.5473 286.79 25.8094 287.701 25.8094C288.611 25.8094 289.348 26.5473 289.348 27.4585Z" stroke="#0E0916" stroke-width="0.747" stroke-linecap="round" stroke-linejoin="round"/>
<path fill-rule="evenodd" clip-rule="evenodd" d="M296.752 27.4585C296.752 28.3696 296.016 29.1085 295.106 29.1085C294.195 29.1085 293.458 28.3696 293.458 27.4585C293.458 26.5473 294.195 25.8094 295.106 25.8094C296.016 25.8094 296.752 26.5473 296.752 27.4585Z" fill="#F2F0FF"/>
<path fill-rule="evenodd" clip-rule="evenodd" d="M296.752 27.4585C296.752 28.3696 296.016 29.1085 295.106 29.1085C294.195 29.1085 293.458 28.3696 293.458 27.4585C293.458 26.5473 294.195 25.8094 295.106 25.8094C296.016 25.8094 296.752 26.5473 296.752 27.4585Z" stroke="#0E0916" stroke-width="0.747" stroke-linecap="round" stroke-linejoin="round"/>
<path fill-rule="evenodd" clip-rule="evenodd" d="M244.303 201.861H203.549C200.448 201.861 197.932 199.342 197.932 196.235V124.773C197.932 121.665 200.448 119.147 203.549 119.147H244.303C247.406 119.147 249.92 121.665 249.92 124.773V196.235C249.92 199.342 247.406 201.861 244.303 201.861Z" fill="#E6E2FF"/>
<path fill-rule="evenodd" clip-rule="evenodd" d="M244.303 201.861H203.549C200.448 201.861 197.932 199.342 197.932 196.235V124.773C197.932 121.665 200.448 119.147 203.549 119.147H244.303C247.406 119.147 249.92 121.665 249.92 124.773V196.235C249.92 199.342 247.406 201.861 244.303 201.861Z" stroke="#0E0916" stroke-width="0.807" stroke-linecap="round" stroke-linejoin="round"/>
<path d="M204.834 119.146H207.688C208.059 119.146 208.358 119.447 208.358 119.816V121.062C208.358 122.393 209.436 123.473 210.765 123.473H237.088C238.417 123.473 239.495 122.393 239.495 121.062V119.816C239.495 119.447 239.795 119.146 240.165 119.146H242.324" stroke="#0E0916" stroke-width="0.807" stroke-linecap="round" stroke-linejoin="round"/>
<path fill-rule="evenodd" clip-rule="evenodd" d="M197.956 133.809H249.896V127.845H197.956V133.809Z" fill="#F2F0FF"/>
<path fill-rule="evenodd" clip-rule="evenodd" d="M197.956 133.809H249.896V127.845H197.956V133.809Z" stroke="#0E0916" stroke-width="0.807" stroke-linecap="round" stroke-linejoin="round"/>
<path fill-rule="evenodd" clip-rule="evenodd" d="M202.977 186.602H244.876V180.829H202.977V186.602Z" fill="#FBFBFC"/>
<path fill-rule="evenodd" clip-rule="evenodd" d="M202.977 186.602H244.876V180.829H202.977V186.602Z" stroke="#0E0916" stroke-width="0.807" stroke-linecap="round" stroke-linejoin="round"/>
<path fill-rule="evenodd" clip-rule="evenodd" d="M218.717 196.138H244.688V190.365H218.717V196.138Z" fill="#F2F0FF"/>
<path fill-rule="evenodd" clip-rule="evenodd" d="M218.717 196.138H244.688V190.365H218.717V196.138Z" stroke="#0E0916" stroke-width="0.807" stroke-linecap="round" stroke-linejoin="round"/>
<path fill-rule="evenodd" clip-rule="evenodd" d="M203.164 196.138H214.687V190.365H203.164V196.138Z" fill="#F2F0FF"/>
<path fill-rule="evenodd" clip-rule="evenodd" d="M203.164 196.138H214.687V190.365H203.164V196.138Z" stroke="#0E0916" stroke-width="0.807" stroke-linecap="round" stroke-linejoin="round"/>
<path fill-rule="evenodd" clip-rule="evenodd" d="M203.164 176.609H244.688V137.364H203.164V176.609Z" fill="#E1DFEB"/>
<path fill-rule="evenodd" clip-rule="evenodd" d="M216.396 150.745C216.372 150.914 213.85 158.87 216.11 163.19C216.84 164.586 217.968 165.739 219.603 165.963L219.552 165.985V170.506L228.957 172.214L229.275 161.595C229.275 161.595 232.419 161.245 231.45 158.677L231.333 153.483L230.072 147.875C230.072 147.875 224.649 145.731 224.385 145.849C224.122 145.967 216.396 150.745 216.396 150.745Z" fill="#FFD8BA"/>
<path d="M220.15 163.48C221.062 164.131 221.715 163.222 221.715 163.222" stroke="#340096" stroke-width="0.5" stroke-linecap="round" stroke-linejoin="round"/>
<path d="M221.011 160.685C221.011 160.685 217.945 161.281 218.318 159.216C218.529 158.053 219.029 156.241 219.426 154.882" stroke="#340096" stroke-width="0.5" stroke-linecap="round" stroke-linejoin="round"/>
<path d="M224.399 156.639C224.399 156.639 223.136 156.271 222.419 156.593" stroke="#340096" stroke-width="0.5" stroke-linecap="round" stroke-linejoin="round"/>
<path d="M217.783 156.816C217.783 156.816 216.921 156.406 216.008 156.799" stroke="#340096" stroke-width="0.5" stroke-linecap="round" stroke-linejoin="round"/>
<path d="M219.552 165.986V170.506" stroke="#340096" stroke-width="0.5" stroke-linecap="round" stroke-linejoin="round"/>
<path d="M228.957 172.215L229.274 161.595C229.274 161.595 232.42 161.245 231.45 158.677" stroke="#340096" stroke-width="0.5" stroke-linecap="round" stroke-linejoin="round"/>
<path d="M229.316 158.92C229.366 158.656 229.635 158.465 229.903 158.468C230.171 158.47 230.421 158.641 230.56 158.871C230.699 159.1 230.738 159.379 230.712 159.647C230.7 159.776 230.671 159.906 230.607 160.019" stroke="#340096" stroke-width="0.5" stroke-linecap="round" stroke-linejoin="round"/>
<path d="M216.396 150.745C216.372 150.914 213.85 158.87 216.11 163.19C217.233 165.337 219.296 166.91 222.702 165.412" stroke="#340096" stroke-width="0.5" stroke-linecap="round" stroke-linejoin="round"/>
<path fill-rule="evenodd" clip-rule="evenodd" d="M231.833 159.128C231.691 159.109 231.565 159.015 231.51 158.877C231.283 158.315 230.862 157.833 230.319 157.621C229.706 157.381 228.947 157.536 228.526 158.059C228.193 158.473 228.026 159.116 227.481 159.188C227.255 159.217 227.029 159.126 226.861 158.962C226.517 158.628 226.438 158.145 226.399 157.681C226.292 156.371 226.45 154.368 226.634 153.067C226.706 152.55 230.147 149.375 229.921 148.91C229.547 148.141 227.691 149.259 223.816 148.96C221.585 148.788 221.94 150.3 220.635 151.18C219.72 151.797 217.724 152.612 217.65 151.788C217.374 148.689 214.345 153.773 214.499 153.172C215.413 149.625 212.889 151.312 212.897 150.405C212.912 148.723 213.751 147.373 215.509 145.391C218.223 142.329 222.868 141.763 224.123 141.873C228.82 142.287 230.502 144.302 230.299 145.605C231.198 144.799 231.932 145.963 232.19 146.427C232.354 146.722 232.398 147.097 232.284 147.416C232.171 147.735 231.841 147.981 231.523 147.908C232.898 147.67 233.408 150.297 233.547 151.749C233.617 152.49 233.27 153.361 232.575 153.514C233.243 153.98 233.591 156.966 232.405 158.693C232.329 158.804 232.257 158.922 232.163 159.016C232.075 159.104 231.953 159.144 231.833 159.128Z" fill="#340096"/>
<path fill-rule="evenodd" clip-rule="evenodd" d="M231.833 159.128C231.691 159.109 231.565 159.015 231.51 158.877C231.283 158.315 230.862 157.833 230.319 157.621C229.706 157.381 228.947 157.536 228.526 158.059C228.193 158.473 228.026 159.116 227.481 159.188C227.255 159.217 227.029 159.126 226.861 158.962C226.517 158.628 226.438 158.145 226.399 157.681C226.292 156.371 226.45 154.368 226.634 153.067C226.706 152.55 230.147 149.375 229.921 148.91C229.547 148.141 227.691 149.259 223.816 148.96C221.585 148.788 221.94 150.3 220.635 151.18C219.72 151.797 217.724 152.612 217.65 151.788C217.374 148.689 214.345 153.773 214.499 153.172C215.413 149.625 212.889 151.312 212.897 150.405C212.912 148.723 213.751 147.373 215.509 145.391C218.223 142.329 222.868 141.763 224.123 141.873C228.82 142.287 230.502 144.302 230.299 145.605C231.198 144.799 231.932 145.963 232.19 146.427C232.354 146.722 232.398 147.097 232.284 147.416C232.171 147.735 231.841 147.981 231.523 147.908C232.898 147.67 233.408 150.297 233.547 151.749C233.617 152.49 233.27 153.361 232.575 153.514C233.243 153.98 233.591 156.966 232.405 158.693C232.329 158.804 232.257 158.922 232.163 159.016C232.075 159.104 231.953 159.144 231.833 159.128Z" stroke="#340096" stroke-width="0.448" stroke-linecap="round" stroke-linejoin="round"/>
<mask id="maskConnect4" maskType="alpha" maskUnits="userSpaceOnUse" x="203" y="168" width="41" height="9">
<path d="M203.164 168.354H243.312V176.609H203.164V168.354Z" fill="white"/>
</mask>
<g mask="url(#maskConnect4)">
<path fill-rule="evenodd" clip-rule="evenodd" d="M201.89 174.695C201.89 174.695 210.527 166.472 219.496 168.754C219.876 169.657 223.399 171.65 228.953 169.076C238.953 170.607 240.462 171.518 242.107 173.235C244.142 175.36 242.983 178.88 242.983 178.88H196.32L201.89 174.695Z" fill="#2250FF"/>
</g>
<mask id="maskConnect5" maskType="alpha" maskUnits="userSpaceOnUse" x="203" y="168" width="41" height="9">
<path d="M203.164 168.354H243.312V176.609H203.164V168.354Z" fill="white"/>
</mask>
<g mask="url(#maskConnect5)">
<path fill-rule="evenodd" clip-rule="evenodd" d="M201.89 174.695C201.89 174.695 210.527 166.472 219.496 168.754C219.876 169.657 223.399 171.65 228.953 169.076C238.953 170.607 240.462 171.518 242.107 173.235C244.142 175.36 242.983 178.88 242.983 178.88H196.32L201.89 174.695Z" stroke="#340096" stroke-width="0.5" stroke-linecap="round" stroke-linejoin="round"/>
</g>
<path fill-rule="evenodd" clip-rule="evenodd" d="M203.164 176.609H244.688V137.364H203.164V176.609Z" stroke="#0E0916" stroke-width="0.807" stroke-linecap="round" stroke-linejoin="round"/>
<path d="M220.867 121.132H226.985" stroke="#0E0916" stroke-width="0.807" stroke-linecap="round" stroke-linejoin="round"/>
<path fill-rule="evenodd" clip-rule="evenodd" d="M1 103.913V58.5391C1 55.5995 3.37919 53.2166 6.31418 53.2166H84.5345C87.4695 53.2166 89.8486 55.5995 89.8486 58.5391V103.913C89.8486 106.853 87.4695 109.236 84.5345 109.236H6.31418C3.37919 109.236 1 106.853 1 103.913Z" fill="#E6E2FF"/>
<path fill-rule="evenodd" clip-rule="evenodd" d="M1 103.913V58.5391C1 55.5995 3.37919 53.2166 6.31418 53.2166H84.5345C87.4695 53.2166 89.8486 55.5995 89.8486 58.5391V103.913C89.8486 106.853 87.4695 109.236 84.5345 109.236H6.31418C3.37919 109.236 1 106.853 1 103.913Z" stroke="#0E0916" stroke-width="0.764" stroke-linecap="round" stroke-linejoin="round"/>
<path d="M89.8485 60.6528V63.7286C89.8485 64.1271 89.5266 64.4495 89.1278 64.4495H87.7902C86.3607 64.4495 85.2021 65.6119 85.2021 67.0437V95.4078C85.2021 96.8416 86.3607 98.002 87.7902 98.002H89.1278C89.5266 98.002 89.8485 98.3244 89.8485 98.7229V101.051" stroke="#0E0916" stroke-width="0.764" stroke-linecap="round" stroke-linejoin="round"/>
<path fill-rule="evenodd" clip-rule="evenodd" d="M74.099 109.211H80.5048V53.2416H74.099V109.211Z" fill="#F2F0FF"/>
<path fill-rule="evenodd" clip-rule="evenodd" d="M74.099 109.211H80.5048V53.2416H74.099V109.211Z" stroke="#0E0916" stroke-width="0.764" stroke-linecap="round" stroke-linejoin="round"/>
<path fill-rule="evenodd" clip-rule="evenodd" d="M17.3904 103.8H23.5913V58.6524H17.3904V103.8Z" fill="#FBFBFC"/>
<path fill-rule="evenodd" clip-rule="evenodd" d="M17.3904 103.8H23.5913V58.6524H17.3904V103.8Z" stroke="#0E0916" stroke-width="0.764" stroke-linecap="round" stroke-linejoin="round"/>
<path fill-rule="evenodd" clip-rule="evenodd" d="M7.14688 103.598H13.3478V75.6124H7.14688V103.598Z" fill="#F2F0FF"/>
<path fill-rule="evenodd" clip-rule="evenodd" d="M7.14688 103.598H13.3478V75.6124H7.14688V103.598Z" stroke="#0E0916" stroke-width="0.764" stroke-linecap="round" stroke-linejoin="round"/>
<path fill-rule="evenodd" clip-rule="evenodd" d="M7.14688 71.272H13.3478V58.8546H7.14688V71.272Z" fill="#F2F0FF"/>
<path fill-rule="evenodd" clip-rule="evenodd" d="M7.14688 71.272H13.3478V58.8546H7.14688V71.272Z" stroke="#0E0916" stroke-width="0.764" stroke-linecap="round" stroke-linejoin="round"/>
<path fill-rule="evenodd" clip-rule="evenodd" d="M28.1257 103.598H70.2803V58.8546H28.1257V103.598Z" fill="#F2F0FF"/>
<path fill-rule="evenodd" clip-rule="evenodd" d="M54.8361 75.6103C54.6602 75.5863 46.399 73.1623 41.9815 75.1147C40.7149 75.6744 39.6523 76.5204 39.2884 77.7299L39.2494 77.7399H34.54L32.7706 87.507L44.5116 87.8364C44.5116 87.8364 44.0138 89.6186 45.3533 90.2114C46.6919 90.8031 47.5006 89.8369 47.8125 89.088C47.8125 89.088 53.2566 88.9558 53.3436 88.3421C53.4316 87.7293 54.8361 75.6103 54.8361 75.6103Z" fill="#FFEBDE"/>
<path d="M41.8124 78.3612C41.1364 79.3084 42.0804 79.9862 42.0804 79.9862" stroke="#340096" stroke-width="0.464" stroke-linecap="round" stroke-linejoin="round"/>
<path d="M44.0195 79.4905C44.0195 79.4905 43.4357 77.0064 45.458 77.3088C46.5986 77.48 48.373 77.8845 49.7046 78.2059" stroke="#340096" stroke-width="0.394" stroke-linecap="round" stroke-linejoin="round"/>
<path d="M47.983 82.2371C47.983 82.2371 48.344 81.2138 48.028 80.6321" stroke="#340096" stroke-width="0.394" stroke-linecap="round" stroke-linejoin="round"/>
<path d="M47.8092 76.8755C47.8092 76.8755 48.2112 76.1766 47.8262 75.4367" stroke="#340096" stroke-width="0.394" stroke-linecap="round" stroke-linejoin="round"/>
<path d="M39.2496 77.7403H34.5402" stroke="#340096" stroke-width="0.464" stroke-linecap="round" stroke-linejoin="round"/>
<path d="M32.7704 87.5073L44.5114 87.8367C44.5114 87.8367 44.0136 89.6179 45.3531 90.2107C46.6917 90.8034 47.5004 89.8372 47.8123 89.0883" stroke="#340096" stroke-width="0.464" stroke-linecap="round" stroke-linejoin="round"/>
<path d="M46.6422 88.3619C46.8352 88.5611 46.8352 88.9035 46.6742 89.1298C46.5122 89.3561 46.2182 89.4672 45.9422 89.4482C45.6642 89.4292 45.4052 89.295 45.1942 89.1138C45.0912 89.0267 44.9972 88.9246 44.9402 88.8024" stroke="#340096" stroke-width="0.464" stroke-linecap="round" stroke-linejoin="round"/>
<path d="M54.8361 75.6103C54.6602 75.5863 46.399 73.1623 41.9815 75.1147C39.7853 76.0859 38.2018 77.9151 39.8132 81.011" stroke="#340096" stroke-width="0.432" stroke-linecap="round" stroke-linejoin="round"/>
<mask id="maskConnect6" maskType="alpha" maskUnits="userSpaceOnUse" x="28" y="58" width="9" height="45">
<path d="M28.1257 58.8536H36.767V102.334H28.1257V58.8536Z" fill="white"/>
</mask>
<g mask="url(#maskConnect6)">
<path fill-rule="evenodd" clip-rule="evenodd" d="M30.2021 59.3997C30.2021 59.3997 38.7142 68.3688 36.352 77.6823C35.4184 78.0768 33.3531 81.7354 36.0182 87.5025C34.4337 97.8874 34.0058 99.3222 31.7136 101.162C29.3354 103.071 25.8696 102.074 25.8696 102.074V53.6155L30.2021 59.3997Z" fill="#E6E2FF"/>
</g>
<mask id="maskConnect7" maskType="alpha" maskUnits="userSpaceOnUse" x="28" y="58" width="9" height="45">
<path d="M28.1257 58.8536H36.767V102.334H28.1257V58.8536Z" fill="white"/>
</mask>
<g mask="url(#maskConnect7)">
<path fill-rule="evenodd" clip-rule="evenodd" d="M30.2021 59.3997C30.2021 59.3997 38.7142 68.3688 36.352 77.6823C35.4184 78.0768 33.3531 81.7354 36.0182 87.5025C34.4337 97.8874 34.0058 99.3222 31.7136 101.162C29.3354 103.071 25.8696 102.074 25.8696 102.074V53.6155L30.2021 59.3997Z" stroke="#340096" stroke-width="0.464" stroke-linecap="round" stroke-linejoin="round"/>
</g>
<path fill-rule="evenodd" clip-rule="evenodd" d="M43.3878 90.0266C42.5311 90.0266 41.8354 89.3307 41.8354 88.4716C41.8354 87.6126 42.5311 86.9157 43.3878 86.9157C44.2455 86.9157 44.9413 87.6126 44.9413 88.4716C44.9413 89.3307 44.2455 90.0266 43.3878 90.0266Z" fill="white"/>
<path fill-rule="evenodd" clip-rule="evenodd" d="M43.3878 90.0266C42.5311 90.0266 41.8354 89.3307 41.8354 88.4716C41.8354 87.6126 42.5311 86.9157 43.3878 86.9157C44.2455 86.9157 44.9413 87.6126 44.9413 88.4716C44.9413 89.3307 44.2455 90.0266 43.3878 90.0266Z" stroke="#340096" stroke-width="0.464" stroke-linecap="round" stroke-linejoin="round"/>
<path fill-rule="evenodd" clip-rule="evenodd" d="M51.967 74.1817C50.8604 74.434 50.7354 76.062 50.6064 77.1924C50.2406 80.4074 50.6774 83.7105 51.865 86.7192C50.7654 86.3538 49.5078 86.2887 48.4852 86.8354C47.4615 87.3821 46.8757 88.7067 47.2516 89.8051C47.7204 91.1738 49.3519 91.5803 50.7924 91.4791C53.5884 91.2839 56.0626 89.4977 57.1292 86.9055C57.859 85.1323 57.9549 83.1428 57.66 81.2475C57.2352 78.5141 55.6597 73.3387 51.967 74.1817Z" fill="#340096"/>
<path fill-rule="evenodd" clip-rule="evenodd" d="M55.3056 95.239C58.3246 97.2725 62.3362 96.5937 64.2666 93.7201C66.1959 90.8476 65.3132 86.8696 62.2942 84.8351C59.2753 82.8006 55.2636 83.4804 53.3333 86.353C51.405 89.2266 52.2867 93.2045 55.3056 95.239Z" fill="#340096"/>
<path fill-rule="evenodd" clip-rule="evenodd" d="M28.1257 103.598H70.2803V58.8546H28.1257V103.598Z" stroke="#0E0916" stroke-width="0.764" stroke-linecap="round" stroke-linejoin="round"/>
<path d="M87.7155 77.93V84.5221" stroke="#0E0916" stroke-width="0.764" stroke-linecap="round" stroke-linejoin="round"/>
<path fill-rule="evenodd" clip-rule="evenodd" d="M338.385 216.684V302.478C338.385 306.026 335.513 308.902 331.971 308.902H211.345C207.802 308.902 204.93 306.026 204.93 302.478V216.684C204.93 213.136 207.802 210.259 211.345 210.259H331.971C335.513 210.259 338.385 213.136 338.385 216.684Z" fill="#E6E2FF"/>
<path fill-rule="evenodd" clip-rule="evenodd" d="M338.385 216.684V302.478C338.385 306.026 335.513 308.902 331.971 308.902H211.345C207.802 308.902 204.93 306.026 204.93 302.478V216.684C204.93 213.136 207.802 210.259 211.345 210.259H331.971C335.513 210.259 338.385 213.136 338.385 216.684Z" stroke="#0E0916" stroke-width="0.886" stroke-linecap="round" stroke-linejoin="round"/>
<path fill-rule="evenodd" clip-rule="evenodd" d="M294.706 300.774H302.264V218.387H294.706V300.774Z" fill="#FBFBFC"/>
<path fill-rule="evenodd" clip-rule="evenodd" d="M294.706 300.774H302.264V218.387H294.706V300.774Z" stroke="#0E0916" stroke-width="0.886" stroke-linecap="round" stroke-linejoin="round"/>
<path fill-rule="evenodd" clip-rule="evenodd" d="M217.072 308.868H226.388V210.294H217.072V308.868Z" fill="#E6E2FF"/>
<path fill-rule="evenodd" clip-rule="evenodd" d="M217.072 308.868H226.388V210.294H217.072V308.868Z" stroke="#0E0916" stroke-width="0.886" stroke-linecap="round" stroke-linejoin="round"/>
<path fill-rule="evenodd" clip-rule="evenodd" d="M307.853 278.273H315.411V218.45H307.853V278.273Z" fill="#F2F0FF"/>
<path fill-rule="evenodd" clip-rule="evenodd" d="M307.853 278.273H315.411V218.45H307.853V278.273Z" stroke="#0E0916" stroke-width="0.886" stroke-linecap="round" stroke-linejoin="round"/>
<path fill-rule="evenodd" clip-rule="evenodd" d="M307.853 300.711H315.411V283.516H307.853V300.711Z" fill="#F2F0FF"/>
<path fill-rule="evenodd" clip-rule="evenodd" d="M307.853 300.711H315.411V283.516H307.853V300.711Z" stroke="#0E0916" stroke-width="0.886" stroke-linecap="round" stroke-linejoin="round"/>
<path fill-rule="evenodd" clip-rule="evenodd" d="M230.982 300.245H287.462V218.917H230.982V300.245Z" fill="#2250FF"/>
<path fill-rule="evenodd" clip-rule="evenodd" d="M280.83 266.49H272.769V266.731C272.269 269.446 270.3 271.336 267.933 272.577C260.317 276.572 246.293 272.114 245.994 272.072C245.994 272.072 241.202 256.787 241.325 256.416C241.448 256.047 253.267 242.855 253.267 242.855L266.069 243.224L281.95 250.744L280.83 266.49Z" fill="#FFEBDE"/>
<path d="M267.939 266.58C269.21 265.06 267.697 263.785 267.697 263.785" stroke="#340096" stroke-width="0.791" stroke-linecap="round" stroke-linejoin="round"/>
<path d="M263.41 264.432C263.41 264.432 264.019 267.876 261.869 267.465C260.656 267.233 258.769 266.677 257.354 266.236" stroke="#340096" stroke-width="0.779" stroke-linecap="round" stroke-linejoin="round"/>
<path d="M258.176 258.817C258.176 258.817 257.598 260.874 258.1 262.042" stroke="#340096" stroke-width="0.779" stroke-linecap="round" stroke-linejoin="round"/>
<path d="M258.441 269.589C258.441 269.589 257.798 270.994 258.412 272.479" stroke="#340096" stroke-width="0.779" stroke-linecap="round" stroke-linejoin="round"/>
<path d="M273.434 266.49H280.83" stroke="#340096" stroke-width="0.791" stroke-linecap="round" stroke-linejoin="round"/>
<path fill-rule="evenodd" clip-rule="evenodd" d="M255.9 240.338C251.194 238.803 248.022 238.814 243.631 241.057C240.55 242.632 238.539 245.847 239.341 249.878C238.274 249.006 236.64 249.898 235.758 250.945C233.5 253.623 232.831 257.473 234.06 260.718C235.073 263.395 236.807 264.7 239.545 265.739C238.498 265.577 237.257 267.092 237.61 269.255C238.075 272.096 240.215 273.069 241.497 273.491C241.743 273.572 242.001 273.63 242.261 273.665C241.936 274.722 242.375 276.278 243.492 276.558C246.892 277.406 249.644 274.298 250.245 273.03C255.557 261.818 241.029 255.127 246.977 257.643C252.925 260.16 259.213 253.234 258.503 250.708C257.82 248.273 258.312 246.629 260.577 246.014C263.791 245.142 265.307 249.755 265.307 249.755L278.137 250.125C279.146 247.881 275.207 248.595 274.915 245.426C274.519 241.137 271.462 237.065 267.209 235.79C262.955 234.517 257.792 236.439 255.9 240.338Z" fill="#340096"/>
<path d="M245.994 272.072C246.293 272.114 260.317 276.573 267.933 272.577C271.717 270.592 274.49 266.941 271.849 260.921" stroke="#340096" stroke-width="0.791" stroke-linecap="round" stroke-linejoin="round"/>
<mask id="maskConnect8" maskType="alpha" maskUnits="userSpaceOnUse" x="277" y="224" width="11" height="77">
<path d="M277.036 224.532H287.462V300.245H277.036V224.532Z" fill="white"/>
</mask>
<g mask="url(#maskConnect8)">
<path fill-rule="evenodd" clip-rule="evenodd" d="M288.215 297.724C288.215 297.724 273.719 282.45 277.741 266.588C279.333 265.917 282.849 259.687 278.311 249.865C281.01 232.181 282.076 229.765 285.642 226.603C289.527 223.158 295.594 225.052 295.594 225.052V307.574L288.215 297.724Z" fill="#F2F0FF"/>
</g>
<mask id="maskConnect9" maskType="alpha" maskUnits="userSpaceOnUse" x="277" y="224" width="11" height="77">
<path d="M277.036 224.532H287.462V300.245H277.036V224.532Z" fill="white"/>
</mask>
<g mask="url(#maskConnect9)">
<path fill-rule="evenodd" clip-rule="evenodd" d="M288.215 297.724C288.215 297.724 273.719 282.45 277.741 266.588C279.333 265.917 282.849 259.687 278.311 249.865C281.01 232.181 282.076 229.765 285.642 226.603C289.527 223.158 295.594 225.052 295.594 225.052V307.574L288.215 297.724Z" stroke="#340096" stroke-width="0.791" stroke-linecap="round" stroke-linejoin="round"/>
</g>
<path d="M263.045 249.369C263.045 249.369 262.804 247.728 261.349 247.615C259.926 247.505 259.844 249.314 259.844 249.314" stroke="#340096" stroke-width="0.791" stroke-linecap="round" stroke-linejoin="round"/>
<path fill-rule="evenodd" clip-rule="evenodd" d="M230.982 300.245H287.462V218.917H230.982V300.245Z" stroke="#0E0916" stroke-width="0.844" stroke-linecap="round" stroke-linejoin="round"/>
<path fill-rule="evenodd" clip-rule="evenodd" d="M329.773 255.388C332.085 255.388 333.959 257.266 333.959 259.58C333.959 261.896 332.085 263.774 329.773 263.774C327.461 263.774 325.588 261.896 325.588 259.58C325.588 257.266 327.461 255.388 329.773 255.388Z" fill="#E6E2FF"/>
<path fill-rule="evenodd" clip-rule="evenodd" d="M329.773 255.388C332.085 255.388 333.959 257.266 333.959 259.58C333.959 261.896 332.085 263.774 329.773 263.774C327.461 263.774 325.588 261.896 325.588 259.58C325.588 257.266 327.461 255.388 329.773 255.388Z" stroke="#0E0916" stroke-width="0.886" stroke-linecap="round" stroke-linejoin="round"/>
<path d="M322.155 210.294V308.868" stroke="#0E0916" stroke-width="0.844" stroke-linecap="round" stroke-linejoin="round"/>
<path d="M210.08 264.37V254.791" stroke="#0E0916" stroke-width="0.844" stroke-linecap="round" stroke-linejoin="round"/>
<path fill-rule="evenodd" clip-rule="evenodd" d="M187.82 240.277L187.82 327.013C187.82 329.767 185.591 332 182.841 332L61.9599 332C59.2099 332 56.9806 329.767 56.9806 327.013L56.9806 240.277C56.9806 237.523 59.2099 235.29 61.9599 235.29L182.841 235.29C185.591 235.29 187.82 237.523 187.82 240.277Z" fill="#E6E2FF"/>
<path fill-rule="evenodd" clip-rule="evenodd" d="M187.82 240.277L187.82 327.013C187.82 329.767 185.591 332 182.841 332L61.9599 332C59.2099 332 56.9806 329.767 56.9806 327.013L56.9806 240.277C56.9806 237.523 59.2099 235.29 61.9599 235.29L182.841 235.29C185.591 235.29 187.82 237.523 187.82 240.277Z" stroke="#0E0916" stroke-width="0.655" stroke-linecap="round" stroke-linejoin="round"/>
<path fill-rule="evenodd" clip-rule="evenodd" d="M152.406 324.032L152.406 243.259L144.996 243.259L144.996 324.032L152.406 324.032Z" fill="#FBFBFC"/>
<path fill-rule="evenodd" clip-rule="evenodd" d="M152.406 324.032L152.406 243.259L144.996 243.259L144.996 324.032L152.406 324.032Z" stroke="#0E0916" stroke-width="0.655" stroke-linecap="round" stroke-linejoin="round"/>
<path fill-rule="evenodd" clip-rule="evenodd" d="M78.0163 331.966L78.0163 235.324L68.8834 235.324L68.8835 331.966L78.0163 331.966Z" fill="#F2F0FF"/>
<path fill-rule="evenodd" clip-rule="evenodd" d="M78.0163 331.966L78.0163 235.324L68.8834 235.324L68.8835 331.966L78.0163 331.966Z" stroke="#0E0916" stroke-width="0.655" stroke-linecap="round" stroke-linejoin="round"/>
<path fill-rule="evenodd" clip-rule="evenodd" d="M165.295 301.971L165.295 243.321L157.886 243.321L157.886 301.971L165.295 301.971Z" fill="#F2F0FF"/>
<path fill-rule="evenodd" clip-rule="evenodd" d="M165.295 301.971L165.295 243.321L157.886 243.321L157.886 301.971L165.295 301.971Z" stroke="#0E0916" stroke-width="0.655" stroke-linecap="round" stroke-linejoin="round"/>
<path fill-rule="evenodd" clip-rule="evenodd" d="M165.295 323.969L165.295 307.111L157.886 307.111L157.886 323.969L165.295 323.969Z" fill="#F2F0FF"/>
<path fill-rule="evenodd" clip-rule="evenodd" d="M165.295 323.969L165.295 307.111L157.886 307.111L157.886 323.969L165.295 323.969Z" stroke="#0E0916" stroke-width="0.655" stroke-linecap="round" stroke-linejoin="round"/>
<path fill-rule="evenodd" clip-rule="evenodd" d="M137.894 323.511L137.894 243.778L82.5208 243.778L82.5208 323.511L137.894 323.511Z" fill="#2250FF"/>
<path fill-rule="evenodd" clip-rule="evenodd" d="M100.55 293.412C100.824 293.45 113.65 297.527 120.614 293.873C122.865 292.693 124.723 290.87 125.084 288.223L125.121 288.306L132.408 288.306L135.164 273.096L118.043 272.584C118.043 272.584 117.479 267.498 113.339 269.066L104.965 269.254L95.924 271.292C95.924 271.292 92.4692 280.063 92.6581 280.49C92.8471 280.917 100.55 293.412 100.55 293.412Z" fill="#FFA578"/>
<path d="M121.083 287.34C122.135 285.865 120.666 284.81 120.666 284.81" stroke="#340096" stroke-width="0.723" stroke-linecap="round" stroke-linejoin="round"/>
<path d="M116.576 285.949C116.576 285.949 117.536 290.908 114.209 290.304C112.332 289.963 109.412 289.153 107.22 288.513" stroke="#340096" stroke-width="0.723" stroke-linecap="round" stroke-linejoin="round"/>
<path d="M110.054 280.469C110.054 280.469 109.46 282.51 109.98 283.672" stroke="#340096" stroke-width="0.723" stroke-linecap="round" stroke-linejoin="round"/>
<path d="M110.34 291.169C110.34 291.169 109.678 292.563 110.313 294.038" stroke="#340096" stroke-width="0.723" stroke-linecap="round" stroke-linejoin="round"/>
<path d="M125.121 288.307L132.408 288.307" stroke="#340096" stroke-width="0.723" stroke-linecap="round" stroke-linejoin="round"/>
<path d="M135.163 273.096L118.043 272.584C118.043 272.584 117.478 267.498 113.339 269.066" stroke="#340096" stroke-width="0.723" stroke-linecap="round" stroke-linejoin="round"/>
<path d="M113.73 272.516C113.305 272.436 112.998 271.999 113.002 271.567C113.006 271.132 113.281 270.728 113.65 270.503C114.021 270.279 114.472 270.217 114.902 270.259C115.111 270.279 115.321 270.324 115.503 270.428" stroke="#340096" stroke-width="0.723" stroke-linecap="round" stroke-linejoin="round"/>
<path d="M100.55 293.412C100.824 293.45 113.65 297.527 120.614 293.873C124.075 292.057 126.61 288.72 124.195 283.213" stroke="#340096" stroke-width="0.723" stroke-linecap="round" stroke-linejoin="round"/>
<path fill-rule="evenodd" clip-rule="evenodd" d="M114.065 268.445C114.035 268.675 113.884 268.878 113.661 268.967C112.754 269.333 111.978 270.015 111.635 270.894C111.25 271.886 111.498 273.112 112.342 273.794C113.01 274.332 114.045 274.602 114.161 275.483C114.21 275.85 114.061 276.215 113.799 276.485C113.259 277.043 112.48 277.171 111.733 277.233C109.621 277.407 106.39 277.15 104.295 276.854C103.461 276.737 98.3422 271.172 97.5924 271.538C96.3539 272.143 98.1553 275.144 97.6744 281.41C97.3965 285.02 99.8327 284.446 101.252 286.556C102.248 288.035 103.559 291.264 102.234 291.383C97.2356 291.829 105.434 296.727 104.464 296.478C98.7451 295.001 101.465 299.083 100.003 299.07C97.2916 299.045 95.1153 297.687 91.9204 294.846C86.9831 290.457 86.0714 282.943 86.2493 280.915C86.9151 273.318 90.165 270.598 92.2653 270.927C90.9657 269.472 92.8421 268.286 93.5908 267.869C94.0657 267.602 94.6704 267.531 95.1843 267.715C95.6991 267.899 96.094 268.432 95.977 268.946C95.5941 266.722 99.8287 265.899 102.171 265.674C103.364 265.56 104.769 266.121 105.014 267.246C105.767 266.166 110.58 265.603 113.364 267.519C113.544 267.642 113.735 267.759 113.885 267.912C114.026 268.054 114.09 268.251 114.065 268.445Z" fill="#340096"/>
<path fill-rule="evenodd" clip-rule="evenodd" d="M114.065 268.445C114.035 268.675 113.884 268.878 113.661 268.967C112.754 269.333 111.978 270.015 111.635 270.894C111.25 271.886 111.498 273.112 112.342 273.794C113.01 274.332 114.045 274.602 114.161 275.483C114.21 275.85 114.061 276.215 113.799 276.485C113.259 277.043 112.48 277.171 111.733 277.233C109.621 277.407 106.39 277.15 104.295 276.854C103.461 276.737 98.3422 271.172 97.5924 271.538C96.3539 272.143 98.1553 275.144 97.6744 281.41C97.3965 285.02 99.8327 284.446 101.252 286.556C102.248 288.035 103.559 291.264 102.234 291.383C97.2356 291.829 105.434 296.727 104.464 296.478C98.7451 295.001 101.465 299.083 100.003 299.07C97.2916 299.045 95.1153 297.687 91.9204 294.846C86.9831 290.457 86.0714 282.943 86.2493 280.915C86.9151 273.318 90.165 270.598 92.2653 270.927C90.9657 269.472 92.8421 268.286 93.5908 267.869C94.0657 267.602 94.6704 267.531 95.1843 267.715C95.6991 267.899 96.094 268.432 95.977 268.946C95.5941 266.722 99.8287 265.899 102.171 265.674C103.364 265.56 104.769 266.121 105.014 267.246C105.767 266.166 110.58 265.603 113.364 267.519C113.544 267.642 113.735 267.759 113.885 267.912C114.026 268.054 114.09 268.251 114.065 268.445Z" stroke="#340096" stroke-width="0.723" stroke-linecap="round" stroke-linejoin="round"/>
<mask id="maskConnect10" maskType="alpha" maskUnits="userSpaceOnUse" x="128" y="249" width="10" height="75">
<path d="M128.938 323.511L128.938 249.881L137.894 249.881L137.894 323.511L128.938 323.511Z" fill="white"/>
</mask>
<g mask="url(#maskConnect10)">
<path fill-rule="evenodd" clip-rule="evenodd" d="M139.162 316.869C139.162 316.869 125.905 302.902 129.583 288.397C131.04 287.782 134.254 282.085 130.103 273.103C132.572 256.931 134.04 254.489 136.809 251.83C140.232 248.54 145.909 250.411 145.909 250.411L145.909 325.879L139.162 316.869Z" fill="#FBFBFC"/>
</g>
<mask id="maskConnect11" maskType="alpha" maskUnits="userSpaceOnUse" x="128" y="249" width="10" height="75">
<path d="M128.938 323.511L128.938 249.881L137.894 249.881L137.894 323.511L128.938 323.511Z" fill="white"/>
</mask>
<g mask="url(#maskConnect11)">
<path fill-rule="evenodd" clip-rule="evenodd" d="M139.162 316.869C139.162 316.869 125.905 302.902 129.583 288.397C131.04 287.782 134.254 282.085 130.103 273.103C132.572 256.931 134.04 254.489 136.809 251.83C140.232 248.54 145.909 250.411 145.909 250.411L145.909 325.879L139.162 316.869Z" stroke="#340096" stroke-width="0.723" stroke-linecap="round" stroke-linejoin="round"/>
</g>
<path fill-rule="evenodd" clip-rule="evenodd" d="M137.894 323.511L137.894 243.778L82.5208 243.778L82.5208 323.511L137.894 323.511Z" stroke="#0E0916" stroke-width="0.655" stroke-linecap="round" stroke-linejoin="round"/>
<path fill-rule="evenodd" clip-rule="evenodd" d="M179.376 279.535C181.644 279.535 183.48 281.375 183.48 283.644C183.48 285.915 181.644 287.755 179.376 287.755C177.11 287.755 175.273 285.915 175.273 283.644C175.273 281.375 177.11 279.535 179.376 279.535Z" fill="#FBFBFC"/>
<path fill-rule="evenodd" clip-rule="evenodd" d="M179.376 279.535C181.644 279.535 183.48 281.375 183.48 283.644C183.48 285.915 181.644 287.755 179.376 287.755C177.11 287.755 175.273 285.915 175.273 283.644C175.273 281.375 177.11 279.535 179.376 279.535Z" stroke="#0E0916" stroke-width="0.655" stroke-linecap="round" stroke-linejoin="round"/>
<path d="M171.908 235.324L171.908 331.966" stroke="#0E0916" stroke-width="0.655" stroke-linecap="round" stroke-linejoin="round"/>
<path d="M62.0289 288.341L62.0289 278.949" stroke="#0E0916" stroke-width="0.655" stroke-linecap="round" stroke-linejoin="round"/>
<path fill-rule="evenodd" clip-rule="evenodd" d="M45.9845 218.286L45.9845 125.292C45.9845 121.898 48.7316 119.146 52.1204 119.146L182.289 119.146C185.677 119.146 188.424 121.898 188.424 125.292L188.424 218.286C188.424 221.68 185.677 224.432 182.289 224.432L52.1204 224.432C48.7316 224.432 45.9845 221.68 45.9845 218.286Z" fill="#E6E2FF"/>
<path fill-rule="evenodd" clip-rule="evenodd" d="M45.9845 218.286L45.9845 125.292C45.9845 121.898 48.7316 119.146 52.1204 119.146L182.289 119.146C185.677 119.146 188.424 121.898 188.424 125.292L188.424 218.286C188.424 221.68 185.677 224.432 182.289 224.432L52.1204 224.432C48.7316 224.432 45.9845 221.68 45.9845 218.286Z" stroke="#0E0916" stroke-width="0.807" stroke-linecap="round" stroke-linejoin="round"/>
<path fill-rule="evenodd" clip-rule="evenodd" d="M84.5378 215.756H92.603L92.603 127.822H84.5378L84.5378 215.756Z" fill="#FBFBFC"/>
<path fill-rule="evenodd" clip-rule="evenodd" d="M84.5378 215.756H92.603L92.603 127.822H84.5378L84.5378 215.756Z" stroke="#0E0916" stroke-width="0.807" stroke-linecap="round" stroke-linejoin="round"/>
<path fill-rule="evenodd" clip-rule="evenodd" d="M165.523 224.394H175.466L175.466 119.183H165.523L165.523 224.394Z" fill="#F2F0FF"/>
<path fill-rule="evenodd" clip-rule="evenodd" d="M165.523 224.394H175.466L175.466 119.183H165.523L165.523 224.394Z" stroke="#0E0916" stroke-width="0.807" stroke-linecap="round" stroke-linejoin="round"/>
<path fill-rule="evenodd" clip-rule="evenodd" d="M70.5055 215.688H78.5718L78.5718 151.838H70.5055L70.5055 215.688Z" fill="#F2F0FF"/>
<path fill-rule="evenodd" clip-rule="evenodd" d="M70.5055 215.688H78.5718L78.5718 151.838H70.5055L70.5055 215.688Z" stroke="#0E0916" stroke-width="0.807" stroke-linecap="round" stroke-linejoin="round"/>
<path fill-rule="evenodd" clip-rule="evenodd" d="M70.5055 146.242H78.5718V127.889H70.5055V146.242Z" fill="#F2F0FF"/>
<path fill-rule="evenodd" clip-rule="evenodd" d="M70.5055 146.242H78.5718V127.889H70.5055V146.242Z" stroke="#0E0916" stroke-width="0.807" stroke-linecap="round" stroke-linejoin="round"/>
<path fill-rule="evenodd" clip-rule="evenodd" d="M100.337 215.19H160.62V128.388H100.337L100.337 215.19Z" fill="#F2F0FF"/>
<path fill-rule="evenodd" clip-rule="evenodd" d="M102.938 164.101H116.514L116.601 164.136C117.056 160.994 119.276 158.824 121.96 157.416C130.325 153.028 145.725 157.925 146.054 157.971L149.051 164.385L146.845 178.027L133.225 190.229L100.802 186.193L102.938 164.101Z" fill="#FFEBDE"/>
<path d="M121.196 166.651C120.237 169.497 123.028 170.5 123.028 170.5" stroke="#340096" stroke-width="0.855" stroke-linecap="round" stroke-linejoin="round"/>
<path d="M116.514 164.101H107.797" stroke="#340096" stroke-width="0.869" stroke-linecap="round" stroke-linejoin="round"/>
<path fill-rule="evenodd" clip-rule="evenodd" d="M140.511 189.56C145.174 191.081 150.715 185.851 151.105 181.561C151.163 180.917 154.243 180.213 155.31 176.74C156.187 173.889 155.716 165.905 153.137 164.926C154.285 165.104 152.704 155.242 147.328 154.505C143.515 153.981 142.197 155.61 141.385 156.918C138.631 161.358 141.542 157.556 145.719 164.78C133.563 159.786 131.536 178.659 132.316 181.432C133.066 184.106 132.526 185.912 130.039 186.587C126.51 187.545 124.844 182.479 124.844 182.479L110.755 182.073C109.647 184.537 100.326 191.823 100.646 195.302C101.081 200.012 110.694 191.412 116.512 191.964C126.379 192.898 138.434 193.841 140.511 189.56Z" fill="#340096"/>
<path d="M146.054 157.971C145.725 157.925 130.324 153.028 121.96 157.416C117.803 159.597 114.76 163.604 117.659 170.216" stroke="#340096" stroke-width="0.869" stroke-linecap="round" stroke-linejoin="round"/>
<mask id="maskConnect12" maskType="alpha" maskUnits="userSpaceOnUse" x="100" y="128" width="12" height="83">
<path d="M100.336 128.388H111.963L111.963 210.231H100.336L100.336 128.388Z" fill="white"/>
</mask>
<g mask="url(#maskConnect12)">
<path fill-rule="evenodd" clip-rule="evenodd" d="M99.6878 129.801C99.6878 129.801 115.606 146.574 111.189 163.992C109.442 164.73 105.581 171.572 110.565 182.358C107.601 201.779 106.829 203.822 102.513 207.904C98.3713 211.823 91.5856 209.607 91.5856 209.607L91.5856 118.983L99.6878 129.801Z" fill="#2250FF"/>
</g>
<mask id="maskConnect13" maskType="alpha" maskUnits="userSpaceOnUse" x="100" y="128" width="12" height="83">
<path d="M100.336 128.388H111.963L111.963 210.231H100.336L100.336 128.388Z" fill="white"/>
</mask>
<g mask="url(#maskConnect13)">
<path fill-rule="evenodd" clip-rule="evenodd" d="M99.6878 129.801C99.6878 129.801 115.606 146.574 111.189 163.992C109.442 164.73 105.581 171.572 110.565 182.358C107.601 201.779 106.829 203.822 102.513 207.904C98.3713 211.823 91.5856 209.607 91.5856 209.607L91.5856 118.983L99.6878 129.801Z" stroke="#340096" stroke-width="0.869" stroke-linecap="round" stroke-linejoin="round"/>
</g>
<path d="M127.329 182.903C127.329 182.903 127.594 184.705 129.191 184.828C130.754 184.948 130.844 182.963 130.844 182.963" stroke="#340096" stroke-width="0.869" stroke-linecap="round" stroke-linejoin="round"/>
<path fill-rule="evenodd" clip-rule="evenodd" d="M132.469 162.914C130.035 162.914 128.064 160.938 128.064 158.502C128.064 156.066 130.035 154.091 132.469 154.091C134.902 154.091 136.872 156.066 136.872 158.502C136.872 160.938 134.902 162.914 132.469 162.914Z" fill="white"/>
<path fill-rule="evenodd" clip-rule="evenodd" d="M132.469 162.914C130.035 162.914 128.064 160.938 128.064 158.502C128.064 156.066 130.035 154.091 132.469 154.091C134.902 154.091 136.872 156.066 136.872 158.502C136.872 160.938 134.902 162.914 132.469 162.914Z" stroke="#340096" stroke-width="0.855" stroke-linecap="round" stroke-linejoin="round"/>
<path fill-rule="evenodd" clip-rule="evenodd" d="M132.216 159.232C132.216 159.232 132.692 158.192 132.237 157.094L132.216 159.232Z" fill="#D4D2DF"/>
<path d="M132.216 159.232C132.216 159.232 132.692 158.192 132.237 157.094" stroke="#340096" stroke-width="0.855" stroke-linecap="round" stroke-linejoin="round"/>
<path fill-rule="evenodd" clip-rule="evenodd" d="M132.469 174.402C130.035 174.402 128.064 172.427 128.064 169.991C128.064 167.555 130.035 165.579 132.469 165.579C134.902 165.579 136.872 167.555 136.872 169.991C136.872 172.427 134.902 174.402 132.469 174.402Z" fill="white"/>
<path fill-rule="evenodd" clip-rule="evenodd" d="M132.469 174.402C130.035 174.402 128.064 172.427 128.064 169.991C128.064 167.555 130.035 165.579 132.469 165.579C134.902 165.579 136.872 167.555 136.872 169.991C136.872 172.427 134.902 174.402 132.469 174.402Z" stroke="#340096" stroke-width="0.855" stroke-linecap="round" stroke-linejoin="round"/>
<path fill-rule="evenodd" clip-rule="evenodd" d="M132.216 170.72C132.216 170.72 132.692 169.681 132.237 168.582L132.216 170.72Z" fill="#D4D2DF"/>
<path d="M132.216 170.72C132.216 170.72 132.692 169.681 132.237 168.582" stroke="#340096" stroke-width="0.855" stroke-linecap="round" stroke-linejoin="round"/>
<path d="M130.427 163.88C130.427 163.88 126.307 162.724 125.527 164.161C125.527 164.161 125.14 164.889 125.43 165.841" stroke="#340096" stroke-width="0.855" stroke-linecap="round" stroke-linejoin="round"/>
<path d="M132.469 165.58V162.914" stroke="#340096" stroke-width="0.855" stroke-linecap="round" stroke-linejoin="round"/>
<path fill-rule="evenodd" clip-rule="evenodd" d="M100.337 215.19H160.62V128.388H100.337L100.337 215.19Z" stroke="#0E0916" stroke-width="0.807" stroke-linecap="round" stroke-linejoin="round"/>
<path fill-rule="evenodd" clip-rule="evenodd" d="M55.1757 176.263C52.7085 176.263 50.7082 174.26 50.7082 171.789C50.7082 169.318 52.7085 167.314 55.1757 167.314C57.6439 167.314 59.6442 169.318 59.6442 171.789C59.6442 174.26 57.6439 176.263 55.1757 176.263Z" fill="#FBFBFC"/>
<path fill-rule="evenodd" clip-rule="evenodd" d="M55.1757 176.263C52.7085 176.263 50.7082 174.26 50.7082 171.789C50.7082 169.318 52.7085 167.314 55.1757 167.314C57.6439 167.314 59.6442 169.318 59.6442 171.789C59.6442 174.26 57.6439 176.263 55.1757 176.263Z" stroke="#0E0916" stroke-width="0.807" stroke-linecap="round" stroke-linejoin="round"/>
<path d="M63.3077 224.394L63.3077 119.183" stroke="#0E0916" stroke-width="0.807" stroke-linecap="round" stroke-linejoin="round"/>
<path d="M182.928 166.677V176.9" stroke="#0E0916" stroke-width="0.807" stroke-linecap="round" stroke-linejoin="round"/>
<path fill-rule="evenodd" clip-rule="evenodd" d="M447.864 283.838H355.017C351.628 283.838 348.881 281.087 348.881 277.693V147.319C348.881 143.925 351.628 141.174 355.017 141.174H447.864C451.253 141.174 454 143.925 454 147.319V277.693C454 281.087 451.253 283.838 447.864 283.838Z" fill="#E6E2FF"/>
<path fill-rule="evenodd" clip-rule="evenodd" d="M447.864 283.838H355.017C351.628 283.838 348.881 281.087 348.881 277.693V147.319C348.881 143.925 351.628 141.174 355.017 141.174H447.864C451.253 141.174 454 143.925 454 147.319V277.693C454 281.087 451.253 283.838 447.864 283.838Z" stroke="#0E0916"/>
<path fill-rule="evenodd" clip-rule="evenodd" d="M357.544 245.225H445.338V237.146H357.544V245.225Z" fill="#FBFBFC"/>
<path fill-rule="evenodd" clip-rule="evenodd" d="M357.544 245.225H445.338V237.146H357.544V245.225Z" stroke="#0E0916" stroke-width="0.807" stroke-linecap="round" stroke-linejoin="round"/>
<path fill-rule="evenodd" clip-rule="evenodd" d="M348.919 164.111H453.963V154.153H348.919V164.111Z" fill="#F2F0FF"/>
<path fill-rule="evenodd" clip-rule="evenodd" d="M348.919 164.111H453.963V154.153H348.919V164.111Z" stroke="#0E0916" stroke-width="0.807" stroke-linecap="round" stroke-linejoin="round"/>
<path fill-rule="evenodd" clip-rule="evenodd" d="M381.521 259.278H445.27V251.199H381.521V259.278Z" fill="#F2F0FF"/>
<path fill-rule="evenodd" clip-rule="evenodd" d="M381.521 259.278H445.27V251.199H381.521V259.278Z" stroke="#0E0916" stroke-width="0.807" stroke-linecap="round" stroke-linejoin="round"/>
<path fill-rule="evenodd" clip-rule="evenodd" d="M357.611 259.278H375.934V251.199H357.611V259.278Z" fill="#F2F0FF"/>
<path fill-rule="evenodd" clip-rule="evenodd" d="M357.611 259.278H375.934V251.199H357.611V259.278Z" stroke="#0E0916" stroke-width="0.807" stroke-linecap="round" stroke-linejoin="round"/>
<path fill-rule="evenodd" clip-rule="evenodd" d="M358.107 229.4H444.773V169.022H358.107V229.4Z" fill="#E6E2FF"/>
<path fill-rule="evenodd" clip-rule="evenodd" d="M393.037 188.763C392.996 189.058 388.947 202.907 392.211 210.312C393.145 212.435 394.558 214.217 396.58 214.826L396.598 214.891V222.786L412.917 225.75L413.467 206.07C413.467 206.07 416.444 206.905 417.434 204.661C418.425 202.416 416.808 201.06 415.558 200.537C415.558 200.537 415.337 191.413 414.311 191.266C413.287 191.119 393.037 188.763 393.037 188.763Z" fill="#FFA578"/>
<path d="M397.634 210.596C399.217 211.727 400.351 210.147 400.351 210.147" stroke="#340096" stroke-width="0.777" stroke-linecap="round" stroke-linejoin="round"/>
<path d="M399.521 206.895C399.521 206.895 395.371 207.873 395.877 204.484C396.161 202.573 396.838 199.597 397.376 197.365" stroke="#340096" stroke-width="0.659" stroke-linecap="round" stroke-linejoin="round"/>
<path d="M404.111 200.252C404.111 200.252 402.4 199.648 401.428 200.176" stroke="#340096" stroke-width="0.659" stroke-linecap="round" stroke-linejoin="round"/>
<path d="M395.153 200.542C395.153 200.542 393.985 199.869 392.749 200.515" stroke="#340096" stroke-width="0.659" stroke-linecap="round" stroke-linejoin="round"/>
<path d="M396.598 214.891V222.785" stroke="#340096" stroke-width="0.777" stroke-linecap="round" stroke-linejoin="round"/>
<path d="M412.917 225.751L413.467 206.07C413.467 206.07 416.444 206.905 417.435 204.662C418.424 202.417 416.809 201.059 415.558 200.537" stroke="#340096" stroke-width="0.777" stroke-linecap="round" stroke-linejoin="round"/>
<path d="M414.344 202.5C414.678 202.176 415.25 202.176 415.628 202.447C416.006 202.718 416.191 203.209 416.159 203.674C416.128 204.138 415.904 204.574 415.601 204.927C415.454 205.098 415.285 205.256 415.081 205.352" stroke="#340096" stroke-width="0.777" stroke-linecap="round" stroke-linejoin="round"/>
<path d="M393.037 188.763C392.996 189.058 388.947 202.907 392.211 210.312C393.832 213.993 396.889 216.647 402.061 213.947" stroke="#340096" stroke-width="0.723" stroke-linecap="round" stroke-linejoin="round"/>
<mask id="maskConnect14" maskType="alpha" maskUnits="userSpaceOnUse" x="358" y="219" width="80" height="11">
<path d="M358.108 219.052H437.691V229.4H358.108V219.052Z" fill="white"/>
</mask>
<g mask="url(#maskConnect14)">
<path fill-rule="evenodd" clip-rule="evenodd" d="M365.95 230.055C365.95 230.055 380.937 215.787 396.501 219.746C397.158 221.313 403.271 224.773 412.909 220.305C430.26 222.962 432.657 223.679 435.733 227.522C438.922 231.508 437.255 237.317 437.255 237.317H356.285L365.95 230.055Z" fill="#FBFBFC"/>
</g>
<mask id="maskConnect15" maskType="alpha" maskUnits="userSpaceOnUse" x="358" y="219" width="80" height="11">
<path d="M358.108 219.052H437.691V229.4H358.108V219.052Z" fill="white"/>
</mask>
<g mask="url(#maskConnect15)">
<path fill-rule="evenodd" clip-rule="evenodd" d="M365.95 230.055C365.95 230.055 380.937 215.787 396.501 219.746C397.158 221.313 403.271 224.773 412.909 220.305C430.26 222.962 432.657 223.679 435.733 227.522C438.922 231.508 437.255 237.317 437.255 237.317H356.285L365.95 230.055Z" stroke="#340096" stroke-width="0.777" stroke-linecap="round" stroke-linejoin="round"/>
</g>
<path fill-rule="evenodd" clip-rule="evenodd" d="M417.126 207.953C417.126 209.391 415.963 210.556 414.527 210.556C413.092 210.556 411.928 209.391 411.928 207.953C411.928 206.515 413.092 205.35 414.527 205.35C415.963 205.35 417.126 206.515 417.126 207.953Z" fill="white"/>
<path fill-rule="evenodd" clip-rule="evenodd" d="M417.126 207.953C417.126 209.391 415.963 210.556 414.527 210.556C413.092 210.556 411.928 209.391 411.928 207.953C411.928 206.515 413.092 205.35 414.527 205.35C415.963 205.35 417.126 206.515 417.126 207.953Z" stroke="#340096" stroke-width="0.777" stroke-linecap="round" stroke-linejoin="round"/>
<path fill-rule="evenodd" clip-rule="evenodd" d="M390.65 193.575C391.072 195.43 393.793 195.64 395.681 195.854C401.053 196.467 406.573 195.735 411.6 193.744C410.989 195.588 410.88 197.696 411.793 199.411C412.706 201.126 414.921 202.107 416.756 201.477C419.042 200.691 419.722 197.957 419.554 195.542C419.228 190.856 416.243 186.709 411.911 184.921C408.948 183.698 405.624 183.536 402.457 184.03C397.889 184.744 389.242 187.383 390.65 193.575Z" fill="#340096"/>
<path fill-rule="evenodd" clip-rule="evenodd" d="M425.836 187.977C429.234 182.917 428.099 176.192 423.298 172.958C418.497 169.723 411.85 171.203 408.452 176.262C405.053 181.323 406.189 188.047 410.989 191.282C415.789 194.517 422.437 193.037 425.836 187.977Z" fill="#340096"/>
<path fill-rule="evenodd" clip-rule="evenodd" d="M358.107 229.4H444.773V169.022H358.107V229.4Z" stroke="#0E0916" stroke-width="0.807" stroke-linecap="round" stroke-linejoin="round"/>
<path fill-rule="evenodd" clip-rule="evenodd" d="M405.908 274.632C405.908 277.104 403.907 279.107 401.44 279.107C398.973 279.107 396.973 277.104 396.973 274.632C396.973 272.161 398.973 270.158 401.44 270.158C403.907 270.158 405.908 272.161 405.908 274.632Z" fill="#FBFBFC"/>
<path fill-rule="evenodd" clip-rule="evenodd" d="M405.908 274.632C405.908 277.104 403.907 279.107 401.44 279.107C398.973 279.107 396.973 277.104 396.973 274.632C396.973 272.161 398.973 270.158 401.44 270.158C403.907 270.158 405.908 272.161 405.908 274.632Z" stroke="#0E0916" stroke-width="0.807" stroke-linecap="round" stroke-linejoin="round"/>
<path d="M453.963 266.488H348.918" stroke="#0E0916" stroke-width="0.807" stroke-linecap="round" stroke-linejoin="round"/>
<path d="M396.337 146.679H406.544" stroke="#0E0916" stroke-width="0.807" stroke-linecap="round" stroke-linejoin="round"/>
<path fill-rule="evenodd" clip-rule="evenodd" d="M260.911 186.116L260.911 147.498C260.911 144.558 263.29 142.175 266.225 142.175L333.729 142.175C336.664 142.175 339.043 144.558 339.043 147.498L339.043 186.116C339.043 189.056 336.664 191.438 333.729 191.438L266.225 191.438C263.29 191.438 260.911 189.056 260.911 186.116Z" fill="#E6E2FF"/>
<path fill-rule="evenodd" clip-rule="evenodd" d="M260.911 186.116L260.911 147.498C260.911 144.558 263.29 142.175 266.225 142.175L333.729 142.175C336.664 142.175 339.043 144.558 339.043 147.498L339.043 186.116C339.043 189.056 336.664 191.438 333.729 191.438L266.225 191.438C263.29 191.438 260.911 189.056 260.911 186.116Z" stroke="#0E0916" stroke-width="0.764" stroke-linecap="round" stroke-linejoin="round"/>
<path d="M339.043 148.715L339.043 151.42C339.043 151.77 338.76 152.055 338.41 152.055L337.234 152.055C335.976 152.055 334.956 153.075 334.956 154.334L334.956 179.278C334.956 180.538 335.976 181.56 337.234 181.56L338.41 181.56C338.76 181.56 339.043 181.843 339.043 182.194L339.043 184.239" stroke="#0E0916" stroke-width="0.764" stroke-linecap="round" stroke-linejoin="round"/>
<path fill-rule="evenodd" clip-rule="evenodd" d="M325.194 142.198L325.194 191.417L330.827 191.417L330.827 142.198L325.194 142.198Z" fill="#F2F0FF"/>
<path fill-rule="evenodd" clip-rule="evenodd" d="M325.194 142.198L325.194 191.417L330.827 191.417L330.827 142.198L325.194 142.198Z" stroke="#0E0916" stroke-width="0.764" stroke-linecap="round" stroke-linejoin="round"/>
<path fill-rule="evenodd" clip-rule="evenodd" d="M275.325 146.956L275.325 186.658L280.778 186.658L280.778 146.956L275.325 146.956Z" fill="#FBFBFC"/>
<path fill-rule="evenodd" clip-rule="evenodd" d="M275.325 146.956L275.325 186.658L280.778 186.658L280.778 146.956L275.325 146.956Z" stroke="#0E0916" stroke-width="0.764" stroke-linecap="round" stroke-linejoin="round"/>
<path fill-rule="evenodd" clip-rule="evenodd" d="M266.318 161.87L266.318 186.481L271.771 186.481L271.771 161.87L266.318 161.87Z" fill="#F2F0FF"/>
<path fill-rule="evenodd" clip-rule="evenodd" d="M266.318 161.87L266.318 186.481L271.771 186.481L271.771 161.87L266.318 161.87Z" stroke="#0E0916" stroke-width="0.764" stroke-linecap="round" stroke-linejoin="round"/>
<path fill-rule="evenodd" clip-rule="evenodd" d="M266.318 147.134L266.318 158.054L271.771 158.054L271.771 147.134L266.318 147.134Z" fill="#F2F0FF"/>
<path fill-rule="evenodd" clip-rule="evenodd" d="M266.318 147.134L266.318 158.054L271.771 158.054L271.771 147.134L266.318 147.134Z" stroke="#0E0916" stroke-width="0.764" stroke-linecap="round" stroke-linejoin="round"/>
<path fill-rule="evenodd" clip-rule="evenodd" d="M284.765 147.133L284.765 186.481L321.835 186.481L321.835 147.133L284.765 147.133Z" fill="#FBFBFC"/>
<path fill-rule="evenodd" clip-rule="evenodd" d="M287.053 162.538L295.521 162.538L295.575 162.56C295.859 160.601 297.244 159.247 298.918 158.369C304.134 155.633 313.741 158.686 313.946 158.715L315.815 162.715L314.44 171.225L305.944 178.835L285.72 176.319L287.053 162.538Z" fill="#FFD8BA"/>
<path d="M298.441 164.129C297.843 165.904 299.584 166.529 299.584 166.529" stroke="#340096" stroke-width="0.533" stroke-linecap="round" stroke-linejoin="round"/>
<path d="M295.521 162.538L290.084 162.538" stroke="#340096" stroke-width="0.542" stroke-linecap="round" stroke-linejoin="round"/>
<path fill-rule="evenodd" clip-rule="evenodd" d="M310.489 178.418C313.398 179.366 316.854 176.103 317.097 173.43C317.134 173.027 319.054 172.588 319.72 170.422C320.267 168.643 319.973 163.664 318.363 163.052C319.081 163.164 318.094 157.013 314.74 156.553C312.363 156.227 311.541 157.243 311.034 158.058C309.316 160.828 311.133 158.456 313.738 162.962C306.155 159.847 304.892 171.619 305.378 173.349C305.845 175.017 305.509 176.143 303.957 176.563C301.756 177.161 300.717 174.002 300.717 174.002L291.929 173.748C291.238 175.285 285.424 179.83 285.624 182C285.895 184.938 291.891 179.574 295.52 179.917C301.674 180.501 309.193 181.088 310.489 178.418Z" fill="#340096"/>
<path d="M313.946 158.715C313.74 158.687 304.135 155.632 298.918 158.369C296.326 159.729 294.428 162.229 296.235 166.353" stroke="#340096" stroke-width="0.542" stroke-linecap="round" stroke-linejoin="round"/>
<mask id="maskConnect16" maskType="alpha" maskUnits="userSpaceOnUse" x="284" y="147" width="9" height="40">
<path d="M292.683 147.133L292.683 186.481L284.765 186.481L284.765 147.133L292.683 147.133Z" fill="white"/>
</mask>
<g mask="url(#maskConnect16)">
<path fill-rule="evenodd" clip-rule="evenodd" d="M285.026 141.144C285.026 141.144 294.954 151.606 292.2 162.471C291.11 162.931 288.702 167.198 291.811 173.926C289.961 186.039 289.48 187.313 286.788 189.86C284.204 192.305 279.972 190.922 279.972 190.922L279.972 134.397L285.026 141.144Z" fill="#2250FF"/>
</g>
<mask id="maskConnect17" maskType="alpha" maskUnits="userSpaceOnUse" x="284" y="147" width="9" height="40">
<path d="M292.683 147.133L292.683 186.481L284.765 186.481L284.765 147.133L292.683 147.133Z" fill="white"/>
</mask>
<g mask="url(#maskConnect17)">
<path fill-rule="evenodd" clip-rule="evenodd" d="M285.026 141.144C285.026 141.144 294.954 151.606 292.2 162.471C291.11 162.931 288.702 167.198 291.811 173.926C289.961 186.039 289.48 187.313 286.788 189.86C284.204 192.305 279.972 190.922 279.972 190.922L279.972 134.397L285.026 141.144Z" stroke="#340096" stroke-width="0.542" stroke-linecap="round" stroke-linejoin="round"/>
</g>
<path d="M302.266 174.266C302.266 174.266 302.432 175.39 303.428 175.467C304.403 175.542 304.459 174.304 304.459 174.304" stroke="#340096" stroke-width="0.542" stroke-linecap="round" stroke-linejoin="round"/>
<path fill-rule="evenodd" clip-rule="evenodd" d="M305.472 161.798C303.955 161.798 302.725 160.566 302.725 159.047C302.725 157.527 303.955 156.295 305.472 156.295C306.99 156.295 308.22 157.527 308.22 159.047C308.22 160.566 306.99 161.798 305.472 161.798Z" fill="white"/>
<path fill-rule="evenodd" clip-rule="evenodd" d="M305.472 161.798C303.955 161.798 302.725 160.566 302.725 159.047C302.725 157.527 303.955 156.295 305.472 156.295C306.99 156.295 308.22 157.527 308.22 159.047C308.22 160.566 306.99 161.798 305.472 161.798Z" stroke="#340096" stroke-width="0.533" stroke-linecap="round" stroke-linejoin="round"/>
<path fill-rule="evenodd" clip-rule="evenodd" d="M305.315 159.501C305.315 159.501 305.611 158.853 305.328 158.168L305.315 159.501Z" fill="#D4D2DF"/>
<path d="M305.315 159.501C305.315 159.501 305.611 158.853 305.328 158.168" stroke="#340096" stroke-width="0.533" stroke-linecap="round" stroke-linejoin="round"/>
<path fill-rule="evenodd" clip-rule="evenodd" d="M305.472 168.963C303.955 168.963 302.725 167.733 302.725 166.212C302.725 164.692 303.955 163.46 305.472 163.46C306.99 163.46 308.22 164.692 308.22 166.212C308.22 167.733 306.99 168.963 305.472 168.963Z" fill="white"/>
<path fill-rule="evenodd" clip-rule="evenodd" d="M305.472 168.963C303.955 168.963 302.725 167.733 302.725 166.212C302.725 164.692 303.955 163.46 305.472 163.46C306.99 163.46 308.22 164.692 308.22 166.212C308.22 167.733 306.99 168.963 305.472 168.963Z" stroke="#340096" stroke-width="0.533" stroke-linecap="round" stroke-linejoin="round"/>
<path fill-rule="evenodd" clip-rule="evenodd" d="M305.315 166.667C305.315 166.667 305.611 166.019 305.328 165.334L305.315 166.667Z" fill="#D4D2DF"/>
<path d="M305.315 166.667C305.315 166.667 305.611 166.019 305.328 165.334" stroke="#340096" stroke-width="0.533" stroke-linecap="round" stroke-linejoin="round"/>
<path d="M304.2 162.401C304.2 162.401 301.629 161.679 301.143 162.576C301.143 162.576 300.902 163.03 301.083 163.624" stroke="#340096" stroke-width="0.533" stroke-linecap="round" stroke-linejoin="round"/>
<path d="M305.473 163.46L305.473 161.798" stroke="#340096" stroke-width="0.533" stroke-linecap="round" stroke-linejoin="round"/>
<path fill-rule="evenodd" clip-rule="evenodd" d="M284.765 147.133L284.765 186.481L321.835 186.481L321.835 147.133L284.765 147.133Z" stroke="#0E0916" stroke-width="0.764" stroke-linecap="round" stroke-linejoin="round"/>
<path d="M337.167 163.908L337.167 169.705" stroke="#0E0916" stroke-width="0.764" stroke-linecap="round" stroke-linejoin="round"/>
</svg>
