<svg viewBox="0 0 575 323" fill="none" xmlns="http://www.w3.org/2000/svg"><path d="M286.056 267.396a513.42 513.42 0 0015.742 53.29M407.269 248.187a839.171 839.171 0 00105.466 73.48M101.934 245.72L9.191 270.873M205.376 48.953C183.835 21.149 179.123 20.94 157.854 1" stroke="#340096" stroke-linecap="round" stroke-linejoin="round"/><path fill-rule="evenodd" clip-rule="evenodd" d="M392.01 199.918l-19.223 10.106c-1.569.825-3.404-.508-3.104-2.256l3.671-21.404a2.14 2.14 0 00-.615-1.894l-15.551-15.159c-1.271-1.238-.57-3.394 1.185-3.649l21.491-3.123a2.139 2.139 0 001.612-1.171l9.611-19.474c.784-1.591 3.053-1.591 3.837 0l9.611 19.474c.312.632.914 1.07 1.612 1.171l21.491 3.123c1.755.255 2.456 2.411 1.185 3.649l-15.55 15.159a2.137 2.137 0 00-.616 1.894l3.671 21.404c.3 1.748-1.535 3.081-3.104 2.256l-19.223-10.106a2.137 2.137 0 00-1.991 0z" fill="#F2F0FF"/><path clip-rule="evenodd" d="M392.01 199.918l-19.223 10.106c-1.569.825-3.404-.508-3.104-2.256l3.671-21.404a2.14 2.14 0 00-.615-1.894l-15.551-15.159c-1.271-1.238-.57-3.394 1.185-3.649l21.491-3.123a2.139 2.139 0 001.612-1.171l9.611-19.474c.784-1.591 3.053-1.591 3.837 0l9.611 19.474c.312.632.914 1.07 1.612 1.171l21.491 3.123c1.755.255 2.456 2.411 1.185 3.649l-15.55 15.159a2.137 2.137 0 00-.616 1.894l3.671 21.404c.3 1.748-1.535 3.081-3.104 2.256l-19.223-10.106a2.137 2.137 0 00-1.991 0z" stroke="#340096" stroke-width="2" stroke-linecap="round" stroke-linejoin="round"/><path fill-rule="evenodd" clip-rule="evenodd" d="M392.01 187.757l-7.219 3.795c-1.569.825-3.404-.508-3.104-2.256l1.379-8.038a2.142 2.142 0 00-.616-1.894l-5.839-5.692c-1.271-1.238-.57-3.394 1.185-3.65l8.07-1.172a2.141 2.141 0 001.612-1.171l3.609-7.313c.784-1.59 3.053-1.59 3.837 0l3.609 7.313a2.141 2.141 0 001.612 1.171l8.07 1.172c1.755.256 2.456 2.412 1.186 3.65l-5.84 5.692a2.138 2.138 0 00-.615 1.894l1.378 8.038c.3 1.748-1.535 3.081-3.104 2.256l-7.219-3.795a2.137 2.137 0 00-1.991 0zM132.24 199.918l-19.223 10.106c-1.569.825-3.404-.508-3.104-2.256l3.671-21.404a2.14 2.14 0 00-.615-1.894l-15.551-15.159c-1.271-1.238-.57-3.394 1.185-3.649l21.491-3.123a2.139 2.139 0 001.612-1.171l9.611-19.474c.784-1.591 3.053-1.591 3.837 0l9.611 19.474c.312.632.914 1.07 1.612 1.171l21.491 3.123c1.755.255 2.456 2.411 1.185 3.649l-15.55 15.159a2.137 2.137 0 00-.616 1.894l3.671 21.404c.3 1.748-1.535 3.081-3.104 2.256l-19.223-10.106a2.137 2.137 0 00-1.991 0z" fill="#F2F0FF"/><path clip-rule="evenodd" d="M132.24 199.918l-19.223 10.106c-1.569.825-3.404-.508-3.104-2.256l3.671-21.404a2.14 2.14 0 00-.615-1.894l-15.551-15.159c-1.271-1.238-.57-3.394 1.185-3.649l21.491-3.123a2.139 2.139 0 001.612-1.171l9.611-19.474c.784-1.591 3.053-1.591 3.837 0l9.611 19.474c.312.632.914 1.07 1.612 1.171l21.491 3.123c1.755.255 2.456 2.411 1.185 3.649l-15.55 15.159a2.137 2.137 0 00-.616 1.894l3.671 21.404c.3 1.748-1.535 3.081-3.104 2.256l-19.223-10.106a2.137 2.137 0 00-1.991 0z" stroke="#340096" stroke-width="2" stroke-linecap="round" stroke-linejoin="round"/><path fill-rule="evenodd" clip-rule="evenodd" d="M132.24 187.757l-7.219 3.795c-1.569.825-3.404-.508-3.104-2.256l1.379-8.038a2.142 2.142 0 00-.616-1.894l-5.839-5.692c-1.271-1.238-.57-3.394 1.185-3.65l8.07-1.172a2.141 2.141 0 001.612-1.171l3.609-7.313c.784-1.59 3.053-1.59 3.837 0l3.609 7.313a2.141 2.141 0 001.612 1.171l8.07 1.172c1.755.256 2.456 2.412 1.186 3.65l-5.84 5.692a2.138 2.138 0 00-.615 1.894l1.378 8.038c.3 1.748-1.535 3.081-3.104 2.256l-7.219-3.795a2.137 2.137 0 00-1.991 0z" fill="#F2F0FF"/><path fill-rule="evenodd" clip-rule="evenodd" d="M245.771 68.009s-17.842 3.865-26.895 5.243c-9.052 1.378 2.104 18.652 23.447 6.525" fill="#FFEBDE"/><path d="M245.771 68.009s-17.842 3.865-26.895 5.243c-9.052 1.378 2.104 18.652 23.447 6.525" stroke="#340096" stroke-width="2" stroke-linecap="round" stroke-linejoin="round"/><path fill-rule="evenodd" clip-rule="evenodd" d="M228.656 81.473c-1.11.265-32.049 21.326-37.509 23.02-5.459 1.692 6.665 14.828 23.128 1.91" fill="#FFEBDE"/><path d="M228.656 81.473c-1.11.265-32.049 21.326-37.509 23.02-5.459 1.692 6.665 14.828 23.128 1.91" stroke="#340096" stroke-width="2" stroke-linecap="round" stroke-linejoin="round"/><path fill-rule="evenodd" clip-rule="evenodd" d="M237.458 89.407s-19.352 37.973-31.61 37.379c-9.268-4.435 1.156-13.176 5.873-22.9 4.716-9.726 12.619-24.12 21-31.591 8.381-7.472 22.483-23.736 37.05-23.301" fill="#FFEBDE"/><path d="M237.458 89.407s-19.352 37.973-31.61 37.379c-9.268-4.435 1.156-13.176 5.873-22.9 4.716-9.726 12.619-24.12 21-31.591 8.381-7.472 22.483-23.736 37.05-23.301" stroke="#340096" stroke-width="2" stroke-linecap="round" stroke-linejoin="round"/><path fill-rule="evenodd" clip-rule="evenodd" d="M356.289 28.578c-19.741-3.531-35.197-4.5-48.691 2.01-22.436 10.825-22.524 10.456-33.99 13.19-11.465 2.736-22.645 13.22-27.837 24.23-5.192 11.011-13.82 15.806-9.501 25.72 4.32 9.916 17.153 34.217 22.877 33.634 5.724-.584 4.238-16.647 1.33-20.644-2.908-3.997-5.432-17.859-5.432-17.859s14.665-17.178 20.512-20.528c5.845-3.35 9.883 7.023 2.717 13.034-7.167 6.009-22.727 29.265-10.518 34.562 12.208 5.297 10.932-13.162 24.474-20.302 13.542-7.138 27.877-12.963 31.502-21.978 2.203-5.475 7.085-3.63 7.085-3.63s3.568 1.073 13.866 5.097" fill="#FFEBDE"/><path d="M356.289 28.578c-19.741-3.531-35.197-4.5-48.691 2.01-22.436 10.825-22.524 10.456-33.99 13.19-11.465 2.736-22.645 13.22-27.837 24.23-5.192 11.011-13.82 15.806-9.501 25.72 4.32 9.916 17.153 34.217 22.877 33.634 5.724-.584 4.238-16.647 1.33-20.644-2.908-3.997-5.432-17.859-5.432-17.859s14.665-17.178 20.512-20.528c5.845-3.35 9.883 7.023 2.717 13.034-7.167 6.009-22.727 29.265-10.518 34.562 12.208 5.297 10.932-13.162 24.474-20.302 13.542-7.138 27.877-12.963 31.502-21.978 2.203-5.475 7.085-3.63 7.085-3.63s3.568 1.073 13.866 5.097" stroke="#340096" stroke-width="2" stroke-linecap="round" stroke-linejoin="round"/><mask id="a" maskUnits="userSpaceOnUse" x="344" y="53" width="140" height="68"><path d="M362.073 54.068c-14.708 4.298-20.726 28.118-16.141 29.436 61.65 17.709 108.202 35.532 109.847 37.108 6.34.331 39.107.698 22.941-28.575-15.81-28.63-77.274-39.014-105.078-39.014-5.215 0-9.246.366-11.569 1.045zm93.706 66.544c-.662-.034-1.037-.069-1.037-.069.878.22 1.212.237 1.037.069z" fill="#fff"/></mask><g mask="url(#a)"><path fill-rule="evenodd" clip-rule="evenodd" d="M329.055 69.958c-.913 4.65-11.609 71.163-6.235 72.06 79.94 13.337 157.476 37.98 146.804 36.579 0 0 44.41-59.768 4.564-88.928-21.199-15.513-111.469-21.943-145.133-19.711z" fill="#F2F0FF"/></g><path fill-rule="evenodd" clip-rule="evenodd" d="M335.887 206.573l-25.791 13.559c-1.57.825-3.404-.508-3.105-2.255l4.925-28.719a2.138 2.138 0 00-.615-1.894l-20.865-20.339c-1.27-1.238-.57-3.394 1.186-3.649l28.835-4.19a2.145 2.145 0 001.612-1.171l12.895-26.129c.784-1.59 3.053-1.59 3.837 0l12.896 26.129a2.14 2.14 0 001.611 1.171l28.835 4.19c1.755.255 2.456 2.411 1.186 3.649l-20.866 20.339a2.141 2.141 0 00-.615 1.894l4.926 28.719c.3 1.747-1.535 3.08-3.105 2.255l-25.791-13.559a2.137 2.137 0 00-1.991 0z" fill="#F2F0FF"/><path clip-rule="evenodd" d="M335.887 206.573l-25.791 13.559c-1.57.825-3.404-.508-3.105-2.255l4.925-28.719a2.138 2.138 0 00-.615-1.894l-20.865-20.339c-1.27-1.238-.57-3.394 1.186-3.649l28.835-4.19a2.145 2.145 0 001.612-1.171l12.895-26.129c.784-1.59 3.053-1.59 3.837 0l12.896 26.129a2.14 2.14 0 001.611 1.171l28.835 4.19c1.755.255 2.456 2.411 1.186 3.649l-20.866 20.339a2.141 2.141 0 00-.615 1.894l4.926 28.719c.3 1.747-1.535 3.08-3.105 2.255l-25.791-13.559a2.137 2.137 0 00-1.991 0z" stroke="#340096" stroke-width="2" stroke-linecap="round" stroke-linejoin="round"/><path fill-rule="evenodd" clip-rule="evenodd" d="M335.887 191.091l-10.51 5.525c-1.569.825-3.404-.508-3.104-2.256l2.007-11.702a2.139 2.139 0 00-.616-1.894l-8.502-8.287c-1.269-1.239-.569-3.395 1.187-3.65l11.749-1.708a2.136 2.136 0 001.611-1.17l5.255-10.647c.784-1.59 3.053-1.59 3.837 0l5.255 10.647a2.136 2.136 0 001.611 1.17l11.749 1.708c1.755.255 2.456 2.411 1.187 3.65l-8.503 8.287a2.141 2.141 0 00-.615 1.894l2.007 11.702c.3 1.748-1.535 3.081-3.105 2.256l-10.509-5.525a2.137 2.137 0 00-1.991 0zM190.234 206.573l-25.791 13.559c-1.569.825-3.404-.508-3.105-2.255l4.926-28.719a2.141 2.141 0 00-.615-1.894l-20.865-20.339c-1.271-1.238-.57-3.394 1.185-3.649l28.835-4.19a2.141 2.141 0 001.612-1.171l12.895-26.129c.785-1.59 3.053-1.59 3.838 0l12.896 26.129a2.14 2.14 0 001.61 1.171l28.836 4.19c1.755.255 2.455 2.411 1.185 3.649l-20.865 20.339a2.138 2.138 0 00-.615 1.894l4.926 28.719c.299 1.747-1.535 3.08-3.106 2.255l-25.791-13.559a2.137 2.137 0 00-1.991 0z" fill="#F2F0FF"/><path clip-rule="evenodd" d="M190.234 206.573l-25.791 13.559c-1.569.825-3.404-.508-3.105-2.255l4.926-28.719a2.141 2.141 0 00-.615-1.894l-20.865-20.339c-1.271-1.238-.57-3.394 1.185-3.649l28.835-4.19a2.141 2.141 0 001.612-1.171l12.895-26.129c.785-1.59 3.053-1.59 3.838 0l12.896 26.129a2.14 2.14 0 001.61 1.171l28.836 4.19c1.755.255 2.455 2.411 1.185 3.649l-20.865 20.339a2.138 2.138 0 00-.615 1.894l4.926 28.719c.299 1.747-1.535 3.08-3.106 2.255l-25.791-13.559a2.137 2.137 0 00-1.991 0z" stroke="#340096" stroke-width="2" stroke-linecap="round" stroke-linejoin="round"/><path fill-rule="evenodd" clip-rule="evenodd" d="M190.234 191.091l-10.509 5.525c-1.57.825-3.404-.508-3.104-2.256l2.007-11.702a2.142 2.142 0 00-.616-1.894l-8.502-8.287c-1.27-1.239-.569-3.395 1.186-3.65l11.749-1.708a2.136 2.136 0 001.611-1.17l5.255-10.647c.785-1.59 3.053-1.59 3.838 0l5.254 10.647a2.136 2.136 0 001.611 1.17l11.75 1.708c1.755.255 2.455 2.411 1.186 3.65l-8.502 8.287a2.136 2.136 0 00-.615 1.894l2.006 11.702c.3 1.748-1.535 3.081-3.104 2.256l-10.51-5.525a2.137 2.137 0 00-1.991 0z" fill="#F2F0FF"/><path fill-rule="evenodd" clip-rule="evenodd" d="M263.236 217.358l-36.437 19.156c-1.57.825-3.404-.508-3.104-2.256l6.958-40.572a2.137 2.137 0 00-.615-1.894l-29.478-28.734c-1.269-1.238-.569-3.395 1.186-3.65l40.737-5.92a2.136 2.136 0 001.611-1.17l18.219-36.914c.784-1.59 3.053-1.59 3.837 0l18.219 36.914a2.136 2.136 0 001.611 1.17l40.737 5.92c1.755.255 2.456 2.412 1.186 3.65l-29.478 28.734a2.14 2.14 0 00-.615 1.894l6.958 40.572c.3 1.748-1.534 3.081-3.104 2.256l-36.437-19.156a2.137 2.137 0 00-1.991 0z" fill="#E6E2FF"/><path clip-rule="evenodd" d="M263.236 217.358l-36.437 19.156c-1.57.825-3.404-.508-3.104-2.256l6.958-40.572a2.137 2.137 0 00-.615-1.894l-29.478-28.734c-1.269-1.238-.569-3.395 1.186-3.65l40.737-5.92a2.136 2.136 0 001.611-1.17l18.219-36.914c.784-1.59 3.053-1.59 3.837 0l18.219 36.914a2.136 2.136 0 001.611 1.17l40.737 5.92c1.755.255 2.456 2.412 1.186 3.65l-29.478 28.734a2.14 2.14 0 00-.615 1.894l6.958 40.572c.3 1.748-1.534 3.081-3.104 2.256l-36.437-19.156a2.137 2.137 0 00-1.991 0z" stroke="#340096" stroke-width="2" stroke-linecap="round" stroke-linejoin="round"/><path fill-rule="evenodd" clip-rule="evenodd" d="M263.236 200.058l-19.36 10.178c-1.571.826-3.405-.507-3.105-2.255l3.697-21.559a2.135 2.135 0 00-.615-1.893l-15.663-15.268c-1.27-1.238-.569-3.395 1.186-3.65l21.645-3.145a2.137 2.137 0 001.611-1.171l9.681-19.614c.784-1.59 3.053-1.59 3.837 0l9.681 19.614c.311.632.914 1.07 1.611 1.171l21.646 3.145c1.754.255 2.456 2.412 1.185 3.65l-15.663 15.268a2.138 2.138 0 00-.615 1.893l3.697 21.559c.3 1.748-1.534 3.081-3.104 2.255l-19.361-10.178a2.137 2.137 0 00-1.991 0z" fill="#2250FF"/><path clip-rule="evenodd" d="M263.236 200.058l-19.36 10.178c-1.571.826-3.405-.507-3.105-2.255l3.697-21.559a2.135 2.135 0 00-.615-1.893l-15.663-15.268c-1.27-1.238-.569-3.395 1.186-3.65l21.645-3.145a2.137 2.137 0 001.611-1.171l9.681-19.614c.784-1.59 3.053-1.59 3.837 0l9.681 19.614c.311.632.914 1.07 1.611 1.171l21.646 3.145c1.754.255 2.456 2.412 1.185 3.65l-15.663 15.268a2.138 2.138 0 00-.615 1.893l3.697 21.559c.3 1.748-1.534 3.081-3.104 2.255l-19.361-10.178a2.137 2.137 0 00-1.991 0z" stroke="#340096" stroke-width="2" stroke-linecap="round" stroke-linejoin="round"/><path fill-rule="evenodd" clip-rule="evenodd" d="M236.27 93.729c4.319 9.915 17.152 34.217 22.877 33.633 5.724-.583 4.237-16.647 1.33-20.644-2.908-3.997-5.433-17.858-5.433-17.858" fill="#FFEBDE"/><path d="M236.27 93.729c4.319 9.915 17.152 34.217 22.877 33.633 5.724-.583 4.237-16.647 1.33-20.644-2.908-3.997-5.433-17.858-5.433-17.858" stroke="#340096" stroke-width="2" stroke-linecap="round" stroke-linejoin="round"/><path fill-rule="evenodd" clip-rule="evenodd" d="M33.223 19.257a1.713 1.713 0 11-3.425-.002 1.713 1.713 0 013.425.002z" fill="#340096"/><path fill-rule="evenodd" clip-rule="evenodd" d="M220.167 286.198a2.748 2.748 0 11-5.497.001 2.748 2.748 0 015.497-.001z" fill="#2250FF"/><path fill-rule="evenodd" clip-rule="evenodd" d="M574.475 155.958a2.748 2.748 0 11-5.497.001 2.748 2.748 0 015.497-.001z" fill="#340096"/><path fill-rule="evenodd" clip-rule="evenodd" d="M69.209 212.808a2.749 2.749 0 11-5.498 0 2.749 2.749 0 015.498 0zM258.402 9.793a2.748 2.748 0 11-5.497.001 2.748 2.748 0 015.497 0z" fill="#2250FF"/><path fill-rule="evenodd" clip-rule="evenodd" d="M2.774 165.757a1.387 1.387 0 11-2.774 0 1.387 1.387 0 012.774 0z" fill="#340096"/><path fill-rule="evenodd" clip-rule="evenodd" d="M493.345 242.72a2.748 2.748 0 11-5.497.001 2.748 2.748 0 015.497-.001z" fill="#2250FF"/><path fill-rule="evenodd" clip-rule="evenodd" d="M545.316 26.55a2.749 2.749 0 11-5.497 0 2.749 2.749 0 015.497 0zM428.168 309.438a2.748 2.748 0 11-5.497.001 2.748 2.748 0 015.497-.001z" fill="#340096"/><path fill-rule="evenodd" clip-rule="evenodd" d="M357.304 273.889a4.478 4.478 0 11-8.956 0 4.478 4.478 0 018.956 0zM77.529 124.07a4.478 4.478 0 11-8.955 0 4.478 4.478 0 018.955 0zM486.321 177.484a4.478 4.478 0 11-8.955 0 4.478 4.478 0 018.955 0zM135.085 36.37a2.75 2.75 0 11-5.499-.001 2.75 2.75 0 015.499.001zM470.47 6.236a2.748 2.748 0 11-5.497.001 2.748 2.748 0 015.497 0z" fill="#2250FF"/><path d="M500.504 54.401c-13.014-9.56-113.374-27.037-142.606-28.506-1.09 3.926-16.55 56.291-11.965 57.608 68.212 19.594 95.49 27.792 108.73 36.344" stroke="#340096" stroke-width="1.5" stroke-linecap="round" stroke-linejoin="round"/><path d="M172.575 261.556a425.817 425.817 0 01-61.734 56.396M133.483 97.154C96.621 83.95 81.164 79.461 43.186 69.922M461.922 208.422a1253.251 1253.251 0 00105.556 22.943" stroke="#2250FF" stroke-linecap="round" stroke-linejoin="round"/></svg>