<svg viewBox="0 0 575 323" fill="none" xmlns="http://www.w3.org/2000/svg">
<path d="M286.056 267.396C290.336 285.426 295.594 303.224 301.798 320.686" stroke="#340096" stroke-linecap="round" stroke-linejoin="round"/>
<path d="M407.269 248.187C440.477 275.329 475.77 299.918 512.735 321.667" stroke="#340096" stroke-linecap="round" stroke-linejoin="round"/>
<path d="M101.934 245.72C71.0192 254.104 40.1052 262.489 9.19116 270.873" stroke="#340096" stroke-linecap="round" stroke-linejoin="round"/>
<path d="M205.376 48.953C183.835 21.149 179.123 20.94 157.854 1" stroke="#340096" stroke-linecap="round" stroke-linejoin="round"/>
<path fill-rule="evenodd" clip-rule="evenodd" d="M392.01 199.918L372.787 210.024C371.218 210.849 369.383 209.516 369.683 207.768L373.354 186.364C373.473 185.669 373.243 184.961 372.739 184.47L357.188 169.311C355.917 168.073 356.618 165.917 358.373 165.662L379.864 162.539C380.562 162.438 381.164 162 381.476 161.368L391.087 141.894C391.871 140.303 394.14 140.303 394.924 141.894L404.535 161.368C404.847 162 405.449 162.438 406.147 162.539L427.638 165.662C429.393 165.917 430.094 168.073 428.823 169.311L413.273 184.47C412.768 184.961 412.538 185.669 412.657 186.364L416.328 207.768C416.628 209.516 414.793 210.849 413.224 210.024L394.001 199.918C393.378 199.59 392.633 199.59 392.01 199.918Z" fill="#F2F0FF"/>
<path fill-rule="evenodd" clip-rule="evenodd" d="M392.01 199.918L372.787 210.024C371.218 210.849 369.383 209.516 369.683 207.768L373.354 186.364C373.473 185.669 373.243 184.961 372.739 184.47L357.188 169.311C355.917 168.073 356.618 165.917 358.373 165.662L379.864 162.539C380.562 162.438 381.164 162 381.476 161.368L391.087 141.894C391.871 140.303 394.14 140.303 394.924 141.894L404.535 161.368C404.847 162 405.449 162.438 406.147 162.539L427.638 165.662C429.393 165.917 430.094 168.073 428.823 169.311L413.273 184.47C412.768 184.961 412.538 185.669 412.657 186.364L416.328 207.768C416.628 209.516 414.793 210.849 413.224 210.024L394.001 199.918C393.378 199.59 392.633 199.59 392.01 199.918Z" stroke="#340096" stroke-width="2" stroke-linecap="round" stroke-linejoin="round"/>
<path fill-rule="evenodd" clip-rule="evenodd" d="M392.01 187.757L384.791 191.552C383.222 192.377 381.387 191.044 381.687 189.296L383.066 181.258C383.185 180.564 382.954 179.856 382.45 179.364L376.611 173.672C375.34 172.434 376.041 170.278 377.796 170.022L385.866 168.85C386.564 168.748 387.166 168.311 387.478 167.679L391.087 160.366C391.871 158.776 394.14 158.776 394.924 160.366L398.533 167.679C398.845 168.311 399.447 168.748 400.145 168.85L408.215 170.022C409.97 170.278 410.671 172.434 409.401 173.672L403.561 179.364C403.057 179.856 402.826 180.564 402.946 181.258L404.324 189.296C404.624 191.044 402.789 192.377 401.22 191.552L394.001 187.757C393.378 187.429 392.633 187.429 392.01 187.757Z" fill="#F2F0FF"/>
<path fill-rule="evenodd" clip-rule="evenodd" d="M132.24 199.918L113.017 210.024C111.448 210.849 109.613 209.516 109.913 207.768L113.584 186.364C113.703 185.669 113.473 184.961 112.969 184.47L97.4178 169.311C96.1468 168.073 96.8478 165.917 98.6028 165.662L120.094 162.539C120.792 162.438 121.394 162 121.706 161.368L131.317 141.894C132.101 140.303 134.37 140.303 135.154 141.894L144.765 161.368C145.077 162 145.679 162.438 146.377 162.539L167.868 165.662C169.623 165.917 170.324 168.073 169.053 169.311L153.503 184.47C152.998 184.961 152.768 185.669 152.887 186.364L156.558 207.768C156.858 209.516 155.023 210.849 153.454 210.024L134.231 199.918C133.608 199.59 132.863 199.59 132.24 199.918Z" fill="#F2F0FF"/>
<path fill-rule="evenodd" clip-rule="evenodd" d="M132.24 199.918L113.017 210.024C111.448 210.849 109.613 209.516 109.913 207.768L113.584 186.364C113.703 185.669 113.473 184.961 112.969 184.47L97.4178 169.311C96.1468 168.073 96.8478 165.917 98.6028 165.662L120.094 162.539C120.792 162.438 121.394 162 121.706 161.368L131.317 141.894C132.101 140.303 134.37 140.303 135.154 141.894L144.765 161.368C145.077 162 145.679 162.438 146.377 162.539L167.868 165.662C169.623 165.917 170.324 168.073 169.053 169.311L153.503 184.47C152.998 184.961 152.768 185.669 152.887 186.364L156.558 207.768C156.858 209.516 155.023 210.849 153.454 210.024L134.231 199.918C133.608 199.59 132.863 199.59 132.24 199.918Z" stroke="#340096" stroke-width="2" stroke-linecap="round" stroke-linejoin="round"/>
<path fill-rule="evenodd" clip-rule="evenodd" d="M132.24 187.757L125.021 191.552C123.452 192.377 121.617 191.044 121.917 189.296L123.296 181.258C123.415 180.564 123.184 179.856 122.68 179.364L116.841 173.672C115.57 172.434 116.271 170.278 118.026 170.022L126.096 168.85C126.794 168.748 127.396 168.311 127.708 167.679L131.317 160.366C132.101 158.776 134.37 158.776 135.154 160.366L138.763 167.679C139.075 168.311 139.677 168.748 140.375 168.85L148.445 170.022C150.2 170.278 150.901 172.434 149.631 173.672L143.791 179.364C143.287 179.856 143.056 180.564 143.176 181.258L144.554 189.296C144.854 191.044 143.019 192.377 141.45 191.552L134.231 187.757C133.608 187.429 132.863 187.429 132.24 187.757Z" fill="#F2F0FF"/>
<path fill-rule="evenodd" clip-rule="evenodd" d="M245.771 68.0086C245.771 68.0086 227.929 71.8736 218.876 73.2516C209.824 74.6296 220.98 91.9036 242.323 79.7766" fill="#FFEBDE"/>
<path d="M245.771 68.0086C245.771 68.0086 227.929 71.8736 218.876 73.2516C209.824 74.6296 220.98 91.9036 242.323 79.7766" stroke="#340096" stroke-width="2" stroke-linecap="round" stroke-linejoin="round"/>
<path fill-rule="evenodd" clip-rule="evenodd" d="M228.656 81.473C227.546 81.738 196.607 102.799 191.147 104.493C185.688 106.185 197.812 119.321 214.275 106.403" fill="#FFEBDE"/>
<path d="M228.656 81.473C227.546 81.738 196.607 102.799 191.147 104.493C185.688 106.185 197.812 119.321 214.275 106.403" stroke="#340096" stroke-width="2" stroke-linecap="round" stroke-linejoin="round"/>
<path fill-rule="evenodd" clip-rule="evenodd" d="M237.458 89.4066C237.458 89.4066 218.106 127.38 205.848 126.786C196.58 122.351 207.004 113.61 211.721 103.886C216.437 94.1596 224.34 79.7666 232.721 72.2946C241.102 64.8226 255.204 48.5586 269.771 48.9936" fill="#FFEBDE"/>
<path d="M237.458 89.4066C237.458 89.4066 218.106 127.38 205.848 126.786C196.58 122.351 207.004 113.61 211.721 103.886C216.437 94.1596 224.34 79.7666 232.721 72.2946C241.102 64.8226 255.204 48.5586 269.771 48.9936" stroke="#340096" stroke-width="2" stroke-linecap="round" stroke-linejoin="round"/>
<path fill-rule="evenodd" clip-rule="evenodd" d="M356.289 28.5785C336.548 25.0465 321.092 24.0785 307.598 30.5885C285.162 41.4125 285.074 41.0435 273.608 43.7785C262.143 46.5135 250.963 56.9975 245.771 68.0085C240.579 79.0195 231.951 83.8145 236.27 93.7285C240.59 103.644 253.423 127.945 259.147 127.362C264.871 126.778 263.385 110.715 260.477 106.718C257.569 102.721 255.045 88.8595 255.045 88.8595C255.045 88.8595 269.71 71.6805 275.557 68.3305C281.402 64.9815 285.44 75.3545 278.274 81.3645C271.107 87.3735 255.547 110.63 267.756 115.927C279.964 121.224 278.688 102.765 292.23 95.6255C305.772 88.4865 320.107 82.6625 323.732 73.6475C325.935 68.1725 330.817 70.0165 330.817 70.0165C330.817 70.0165 334.385 71.0895 344.683 75.1135" fill="#FFEBDE"/>
<path d="M356.289 28.5785C336.548 25.0465 321.092 24.0785 307.598 30.5885C285.162 41.4125 285.074 41.0435 273.608 43.7785C262.143 46.5135 250.963 56.9975 245.771 68.0085C240.579 79.0195 231.951 83.8145 236.27 93.7285C240.59 103.644 253.423 127.945 259.147 127.362C264.871 126.778 263.385 110.715 260.477 106.718C257.569 102.721 255.045 88.8595 255.045 88.8595C255.045 88.8595 269.71 71.6805 275.557 68.3305C281.402 64.9815 285.44 75.3545 278.274 81.3645C271.107 87.3735 255.547 110.63 267.756 115.927C279.964 121.224 278.688 102.765 292.23 95.6255C305.772 88.4865 320.107 82.6625 323.732 73.6475C325.935 68.1725 330.817 70.0165 330.817 70.0165C330.817 70.0165 334.385 71.0895 344.683 75.1135" stroke="#340096" stroke-width="2" stroke-linecap="round" stroke-linejoin="round"/>
<mask id="mask0" mask-type="alpha" maskUnits="userSpaceOnUse" x="344" y="53" width="140" height="68">
<path d="M362.073 54.0676C347.365 58.3656 341.347 82.1856 345.932 83.5036C407.582 101.213 454.134 119.036 455.779 120.612C462.119 120.943 494.886 121.31 478.72 92.0366C462.91 63.4076 401.446 53.0226 373.642 53.0226C368.427 53.0226 364.396 53.3886 362.073 54.0676ZM455.779 120.612C455.117 120.578 454.742 120.543 454.742 120.543C455.62 120.763 455.954 120.78 455.779 120.612Z" fill="white"/>
</mask>
<g mask="url(#mask0)">
<path fill-rule="evenodd" clip-rule="evenodd" d="M329.055 69.9579C328.142 74.6079 317.446 141.121 322.82 142.018C402.76 155.355 480.296 179.998 469.624 178.597C469.624 178.597 514.034 118.829 474.188 89.6689C452.989 74.1559 362.719 67.7259 329.055 69.9579Z" fill="#F2F0FF"/>
</g>
<path fill-rule="evenodd" clip-rule="evenodd" d="M335.887 206.573L310.096 220.132C308.526 220.957 306.692 219.624 306.991 217.877L311.916 189.158C312.035 188.464 311.806 187.756 311.301 187.264L290.436 166.925C289.166 165.687 289.866 163.531 291.622 163.276L320.457 159.086C321.154 158.984 321.756 158.547 322.069 157.915L334.964 131.786C335.748 130.196 338.017 130.196 338.801 131.786L351.697 157.915C352.008 158.547 352.611 158.984 353.308 159.086L382.143 163.276C383.898 163.531 384.599 165.687 383.329 166.925L362.463 187.264C361.959 187.756 361.729 188.464 361.848 189.158L366.774 217.877C367.074 219.624 365.239 220.957 363.669 220.132L337.878 206.573C337.255 206.245 336.51 206.245 335.887 206.573Z" fill="#F2F0FF"/>
<path fill-rule="evenodd" clip-rule="evenodd" d="M335.887 206.573L310.096 220.132C308.526 220.957 306.692 219.624 306.991 217.877L311.916 189.158C312.035 188.464 311.806 187.756 311.301 187.264L290.436 166.925C289.166 165.687 289.866 163.531 291.622 163.276L320.457 159.086C321.154 158.984 321.756 158.547 322.069 157.915L334.964 131.786C335.748 130.196 338.017 130.196 338.801 131.786L351.697 157.915C352.008 158.547 352.611 158.984 353.308 159.086L382.143 163.276C383.898 163.531 384.599 165.687 383.329 166.925L362.463 187.264C361.959 187.756 361.729 188.464 361.848 189.158L366.774 217.877C367.074 219.624 365.239 220.957 363.669 220.132L337.878 206.573C337.255 206.245 336.51 206.245 335.887 206.573Z" stroke="#340096" stroke-width="2" stroke-linecap="round" stroke-linejoin="round"/>
<path fill-rule="evenodd" clip-rule="evenodd" d="M335.887 191.091L325.377 196.616C323.808 197.441 321.973 196.108 322.273 194.36L324.28 182.658C324.399 181.964 324.169 181.256 323.664 180.764L315.162 172.477C313.893 171.238 314.593 169.082 316.349 168.827L328.098 167.119C328.795 167.018 329.398 166.581 329.709 165.949L334.964 155.302C335.748 153.712 338.017 153.712 338.801 155.302L344.056 165.949C344.367 166.581 344.97 167.018 345.667 167.119L357.416 168.827C359.171 169.082 359.872 171.238 358.603 172.477L350.1 180.764C349.596 181.256 349.366 181.964 349.485 182.658L351.492 194.36C351.792 196.108 349.957 197.441 348.387 196.616L337.878 191.091C337.255 190.763 336.51 190.763 335.887 191.091Z" fill="#F2F0FF"/>
<path fill-rule="evenodd" clip-rule="evenodd" d="M190.234 206.573L164.443 220.132C162.874 220.957 161.039 219.624 161.338 217.877L166.264 189.158C166.383 188.464 166.153 187.756 165.649 187.264L144.784 166.925C143.513 165.687 144.214 163.531 145.969 163.276L174.804 159.086C175.502 158.984 176.104 158.547 176.416 157.915L189.311 131.786C190.096 130.196 192.364 130.196 193.149 131.786L206.045 157.915C206.356 158.547 206.959 158.984 207.655 159.086L236.491 163.276C238.246 163.531 238.946 165.687 237.676 166.925L216.811 187.264C216.306 187.756 216.077 188.464 216.196 189.158L221.122 217.877C221.421 219.624 219.587 220.957 218.016 220.132L192.225 206.573C191.602 206.245 190.857 206.245 190.234 206.573Z" fill="#F2F0FF"/>
<path fill-rule="evenodd" clip-rule="evenodd" d="M190.234 206.573L164.443 220.132C162.874 220.957 161.039 219.624 161.338 217.877L166.264 189.158C166.383 188.464 166.153 187.756 165.649 187.264L144.784 166.925C143.513 165.687 144.214 163.531 145.969 163.276L174.804 159.086C175.502 158.984 176.104 158.547 176.416 157.915L189.311 131.786C190.096 130.196 192.364 130.196 193.149 131.786L206.045 157.915C206.356 158.547 206.959 158.984 207.655 159.086L236.491 163.276C238.246 163.531 238.946 165.687 237.676 166.925L216.811 187.264C216.306 187.756 216.077 188.464 216.196 189.158L221.122 217.877C221.421 219.624 219.587 220.957 218.016 220.132L192.225 206.573C191.602 206.245 190.857 206.245 190.234 206.573Z" stroke="#340096" stroke-width="2" stroke-linecap="round" stroke-linejoin="round"/>
<path fill-rule="evenodd" clip-rule="evenodd" d="M190.234 191.091L179.725 196.616C178.155 197.441 176.321 196.108 176.621 194.36L178.628 182.658C178.747 181.964 178.516 181.256 178.012 180.764L169.51 172.477C168.24 171.238 168.941 169.082 170.696 168.827L182.445 167.119C183.142 167.018 183.745 166.581 184.056 165.949L189.311 155.302C190.096 153.712 192.364 153.712 193.149 155.302L198.403 165.949C198.714 166.581 199.317 167.018 200.014 167.119L211.764 168.827C213.519 169.082 214.219 171.238 212.95 172.477L204.448 180.764C203.943 181.256 203.713 181.964 203.833 182.658L205.839 194.36C206.139 196.108 204.304 197.441 202.735 196.616L192.225 191.091C191.602 190.763 190.857 190.763 190.234 191.091Z" fill="#F2F0FF"/>
<path fill-rule="evenodd" clip-rule="evenodd" d="M263.236 217.358L226.799 236.514C225.229 237.339 223.395 236.006 223.695 234.258L230.653 193.686C230.772 192.991 230.543 192.283 230.038 191.792L200.56 163.058C199.291 161.82 199.991 159.663 201.746 159.408L242.483 153.488C243.18 153.387 243.783 152.95 244.094 152.318L262.313 115.404C263.097 113.814 265.366 113.814 266.15 115.404L284.369 152.318C284.68 152.95 285.283 153.387 285.98 153.488L326.717 159.408C328.472 159.663 329.173 161.82 327.903 163.058L298.425 191.792C297.921 192.283 297.691 192.991 297.81 193.686L304.768 234.258C305.068 236.006 303.234 237.339 301.664 236.514L265.227 217.358C264.604 217.03 263.859 217.03 263.236 217.358Z" fill="#E6E2FF"/>
<path fill-rule="evenodd" clip-rule="evenodd" d="M263.236 217.358L226.799 236.514C225.229 237.339 223.395 236.006 223.695 234.258L230.653 193.686C230.772 192.991 230.543 192.283 230.038 191.792L200.56 163.058C199.291 161.82 199.991 159.663 201.746 159.408L242.483 153.488C243.18 153.387 243.783 152.95 244.094 152.318L262.313 115.404C263.097 113.814 265.366 113.814 266.15 115.404L284.369 152.318C284.68 152.95 285.283 153.387 285.98 153.488L326.717 159.408C328.472 159.663 329.173 161.82 327.903 163.058L298.425 191.792C297.921 192.283 297.691 192.991 297.81 193.686L304.768 234.258C305.068 236.006 303.234 237.339 301.664 236.514L265.227 217.358C264.604 217.03 263.859 217.03 263.236 217.358Z" stroke="#340096" stroke-width="2" stroke-linecap="round" stroke-linejoin="round"/>
<path fill-rule="evenodd" clip-rule="evenodd" d="M263.236 200.058L243.876 210.236C242.305 211.062 240.471 209.729 240.771 207.981L244.468 186.422C244.588 185.728 244.357 185.02 243.853 184.529L228.19 169.261C226.92 168.023 227.621 165.866 229.376 165.611L251.021 162.466C251.718 162.365 252.321 161.927 252.632 161.295L262.313 141.681C263.097 140.091 265.366 140.091 266.15 141.681L275.831 161.295C276.142 161.927 276.745 162.365 277.442 162.466L299.088 165.611C300.842 165.866 301.544 168.023 300.273 169.261L284.61 184.529C284.106 185.02 283.876 185.728 283.995 186.422L287.692 207.981C287.992 209.729 286.158 211.062 284.588 210.236L265.227 200.058C264.604 199.73 263.859 199.73 263.236 200.058Z" fill="#2250FF"/>
<path fill-rule="evenodd" clip-rule="evenodd" d="M263.236 200.058L243.876 210.236C242.305 211.062 240.471 209.729 240.771 207.981L244.468 186.422C244.588 185.728 244.357 185.02 243.853 184.529L228.19 169.261C226.92 168.023 227.621 165.866 229.376 165.611L251.021 162.466C251.718 162.365 252.321 161.927 252.632 161.295L262.313 141.681C263.097 140.091 265.366 140.091 266.15 141.681L275.831 161.295C276.142 161.927 276.745 162.365 277.442 162.466L299.088 165.611C300.842 165.866 301.544 168.023 300.273 169.261L284.61 184.529C284.106 185.02 283.876 185.728 283.995 186.422L287.692 207.981C287.992 209.729 286.158 211.062 284.588 210.236L265.227 200.058C264.604 199.73 263.859 199.73 263.236 200.058Z" stroke="#340096" stroke-width="2" stroke-linecap="round" stroke-linejoin="round"/>
<path fill-rule="evenodd" clip-rule="evenodd" d="M236.27 93.729C240.589 103.644 253.422 127.946 259.147 127.362C264.871 126.779 263.384 110.715 260.477 106.718C257.569 102.721 255.044 88.86 255.044 88.86" fill="#FFEBDE"/>
<path d="M236.27 93.729C240.589 103.644 253.422 127.946 259.147 127.362C264.871 126.779 263.384 110.715 260.477 106.718C257.569 102.721 255.044 88.86 255.044 88.86" stroke="#340096" stroke-width="2" stroke-linecap="round" stroke-linejoin="round"/>
<path fill-rule="evenodd" clip-rule="evenodd" d="M33.2232 19.2567C33.2232 20.2017 32.4562 20.9687 31.5112 20.9687C30.5652 20.9687 29.7982 20.2017 29.7982 19.2567C29.7982 18.3107 30.5652 17.5447 31.5112 17.5447C32.4562 17.5447 33.2232 18.3107 33.2232 19.2567Z" fill="#340096"/>
<path fill-rule="evenodd" clip-rule="evenodd" d="M220.167 286.198C220.167 287.716 218.937 288.947 217.419 288.947C215.9 288.947 214.67 287.716 214.67 286.198C214.67 284.68 215.9 283.449 217.419 283.449C218.937 283.449 220.167 284.68 220.167 286.198Z" fill="#2250FF"/>
<path fill-rule="evenodd" clip-rule="evenodd" d="M574.475 155.958C574.475 157.476 573.245 158.707 571.727 158.707C570.209 158.707 568.978 157.476 568.978 155.958C568.978 154.44 570.209 153.209 571.727 153.209C573.245 153.209 574.475 154.44 574.475 155.958Z" fill="#340096"/>
<path fill-rule="evenodd" clip-rule="evenodd" d="M69.2086 212.808C69.2086 214.326 67.9786 215.557 66.4596 215.557C64.9416 215.557 63.7116 214.326 63.7116 212.808C63.7116 211.29 64.9416 210.059 66.4596 210.059C67.9786 210.059 69.2086 211.29 69.2086 212.808Z" fill="#2250FF"/>
<path fill-rule="evenodd" clip-rule="evenodd" d="M258.402 9.79334C258.402 11.3113 257.172 12.5423 255.654 12.5423C254.135 12.5423 252.905 11.3113 252.905 9.79334C252.905 8.27534 254.135 7.04434 255.654 7.04434C257.172 7.04434 258.402 8.27534 258.402 9.79334Z" fill="#2250FF"/>
<path fill-rule="evenodd" clip-rule="evenodd" d="M2.774 165.757C2.774 166.523 2.153 167.144 1.387 167.144C0.621 167.144 0 166.523 0 165.757C0 164.99 0.621 164.369 1.387 164.369C2.153 164.369 2.774 164.99 2.774 165.757Z" fill="#340096"/>
<path fill-rule="evenodd" clip-rule="evenodd" d="M493.345 242.72C493.345 244.238 492.115 245.469 490.597 245.469C489.078 245.469 487.848 244.238 487.848 242.72C487.848 241.202 489.078 239.971 490.597 239.971C492.115 239.971 493.345 241.202 493.345 242.72Z" fill="#2250FF"/>
<path fill-rule="evenodd" clip-rule="evenodd" d="M545.316 26.5501C545.316 28.0681 544.086 29.2991 542.567 29.2991C541.049 29.2991 539.819 28.0681 539.819 26.5501C539.819 25.0321 541.049 23.8011 542.567 23.8011C544.086 23.8011 545.316 25.0321 545.316 26.5501Z" fill="#340096"/>
<path fill-rule="evenodd" clip-rule="evenodd" d="M428.168 309.438C428.168 310.956 426.938 312.187 425.42 312.187C423.901 312.187 422.671 310.956 422.671 309.438C422.671 307.92 423.901 306.689 425.42 306.689C426.938 306.689 428.168 307.92 428.168 309.438Z" fill="#340096"/>
<path fill-rule="evenodd" clip-rule="evenodd" d="M357.304 273.889C357.304 276.362 355.299 278.367 352.826 278.367C350.354 278.367 348.349 276.362 348.349 273.889C348.349 271.416 350.354 269.411 352.826 269.411C355.299 269.411 357.304 271.416 357.304 273.889Z" fill="#2250FF"/>
<path fill-rule="evenodd" clip-rule="evenodd" d="M77.5289 124.07C77.5289 126.543 75.5249 128.548 73.0509 128.548C70.5789 128.548 68.5739 126.543 68.5739 124.07C68.5739 121.597 70.5789 119.592 73.0509 119.592C75.5249 119.592 77.5289 121.597 77.5289 124.07Z" fill="#2250FF"/>
<path fill-rule="evenodd" clip-rule="evenodd" d="M486.321 177.484C486.321 179.957 484.317 181.962 481.843 181.962C479.371 181.962 477.366 179.957 477.366 177.484C477.366 175.011 479.371 173.006 481.843 173.006C484.317 173.006 486.321 175.011 486.321 177.484Z" fill="#2250FF"/>
<path fill-rule="evenodd" clip-rule="evenodd" d="M135.085 36.37C135.085 37.888 133.854 39.119 132.335 39.119C130.817 39.119 129.587 37.888 129.587 36.37C129.587 34.852 130.817 33.621 132.335 33.621C133.854 33.621 135.085 34.852 135.085 36.37Z" fill="#2250FF"/>
<path fill-rule="evenodd" clip-rule="evenodd" d="M470.47 6.23624C470.47 7.75424 469.24 8.98524 467.722 8.98524C466.203 8.98524 464.973 7.75424 464.973 6.23624C464.973 4.71824 466.203 3.48724 467.722 3.48724C469.24 3.48724 470.47 4.71824 470.47 6.23624Z" fill="#2250FF"/>
<path d="M500.504 54.4012C487.49 44.8402 387.13 27.3642 357.898 25.8952C356.808 29.8212 341.348 82.1862 345.933 83.5032C414.145 103.097 441.423 111.295 454.663 119.847" stroke="#340096" stroke-width="1.5" stroke-linecap="round" stroke-linejoin="round"/>
<path d="M172.575 261.556C153.916 282.321 133.201 301.237 110.841 317.952" stroke="#2250FF" stroke-linecap="round" stroke-linejoin="round"/>
<path d="M133.483 97.1542C96.621 83.9492 81.164 79.4611 43.186 69.9221" stroke="#2250FF" stroke-linecap="round" stroke-linejoin="round"/>
<path d="M461.922 208.422C496.756 217.582 531.984 225.239 567.478 231.365" stroke="#2250FF" stroke-linecap="round" stroke-linejoin="round"/>
</svg>
