<svg xmlns="http://www.w3.org/2000/svg" fill="none" viewBox="0 0 1380 520">
  <path stroke="#0E0916" stroke-linecap="round" stroke-linejoin="round" stroke-width="1.78" d="M1251.48 517.732H110.652"/>
  <mask id="gs-hero-a" width="204" height="206" x="944" y="313" maskUnits="userSpaceOnUse" style="mask-type:alpha">
    <path fill="#fff" d="M974.637 343.859c-39.599 39.955-39.599 104.737 0 144.691 39.603 39.957 103.803 39.957 143.403 0 39.6-39.954 39.6-104.736 0-144.691-19.8-19.977-45.75-29.967-71.7-29.967-25.95 0-51.902 9.99-71.703 29.967Z"/>
  </mask>
  <g mask="url(#gs-hero-a)">
    <path fill="#2250FF" fill-rule="evenodd" d="m1178.07 588.314-131.78-171.989 188.94-72.787" clip-rule="evenodd"/>
    <path stroke="#0E0916" stroke-linecap="round" stroke-linejoin="round" stroke-width="1.78" d="m1178.07 588.314-131.78-171.989 188.94-72.787"/>
  </g>
  <mask id="gs-hero-b" width="204" height="206" x="944" y="313" maskUnits="userSpaceOnUse" style="mask-type:alpha">
    <path fill="#fff" d="M974.637 343.859c-39.599 39.955-39.599 104.737 0 144.691 39.603 39.957 103.803 39.957 143.403 0 39.6-39.954 39.6-104.736 0-144.691-19.8-19.977-45.75-29.967-71.7-29.967-25.95 0-51.902 9.99-71.703 29.967Z"/>
  </mask>
  <g mask="url(#gs-hero-b)">
    <path fill="#88D8FA" fill-rule="evenodd" d="m1251.97 343.537-205.67 72.787 24.41-231.753" clip-rule="evenodd"/>
    <path stroke="#0E0916" stroke-linecap="round" stroke-linejoin="round" stroke-width="1.78" d="m1251.97 343.537-205.67 72.787 24.41-231.753"/>
  </g>
  <mask id="gs-hero-c" width="204" height="206" x="944" y="313" maskUnits="userSpaceOnUse" style="mask-type:alpha">
    <path fill="#fff" d="M974.637 343.859c-39.599 39.955-39.599 104.737 0 144.691 39.603 39.957 103.803 39.957 143.403 0 39.6-39.954 39.6-104.736 0-144.691-19.8-19.977-45.75-29.967-71.7-29.967-25.95 0-51.902 9.99-71.703 29.967Z"/>
  </mask>
  <g mask="url(#gs-hero-c)">
    <path fill="#23B3F7" fill-rule="evenodd" d="m1046.29 416.323 147.11-171.262 32.07 125.203-179.18 46.059Z" clip-rule="evenodd"/>
  </g>
  <mask id="gs-hero-d" width="204" height="206" x="944" y="313" maskUnits="userSpaceOnUse" style="mask-type:alpha">
    <path fill="#fff" d="M974.637 343.859c-39.599 39.955-39.599 104.737 0 144.691 39.603 39.957 103.803 39.957 143.403 0 39.6-39.954 39.6-104.736 0-144.691-19.8-19.977-45.75-29.967-71.7-29.967-25.95 0-51.902 9.99-71.703 29.967Z"/>
  </mask>
  <g mask="url(#gs-hero-d)">
    <path stroke="#0E0916" stroke-linecap="round" stroke-linejoin="round" stroke-width="1.78" d="m1046.29 416.323 147.11-171.262 32.07 125.203-179.18 46.059Z" clip-rule="evenodd"/>
  </g>
  <path stroke="#0E0916" stroke-linecap="round" stroke-linejoin="round" stroke-width="1.78" d="M1118.06 343.858c-39.6-39.955-103.8-39.955-143.399 0-39.6 39.956-39.6 104.736 0 144.691 39.599 39.955 103.799 39.955 143.399 0 39.6-39.955 39.6-104.735 0-144.691Z" clip-rule="evenodd"/>
  <path stroke="#0E0916" stroke-width="1.78" d="M810.234 509.709h79.636V465.9h-79.636v43.809Z" clip-rule="evenodd"/>
  <path stroke="#0E0916" stroke-width="1.78" d="M925.428 517.816H774.656v-1.212c0-3.817 3.068-6.915 6.853-6.915h137.068c3.783 0 6.851 3.098 6.851 6.915v1.212ZM1002.35 269.658v177.31c0 10.451-8.394 18.926-18.754 18.926H716.477c-10.361 0-18.758-8.475-18.758-18.926v-177.31c0-10.451 8.397-18.926 18.758-18.926h267.119c10.36 0 18.754 8.475 18.754 18.926Z" clip-rule="evenodd"/>
  <path fill="#CFEFFC" fill-rule="evenodd" d="M989.927 272.097v171.706c0 6.002-4.824 10.868-10.773 10.868H720.525c-5.951 0-10.775-4.866-10.775-10.868V272.097c0-6.005 4.824-10.87 10.775-10.87h258.629c5.949 0 10.773 4.865 10.773 10.87Z" clip-rule="evenodd"/>
  <path stroke="#0E0916" stroke-linecap="round" stroke-linejoin="round" stroke-width="1.78" d="M989.927 272.097v171.706c0 6.002-4.824 10.868-10.773 10.868H720.525c-5.951 0-10.775-4.866-10.775-10.868V272.097c0-6.005 4.824-10.87 10.775-10.87h258.629c5.949 0 10.773 4.865 10.773 10.87Z" clip-rule="evenodd"/>
  <path fill="#88D8FA" fill-rule="evenodd" d="M709.75 301.872h280.177v-18.206H709.75v18.206Z" clip-rule="evenodd"/>
  <path stroke="#0E0916" stroke-width="1.78" d="M709.75 301.872h280.177v-18.206H709.75v18.206Z" clip-rule="evenodd"/>
  <path stroke="#0E0916" stroke-linecap="round" stroke-linejoin="round" stroke-width="1.78" d="M709.742 438.618h280.192"/>
  <path fill="#23B3F7" fill-rule="evenodd" d="M802.25 348.644h167.988v-15.645H802.25v15.645Z" clip-rule="evenodd"/>
  <path stroke="#0E0916" stroke-linecap="round" stroke-linejoin="round" stroke-width="1.78" d="M802.25 348.644h167.988v-15.645H802.25v15.645Z" clip-rule="evenodd"/>
  <path fill="#82ADFC" fill-rule="evenodd" d="M802.25 400.8h132.181v-15.646H802.25V400.8Z" clip-rule="evenodd"/>
  <path stroke="#0E0916" stroke-linecap="round" stroke-linejoin="round" stroke-width="1.78" d="M802.25 400.8h132.181v-15.646H802.25V400.8Z" clip-rule="evenodd"/>
  <path fill="#82ADFC" fill-rule="evenodd" d="M802.25 374.008h82.79v-15.645h-82.79v15.645Z" clip-rule="evenodd"/>
  <path stroke="#0E0916" stroke-linecap="round" stroke-linejoin="round" stroke-width="1.78" d="M802.25 374.008h82.79v-15.645h-82.79v15.645ZM725.535 272.551c0 1.603-1.289 2.903-2.877 2.903-1.589 0-2.877-1.3-2.877-2.903s1.288-2.901 2.877-2.901c1.588 0 2.877 1.298 2.877 2.901ZM738.464 272.551c0 1.603-1.288 2.903-2.876 2.903-1.589 0-2.877-1.3-2.877-2.903s1.288-2.901 2.877-2.901c1.588 0 2.876 1.298 2.876 2.901ZM751.402 272.551c0 1.603-1.288 2.903-2.877 2.903-1.588 0-2.877-1.3-2.877-2.903s1.289-2.901 2.877-2.901c1.589 0 2.877 1.298 2.877 2.901Z" clip-rule="evenodd"/>
  <path fill="#2250FF" fill-rule="evenodd" d="M528.625 324.844a339.452 339.452 0 0 1-7.043-16.277l-46.125-43.675c-13.576-12.855-24.675-33.393-16.97-48.112 2.622-5.004 7.898-8.265 13.494-8.355 8.184.13 14.802 6.887 14.802 15.174a15.2 15.2 0 0 1-3.965 10.263c-2.234 2.455-2.074 6.272.357 8.526a5.946 5.946 0 0 0 8.451-.358c4.589-5.04 7.115-11.583 7.115-18.431 0-14.719-11.63-26.746-26.104-27.227a7.239 7.239 0 0 0-.421-.015h-.474c-.146 0-.292.007-.434.017-9.723.338-18.834 6.059-23.395 14.771-10.691 20.418 2.02 46.126 19.361 62.547l52.332 49.551c.266.301.685.762 1.267 1.208a17.506 17.506 0 0 1 4.471 7.638c.091.393.137.8.137 1.212 0 2.874-2.319 5.213-5.166 5.213a5.06 5.06 0 0 1-3.36-1.253 5.943 5.943 0 0 0-8.433.651c-2.152 2.528-1.862 6.336.645 8.507a17.02 17.02 0 0 0 11.148 4.163c7.32 0 13.566-4.669 16.011-11.203a151.475 151.475 0 0 1-7.692-14.54l-.009.005Z" clip-rule="evenodd"/>
  <path stroke="#0E0916" stroke-linecap="round" stroke-linejoin="round" stroke-width="1.78" d="M528.625 324.844a339.452 339.452 0 0 1-7.043-16.277l-46.125-43.675c-13.576-12.855-24.675-33.393-16.97-48.112 2.622-5.004 7.898-8.265 13.494-8.355 8.184.13 14.802 6.887 14.802 15.174a15.2 15.2 0 0 1-3.965 10.263c-2.234 2.455-2.074 6.272.357 8.526a5.946 5.946 0 0 0 8.451-.358c4.589-5.04 7.115-11.583 7.115-18.431 0-14.719-11.63-26.746-26.104-27.227a7.239 7.239 0 0 0-.421-.015h-.474c-.146 0-.292.007-.434.017-9.723.338-18.834 6.059-23.395 14.771-10.691 20.418 2.02 46.127 19.361 62.547l52.332 49.551c.266.301.685.762 1.267 1.208a17.506 17.506 0 0 1 4.471 7.638c.091.393.137.8.137 1.212 0 2.874-2.319 5.213-5.166 5.213a5.06 5.06 0 0 1-3.36-1.253 5.943 5.943 0 0 0-8.433.651c-2.152 2.528-1.862 6.336.645 8.507a17.02 17.02 0 0 0 11.148 4.163c7.32 0 13.566-4.669 16.011-11.203a151.475 151.475 0 0 1-7.692-14.54l-.009.005Z" clip-rule="evenodd"/>
  <path fill="#2250FF" fill-rule="evenodd" d="M756.982 211.145c-4.56-8.712-13.672-14.433-23.394-14.771a6.246 6.246 0 0 0-.434-.017h-.476c-.139 0-.281.007-.421.015-14.473.481-26.101 12.51-26.101 27.226 0 6.849 2.526 13.394 7.117 18.432a5.94 5.94 0 0 0 8.448.358c2.431-2.254 2.592-6.071.356-8.524a15.214 15.214 0 0 1-3.961-10.266c0-8.286 6.616-15.043 14.799-15.171 5.594.09 10.871 3.349 13.492 8.355 7.708 14.717-3.393 35.255-16.968 48.11l-46.126 43.674a335.516 335.516 0 0 1-7.044 16.278l-.006-.005a150.8 150.8 0 0 1-7.693 14.54c2.444 6.534 8.692 11.203 16.012 11.203 4.09 0 8.048-1.477 11.15-4.163 2.505-2.169 2.793-5.979.643-8.507a5.945 5.945 0 0 0-8.433-.651 5.064 5.064 0 0 1-3.36 1.253c-2.85 0-5.167-2.339-5.167-5.213 0-.412.047-.819.138-1.212a17.495 17.495 0 0 1 4.47-7.638 9.059 9.059 0 0 0 1.268-1.208l52.332-49.551c17.34-16.418 30.051-42.127 19.359-62.547Z" clip-rule="evenodd"/>
  <path stroke="#0E0916" stroke-linecap="round" stroke-linejoin="round" stroke-width="1.78" d="M756.982 211.145c-4.56-8.712-13.672-14.433-23.394-14.771a6.246 6.246 0 0 0-.434-.017h-.476c-.139 0-.281.007-.421.015-14.473.481-26.101 12.51-26.101 27.226 0 6.849 2.526 13.394 7.117 18.432a5.94 5.94 0 0 0 8.448.358c2.431-2.254 2.592-6.071.356-8.524a15.214 15.214 0 0 1-3.961-10.266c0-8.286 6.616-15.043 14.799-15.171 5.594.09 10.871 3.349 13.492 8.355 7.708 14.717-3.393 35.255-16.968 48.11l-46.126 43.674a335.516 335.516 0 0 1-7.044 16.278l-.006-.005a150.8 150.8 0 0 1-7.693 14.54c2.444 6.534 8.692 11.203 16.012 11.203 4.09 0 8.048-1.477 11.15-4.163 2.505-2.169 2.793-5.979.643-8.507a5.945 5.945 0 0 0-8.433-.651 5.064 5.064 0 0 1-3.36 1.253c-2.85 0-5.167-2.339-5.167-5.213 0-.412.047-.819.138-1.212a17.495 17.495 0 0 1 4.47-7.638 9.059 9.059 0 0 0 1.268-1.208l52.332-49.551c17.34-16.418 30.051-42.127 19.359-62.547Z" clip-rule="evenodd"/>
  <path fill="#CDDEFD" fill-rule="evenodd" d="M613.959 405.766a32.578 32.578 0 0 1-11.516 2.09c-4.049 0-7.929-.739-11.513-2.09l.017-.045a22.18 22.18 0 0 0-.606-5.108h-.071v96.141a111.558 111.558 0 0 1 23.839-.062v-93.624a21.933 21.933 0 0 0-.165 2.653l.015.045Z" clip-rule="evenodd"/>
  <path stroke="#0E0916" stroke-linecap="round" stroke-linejoin="round" stroke-width="1.78" d="M613.959 405.766a32.578 32.578 0 0 1-11.516 2.09c-4.049 0-7.929-.739-11.513-2.09l.017-.045a22.18 22.18 0 0 0-.606-5.108h-.071v96.141a111.558 111.558 0 0 1 23.839-.062v-93.624a21.933 21.933 0 0 0-.165 2.653l.015.045Z" clip-rule="evenodd"/>
  <path stroke="#0E0916" stroke-linecap="round" stroke-linejoin="round" stroke-width="1.78" d="M497.039 181.073c0 45.094 8.721 88.13 24.551 127.492a335.467 335.467 0 0 0 7.043 16.277l.006-.004a151.585 151.585 0 0 0 7.693 14.539c11.338 18.903 26.654 35.106 44.792 47.404l.12.062c4.86 3.74 7.894 8.666 9.106 13.771.402 1.697.605 3.411.605 5.108l-.016.045a32.572 32.572 0 0 0 11.513 2.087c4.052 0 7.932-.736 11.516-2.087l-.015-.045c0-.882.057-1.768.165-2.654.73-5.953 3.91-11.89 9.546-16.225l.117-.062c18.138-12.298 33.451-28.501 44.789-47.404a151.153 151.153 0 0 0 7.695-14.539l.006.004a339.466 339.466 0 0 0 7.044-16.277c15.829-39.362 24.548-82.398 24.548-127.492H497.039Z" clip-rule="evenodd"/>
  <path fill="#CDDEFD" fill-rule="evenodd" d="M614.105 496.694a112.12 112.12 0 0 0-11.666-.608c-4.115 0-8.175.23-12.174.67a109.935 109.935 0 0 0-45.464 15.543v5.518h115.276v-5.518a109.927 109.927 0 0 0-45.972-15.605Z" clip-rule="evenodd"/>
  <path stroke="#0E0916" stroke-linecap="round" stroke-linejoin="round" stroke-width="1.78" d="M614.105 496.694a112.12 112.12 0 0 0-11.666-.608c-4.115 0-8.175.23-12.174.67a109.935 109.935 0 0 0-45.464 15.543v5.518h115.276v-5.518a109.927 109.927 0 0 0-45.972-15.605Z" clip-rule="evenodd"/>
  <path stroke="#0E0916" stroke-linecap="round" stroke-linejoin="round" stroke-width="1.78" d="M545.84 215.003h122.504M563.879 251.413h81.671M584.77 286.864h46.532"/>
  <mask id="gs-hero-e" width="100" height="65" x="552" y="117" maskUnits="userSpaceOnUse" style="mask-type:alpha">
    <path fill="#fff" d="M552.984 117.521h98.954v63.591h-98.954v-63.591Z"/>
  </mask>
  <g mask="url(#gs-hero-e)">
    <path fill="#88D8FA" fill-rule="evenodd" d="M651.934 167.442c0 27.57-22.151 49.922-49.476 49.922-27.324 0-49.478-22.352-49.478-49.922 0-27.57 22.154-49.921 49.478-49.921 27.325 0 49.476 22.351 49.476 49.921Z" clip-rule="evenodd"/>
  </g>
  <mask id="gs-hero-f" width="106" height="67" x="550" y="115" maskUnits="userSpaceOnUse" style="mask-type:alpha">
    <path fill="#fff" d="M550.031 115.417h105.222v65.696H550.031v-65.696Z"/>
  </mask>
  <g mask="url(#gs-hero-f)">
    <path stroke="#0E0916" stroke-linecap="round" stroke-linejoin="round" stroke-width="1.78" d="M651.93 167.441c0 27.57-22.151 49.922-49.475 49.922-27.325 0-49.478-22.352-49.478-49.922 0-27.57 22.153-49.92 49.478-49.92 27.324 0 49.475 22.35 49.475 49.92Z" clip-rule="evenodd"/>
  </g>
  <mask id="gs-hero-g" width="33" height="43" x="587" y="139" maskUnits="userSpaceOnUse" style="mask-type:alpha">
    <path fill="#fff" d="M587.375 139.926h32.582v41.185h-32.582v-41.185Z"/>
  </mask>
  <g mask="url(#gs-hero-g)">
    <path fill="#8900FF" fill-rule="evenodd" d="M608.145 194.019v6.753h-7.197v-6.499c-6.064-.956-10.611-4.077-13.577-9.493l5.935-5.479c2.274 4.333 6.315 6.88 10.547 6.88 4.104 0 6.628-2.355 6.628-5.414 0-2.103-1.388-3.887-4.231-5.29l-4.103-2.038c-2.589-1.273-4.485-2.293-5.683-3.123-4.421-2.929-6.63-6.688-6.63-11.276 0-6.816 4.608-11.786 11.492-12.998v-6.116h7.198v6.182c3.98.7 7.452 2.739 10.483 6.116l-4.925 6.116c-2.968-2.995-6.125-4.524-9.347-4.524-3.536 0-5.871 1.913-5.871 4.906 0 2.293 1.641 3.631 4.483 5.352.694.446 2.272 1.274 4.735 2.484 2.526 1.211 4.358 2.165 5.494 2.867 4.23 2.741 6.377 6.308 6.377 10.832 0 7.136-4.735 12.232-11.808 13.762Z" clip-rule="evenodd"/>
  </g>
  <path stroke="#0E0916" stroke-linecap="round" stroke-linejoin="round" stroke-width="1.78" d="M364.035 321.49v-11.589c0-9.94 7.987-17.998 17.84-17.998h134.273c9.853 0 17.84 8.058 17.84 17.998v11.589"/>
  <path stroke="#0E0916" stroke-linecap="round" stroke-linejoin="round" stroke-width="1.78" d="M352.543 321.49v-11.589c0-9.94 7.987-17.998 17.84-17.998h134.273c9.853 0 17.84 8.058 17.84 17.998v11.589"/>
  <path fill="#88D8FA" fill-rule="evenodd" d="M295.219 341.118h294.445V321.49H295.219v19.628Z" clip-rule="evenodd"/>
  <path stroke="#0E0916" stroke-linecap="round" stroke-linejoin="round" stroke-width="1.78" d="M295.219 341.118h294.445V321.49H295.219v19.628Z" clip-rule="evenodd"/>
  <path fill="#23B3F7" fill-rule="evenodd" d="M560.341 400.946h-31.67l1.955-36.181h32.57l-2.855 36.181Zm-3.947 50.061H525.97l1.8-33.357h31.253l-2.629 33.357Zm-3.648 46.272h-29.275l1.665-30.849h30.043l-2.433 30.849Zm-42.57-96.333h-31.67l.527-36.181h32.569l-1.426 36.181Zm-1.976 50.061h-30.424l.486-33.357h31.254l-1.316 33.357Zm-1.826 46.272h-29.273l.451-30.849h30.038l-1.216 30.849Zm-46.366-96.333h-31.67l-.897-36.181h32.569l-.002 36.181Zm-.002 50.061h-30.424l-.827-33.357h31.253l-.002 33.357Zm-.002 46.272h-29.273l-.768-30.849h30.043l-.002 30.849Zm-75.645 0-1.981-30.849h30.041l1.213 30.849h-29.273Zm-5.114-79.629h31.253l1.314 33.357h-30.424l-2.143-33.357Zm-3.396-52.885h32.57l1.423 36.181h-31.67l-2.323-36.181Zm-37.86 132.514-3.197-30.849h30.041l2.429 30.849h-29.273Zm-4.794-46.272-3.458-33.357h31.254l2.627 33.357h-30.423Zm-8.937-86.242h32.569l2.848 36.181h-31.668l-3.749-36.181Zm-28.414-23.706 20.033 159.999c1.2 9.578 9.271 16.757 18.837 16.757h220.338c9.756 0 17.922-7.459 18.894-17.253l15.797-159.503H295.844Z" clip-rule="evenodd"/>
  <path stroke="#0E0916" stroke-linecap="round" stroke-linejoin="round" stroke-width="1.78" d="M560.341 400.946h-31.67l1.955-36.181h32.57l-2.855 36.181Zm-3.947 50.061H525.97l1.8-33.357h31.253l-2.629 33.357Zm-3.648 46.272h-29.275l1.665-30.849h30.043l-2.433 30.849Zm-42.57-96.333h-31.67l.527-36.181h32.569l-1.426 36.181Zm-1.976 50.061h-30.424l.486-33.357h31.254l-1.316 33.357Zm-1.826 46.272h-29.273l.451-30.849h30.038l-1.216 30.849Zm-46.366-96.333h-31.67l-.897-36.181h32.569l-.002 36.181Zm-.002 50.061h-30.424l-.827-33.357h31.253l-.002 33.357Zm-.002 46.272h-29.273l-.768-30.849h30.043l-.002 30.849Zm-75.645 0-1.981-30.849h30.041l1.213 30.849h-29.273Zm-5.114-79.629h31.253l1.314 33.357h-30.424l-2.143-33.357Zm-3.396-52.885h32.57l1.423 36.181h-31.67l-2.323-36.181Zm-37.86 132.514-3.197-30.849h30.041l2.429 30.849h-29.273Zm-4.794-46.272-3.458-33.357h31.254l2.627 33.357h-30.423Zm-8.937-86.242h32.569l2.848 36.181h-31.668l-3.749-36.181Zm-28.414-23.706 20.033 159.999c1.2 9.578 9.271 16.757 18.837 16.757h220.338c9.756 0 17.922-7.459 18.894-17.253l15.797-159.503H295.844Z" clip-rule="evenodd"/>
  <path fill="#88D8FA" fill-rule="evenodd" d="m225.372 83.075-86.588-35.86-24.233 59.566 19.297 14.23-14.624 20.19 70.608 29.241 35.54-87.367Z" clip-rule="evenodd"/>
  <path stroke="#2250FF" stroke-linecap="round" stroke-linejoin="round" stroke-width="1.78" d="m225.372 83.075-86.588-35.86-24.233 59.566 19.297 14.23-14.624 20.19 70.608 29.241 35.54-87.367Z" clip-rule="evenodd"/>
  <path fill="#FBFBFC" fill-rule="evenodd" d="M114.547 106.781 58.275 65.287 3.047 141.53l75.567 55.727 40.604-56.058-15.98-6.62 11.309-27.798Z" clip-rule="evenodd"/>
  <path stroke="#2250FF" stroke-linecap="round" stroke-linejoin="round" stroke-width="1.78" d="M114.547 106.781 58.275 65.287 3.047 141.53l75.567 55.727 40.604-56.058-15.98-6.62 11.309-27.798Z" clip-rule="evenodd"/>
  <path fill="#8900FF" fill-rule="evenodd" d="m114.547 106.783-11.309 27.798 15.98 6.62 14.626-20.188-19.297-14.23Z" clip-rule="evenodd"/>
  <path stroke="#0E0916" stroke-linecap="round" stroke-linejoin="round" stroke-width="1.78" d="m114.547 106.783-11.309 27.798 15.98 6.62 14.626-20.188-19.297-14.23Z" clip-rule="evenodd"/>
  <path stroke="#2250FF" stroke-linecap="round" stroke-linejoin="round" stroke-width="1.78" d="m22.451 26.78 91.107 21.645-21.451 91.925L1 118.708l21.451-91.927Z" clip-rule="evenodd"/>
  <path fill="#E6E2FF" fill-rule="evenodd" d="M1340.35 184.056c7.73-17.419 0-37.859-17.27-45.657-17.26-7.796-37.52.002-45.24 17.419-1.16 2.598-1.93 5.264-2.41 7.943 1.86.474 3.72 1.083 5.53 1.902 14.55 6.571 22.11 22.396 18.93 37.518 16.07 4.545 33.44-3.296 40.46-19.125Z" clip-rule="evenodd"/>
  <path stroke="#8900FF" stroke-linecap="round" stroke-linejoin="round" stroke-width="1.78" d="M1340.35 184.056c7.73-17.419 0-37.859-17.27-45.657-17.26-7.796-37.52.002-45.24 17.419-1.16 2.598-1.93 5.264-2.41 7.943 1.86.474 3.72 1.083 5.53 1.902 14.55 6.571 22.11 22.396 18.93 37.518 16.07 4.545 33.44-3.296 40.46-19.125Z" clip-rule="evenodd"/>
  <path fill="#23B3F7" fill-rule="evenodd" d="M1275.43 163.763c-15.34-3.881-31.69 3.733-38.37 18.804-7.5 16.901 0 36.737 16.75 44.302 16.75 7.563 36.41-.002 43.91-16.902a34.873 34.873 0 0 0 2.18-6.785c-1.62-.456-3.22-.994-4.8-1.705-14.69-6.635-22.43-22.423-19.67-37.714Z" clip-rule="evenodd"/>
  <path stroke="#8900FF" stroke-linecap="round" stroke-linejoin="round" stroke-width="1.78" d="M1275.43 163.763c-15.34-3.881-31.69 3.733-38.37 18.804-7.5 16.901 0 36.737 16.75 44.302 16.75 7.563 36.41-.002 43.91-16.902a34.873 34.873 0 0 0 2.18-6.785c-1.62-.456-3.22-.994-4.8-1.705-14.69-6.635-22.43-22.423-19.67-37.714Z" clip-rule="evenodd"/>
  <path fill="#8900FF" fill-rule="evenodd" d="M1280.95 165.663c-1.82-.82-3.67-1.428-5.54-1.902-2.76 15.291 4.98 31.079 19.67 37.714 1.58.711 3.18 1.249 4.8 1.705 3.17-15.122-4.39-30.947-18.93-37.517Z" clip-rule="evenodd"/>
  <path stroke="#0E0916" stroke-linecap="round" stroke-linejoin="round" stroke-width="1.78" d="M1280.95 165.663c-1.82-.82-3.67-1.428-5.54-1.902-2.76 15.291 4.98 31.079 19.67 37.714 1.58.711 3.18 1.249 4.8 1.705 3.17-15.122-4.39-30.947-18.93-37.517Z" clip-rule="evenodd"/>
  <path fill="#F6F7F9" fill-rule="evenodd" d="m1328.4 177.617 3.29 65.561 16.47-24.754 30.84-4.137-50.6-36.67Z" clip-rule="evenodd"/>
  <path stroke="#8900FF" stroke-linecap="round" stroke-linejoin="round" stroke-width="1.78" d="m1328.4 177.617 3.29 65.561 16.47-24.754 30.84-4.137-50.6-36.67Z" clip-rule="evenodd"/>
  <path fill="#8900FF" fill-rule="evenodd" d="M917.328 97.4h48.469V47.096h-48.469v50.302Z" clip-rule="evenodd"/>
  <path stroke="#0E0916" stroke-linecap="round" stroke-linejoin="round" stroke-width="1.78" d="M917.328 97.4h48.469V47.096h-48.469v50.302Z" clip-rule="evenodd"/>
  <path fill="#CFEFFC" fill-rule="evenodd" d="M941.547 72.247h95.483V1.517h-95.483v70.73Z" clip-rule="evenodd"/>
  <path stroke="#8900FF" stroke-linecap="round" stroke-linejoin="round" stroke-width="1.78" d="M941.547 72.247h95.483V1.517h-95.483v70.73Z" clip-rule="evenodd"/>
  <path stroke="#0E0916" stroke-linecap="round" stroke-linejoin="round" stroke-width="1.78" d="M1018.34 17.377 973.969 56.25M988.562 16.973l29.598.069v29.444"/>
</svg>
