<svg viewBox="0 0 138 44" fill="none" xmlns="http://www.w3.org/2000/svg">
  <path d="M1.77 26.078l16.353-16.45 16.365 16.45c3.223-6.776 2.042-15.127-3.541-20.74-7.082-7.118-18.555-7.118-25.637 0-5.583 5.613-6.764 13.964-3.54 20.74z" fill="#0E0E1B"/>
  <path d="M18.123 9.628L1.77 26.078a18.228 18.228 0 003.54 5.03l3.2 3.23 9.613-9.663 9.612 9.662 3.2-3.217a18.061 18.061 0 003.541-5.03L18.123 9.627z" fill="#53536A"/>
  <path d="M18.12 24.667l-9.614 9.664 9.613 9.664 9.614-9.664-9.614-9.664z" fill="#90909F"/>
  <path d="M64.334 14.488v14.739c0 1.46-.181 2.783-.533 3.958-.363 1.175-.908 2.18-1.657 3-.75.822-1.691 1.46-2.837 1.906-1.135.444-2.497.673-4.063.673a15.66 15.66 0 01-4.256-.57c-1.339-.389-2.587-1.084-3.722-2.088l2.417-3.309c.806.742 1.646 1.312 2.52 1.723.873.4 1.883.605 3.018.605.965 0 1.77-.137 2.429-.4.658-.273 1.18-.639 1.577-1.118.386-.467.67-1.038.84-1.7.17-.661.25-1.403.25-2.212V28.52h-.068c-.58.787-1.35 1.38-2.316 1.768a7.831 7.831 0 01-2.95.593c-1.203 0-2.304-.217-3.291-.662a7.732 7.732 0 01-2.531-1.768 7.611 7.611 0 01-1.623-2.635c-.386-1.015-.567-2.088-.567-3.24 0-1.186.181-2.304.533-3.343a7.59 7.59 0 011.578-2.692 7.47 7.47 0 012.496-1.802c.976-.434 2.088-.662 3.337-.662a7.65 7.65 0 013.189.673c.987.445 1.77 1.164 2.349 2.156h.068v-2.418h3.813zm-8.59 3.24c-.716 0-1.363.114-1.941.353a4.503 4.503 0 00-1.498.981c-.409.411-.738.924-.976 1.518-.239.593-.352 1.255-.352 1.973 0 .65.113 1.255.352 1.825.238.56.567 1.061.987 1.483.42.422.93.765 1.51 1.016a4.67 4.67 0 001.883.376c.738 0 1.407-.125 1.997-.376.59-.251 1.101-.582 1.51-.993.408-.41.738-.912.953-1.506a5.15 5.15 0 00.34-1.893c0-1.415-.42-2.567-1.27-3.434-.851-.89-2.02-1.323-3.496-1.323zM67.387 22.576c0-1.278.227-2.441.692-3.49a8.042 8.042 0 011.861-2.682c.783-.741 1.714-1.312 2.78-1.722a9.744 9.744 0 013.417-.605c1.203 0 2.349.206 3.427.605a8.045 8.045 0 014.642 4.403c.453 1.05.692 2.213.692 3.491s-.227 2.441-.692 3.49a8.044 8.044 0 01-1.862 2.682c-.783.741-1.713 1.311-2.78 1.722a9.761 9.761 0 01-3.427.605 9.698 9.698 0 01-3.416-.605 8.04 8.04 0 01-4.642-4.403c-.465-1.038-.692-2.202-.692-3.491zm4.028 0c0 .627.103 1.232.318 1.825.216.582.522 1.107.942 1.552.409.445.908.81 1.498 1.083.59.274 1.237.4 1.975.4s1.396-.137 1.975-.4a4.773 4.773 0 001.498-1.083c.408-.445.726-.97.942-1.552a5.189 5.189 0 00.317-1.825 5.28 5.28 0 00-.317-1.825 4.515 4.515 0 00-.942-1.552 4.695 4.695 0 00-1.498-1.084c-.58-.273-1.237-.399-1.975-.399s-1.396.137-1.975.4a4.772 4.772 0 00-1.498 1.083c-.408.445-.726.97-.942 1.552a5.28 5.28 0 00-.318 1.825zM96.542 18.971c-.783-1.106-1.838-1.654-3.155-1.654-.533 0-1.067.137-1.577.4-.511.273-.772.707-.772 1.312 0 .49.216.855.635 1.083.42.228.965.41 1.612.57.647.16 1.35.32 2.1.491.748.171 1.452.422 2.099.776.647.353 1.18.821 1.612 1.437.42.605.635 1.438.635 2.499 0 .97-.204 1.78-.624 2.44a4.805 4.805 0 01-1.612 1.598c-.658.4-1.407.696-2.235.878-.829.183-1.657.274-2.486.274-1.248 0-2.406-.182-3.45-.536-1.055-.365-1.986-1.015-2.814-1.95l2.678-2.533a7.775 7.775 0 001.657 1.437c.59.365 1.316.56 2.168.56.295 0 .59-.035.907-.104.318-.068.602-.182.874-.342.273-.16.488-.354.659-.593.17-.24.25-.513.25-.821 0-.56-.216-.982-.636-1.244-.42-.274-.965-.49-1.612-.662-.647-.17-1.35-.33-2.1-.467a7.996 7.996 0 01-2.099-.707 4.454 4.454 0 01-1.611-1.37c-.42-.581-.636-1.391-.636-2.43 0-.9.182-1.676.556-2.338.375-.662.851-1.21 1.464-1.631a6.417 6.417 0 012.077-.947 9.355 9.355 0 015.572.25c1.056.366 1.895 1.005 2.554 1.906l-2.69 2.418zM101.637 8.99c0-.65.238-1.221.726-1.7.477-.48 1.09-.73 1.827-.73.738 0 1.362.228 1.861.695.5.457.761 1.039.761 1.734 0 .696-.25 1.278-.761 1.734-.499.457-1.123.696-1.861.696-.737 0-1.35-.24-1.827-.73-.488-.479-.726-1.05-.726-1.7zm.567 5.498h4.029v16.188h-4.029V14.488zM108.277 17.922v-3.434h3.326V9.8h4.028v4.688h4.426v3.434h-4.426v7.084c0 .81.148 1.45.454 1.917.307.468.897.707 1.793.707.363 0 .749-.034 1.169-.114.42-.08.761-.205 1.01-.388v3.411c-.42.206-.942.342-1.554.422-.613.08-1.158.114-1.623.114-1.078 0-1.952-.114-2.633-.353-.681-.24-1.215-.593-1.612-1.084-.386-.48-.658-1.084-.806-1.802-.147-.72-.215-1.552-.215-2.499v-7.415h-3.337zM125.72 23.99c.136 1.21.601 2.157 1.407 2.83s1.782 1.015 2.917 1.015c1.01 0 1.85-.205 2.53-.627a6.912 6.912 0 001.794-1.563l2.882 2.19c-.942 1.164-1.986 1.996-3.155 2.498a9.3 9.3 0 01-3.654.742 9.805 9.805 0 01-3.427-.605 8.24 8.24 0 01-2.781-1.722 8.043 8.043 0 01-1.861-2.681c-.454-1.05-.692-2.213-.692-3.491s.227-2.441.692-3.49a8.045 8.045 0 011.861-2.682c.783-.741 1.714-1.312 2.781-1.722a9.76 9.76 0 013.427-.605c1.112 0 2.145.194 3.064.593a6.48 6.48 0 012.383 1.7c.658.742 1.169 1.654 1.544 2.75.374 1.095.556 2.338.556 3.764v1.118H125.72v-.011zm8.25-3.034c-.022-1.186-.397-2.133-1.112-2.818-.715-.684-1.713-1.026-2.985-1.026-1.203 0-2.167.353-2.871 1.05-.703.695-1.135 1.63-1.294 2.794h8.262z" fill="#0E0E1B"/>
</svg>
