<svg  viewBox="0 0 1496 598" width="1496" xmlns="http://www.w3.org/2000/svg"><g style="fill-rule:evenodd;clip-rule:evenodd;stroke:#bc99ff;stroke-width:1.75;stroke-linecap:round;stroke-linejoin:round"><path d="m108.99 282c24.606-32.345 20.379-77.064-9.4413-99.885-29.8202-22.82-73.9425-15.099-98.5487 17.245l23.3813 17.893c13.9508-18.338 38.9673-22.717 55.8742-9.778 16.9083 12.939 19.305 38.293 5.3527 56.634z"/><path d="m958.85 69.9999c-16.673 21.852-13.809 52.0641 6.397 67.4821 20.206 15.417 50.103 10.201 66.773-11.651l-15.84-12.088c-9.45 12.389-26.404 15.347-37.86 6.606-11.457-8.742-13.081-25.8711-3.627-38.2621z"/><path d="m251.539 479.24 30.804 7.569 3.306 18.463 22.707 1.969 12.202 27.023 43.214-48.218-30.958-7.1-3.614-18.392-22.761-1.628-12.659-26.809z"/><path d="m1254.23 110.024-30.8-7.569-3.31-18.463-22.7-1.969-12.2-27.023-43.22 48.218 30.96 7.1 3.61 18.392 22.76 1.628 12.66 26.809z"/><path d="m466.414 520.316-2.414 24.813 20.282 14.498 22.696-10.316 2.415-24.814-20.283-14.497z"/><path d="m384.414 118.316-2.414 24.813 20.282 14.498 22.696-10.316 2.415-24.814-20.283-14.497z"/><path d="m1430.98 416.762 2.41-24.813-20.28-14.498-22.7 10.316-2.41 24.814 20.28 14.497z"/><path d="m464.031 438-31.031 33.23 13.263 43.49 44.295 10.258 31.031-33.231-13.264-43.489z"/><path d="m1457.56 87.978 31.03-33.23-13.26-43.49-44.3-10.25798-31.03 33.23098 13.26 43.489z"/><path d="m218.356 461.641c3.86 14.76-4.975 29.854-19.735 33.715-14.76 3.86-29.854-4.975-33.715-19.735-3.86-14.76 4.975-29.855 19.735-33.715 14.76-3.861 29.855 4.975 33.715 19.735z"/><path d="m130.356 75.6409c3.86 14.76-4.975 29.8541-19.735 33.7151-14.7604 3.86-29.8544-4.975-33.7154-19.7351-3.86-14.76 4.975-29.855 19.735-33.715 14.7604-3.861 29.8554 4.975 33.7154 19.735z"/><path d="m1283.95 131.623c-3.86-14.76 4.97-29.854 19.73-33.7153 14.76-3.86 29.85 4.9753 33.72 19.7353 3.86 14.76-4.98 29.855-19.74 33.715-14.76 3.861-29.85-4.975-33.71-19.735z"/><path d="m1265.41 31.6622c-1.75-6.6774 2.25-13.5058 8.93-15.2525 6.68-1.7462 13.5 2.2507 15.25 8.928s-2.25 13.5062-8.93 15.2525c-6.68 1.7466-13.5-2.2507-15.25-8.928z"/><path d="m208.41 587.662c-1.747-6.677 2.25-13.506 8.928-15.252 6.677-1.747 13.506 2.25 15.252 8.928 1.747 6.677-2.25 13.506-8.928 15.252-6.677 1.747-13.506-2.251-15.252-8.928z"/><path d="m65.3556 365.641c3.86 14.76-4.975 29.854-19.735 33.715-14.76 3.86-29.854-4.975-33.715-19.735-3.85999-14.76 4.975-29.855 19.735-33.715 14.76-3.861 29.855 4.975 33.715 19.735z"/><path d="m1440.42 223.623c-3.86-14.76 4.97-29.854 19.73-33.715 14.76-3.86 29.86 4.975 33.72 19.735s-4.98 29.855-19.74 33.715c-14.76 3.861-29.85-4.975-33.71-19.735z"/><path d="m204.792 88.6774c13.788-10.89 38.868-2.117 56.019 19.5956 17.15 21.713 19.877 48.143 6.089 59.033-13.787 10.891-38.868 2.117-56.018-19.595-17.151-21.713-19.877-48.1426-6.09-59.0336z"/><path d="m1245.9 491.307c-13.79 10.89-38.87 2.117-56.02-19.596s-19.88-48.143-6.09-59.033c13.79-10.891 38.87-2.117 56.02 19.595 17.15 21.713 19.88 48.143 6.09 59.034z"/></g></svg>