<svg viewBox="0 0 2494 598" fill="none" xmlns="http://www.w3.org/2000/svg">
<path fill-rule="evenodd" clip-rule="evenodd" d="M647.985 282C672.591 249.655 668.364 204.936 638.544 182.115C608.724 159.295 564.602 167.016 539.996 199.36L563.377 217.253C577.328 198.915 602.344 194.536 619.251 207.475C636.159 220.414 638.556 245.768 624.604 264.109L647.985 282Z" stroke="#BC99FF" stroke-width="1.75" stroke-linecap="round" stroke-linejoin="round"/>
<path fill-rule="evenodd" clip-rule="evenodd" d="M1497.83 69.9999C1481.16 91.8519 1484.02 122.064 1504.23 137.482C1524.43 152.899 1554.33 147.683 1571 125.831L1555.16 113.743C1545.71 126.132 1528.76 129.09 1517.3 120.349C1505.84 111.607 1504.22 94.4779 1513.67 82.0869L1497.83 69.9999Z" stroke="#BC99FF" stroke-width="1.75" stroke-linecap="round" stroke-linejoin="round"/>
<path fill-rule="evenodd" clip-rule="evenodd" d="M2419.83 336C2403.15 357.852 2406.02 388.064 2426.22 403.482C2446.43 418.899 2476.33 413.683 2493 391.831L2477.16 379.743C2467.7 392.132 2450.75 395.09 2439.3 386.349C2427.84 377.607 2426.22 360.478 2435.67 348.087L2419.83 336Z" stroke="#BC99FF" stroke-width="1.75" stroke-linecap="round" stroke-linejoin="round"/>
<path fill-rule="evenodd" clip-rule="evenodd" d="M11.8504 269C-4.82255 290.852 -1.95855 321.064 18.2474 336.482C38.4534 351.899 68.3504 346.683 85.0234 324.831L69.1804 312.743C59.7274 325.132 42.7764 328.09 31.3204 319.349C19.8634 310.607 18.2394 293.478 27.6934 281.087L11.8504 269Z" stroke="#BC99FF" stroke-width="1.75" stroke-linecap="round" stroke-linejoin="round"/>
<path fill-rule="evenodd" clip-rule="evenodd" d="M790.531 479.24L821.335 486.809L824.641 505.272L847.348 507.241L859.55 534.264L902.764 486.046L871.806 478.946L868.192 460.554L845.431 458.926L832.772 432.117L790.531 479.24Z" stroke="#BC99FF" stroke-width="1.75" stroke-linecap="round" stroke-linejoin="round"/>
<path fill-rule="evenodd" clip-rule="evenodd" d="M362.762 63.7431L346.279 90.8443L327.676 88.4443L318.969 109.508L289.527 113.017L322.516 168.733L338.598 141.343L357.225 143.428L365.624 122.211L394.999 118.201L362.762 63.7431Z" stroke="#BC99FF" stroke-width="1.75" stroke-linecap="round" stroke-linejoin="round"/>
<path fill-rule="evenodd" clip-rule="evenodd" d="M1793.22 110.024L1762.41 102.455L1759.11 83.992L1736.4 82.023L1724.2 55L1680.99 103.218L1711.94 110.318L1715.56 128.71L1738.32 130.338L1750.98 157.147L1793.22 110.024Z" stroke="#BC99FF" stroke-width="1.75" stroke-linecap="round" stroke-linejoin="round"/>
<path fill-rule="evenodd" clip-rule="evenodd" d="M2298.38 512.096L2310.16 482.643L2328.9 481.936L2334.01 459.723L2362.47 451.395L2320.72 401.899L2309.39 431.569L2290.67 432.592L2285.9 454.906L2257.59 463.715L2298.38 512.096Z" stroke="#BC99FF" stroke-width="1.75" stroke-linecap="round" stroke-linejoin="round"/>
<path fill-rule="evenodd" clip-rule="evenodd" d="M1005.41 520.316L1002.99 545.129L1023.27 559.627L1045.97 549.311L1048.39 524.497L1028.1 510L1005.41 520.316Z" stroke="#BC99FF" stroke-width="1.75" stroke-linecap="round" stroke-linejoin="round"/>
<path fill-rule="evenodd" clip-rule="evenodd" d="M2241.39 118.316L2238.98 143.129L2259.26 157.627L2281.95 147.311L2284.37 122.497L2264.09 108L2241.39 118.316Z" stroke="#BC99FF" stroke-width="1.75" stroke-linecap="round" stroke-linejoin="round"/>
<path fill-rule="evenodd" clip-rule="evenodd" d="M923.406 118.316L920.992 143.129L941.274 157.627L963.97 147.311L966.385 122.497L946.102 108L923.406 118.316Z" stroke="#BC99FF" stroke-width="1.75" stroke-linecap="round" stroke-linejoin="round"/>
<path fill-rule="evenodd" clip-rule="evenodd" d="M1969.96 416.762L1972.37 391.949L1952.09 377.451L1929.39 387.767L1926.98 412.581L1947.26 427.078L1969.96 416.762Z" stroke="#BC99FF" stroke-width="1.75" stroke-linecap="round" stroke-linejoin="round"/>
<path fill-rule="evenodd" clip-rule="evenodd" d="M1003.02 438L971.992 471.23L985.255 514.72L1029.55 524.978L1060.58 491.747L1047.32 448.258L1003.02 438Z" stroke="#BC99FF" stroke-width="1.75" stroke-linecap="round" stroke-linejoin="round"/>
<path fill-rule="evenodd" clip-rule="evenodd" d="M1996.54 87.978L2027.57 54.748L2014.31 11.258L1970.01 1.00002L1938.98 34.231L1952.25 77.72L1996.54 87.978Z" stroke="#BC99FF" stroke-width="1.75" stroke-linecap="round" stroke-linejoin="round"/>
<path fill-rule="evenodd" clip-rule="evenodd" d="M175.555 506.978L206.586 473.748L193.323 430.258L149.028 420L117.997 453.231L131.261 496.72L175.555 506.978Z" stroke="#BC99FF" stroke-width="1.75" stroke-linecap="round" stroke-linejoin="round"/>
<path fill-rule="evenodd" clip-rule="evenodd" d="M757.348 461.641C761.208 476.401 752.373 491.495 737.613 495.356C722.853 499.216 707.759 490.381 703.898 475.621C700.038 460.861 708.873 445.766 723.633 441.906C738.393 438.045 753.488 446.881 757.348 461.641Z" stroke="#BC99FF" stroke-width="1.75" stroke-linecap="round" stroke-linejoin="round"/>
<path fill-rule="evenodd" clip-rule="evenodd" d="M669.348 75.6409C673.208 90.4009 664.373 105.495 649.613 109.356C634.853 113.216 619.759 104.381 615.898 89.6209C612.038 74.8609 620.873 59.7659 635.633 55.9059C650.393 52.0449 665.488 60.8809 669.348 75.6409Z" stroke="#BC99FF" stroke-width="1.75" stroke-linecap="round" stroke-linejoin="round"/>
<path fill-rule="evenodd" clip-rule="evenodd" d="M1822.93 131.623C1819.07 116.863 1827.9 101.769 1842.66 97.9077C1857.42 94.0477 1872.52 102.883 1876.38 117.643C1880.24 132.403 1871.4 147.498 1856.64 151.358C1841.88 155.219 1826.79 146.383 1822.93 131.623Z" stroke="#BC99FF" stroke-width="1.75" stroke-linecap="round" stroke-linejoin="round"/>
<path fill-rule="evenodd" clip-rule="evenodd" d="M2154.88 474.621C2151.02 459.861 2159.86 444.767 2174.62 440.906C2189.38 437.046 2204.47 445.881 2208.33 460.641C2212.19 475.401 2203.36 490.496 2188.6 494.356C2173.84 498.217 2158.74 489.381 2154.88 474.621Z" stroke="#BC99FF" stroke-width="1.75" stroke-linecap="round" stroke-linejoin="round"/>
<path fill-rule="evenodd" clip-rule="evenodd" d="M234.902 475.621C231.042 460.861 239.877 445.767 254.637 441.906C269.397 438.046 284.491 446.881 288.352 461.641C292.212 476.401 283.377 491.496 268.617 495.356C253.857 499.217 238.762 490.381 234.902 475.621Z" stroke="#BC99FF" stroke-width="1.75" stroke-linecap="round" stroke-linejoin="round"/>
<path fill-rule="evenodd" clip-rule="evenodd" d="M1804.39 31.6622C1802.65 24.9848 1806.64 18.1564 1813.32 16.4097C1820 14.6635 1826.83 18.6604 1828.57 25.3377C1830.32 32.015 1826.32 38.8439 1819.65 40.5902C1812.97 42.3368 1806.14 38.3395 1804.39 31.6622Z" stroke="#BC99FF" stroke-width="1.75" stroke-linecap="round" stroke-linejoin="round"/>
<path fill-rule="evenodd" clip-rule="evenodd" d="M2239.39 540.662C2237.64 533.985 2241.64 527.156 2248.31 525.41C2254.99 523.663 2261.82 527.66 2263.57 534.338C2265.31 541.015 2261.32 547.844 2254.64 549.59C2247.96 551.337 2241.13 547.339 2239.39 540.662Z" stroke="#BC99FF" stroke-width="1.75" stroke-linecap="round" stroke-linejoin="round"/>
<path fill-rule="evenodd" clip-rule="evenodd" d="M209.406 79.6622C207.66 72.9848 211.656 66.1564 218.334 64.4097C225.011 62.6635 231.84 66.6604 233.586 73.3377C235.333 80.015 231.336 86.8439 224.658 88.5902C217.981 90.3368 211.152 86.3395 209.406 79.6622Z" stroke="#BC99FF" stroke-width="1.75" stroke-linecap="round" stroke-linejoin="round"/>
<path fill-rule="evenodd" clip-rule="evenodd" d="M747.402 587.662C745.656 580.985 749.653 574.156 756.33 572.41C763.007 570.663 769.836 574.66 771.582 581.338C773.329 588.015 769.332 594.844 762.654 596.59C755.977 598.337 749.148 594.339 747.402 587.662Z" stroke="#BC99FF" stroke-width="1.75" stroke-linecap="round" stroke-linejoin="round"/>
<path fill-rule="evenodd" clip-rule="evenodd" d="M604.348 365.641C608.208 380.401 599.373 395.495 584.613 399.356C569.853 403.216 554.759 394.381 550.898 379.621C547.038 364.861 555.873 349.766 570.633 345.906C585.393 342.045 600.488 350.881 604.348 365.641Z" stroke="#BC99FF" stroke-width="1.75" stroke-linecap="round" stroke-linejoin="round"/>
<path fill-rule="evenodd" clip-rule="evenodd" d="M1979.4 223.623C1975.54 208.863 1984.37 193.769 1999.13 189.908C2013.89 186.048 2028.99 194.883 2032.85 209.643C2036.71 224.403 2027.87 239.498 2013.11 243.358C1998.35 247.219 1983.26 238.383 1979.4 223.623Z" stroke="#BC99FF" stroke-width="1.75" stroke-linecap="round" stroke-linejoin="round"/>
<path fill-rule="evenodd" clip-rule="evenodd" d="M743.784 88.6774C757.572 77.7874 782.652 86.5604 799.803 108.273C816.953 129.986 819.68 156.416 805.892 167.306C792.105 178.197 767.024 169.423 749.874 147.711C732.723 125.998 729.997 99.5684 743.784 88.6774Z" stroke="#BC99FF" stroke-width="1.75" stroke-linecap="round" stroke-linejoin="round"/>
<path fill-rule="evenodd" clip-rule="evenodd" d="M489.482 413.818C504.973 422.108 506.949 448.605 493.895 473.002C480.84 497.397 457.7 510.455 442.208 502.165C426.717 493.877 424.741 467.379 437.795 442.983C450.849 418.587 473.99 405.53 489.482 413.818Z" stroke="#BC99FF" stroke-width="1.75" stroke-linecap="round" stroke-linejoin="round"/>
<path fill-rule="evenodd" clip-rule="evenodd" d="M1784.88 491.307C1771.1 502.197 1746.02 493.424 1728.87 471.711C1711.72 449.998 1708.99 423.568 1722.78 412.678C1736.56 401.787 1761.64 410.561 1778.79 432.273C1795.95 453.986 1798.67 480.416 1784.88 491.307Z" stroke="#BC99FF" stroke-width="1.75" stroke-linecap="round" stroke-linejoin="round"/>
</svg>
