<svg viewBox="0 0 1251 500" fill="none" xmlns="http://www.w3.org/2000/svg">
<path fill-rule="evenodd" clip-rule="evenodd" d="M92.0453 235.795C112.606 208.769 109.074 171.403 84.1569 152.334C59.24 133.267 22.3727 139.718 1.8125 166.744L21.3492 181.695C33.0061 166.372 53.9091 162.714 68.036 173.524C82.1642 184.336 84.1668 205.521 72.5086 220.846L92.0453 235.795Z" stroke="#BC99FF" stroke-width="1.75" stroke-linecap="round" stroke-linejoin="round"/>
<path fill-rule="evenodd" clip-rule="evenodd" d="M802.163 58.6544C788.232 76.9133 790.625 102.158 807.509 115.04C824.392 127.922 849.373 123.564 863.305 105.305L850.067 95.2048C842.168 105.557 828.004 108.028 818.432 100.725C808.859 93.42 807.502 79.1075 815.401 68.754L802.163 58.6544Z" stroke="#BC99FF" stroke-width="1.75" stroke-linecap="round" stroke-linejoin="round"/>
<path fill-rule="evenodd" clip-rule="evenodd" d="M211.156 400.603L236.895 406.928L239.658 422.355L258.631 424L268.827 446.58L304.935 406.29L279.067 400.357L276.048 384.99L257.029 383.629L246.452 361.229L211.156 400.603Z" stroke="#BC99FF" stroke-width="1.75" stroke-linecap="round" stroke-linejoin="round"/>
<path fill-rule="evenodd" clip-rule="evenodd" d="M1048.98 92.0971L1023.24 85.7727L1020.48 70.3455L1001.5 68.7003L991.306 46.1207L955.198 86.4102L981.066 92.3427L984.085 107.711L1003.1 109.071L1013.68 131.472L1048.98 92.0971Z" stroke="#BC99FF" stroke-width="1.75" stroke-linecap="round" stroke-linejoin="round"/>
<path fill-rule="evenodd" clip-rule="evenodd" d="M390.697 434.925L388.68 455.658L405.627 467.772L424.591 459.152L426.609 438.418L409.661 426.305L390.697 434.925Z" stroke="#BC99FF" stroke-width="1.75" stroke-linecap="round" stroke-linejoin="round"/>
<path fill-rule="evenodd" clip-rule="evenodd" d="M322.181 99.0255L320.164 119.759L337.111 131.873L356.075 123.253L358.093 102.519L341.145 90.4058L322.181 99.0255Z" stroke="#BC99FF" stroke-width="1.75" stroke-linecap="round" stroke-linejoin="round"/>
<path fill-rule="evenodd" clip-rule="evenodd" d="M1196.66 348.399L1198.68 327.666L1181.73 315.552L1162.76 324.171L1160.75 344.905L1177.69 357.019L1196.66 348.399Z" stroke="#BC99FF" stroke-width="1.75" stroke-linecap="round" stroke-linejoin="round"/>
<path fill-rule="evenodd" clip-rule="evenodd" d="M388.71 366.145L362.781 393.911L373.863 430.249L410.875 438.821L436.804 411.054L425.721 374.716L388.71 366.145Z" stroke="#BC99FF" stroke-width="1.75" stroke-linecap="round" stroke-linejoin="round"/>
<path fill-rule="evenodd" clip-rule="evenodd" d="M1218.87 73.6763L1244.8 45.9103L1233.71 9.5713L1196.7 1.00001L1170.77 28.7669L1181.86 65.105L1218.87 73.6763Z" stroke="#BC99FF" stroke-width="1.75" stroke-linecap="round" stroke-linejoin="round"/>
<path fill-rule="evenodd" clip-rule="evenodd" d="M183.426 385.898C186.651 398.231 179.269 410.843 166.936 414.069C154.603 417.294 141.991 409.912 138.765 397.579C135.539 385.246 142.921 372.633 155.254 369.408C167.588 366.182 180.2 373.565 183.426 385.898Z" stroke="#BC99FF" stroke-width="1.75" stroke-linecap="round" stroke-linejoin="round"/>
<path fill-rule="evenodd" clip-rule="evenodd" d="M109.898 63.3676C113.124 75.7006 105.741 88.3127 93.4084 91.5388C81.0754 94.7641 68.4633 87.3819 65.2372 75.0488C62.0119 62.7158 69.3941 50.1029 81.7271 46.8776C94.0602 43.6514 106.673 51.0345 109.898 63.3676Z" stroke="#BC99FF" stroke-width="1.75" stroke-linecap="round" stroke-linejoin="round"/>
<path fill-rule="evenodd" clip-rule="evenodd" d="M1073.8 110.145C1070.58 97.8116 1077.96 85.1995 1090.29 81.9734C1102.62 78.7481 1115.24 86.1303 1118.46 98.4634C1121.69 110.796 1114.31 123.409 1101.97 126.635C1089.64 129.861 1077.03 122.478 1073.8 110.145Z" stroke="#BC99FF" stroke-width="1.75" stroke-linecap="round" stroke-linejoin="round"/>
<path fill-rule="evenodd" clip-rule="evenodd" d="M1058.32 26.6204C1056.86 21.041 1060.2 15.3354 1065.78 13.8759C1071.36 12.4168 1077.06 15.7565 1078.52 21.3359C1079.98 26.9153 1076.64 32.6213 1071.06 34.0804C1065.48 35.5399 1059.78 32.1998 1058.32 26.6204Z" stroke="#BC99FF" stroke-width="1.75" stroke-linecap="round" stroke-linejoin="round"/>
<path fill-rule="evenodd" clip-rule="evenodd" d="M175.117 491.198C173.658 485.618 176.998 479.913 182.577 478.453C188.157 476.994 193.862 480.334 195.322 485.913C196.781 491.492 193.441 497.198 187.862 498.658C182.282 500.117 176.576 496.777 175.117 491.198Z" stroke="#BC99FF" stroke-width="1.75" stroke-linecap="round" stroke-linejoin="round"/>
<path fill-rule="evenodd" clip-rule="evenodd" d="M55.5859 305.683C58.8112 318.017 51.4289 330.629 39.0959 333.855C26.7629 337.08 14.1508 329.698 10.9247 317.365C7.69937 305.032 15.0816 292.419 27.4146 289.194C39.7477 285.967 52.3606 293.35 55.5859 305.683Z" stroke="#BC99FF" stroke-width="1.75" stroke-linecap="round" stroke-linejoin="round"/>
<path fill-rule="evenodd" clip-rule="evenodd" d="M1204.55 187.017C1201.32 174.684 1208.7 162.072 1221.04 158.845C1233.37 155.62 1245.98 163.002 1249.21 175.335C1252.43 187.668 1245.05 200.281 1232.72 203.507C1220.39 206.733 1207.77 199.35 1204.55 187.017Z" stroke="#BC99FF" stroke-width="1.75" stroke-linecap="round" stroke-linejoin="round"/>
<path fill-rule="evenodd" clip-rule="evenodd" d="M172.096 74.2603C183.617 65.161 204.573 72.4915 218.904 90.6342C233.234 108.777 235.512 130.861 223.992 139.96C212.472 149.061 191.515 141.729 177.185 123.587C162.854 105.445 160.576 83.3605 172.096 74.2603Z" stroke="#BC99FF" stroke-width="1.75" stroke-linecap="round" stroke-linejoin="round"/>
<path fill-rule="evenodd" clip-rule="evenodd" d="M1042.01 410.686C1030.49 419.785 1009.54 412.455 995.206 394.312C980.876 376.169 978.597 354.085 990.118 344.986C1001.64 335.886 1022.59 343.217 1036.92 361.359C1051.26 379.502 1053.53 401.586 1042.01 410.686Z" stroke="#BC99FF" stroke-width="1.75" stroke-linecap="round" stroke-linejoin="round"/>
</svg>
