<svg xmlns="http://www.w3.org/2000/svg" fill="none" viewBox="0 0 50 50">
  <path stroke="#8900FF" stroke-linecap="round" stroke-linejoin="round" stroke-width="3" d="M20.156 29.845c2.051 2.05 4.426 3.61 6.601 4.336 2.176.725 3.974.556 5-.47 1.025-1.025 1.194-2.823.469-4.999-.725-2.176-2.285-4.55-4.336-6.601-2.051-2.052-4.426-3.611-6.602-4.337-2.175-.725-3.974-.556-5 .47-1.025 1.025-1.194 2.824-.468 5 .725 2.175 2.285 4.55 4.336 6.6v0Z"/>
  <path stroke="#8900FF" stroke-linecap="round" stroke-linejoin="round" stroke-width="3" d="M15.418 20.208 1.85 44.002a3.125 3.125 0 0 0 4.148 4.148l23.794-13.556M32.863 16.042a.783.783 0 0 1 0 1.106M31.758 16.042a.781.781 0 0 1 1.104 0"/>
  <path stroke="#8900FF" stroke-linecap="round" stroke-linejoin="round" stroke-width="3" d="M31.76 17.14a.785.785 0 0 1 0-1.107M32.862 17.14a.781.781 0 0 1-1.104 0M41.7 7.196a.778.778 0 0 1 0 1.104M40.598 7.196a.778.778 0 0 1 1.104 0M40.596 8.3a.78.78 0 0 1 0-1.104M41.702 8.3a.781.781 0 0 1-1.104 0M41.7 29.292a.78.78 0 0 1 0 1.106M40.598 29.292a.781.781 0 0 1 1.104 0M40.597 30.398a.783.783 0 0 1 0-1.106"/>
  <path stroke="#8900FF" stroke-linecap="round" stroke-linejoin="round" stroke-width="3" d="M41.702 30.398a.781.781 0 0 1-1.104 0M17.395 9.404a.786.786 0 0 1 0 1.106M16.29 9.404a.781.781 0 0 1 1.103 0M16.292 10.51a.78.78 0 0 1 0-1.106M17.393 10.51a.781.781 0 0 1-1.104 0M26.786 1.563c.44 3.937.063 7.923-1.106 11.708M34.518 4.433l-1.104 5.523M48.439 23.215A28.824 28.824 0 0 0 36.73 24.32M45.566 15.481l-5.523 1.104"/>
</svg>
