<svg width="197" height="152" viewBox="0 0 197 152" fill="none" xmlns="http://www.w3.org/2000/svg">
<path fill-rule="evenodd" clip-rule="evenodd" d="M177.093 98.6623H161.739C159.944 98.6623 158.49 97.2083 158.49 95.4143C158.49 93.6193 159.944 92.1653 161.739 92.1653H177.093C183.77 92.1653 189.2 86.7333 189.2 80.0583C189.2 73.3813 183.77 67.9513 177.093 67.9513H161.739C159.944 67.9513 158.49 66.4973 158.49 64.7023C158.49 62.9083 159.944 61.4543 161.739 61.4543H177.093C187.351 61.4543 195.697 69.8003 195.697 80.0583C195.697 90.3163 187.351 98.6623 177.093 98.6623Z" fill="#E1DFEB"/>
<path fill-rule="evenodd" clip-rule="evenodd" d="M177.093 98.6623H161.739C159.944 98.6623 158.49 97.2083 158.49 95.4143C158.49 93.6193 159.944 92.1653 161.739 92.1653H177.093C183.77 92.1653 189.2 86.7333 189.2 80.0583C189.2 73.3813 183.77 67.9513 177.093 67.9513H161.739C159.944 67.9513 158.49 66.4973 158.49 64.7023C158.49 62.9083 159.944 61.4543 161.739 61.4543H177.093C187.351 61.4543 195.697 69.8003 195.697 80.0583C195.697 90.3163 187.351 98.6623 177.093 98.6623Z" stroke="#0E0916" stroke-width="0.75" stroke-linecap="round" stroke-linejoin="round"/>
<path fill-rule="evenodd" clip-rule="evenodd" d="M131.937 146.794H137.894C157.777 146.794 173.894 130.677 173.894 110.794V48.2651H95.9365V110.794C95.9365 130.677 112.055 146.794 131.937 146.794Z" fill="#E1DFEB"/>
<path fill-rule="evenodd" clip-rule="evenodd" d="M131.937 146.794H137.894C157.777 146.794 173.894 130.677 173.894 110.794V48.2651H95.9365V110.794C95.9365 130.677 112.055 146.794 131.937 146.794Z" stroke="#0E0916" stroke-width="0.75" stroke-linecap="round" stroke-linejoin="round"/>
<path fill-rule="evenodd" clip-rule="evenodd" d="M173.052 137.885C174.374 137.885 174.931 139.446 173.874 140.182C169.464 143.255 165.321 146.147 161.132 148.982C160.543 149.38 159.563 149.397 158.763 149.398C143.087 149.42 127.411 149.419 111.737 149.403C111.01 149.402 110.112 149.432 109.585 149.076C105.337 146.206 101.129 143.285 96.6557 140.184C95.5957 139.449 96.1517 137.885 97.4747 137.885H173.052Z" fill="#E1DFEB"/>
<path fill-rule="evenodd" clip-rule="evenodd" d="M173.052 137.885C174.374 137.885 174.931 139.446 173.874 140.182C169.464 143.255 165.321 146.147 161.132 148.982C160.543 149.38 159.563 149.397 158.763 149.398C143.087 149.42 127.411 149.419 111.737 149.403C111.01 149.402 110.112 149.432 109.585 149.076C105.337 146.206 101.129 143.285 96.6557 140.184C95.5957 139.449 96.1517 137.885 97.4747 137.885H173.052Z" stroke="#0E0916" stroke-width="0.75" stroke-linecap="round" stroke-linejoin="round"/>
<path fill-rule="evenodd" clip-rule="evenodd" d="M130.365 70.2776C132.199 70.2516 133.903 70.7406 135.513 71.6126C138.166 73.0496 140.261 75.1076 142.028 77.5146C144.401 80.7526 145.98 84.3496 146.695 88.3006C147.264 91.4406 147.309 94.5816 146.049 97.5826C145.636 98.5626 144.941 99.4276 144.341 100.322C144.009 100.817 143.603 100.863 143.053 100.519C139.811 98.4946 137.433 95.7786 136.043 92.1856C134.84 89.0766 134.647 85.8736 134.831 82.5926C134.981 79.9006 134.905 77.1866 133.56 74.7636C132.797 73.3866 131.722 72.1816 130.769 70.9136C130.636 70.7356 130.395 70.6386 130.204 70.5056C130.258 70.4286 130.311 70.3536 130.365 70.2776Z" fill="#FFA578"/>
<path fill-rule="evenodd" clip-rule="evenodd" d="M130.365 70.2776C132.199 70.2516 133.903 70.7406 135.513 71.6126C138.166 73.0496 140.261 75.1076 142.028 77.5146C144.401 80.7526 145.98 84.3496 146.695 88.3006C147.264 91.4406 147.309 94.5816 146.049 97.5826C145.636 98.5626 144.941 99.4276 144.341 100.322C144.009 100.817 143.603 100.863 143.053 100.519C139.811 98.4946 137.433 95.7786 136.043 92.1856C134.84 89.0766 134.647 85.8736 134.831 82.5926C134.981 79.9006 134.905 77.1866 133.56 74.7636C132.797 73.3866 131.722 72.1816 130.769 70.9136C130.636 70.7356 130.395 70.6386 130.204 70.5056C130.258 70.4286 130.311 70.3536 130.365 70.2776Z" stroke="#0E0916" stroke-width="0.75" stroke-linecap="round" stroke-linejoin="round"/>
<path fill-rule="evenodd" clip-rule="evenodd" d="M141.525 102.323C140.192 102.827 138.913 102.867 137.629 102.634C134.572 102.078 132.14 100.388 130.03 98.2235C125.883 93.9685 123.455 88.8575 122.792 82.9565C122.485 80.2225 122.681 77.5095 123.88 74.9615C124.588 73.4615 125.617 72.2485 127.097 71.4445C127.456 71.2505 127.705 71.2195 128.051 71.5275C129.379 72.7105 130.546 74.0195 131.409 75.5795C132.27 77.1385 132.614 78.8455 132.646 80.6055C132.676 82.2845 132.571 83.9655 132.602 85.6435C132.722 91.9015 134.864 97.2195 139.924 101.151C140.421 101.537 140.937 101.893 141.525 102.323Z" fill="#FFA578"/>
<path fill-rule="evenodd" clip-rule="evenodd" d="M141.525 102.323C140.192 102.827 138.913 102.867 137.629 102.634C134.572 102.078 132.14 100.388 130.03 98.2235C125.883 93.9685 123.455 88.8575 122.792 82.9565C122.485 80.2225 122.681 77.5095 123.88 74.9615C124.588 73.4615 125.617 72.2485 127.097 71.4445C127.456 71.2505 127.705 71.2195 128.051 71.5275C129.379 72.7105 130.546 74.0195 131.409 75.5795C132.27 77.1385 132.614 78.8455 132.646 80.6055C132.676 82.2845 132.571 83.9655 132.602 85.6435C132.722 91.9015 134.864 97.2195 139.924 101.151C140.421 101.537 140.937 101.893 141.525 102.323Z" stroke="#0E0916" stroke-width="0.75" stroke-linecap="round" stroke-linejoin="round"/>
<path fill-rule="evenodd" clip-rule="evenodd" d="M92.4783 122.21H77.6123C75.8753 122.21 74.4673 120.803 74.4673 119.065C74.4673 117.328 75.8753 115.921 77.6123 115.921H92.4783C98.9413 115.921 104.199 110.662 104.199 104.199C104.199 97.7362 98.9413 92.4792 92.4783 92.4792H77.6123C75.8753 92.4792 74.4673 91.0712 74.4673 89.3342C74.4673 87.5982 75.8753 86.1892 77.6123 86.1892H92.4783C102.409 86.1892 110.488 94.2702 110.488 104.199C110.488 114.131 102.409 122.21 92.4783 122.21Z" fill="#BC99FF"/>
<path fill-rule="evenodd" clip-rule="evenodd" d="M92.4783 122.21H77.6123C75.8753 122.21 74.4673 120.803 74.4673 119.065C74.4673 117.328 75.8753 115.921 77.6123 115.921H92.4783C98.9413 115.921 104.199 110.662 104.199 104.199C104.199 97.7362 98.9413 92.4792 92.4783 92.4792H77.6123C75.8753 92.4792 74.4673 91.0712 74.4673 89.3342C74.4673 87.5982 75.8753 86.1892 77.6123 86.1892H92.4783C102.409 86.1892 110.488 94.2702 110.488 104.199C110.488 114.131 102.409 122.21 92.4783 122.21Z" stroke="#0E0916" stroke-width="0.75" stroke-linecap="round" stroke-linejoin="round"/>
<path fill-rule="evenodd" clip-rule="evenodd" d="M46.45 148.891H42.455C19.559 148.891 1 130.331 1 107.436V79.7098H87.904V107.436C87.904 130.331 69.345 148.891 46.45 148.891Z" fill="#BC99FF"/>
<path fill-rule="evenodd" clip-rule="evenodd" d="M46.45 148.891H42.455C19.559 148.891 1 130.331 1 107.436V79.7098H87.904V107.436C87.904 130.331 69.345 148.891 46.45 148.891Z" stroke="#0E0916" stroke-width="0.75" stroke-linecap="round" stroke-linejoin="round"/>
<path d="M37.8613 79.7101C38.7423 62.4151 59.7063 62.4151 60.0873 79.7101V97.5341C60.0873 113.941 66.7603 129.643 78.5733 141.029" stroke="#340096" stroke-width="0.75" stroke-linecap="round" stroke-linejoin="round"/>
<path fill-rule="evenodd" clip-rule="evenodd" d="M88.1979 143.929L80.6699 150.503C79.2889 151.709 77.1919 151.567 75.9869 150.187L67.0679 139.974C65.8629 138.593 66.0049 136.497 67.3859 135.291L74.9139 128.717C76.2939 127.512 78.3899 127.654 79.5949 129.033L88.5139 139.246C89.7189 140.627 89.5779 142.724 88.1979 143.929Z" fill="#DCEAFF"/>
<path fill-rule="evenodd" clip-rule="evenodd" d="M88.1979 143.929L80.6699 150.503C79.2889 151.709 77.1919 151.567 75.9869 150.187L67.0679 139.974C65.8629 138.593 66.0049 136.497 67.3859 135.291L74.9139 128.717C76.2939 127.512 78.3899 127.654 79.5949 129.033L88.5139 139.246C89.7189 140.627 89.5779 142.724 88.1979 143.929Z" stroke="#340096" stroke-width="0.75" stroke-linecap="round" stroke-linejoin="round"/>
<path fill-rule="evenodd" clip-rule="evenodd" d="M139.331 1.051C139.211 1.828 139.113 2.61 138.968 3.382C138.207 7.408 138.704 11.266 140.472 14.963C141.265 16.621 142.072 18.274 142.819 19.952C143.744 22.032 144.286 24.211 144.256 26.504C144.215 29.656 143.005 32.336 140.909 34.648C140.875 34.686 140.836 34.721 140.796 34.753C140.777 34.768 140.75 34.771 140.71 34.784C140.844 33.856 140.987 32.938 141.108 32.016C141.497 29.051 141.084 26.2 139.807 23.494C138.872 21.517 137.854 19.578 136.942 17.591C136.054 15.655 135.434 13.634 135.313 11.482C135.135 8.28 135.995 5.384 137.814 2.766C138.24 2.153 138.734 1.587 139.197 1C139.242 1.017 139.286 1.033 139.331 1.051Z" fill="#FFA578"/>
<path fill-rule="evenodd" clip-rule="evenodd" d="M139.331 1.051C139.211 1.828 139.113 2.61 138.968 3.382C138.207 7.408 138.704 11.266 140.472 14.963C141.265 16.621 142.072 18.274 142.819 19.952C143.744 22.032 144.286 24.211 144.256 26.504C144.215 29.656 143.005 32.336 140.909 34.648C140.875 34.686 140.836 34.721 140.796 34.753C140.777 34.768 140.75 34.771 140.71 34.784C140.844 33.856 140.987 32.938 141.108 32.016C141.497 29.051 141.084 26.2 139.807 23.494C138.872 21.517 137.854 19.578 136.942 17.591C136.054 15.655 135.434 13.634 135.313 11.482C135.135 8.28 135.995 5.384 137.814 2.766C138.24 2.153 138.734 1.587 139.197 1C139.242 1.017 139.286 1.033 139.331 1.051Z" stroke="#0E0916" stroke-width="0.75" stroke-linecap="round" stroke-linejoin="round"/>
<path fill-rule="evenodd" clip-rule="evenodd" d="M131.442 42.2248C131.581 41.2658 131.736 40.3088 131.855 39.3468C132.229 36.3368 131.747 33.4618 130.433 30.7318C129.513 28.8198 128.537 26.9328 127.644 25.0078C126.588 22.7278 125.961 20.3378 126.015 17.7968C126.093 14.1968 127.714 10.7888 130.072 8.39575C129.989 8.96175 129.926 9.43375 129.85 9.90375C129.54 11.8228 129.238 13.7378 129.386 15.6978C129.557 17.9448 130.122 20.0828 131.063 22.1238C131.946 24.0388 132.893 25.9268 133.723 27.8648C134.685 30.1068 135.15 32.4588 134.933 34.9138C134.68 37.7758 133.447 40.1788 131.442 42.2248Z" fill="#FFA578"/>
<path fill-rule="evenodd" clip-rule="evenodd" d="M131.442 42.2248C131.581 41.2658 131.736 40.3088 131.855 39.3468C132.229 36.3368 131.747 33.4618 130.433 30.7318C129.513 28.8198 128.537 26.9328 127.644 25.0078C126.588 22.7278 125.961 20.3378 126.015 17.7968C126.093 14.1968 127.714 10.7888 130.072 8.39575C129.989 8.96175 129.926 9.43375 129.85 9.90375C129.54 11.8228 129.238 13.7378 129.386 15.6978C129.557 17.9448 130.122 20.0828 131.063 22.1238C131.946 24.0388 132.893 25.9268 133.723 27.8648C134.685 30.1068 135.15 32.4588 134.933 34.9138C134.68 37.7758 133.447 40.1788 131.442 42.2248Z" stroke="#0E0916" stroke-width="0.75" stroke-linecap="round" stroke-linejoin="round"/>
<path fill-rule="evenodd" clip-rule="evenodd" d="M35.1386 31.4963C35.0196 32.2733 34.9216 33.0553 34.7756 33.8273C34.0146 37.8533 34.5116 41.7123 36.2796 45.4093C37.0726 47.0673 37.8796 48.7193 38.6266 50.3973C39.5516 52.4773 40.0936 54.6573 40.0636 56.9493C40.0226 60.1013 38.8126 62.7813 36.7176 65.0933C36.6826 65.1313 36.6446 65.1663 36.6036 65.1983C36.5846 65.2133 36.5576 65.2163 36.5176 65.2293C36.6526 64.3013 36.7946 63.3833 36.9156 62.4613C37.3046 59.4963 36.8926 56.6453 35.6146 53.9393C34.6806 51.9623 33.6616 50.0233 32.7496 48.0363C31.8616 46.1003 31.2416 44.0803 31.1206 41.9273C30.9426 38.7263 31.8026 35.8303 33.6216 33.2113C34.0486 32.5993 34.5416 32.0333 35.0046 31.4453C35.0496 31.4623 35.0946 31.4793 35.1386 31.4963Z" fill="#DCEAFF"/>
<path fill-rule="evenodd" clip-rule="evenodd" d="M35.1386 31.4963C35.0196 32.2733 34.9216 33.0553 34.7756 33.8273C34.0146 37.8533 34.5116 41.7123 36.2796 45.4093C37.0726 47.0673 37.8796 48.7193 38.6266 50.3973C39.5516 52.4773 40.0936 54.6573 40.0636 56.9493C40.0226 60.1013 38.8126 62.7813 36.7176 65.0933C36.6826 65.1313 36.6446 65.1663 36.6036 65.1983C36.5846 65.2133 36.5576 65.2163 36.5176 65.2293C36.6526 64.3013 36.7946 63.3833 36.9156 62.4613C37.3046 59.4963 36.8926 56.6453 35.6146 53.9393C34.6806 51.9623 33.6616 50.0233 32.7496 48.0363C31.8616 46.1003 31.2416 44.0803 31.1206 41.9273C30.9426 38.7263 31.8026 35.8303 33.6216 33.2113C34.0486 32.5993 34.5416 32.0333 35.0046 31.4453C35.0496 31.4623 35.0946 31.4793 35.1386 31.4963Z" stroke="#340096" stroke-width="0.75" stroke-linecap="round" stroke-linejoin="round"/>
<path fill-rule="evenodd" clip-rule="evenodd" d="M27.25 72.6701C27.389 71.7111 27.544 70.7541 27.663 69.7931C28.038 66.7821 27.555 63.9081 26.241 61.1781C25.321 59.2651 24.345 57.3791 23.452 55.4531C22.396 53.1731 21.77 50.7831 21.824 48.2431C21.901 44.6421 23.523 41.2341 25.88 38.8411C25.797 39.4071 25.734 39.8791 25.658 40.3491C25.348 42.2681 25.046 44.1841 25.195 46.1431C25.365 48.3901 25.93 50.5281 26.871 52.5691C27.755 54.4841 28.701 56.3721 29.532 58.3101C30.493 60.5521 30.958 62.9051 30.741 65.3591C30.489 68.2211 29.255 70.6251 27.25 72.6701Z" fill="#DCEAFF"/>
<path fill-rule="evenodd" clip-rule="evenodd" d="M27.25 72.6701C27.389 71.7111 27.544 70.7541 27.663 69.7931C28.038 66.7821 27.555 63.9081 26.241 61.1781C25.321 59.2651 24.345 57.3791 23.452 55.4531C22.396 53.1731 21.77 50.7831 21.824 48.2431C21.901 44.6421 23.523 41.2341 25.88 38.8411C25.797 39.4071 25.734 39.8791 25.658 40.3491C25.348 42.2681 25.046 44.1841 25.195 46.1431C25.365 48.3901 25.93 50.5281 26.871 52.5691C27.755 54.4841 28.701 56.3721 29.532 58.3101C30.493 60.5521 30.958 62.9051 30.741 65.3591C30.489 68.2211 29.255 70.6251 27.25 72.6701Z" stroke="#340096" stroke-width="0.75" stroke-linecap="round" stroke-linejoin="round"/>
</svg>
