<svg width="282" height="149" viewBox="0 0 282 149" fill="none" xmlns="http://www.w3.org/2000/svg">
<path fill-rule="evenodd" clip-rule="evenodd" d="M74.5967 124.165C74.5707 101.522 92.9057 83.144 115.549 83.118C138.193 83.092 156.57 101.427 156.596 124.07L218.302 123.998C218.236 67.276 172.201 21.347 115.478 21.4129C58.7547 21.478 12.8257 67.514 12.8917 124.237L74.5967 124.165Z" fill="#DCEAFF"/>
<path fill-rule="evenodd" clip-rule="evenodd" d="M74.5967 124.165C74.5707 101.522 92.9057 83.144 115.549 83.118C138.193 83.092 156.57 101.427 156.596 124.07L218.302 123.998C218.236 67.276 172.201 21.347 115.478 21.4129C58.7547 21.478 12.8257 67.514 12.8917 124.237L74.5967 124.165Z" stroke="#0E0916" stroke-width="0.5" stroke-linecap="round" stroke-linejoin="round"/>
<path d="M1 123.89H251.879" stroke="#0E0916" stroke-width="0.75" stroke-linecap="round" stroke-linejoin="round"/>
<path d="M208.091 139.514C195.898 142.198 183.805 141.525 173.434 133.913C159.59 123.752 148.918 108.431 142.437 92.6682C141.167 89.5822 140.409 85.2812 143.266 83.5572C145.092 82.4552 147.443 83.1282 149.403 83.9672C165.092 90.6752 176.188 106.98 176.672 124.035C176.809 128.844 176.107 133.842 173.519 137.897C170.931 141.952 166.146 144.846 161.385 144.153C158.742 143.767 156.371 142.366 154.116 140.934C138.325 130.909 124.535 118.071 112.043 104.22C100.92 91.8862 83.5418 77.2712 81.2028 59.7822C81.0878 58.9222 81.0588 57.9462 81.6368 57.2992C82.4298 56.4112 83.8528 56.6412 84.9928 56.9802C109.26 64.1852 127.186 85.5662 140.316 106.09C140.453 106.305 140.59 106.519 140.727 106.734C145.98 115.003 150.806 124.165 150.563 133.959C150.431 139.267 148.307 145.065 143.504 147.331C139.537 149.204 134.847 148.199 130.68 146.826C123.448 144.444 116.577 141.06 110.002 137.221C87.4958 124.082 66.0408 104.596 53.7978 81.3012C52.0358 77.9512 50.4968 74.4842 49.1948 70.9302C47.2028 65.4962 49.1608 61.8942 54.7218 64.7102C58.3008 66.5222 61.4708 69.3152 64.3598 72.0672C75.4368 82.6192 85.4718 94.2642 94.2728 106.779C98.3918 112.636 102.299 118.811 104.139 125.731C104.884 128.535 105.159 131.867 103.211 134.017C101.877 135.491 99.7948 136.037 97.8128 136.194C92.0288 136.65 86.3898 134.418 81.1608 131.904C70.3028 126.683 60.1338 120.039 50.9678 112.222C46.3858 108.313 42.0528 104.11 38.0108 99.6442C34.2538 95.4932 30.3128 91.3182 28.2748 86.0052C26.7028 81.9112 31.4388 83.6342 33.1918 84.5852C35.3368 85.7492 37.4058 87.2342 39.2488 88.8372C46.1768 94.8642 52.5078 101.576 58.1188 108.846C60.8588 112.393 63.4598 116.141 64.8798 120.392C66.2988 124.643 66.4158 129.502 64.3048 133.455" stroke="#2250FF"/>
<path fill-rule="evenodd" clip-rule="evenodd" d="M163.726 56.4267C163.726 33.7327 182.124 15.3347 204.819 15.3347C227.513 15.3347 245.911 33.7327 245.911 56.4267C245.911 73.8607 235.036 88.7217 219.714 94.6917V103.34H189.923V94.6917C174.601 88.7217 163.726 73.8607 163.726 56.4267Z" fill="#E1DFEB"/>
<path fill-rule="evenodd" clip-rule="evenodd" d="M163.726 56.4267C163.726 33.7327 182.124 15.3347 204.819 15.3347C227.513 15.3347 245.911 33.7327 245.911 56.4267C245.911 73.8607 235.036 88.7217 219.714 94.6917V103.34H189.923V94.6917C174.601 88.7217 163.726 73.8607 163.726 56.4267Z" stroke="#0E0916" stroke-width="0.75" stroke-linecap="round" stroke-linejoin="round"/>
<path d="M211.961 102.146C211.961 102.146 215.364 63.9331 220.16 64.5511C224.957 65.1701 225.575 72.9061 208.558 72.1321C191.539 71.3581 187.053 70.7401 188.136 66.8721C189.219 63.0041 194.324 64.3961 196.026 73.2151C197.728 82.0341 199.894 102.146 199.894 102.146" stroke="#0E0916" stroke-width="0.75" stroke-linecap="round" stroke-linejoin="round"/>
<path fill-rule="evenodd" clip-rule="evenodd" d="M188.463 110.36H221.173C221.738 110.36 222.196 109.902 222.196 109.337V104.363C222.196 103.798 221.738 103.34 221.173 103.34H188.463C187.898 103.34 187.44 103.798 187.44 104.363V109.337C187.44 109.902 187.898 110.36 188.463 110.36Z" fill="#FFA578"/>
<path fill-rule="evenodd" clip-rule="evenodd" d="M188.463 110.36H221.173C221.738 110.36 222.196 109.902 222.196 109.337V104.363C222.196 103.798 221.738 103.34 221.173 103.34H188.463C187.898 103.34 187.44 103.798 187.44 104.363V109.337C187.44 109.902 187.898 110.36 188.463 110.36Z" stroke="#0E0916" stroke-width="0.75" stroke-linecap="round" stroke-linejoin="round"/>
<path fill-rule="evenodd" clip-rule="evenodd" d="M188.463 117.379H221.173C221.738 117.379 222.196 116.921 222.196 116.356V111.383C222.196 110.817 221.738 110.359 221.173 110.359H188.463C187.898 110.359 187.44 110.817 187.44 111.383V116.356C187.44 116.921 187.898 117.379 188.463 117.379Z" fill="#FFA578"/>
<path fill-rule="evenodd" clip-rule="evenodd" d="M188.463 117.379H221.173C221.738 117.379 222.196 116.921 222.196 116.356V111.383C222.196 110.817 221.738 110.359 221.173 110.359H188.463C187.898 110.359 187.44 110.817 187.44 111.383V116.356C187.44 116.921 187.898 117.379 188.463 117.379Z" stroke="#0E0916" stroke-width="0.75" stroke-linecap="round" stroke-linejoin="round"/>
<path fill-rule="evenodd" clip-rule="evenodd" d="M188.463 124.399H221.173C221.738 124.399 222.196 123.941 222.196 123.376V118.402C222.196 117.837 221.738 117.379 221.173 117.379H188.463C187.898 117.379 187.44 117.837 187.44 118.402V123.376C187.44 123.941 187.898 124.399 188.463 124.399Z" fill="#FFA578"/>
<path fill-rule="evenodd" clip-rule="evenodd" d="M188.463 124.399H221.173C221.738 124.399 222.196 123.941 222.196 123.376V118.402C222.196 117.837 221.738 117.379 221.173 117.379H188.463C187.898 117.379 187.44 117.837 187.44 118.402V123.376C187.44 123.941 187.898 124.399 188.463 124.399Z" stroke="#0E0916" stroke-width="0.75" stroke-linecap="round" stroke-linejoin="round"/>
<path fill-rule="evenodd" clip-rule="evenodd" d="M219.17 114.089C219.17 114.089 229.059 122.319 234.457 127.651C227.689 130.474 221.247 133.282 216.396 135.431L211.734 130.631L219.17 114.089Z" fill="#F6F7F9"/>
<path fill-rule="evenodd" clip-rule="evenodd" d="M219.17 114.089C219.17 114.089 229.059 122.319 234.457 127.651C227.689 130.474 221.247 133.282 216.396 135.431L211.734 130.631L219.17 114.089Z" stroke="#340096" stroke-width="0.75" stroke-linecap="round" stroke-linejoin="round"/>
<path fill-rule="evenodd" clip-rule="evenodd" d="M211.735 130.631L216.396 135.431C211.219 137.725 207.852 139.267 207.852 139.267L211.735 130.631Z" fill="#2250FF"/>
<path fill-rule="evenodd" clip-rule="evenodd" d="M211.735 130.631L216.396 135.431C211.219 137.725 207.852 139.267 207.852 139.267L211.735 130.631Z" stroke="#340096" stroke-width="0.75" stroke-linecap="round" stroke-linejoin="round"/>
<path fill-rule="evenodd" clip-rule="evenodd" d="M274.171 82.2016L258.4 68.3936L219.152 114.095L234.468 127.654L274.171 82.2016Z" fill="#2250FF"/>
<path fill-rule="evenodd" clip-rule="evenodd" d="M274.171 82.2016L258.4 68.3936L219.152 114.095L234.468 127.654L274.171 82.2016Z" stroke="#340096" stroke-width="0.75" stroke-linecap="round" stroke-linejoin="round"/>
<path fill-rule="evenodd" clip-rule="evenodd" d="M280.691 75.0361C281.597 66.8481 275.031 60.5451 264.917 61.2191C262.481 64.0021 260.039 66.7861 257.601 69.5691C262.869 74.1611 268.129 78.7731 273.393 83.3751C275.824 80.5901 278.255 77.8141 280.691 75.0361Z" fill="#FFD8BA"/>
<path fill-rule="evenodd" clip-rule="evenodd" d="M280.691 75.0361C281.597 66.8481 275.031 60.5451 264.917 61.2191C262.481 64.0021 260.039 66.7861 257.601 69.5691C262.869 74.1611 268.129 78.7731 273.393 83.3751C275.824 80.5901 278.255 77.8141 280.691 75.0361Z" stroke="#340096" stroke-width="0.75" stroke-linecap="round" stroke-linejoin="round"/>
<path fill-rule="evenodd" clip-rule="evenodd" d="M275.496 80.982C269.456 75.289 264.945 71.444 259.717 67.166C257.276 69.949 254.846 72.732 252.406 75.515C257.667 80.108 262.928 84.72 268.186 89.322C270.617 86.535 273.06 83.76 275.496 80.982Z" fill="#F2F0FF"/>
<path fill-rule="evenodd" clip-rule="evenodd" d="M275.496 80.982C269.456 75.289 264.945 71.444 259.717 67.166C257.276 69.949 254.846 72.732 252.406 75.515C257.667 80.108 262.928 84.72 268.186 89.322C270.617 86.535 273.06 83.76 275.496 80.982Z" stroke="#340096" stroke-width="0.75" stroke-linecap="round" stroke-linejoin="round"/>
<path fill-rule="evenodd" clip-rule="evenodd" d="M239.991 1L215.481 31.601H233.175L225.633 54.66L248.838 23.769H231.903L239.991 1Z" fill="#FFA578"/>
<path fill-rule="evenodd" clip-rule="evenodd" d="M239.991 1L215.481 31.601H233.175L225.633 54.66L248.838 23.769H231.903L239.991 1Z" stroke="#0E0916" stroke-width="0.75" stroke-linecap="round" stroke-linejoin="round"/>
<path fill-rule="evenodd" clip-rule="evenodd" d="M101.03 55.8838L101.212 57.4658C101.584 60.7188 104.64 62.9708 107.858 62.3628L109.58 62.0378L107.875 62.9078C104.941 64.4048 103.91 68.0868 105.639 70.8898L106.369 72.0708L104.994 70.7658C102.804 68.6898 99.3692 68.7048 97.1982 70.8008L95.8352 72.1168L96.5532 70.9298C98.2592 68.1128 97.1952 64.4388 94.2482 62.9678L92.5352 62.1128L94.2592 62.4238C97.4822 63.0028 100.519 60.7238 100.863 57.4668L101.03 55.8838Z" fill="#F2F0FF"/>
<path fill-rule="evenodd" clip-rule="evenodd" d="M101.03 55.8838L101.212 57.4658C101.584 60.7188 104.64 62.9708 107.858 62.3628L109.58 62.0378L107.875 62.9078C104.941 64.4048 103.91 68.0868 105.639 70.8898L106.369 72.0708L104.994 70.7658C102.804 68.6898 99.3692 68.7048 97.1982 70.8008L95.8352 72.1168L96.5532 70.9298C98.2592 68.1128 97.1952 64.4388 94.2482 62.9678L92.5352 62.1128L94.2592 62.4238C97.4822 63.0028 100.519 60.7238 100.863 57.4668L101.03 55.8838Z" stroke="#0E0916" stroke-width="0.75" stroke-linecap="round" stroke-linejoin="round"/>
<path fill-rule="evenodd" clip-rule="evenodd" d="M110.661 131.704L111.808 132.808C114.169 135.077 117.96 134.865 120.053 132.346L121.172 130.998L120.412 132.755C119.105 135.778 120.657 139.273 123.776 140.331L125.091 140.777L123.199 140.647C120.189 140.442 117.551 142.643 117.214 145.642L117.002 147.525L116.799 146.152C116.317 142.894 113.157 140.741 109.948 141.485L108.084 141.918L109.61 141.058C112.464 139.451 113.351 135.759 111.541 133.031L110.661 131.704Z" fill="#F2F0FF"/>
<path fill-rule="evenodd" clip-rule="evenodd" d="M110.661 131.704L111.808 132.808C114.169 135.077 117.96 134.865 120.053 132.346L121.172 130.998L120.412 132.755C119.105 135.778 120.657 139.273 123.776 140.331L125.091 140.777L123.199 140.647C120.189 140.442 117.551 142.643 117.214 145.642L117.002 147.525L116.799 146.152C116.317 142.894 113.157 140.741 109.948 141.485L108.084 141.918L109.61 141.058C112.464 139.451 113.351 135.759 111.541 133.031L110.661 131.704Z" stroke="#0E0916" stroke-width="0.75" stroke-linecap="round" stroke-linejoin="round"/>
</svg>
