<svg width="24" height="24" viewBox="0 0 24 24" fill="none" xmlns="http://www.w3.org/2000/svg">
<path d="M9 7.5C9 8.29565 9.31607 9.05871 9.87868 9.62132C10.4413 10.1839 11.2044 10.5 12 10.5C12.7956 10.5 13.5587 10.1839 14.1213 9.62132C14.6839 9.05871 15 8.29565 15 7.5C15 6.70435 14.6839 5.94129 14.1213 5.37868C13.5587 4.81607 12.7956 4.5 12 4.5C11.2044 4.5 10.4413 4.81607 9.87868 5.37868C9.31607 5.94129 9 6.70435 9 7.5V7.5Z" stroke="#0E0916" stroke-width="1.5" stroke-linecap="round" stroke-linejoin="round"/>
<path d="M12 0.75C13.7902 0.75 15.5071 1.46116 16.773 2.72703C18.0388 3.9929 18.75 5.70979 18.75 7.5C18.75 10.751 13.618 18.027 12.304 19.837C12.269 19.8847 12.2232 19.9236 12.1704 19.9503C12.1176 19.9771 12.0592 19.991 12 19.991C11.9408 19.991 11.8824 19.9771 11.8296 19.9503C11.7768 19.9236 11.731 19.8847 11.696 19.837C10.382 18.027 5.25 10.751 5.25 7.5C5.25 5.70979 5.96116 3.9929 7.22703 2.72703C8.4929 1.46116 10.2098 0.75 12 0.75V0.75Z" stroke="#0E0916" stroke-width="1.5" stroke-linecap="round" stroke-linejoin="round"/>
<path d="M17.979 17.7839C20.711 18.3249 22.5 19.2279 22.5 20.2499C22.5 21.9069 17.8 23.2499 12 23.2499C6.2 23.2499 1.5 21.9069 1.5 20.2499C1.5 19.2299 3.281 18.3289 6 17.7869" stroke="#0E0916" stroke-width="1.5" stroke-linecap="round" stroke-linejoin="round"/>
</svg>
