<svg width="223" height="186" viewBox="0 0 223 186" fill="none" xmlns="http://www.w3.org/2000/svg">
<path fill-rule="evenodd" clip-rule="evenodd" d="M32.1242 95.7597L32.2792 97.1727C32.6002 100.079 35.3202 102.103 38.1952 101.572L39.7342 101.289L38.2082 102.059C35.5832 103.384 34.6472 106.668 36.1822 109.177L36.8272 110.235L35.6042 109.065C33.6582 107.202 30.5902 107.202 28.6442 109.065L27.4212 110.235L28.0672 109.177C29.6012 106.668 28.6652 103.384 26.0402 102.059L24.5142 101.289L26.0532 101.572C28.9282 102.103 31.6482 100.079 31.9692 97.1727L32.1242 95.7597Z" fill="#FFD8BA"/>
<path fill-rule="evenodd" clip-rule="evenodd" d="M32.1242 95.7597L32.2792 97.1727C32.6002 100.079 35.3202 102.103 38.1952 101.572L39.7342 101.289L38.2082 102.059C35.5832 103.384 34.6472 106.668 36.1822 109.177L36.8272 110.235L35.6042 109.065C33.6582 107.202 30.5902 107.202 28.6442 109.065L27.4212 110.235L28.0672 109.177C29.6012 106.668 28.6652 103.384 26.0402 102.059L24.5142 101.289L26.0532 101.572C28.9282 102.103 31.6482 100.079 31.9692 97.1727L32.1242 95.7597Z" stroke="#0E0916" stroke-width="0.75" stroke-linecap="round" stroke-linejoin="round"/>
<path fill-rule="evenodd" clip-rule="evenodd" d="M183.508 1L183.663 2.413C183.983 5.32 186.703 7.343 189.579 6.812L191.117 6.529L189.592 7.299C186.966 8.624 186.031 11.908 187.565 14.418L188.211 15.475L186.988 14.305C185.042 12.442 181.973 12.442 180.027 14.305L178.804 15.475L179.45 14.418C180.985 11.908 180.049 8.624 177.423 7.299L175.898 6.529L177.436 6.812C180.312 7.343 183.032 5.32 183.352 2.413L183.508 1Z" fill="#FFD8BA"/>
<path fill-rule="evenodd" clip-rule="evenodd" d="M183.508 1L183.663 2.413C183.983 5.32 186.703 7.343 189.579 6.812L191.117 6.529L189.592 7.299C186.966 8.624 186.031 11.908 187.565 14.418L188.211 15.475L186.988 14.305C185.042 12.442 181.973 12.442 180.027 14.305L178.804 15.475L179.45 14.418C180.985 11.908 180.049 8.624 177.423 7.299L175.898 6.529L177.436 6.812C180.312 7.343 183.032 5.32 183.352 2.413L183.508 1Z" stroke="#0E0916" stroke-width="0.75" stroke-linecap="round" stroke-linejoin="round"/>
<path fill-rule="evenodd" clip-rule="evenodd" d="M209.565 25.042C219.061 36.731 187.792 74.996 139.723 110.509C91.6543 146.022 44.9883 165.336 35.4923 153.647C25.9953 141.959 57.2643 103.694 105.334 68.181C153.402 32.667 200.068 13.354 209.565 25.042Z" stroke="#0E0916" stroke-width="0.75" stroke-linecap="round" stroke-linejoin="round"/>
<path fill-rule="evenodd" clip-rule="evenodd" d="M221.149 132.024C215.297 146.712 161.934 140.63 101.959 118.441C41.9826 96.2534 -1.89239 66.3584 3.95961 51.6704C9.81061 36.9824 63.1736 43.0644 123.149 65.2534C183.125 87.4414 227.001 117.336 221.149 132.024Z" stroke="#0E0916" stroke-width="0.75" stroke-linecap="round" stroke-linejoin="round"/>
<path fill-rule="evenodd" clip-rule="evenodd" d="M176.752 107.614L181.229 99.4062C181.229 99.4062 184.185 102.251 185.891 104.176C181.025 105.836 176.752 107.614 176.752 107.614Z" fill="#F2F0FF"/>
<path fill-rule="evenodd" clip-rule="evenodd" d="M176.752 107.614L181.229 99.4062C181.229 99.4062 184.185 102.251 185.891 104.176C181.025 105.836 176.752 107.614 176.752 107.614Z" stroke="#0E0916" stroke-width="0.75" stroke-linecap="round" stroke-linejoin="round"/>
<path fill-rule="evenodd" clip-rule="evenodd" d="M178.14 104.638L179.82 106.615L176.676 107.942L176.324 107.861L178.14 104.638Z" fill="#2250FF"/>
<path fill-rule="evenodd" clip-rule="evenodd" d="M178.14 104.638L179.82 106.615L176.676 107.942L176.324 107.861L178.14 104.638Z" stroke="#0E0916" stroke-width="0.75" stroke-linecap="round" stroke-linejoin="round"/>
<path fill-rule="evenodd" clip-rule="evenodd" d="M200.48 89.7998L195.455 84.7728L181.144 99.3518L186.021 104.285L200.48 89.7998Z" fill="#FFA578"/>
<path fill-rule="evenodd" clip-rule="evenodd" d="M200.48 89.7998L195.455 84.7728L181.144 99.3518L186.021 104.285L200.48 89.7998Z" stroke="#0E0916" stroke-width="0.75" stroke-linecap="round" stroke-linejoin="round"/>
<path fill-rule="evenodd" clip-rule="evenodd" d="M202.847 87.5224C203.338 84.7724 201.259 82.4914 197.821 82.4914C196.934 83.3784 196.045 84.2654 195.158 85.1514C196.836 86.8244 198.512 88.5034 200.19 90.1794C201.076 89.2924 201.96 88.4074 202.847 87.5224Z" fill="#FFA578"/>
<path fill-rule="evenodd" clip-rule="evenodd" d="M202.847 87.5224C203.338 84.7724 201.259 82.4914 197.821 82.4914C196.934 83.3784 196.045 84.2654 195.158 85.1514C196.836 86.8244 198.512 88.5034 200.19 90.1794C201.076 89.2924 201.96 88.4074 202.847 87.5224Z" stroke="#0E0916" stroke-width="0.75" stroke-linecap="round" stroke-linejoin="round"/>
<path fill-rule="evenodd" clip-rule="evenodd" d="M200.955 89.4175C199.04 87.3545 197.601 85.9525 195.928 84.3865C195.039 85.2725 194.154 86.1605 193.266 87.0465C194.942 88.7195 196.618 90.3985 198.294 92.0745C199.179 91.1865 200.068 90.3025 200.955 89.4175Z" fill="#F2F0FF"/>
<path fill-rule="evenodd" clip-rule="evenodd" d="M200.955 89.4175C199.04 87.3545 197.601 85.9525 195.928 84.3865C195.039 85.2725 194.154 86.1605 193.266 87.0465C194.942 88.7195 196.618 90.3985 198.294 92.0745C199.179 91.1865 200.068 90.3025 200.955 89.4175Z" stroke="#0E0916" stroke-width="0.75" stroke-linecap="round" stroke-linejoin="round"/>
<path fill-rule="evenodd" clip-rule="evenodd" d="M114.725 54.5614C118.467 49.2854 123.26 45.2374 129.183 42.5734C152.107 32.2674 178.089 49.0944 178.295 74.2214C178.369 83.1894 175.252 90.6954 169.574 97.4324C153.362 116.666 134.894 133.632 116.384 150.559C116.169 150.755 115.928 150.922 115.612 151.172C115.096 150.741 114.605 150.343 114.129 149.927C98.1416 135.976 82.3036 121.859 67.7376 106.401C63.8726 102.301 60.2226 97.9644 56.8146 93.4774C51.7986 86.8744 50.7036 79.1174 51.6186 71.1424C53.4406 55.2384 64.6526 43.2194 80.4486 40.5914C93.4966 38.4204 104.449 42.7504 113.124 52.7594C113.609 53.3184 114.066 53.9014 114.539 54.4714C114.568 54.5054 114.626 54.5154 114.725 54.5614Z" fill="#BC99FF"/>
<path fill-rule="evenodd" clip-rule="evenodd" d="M114.725 54.5614C118.467 49.2854 123.26 45.2374 129.183 42.5734C152.107 32.2674 178.089 49.0944 178.295 74.2214C178.369 83.1894 175.252 90.6954 169.574 97.4324C153.362 116.666 134.894 133.632 116.384 150.559C116.169 150.755 115.928 150.922 115.612 151.172C115.096 150.741 114.605 150.343 114.129 149.927C98.1416 135.976 82.3036 121.859 67.7376 106.401C63.8726 102.301 60.2226 97.9644 56.8146 93.4774C51.7986 86.8744 50.7036 79.1174 51.6186 71.1424C53.4406 55.2384 64.6526 43.2194 80.4486 40.5914C93.4966 38.4204 104.449 42.7504 113.124 52.7594C113.609 53.3184 114.066 53.9014 114.539 54.4714C114.568 54.5054 114.626 54.5154 114.725 54.5614Z" stroke="#0E0916" stroke-linecap="round" stroke-linejoin="round"/>
<path d="M209.566 25.042C219.062 36.731 187.793 74.996 139.724 110.509C91.6547 146.022 44.9887 165.336 35.4927 153.647" stroke="#0E0916" stroke-width="0.75" stroke-linecap="round" stroke-linejoin="round"/>
<path d="M221.149 132.024C215.297 146.712 161.934 140.63 101.959 118.441C41.9826 96.2534 -1.89239 66.3584 3.95961 51.6704" stroke="#0E0916" stroke-width="0.75" stroke-linecap="round" stroke-linejoin="round"/>
<path fill-rule="evenodd" clip-rule="evenodd" d="M203.485 147.244L206.032 146.621C208.922 145.915 210.707 143.018 210.04 140.12L208.54 133.604C208.428 133.149 208.181 132.805 207.797 132.572C207.415 132.339 206.995 132.279 206.54 132.39C206.084 132.501 205.74 132.748 205.507 133.132C205.274 133.515 205.214 133.935 205.325 134.39L205.004 134.469L204.768 133.504C204.657 133.049 204.409 132.705 204.026 132.472C203.642 132.239 203.223 132.179 202.767 132.29C202.312 132.401 201.967 132.648 201.735 133.032C201.503 133.415 201.442 133.835 201.553 134.29L201.789 135.255L201.467 135.333L201.074 133.726C200.963 133.27 200.715 132.926 200.332 132.694C199.949 132.461 199.529 132.4 199.074 132.511C198.619 132.623 198.274 132.87 198.042 133.253C197.809 133.637 197.748 134.056 197.859 134.512L198.253 136.119L197.931 136.198L195.966 128.161C195.855 127.705 195.607 127.361 195.224 127.128C194.84 126.895 194.422 126.835 193.965 126.946C193.51 127.057 193.167 127.305 192.933 127.688C192.701 128.072 192.64 128.491 192.752 128.947L195.463 140.038L193.745 138.584C193.419 138.295 193.026 138.17 192.567 138.212C192.109 138.253 191.73 138.445 191.43 138.787C191.131 139.131 191.002 139.531 191.043 139.99C191.084 140.448 191.285 140.832 191.644 141.141L194.837 144.622C197.026 147.008 200.339 148.013 203.485 147.244Z" fill="#F2F0FF"/>
<path fill-rule="evenodd" clip-rule="evenodd" d="M203.485 147.244L206.032 146.621C208.922 145.915 210.707 143.018 210.04 140.12L208.54 133.604C208.428 133.149 208.181 132.805 207.797 132.572C207.415 132.339 206.995 132.279 206.54 132.39C206.084 132.501 205.74 132.748 205.507 133.132C205.274 133.515 205.214 133.935 205.325 134.39L205.004 134.469L204.768 133.504C204.657 133.049 204.409 132.705 204.026 132.472C203.642 132.239 203.223 132.179 202.767 132.29C202.312 132.401 201.967 132.648 201.735 133.032C201.503 133.415 201.442 133.835 201.553 134.29L201.789 135.255L201.467 135.333L201.074 133.726C200.963 133.27 200.715 132.926 200.332 132.694C199.949 132.461 199.529 132.4 199.074 132.511C198.619 132.623 198.274 132.87 198.042 133.253C197.809 133.637 197.748 134.056 197.859 134.512L198.253 136.119L197.931 136.198L195.966 128.161C195.855 127.705 195.607 127.361 195.224 127.128C194.84 126.895 194.422 126.835 193.965 126.946C193.51 127.057 193.167 127.305 192.933 127.688C192.701 128.072 192.64 128.491 192.752 128.947L195.463 140.038L193.745 138.584C193.419 138.295 193.026 138.17 192.567 138.212C192.109 138.253 191.73 138.445 191.43 138.787C191.131 139.131 191.002 139.531 191.043 139.99C191.084 140.448 191.285 140.832 191.644 141.141L194.837 144.622C197.026 147.008 200.339 148.013 203.485 147.244Z" stroke="#0E0916" stroke-width="0.75" stroke-linecap="round" stroke-linejoin="round"/>
<path fill-rule="evenodd" clip-rule="evenodd" d="M206.648 141.318L206.583 141.334C206.503 141.353 206.423 141.305 206.405 141.225L205.597 137.924C205.578 137.845 205.627 137.765 205.706 137.746L205.77 137.73C205.85 137.711 205.929 137.759 205.949 137.839L206.756 141.139C206.775 141.219 206.727 141.298 206.648 141.318Z" fill="#F6F7F9"/>
<path fill-rule="evenodd" clip-rule="evenodd" d="M206.648 141.318L206.583 141.334C206.503 141.353 206.423 141.305 206.405 141.225L205.597 137.924C205.578 137.845 205.627 137.765 205.706 137.746L205.77 137.73C205.85 137.711 205.929 137.759 205.949 137.839L206.756 141.139C206.775 141.219 206.727 141.298 206.648 141.318Z" stroke="#0E0916" stroke-width="0.75" stroke-linecap="round" stroke-linejoin="round"/>
<path fill-rule="evenodd" clip-rule="evenodd" d="M203.396 142.113L203.332 142.129C203.252 142.148 203.172 142.099 203.153 142.02L202.346 138.719C202.327 138.64 202.375 138.56 202.455 138.541L202.519 138.525C202.598 138.506 202.678 138.554 202.698 138.633L203.504 141.934C203.524 142.013 203.475 142.093 203.396 142.113Z" fill="#F6F7F9"/>
<path fill-rule="evenodd" clip-rule="evenodd" d="M203.396 142.113L203.332 142.129C203.252 142.148 203.172 142.099 203.153 142.02L202.346 138.719C202.327 138.64 202.375 138.56 202.455 138.541L202.519 138.525C202.598 138.506 202.678 138.554 202.698 138.633L203.504 141.934C203.524 142.013 203.475 142.093 203.396 142.113Z" stroke="#0E0916" stroke-width="0.75" stroke-linecap="round" stroke-linejoin="round"/>
<path fill-rule="evenodd" clip-rule="evenodd" d="M200.144 142.908L200.08 142.924C200 142.943 199.92 142.894 199.901 142.815L199.094 139.514C199.075 139.435 199.123 139.355 199.203 139.336L199.267 139.32C199.346 139.301 199.426 139.349 199.446 139.428L200.252 142.729C200.272 142.808 200.224 142.888 200.144 142.908Z" fill="#F6F7F9"/>
<path fill-rule="evenodd" clip-rule="evenodd" d="M200.144 142.908L200.08 142.924C200 142.943 199.92 142.894 199.901 142.815L199.094 139.514C199.075 139.435 199.123 139.355 199.203 139.336L199.267 139.32C199.346 139.301 199.426 139.349 199.446 139.428L200.252 142.729C200.272 142.808 200.224 142.888 200.144 142.908Z" stroke="#0E0916" stroke-width="0.75" stroke-linecap="round" stroke-linejoin="round"/>
<path fill-rule="evenodd" clip-rule="evenodd" d="M29.419 66.4926C29.419 60.5106 24.569 55.6606 18.587 55.6606C12.603 55.6606 7.75195 60.5106 7.75195 66.4926C7.75195 72.4736 12.603 77.3246 18.587 77.3246C24.569 77.3246 29.419 72.4736 29.419 66.4926Z" fill="#E6E2FF"/>
<path fill-rule="evenodd" clip-rule="evenodd" d="M29.419 66.4926C29.419 60.5106 24.569 55.6606 18.587 55.6606C12.603 55.6606 7.75195 60.5106 7.75195 66.4926C7.75195 72.4736 12.603 77.3246 18.587 77.3246C24.569 77.3246 29.419 72.4736 29.419 66.4926Z" stroke="#0E0916" stroke-width="0.75" stroke-linecap="round" stroke-linejoin="round"/>
<path fill-rule="evenodd" clip-rule="evenodd" d="M14.504 66.4927C14.504 62.7637 11.481 59.7397 7.752 59.7397C4.024 59.7397 1 62.7637 1 66.4927C1 70.2207 4.024 73.2487 7.752 73.2487C11.481 73.2487 14.504 70.2207 14.504 66.4927Z" stroke="#0E0916" stroke-width="0.75" stroke-linecap="round" stroke-linejoin="round"/>
<path fill-rule="evenodd" clip-rule="evenodd" d="M21.2727 87.6264L20.3477 65.9824L35.8577 79.5364L27.5757 80.1734L21.2727 87.6264Z" fill="#FFA578"/>
<path fill-rule="evenodd" clip-rule="evenodd" d="M21.2727 87.6264L20.3477 65.9824L35.8577 79.5364L27.5757 80.1734L21.2727 87.6264Z" stroke="#0E0916" stroke-width="0.75" stroke-linecap="round" stroke-linejoin="round"/>
<path fill-rule="evenodd" clip-rule="evenodd" d="M192.198 30.0196L166.462 15.0496L160.607 25.1096L186.347 40.0776L192.198 30.0196Z" fill="#FFA578"/>
<path fill-rule="evenodd" clip-rule="evenodd" d="M192.198 30.0196L166.462 15.0496L160.607 25.1096L186.347 40.0776L192.198 30.0196Z" stroke="#0E0916" stroke-width="0.75" stroke-linecap="round" stroke-linejoin="round"/>
<path fill-rule="evenodd" clip-rule="evenodd" d="M192.195 29.9897L166.468 15.0327L165.479 16.7267L191.207 31.6897L192.195 29.9897Z" fill="#E6E2FF"/>
<path fill-rule="evenodd" clip-rule="evenodd" d="M192.195 29.9897L166.468 15.0327L165.479 16.7267L191.207 31.6897L192.195 29.9897Z" stroke="#0E0916" stroke-width="0.75" stroke-linecap="round" stroke-linejoin="round"/>
<path d="M170.681 26.6431L173.679 21.4941" stroke="#0E0916" stroke-width="0.75" stroke-linecap="round" stroke-linejoin="round"/>
<path d="M180.041 32.0869L183.034 26.9359" stroke="#0E0916" stroke-width="0.75" stroke-linecap="round" stroke-linejoin="round"/>
<path d="M176.021 27.8682L178.201 24.1232" stroke="#0E0916" stroke-width="0.75" stroke-linecap="round" stroke-linejoin="round"/>
<path d="M185.575 33.1676L187.581 29.7166" stroke="#0E0916" stroke-width="0.75" stroke-linecap="round" stroke-linejoin="round"/>
<path d="M166.893 22.5605L169.071 18.8145" stroke="#0E0916" stroke-width="0.75" stroke-linecap="round" stroke-linejoin="round"/>
<path fill-rule="evenodd" clip-rule="evenodd" d="M137.099 174.581L154.348 164.989C154.348 164.989 157.174 159.535 149.842 161.914C142.509 164.293 126.676 171.41 126.676 171.41L137.635 174.694" fill="#FFEBDE"/>
<path d="M137.099 174.581L154.348 164.989C154.348 164.989 157.174 159.535 149.842 161.914C142.509 164.293 126.676 171.41 126.676 171.41L137.635 174.694" stroke="#0E0916" stroke-width="0.75" stroke-linecap="round" stroke-linejoin="round"/>
<path fill-rule="evenodd" clip-rule="evenodd" d="M128.745 172.984L145.074 161.9C145.074 161.9 147.406 156.216 140.313 159.236C133.221 162.257 118.082 170.751 118.082 170.751L129.289 173.049" fill="#FFEBDE"/>
<path d="M128.745 172.984L145.074 161.9C145.074 161.9 147.406 156.216 140.313 159.236C133.221 162.257 118.082 170.751 118.082 170.751L129.289 173.049" stroke="#0E0916" stroke-width="0.75" stroke-linecap="round" stroke-linejoin="round"/>
<path fill-rule="evenodd" clip-rule="evenodd" d="M118.447 172.948L134.777 161.863C134.777 161.863 137.108 156.179 130.016 159.2C122.924 162.22 107.785 170.714 107.785 170.714L118.992 173.012" fill="#FFEBDE"/>
<path d="M118.447 172.948L134.777 161.863C134.777 161.863 137.108 156.179 130.016 159.2C122.924 162.22 107.785 170.714 107.785 170.714L118.992 173.012" stroke="#0E0916" stroke-width="0.75" stroke-linecap="round" stroke-linejoin="round"/>
<path fill-rule="evenodd" clip-rule="evenodd" d="M63.4219 159.544L64.5919 180.624C64.5919 180.624 80.4029 177.338 91.6049 179.468C102.806 181.598 111.879 185.857 125.1 183.708C138.32 181.558 163.412 175.332 163.394 172.043C163.378 169.235 163.076 169.288 147.84 170.902C132.605 172.516 123.871 175.161 118.987 173.351" fill="#FFEBDE"/>
<path d="M63.4219 159.544L64.5919 180.624C64.5919 180.624 80.4029 177.338 91.6049 179.468C102.806 181.598 111.879 185.857 125.1 183.708C138.32 181.558 163.412 175.332 163.394 172.043C163.378 169.235 163.076 169.288 147.84 170.902C132.605 172.516 123.871 175.161 118.987 173.351" stroke="#0E0916" stroke-width="0.75" stroke-linecap="round" stroke-linejoin="round"/>
<path fill-rule="evenodd" clip-rule="evenodd" d="M63.4219 159.544C63.4219 159.544 86.6809 159.728 92.5059 157.592C97.8199 155.644 113.161 164.099 115.811 165.597C116.069 165.744 116.35 165.84 116.644 165.883C123.115 166.822 140.118 170.365 139.667 173.552C139.205 176.815 135.987 178.268 129.698 177.282C123.409 176.296 106.693 175.359 101.143 173.521" fill="#FFEBDE"/>
<path d="M63.4219 159.544C63.4219 159.544 86.6809 159.728 92.5059 157.592C97.8199 155.644 113.161 164.099 115.811 165.597C116.069 165.744 116.35 165.84 116.644 165.883C123.115 166.822 140.118 170.365 139.667 173.552C139.205 176.815 135.987 178.268 129.698 177.282C123.409 176.296 106.693 175.359 101.143 173.521" stroke="#0E0916" stroke-width="0.75" stroke-linecap="round" stroke-linejoin="round"/>
<path fill-rule="evenodd" clip-rule="evenodd" d="M1.49805 182.994C8.83105 186.375 59.751 184.89 74.221 182.683C74.361 180.65 76.693 153.447 74.314 153.261C38.934 150.49 24.748 149.204 17.405 146.34" fill="white"/>
<mask id="mask0_1502_193" style="mask-type:alpha" maskUnits="userSpaceOnUse" x="4" y="145" width="72" height="28">
<path d="M16.7828 146.077C17.1108 146.027 17.2968 146.007 17.2968 146.007C17.1958 146.002 17.1098 146 17.0368 146C16.7848 146 16.7028 146.027 16.7828 146.077ZM8.40382 162.374C21.0058 177.151 62.5788 172.877 69.3548 169.299C76.1308 165.72 76.6938 153.447 74.3148 153.261C42.3378 150.756 17.7448 146.684 16.7828 146.077C13.6418 146.55 -2.44718 149.651 8.40382 162.374Z" fill="white"/>
</mask>
<g mask="url(#mask0_1502_193)">
<path fill-rule="evenodd" clip-rule="evenodd" d="M83.9397 158.207C83.9217 155.837 82.5027 122.179 79.7807 122.278C39.2797 123.747 -1.17534 119.436 4.19366 119.054C4.19366 119.054 -11.5813 152.783 10.8607 163.08C22.7997 168.558 67.6697 162.671 83.9397 158.207Z" fill="#F2F0FF"/>
</g>
<path d="M1.49805 182.994C8.83105 186.375 59.751 184.89 74.221 182.683C74.361 180.65 76.693 153.447 74.314 153.261C38.934 150.49 24.748 149.204 17.405 146.34" stroke="#0E0916" stroke-width="0.75" stroke-linecap="round" stroke-linejoin="round"/>
<path fill-rule="evenodd" clip-rule="evenodd" d="M155.103 103.885L153.682 103.829C150.76 103.713 148.355 106.102 148.452 109.025L148.503 110.588L147.969 108.965C147.049 106.172 143.941 104.759 141.231 105.902L140.089 106.384L141.428 105.348C143.56 103.701 144.016 100.666 142.463 98.4647L141.488 97.0817L142.438 97.8777C144.691 99.7677 148.078 99.3307 149.779 96.9317L150.767 95.5367L150.257 97.0157C149.306 99.7807 150.902 102.773 153.729 103.521L155.103 103.885Z" fill="#FFD8BA"/>
<path fill-rule="evenodd" clip-rule="evenodd" d="M155.103 103.885L153.682 103.829C150.76 103.713 148.355 106.102 148.452 109.025L148.503 110.588L147.969 108.965C147.049 106.172 143.941 104.759 141.231 105.902L140.089 106.384L141.428 105.348C143.56 103.701 144.016 100.666 142.463 98.4647L141.488 97.0817L142.438 97.8777C144.691 99.7677 148.078 99.3307 149.779 96.9317L150.767 95.5367L150.257 97.0157C149.306 99.7807 150.902 102.773 153.729 103.521L155.103 103.885Z" stroke="#0E0916" stroke-width="0.75" stroke-linecap="round" stroke-linejoin="round"/>
</svg>
