<svg width="256" height="157" viewBox="0 0 256 157" fill="none" xmlns="http://www.w3.org/2000/svg">
<path fill-rule="evenodd" clip-rule="evenodd" d="M76.9833 22.5392C75.3053 20.1632 70.9783 22.4432 70.9783 22.4432L70.8713 22.6122C70.8683 22.6022 70.8643 22.5932 70.8613 22.5832C70.9023 22.5362 70.9373 22.4912 70.9783 22.4432C74.5913 18.2702 72.3573 13.4932 67.9633 12.6902C63.5703 11.8872 57.5923 18.2992 55.2343 20.8182C53.7233 22.4312 52.0743 23.4712 51.0803 24.0122L49.6973 23.8292C48.9153 20.8692 48.4573 16.8352 48.1863 12.0112C47.7313 3.88524 33.4103 -1.00276 31.3373 1.79124C29.2653 4.58424 33.6853 8.66424 36.9063 12.3542C40.1283 16.0442 37.6273 29.1082 37.8393 41.6152C38.0513 54.1222 32.8693 68.7652 30.8443 73.8022C28.8213 78.8382 28.8223 89.3302 28.8223 89.3302L55.2133 95.5512C55.2133 95.5512 56.8793 79.0772 58.0213 74.7882C59.1633 70.4992 62.9943 68.6222 67.8283 63.8052C72.6623 58.9882 74.2483 53.1822 74.5753 52.7262L74.5893 52.4642C76.7603 51.8362 78.9033 50.5732 80.7153 49.2812C84.5293 46.5622 84.7103 43.4572 83.5073 41.5812C81.9493 39.1512 79.6133 40.4362 79.6133 40.4362L79.5103 40.5022C80.9133 38.5782 81.2673 36.5582 80.4383 34.4712C79.1333 31.1892 75.4483 31.9972 75.4483 31.9972L74.0043 33.4752C74.0043 33.4612 74.0023 33.4472 74.0013 33.4342C74.5173 32.9062 75.0003 32.4162 75.4483 31.9972C78.5833 29.0692 78.6623 24.9152 76.9833 22.5392Z" fill="white"/>
<path fill-rule="evenodd" clip-rule="evenodd" d="M76.9833 22.5392C75.3053 20.1632 70.9783 22.4432 70.9783 22.4432L70.8713 22.6122C70.8683 22.6022 70.8643 22.5932 70.8613 22.5832C70.9023 22.5362 70.9373 22.4912 70.9783 22.4432C74.5913 18.2702 72.3573 13.4932 67.9633 12.6902C63.5703 11.8872 57.5923 18.2992 55.2343 20.8182C53.7233 22.4312 52.0743 23.4712 51.0803 24.0122L49.6973 23.8292C48.9153 20.8692 48.4573 16.8352 48.1863 12.0112C47.7313 3.88524 33.4103 -1.00276 31.3373 1.79124C29.2653 4.58424 33.6853 8.66424 36.9063 12.3542C40.1283 16.0442 37.6273 29.1082 37.8393 41.6152C38.0513 54.1222 32.8693 68.7652 30.8443 73.8022C28.8213 78.8382 28.8223 89.3302 28.8223 89.3302L55.2133 95.5512C55.2133 95.5512 56.8793 79.0772 58.0213 74.7882C59.1633 70.4992 62.9943 68.6222 67.8283 63.8052C72.6623 58.9882 74.2483 53.1822 74.5753 52.7262L74.5893 52.4642C76.7603 51.8362 78.9033 50.5732 80.7153 49.2812C84.5293 46.5622 84.7103 43.4572 83.5073 41.5812C81.9493 39.1512 79.6133 40.4362 79.6133 40.4362L79.5103 40.5022C80.9133 38.5782 81.2673 36.5582 80.4383 34.4712C79.1333 31.1892 75.4483 31.9972 75.4483 31.9972L74.0043 33.4752C74.0043 33.4612 74.0023 33.4472 74.0013 33.4342C74.5173 32.9062 75.0003 32.4162 75.4483 31.9972C78.5833 29.0692 78.6623 24.9152 76.9833 22.5392Z" stroke="#0E0916" stroke-width="0.75"/>
<path d="M54.248 30.5739C54.248 30.5739 55.081 27.2979 59.722 22.8449C59.55 21.2059 60.396 20.2739 61.14 19.1899" stroke="#0E0916" stroke-width="0.75"/>
<path d="M28.8223 89.3302C28.8223 89.3302 28.8213 78.8382 30.8443 73.8022C32.8693 68.7652 38.0523 54.1222 37.8403 41.6152C37.6273 29.1082 40.1283 16.0442 36.9063 12.3542C33.6853 8.66424 29.2663 4.58424 31.3383 1.79124C33.4103 -1.00276 47.7313 3.88524 48.1863 12.0112C48.6413 20.1362 49.6233 26.0442 51.8033 28.2982C53.9843 30.5512 57.7143 34.3992 57.9513 40.2282C57.9513 40.2282 58.8103 48.8512 58.8523 50.8132" stroke="#0E0916" stroke-width="0.75"/>
<path d="M50.168 24.465C50.168 24.465 52.876 23.338 55.234 20.819C57.593 18.299 63.57 11.887 67.964 12.69C72.357 13.493 74.592 18.27 70.979 22.444C67.365 26.617 67.191 28.977 64.254 30.668C61.317 32.358 56.954 35.444 56.954 35.444" stroke="#0E0916" stroke-width="0.75"/>
<path d="M70.9786 22.4435C70.9786 22.4435 75.3056 20.1625 76.9836 22.5395C78.6626 24.9155 78.5826 29.0685 75.4486 31.9975C72.3126 34.9265 67.7536 41.0985 58.2266 42.4535" stroke="#0E0916" stroke-width="0.75"/>
<path d="M75.4483 31.9977C75.4483 31.9977 79.1343 31.1887 80.4383 34.4717C81.7433 37.7537 80.1273 40.8737 76.0933 43.7097C72.0573 46.5457 67.9523 48.7097 66.0533 49.1437C66.0533 49.1437 61.3623 50.7647 59.1543 48.6767" stroke="#0E0916" stroke-width="0.75"/>
<path d="M79.6134 40.4362C79.6134 40.4362 81.9494 39.1512 83.5084 41.5822C84.7104 43.4572 84.5294 46.5612 80.7164 49.2812C76.9034 51.9992 71.6314 54.6242 67.7004 51.3682C65.1894 49.2872 66.0654 49.1852 66.0654 49.1852" stroke="#0E0916" stroke-width="0.75"/>
<path d="M74.5754 52.7257C74.2484 53.1817 72.6624 58.9887 67.8284 63.8057C62.9944 68.6217 59.1634 70.4997 58.0214 74.7877C56.8794 79.0767 55.2144 95.5517 55.2144 95.5517" stroke="#0E0916" stroke-width="0.75"/>
<path fill-rule="evenodd" clip-rule="evenodd" d="M10.3594 155.983C11.9804 138.677 9.59538 139.031 17.7324 114.097C21.8374 101.521 21.2874 88.9551 24.1964 84.8491C24.1964 84.8491 44.6264 82.8991 52.8954 87.2851C57.8664 89.9211 62.6584 93.3281 62.6874 94.3861C62.7534 96.8151 58.5614 108.963 58.8284 114.982C59.0954 121 59.0154 144.583 55.7694 155.983" fill="#E6E2FF"/>
<mask id="mask0_1502_280" style="mask-type:alpha" maskUnits="userSpaceOnUse" x="10" y="84" width="53" height="72">
<path d="M24.1964 84.8492C21.2874 88.9552 21.8374 101.521 17.7324 114.097C9.59538 139.031 11.9804 138.677 10.3594 155.983H55.7694C59.0154 144.582 59.0954 121 58.8284 114.981C58.5614 108.963 62.7534 96.8152 62.6874 94.3852C62.6584 93.3282 57.8664 89.9212 52.8954 87.2852C48.5174 84.9632 40.7344 84.4172 34.3754 84.4172C28.7224 84.4172 24.1964 84.8492 24.1964 84.8492Z" fill="white"/>
</mask>
<g mask="url(#mask0_1502_280)">
<path fill-rule="evenodd" clip-rule="evenodd" d="M19.7346 60.4948C29.4046 61.5568 36.4926 70.8528 38.3286 80.4068C40.1636 89.9598 37.9466 99.7678 35.8876 109.275C32.4236 125.276 25.7206 178.794 25.3616 203.992C25.3096 207.633 24.2096 212.434 20.5726 212.61C19.1936 212.677 17.9046 211.961 16.7616 211.185C12.8106 208.5 9.60956 204.853 6.74456 201.03C1.34256 193.821 -3.02244 185.837 -6.17344 177.398C-8.83544 170.269 -10.6284 162.846 -12.1664 155.393C-22.9964 102.917 -20.7094 131.349 -6.65944 79.6408" fill="#D5BFFF"/>
</g>
<path d="M10.3594 155.983C11.9804 138.677 9.59537 139.031 17.7324 114.097C21.8374 101.521 21.2874 88.9551 24.1964 84.8491C24.1964 84.8491 44.6264 82.8991 52.8954 87.2851C57.8664 89.9211 62.6584 93.3281 62.6874 94.3861C62.7534 96.8151 58.5614 108.963 58.8284 114.982C59.0954 121 59.0154 144.583 55.7694 155.983" stroke="#0E0916" stroke-width="0.75"/>
<path fill-rule="evenodd" clip-rule="evenodd" d="M214.459 138.129C214.674 132.959 214.902 127.789 215.103 122.618C215.431 114.136 215.738 105.654 216.059 97.1716C216.111 95.7736 215.595 94.6646 214.429 93.8736C213.063 92.9476 211.853 91.8626 210.958 90.4596C209.76 88.5786 209.099 86.5116 209.152 84.2906C209.248 80.3296 209.442 76.3716 209.61 72.4126C209.822 67.3896 210.052 62.3676 210.268 57.3446C210.291 56.7846 210.421 56.3076 211.01 56.1036C211.741 55.8506 212.38 56.3566 212.41 57.2466C212.515 60.2666 212.605 63.2866 212.697 66.3066C212.855 71.5046 213.008 76.7036 213.165 81.9026C213.17 82.0746 213.136 82.2927 213.225 82.4087C213.374 82.6047 213.611 82.8636 213.804 82.8576C213.993 82.8506 214.275 82.5757 214.333 82.3687C214.437 81.9947 214.41 81.5837 214.422 81.1887C214.607 74.9757 214.789 68.7626 214.974 62.5506C215.024 60.8476 215.08 59.1456 215.138 57.4426C215.169 56.5226 215.54 56.0836 216.263 56.0956C216.899 56.1076 217.273 56.5746 217.304 57.4666C217.51 63.7226 217.709 69.9786 217.909 76.2336C217.97 78.1146 218.029 79.9966 218.086 81.8776C218.1 82.3356 218.092 82.8726 218.699 82.8756C219.311 82.8796 219.304 82.3386 219.317 81.8836C219.49 76.1406 219.656 70.3966 219.842 64.6536C219.922 62.1846 220.04 59.7156 220.148 57.2476C220.182 56.4896 220.578 56.0526 221.19 56.0616C221.845 56.0696 222.217 56.4546 222.241 57.2296C222.441 63.5416 222.632 69.8536 222.826 76.1656C222.886 78.0966 222.946 80.0266 223.009 81.9586C223.022 82.3946 223.054 82.8826 223.625 82.8786C224.202 82.8746 224.212 82.3746 224.226 81.9446C224.407 76.0036 224.585 70.0626 224.767 64.1216C224.836 61.8726 224.909 59.6246 224.99 57.3756C225.022 56.4916 225.388 56.0836 226.087 56.1006C226.764 56.1176 227.106 56.5056 227.143 57.3476C227.43 64.0006 227.712 70.6536 227.996 77.3066C228.088 79.4596 228.217 81.6106 228.269 83.7636C228.366 87.8886 226.734 91.1896 223.327 93.5176C221.751 94.5936 221.09 95.9286 221.187 97.8376C221.469 103.378 221.656 108.923 221.869 114.467C222.354 127.058 222.831 139.65 223.313 152.241C223.395 154.359 222.05 155.764 219.918 155.778C219.026 155.783 218.135 155.786 217.243 155.778C215.221 155.759 213.85 154.346 213.925 152.31C214.099 147.583 214.295 142.857 214.481 138.13C214.474 138.13 214.467 138.129 214.459 138.129Z" fill="#2250FF"/>
<path fill-rule="evenodd" clip-rule="evenodd" d="M214.459 138.129C214.674 132.959 214.902 127.789 215.103 122.618C215.431 114.136 215.738 105.654 216.059 97.1716C216.111 95.7736 215.595 94.6646 214.429 93.8736C213.063 92.9476 211.853 91.8626 210.958 90.4596C209.76 88.5786 209.099 86.5116 209.152 84.2906C209.248 80.3296 209.442 76.3716 209.61 72.4126C209.822 67.3896 210.052 62.3676 210.268 57.3446C210.291 56.7846 210.421 56.3076 211.01 56.1036C211.741 55.8506 212.38 56.3566 212.41 57.2466C212.515 60.2666 212.605 63.2866 212.697 66.3066C212.855 71.5046 213.008 76.7036 213.165 81.9026C213.17 82.0746 213.136 82.2927 213.225 82.4087C213.374 82.6047 213.611 82.8636 213.804 82.8576C213.993 82.8506 214.275 82.5757 214.333 82.3687C214.437 81.9947 214.41 81.5837 214.422 81.1887C214.607 74.9757 214.789 68.7626 214.974 62.5506C215.024 60.8476 215.08 59.1456 215.138 57.4426C215.169 56.5226 215.54 56.0836 216.263 56.0956C216.899 56.1076 217.273 56.5746 217.304 57.4666C217.51 63.7226 217.709 69.9786 217.909 76.2336C217.97 78.1146 218.029 79.9966 218.086 81.8776C218.1 82.3356 218.092 82.8726 218.699 82.8756C219.311 82.8796 219.304 82.3386 219.317 81.8836C219.49 76.1406 219.656 70.3966 219.842 64.6536C219.922 62.1846 220.04 59.7156 220.148 57.2476C220.182 56.4896 220.578 56.0526 221.19 56.0616C221.845 56.0696 222.217 56.4546 222.241 57.2296C222.441 63.5416 222.632 69.8536 222.826 76.1656C222.886 78.0966 222.946 80.0266 223.009 81.9586C223.022 82.3946 223.054 82.8826 223.625 82.8786C224.202 82.8746 224.212 82.3746 224.226 81.9446C224.407 76.0036 224.585 70.0626 224.767 64.1216C224.836 61.8726 224.909 59.6246 224.99 57.3756C225.022 56.4916 225.388 56.0836 226.087 56.1006C226.764 56.1176 227.106 56.5056 227.143 57.3476C227.43 64.0006 227.712 70.6536 227.996 77.3066C228.088 79.4596 228.217 81.6106 228.269 83.7636C228.366 87.8886 226.734 91.1896 223.327 93.5176C221.751 94.5936 221.09 95.9286 221.187 97.8376C221.469 103.378 221.656 108.923 221.869 114.467C222.354 127.058 222.831 139.65 223.313 152.241C223.395 154.359 222.05 155.764 219.918 155.778C219.026 155.783 218.135 155.786 217.243 155.778C215.221 155.759 213.85 154.346 213.925 152.31C214.099 147.583 214.295 142.857 214.481 138.13C214.474 138.13 214.467 138.129 214.459 138.129Z" stroke="#0E0916" stroke-width="0.75" stroke-linecap="round" stroke-linejoin="round"/>
<path fill-rule="evenodd" clip-rule="evenodd" d="M244.214 55.0788C243.296 54.9248 242.652 55.3648 242.104 56.0418C239.993 58.6548 238.329 61.5328 237.03 64.6218C234.66 70.2638 233.433 76.1878 232.733 82.2368C231.936 89.1208 231.899 96.0218 232.29 102.935C232.442 105.618 232.869 108.175 234.333 110.512C235.079 111.703 235.377 113.074 235.393 114.483L233.813 153.191C233.755 154.605 234.885 155.783 236.301 155.783H240.692C242.111 155.783 243.244 154.597 243.18 153.179L241.414 114.643C241.402 112.925 241.732 111.309 242.375 109.694C242.899 108.381 243.336 106.955 243.418 105.557C243.881 97.6238 244.227 89.6848 244.611 81.7478C244.888 76.0588 245.165 70.3698 245.44 64.6798C245.56 62.1818 245.688 59.6828 245.785 57.1838C245.829 56.0478 245.202 55.2448 244.214 55.0788Z" fill="#2250FF"/>
<path fill-rule="evenodd" clip-rule="evenodd" d="M244.214 55.0788C243.296 54.9248 242.652 55.3648 242.104 56.0418C239.993 58.6548 238.329 61.5328 237.03 64.6218C234.66 70.2638 233.433 76.1878 232.733 82.2368C231.936 89.1208 231.899 96.0218 232.29 102.935C232.442 105.618 232.869 108.175 234.333 110.512C235.079 111.703 235.377 113.074 235.393 114.483L233.813 153.191C233.755 154.605 234.885 155.783 236.301 155.783H240.692C242.111 155.783 243.244 154.597 243.18 153.179L241.414 114.643C241.402 112.925 241.732 111.309 242.375 109.694C242.899 108.381 243.336 106.955 243.418 105.557C243.881 97.6238 244.227 89.6848 244.611 81.7478C244.888 76.0588 245.165 70.3698 245.44 64.6798C245.56 62.1818 245.688 59.6828 245.785 57.1838C245.829 56.0478 245.202 55.2448 244.214 55.0788Z" stroke="#0E0916" stroke-width="0.75" stroke-linecap="round" stroke-linejoin="round"/>
<path fill-rule="evenodd" clip-rule="evenodd" d="M192.16 155.347H151.516L144.227 70.0848H201.658L192.16 155.347Z" fill="#E1DFEB"/>
<path fill-rule="evenodd" clip-rule="evenodd" d="M192.16 155.347H151.516L144.227 70.0848H201.658L192.16 155.347Z" stroke="#0E0916" stroke-width="0.75" stroke-linecap="round" stroke-linejoin="round"/>
<path fill-rule="evenodd" clip-rule="evenodd" d="M141.356 70.0852H204.529V61.2502H141.356V70.0852Z" fill="#F6F7F9"/>
<path fill-rule="evenodd" clip-rule="evenodd" d="M141.356 70.0852H204.529V61.2502H141.356V70.0852Z" stroke="#0E0916" stroke-width="0.75" stroke-linecap="round" stroke-linejoin="round"/>
<path fill-rule="evenodd" clip-rule="evenodd" d="M201.326 61.2497H144.559L147.21 55.0647H198.013L201.326 61.2497Z" fill="#F6F7F9"/>
<path fill-rule="evenodd" clip-rule="evenodd" d="M201.326 61.2497H144.559L147.21 55.0647H198.013L201.326 61.2497Z" stroke="#0E0916" stroke-width="0.75" stroke-linecap="round" stroke-linejoin="round"/>
<path fill-rule="evenodd" clip-rule="evenodd" d="M39.5723 139.641H183.919V125.798H39.5723V139.641Z" fill="#FFD8BA"/>
<path fill-rule="evenodd" clip-rule="evenodd" d="M39.5723 139.641H183.919V125.798H39.5723V139.641Z" stroke="#0E0916" stroke-width="0.75" stroke-linecap="round" stroke-linejoin="round"/>
<path fill-rule="evenodd" clip-rule="evenodd" d="M162.119 155.347H60.916C52.242 155.347 45.21 148.315 45.21 139.641H177.825C177.825 148.315 170.793 155.347 162.119 155.347Z" fill="#FFA578"/>
<path fill-rule="evenodd" clip-rule="evenodd" d="M162.119 155.347H60.916C52.242 155.347 45.21 148.315 45.21 139.641H177.825C177.825 148.315 170.793 155.347 162.119 155.347Z" stroke="#0E0916" stroke-width="0.75" stroke-linecap="round" stroke-linejoin="round"/>
<path fill-rule="evenodd" clip-rule="evenodd" d="M177.825 125.798H45.21L49.148 108.254C50.406 102.65 55.383 98.6655 61.128 98.6655H161.727C167.428 98.6655 172.378 102.589 173.679 108.138L177.825 125.798Z" fill="#FFD8BA"/>
<path fill-rule="evenodd" clip-rule="evenodd" d="M177.825 125.798H45.21L49.148 108.254C50.406 102.65 55.383 98.6655 61.128 98.6655H161.727C167.428 98.6655 172.378 102.589 173.679 108.138L177.825 125.798Z" stroke="#0E0916" stroke-width="0.75" stroke-linecap="round" stroke-linejoin="round"/>
<path d="M1 155.783H255.221" stroke="#0E0916" stroke-width="0.75" stroke-linecap="round" stroke-linejoin="round"/>
</svg>
