<svg width="207" height="190" viewBox="0 0 207 190" fill="none" xmlns="http://www.w3.org/2000/svg">
<path fill-rule="evenodd" clip-rule="evenodd" d="M180.906 95.8006C180.906 128.74 154.204 155.443 121.264 155.443C88.3251 155.443 61.6221 128.74 61.6221 95.8006C61.6221 62.8616 88.3251 36.1576 121.264 36.1576C154.204 36.1576 180.906 62.8616 180.906 95.8006Z" fill="#2250FF"/>
<path fill-rule="evenodd" clip-rule="evenodd" d="M180.906 95.8006C180.906 128.74 154.204 155.443 121.264 155.443C88.3251 155.443 61.6221 128.74 61.6221 95.8006C61.6221 62.8616 88.3251 36.1576 121.264 36.1576C154.204 36.1576 180.906 62.8616 180.906 95.8006Z" stroke="#0E0916" stroke-width="0.75" stroke-linecap="round" stroke-linejoin="round"/>
<path fill-rule="evenodd" clip-rule="evenodd" d="M71.8359 99.6361V128.697H40.4859V155.428H11.0249V188.4H105.422V99.6361H71.8359Z" fill="#DCEAFF"/>
<mask id="mask0_1502_404" style="mask-type:alpha" maskUnits="userSpaceOnUse" x="11" y="99" width="95" height="90">
<path d="M71.8359 99.6357V128.697H40.4859V155.429H11.0259V188.401H105.422V99.6357" fill="white"/>
</mask>
<g mask="url(#mask0_1502_404)">
<path fill-rule="evenodd" clip-rule="evenodd" d="M135.426 139.065C115.048 118.711 87.7548 105.407 59.1678 101.895C73.1238 126.742 102.976 138.395 120.134 161.15C87.4938 146.825 54.8538 132.5 22.2138 118.174C26.2678 126.161 34.6938 130.825 42.7928 134.648C60.1258 142.832 78.2168 149.377 95.2898 158.089C104.898 162.992 114.977 169.609 117.673 180.054C85.6938 167.277 54.1728 153.349 23.1948 138.307C26.5488 146.898 34.7388 152.464 42.4748 157.488C54.7938 165.49 67.1138 173.491 79.4338 181.493C82.9038 183.747 86.8648 187.244 85.6238 191.191C57.6498 176.898 28.2128 165.465 -2.07617 157.131C18.0358 172.971 38.4398 189.113 53.2558 209.991" fill="#DCEAFF"/>
<path d="M135.426 139.065C115.048 118.711 87.7548 105.407 59.1678 101.895C73.1238 126.742 102.976 138.395 120.134 161.15C87.4938 146.825 54.8538 132.5 22.2138 118.174C26.2678 126.161 34.6938 130.825 42.7928 134.648C60.1258 142.832 78.2168 149.377 95.2898 158.089C104.898 162.992 114.977 169.609 117.673 180.054C85.6938 167.277 54.1728 153.349 23.1948 138.307C26.5488 146.898 34.7388 152.464 42.4748 157.488C54.7938 165.49 67.1138 173.491 79.4338 181.493C82.9038 183.747 86.8648 187.244 85.6238 191.191C57.6498 176.898 28.2128 165.465 -2.07617 157.131C18.0358 172.971 38.4398 189.113 53.2558 209.991" stroke="#340096" stroke-width="0.75" stroke-linecap="round" stroke-linejoin="round"/>
</g>
<path fill-rule="evenodd" clip-rule="evenodd" d="M71.8359 99.6361V128.697H40.4859V155.428H11.0249V188.4H105.422V99.6361H71.8359Z" stroke="#340096" stroke-width="0.75" stroke-linecap="round" stroke-linejoin="round"/>
<path fill-rule="evenodd" clip-rule="evenodd" d="M115.094 56.0511C115.094 56.0511 118.749 60.9381 116.698 68.6861C114.647 76.4341 140.656 79.3271 141.222 76.1291C141.788 72.9311 143.539 66.8021 143.539 66.8021C143.539 66.8021 147.626 66.3261 150.399 59.5601C153.171 52.7941 155.797 44.0381 155.797 44.0381C155.797 44.0381 156.327 39.7511 153.436 37.9551C150.544 36.1581 134.784 25.6521 129.531 27.4031C124.278 29.1541 112.915 45.2991 115.094 56.0511Z" fill="white"/>
<path fill-rule="evenodd" clip-rule="evenodd" d="M153.435 37.9549L153.321 37.7319C154.81 36.1609 155.968 34.0799 156.839 32.1339C158.671 28.0399 157.318 25.3879 155.415 24.4209C152.951 23.1679 151.643 25.3619 151.643 25.3619L151.59 25.4649C151.816 23.1969 151.13 21.3559 149.435 20.0339C146.767 17.9549 144.114 20.4089 144.114 20.4089L143.637 22.3279C143.63 22.3169 143.622 22.3069 143.615 22.2959C143.786 21.6099 143.947 20.9719 144.114 20.4089C145.285 16.4699 143.337 13.0009 140.8 11.8509C138.262 10.7009 135.793 14.6819 135.793 14.6819L135.786 14.8729C135.779 14.8659 135.771 14.8599 135.764 14.8529C135.775 14.7949 135.782 14.7409 135.793 14.6819C136.756 9.48289 132.595 6.61989 128.577 8.08489C124.558 9.54989 122.727 17.7429 121.999 20.9669C121.534 23.0309 120.674 24.6889 120.116 25.6179L118.884 26.1359" fill="white"/>
<path d="M153.435 37.9549L153.321 37.7319C154.81 36.1609 155.968 34.0799 156.839 32.1339C158.671 28.0399 157.318 25.3879 155.415 24.4209C152.951 23.1679 151.643 25.3619 151.643 25.3619L151.59 25.4649C151.816 23.1969 151.13 21.3559 149.435 20.0339C146.767 17.9549 144.114 20.4089 144.114 20.4089L143.637 22.3279C143.63 22.3169 143.622 22.3069 143.615 22.2959C143.786 21.6099 143.947 20.9719 144.114 20.4089C145.285 16.4699 143.337 13.0009 140.8 11.8509C138.262 10.7009 135.793 14.6819 135.793 14.6819L135.786 14.8729C135.779 14.8659 135.771 14.8599 135.764 14.8529C135.775 14.7949 135.782 14.7409 135.793 14.6819C136.756 9.48289 132.595 6.61989 128.577 8.08489C124.558 9.54989 122.727 17.7429 121.999 20.9669C121.534 23.0309 120.674 24.6889 120.116 25.6179L118.884 26.1359" stroke="#0E0916"/>
<path d="M125.911 29.5038C125.911 29.5038 125.013 26.3938 126.688 20.4658C125.753 19.1958 126.001 18.0158 126.09 16.7598" stroke="#0E0916"/>
<path d="M122.79 28.8075C125.684 29.6125 130.628 30.9835 133.648 35.6845C133.648 35.6845 138.535 42.3905 139.521 43.9925" stroke="#0E0916"/>
<path d="M119.581 26.4339C119.581 26.4339 121.272 24.1909 122 20.9669C122.727 17.7429 124.559 9.54989 128.577 8.08489C132.596 6.61989 136.757 9.48289 135.794 14.6819C134.831 19.8799 135.831 21.9129 134.223 24.7329C132.615 27.5519 130.507 32.2159 130.507 32.2159" stroke="#0E0916"/>
<path d="M135.794 14.6815C135.794 14.6815 138.263 10.7005 140.801 11.8505C143.338 13.0005 145.285 16.4705 144.114 20.4085C142.943 24.3475 142.168 31.6545 134.954 37.3895" stroke="#0E0916"/>
<path d="M144.114 20.4085C144.114 20.4085 146.767 17.9545 149.435 20.0335C152.103 22.1135 152.28 25.4735 150.321 29.7715C148.362 34.0695 146.019 37.8455 144.661 39.1235C144.661 39.1235 141.571 42.7355 138.735 42.0805" stroke="#0E0916"/>
<path d="M151.643 25.3617C151.643 25.3617 152.951 23.1677 155.415 24.4207C157.318 25.3877 158.671 28.0407 156.839 32.1337C155.007 36.2267 151.923 40.9487 147.098 40.1637C144.016 39.6617 144.69 39.1527 144.69 39.1527" stroke="#0E0916"/>
<path d="M153.435 37.9549C153.386 38.4899 156.231 40.0689 155.368 44.3849C155.368 44.3849 151.189 65.3199 143.42 67.0459C139.473 79.2299 140.611 88.6199 140.611 88.6199" stroke="#0E0916"/>
<path fill-rule="evenodd" clip-rule="evenodd" d="M115.016 74.5379C115.016 74.5379 119.967 62.9329 114.802 55.6049C109.637 48.2769 110.641 36.0979 115.447 29.5769C120.251 23.0559 123.419 23.1169 131.578 21.3399C140.696 19.3539 144.535 20.8259 139.883 26.4549C135.233 32.0829 128.308 32.2629 128.308 32.2629C128.308 32.2629 124.121 35.2149 122.302 40.4139" fill="white"/>
<path d="M115.016 74.5379C115.016 74.5379 119.967 62.9329 114.802 55.6049C109.637 48.2769 110.641 36.0979 115.447 29.5769C120.251 23.0559 123.419 23.1169 131.578 21.3399C140.696 19.3539 144.535 20.8259 139.883 26.4549C135.233 32.0829 128.308 32.2629 128.308 32.2629C128.308 32.2629 124.121 35.2149 122.302 40.4139" stroke="#0E0916"/>
<path d="M142.826 43.9671C142.826 43.9671 134.022 47.0391 132.204 52.2381" stroke="#0E0916"/>
<path fill-rule="evenodd" clip-rule="evenodd" d="M97.8252 188.73C98.5452 137.507 98.3502 120.021 105.777 97.2638C109.523 85.7848 109.021 74.3158 111.677 70.5688C111.677 70.5688 130.323 68.7898 137.871 72.7918C142.407 75.1988 146.781 78.3078 146.807 79.2728C146.867 81.4898 143.042 92.5778 143.285 98.0708C143.529 103.564 143.195 113.475 144.435 120.758C145.676 128.042 145.89 178.325 142.927 188.73" fill="#E6E2FF"/>
<mask id="mask1_1502_404" style="mask-type:alpha" maskUnits="userSpaceOnUse" x="97" y="70" width="50" height="119">
<path d="M111.677 70.5697C109.021 74.3167 109.523 85.7847 105.778 97.2637C98.3507 120.021 98.5447 137.507 97.8247 188.73H142.927C145.891 178.325 145.675 128.042 144.435 120.758C143.195 113.475 143.529 103.564 143.285 98.0707C143.042 92.5777 146.867 81.4907 146.808 79.2737C146.782 78.3077 142.408 75.1987 137.872 72.7927C133.876 70.6737 126.773 70.1747 120.97 70.1747C115.809 70.1747 111.677 70.5697 111.677 70.5697Z" fill="white"/>
</mask>
<g mask="url(#mask1_1502_404)">
<path fill-rule="evenodd" clip-rule="evenodd" d="M107.604 48.3407C116.429 49.3097 122.899 57.7947 124.574 66.5137C126.249 75.2337 124.226 84.1847 122.347 92.8627C119.186 107.467 116.406 122.181 115.008 137.058C113.466 153.471 111.858 147.062 111.907 163.548C111.974 186.549 111.844 209.549 111.516 232.548C111.469 235.87 110.465 240.253 107.146 240.413C105.887 240.474 104.71 239.821 103.667 239.113C100.062 236.662 97.1393 233.333 94.5253 229.844C89.5953 223.264 85.6113 215.977 82.7353 208.275C80.3043 201.769 78.6683 194.994 77.2643 188.192C67.3803 140.297 70.6913 113.009 83.5153 65.8157" fill="#D5BFFF"/>
</g>
<path d="M97.8252 188.73C98.5452 137.507 98.3502 120.021 105.777 97.2638C109.523 85.7848 109.021 74.3158 111.677 70.5688C111.677 70.5688 130.323 68.7898 137.871 72.7918C142.407 75.1988 146.781 78.3078 146.807 79.2728C146.867 81.4898 143.042 92.5778 143.285 98.0708C143.529 103.564 143.195 113.475 144.435 120.758C145.676 128.042 145.89 178.325 142.927 188.73" stroke="#0E0916"/>
<path d="M1 188.943H181.132" stroke="#0E0916" stroke-width="0.75" stroke-linecap="round" stroke-linejoin="round"/>
<path fill-rule="evenodd" clip-rule="evenodd" d="M205.951 84.8075C205.951 85.5985 205.31 86.2385 204.52 86.2385C203.729 86.2385 203.089 85.5985 203.089 84.8075C203.089 84.0175 203.729 83.3765 204.52 83.3765C205.31 83.3765 205.951 84.0175 205.951 84.8075Z" fill="#340096"/>
<path fill-rule="evenodd" clip-rule="evenodd" d="M187.445 47.9134C187.445 49.2014 186.401 50.2444 185.114 50.2444C183.826 50.2444 182.783 49.2014 182.783 47.9134C182.783 46.6264 183.826 45.5824 185.114 45.5824C186.401 45.5824 187.445 46.6264 187.445 47.9134Z" fill="#2250FF"/>
<path fill-rule="evenodd" clip-rule="evenodd" d="M62.6522 24.0887C62.6522 25.3767 61.6082 26.4197 60.3212 26.4197C59.0332 26.4197 57.9902 25.3767 57.9902 24.0887C57.9902 22.8017 59.0332 21.7577 60.3212 21.7577C61.6082 21.7577 62.6522 22.8017 62.6522 24.0887Z" fill="#2250FF"/>
<path fill-rule="evenodd" clip-rule="evenodd" d="M43.3554 11.9994C43.3554 13.2874 42.3114 14.3304 41.0244 14.3304C39.7374 14.3304 38.6934 13.2874 38.6934 11.9994C38.6934 10.7114 39.7374 9.6684 41.0244 9.6684C42.3114 9.6684 43.3554 10.7114 43.3554 11.9994Z" fill="#2250FF"/>
<path fill-rule="evenodd" clip-rule="evenodd" d="M95.6164 1.431C95.6164 2.221 94.9754 2.862 94.1854 2.862C93.3944 2.862 92.7544 2.221 92.7544 1.431C92.7544 0.64 93.3944 0 94.1854 0C94.9754 0 95.6164 0.64 95.6164 1.431Z" fill="#2250FF"/>
<path fill-rule="evenodd" clip-rule="evenodd" d="M176.317 11.0091C176.317 11.8001 175.676 12.4401 174.885 12.4401C174.095 12.4401 173.455 11.8001 173.455 11.0091C173.455 10.2191 174.095 9.57812 174.885 9.57812C175.676 9.57812 176.317 10.2191 176.317 11.0091Z" fill="#2250FF"/>
<path fill-rule="evenodd" clip-rule="evenodd" d="M88.9338 37.6092L89.1208 39.3012C89.5028 42.7812 92.7608 45.2042 96.2048 44.5692L98.0468 44.2302L96.2198 45.1522C93.0758 46.7382 91.9548 50.6712 93.7918 53.6762L94.5658 54.9422L93.1018 53.5412C90.7708 51.3102 87.0968 51.3102 84.7658 53.5412L83.3018 54.9422L84.0758 53.6762C85.9128 50.6712 84.7918 46.7382 81.6478 45.1522L79.8208 44.2302L81.6628 44.5692C85.1068 45.2042 88.3648 42.7812 88.7468 39.3012L88.9338 37.6092Z" fill="#F2F0FF"/>
<path fill-rule="evenodd" clip-rule="evenodd" d="M88.9338 37.6092L89.1208 39.3012C89.5028 42.7812 92.7608 45.2042 96.2048 44.5692L98.0468 44.2302L96.2198 45.1522C93.0758 46.7382 91.9548 50.6712 93.7918 53.6762L94.5658 54.9422L93.1018 53.5412C90.7708 51.3102 87.0968 51.3102 84.7658 53.5412L83.3018 54.9422L84.0758 53.6762C85.9128 50.6712 84.7918 46.7382 81.6478 45.1522L79.8208 44.2302L81.6628 44.5692C85.1068 45.2042 88.3648 42.7812 88.7468 39.3012L88.9338 37.6092Z" stroke="#0E0916" stroke-width="0.75" stroke-linecap="round" stroke-linejoin="round"/>
<path fill-rule="evenodd" clip-rule="evenodd" d="M196.934 9.60919L197.121 11.3012C197.503 14.7812 200.761 17.2042 204.205 16.5692L206.047 16.2302L204.22 17.1522C201.076 18.7382 199.955 22.6712 201.792 25.6762L202.566 26.9422L201.102 25.5412C198.771 23.3102 195.097 23.3102 192.766 25.5412L191.302 26.9422L192.076 25.6762C193.913 22.6712 192.792 18.7382 189.648 17.1522L187.821 16.2302L189.663 16.5692C193.107 17.2042 196.365 14.7812 196.747 11.3012L196.934 9.60919Z" fill="#F2F0FF"/>
<path fill-rule="evenodd" clip-rule="evenodd" d="M196.934 9.60919L197.121 11.3012C197.503 14.7812 200.761 17.2042 204.205 16.5692L206.047 16.2302L204.22 17.1522C201.076 18.7382 199.955 22.6712 201.792 25.6762L202.566 26.9422L201.102 25.5412C198.771 23.3102 195.097 23.3102 192.766 25.5412L191.302 26.9422L192.076 25.6762C193.913 22.6712 192.792 18.7382 189.648 17.1522L187.821 16.2302L189.663 16.5692C193.107 17.2042 196.365 14.7812 196.747 11.3012L196.934 9.60919Z" stroke="#0E0916" stroke-width="0.75" stroke-linecap="round" stroke-linejoin="round"/>
</svg>
