<svg width="234" height="176" viewBox="0 0 234 176" fill="none" xmlns="http://www.w3.org/2000/svg">
<path d="M64.4849 30.7007C64.4998 29.8637 64.5486 29.0347 64.6312 28.2166" stroke="#340096" stroke-width="0.56573"/>
<path d="M65.5498 23.3248C69.0209 10.7995 80.5451 1.60035 94.2353 1.60035C110.497 1.60035 123.704 14.5825 123.984 30.7006V61.88L125.054 146.065C125.334 162.184 138.541 175.165 154.803 175.165C171.066 175.165 184.273 162.184 184.552 146.065V141.692" stroke="#340096" stroke-width="0.56573" stroke-dasharray="3.77 3.77"/>
<path d="M184.551 139.199V136.711" stroke="#340096" stroke-width="0.56573"/>
<path fill-rule="evenodd" clip-rule="evenodd" d="M104.99 8.50985C103.113 7.20308 102.656 4.63034 103.969 2.76225C105.281 0.894152 107.867 0.43932 109.744 1.7451C111.62 3.05187 112.078 5.6256 110.765 7.49369C109.452 9.36079 106.867 9.81562 104.99 8.50985Z" fill="#BC99FF"/>
<path fill-rule="evenodd" clip-rule="evenodd" d="M104.99 8.50985C103.113 7.20308 102.656 4.63034 103.969 2.76225C105.281 0.894152 107.867 0.43932 109.744 1.7451C111.62 3.05187 112.078 5.6256 110.765 7.49369C109.452 9.36079 106.867 9.81562 104.99 8.50985Z" stroke="#340096" stroke-width="0.56573" stroke-linecap="round" stroke-linejoin="round"/>
<path fill-rule="evenodd" clip-rule="evenodd" d="M179.288 160.315C177.411 159.01 176.953 156.436 178.267 154.569C179.579 152.701 182.165 152.245 184.042 153.552C185.919 154.858 186.376 157.432 185.063 159.299C183.75 161.166 181.165 161.622 179.288 160.315Z" fill="#BC99FF"/>
<path fill-rule="evenodd" clip-rule="evenodd" d="M179.288 160.315C177.411 159.01 176.953 156.436 178.267 154.569C179.579 152.701 182.165 152.245 184.042 153.552C185.919 154.858 186.376 157.432 185.063 159.299C183.75 161.166 181.165 161.622 179.288 160.315Z" stroke="#340096" stroke-width="0.56573" stroke-linecap="round" stroke-linejoin="round"/>
<path fill-rule="evenodd" clip-rule="evenodd" d="M46.8358 15.6087L88.0765 111.337L46.3247 129.153L5.08398 33.4237L46.8358 15.6087Z" fill="#F6F7F9"/>
<path fill-rule="evenodd" clip-rule="evenodd" d="M46.8358 15.6087L88.0765 111.337L46.3247 129.153L5.08398 33.4237L46.8358 15.6087Z" stroke="#0E0916" stroke-width="0.56573" stroke-linecap="round" stroke-linejoin="round"/>
<path fill-rule="evenodd" clip-rule="evenodd" d="M41.0102 18.0939L82.25 113.824L76.4248 116.31L35.1841 20.58L41.0102 18.0939Z" fill="#0E0916"/>
<path fill-rule="evenodd" clip-rule="evenodd" d="M33.5229 20.7276L75.1707 117.405L72.2586 118.648L30.6099 21.9707L33.5229 20.7276Z" fill="#0E0916"/>
<path fill-rule="evenodd" clip-rule="evenodd" d="M63.1631 130.995H1V37.3644H63.1631C68.4982 37.3644 72.8233 41.6689 72.8233 46.9786V121.381C72.8233 126.691 68.4982 130.995 63.1631 130.995Z" fill="#BC99FF"/>
<path fill-rule="evenodd" clip-rule="evenodd" d="M63.1631 130.995H1V37.3644H63.1631C68.4982 37.3644 72.8233 41.6689 72.8233 46.9786V121.381C72.8233 126.691 68.4982 130.995 63.1631 130.995Z" stroke="#0E0916" stroke-width="0.56573" stroke-linecap="round" stroke-linejoin="round"/>
<path fill-rule="evenodd" clip-rule="evenodd" d="M16.8624 71.0028C17.3675 71.0028 17.7395 70.8635 17.9785 70.5858C18.2165 70.3091 18.3375 69.9787 18.3375 69.5945C18.3375 69.2183 18.2215 68.8879 17.9935 68.6043C17.7635 68.3206 17.3865 68.1773 16.8624 68.1773H14.9514V71.0028H16.8624ZM14.2544 74.4912V67.5533H16.8024C17.5735 67.5533 18.1335 67.7493 18.4815 68.1434C18.8295 68.5356 19.0045 69.0203 19.0045 69.5945C19.0045 70.13 18.8215 70.6027 18.4565 71.0128C18.0915 71.4218 17.5405 71.6268 16.8024 71.6268H14.9514V74.4912H14.2544Z" fill="#0E0916"/>
<path fill-rule="evenodd" clip-rule="evenodd" d="M22.8485 72.0827L21.8924 69.3079C21.7864 69.0103 21.7194 68.8023 21.6934 68.6829L21.6144 68.9407C21.5674 69.1188 21.5304 69.2422 21.5034 69.3079L20.5474 72.0827H22.8485ZM23.6955 74.4912L23.0575 72.6967H20.3384L19.7314 74.4912H19.0044L21.4244 67.5533H21.9614L24.4025 74.4912H23.6955Z" fill="#0E0916"/>
<path fill-rule="evenodd" clip-rule="evenodd" d="M27.719 74.6098C27.155 74.6098 26.6629 74.4745 26.2449 74.2038C25.8259 73.9331 25.5439 73.5987 25.3989 73.2025L26.0559 72.9657C26.2009 73.2752 26.4209 73.523 26.713 73.7081C27.005 73.8933 27.344 73.9858 27.729 73.9858C28.187 73.9858 28.547 73.8753 28.809 73.6534C29.072 73.4325 29.202 73.117 29.202 72.7069C29.202 72.3168 29.06 71.9953 28.775 71.7405C28.489 71.4867 28.108 71.2708 27.629 71.0916C27.344 70.9861 27.096 70.8806 26.887 70.7741C26.678 70.6686 26.4659 70.5353 26.2499 70.373C26.0339 70.2108 25.8689 70.0187 25.7569 69.7928C25.6439 69.5689 25.5879 69.3211 25.5879 69.0503C25.5879 68.5945 25.7739 68.2103 26.1459 67.9008C26.5169 67.5893 27.015 67.434 27.639 67.434C28.144 67.434 28.569 67.5375 28.914 67.7426C29.259 67.9466 29.482 68.2103 29.581 68.5348L28.934 68.7528C28.841 68.5547 28.68 68.3895 28.45 68.2571C28.222 68.1247 27.942 68.0591 27.61 68.0591C27.204 68.0591 26.886 68.1486 26.654 68.3268C26.4209 68.5049 26.3049 68.7428 26.3049 69.0394C26.3049 69.2185 26.3459 69.3768 26.4289 69.5161C26.5119 69.6545 26.6379 69.7799 26.808 69.8923C26.977 70.0048 27.14 70.0974 27.295 70.17C27.451 70.2427 27.656 70.3282 27.908 70.4278C28.18 70.5333 28.421 70.6447 28.63 70.7602C28.839 70.8756 29.048 71.0229 29.257 71.2001C29.466 71.3792 29.629 71.5942 29.745 71.845C29.862 72.0968 29.919 72.3775 29.919 72.687C29.919 73.2891 29.717 73.7599 29.312 74.0993C28.907 74.4397 28.376 74.6098 27.719 74.6098Z" fill="#0E0916"/>
<path fill-rule="evenodd" clip-rule="evenodd" d="M33.6335 74.6098C33.0695 74.6098 32.5775 74.4745 32.1595 74.2038C31.7405 73.9331 31.4585 73.5987 31.3135 73.2025L31.9705 72.9657C32.1155 73.2752 32.3355 73.523 32.6275 73.7081C32.9195 73.8933 33.2585 73.9858 33.6435 73.9858C34.1015 73.9858 34.4615 73.8753 34.7235 73.6534C34.9865 73.4325 35.1165 73.117 35.1165 72.7069C35.1165 72.3168 34.9745 71.9953 34.6895 71.7405C34.4035 71.4867 34.0225 71.2708 33.5435 71.0916C33.2585 70.9861 33.0105 70.8806 32.8015 70.7741C32.5925 70.6686 32.3805 70.5353 32.1645 70.373C31.9485 70.2108 31.7835 70.0187 31.6715 69.7928C31.5585 69.5689 31.5025 69.3211 31.5025 69.0503C31.5025 68.5945 31.6885 68.2103 32.0605 67.9008C32.4315 67.5893 32.9295 67.434 33.5535 67.434C34.0585 67.434 34.4835 67.5375 34.8285 67.7426C35.1735 67.9466 35.3966 68.2103 35.4956 68.5348L34.8485 68.7528C34.7555 68.5547 34.5945 68.3895 34.3645 68.2571C34.1365 68.1247 33.8565 68.0591 33.5245 68.0591C33.1185 68.0591 32.8005 68.1486 32.5685 68.3268C32.3355 68.5049 32.2195 68.7428 32.2195 69.0394C32.2195 69.2185 32.2605 69.3768 32.3435 69.5161C32.4265 69.6545 32.5525 69.7799 32.7225 69.8923C32.8915 70.0048 33.0545 70.0974 33.2095 70.17C33.3655 70.2427 33.5705 70.3282 33.8225 70.4278C34.0945 70.5333 34.3355 70.6447 34.5445 70.7602C34.7535 70.8756 34.9625 71.0229 35.1715 71.2001C35.3806 71.3792 35.5436 71.5942 35.6596 71.845C35.7766 72.0968 35.8336 72.3775 35.8336 72.687C35.8336 73.2891 35.6316 73.7599 35.2265 74.0993C34.8215 74.4397 34.2905 74.6098 33.6335 74.6098Z" fill="#0E0916"/>
<path fill-rule="evenodd" clip-rule="evenodd" d="M40.2345 71.0028C40.7395 71.0028 41.1115 70.8635 41.3505 70.5858C41.5885 70.3091 41.7095 69.9787 41.7095 69.5945C41.7095 69.2183 41.5935 68.8879 41.3655 68.6043C41.1355 68.3206 40.7585 68.1773 40.2345 68.1773H38.3235V71.0028H40.2345ZM37.6265 74.4912V67.5533H40.1745C40.9455 67.5533 41.5055 67.7493 41.8535 68.1434C42.2015 68.5356 42.3766 69.0203 42.3766 69.5945C42.3766 70.13 42.1935 70.6027 41.8285 71.0128C41.4635 71.4218 40.9125 71.6268 40.1745 71.6268H38.3235V74.4912H37.6265Z" fill="#0E0916"/>
<path fill-rule="evenodd" clip-rule="evenodd" d="M46.3094 73.9858C46.6945 73.9858 47.0315 73.8982 47.3205 73.7231C47.6095 73.5489 47.8345 73.313 47.9975 73.0194C48.1605 72.7248 48.2795 72.4103 48.3565 72.0729C48.4325 71.7355 48.4705 71.3862 48.4705 71.0219C48.4705 70.4865 48.4065 70.0068 48.2765 69.5798C48.1465 69.1548 47.9135 68.7936 47.5795 68.5C47.2445 68.2054 46.8205 68.0591 46.3094 68.0591C45.9244 68.0591 45.5874 68.1466 45.2984 68.3218C45.0094 68.496 44.7844 68.7319 44.6224 69.0255C44.4584 69.3201 44.3394 69.6346 44.2634 69.972C44.1864 70.3093 44.1484 70.6587 44.1484 71.0219C44.1484 71.5584 44.2134 72.0381 44.3424 72.4651C44.4724 72.89 44.7054 73.2513 45.0394 73.5449C45.3744 73.8395 45.7974 73.9858 46.3094 73.9858ZM47.6635 74.2973C47.2795 74.5053 46.8275 74.6098 46.3094 74.6098C45.7914 74.6098 45.3394 74.5053 44.9554 74.2973C44.5704 74.0893 44.2694 73.8087 44.0534 73.4553C43.8374 73.102 43.6784 72.7218 43.5764 72.3158C43.4724 71.9097 43.4214 71.4778 43.4214 71.0219C43.4214 70.5661 43.4724 70.1352 43.5764 69.7291C43.6784 69.322 43.8374 68.9428 44.0534 68.5885C44.2694 68.2362 44.5704 67.9546 44.9554 67.7466C45.3394 67.5385 45.7914 67.434 46.3094 67.434C46.8275 67.434 47.2795 67.5385 47.6635 67.7466C48.0485 67.9546 48.3495 68.2362 48.5655 68.5885C48.7815 68.9428 48.9405 69.322 49.0425 69.7291C49.1465 70.1352 49.1975 70.5661 49.1975 71.0219C49.1975 71.4778 49.1465 71.9097 49.0425 72.3158C48.9405 72.7218 48.7815 73.102 48.5655 73.4553C48.3495 73.8087 48.0485 74.0893 47.6635 74.2973Z" fill="#0E0916"/>
<path fill-rule="evenodd" clip-rule="evenodd" d="M51.6384 70.7647H53.5205C54.0245 70.7647 54.3945 70.6403 54.6305 70.3925C54.8665 70.1446 54.9845 69.8421 54.9845 69.4858C54.9845 69.1494 54.8695 68.8468 54.6405 68.5791C54.4115 68.3114 54.0375 68.177 53.5205 68.177H51.6384V70.7647ZM50.9414 74.4909V67.553H53.4995C54.2565 67.553 54.8045 67.7361 55.1435 68.1034C55.4825 68.4696 55.6515 68.9205 55.6515 69.4569C55.6515 69.9247 55.5115 70.3367 55.2335 70.69C54.9535 71.0434 54.5195 71.2663 53.9285 71.3599L55.4725 74.4909H54.7045L53.2114 71.3887H51.6384V74.4909H50.9414Z" fill="#0E0916"/>
<path fill-rule="evenodd" clip-rule="evenodd" d="M59.4064 68.2173V74.4914H58.7094V68.2173H56.7974V67.5535H61.3284V68.2173H59.4064Z" fill="#0E0916"/>
<path d="M12.6709 63.1351H62.2378" stroke="#0E0916" stroke-width="0.188577"/>
<path d="M12.6709 78.7405H62.2378" stroke="#0E0916" stroke-width="0.188577"/>
<path d="M4.34912 37.3643V130.995" stroke="#0E0916" stroke-width="0.56573"/>
<path fill-rule="evenodd" clip-rule="evenodd" d="M199.97 131.125H189.391C171.027 131.125 156.14 116.309 156.14 98.0323V54.0499C156.14 35.773 171.027 20.9577 189.391 20.9577H199.97C218.333 20.9577 233.221 35.773 233.221 54.0499V98.0323C233.221 116.309 218.333 131.125 199.97 131.125Z" fill="white"/>
<path fill-rule="evenodd" clip-rule="evenodd" d="M199.97 131.125H189.391C171.027 131.125 156.14 116.309 156.14 98.0323V54.0499C156.14 35.773 171.027 20.9577 189.391 20.9577H199.97C218.333 20.9577 233.221 35.773 233.221 54.0499V98.0323C233.221 116.309 218.333 131.125 199.97 131.125Z" stroke="#0E0916" stroke-width="0.56573" stroke-linecap="round" stroke-linejoin="round"/>
<mask id="mask0_1502_998" style="mask-type:alpha" maskUnits="userSpaceOnUse" x="159" y="26" width="71" height="100">
<path d="M187.36 26.4127C172.226 26.4127 159.957 38.6235 159.957 53.6867V98.3956C159.957 113.458 172.226 125.669 187.36 125.669H201.998C217.134 125.669 229.403 113.458 229.403 98.3956V53.6867C229.403 38.6235 217.134 26.4127 201.998 26.4127" fill="white"/>
</mask>
<g mask="url(#mask0_1502_998)">
<path fill-rule="evenodd" clip-rule="evenodd" d="M201.998 125.668H187.36C172.227 125.668 159.957 113.457 159.957 98.3959V53.687C159.957 38.6238 172.227 26.413 187.36 26.413H201.998C217.134 26.413 229.402 38.6238 229.402 53.687V98.3959C229.402 113.457 217.134 125.668 201.998 125.668Z" fill="#E1DFEB"/>
</g>
<mask id="mask1_1502_998" style="mask-type:alpha" maskUnits="userSpaceOnUse" x="159" y="26" width="71" height="100">
<path d="M187.36 26.4127C172.226 26.4127 159.957 38.6235 159.957 53.6867V98.3956C159.957 113.458 172.226 125.669 187.36 125.669H201.998C217.134 125.669 229.403 113.458 229.403 98.3956V53.6867C229.403 38.6235 217.134 26.4127 201.998 26.4127H187.36Z" fill="white"/>
</mask>
<g mask="url(#mask1_1502_998)">
<path fill-rule="evenodd" clip-rule="evenodd" d="M150.558 45.7708H238.278V17.7106H150.558V45.7708Z" fill="white"/>
<path fill-rule="evenodd" clip-rule="evenodd" d="M212.407 78.2357C213.656 77.9612 214.277 76.3986 214.148 75.0697C213.916 72.6624 211.678 70.7075 209.392 70.7586C209.749 70.6232 210.056 70.306 210.19 69.9267C210.395 69.3536 210.275 68.7017 210.019 68.1527C209.086 66.1525 206.217 65.5312 204.601 66.9787C204.965 64.6428 203.837 62.2132 202.05 60.76C200.263 59.3078 198.044 58.961 195.784 59.075C193.524 59.1891 191.202 59.7168 189.114 60.6265C186.452 61.7847 183.868 63.2657 181.84 65.4115C179.815 67.5565 178.384 70.4349 178.36 73.4515C178.347 75.0799 178.85 76.8651 180.178 77.7145C180.378 77.8434 180.59 77.9408 180.809 78.0196C179.002 82.6405 175.204 93.7704 178.994 99.5254C180.927 102.46 183.803 103.873 187.321 103.693L187.351 103.849L187.36 111.375L204.264 114.421L204.81 94.1358C204.81 94.1358 210.118 93.5386 208.852 89.3071C208.963 89.5241 209.168 89.6725 209.403 89.7031C209.618 89.7309 209.837 89.6586 209.995 89.5019C210.164 89.3349 210.301 89.1272 210.43 88.9223C211.685 86.9239 212.619 84.7066 213.181 82.3892C213.535 80.9268 213.607 79.0712 212.407 78.2357Z" fill="#FFF6F0"/>
<path fill-rule="evenodd" clip-rule="evenodd" d="M212.407 78.2357C213.656 77.9612 214.277 76.3986 214.148 75.0697C213.916 72.6624 211.678 70.7075 209.392 70.7586C209.749 70.6232 210.056 70.306 210.19 69.9267C210.395 69.3536 210.275 68.7017 210.019 68.1527C209.086 66.1525 206.217 65.5312 204.601 66.9787C204.965 64.6428 203.837 62.2132 202.05 60.76C200.263 59.3078 198.044 58.961 195.784 59.075C193.524 59.1891 191.202 59.7168 189.114 60.6265C186.452 61.7847 183.868 63.2657 181.84 65.4115C179.815 67.5565 178.384 70.4349 178.36 73.4515C178.347 75.0799 178.85 76.8651 180.178 77.7145C180.378 77.8434 180.59 77.9408 180.809 78.0196C179.002 82.6405 175.204 93.7704 178.994 99.5254C180.927 102.46 183.803 103.873 187.321 103.693L187.351 103.849L187.36 111.375L204.264 114.421L204.81 94.1358C204.81 94.1358 210.118 93.5386 208.852 89.3071C208.963 89.5241 209.168 89.6725 209.403 89.7031C209.618 89.7309 209.837 89.6586 209.995 89.5019C210.164 89.3349 210.301 89.1272 210.43 88.9223C211.685 86.9239 212.619 84.7066 213.181 82.3892C213.535 80.9268 213.607 79.0712 212.407 78.2357Z" stroke="#340096" stroke-width="0.534286" stroke-linecap="round" stroke-linejoin="round"/>
<path d="M193.643 95.9766C193.643 95.9766 192.284 99.8 188.453 98.4489" stroke="#340096" stroke-width="0.534286" stroke-linecap="round" stroke-linejoin="round"/>
<path d="M188.852 93.0186C188.852 93.0186 185.212 94.2927 185.532 90.7642C185.712 88.7751 186.2 85.662 186.591 83.327C186.941 81.2331 184.675 81.1144 182.828 82.1595" stroke="#340096" stroke-width="0.534286" stroke-linecap="round" stroke-linejoin="round"/>
<path d="M196.041 86.4904C196.041 86.4904 193.771 85.8311 192.482 86.4116" stroke="#340096" stroke-width="0.534286" stroke-linecap="round" stroke-linejoin="round"/>
<path d="M183.421 86.3633C183.421 86.3633 181.501 85.576 179.862 86.2845" stroke="#340096" stroke-width="0.534286" stroke-linecap="round" stroke-linejoin="round"/>
<path d="M187.354 103.849L187.363 111.375" stroke="#340096" stroke-width="0.534286" stroke-linecap="round" stroke-linejoin="round"/>
<path d="M204.263 114.422L204.809 94.1355C204.809 94.1355 210.458 93.5002 208.712 88.8969" stroke="#340096" stroke-width="0.534286" stroke-linecap="round" stroke-linejoin="round"/>
<path d="M204.88 89.3356C204.969 88.8626 205.453 88.5204 205.935 88.5242C206.416 88.5279 206.866 88.833 207.115 89.2438C207.367 89.6555 207.435 90.1581 207.39 90.6357C207.367 90.8685 207.318 91.1021 207.202 91.3052" stroke="#340096" stroke-width="0.534286" stroke-linecap="round" stroke-linejoin="round"/>
<path d="M181.648 75.9311C181.606 76.2353 174.181 92.2179 178.994 99.5254C181.889 103.922 186.894 104.924 193.009 102.229" stroke="#340096" stroke-width="0.534286" stroke-linecap="round" stroke-linejoin="round"/>
<path fill-rule="evenodd" clip-rule="evenodd" d="M209.403 89.7031C209.148 89.6706 208.922 89.5019 208.822 89.2543C208.415 88.2462 207.655 87.382 206.679 87.0027C205.577 86.5743 204.214 86.8525 203.459 87.7928C202.861 88.5365 202.562 89.6892 201.583 89.819C201.177 89.8737 200.771 89.7087 200.469 89.4165C199.849 88.8175 199.706 87.9504 199.637 87.1186C199.44 84.7706 199.723 82.4087 200.048 80.0755C200.178 79.1482 200.304 78.1503 199.896 77.3167C199.222 75.9377 197.471 75.6669 195.991 75.6818C193.176 75.7077 190.365 76.1408 187.662 76.9652C186.24 77.3973 184.842 77.9398 183.379 78.1689C182.292 78.3395 181.116 78.3154 180.178 77.7145C178.851 76.8651 178.348 75.079 178.36 73.4515C178.384 70.4349 179.815 67.5574 181.841 65.4115C183.868 63.2657 186.452 61.7847 189.114 60.6265C191.202 59.7168 193.525 59.1891 195.784 59.075C198.044 58.961 200.263 59.3078 202.05 60.76C203.837 62.2122 204.965 64.6428 204.602 66.9787C206.217 65.5312 209.086 66.1525 210.019 68.1527C210.275 68.7017 210.395 69.3536 210.192 69.9267C209.988 70.4989 209.395 70.9403 208.825 70.8096C211.294 70.3811 213.897 72.463 214.148 75.0697C214.277 76.3977 213.656 77.9612 212.407 78.2357C213.607 79.0712 213.535 80.9268 213.181 82.3883C212.619 84.7057 211.685 86.9239 210.43 88.9223C210.302 89.1272 210.164 89.3349 209.996 89.5019C209.837 89.6586 209.619 89.73 209.403 89.7031Z" fill="#340096"/>
<path fill-rule="evenodd" clip-rule="evenodd" d="M209.403 89.7031C209.148 89.6706 208.922 89.5019 208.822 89.2543C208.415 88.2462 207.655 87.382 206.679 87.0027C205.577 86.5743 204.214 86.8525 203.459 87.7928C202.861 88.5365 202.562 89.6892 201.583 89.819C201.177 89.8737 200.771 89.7087 200.469 89.4165C199.849 88.8175 199.706 87.9504 199.637 87.1186C199.44 84.7706 199.723 82.4087 200.048 80.0755C200.178 79.1482 200.304 78.1503 199.896 77.3167C199.222 75.9377 197.471 75.6669 195.991 75.6818C193.176 75.7077 190.365 76.1408 187.662 76.9652C186.24 77.3973 184.842 77.9398 183.379 78.1689C182.292 78.3395 181.116 78.3154 180.178 77.7145C178.851 76.8651 178.348 75.079 178.36 73.4515C178.384 70.4349 179.815 67.5574 181.841 65.4115C183.868 63.2657 186.452 61.7847 189.114 60.6265C191.202 59.7168 193.525 59.1891 195.784 59.075C198.044 58.961 200.263 59.3078 202.05 60.76C203.837 62.2122 204.965 64.6428 204.602 66.9787C206.217 65.5312 209.086 66.1525 210.019 68.1527C210.275 68.7017 210.395 69.3536 210.192 69.9267C209.988 70.4989 209.395 70.9403 208.825 70.8096C211.294 70.3811 213.897 72.463 214.148 75.0697C214.277 76.3977 213.656 77.9612 212.407 78.2357C213.607 79.0712 213.535 80.9268 213.181 82.3883C212.619 84.7057 211.685 86.9239 210.43 88.9223C210.302 89.1272 210.164 89.3349 209.996 89.5019C209.837 89.6586 209.619 89.73 209.403 89.7031Z" stroke="#340096" stroke-width="0.534286" stroke-linecap="round" stroke-linejoin="round"/>
<path d="M205.624 93.945C205.624 93.945 203.789 94.4346 201.699 94.0414" stroke="#340096" stroke-width="0.534286" stroke-linecap="round" stroke-linejoin="round"/>
<path fill-rule="evenodd" clip-rule="evenodd" d="M154.447 119.67C154.447 119.67 170.542 104.334 187.28 108.564C187.99 110.246 194.568 113.953 204.924 109.145C223.583 111.975 226.402 113.669 229.473 116.865C233.274 120.815 231.122 127.377 231.122 127.377L144.063 127.477L154.447 119.67Z" fill="#FFA578"/>
<path fill-rule="evenodd" clip-rule="evenodd" d="M154.447 119.67C154.447 119.67 170.542 104.334 187.28 108.564C187.99 110.246 194.568 113.953 204.924 109.145C223.583 111.975 226.402 113.669 229.473 116.865C233.274 120.815 231.122 127.377 231.122 127.377L144.063 127.477L154.447 119.67Z" stroke="#340096" stroke-width="0.534286" stroke-linecap="round" stroke-linejoin="round"/>
</g>
<path fill-rule="evenodd" clip-rule="evenodd" d="M201.998 125.668H187.36C172.227 125.668 159.957 113.457 159.957 98.3958V53.6869C159.957 38.6238 172.227 26.413 187.36 26.413H201.998C217.134 26.413 229.402 38.6238 229.402 53.6869V98.3958C229.402 113.457 217.134 125.668 201.998 125.668Z" stroke="#0E0916" stroke-width="0.56573" stroke-linecap="round" stroke-linejoin="round"/>
<path d="M161.459 45.7705H227.901" stroke="#0E0916" stroke-width="0.56573" stroke-linecap="round" stroke-linejoin="round"/>
<path d="M189.719 41.0943H199.117" stroke="#0E0916" stroke-width="0.56573" stroke-linecap="round" stroke-linejoin="round"/>
<path fill-rule="evenodd" clip-rule="evenodd" d="M149.029 152.799C147.695 144.839 146.435 136.866 145.182 128.892L150.41 124.83C151.662 123.857 151.884 122.057 150.907 120.81C149.929 119.563 148.121 119.342 146.868 120.315L144.163 122.418C144.003 121.401 143.843 120.385 143.683 119.369C143.488 118.131 143.366 117.32 143.408 116.706L147.737 113.343C149.821 111.723 150.191 108.73 148.564 106.656L148.554 106.642C146.927 104.568 143.919 104.199 141.835 105.819C141.271 100.942 140.732 96.0482 140.118 91.1645C139.982 90.0876 140.457 89.0297 141.349 88.4066C148.269 83.5806 154.924 78.4352 160.742 72.2865C163.648 69.2161 165.922 65.8303 166.533 61.5696C167.08 57.7587 164.63 54.6068 160.807 54.2007C156.782 53.7727 153.124 54.9521 149.65 56.8949C141.974 61.1864 135.15 66.6404 128.404 72.2079C127.893 72.6298 126.973 73.0807 126.462 72.9016C121.443 71.138 116.469 69.25 111.483 67.3938L111.608 67.2983C113.695 65.676 114.067 62.6763 112.437 60.5982C110.807 58.5201 107.793 58.1509 105.706 59.7731L101.165 63.3013C101.068 63.2655 100.971 63.2306 100.868 63.1869C99.2125 62.4882 97.5525 61.7935 95.8954 61.0978L98.7045 58.9152C99.9575 57.9419 100.18 56.1424 99.2015 54.8964C98.2235 53.6493 96.4154 53.4274 95.1634 54.4007L89.8213 58.551C82.4742 55.4786 75.125 52.4132 67.8059 49.2722C64.7168 47.9475 62.0458 48.062 59.3547 50.1142C58.2827 50.9333 58.2427 52.2629 59.2987 53.1039C70.609 62.111 81.9572 71.0723 93.1994 80.1619C97.5425 83.6722 101.644 87.4801 105.796 91.1018C105.591 91.5009 105.559 91.6333 105.476 91.7139C99.1105 97.8725 92.7484 104.034 86.3462 110.155C86.0312 110.458 85.3202 110.589 84.8732 110.479C80.8481 109.49 76.8581 108.355 72.82 107.427C71.174 107.049 69.2049 106.498 67.7849 107.05C65.2839 108.021 63.0268 109.626 60.4058 111.204L79.9271 123.401L86.7883 144.51C87.6863 143.684 88.4433 142.957 89.2613 142.314C91.9243 140.22 93.4654 137.622 93.3904 134.146C93.3124 130.464 93.3754 126.779 93.3024 123.097C93.2744 121.673 93.4284 120.561 94.9924 119.905C96.3914 119.318 97.6625 118.413 98.9585 117.598C105.007 113.802 111.044 109.988 117.291 106.05C117.576 106.522 117.829 106.88 118.02 107.267C123.653 118.659 129.353 130.02 134.877 141.466C137.833 147.592 140.472 153.866 143.279 160.063C143.648 160.877 143.897 162.081 145.286 161.096C148.168 159.052 149.651 156.514 149.029 152.799Z" fill="#DCEAFF"/>
<path fill-rule="evenodd" clip-rule="evenodd" d="M149.029 152.799C147.695 144.839 146.435 136.866 145.182 128.892L150.41 124.83C151.662 123.857 151.884 122.057 150.907 120.81C149.929 119.563 148.121 119.342 146.868 120.315L144.163 122.418C144.003 121.401 143.843 120.385 143.683 119.369C143.488 118.131 143.366 117.32 143.408 116.706L147.737 113.343C149.821 111.723 150.191 108.73 148.564 106.656L148.554 106.642C146.927 104.568 143.919 104.199 141.835 105.819C141.271 100.942 140.732 96.0482 140.118 91.1645C139.982 90.0876 140.457 89.0297 141.349 88.4066C148.269 83.5806 154.924 78.4352 160.742 72.2865C163.648 69.2161 165.922 65.8303 166.533 61.5696C167.08 57.7587 164.63 54.6068 160.807 54.2007C156.782 53.7727 153.124 54.9521 149.65 56.8949C141.974 61.1864 135.15 66.6404 128.404 72.2079C127.893 72.6298 126.973 73.0807 126.462 72.9016C121.443 71.138 116.469 69.25 111.483 67.3938L111.608 67.2983C113.695 65.676 114.067 62.6763 112.437 60.5982C110.807 58.5201 107.793 58.1509 105.706 59.7731L101.165 63.3013C101.068 63.2655 100.971 63.2306 100.868 63.1869C99.2125 62.4882 97.5525 61.7935 95.8954 61.0978L98.7045 58.9152C99.9575 57.9419 100.18 56.1424 99.2015 54.8964C98.2235 53.6493 96.4154 53.4274 95.1634 54.4007L89.8213 58.551C82.4742 55.4786 75.125 52.4132 67.8059 49.2722C64.7168 47.9475 62.0458 48.062 59.3547 50.1142C58.2827 50.9333 58.2427 52.2629 59.2987 53.1039C70.609 62.111 81.9572 71.0723 93.1994 80.1619C97.5425 83.6722 101.644 87.4801 105.796 91.1018C105.591 91.5009 105.559 91.6333 105.476 91.7139C99.1105 97.8725 92.7484 104.034 86.3462 110.155C86.0312 110.458 85.3202 110.589 84.8732 110.479C80.8481 109.49 76.8581 108.355 72.82 107.427C71.174 107.049 69.2049 106.498 67.7849 107.05C65.2839 108.021 63.0268 109.626 60.4058 111.204L79.9271 123.401L86.7883 144.51C87.6863 143.684 88.4433 142.957 89.2613 142.314C91.9243 140.22 93.4654 137.622 93.3904 134.146C93.3124 130.464 93.3754 126.779 93.3024 123.097C93.2744 121.673 93.4284 120.561 94.9924 119.905C96.3914 119.318 97.6625 118.413 98.9585 117.598C105.007 113.802 111.044 109.988 117.291 106.05C117.576 106.522 117.829 106.88 118.02 107.267C123.653 118.659 129.353 130.02 134.877 141.466C137.833 147.592 140.472 153.866 143.279 160.063C143.648 160.877 143.897 162.081 145.286 161.096C148.168 159.052 149.651 156.514 149.029 152.799Z" stroke="#340096" stroke-width="0.56573" stroke-linecap="round" stroke-linejoin="round"/>
</svg>
