<svg width="234" height="177" viewBox="0 0 234 177" fill="none" xmlns="http://www.w3.org/2000/svg">
<path d="M64.4834 30.8425C64.4984 30.0015 64.5474 29.1685 64.6304 28.3465" stroke="#340096" stroke-width="0.75"/>
<path d="M65.5479 23.4313C69.0189 10.8463 80.5429 1.60333 94.2329 1.60333C110.494 1.60333 123.701 14.6473 123.981 30.8423V62.1703L125.051 146.756C125.331 162.952 138.538 175.995 154.8 175.995C171.062 175.995 184.269 162.952 184.548 146.756V142.362" stroke="#340096" stroke-width="0.75" stroke-dasharray="5 5"/>
<path d="M184.548 139.858V137.358" stroke="#340096" stroke-width="0.75"/>
<path fill-rule="evenodd" clip-rule="evenodd" d="M104.986 8.54565C103.109 7.23265 102.652 4.64765 103.965 2.77065C105.277 0.893647 107.863 0.436647 109.74 1.74865C111.616 3.06165 112.074 5.64765 110.761 7.52465C109.448 9.40065 106.863 9.85765 104.986 8.54565Z" fill="#BC99FF"/>
<path fill-rule="evenodd" clip-rule="evenodd" d="M104.986 8.54565C103.109 7.23265 102.652 4.64765 103.965 2.77065C105.277 0.893647 107.863 0.436647 109.74 1.74865C111.616 3.06165 112.074 5.64765 110.761 7.52465C109.448 9.40065 106.863 9.85765 104.986 8.54565Z" stroke="#340096" stroke-width="0.75" stroke-linecap="round" stroke-linejoin="round"/>
<path fill-rule="evenodd" clip-rule="evenodd" d="M179.285 161.075C177.408 159.763 176.951 157.177 178.264 155.301C179.576 153.424 182.162 152.966 184.039 154.279C185.916 155.592 186.373 158.178 185.06 160.054C183.747 161.93 181.162 162.388 179.285 161.075Z" fill="#BC99FF"/>
<path fill-rule="evenodd" clip-rule="evenodd" d="M179.285 161.075C177.408 159.763 176.951 157.177 178.264 155.301C179.576 153.424 182.162 152.966 184.039 154.279C185.916 155.592 186.373 158.178 185.06 160.054C183.747 161.93 181.162 162.388 179.285 161.075Z" stroke="#340096" stroke-width="0.75" stroke-linecap="round" stroke-linejoin="round"/>
<path fill-rule="evenodd" clip-rule="evenodd" d="M46.835 15.6784L88.075 111.863L46.324 129.764L5.08398 33.5784L46.835 15.6784Z" fill="#F6F7F9"/>
<path fill-rule="evenodd" clip-rule="evenodd" d="M46.835 15.6784L88.075 111.863L46.324 129.764L5.08398 33.5784L46.835 15.6784Z" stroke="#0E0916" stroke-width="0.75" stroke-linecap="round" stroke-linejoin="round"/>
<path fill-rule="evenodd" clip-rule="evenodd" d="M41.0096 18.1755L82.2486 114.362L76.4236 116.86L35.1836 20.6735L41.0096 18.1755Z" fill="#0E0916"/>
<path fill-rule="evenodd" clip-rule="evenodd" d="M33.5234 20.822L75.1704 117.96L72.2584 119.209L30.6104 22.071L33.5234 20.822Z" fill="#0E0916"/>
<path fill-rule="evenodd" clip-rule="evenodd" d="M63.162 131.615H1V37.5379H63.162C68.497 37.5379 72.822 41.8629 72.822 47.1979V121.955C72.822 127.29 68.497 131.615 63.162 131.615Z" fill="#BC99FF"/>
<path fill-rule="evenodd" clip-rule="evenodd" d="M63.162 131.615H1V37.5379H63.162C68.497 37.5379 72.822 41.8629 72.822 47.1979V121.955C72.822 127.29 68.497 131.615 63.162 131.615Z" stroke="#0E0916" stroke-width="0.75" stroke-linecap="round" stroke-linejoin="round"/>
<path fill-rule="evenodd" clip-rule="evenodd" d="M16.8624 71.3366C17.3674 71.3366 17.7394 71.1966 17.9784 70.9176C18.2164 70.6396 18.3374 70.3076 18.3374 69.9216C18.3374 69.5436 18.2214 69.2116 17.9934 68.9266C17.7634 68.6416 17.3864 68.4976 16.8624 68.4976H14.9514V71.3366H16.8624ZM14.2544 74.8416V67.8706H16.8024C17.5734 67.8706 18.1334 68.0676 18.4814 68.4636C18.8294 68.8576 19.0044 69.3446 19.0044 69.9216C19.0044 70.4596 18.8214 70.9346 18.4564 71.3466C18.0914 71.7576 17.5404 71.9636 16.8024 71.9636H14.9514V74.8416H14.2544Z" fill="#0E0916"/>
<path fill-rule="evenodd" clip-rule="evenodd" d="M22.8474 72.4216L21.8914 69.6336C21.7854 69.3346 21.7184 69.1256 21.6924 69.0056L21.6134 69.2646C21.5664 69.4436 21.5294 69.5676 21.5024 69.6336L20.5464 72.4216H22.8474ZM23.6944 74.8416L23.0564 73.0386H20.3374L19.7304 74.8416H19.0034L21.4234 67.8706H21.9604L24.4014 74.8416H23.6944Z" fill="#0E0916"/>
<path fill-rule="evenodd" clip-rule="evenodd" d="M27.7175 74.9606C27.1535 74.9606 26.6615 74.8246 26.2435 74.5526C25.8245 74.2806 25.5425 73.9446 25.3975 73.5466L26.0545 73.3086C26.1995 73.6196 26.4195 73.8686 26.7115 74.0546C27.0035 74.2406 27.3425 74.3336 27.7275 74.3336C28.1855 74.3336 28.5455 74.2226 28.8075 73.9996C29.0705 73.7776 29.2005 73.4606 29.2005 73.0486C29.2005 72.6566 29.0585 72.3336 28.7735 72.0776C28.4875 71.8226 28.1065 71.6056 27.6275 71.4256C27.3425 71.3196 27.0945 71.2136 26.8855 71.1066C26.6765 71.0006 26.4645 70.8666 26.2485 70.7036C26.0325 70.5406 25.8675 70.3476 25.7555 70.1206C25.6425 69.8956 25.5865 69.6466 25.5865 69.3746C25.5865 68.9166 25.7725 68.5306 26.1445 68.2196C26.5155 67.9066 27.0135 67.7506 27.6375 67.7506C28.1425 67.7506 28.5675 67.8546 28.9125 68.0606C29.2575 68.2656 29.4805 68.5306 29.5795 68.8566L28.9325 69.0756C28.8395 68.8766 28.6785 68.7106 28.4485 68.5776C28.2205 68.4446 27.9405 68.3786 27.6085 68.3786C27.2025 68.3786 26.8845 68.4686 26.6525 68.6476C26.4195 68.8266 26.3035 69.0656 26.3035 69.3636C26.3035 69.5436 26.3445 69.7026 26.4275 69.8426C26.5105 69.9816 26.6365 70.1076 26.8065 70.2206C26.9755 70.3336 27.1385 70.4266 27.2935 70.4996C27.4495 70.5726 27.6545 70.6586 27.9065 70.7586C28.1785 70.8646 28.4195 70.9766 28.6285 71.0926C28.8375 71.2086 29.0465 71.3566 29.2555 71.5346C29.4645 71.7146 29.6275 71.9306 29.7435 72.1826C29.8605 72.4356 29.9175 72.7176 29.9175 73.0286C29.9175 73.6336 29.7155 74.1066 29.3105 74.4476C28.9055 74.7896 28.3745 74.9606 27.7175 74.9606Z" fill="#0E0916"/>
<path fill-rule="evenodd" clip-rule="evenodd" d="M33.6325 74.9606C33.0685 74.9606 32.5765 74.8246 32.1585 74.5526C31.7395 74.2806 31.4575 73.9446 31.3125 73.5466L31.9695 73.3086C32.1145 73.6196 32.3345 73.8686 32.6265 74.0546C32.9185 74.2406 33.2575 74.3336 33.6425 74.3336C34.1005 74.3336 34.4605 74.2226 34.7225 73.9996C34.9855 73.7776 35.1155 73.4606 35.1155 73.0486C35.1155 72.6566 34.9735 72.3336 34.6885 72.0776C34.4025 71.8226 34.0215 71.6056 33.5425 71.4256C33.2575 71.3196 33.0095 71.2136 32.8005 71.1066C32.5915 71.0006 32.3795 70.8666 32.1635 70.7036C31.9475 70.5406 31.7825 70.3476 31.6705 70.1206C31.5575 69.8956 31.5015 69.6466 31.5015 69.3746C31.5015 68.9166 31.6875 68.5306 32.0595 68.2196C32.4305 67.9066 32.9285 67.7506 33.5525 67.7506C34.0575 67.7506 34.4825 67.8546 34.8275 68.0606C35.1725 68.2656 35.3955 68.5306 35.4945 68.8566L34.8475 69.0756C34.7545 68.8766 34.5935 68.7106 34.3635 68.5776C34.1355 68.4446 33.8555 68.3786 33.5235 68.3786C33.1175 68.3786 32.7995 68.4686 32.5675 68.6476C32.3345 68.8266 32.2185 69.0656 32.2185 69.3636C32.2185 69.5436 32.2595 69.7026 32.3425 69.8426C32.4255 69.9816 32.5515 70.1076 32.7215 70.2206C32.8905 70.3336 33.0535 70.4266 33.2085 70.4996C33.3645 70.5726 33.5695 70.6586 33.8215 70.7586C34.0935 70.8646 34.3345 70.9766 34.5435 71.0926C34.7525 71.2086 34.9615 71.3566 35.1705 71.5346C35.3795 71.7146 35.5425 71.9306 35.6585 72.1826C35.7755 72.4356 35.8325 72.7176 35.8325 73.0286C35.8325 73.6336 35.6305 74.1066 35.2255 74.4476C34.8205 74.7896 34.2895 74.9606 33.6325 74.9606Z" fill="#0E0916"/>
<path fill-rule="evenodd" clip-rule="evenodd" d="M40.2345 71.3366C40.7395 71.3366 41.1115 71.1966 41.3505 70.9176C41.5885 70.6396 41.7095 70.3076 41.7095 69.9216C41.7095 69.5436 41.5935 69.2116 41.3655 68.9266C41.1355 68.6416 40.7585 68.4976 40.2345 68.4976H38.3235V71.3366H40.2345ZM37.6265 74.8416V67.8706H40.1745C40.9455 67.8706 41.5055 68.0676 41.8535 68.4636C42.2015 68.8576 42.3765 69.3446 42.3765 69.9216C42.3765 70.4596 42.1935 70.9346 41.8285 71.3466C41.4635 71.7576 40.9125 71.9636 40.1745 71.9636H38.3235V74.8416H37.6265Z" fill="#0E0916"/>
<path fill-rule="evenodd" clip-rule="evenodd" d="M46.3104 74.3337C46.6954 74.3337 47.0324 74.2457 47.3214 74.0697C47.6104 73.8947 47.8354 73.6577 47.9984 73.3627C48.1614 73.0667 48.2804 72.7507 48.3574 72.4117C48.4334 72.0727 48.4714 71.7217 48.4714 71.3557C48.4714 70.8177 48.4074 70.3357 48.2774 69.9067C48.1474 69.4797 47.9144 69.1167 47.5804 68.8217C47.2454 68.5257 46.8214 68.3787 46.3104 68.3787C45.9254 68.3787 45.5884 68.4667 45.2994 68.6427C45.0104 68.8177 44.7854 69.0547 44.6234 69.3497C44.4594 69.6457 44.3404 69.9617 44.2644 70.3007C44.1874 70.6397 44.1494 70.9907 44.1494 71.3557C44.1494 71.8947 44.2144 72.3767 44.3434 72.8057C44.4734 73.2327 44.7064 73.5957 45.0404 73.8907C45.3754 74.1867 45.7984 74.3337 46.3104 74.3337ZM47.6644 74.6467C47.2804 74.8557 46.8284 74.9607 46.3104 74.9607C45.7924 74.9607 45.3404 74.8557 44.9564 74.6467C44.5714 74.4377 44.2704 74.1557 44.0544 73.8007C43.8384 73.4457 43.6794 73.0637 43.5774 72.6557C43.4734 72.2477 43.4224 71.8137 43.4224 71.3557C43.4224 70.8977 43.4734 70.4647 43.5774 70.0567C43.6794 69.6477 43.8384 69.2667 44.0544 68.9107C44.2704 68.5567 44.5714 68.2737 44.9564 68.0647C45.3404 67.8557 45.7924 67.7507 46.3104 67.7507C46.8284 67.7507 47.2804 67.8557 47.6644 68.0647C48.0494 68.2737 48.3504 68.5567 48.5664 68.9107C48.7824 69.2667 48.9414 69.6477 49.0434 70.0567C49.1474 70.4647 49.1984 70.8977 49.1984 71.3557C49.1984 71.8137 49.1474 72.2477 49.0434 72.6557C48.9414 73.0637 48.7824 73.4457 48.5664 73.8007C48.3504 74.1557 48.0494 74.4377 47.6644 74.6467Z" fill="#0E0916"/>
<path fill-rule="evenodd" clip-rule="evenodd" d="M51.6384 71.0974H53.5204C54.0244 71.0974 54.3944 70.9724 54.6304 70.7234C54.8664 70.4744 54.9844 70.1704 54.9844 69.8124C54.9844 69.4744 54.8694 69.1704 54.6404 68.9014C54.4114 68.6324 54.0374 68.4974 53.5204 68.4974H51.6384V71.0974ZM50.9414 74.8414V67.8704H53.4994C54.2564 67.8704 54.8044 68.0544 55.1434 68.4234C55.4824 68.7914 55.6514 69.2444 55.6514 69.7834C55.6514 70.2534 55.5114 70.6674 55.2334 71.0224C54.9534 71.3774 54.5194 71.6014 53.9284 71.6954L55.4724 74.8414H54.7044L53.2114 71.7244H51.6384V74.8414H50.9414Z" fill="#0E0916"/>
<path fill-rule="evenodd" clip-rule="evenodd" d="M59.4064 68.5378V74.8419H58.7094V68.5378H56.7974V67.8708H61.3284V68.5378H59.4064Z" fill="#0E0916"/>
<path d="M12.6709 63.4313H62.2369" stroke="#0E0916" stroke-width="0.25"/>
<path d="M12.6709 79.111H62.2369" stroke="#0E0916" stroke-width="0.25"/>
<path d="M4.34766 37.5378V131.615" stroke="#0E0916" stroke-width="0.75"/>
<path fill-rule="evenodd" clip-rule="evenodd" d="M199.966 131.745H189.387C171.024 131.745 156.137 116.859 156.137 98.4948V54.3028C156.137 35.9388 171.024 21.0528 189.387 21.0528H199.966C218.329 21.0528 233.216 35.9388 233.216 54.3028V98.4948C233.216 116.859 218.329 131.745 199.966 131.745Z" fill="white"/>
<path fill-rule="evenodd" clip-rule="evenodd" d="M199.966 131.745H189.387C171.024 131.745 156.137 116.859 156.137 98.4948V54.3028C156.137 35.9388 171.024 21.0528 189.387 21.0528H199.966C218.329 21.0528 233.216 35.9388 233.216 54.3028V98.4948C233.216 116.859 218.329 131.745 199.966 131.745Z" stroke="#0E0916" stroke-width="0.75" stroke-linecap="round" stroke-linejoin="round"/>
<mask id="mask0_1502_319" style="mask-type:alpha" maskUnits="userSpaceOnUse" x="159" y="26" width="71" height="101">
<path d="M187.357 26.5341C172.223 26.5341 159.954 38.8031 159.954 53.9381V98.8601C159.954 113.994 172.223 126.263 187.357 126.263H201.995C217.13 126.263 229.399 113.994 229.399 98.8601V53.9381C229.399 38.8031 217.13 26.5341 201.995 26.5341" fill="white"/>
</mask>
<g mask="url(#mask0_1502_319)">
<path fill-rule="evenodd" clip-rule="evenodd" d="M201.995 126.262H187.357C172.224 126.262 159.954 113.993 159.954 98.8605V53.9385C159.954 38.8035 172.224 26.5345 187.357 26.5345H201.995C217.13 26.5345 229.398 38.8035 229.398 53.9385V98.8605C229.398 113.993 217.13 126.262 201.995 126.262Z" fill="#E1DFEB"/>
</g>
<mask id="mask1_1502_319" style="mask-type:alpha" maskUnits="userSpaceOnUse" x="159" y="26" width="71" height="101">
<path d="M187.357 26.5341C172.223 26.5341 159.954 38.8031 159.954 53.9381V98.8601C159.954 113.994 172.223 126.263 187.357 126.263H201.995C217.13 126.263 229.399 113.994 229.399 98.8601V53.9381C229.399 38.8031 217.13 26.5341 201.995 26.5341H187.357Z" fill="white"/>
</mask>
<g mask="url(#mask1_1502_319)">
<path fill-rule="evenodd" clip-rule="evenodd" d="M150.555 45.9841H238.274V17.7901H150.555V45.9841Z" fill="white"/>
<path fill-rule="evenodd" clip-rule="evenodd" d="M188.116 115.775L188.1 102.362L188.136 102.275C185.036 101.829 182.893 99.6402 181.499 96.9896C177.162 88.7306 181.975 73.5111 182.019 73.186L188.344 70.2156L201.803 72.3812L213.853 85.8242L209.911 117.86L188.116 115.775Z" fill="#FFEBDE"/>
<path fill-rule="evenodd" clip-rule="evenodd" d="M188.116 115.775L188.1 102.362L188.136 102.275C185.036 101.829 182.893 99.6402 181.499 96.9896C177.162 88.7306 181.975 73.5111 182.019 73.186L188.344 70.2156L201.803 72.3812L213.853 85.8242L209.911 117.86L188.116 115.775Z" stroke="#340096" stroke-width="0.7" stroke-linecap="round" stroke-linejoin="round"/>
<path d="M190.609 97.7337C193.418 98.677 194.404 95.9198 194.404 95.9198" stroke="#340096" stroke-width="0.7" stroke-linecap="round" stroke-linejoin="round"/>
<path d="M188.101 102.362L188.109 110.973" stroke="#340096" stroke-width="0.7" stroke-linecap="round" stroke-linejoin="round"/>
<path fill-rule="evenodd" clip-rule="evenodd" d="M213.185 78.6255C214.679 74.0155 209.515 68.5491 205.283 68.1671C204.647 68.1103 203.949 65.0689 200.522 64.019C197.708 63.1573 189.833 63.6317 188.87 66.181C189.046 65.044 179.321 66.618 178.598 71.9298C178.086 75.6996 179.694 76.9983 180.986 77.7995C185.37 80.514 181.614 77.6431 188.737 73.5092C183.824 85.5238 202.441 87.5046 205.177 86.7301C207.815 85.9875 209.595 86.5186 210.263 88.9738C211.213 92.4593 206.218 94.1115 206.218 94.1115L205.832 108.031C208.264 109.123 215.463 118.324 218.895 118.002C223.54 117.567 215.047 108.08 215.583 102.331C216.493 92.5837 217.41 80.6721 213.185 78.6255Z" fill="#340096"/>
<path d="M182.019 73.1867C181.975 73.5118 177.162 88.7313 181.499 96.9886C183.656 101.092 187.612 104.095 194.13 101.224" stroke="#340096" stroke-width="0.7" stroke-linecap="round" stroke-linejoin="round"/>
<path fill-rule="evenodd" clip-rule="evenodd" d="M154.286 119.024C154.286 119.024 170.813 103.279 188.001 107.622C188.729 109.349 195.48 113.154 206.116 108.219C225.274 111.126 227.29 111.884 231.321 116.144C235.192 120.232 233.014 126.938 233.014 126.938L143.625 127.043L154.286 119.024Z" fill="#FFA578"/>
<path fill-rule="evenodd" clip-rule="evenodd" d="M154.286 119.024C154.286 119.024 170.813 103.279 188.001 107.622C188.729 109.349 195.48 113.154 206.116 108.219C225.274 111.126 227.29 111.884 231.321 116.144C235.192 120.232 233.014 126.938 233.014 126.938L143.625 127.043L154.286 119.024Z" stroke="#340096" stroke-width="0.7" stroke-linecap="round" stroke-linejoin="round"/>
<path d="M206.634 91.6563C206.634 91.6563 208.411 91.3934 208.53 89.8141C208.649 88.2721 206.688 88.185 206.688 88.185" stroke="#340096" stroke-width="0.7" stroke-linecap="round" stroke-linejoin="round"/>
<path fill-rule="evenodd" clip-rule="evenodd" d="M186.91 86.6009C186.914 89.0046 184.967 90.9552 182.565 90.957C180.161 90.9605 178.213 89.0134 178.209 86.6116C178.207 84.2079 180.151 82.2591 182.554 82.2555C184.956 82.2538 186.909 84.1973 186.91 86.6009Z" fill="white"/>
<path fill-rule="evenodd" clip-rule="evenodd" d="M186.91 86.6009C186.914 89.0046 184.967 90.9552 182.565 90.957C180.161 90.9605 178.213 89.0134 178.209 86.6116C178.207 84.2079 180.151 82.2591 182.554 82.2555C184.956 82.2538 186.909 84.1973 186.91 86.6009Z" stroke="#340096" stroke-width="0.7" stroke-linecap="round" stroke-linejoin="round"/>
<path d="M183.279 86.8559C183.279 86.8559 182.254 86.3869 181.17 86.8363" stroke="#340096" stroke-width="0.7" stroke-linecap="round" stroke-linejoin="round"/>
<path fill-rule="evenodd" clip-rule="evenodd" d="M198.243 86.5886C198.245 88.9923 196.299 90.9411 193.898 90.9447C191.494 90.9464 189.543 89.0011 189.542 86.5993C189.538 84.1939 191.483 82.245 193.887 82.2432C196.289 82.2397 198.239 84.185 198.243 86.5886Z" fill="white"/>
<path fill-rule="evenodd" clip-rule="evenodd" d="M198.243 86.5886C198.245 88.9923 196.299 90.9411 193.898 90.9447C191.494 90.9464 189.543 89.0011 189.542 86.5993C189.538 84.1939 191.483 82.245 193.887 82.2432C196.289 82.2397 198.239 84.185 198.243 86.5886Z" stroke="#340096" stroke-width="0.7" stroke-linecap="round" stroke-linejoin="round"/>
<path d="M194.612 86.842C194.612 86.842 193.585 86.373 192.503 86.8242" stroke="#340096" stroke-width="0.7" stroke-linecap="round" stroke-linejoin="round"/>
<path d="M187.866 88.6167C187.866 88.6167 186.731 92.6885 188.149 93.4578C188.149 93.4578 188.866 93.8379 189.806 93.5501" stroke="#340096" stroke-width="0.7" stroke-linecap="round" stroke-linejoin="round"/>
<path d="M189.54 86.5991L186.911 86.6009" stroke="#340096" stroke-width="0.7" stroke-linecap="round" stroke-linejoin="round"/>
</g>
<path fill-rule="evenodd" clip-rule="evenodd" d="M201.995 126.262H187.357C172.224 126.262 159.954 113.993 159.954 98.8605V53.9385C159.954 38.8035 172.224 26.5345 187.357 26.5345H201.995C217.13 26.5345 229.398 38.8035 229.398 53.9385V98.8605C229.398 113.993 217.13 126.262 201.995 126.262Z" stroke="#0E0916" stroke-width="0.75" stroke-linecap="round" stroke-linejoin="round"/>
<path d="M161.456 45.9842H227.897" stroke="#0E0916" stroke-width="0.75" stroke-linecap="round" stroke-linejoin="round"/>
<path d="M189.716 41.2859H199.114" stroke="#0E0916" stroke-width="0.75" stroke-linecap="round" stroke-linejoin="round"/>
<path fill-rule="evenodd" clip-rule="evenodd" d="M149.026 153.522C147.692 145.524 146.432 137.513 145.179 129.501L150.407 125.42C151.659 124.442 151.881 122.634 150.904 121.381C149.926 120.128 148.118 119.906 146.865 120.883L144.16 122.996C144 121.975 143.84 120.954 143.68 119.933C143.485 118.689 143.363 117.874 143.405 117.257L147.734 113.878C149.818 112.251 150.188 109.243 148.561 107.159L148.551 107.145C146.924 105.061 143.916 104.691 141.832 106.318C141.268 101.418 140.729 96.5013 140.115 91.5943C139.979 90.5123 140.454 89.4493 141.346 88.8233C148.266 83.9743 154.92 78.8043 160.738 72.6263C163.644 69.5413 165.918 66.1393 166.529 61.8583C167.076 58.0293 164.626 54.8623 160.803 54.4543C156.778 54.0243 153.121 55.2093 149.647 57.1613C141.971 61.4733 135.147 66.9533 128.401 72.5473C127.89 72.9713 126.97 73.4243 126.459 73.2443C121.44 71.4723 116.466 69.5753 111.48 67.7103L111.605 67.6143C113.692 65.9843 114.064 62.9703 112.434 60.8823C110.804 58.7943 107.79 58.4233 105.703 60.0533L101.162 63.5983C101.065 63.5623 100.968 63.5273 100.865 63.4833C99.2103 62.7813 97.5503 62.0833 95.8933 61.3843L98.7023 59.1913C99.9553 58.2133 100.177 56.4053 99.1993 55.1533C98.2213 53.9003 96.4133 53.6773 95.1613 54.6553L89.8193 58.8253C82.4723 55.7383 75.1233 52.6583 67.8043 49.5023C64.7153 48.1713 62.0443 48.2863 59.3533 50.3483C58.2813 51.1713 58.2413 52.5073 59.2973 53.3523C70.6073 62.4023 81.9553 71.4063 93.1973 80.5393C97.5403 84.0663 101.641 87.8923 105.793 91.5313C105.588 91.9323 105.556 92.0653 105.473 92.1463C99.1083 98.3343 92.7463 104.525 86.3443 110.675C86.0293 110.979 85.3183 111.111 84.8713 111.001C80.8463 110.007 76.8563 108.866 72.8183 107.934C71.1723 107.554 69.2033 107.001 67.7833 107.555C65.2823 108.531 63.0253 110.144 60.4043 111.729L79.9253 123.984L86.7863 145.194C87.6843 144.364 88.4413 143.633 89.2593 142.987C91.9223 140.883 93.4633 138.273 93.3883 134.78C93.3103 131.081 93.3733 127.378 93.3003 123.679C93.2723 122.248 93.4263 121.131 94.9903 120.472C96.3893 119.882 97.6603 118.972 98.9563 118.154C105.004 114.339 111.041 110.507 117.288 106.55C117.573 107.025 117.826 107.384 118.017 107.773C123.65 119.22 129.35 130.635 134.874 142.135C137.83 148.29 140.469 154.594 143.276 160.821C143.645 161.639 143.894 162.849 145.283 161.859C148.165 159.805 149.648 157.255 149.026 153.522Z" fill="#DCEAFF"/>
<path fill-rule="evenodd" clip-rule="evenodd" d="M149.026 153.522C147.692 145.524 146.432 137.513 145.179 129.501L150.407 125.42C151.659 124.442 151.881 122.634 150.904 121.381C149.926 120.128 148.118 119.906 146.865 120.883L144.16 122.996C144 121.975 143.84 120.954 143.68 119.933C143.485 118.689 143.363 117.874 143.405 117.257L147.734 113.878C149.818 112.251 150.188 109.243 148.561 107.159L148.551 107.145C146.924 105.061 143.916 104.691 141.832 106.318C141.268 101.418 140.729 96.5013 140.115 91.5943C139.979 90.5123 140.454 89.4493 141.346 88.8233C148.266 83.9743 154.92 78.8043 160.738 72.6263C163.644 69.5413 165.918 66.1393 166.529 61.8583C167.076 58.0293 164.626 54.8623 160.803 54.4543C156.778 54.0243 153.121 55.2093 149.647 57.1613C141.971 61.4733 135.147 66.9533 128.401 72.5473C127.89 72.9713 126.97 73.4243 126.459 73.2443C121.44 71.4723 116.466 69.5753 111.48 67.7103L111.605 67.6143C113.692 65.9843 114.064 62.9703 112.434 60.8823C110.804 58.7943 107.79 58.4233 105.703 60.0533L101.162 63.5983C101.065 63.5623 100.968 63.5273 100.865 63.4833C99.2103 62.7813 97.5503 62.0833 95.8933 61.3843L98.7023 59.1913C99.9553 58.2133 100.177 56.4053 99.1993 55.1533C98.2213 53.9003 96.4133 53.6773 95.1613 54.6553L89.8193 58.8253C82.4723 55.7383 75.1233 52.6583 67.8043 49.5023C64.7153 48.1713 62.0443 48.2863 59.3533 50.3483C58.2813 51.1713 58.2413 52.5073 59.2973 53.3523C70.6073 62.4023 81.9553 71.4063 93.1973 80.5393C97.5403 84.0663 101.641 87.8923 105.793 91.5313C105.588 91.9323 105.556 92.0653 105.473 92.1463C99.1083 98.3343 92.7463 104.525 86.3443 110.675C86.0293 110.979 85.3183 111.111 84.8713 111.001C80.8463 110.007 76.8563 108.866 72.8183 107.934C71.1723 107.554 69.2033 107.001 67.7833 107.555C65.2823 108.531 63.0253 110.144 60.4043 111.729L79.9253 123.984L86.7863 145.194C87.6843 144.364 88.4413 143.633 89.2593 142.987C91.9223 140.883 93.4633 138.273 93.3883 134.78C93.3103 131.081 93.3733 127.378 93.3003 123.679C93.2723 122.248 93.4263 121.131 94.9903 120.472C96.3893 119.882 97.6603 118.972 98.9563 118.154C105.004 114.339 111.041 110.507 117.288 106.55C117.573 107.025 117.826 107.384 118.017 107.773C123.65 119.22 129.35 130.635 134.874 142.135C137.83 148.29 140.469 154.594 143.276 160.821C143.645 161.639 143.894 162.849 145.283 161.859C148.165 159.805 149.648 157.255 149.026 153.522Z" stroke="#340096" stroke-width="0.75" stroke-linecap="round" stroke-linejoin="round"/>
</svg>
