<svg viewBox="0 0 24 24" fill="none" xmlns="http://www.w3.org/2000/svg">
<path d="M12 2.2C15.2 2.2 15.6 2.2 16.9 2.3C20.2 2.4 21.7 4 21.8 7.2C21.9 8.5 21.9 8.8 21.9 12C21.9 15.2 21.9 15.6 21.8 16.8C21.7 20 20.1 21.6 16.9 21.7C15.6 21.8 15.3 21.8 12 21.8C8.8 21.8 8.4 21.8 7.2 21.7C3.9 21.6 2.4 20 2.3 16.8C2.2 15.5 2.2 15.2 2.2 12C2.2 8.8 2.2 8.4 2.3 7.2C2.4 4 4 2.4 7.2 2.3C8.4 2.2 8.8 2.2 12 2.2ZM12 0C8.7 0 8.3 0 7.1 0.1C2.7 0.3 0.3 2.7 0.1 7.1C0 8.3 0 8.7 0 12C0 15.3 0 15.7 0.1 16.9C0.3 21.3 2.7 23.7 7.1 23.9C8.3 24 8.7 24 12 24C15.3 24 15.7 24 16.9 23.9C21.3 23.7 23.7 21.3 23.9 16.9C24 15.7 24 15.3 24 12C24 8.7 24 8.3 23.9 7.1C23.7 2.7 21.3 0.3 16.9 0.1C15.7 0 15.3 0 12 0ZM12 5.8C8.6 5.8 5.8 8.6 5.8 12C5.8 15.4 8.6 18.2 12 18.2C15.4 18.2 18.2 15.4 18.2 12C18.2 8.6 15.4 5.8 12 5.8ZM12 16C9.8 16 8 14.2 8 12C8 9.8 9.8 8 12 8C14.2 8 16 9.8 16 12C16 14.2 14.2 16 12 16ZM18.4 4.2C17.6 4.2 17 4.8 17 5.6C17 6.4 17.6 7 18.4 7C19.2 7 19.8 6.4 19.8 5.6C19.8 4.8 19.2 4.2 18.4 4.2Z" fill="url(#paint0_linear_2448_15717)"/>
<defs>
<linearGradient id="paint0_linear_2448_15717" x1="12" y1="24" x2="12" y2="0" gradientUnits="userSpaceOnUse">
<stop stop-color="#FFA12D"/>
<stop offset="0.3369" stop-color="#DA403A"/>
<stop offset="0.7051" stop-color="#D8187A"/>
<stop offset="1" stop-color="#7500E0"/>
</linearGradient>
</defs>
</svg>
