<svg xmlns="http://www.w3.org/2000/svg" fill="none" viewBox="0 0 24 24">
  <path fill="currentColor" d="M12 2.2c3.2 0 3.6 0 4.9.1 3.3.1 4.8 1.7 4.9 4.9.1 1.3.1 1.6.1 4.8 0 3.2 0 3.6-.1 4.8-.1 3.2-1.7 4.8-4.9 4.9-1.3.1-1.6.1-4.9.1-3.2 0-3.6 0-4.8-.1-3.3-.1-4.8-1.7-4.9-4.9-.1-1.3-.1-1.6-.1-4.8 0-3.2 0-3.6.1-4.8C2.4 4 4 2.4 7.2 2.3c1.2-.1 1.6-.1 4.8-.1ZM12 0C8.7 0 8.3 0 7.1.1 2.7.3.3 2.7.1 7.1 0 8.3 0 8.7 0 12c0 3.3 0 3.7.1 4.9.2 4.4 2.6 6.8 7 7 1.2.1 1.6.1 4.9.1 3.3 0 3.7 0 4.9-.1 4.4-.2 6.8-2.6 7-7 .1-1.2.1-1.6.1-4.9 0-3.3 0-3.7-.1-4.9-.2-4.4-2.6-6.8-7-7C15.7 0 15.3 0 12 0Zm0 5.8c-3.4 0-6.2 2.8-6.2 6.2 0 3.4 2.8 6.2 6.2 6.2 3.4 0 6.2-2.8 6.2-6.2 0-3.4-2.8-6.2-6.2-6.2ZM12 16c-2.2 0-4-1.8-4-4s1.8-4 4-4 4 1.8 4 4-1.8 4-4 4Zm6.4-11.8c-.8 0-1.4.6-1.4 1.4 0 .8.6 1.4 1.4 1.4.8 0 1.4-.6 1.4-1.4 0-.8-.6-1.4-1.4-1.4Z"/>
</svg>
