<svg xmlns="http://www.w3.org/2000/svg" fill="none" viewBox="0 0 196 184">
  <path fill="#FFEBDE" fill-rule="evenodd" d="M189.402 92c0 50.81-41.189 92-92 92-50.81 0-92-41.19-92-92s41.19-92 92-92c50.811 0 92 41.19 92 92z" clip-rule="evenodd"/>
  <path fill="#FBFBFC" fill-rule="evenodd" d="M153.509 156.128H49.356c-3.935 0-7.125-3.198-7.125-7.142V38.195c0-3.945 3.19-7.143 7.124-7.143H153.51c3.935 0 7.123 3.198 7.123 7.143v110.791c0 3.944-3.188 7.142-7.123 7.142z" clip-rule="evenodd"/>
  <path stroke="#0E0916" stroke-linecap="round" stroke-linejoin="round" stroke-width=".75" d="M153.509 156.128H49.356c-3.935 0-7.125-3.198-7.125-7.142V38.195c0-3.945 3.19-7.143 7.124-7.143H153.51c3.935 0 7.123 3.198 7.123 7.143v110.791c0 3.944-3.188 7.142-7.123 7.142z" clip-rule="evenodd"/>
  <path fill="#BCD7FE" fill-rule="evenodd" d="M11.655 73.806C5.81 73.845 1.04 69.124 1 63.264.96 57.403 5.67 52.62 11.517 52.583c5.846-.039 10.616 4.681 10.655 10.543.038 5.86-4.67 10.643-10.517 10.68z" clip-rule="evenodd"/>
  <path stroke="#0E0916" stroke-linecap="round" stroke-linejoin="round" stroke-width=".75" d="M11.655 73.806C5.81 73.845 1.04 69.124 1 63.264.96 57.403 5.67 52.62 11.517 52.583c5.846-.039 10.616 4.681 10.655 10.543.038 5.86-4.67 10.643-10.517 10.68z" clip-rule="evenodd"/>
  <path stroke="#0E0916" stroke-linecap="round" stroke-linejoin="round" stroke-width=".75" d="M7.917 61.625l3.06 5.25L29.36 51.902"/>
  <path fill="#F6F7F9" fill-rule="evenodd" d="M82.908 68.883l-52.879-.004.001-8.533 52.878.005v8.532z" clip-rule="evenodd"/>
  <path stroke="#0E0916" stroke-width=".75" d="M82.908 68.883l-52.879-.004.001-8.533 52.878.005v8.532z" clip-rule="evenodd"/>
  <path fill="#BCD7FE" fill-rule="evenodd" d="M11.655 103.624C5.81 103.663 1.04 98.942 1 93.082.96 87.22 5.67 82.439 11.517 82.4c5.846-.038 10.616 4.681 10.655 10.543.038 5.86-4.67 10.643-10.517 10.68z" clip-rule="evenodd"/>
  <path stroke="#0E0916" stroke-linecap="round" stroke-linejoin="round" stroke-width=".75" d="M11.655 103.624C5.81 103.663 1.04 98.942 1 93.082.96 87.22 5.67 82.439 11.517 82.4c5.846-.038 10.616 4.681 10.655 10.543.038 5.86-4.67 10.643-10.517 10.68z" clip-rule="evenodd"/>
  <path stroke="#0E0916" stroke-linecap="round" stroke-linejoin="round" stroke-width=".75" d="M7.917 91.443l3.06 5.25L29.36 81.72"/>
  <path fill="#F6F7F9" fill-rule="evenodd" d="M82.907 98.702l-52.879-.005.001-8.533 52.88.005-.002 8.533z" clip-rule="evenodd"/>
  <path stroke="#0E0916" stroke-width=".75" d="M82.907 98.702l-52.879-.005.001-8.533 52.88.005-.002 8.533z" clip-rule="evenodd"/>
  <path fill="#BCD7FE" fill-rule="evenodd" d="M11.839 133.352c-5.847.037-10.617-4.683-10.655-10.544-.038-5.86 4.67-10.642 10.517-10.681 5.846-.037 10.616 4.683 10.654 10.544.039 5.859-4.67 10.642-10.516 10.681z" clip-rule="evenodd"/>
  <path stroke="#0E0916" stroke-linecap="round" stroke-linejoin="round" stroke-width=".75" d="M11.839 133.352c-5.847.037-10.617-4.683-10.655-10.544-.038-5.86 4.67-10.642 10.517-10.681 5.846-.037 10.616 4.683 10.654 10.544.039 5.859-4.67 10.642-10.516 10.681z" clip-rule="evenodd"/>
  <path stroke="#0E0916" stroke-linecap="round" stroke-linejoin="round" stroke-width=".75" d="M8.1 121.17l3.06 5.25 18.381-14.972"/>
  <path fill="#F6F7F9" fill-rule="evenodd" d="M83.028 128.428l-52.879-.004.001-8.534 52.878.005v8.533z" clip-rule="evenodd"/>
  <path stroke="#0E0916" stroke-width=".75" d="M83.028 128.428l-52.879-.004.001-8.534 52.878.005v8.533z" clip-rule="evenodd"/>
  <path fill="#F2F0FF" fill-rule="evenodd" d="M84.166 83.857H118.7a5.482 5.482 0 005.475-5.488V48.312c0-3.031-2.452-5.489-5.475-5.489H84.167c-3.024 0-5.475 2.458-5.475 5.489v30.057c0 3.031 2.451 5.488 5.475 5.488z" clip-rule="evenodd"/>
  <path stroke="#340096" stroke-width=".75" d="M84.166 83.857H118.7a5.482 5.482 0 005.475-5.488V48.312c0-3.031-2.452-5.489-5.475-5.489H84.167c-3.024 0-5.475 2.458-5.475 5.489v30.057c0 3.031 2.451 5.488 5.475 5.488z" clip-rule="evenodd"/>
  <path fill="#340096" fill-rule="evenodd" d="M99.918 54.217c0-1.146.04-1.186-1.004-1.186h-2.468c-1.914 0-3.242.278-4.035.874-.523.38-.768 1.674-.872 2.544-.174.21-.768.21-.901-.07.102-1.045-.14-3.87-.527-5.3.072-.14.456-.174.629-.103.522.903.835.976 2.714.976h14.083c1.605 0 2.751.034 2.957-1.083.107-.106.556-.067.663 0 .242 1.394.765 3.627 1.323 5.196-.143.281-.626.454-.904.243-.385-.873-.733-1.64-1.565-2.403-.869-.804-2.786-.874-4.281-.874h-1.912c-1.042 0-1.042.04-1.042 1.117v15.588c0 3.658.172 4.18 2.156 4.356l1.249.104c.282.177.212.767 0 .874-2.224-.07-3.44-.107-4.833-.107-1.39 0-2.573.036-4.56.107-.2-.107-.275-.736-.065-.874l1.115-.104c2.014-.176 2.08-.698 2.08-4.356V54.217z" clip-rule="evenodd"/>
  <path fill="#DCEAFF" fill-rule="evenodd" d="M195 123.137l-39.079 13.296-8.215-24.261 39.078-13.296L195 123.136z" clip-rule="evenodd"/>
  <path stroke="#340096" stroke-linecap="round" stroke-linejoin="round" stroke-width=".75" d="M195 123.137l-39.079 13.296-8.215-24.261 39.078-13.296L195 123.136z" clip-rule="evenodd"/>
  <path fill="#2250FF" fill-rule="evenodd" d="M132.027 120.742l-13.356 44.126-29.327-8.92 13.355-44.127 29.328 8.921z" clip-rule="evenodd"/>
  <path stroke="#340096" stroke-linecap="round" stroke-linejoin="round" stroke-width=".75" d="M132.027 120.742l-13.356 44.126-29.327-8.92 13.355-44.127 29.328 8.921z" clip-rule="evenodd"/>
  <path stroke="#340096" stroke-linecap="round" stroke-linejoin="round" stroke-width=".75" d="M126.983 167.013c4.719-5.784 5.827-15.283 2.166-24.335-3.606-8.914-10.825-14.903-18.114-15.9"/>
  <path fill="#F2F0FF" fill-rule="evenodd" d="M174.457 153.984c5.478-8.118 3.353-19.151-4.745-24.643-8.101-5.493-19.109-3.364-24.587 4.754-5.477 8.116-3.351 19.152 4.75 24.646 8.098 5.492 19.105 3.36 24.582-4.757z" clip-rule="evenodd"/>
  <path stroke="#340096" stroke-width=".75" d="M174.457 153.984c5.478-8.118 3.353-19.151-4.745-24.643-8.101-5.493-19.109-3.364-24.587 4.754-5.477 8.116-3.351 19.152 4.75 24.646 8.098 5.492 19.105 3.36 24.582-4.757z" clip-rule="evenodd"/>
  <path fill="#2250FF" fill-rule="evenodd" d="M157.08 142.62c3.982-5.902 2.438-13.927-3.45-17.92-5.887-3.992-13.892-2.442-17.875 3.461-3.981 5.9-2.44 13.932 3.447 17.924 5.887 3.992 13.897 2.437 17.878-3.465z" clip-rule="evenodd"/>
  <path stroke="#340096" stroke-linecap="round" stroke-linejoin="round" stroke-width=".75" d="M157.08 142.62c3.982-5.902 2.438-13.927-3.45-17.92-5.887-3.992-13.892-2.442-17.875 3.461-3.981 5.9-2.44 13.932 3.447 17.924 5.887 3.992 13.897 2.437 17.878-3.465z" clip-rule="evenodd"/>
  <path fill="#FFD8BA" fill-rule="evenodd" d="M135.218 124.39c-1.615-7.832 2.931-15.396 10.156-16.893 7.225-1.498 14.391 3.638 16.007 11.47l9.991-2.071c-2.851-13.813-15.49-22.87-28.232-20.23-12.741 2.64-20.761 15.982-17.912 29.796l9.99-2.072z" clip-rule="evenodd"/>
  <path stroke="#340096" stroke-linecap="round" stroke-linejoin="round" stroke-width=".75" d="M135.218 124.39c-1.615-7.832 2.931-15.396 10.156-16.893 7.225-1.498 14.391 3.638 16.007 11.47l9.991-2.071c-2.851-13.813-15.49-22.87-28.232-20.23-12.741 2.64-20.761 15.982-17.912 29.796l9.99-2.072z" clip-rule="evenodd"/>
  <path fill="#F2F0FF" fill-rule="evenodd" d="M142.238 78.096l5.988-11.007s3.953 3.815 6.236 6.397c-6.508 2.225-12.224 4.61-12.224 4.61z" clip-rule="evenodd"/>
  <path stroke="#0E0916" stroke-linecap="round" stroke-linejoin="round" stroke-width=".75" d="M142.238 78.096l5.988-11.007s3.953 3.815 6.236 6.397c-6.508 2.225-12.224 4.61-12.224 4.61z" clip-rule="evenodd"/>
  <path fill="#2250FF" fill-rule="evenodd" d="M144.094 74.103l2.246 2.651-4.203 1.781-.472-.11 2.429-4.322z" clip-rule="evenodd"/>
  <path stroke="#0E0916" stroke-linecap="round" stroke-linejoin="round" stroke-width=".75" d="M144.094 74.103l2.246 2.651-4.203 1.781-.472-.11 2.429-4.322z" clip-rule="evenodd"/>
  <path fill="#FFA578" fill-rule="evenodd" d="M173.976 54.208l-6.721-6.742-19.143 19.55 6.523 6.614 19.341-19.422z" clip-rule="evenodd"/>
  <path stroke="#0E0916" stroke-linecap="round" stroke-linejoin="round" stroke-width=".75" d="M173.976 54.208l-6.721-6.742-19.143 19.55 6.523 6.614 19.341-19.422z" clip-rule="evenodd"/>
  <path fill="#FFA578" fill-rule="evenodd" d="M177.143 51.154c.658-3.687-2.124-6.746-6.723-6.746-1.186 1.19-2.375 2.378-3.563 3.567 2.246 2.244 4.488 4.495 6.732 6.742 1.184-1.19 2.368-2.375 3.554-3.563z" clip-rule="evenodd"/>
  <path stroke="#0E0916" stroke-linecap="round" stroke-linejoin="round" stroke-width=".75" d="M177.143 51.154c.658-3.687-2.124-6.746-6.723-6.746-1.186 1.19-2.375 2.378-3.563 3.567 2.246 2.244 4.488 4.495 6.732 6.742 1.184-1.19 2.368-2.375 3.554-3.563z" clip-rule="evenodd"/>
  <path fill="#F2F0FF" fill-rule="evenodd" d="M174.613 53.695c-2.562-2.765-4.488-4.647-6.726-6.746-1.188 1.19-2.372 2.378-3.56 3.566 2.242 2.244 4.485 4.496 6.727 6.742 1.184-1.19 2.373-2.375 3.559-3.562z" clip-rule="evenodd"/>
  <path stroke="#0E0916" stroke-linecap="round" stroke-linejoin="round" stroke-width=".75" d="M174.613 53.695c-2.562-2.765-4.488-4.647-6.726-6.746-1.188 1.19-2.372 2.378-3.56 3.566 2.242 2.244 4.485 4.496 6.727 6.742 1.184-1.19 2.373-2.375 3.559-3.562z" clip-rule="evenodd"/>
</svg>
