<svg viewBox="0 0 145 136" fill="none" xmlns="http://www.w3.org/2000/svg">
<path fill-rule="evenodd" clip-rule="evenodd" d="M139.874 68C139.874 105.555 109.513 136 72.0596 136C34.6066 136 4.24512 105.555 4.24512 68C4.24512 30.4446 34.6066 0 72.0596 0C109.513 0 139.874 30.4446 139.874 68Z" fill="#FFEBDE"/>
<path fill-rule="evenodd" clip-rule="evenodd" d="M113.417 115.399H36.6438C33.7439 115.399 31.3926 113.035 31.3926 110.12V28.2309C31.3926 25.3152 33.7439 22.9516 36.6438 22.9516H113.417C116.317 22.9516 118.668 25.3152 118.668 28.2309V110.12C118.668 113.035 116.317 115.399 113.417 115.399Z" fill="#FBFBFC"/>
<path fill-rule="evenodd" clip-rule="evenodd" d="M113.417 115.399H36.6438C33.7439 115.399 31.3926 113.035 31.3926 110.12V28.2309C31.3926 25.3152 33.7439 22.9516 36.6438 22.9516H113.417C116.317 22.9516 118.668 25.3152 118.668 28.2309V110.12C118.668 113.035 116.317 115.399 113.417 115.399Z" stroke="#0E0916" stroke-width="0.75" stroke-linecap="round" stroke-linejoin="round"/>
<path fill-rule="evenodd" clip-rule="evenodd" d="M8.85399 54.5524C4.54461 54.5808 1.02843 51.0918 1.00018 46.76C0.971189 42.4282 4.44203 38.8937 8.75214 38.8653C13.0615 38.8369 16.5777 42.3258 16.6059 46.6584C16.6342 50.9895 13.1634 54.5247 8.85399 54.5524Z" fill="#BCD7FE"/>
<path fill-rule="evenodd" clip-rule="evenodd" d="M8.85399 54.5524C4.54461 54.5808 1.02843 51.0918 1.00018 46.76C0.971189 42.4282 4.44203 38.8937 8.75214 38.8653C13.0615 38.8369 16.5777 42.3258 16.6059 46.6584C16.6342 50.9895 13.1634 54.5247 8.85399 54.5524Z" stroke="#0E0916" stroke-width="0.75" stroke-linecap="round" stroke-linejoin="round"/>
<path d="M6.09863 45.5489L8.35479 49.4286L21.9036 38.3633" stroke="#0E0916" stroke-width="0.75" stroke-linecap="round" stroke-linejoin="round"/>
<path fill-rule="evenodd" clip-rule="evenodd" d="M61.3751 50.9138L22.3975 50.9101L22.3982 44.6033L61.3751 44.607V50.9138Z" fill="#F6F7F9"/>
<path fill-rule="evenodd" clip-rule="evenodd" d="M61.3751 50.9138L22.3975 50.9101L22.3982 44.6033L61.3751 44.607V50.9138Z" stroke="#0E0916" stroke-width="0.75"/>
<path fill-rule="evenodd" clip-rule="evenodd" d="M8.85399 76.5919C4.54461 76.6203 1.02843 73.1314 1.00018 68.7996C0.971189 64.4678 4.44203 60.9333 8.75214 60.9049C13.0615 60.8772 16.5777 64.3654 16.6059 68.698C16.6342 73.029 13.1634 76.5643 8.85399 76.5919Z" fill="#BCD7FE"/>
<path fill-rule="evenodd" clip-rule="evenodd" d="M8.85399 76.5919C4.54461 76.6203 1.02843 73.1314 1.00018 68.7996C0.971189 64.4678 4.44203 60.9333 8.75214 60.9049C13.0615 60.8772 16.5777 64.3654 16.6059 68.698C16.6342 73.029 13.1634 76.5643 8.85399 76.5919Z" stroke="#0E0916" stroke-width="0.75" stroke-linecap="round" stroke-linejoin="round"/>
<path d="M6.09863 67.5885L8.35479 71.4682L21.9036 60.4029" stroke="#0E0916" stroke-width="0.75" stroke-linecap="round" stroke-linejoin="round"/>
<path fill-rule="evenodd" clip-rule="evenodd" d="M61.3741 72.9534L22.3965 72.9497L22.3972 66.6429L61.3749 66.6466L61.3741 72.9534Z" fill="#F6F7F9"/>
<path fill-rule="evenodd" clip-rule="evenodd" d="M61.3741 72.9534L22.3965 72.9497L22.3972 66.6429L61.3749 66.6466L61.3741 72.9534Z" stroke="#0E0916" stroke-width="0.75"/>
<path fill-rule="evenodd" clip-rule="evenodd" d="M8.98972 98.5643C4.68035 98.592 1.16416 95.1031 1.13591 90.7712C1.10766 86.4394 4.5785 82.9049 8.88788 82.8765C13.1972 82.8489 16.7134 86.3378 16.7417 90.6696C16.7699 95.0007 13.2991 98.5359 8.98972 98.5643Z" fill="#BCD7FE"/>
<path fill-rule="evenodd" clip-rule="evenodd" d="M8.98972 98.5643C4.68035 98.592 1.16416 95.1031 1.13591 90.7712C1.10766 86.4394 4.5785 82.9049 8.88788 82.8765C13.1972 82.8489 16.7134 86.3378 16.7417 90.6696C16.7699 95.0007 13.2991 98.5359 8.98972 98.5643Z" stroke="#0E0916" stroke-width="0.75" stroke-linecap="round" stroke-linejoin="round"/>
<path d="M6.2334 89.5602L8.48956 93.4406L22.0384 82.3746" stroke="#0E0916" stroke-width="0.75" stroke-linecap="round" stroke-linejoin="round"/>
<path fill-rule="evenodd" clip-rule="evenodd" d="M61.4639 94.9251L22.4863 94.9221L22.4871 88.6146L61.4639 88.6183V94.9251Z" fill="#F6F7F9"/>
<path fill-rule="evenodd" clip-rule="evenodd" d="M61.4639 94.9251L22.4863 94.9221L22.4871 88.6146L61.4639 88.6183V94.9251Z" stroke="#0E0916" stroke-width="0.75"/>
<path fill-rule="evenodd" clip-rule="evenodd" d="M62.3026 61.9812H87.7567C89.9854 61.9812 91.7925 60.1653 91.7925 57.9251V35.7085C91.7925 33.4682 89.9854 31.6517 87.7567 31.6517H62.3026C60.074 31.6517 58.2676 33.4682 58.2676 35.7085V57.9251C58.2676 60.1653 60.074 61.9812 62.3026 61.9812Z" fill="#F2F0FF"/>
<path fill-rule="evenodd" clip-rule="evenodd" d="M62.3026 61.9812H87.7567C89.9854 61.9812 91.7925 60.1653 91.7925 57.9251V35.7085C91.7925 33.4682 89.9854 31.6517 87.7567 31.6517H62.3026C60.074 31.6517 58.2676 33.4682 58.2676 35.7085V57.9251C58.2676 60.1653 60.074 61.9812 62.3026 61.9812Z" stroke="#340096" stroke-width="0.75"/>
<path fill-rule="evenodd" clip-rule="evenodd" d="M73.9142 40.0736C73.9142 39.2262 73.9439 39.1971 73.1745 39.1971H71.3547C69.9438 39.1971 68.9655 39.4026 68.3805 39.8427C67.9954 40.1237 67.8147 41.0801 67.7382 41.7235C67.6096 41.8782 67.1717 41.8782 67.0736 41.6712C67.1487 40.8993 66.971 38.8107 66.6855 37.7541C66.7383 37.651 67.0216 37.6256 67.1487 37.6779C67.5337 38.3452 67.7642 38.399 69.1491 38.399H79.5304C80.7131 38.399 81.5583 38.4244 81.71 37.5987C81.7888 37.5202 82.1196 37.5494 82.1984 37.5987C82.3768 38.6292 82.7626 40.2798 83.1737 41.4396C83.0681 41.6473 82.7121 41.7751 82.5076 41.6189C82.2237 40.974 81.9672 40.4069 81.3539 39.8427C80.7131 39.2486 79.3 39.1971 78.1983 39.1971H76.7888C76.0209 39.1971 76.0209 39.2262 76.0209 40.0228V51.5439C76.0209 54.2475 76.1473 54.6338 77.6103 54.7638L78.5306 54.8408C78.7387 54.9716 78.6867 55.4072 78.5306 55.4864C76.8914 55.4341 75.9949 55.4072 74.9683 55.4072C73.9439 55.4072 73.0719 55.4341 71.6067 55.4864C71.4595 55.4072 71.4045 54.9424 71.5591 54.8408L72.3806 54.7638C73.8659 54.6338 73.9142 54.2475 73.9142 51.5439V40.0736Z" fill="#340096"/>
<path fill-rule="evenodd" clip-rule="evenodd" d="M144 91.0145L115.195 100.842L109.14 82.9098L137.945 73.0819L144 91.0145Z" fill="#DCEAFF"/>
<path fill-rule="evenodd" clip-rule="evenodd" d="M144 91.0145L115.195 100.842L109.14 82.9098L137.945 73.0819L144 91.0145Z" stroke="#340096" stroke-width="0.75" stroke-linecap="round" stroke-linejoin="round"/>
<path fill-rule="evenodd" clip-rule="evenodd" d="M97.5812 89.2442L87.7366 121.859L66.1191 115.266L75.9637 82.6504L97.5812 89.2442Z" fill="#2250FF"/>
<path fill-rule="evenodd" clip-rule="evenodd" d="M97.5812 89.2442L87.7366 121.859L66.1191 115.266L75.9637 82.6504L97.5812 89.2442Z" stroke="#340096" stroke-width="0.75" stroke-linecap="round" stroke-linejoin="round"/>
<path d="M93.8634 123.444C97.3425 119.169 98.1587 112.148 95.4602 105.458C92.8026 98.8693 87.4808 94.4426 82.1084 93.7058" stroke="#340096" stroke-width="0.75" stroke-linecap="round" stroke-linejoin="round"/>
<path fill-rule="evenodd" clip-rule="evenodd" d="M128.857 113.814C132.895 107.814 131.328 99.6592 125.36 95.6001C119.388 91.5396 111.274 93.1133 107.236 99.1137C103.199 105.113 104.766 113.27 110.737 117.33C116.707 121.389 124.82 119.813 128.857 113.814Z" fill="#F2F0FF"/>
<path fill-rule="evenodd" clip-rule="evenodd" d="M128.857 113.814C132.895 107.814 131.328 99.6592 125.36 95.6001C119.388 91.5396 111.274 93.1133 107.236 99.1137C103.199 105.113 104.766 113.27 110.737 117.33C116.707 121.389 124.82 119.813 128.857 113.814Z" stroke="#340096" stroke-width="0.75"/>
<path fill-rule="evenodd" clip-rule="evenodd" d="M116.049 105.415C118.984 101.053 117.846 95.121 113.506 92.1693C109.166 89.2192 103.266 90.3647 100.33 94.7279C97.3956 99.0889 98.5315 105.025 102.871 107.976C107.21 110.927 113.114 109.777 116.049 105.415Z" fill="#2250FF"/>
<path fill-rule="evenodd" clip-rule="evenodd" d="M116.049 105.415C118.984 101.053 117.846 95.121 113.506 92.1693C109.166 89.2192 103.266 90.3647 100.33 94.7279C97.3956 99.0889 98.5315 105.025 102.871 107.976C107.21 110.927 113.114 109.777 116.049 105.415Z" stroke="#340096" stroke-width="0.75" stroke-linecap="round" stroke-linejoin="round"/>
<path fill-rule="evenodd" clip-rule="evenodd" d="M99.9341 91.9407C98.7432 86.1517 102.094 80.5608 107.42 79.4541C112.745 78.3474 118.028 82.1434 119.219 87.9324L126.583 86.4013C124.482 76.1916 115.166 69.4969 105.773 71.4488C96.3815 73.4006 90.4701 83.2613 92.5702 93.4718L99.9341 91.9407Z" fill="#FFD8BA"/>
<path fill-rule="evenodd" clip-rule="evenodd" d="M99.9341 91.9407C98.7432 86.1517 102.094 80.5608 107.42 79.4541C112.745 78.3474 118.028 82.1434 119.219 87.9324L126.583 86.4013C124.482 76.1916 115.166 69.4969 105.773 71.4488C96.3815 73.4006 90.4701 83.2613 92.5702 93.4718L99.9341 91.9407Z" stroke="#340096" stroke-width="0.75" stroke-linecap="round" stroke-linejoin="round"/>
<path fill-rule="evenodd" clip-rule="evenodd" d="M105.108 57.7231L109.522 49.5878C109.522 49.5878 112.436 52.4072 114.119 54.3156C109.322 55.9603 105.108 57.7231 105.108 57.7231Z" fill="#F2F0FF"/>
<path fill-rule="evenodd" clip-rule="evenodd" d="M105.108 57.7231L109.522 49.5878C109.522 49.5878 112.436 52.4072 114.119 54.3156C109.322 55.9603 105.108 57.7231 105.108 57.7231Z" stroke="#0E0916" stroke-width="0.75" stroke-linecap="round" stroke-linejoin="round"/>
<path fill-rule="evenodd" clip-rule="evenodd" d="M106.477 54.772L108.133 56.7313L105.034 58.048L104.687 57.9658L106.477 54.772Z" fill="#2250FF"/>
<path fill-rule="evenodd" clip-rule="evenodd" d="M106.477 54.772L108.133 56.7313L105.034 58.048L104.687 57.9658L106.477 54.772Z" stroke="#0E0916" stroke-width="0.75" stroke-linecap="round" stroke-linejoin="round"/>
<path fill-rule="evenodd" clip-rule="evenodd" d="M128.503 40.0671L123.549 35.0837L109.438 49.5333L114.247 54.4226L128.503 40.0671Z" fill="#FFA578"/>
<path fill-rule="evenodd" clip-rule="evenodd" d="M128.503 40.0671L123.549 35.0837L109.438 49.5333L114.247 54.4226L128.503 40.0671Z" stroke="#0E0916" stroke-width="0.75" stroke-linecap="round" stroke-linejoin="round"/>
<path fill-rule="evenodd" clip-rule="evenodd" d="M130.837 37.8093C131.321 35.0841 129.271 32.8237 125.881 32.8237C125.007 33.7024 124.131 34.5812 123.255 35.46C124.91 37.1181 126.563 38.7823 128.217 40.4427C129.09 39.5639 129.962 38.6874 130.837 37.8093Z" fill="#FFA578"/>
<path fill-rule="evenodd" clip-rule="evenodd" d="M130.837 37.8093C131.321 35.0841 129.271 32.8237 125.881 32.8237C125.007 33.7024 124.131 34.5812 123.255 35.46C124.91 37.1181 126.563 38.7823 128.217 40.4427C129.09 39.5639 129.962 38.6874 130.837 37.8093Z" stroke="#0E0916" stroke-width="0.75" stroke-linecap="round" stroke-linejoin="round"/>
<path fill-rule="evenodd" clip-rule="evenodd" d="M128.972 39.6875C127.084 37.6438 125.664 36.2532 124.015 34.7011C123.139 35.5806 122.266 36.4594 121.391 37.3374C123.043 38.9956 124.696 40.6605 126.349 42.3209C127.222 41.4406 128.098 40.5648 128.972 39.6875Z" fill="#F2F0FF"/>
<path fill-rule="evenodd" clip-rule="evenodd" d="M128.972 39.6875C127.084 37.6438 125.664 36.2532 124.015 34.7011C123.139 35.5806 122.266 36.4594 121.391 37.3374C123.043 38.9956 124.696 40.6605 126.349 42.3209C127.222 41.4406 128.098 40.5648 128.972 39.6875Z" stroke="#0E0916" stroke-width="0.75" stroke-linecap="round" stroke-linejoin="round"/>
</svg>
