<svg xmlns="http://www.w3.org/2000/svg" fill="none" viewBox="0 0 219 184">
  <path fill="#FFEBDE" fill-rule="evenodd" d="M184 92c0 50.81-41.19 92-92 92S0 142.81 0 92 41.19 0 92 0s92 41.19 92 92z" clip-rule="evenodd"/>
  <path fill="#2250FF" fill-rule="evenodd" d="M176.406 37.407H55.244c-8.13 0-14.781 6.657-14.781 14.794v80.02c0 8.138 6.652 14.795 14.78 14.795h5.773v16.764l16.746-16.764h98.644c8.129 0 14.781-6.657 14.781-14.795v-80.02c0-8.137-6.652-14.794-14.781-14.794z" clip-rule="evenodd"/>
  <path stroke="#0E0916" stroke-linecap="round" stroke-linejoin="round" stroke-width=".75" d="M176.406 37.407H55.244c-8.13 0-14.781 6.657-14.781 14.794v80.02c0 8.138 6.652 14.795 14.78 14.795h5.773v16.764l16.746-16.764h98.644c8.129 0 14.781-6.657 14.781-14.795v-80.02c0-8.137-6.652-14.794-14.781-14.794z" clip-rule="evenodd"/>
  <path fill="#FFD8BA" fill-rule="evenodd" d="M210.885 115.478l.145 1.324a4.706 4.706 0 005.532 4.117l1.438-.265-1.426.72a4.714 4.714 0 00-1.896 6.663l.604.99-1.143-1.095a4.703 4.703 0 00-6.509 0l-1.143 1.095.604-.99a4.713 4.713 0 00-1.895-6.663l-1.427-.72 1.439.265a4.705 4.705 0 005.53-4.117l.147-1.324z" clip-rule="evenodd"/>
  <path stroke="#0E0916" stroke-linecap="round" stroke-linejoin="round" stroke-width=".75" d="M210.885 115.478l.145 1.324a4.706 4.706 0 005.532 4.117l1.438-.265-1.426.72a4.714 4.714 0 00-1.896 6.663l.604.99-1.143-1.095a4.703 4.703 0 00-6.509 0l-1.143 1.095.604-.99a4.713 4.713 0 00-1.895-6.663l-1.427-.72 1.439.265a4.705 4.705 0 005.53-4.117l.147-1.324z" clip-rule="evenodd"/>
  <path fill="#FFD8BA" fill-rule="evenodd" d="M59.802 109.191l.145 1.322a4.707 4.707 0 005.532 4.118l1.438-.265-1.426.721a4.713 4.713 0 00-1.896 6.662l.604.99-1.143-1.095a4.703 4.703 0 00-6.51 0l-1.142 1.095.604-.99a4.713 4.713 0 00-1.895-6.662l-1.428-.721 1.44.265a4.706 4.706 0 005.53-4.118l.147-1.322z" clip-rule="evenodd"/>
  <path stroke="#0E0916" stroke-linecap="round" stroke-linejoin="round" stroke-width=".75" d="M59.802 109.191l.145 1.322a4.707 4.707 0 005.532 4.118l1.438-.265-1.426.721a4.713 4.713 0 00-1.896 6.662l.604.99-1.143-1.095a4.703 4.703 0 00-6.51 0l-1.142 1.095.604-.99a4.713 4.713 0 00-1.895-6.662l-1.428-.721 1.44.265a4.706 4.706 0 005.53-4.118l.147-1.322z" clip-rule="evenodd"/>
  <path fill="#BCD7FE" fill-rule="evenodd" d="M100.443 130.835l12.666-41.496 12.812 41.496h17.703l23.031-72.618h-19.864L133.98 98.705l-12.521-40.488h-16.698L92.383 98.705l-12.81-40.488H59.707l22.886 72.618h17.849z" clip-rule="evenodd"/>
  <path stroke="#0E0916" stroke-linecap="round" stroke-linejoin="round" stroke-width=".75" d="M100.443 130.835l12.666-41.496 12.812 41.496h17.703l23.031-72.618h-19.864L133.98 98.705l-12.521-40.488h-16.698L92.383 98.705l-12.81-40.488H59.707l22.886 72.618h17.849z" clip-rule="evenodd"/>
  <path fill="#BC99FF" fill-rule="evenodd" d="M110.493 140.268l12.667-41.496 12.81 41.496h17.705l23.031-72.618h-19.864l-12.811 40.487-12.523-40.487h-16.697l-12.378 40.487L89.622 67.65H69.759l22.886 72.618h17.848z" clip-rule="evenodd"/>
  <path stroke="#0E0916" stroke-linecap="round" stroke-linejoin="round" stroke-width=".75" d="M110.493 140.268l12.667-41.496 12.81 41.496h17.705l23.031-72.618h-19.864l-12.811 40.487-12.523-40.487h-16.697l-12.378 40.487L89.622 67.65H69.759l22.886 72.618h17.848z" clip-rule="evenodd"/>
  <path fill="#FFA578" fill-rule="evenodd" d="M120.545 150.643l12.666-41.496 12.811 41.496h17.704l23.03-72.618h-19.863l-12.811 40.488-12.522-40.488h-16.698l-12.378 40.488-12.81-40.488H79.81l22.886 72.618h17.849z" clip-rule="evenodd"/>
  <path stroke="#0E0916" stroke-linecap="round" stroke-linejoin="round" stroke-width=".75" d="M120.545 150.643l12.666-41.496 12.811 41.496h17.704l23.03-72.618h-19.863l-12.811 40.488-12.522-40.488h-16.698l-12.378 40.488-12.81-40.488H79.81l22.886 72.618h17.849z" clip-rule="evenodd"/>
  <path fill="#E6E2FF" fill-rule="evenodd" d="M130.595 161.019l12.667-41.496 12.811 41.496h17.704l23.03-72.618h-19.864l-12.81 40.488-12.523-40.488h-16.697l-12.378 40.488-12.811-40.488H89.86l22.886 72.618h17.849z" clip-rule="evenodd"/>
  <path stroke="#0E0916" stroke-linecap="round" stroke-linejoin="round" stroke-width=".75" d="M130.595 161.019l12.667-41.496 12.811 41.496h17.704l23.03-72.618h-19.864l-12.81 40.488-12.523-40.488h-16.697l-12.378 40.488-12.811-40.488H89.86l22.886 72.618h17.849z" clip-rule="evenodd"/>
  <path fill="#FFD8BA" fill-rule="evenodd" d="M190.923 98.607l.145 1.323a4.707 4.707 0 005.532 4.117l1.439-.265-1.427.721a4.713 4.713 0 00-1.896 6.662l.604.99-1.142-1.095a4.704 4.704 0 00-6.51 0l-1.143 1.095.604-.99a4.712 4.712 0 00-1.895-6.662l-1.426-.721 1.438.265a4.707 4.707 0 005.531-4.117l.146-1.323z" clip-rule="evenodd"/>
  <path stroke="#0E0916" stroke-linecap="round" stroke-linejoin="round" stroke-width=".75" d="M190.923 98.607l.145 1.323a4.707 4.707 0 005.532 4.117l1.439-.265-1.427.721a4.713 4.713 0 00-1.896 6.662l.604.99-1.142-1.095a4.704 4.704 0 00-6.51 0l-1.143 1.095.604-.99a4.712 4.712 0 00-1.895-6.662l-1.426-.721 1.438.265a4.707 4.707 0 005.531-4.117l.146-1.323z" clip-rule="evenodd"/>
</svg>
