<svg  viewBox="0 0 162 136" fill="none" xmlns="http://www.w3.org/2000/svg">
<path fill-rule="evenodd" clip-rule="evenodd" d="M135.89 68C135.89 105.555 105.47 136 67.945 136C30.4199 136 0 105.555 0 68C0 30.4446 30.4199 0 67.945 0C105.47 0 135.89 30.4446 135.89 68Z" fill="#FFEBDE"/>
<path fill-rule="evenodd" clip-rule="evenodd" d="M130.281 27.6484H40.799C34.7953 27.6484 29.8828 32.569 29.8828 38.5837V97.7287C29.8828 103.743 34.7953 108.664 40.799 108.664H45.0618V121.055L57.4295 108.664H130.281C136.285 108.664 141.197 103.743 141.197 97.7287V38.5837C141.197 32.569 136.285 27.6484 130.281 27.6484Z" fill="#2250FF"/>
<path fill-rule="evenodd" clip-rule="evenodd" d="M130.281 27.6484H40.799C34.7953 27.6484 29.8828 32.569 29.8828 38.5837V97.7287C29.8828 103.743 34.7953 108.664 40.799 108.664H45.0618V121.055L57.4295 108.664H130.281C136.285 108.664 141.197 103.743 141.197 97.7287V38.5837C141.197 32.569 136.285 27.6484 130.281 27.6484Z" stroke="#0E0916" stroke-width="0.75" stroke-linecap="round" stroke-linejoin="round"/>
<path fill-rule="evenodd" clip-rule="evenodd" d="M155.745 85.3536L155.852 86.3317C156.072 88.3426 157.952 89.7422 159.938 89.3753L161 89.1788L159.946 89.7116C158.133 90.6284 157.487 92.9001 158.546 94.6359L158.992 95.3675L158.148 94.5582C156.804 93.2692 154.685 93.2692 153.341 94.5582L152.497 95.3675L152.943 94.6359C154.002 92.9001 153.356 90.6284 151.543 89.7116L150.489 89.1788L151.552 89.3753C153.538 89.7422 155.417 88.3426 155.637 86.3317L155.745 85.3536Z" fill="#FFD8BA"/>
<path fill-rule="evenodd" clip-rule="evenodd" d="M155.745 85.3536L155.852 86.3317C156.072 88.3426 157.952 89.7422 159.938 89.3753L161 89.1788L159.946 89.7116C158.133 90.6284 157.487 92.9001 158.546 94.6359L158.992 95.3675L158.148 94.5582C156.804 93.2692 154.685 93.2692 153.341 94.5582L152.497 95.3675L152.943 94.6359C154.002 92.9001 153.356 90.6284 151.543 89.7116L150.489 89.1788L151.552 89.3753C153.538 89.7422 155.417 88.3426 155.637 86.3317L155.745 85.3536Z" stroke="#0E0916" stroke-width="0.75" stroke-linecap="round" stroke-linejoin="round"/>
<path fill-rule="evenodd" clip-rule="evenodd" d="M44.1648 80.7062L44.2722 81.6836C44.4922 83.6945 46.3719 85.0941 48.3574 84.7272L49.4196 84.5314L48.3664 85.0642C46.5531 85.9811 45.9072 88.2527 46.9663 89.9886L47.4124 90.7202L46.568 89.9109C45.2239 88.6219 43.1048 88.6219 41.7607 89.9109L40.9171 90.7202L41.3632 89.9886C42.4216 88.2527 41.7764 85.9811 39.9631 85.0642L38.9092 84.5314L39.9721 84.7272C41.9577 85.0941 43.8366 83.6945 44.0566 81.6836L44.1648 80.7062Z" fill="#FFD8BA"/>
<path fill-rule="evenodd" clip-rule="evenodd" d="M44.1648 80.7062L44.2722 81.6836C44.4922 83.6945 46.3719 85.0941 48.3574 84.7272L49.4196 84.5314L48.3664 85.0642C46.5531 85.9811 45.9072 88.2527 46.9663 89.9886L47.4124 90.7202L46.568 89.9109C45.2239 88.6219 43.1048 88.6219 41.7607 89.9109L40.9171 90.7202L41.3632 89.9886C42.4216 88.2527 41.7764 85.9811 39.9631 85.0642L38.9092 84.5314L39.9721 84.7272C41.9577 85.0941 43.8366 83.6945 44.0566 81.6836L44.1648 80.7062Z" stroke="#0E0916" stroke-width="0.75" stroke-linecap="round" stroke-linejoin="round"/>
<path fill-rule="evenodd" clip-rule="evenodd" d="M74.1799 96.7042L83.5342 66.0332L92.9959 96.7042H106.071L123.079 43.0298H108.409L98.9481 72.9558L89.7005 43.0298H77.3686L68.2269 72.9558L58.766 43.0298H44.0957L60.9977 96.7042H74.1799Z" fill="#BCD7FE"/>
<path fill-rule="evenodd" clip-rule="evenodd" d="M74.1799 96.7042L83.5342 66.0332L92.9959 96.7042H106.071L123.079 43.0298H108.409L98.9481 72.9558L89.7005 43.0298H77.3686L68.2269 72.9558L58.766 43.0298H44.0957L60.9977 96.7042H74.1799Z" stroke="#0E0916" stroke-width="0.75" stroke-linecap="round" stroke-linejoin="round"/>
<path fill-rule="evenodd" clip-rule="evenodd" d="M81.603 103.676L90.958 73.0053L100.419 103.676H113.495L130.503 50.0019H115.833L106.372 79.9271L97.1236 50.0019H84.7917L75.6508 79.9271L66.1891 50.0019H51.5195L68.4215 103.676H81.603Z" fill="#BC99FF"/>
<path fill-rule="evenodd" clip-rule="evenodd" d="M81.603 103.676L90.958 73.0053L100.419 103.676H113.495L130.503 50.0019H115.833L106.372 79.9271L97.1236 50.0019H84.7917L75.6508 79.9271L66.1891 50.0019H51.5195L68.4215 103.676H81.603Z" stroke="#0E0916" stroke-width="0.75" stroke-linecap="round" stroke-linejoin="round"/>
<path fill-rule="evenodd" clip-rule="evenodd" d="M89.0259 111.345L98.3801 80.6741L107.842 111.345H120.917L137.925 57.6707H123.256L113.794 87.5967L104.546 57.6707H92.2146L83.0729 87.5967L73.6119 57.6707H58.9424L75.8444 111.345H89.0259Z" fill="#FFA578"/>
<path fill-rule="evenodd" clip-rule="evenodd" d="M89.0259 111.345L98.3801 80.6741L107.842 111.345H120.917L137.925 57.6707H123.256L113.794 87.5967L104.546 57.6707H92.2146L83.0729 87.5967L73.6119 57.6707H58.9424L75.8444 111.345H89.0259Z" stroke="#0E0916" stroke-width="0.75" stroke-linecap="round" stroke-linejoin="round"/>
<path fill-rule="evenodd" clip-rule="evenodd" d="M96.4494 119.014L105.804 88.343L115.265 119.014H128.34L145.349 65.3395H130.679L121.218 95.2655L111.969 65.3395H99.6381L90.4964 95.2655L81.0355 65.3395H66.3652L83.2672 119.014H96.4494Z" fill="#E6E2FF"/>
<path fill-rule="evenodd" clip-rule="evenodd" d="M96.4494 119.014L105.804 88.343L115.265 119.014H128.34L145.349 65.3395H130.679L121.218 95.2655L111.969 65.3395H99.6381L90.4964 95.2655L81.0355 65.3395H66.3652L83.2672 119.014H96.4494Z" stroke="#0E0916" stroke-width="0.75" stroke-linecap="round" stroke-linejoin="round"/>
<path fill-rule="evenodd" clip-rule="evenodd" d="M141.003 72.8834L141.11 73.8616C141.331 75.8717 143.21 77.2713 145.196 76.9044L146.258 76.7086L145.205 77.2414C143.391 78.1583 142.745 80.4299 143.804 82.1658L144.251 82.8974L143.407 82.0881C142.062 80.7991 139.944 80.7991 138.599 82.0881L137.755 82.8974L138.201 82.1658C139.26 80.4299 138.615 78.1583 136.801 77.2414L135.748 76.7086L136.81 76.9044C138.796 77.2713 140.675 75.8717 140.895 73.8616L141.003 72.8834Z" fill="#FFD8BA"/>
<path fill-rule="evenodd" clip-rule="evenodd" d="M141.003 72.8834L141.11 73.8616C141.331 75.8717 143.21 77.2713 145.196 76.9044L146.258 76.7086L145.205 77.2414C143.391 78.1583 142.745 80.4299 143.804 82.1658L144.251 82.8974L143.407 82.0881C142.062 80.7991 139.944 80.7991 138.599 82.0881L137.755 82.8974L138.201 82.1658C139.26 80.4299 138.615 78.1583 136.801 77.2414L135.748 76.7086L136.81 76.9044C138.796 77.2713 140.675 75.8717 140.895 73.8616L141.003 72.8834Z" stroke="#0E0916" stroke-width="0.75" stroke-linecap="round" stroke-linejoin="round"/>
</svg>
