<svg xmlns="http://www.w3.org/2000/svg" fill="none" viewBox="0 0 243 184">
  <path fill="#F2F0FF" fill-rule="evenodd" d="M211.822 92c0 50.81-41.189 92-92 92-50.81 0-92-41.19-92-92s41.19-92 92-92c50.811 0 92 41.19 92 92z" clip-rule="evenodd"/>
  <path stroke="#0E0916" stroke-linecap="round" stroke-linejoin="round" stroke-width=".75" d="M17.96 108.552h25.714c6.944 0 12.572-5.615 12.572-12.54v-52.38c0-7.732 6.285-14 14.04-14 7.752 0 14.038 6.268 14.038 14v84.013c0 13.359 10.856 24.186 24.248 24.186 13.391 0 24.248-10.827 24.248-24.186V71.637c0-7.733 6.286-14.002 14.039-14.002s14.038 6.269 14.038 14.002"/>
  <path stroke="#0E0916" stroke-dasharray="3 3" stroke-linecap="round" stroke-linejoin="round" stroke-width=".75" d="M160.896 75.935v24.131c0 8.466 6.882 15.33 15.37 15.33h30.574"/>
  <path fill="#F2F0FF" fill-rule="evenodd" d="M88.807 127.515a4.149 4.149 0 01-4.154 4.143 4.149 4.149 0 01-4.154-4.143 4.148 4.148 0 014.154-4.143 4.148 4.148 0 014.154 4.143z" clip-rule="evenodd"/>
  <path stroke="#0E0916" stroke-width=".75" d="M88.807 127.515a4.149 4.149 0 01-4.154 4.143 4.149 4.149 0 01-4.154-4.143 4.148 4.148 0 014.154-4.143 4.148 4.148 0 014.154 4.143z" clip-rule="evenodd"/>
  <path fill="#FFD8BA" fill-rule="evenodd" d="M137.641 83.513a4.147 4.147 0 01-4.153 4.143 4.148 4.148 0 01-4.153-4.143 4.147 4.147 0 014.153-4.143 4.147 4.147 0 014.153 4.143z" clip-rule="evenodd"/>
  <path stroke="#0E0916" stroke-linecap="round" stroke-linejoin="round" stroke-width=".75" d="M137.641 83.513a4.147 4.147 0 01-4.153 4.143 4.148 4.148 0 01-4.153-4.143 4.147 4.147 0 014.153-4.143 4.147 4.147 0 014.153 4.143z" clip-rule="evenodd"/>
  <path fill="#BC99FF" fill-rule="evenodd" d="M60.52 63.017a4.149 4.149 0 01-4.154 4.143 4.149 4.149 0 01-4.154-4.143 4.149 4.149 0 014.154-4.144 4.149 4.149 0 014.154 4.144z" clip-rule="evenodd"/>
  <path stroke="#0E0916" stroke-linecap="round" stroke-linejoin="round" stroke-width=".75" d="M60.52 63.017a4.149 4.149 0 01-4.154 4.143 4.149 4.149 0 01-4.154-4.143 4.149 4.149 0 014.154-4.144 4.149 4.149 0 014.154 4.144z" clip-rule="evenodd"/>
  <path fill="#FFA578" fill-rule="evenodd" d="M147.596 114.948l-26.587-9.75-3.824 10.365 26.59 9.749 3.821-10.364z" clip-rule="evenodd"/>
  <path stroke="#0E0916" stroke-linecap="round" stroke-linejoin="round" stroke-width=".75" d="M147.596 114.948l-26.587-9.75-3.824 10.365 26.59 9.749 3.821-10.364z" clip-rule="evenodd"/>
  <path fill="#E6E2FF" fill-rule="evenodd" d="M147.588 114.92l-26.577-9.739-.646 1.747 26.578 9.743.645-1.751z" clip-rule="evenodd"/>
  <path stroke="#0E0916" stroke-linecap="round" stroke-linejoin="round" stroke-width=".75" d="M147.588 114.92l-26.577-9.739-.646 1.747 26.578 9.743.645-1.751z" clip-rule="evenodd"/>
  <path stroke="#0E0916" stroke-linecap="round" stroke-linejoin="round" stroke-width=".75" d="M126.877 115.338l1.958-5.307M136.546 118.883l1.953-5.307M132.083 115.602l1.423-3.858M141.91 118.981l1.309-3.556M122.652 112.147l1.422-3.859"/>
  <path fill="#2250FF" fill-rule="evenodd" d="M7.2 125.465L0 98.957l26.577-7.182 7.2 26.508-26.576 7.182z" clip-rule="evenodd"/>
  <path stroke="#0E0916" stroke-linecap="round" stroke-linejoin="round" stroke-width=".75" d="M11.495 127.618l-7.201-26.509 26.577-7.182 7.201 26.509-26.577 7.182z" clip-rule="evenodd"/>
  <path fill="#BC99FF" fill-rule="evenodd" d="M69.525 87.848c-1.182-8.598 4.849-16.523 13.47-17.702 8.62-1.178 16.565 4.836 17.747 13.435 1.181 8.598-4.85 16.523-13.47 17.701-8.62 1.179-16.565-4.836-17.747-13.434z" clip-rule="evenodd"/>
  <path stroke="#0E0916" stroke-linecap="round" stroke-linejoin="round" stroke-width=".75" d="M74.71 80.011c-1.181-8.597 4.85-16.523 13.47-17.701 8.62-1.178 16.566 4.837 17.748 13.435 1.18 8.597-4.85 16.523-13.47 17.701-8.621 1.178-16.567-4.836-17.748-13.435z" clip-rule="evenodd"/>
  <path fill="#BCD7FE" fill-rule="evenodd" d="M121.958 140.584l10.597 13.22-16.778 2.543L99 158.888l6.181-15.762 6.181-15.763 10.596 13.221z" clip-rule="evenodd"/>
  <path stroke="#0E0916" stroke-linecap="round" stroke-linejoin="round" stroke-width=".75" d="M110.789 147.962l10.597 13.221-16.779 2.542-16.776 2.542 6.181-15.762 6.181-15.764 10.596 13.221z" clip-rule="evenodd"/>
  <path fill="#F2F0FF" fill-rule="evenodd" d="M69.66 52.7l4.656-8.516s3.074 2.951 4.85 4.95a175.006 175.006 0 00-9.507 3.567z" clip-rule="evenodd"/>
  <path stroke="#0E0916" stroke-linecap="round" stroke-linejoin="round" stroke-width=".75" d="M69.66 52.7l4.656-8.516s3.074 2.951 4.85 4.95a175.006 175.006 0 00-9.507 3.567z" clip-rule="evenodd"/>
  <path fill="#2250FF" fill-rule="evenodd" d="M71.103 49.612l1.747 2.05-3.27 1.379-.366-.085 1.89-3.344z" clip-rule="evenodd"/>
  <path stroke="#0E0916" stroke-linecap="round" stroke-linejoin="round" stroke-width=".75" d="M71.103 49.612l1.747 2.05-3.27 1.379-.366-.085 1.89-3.344z" clip-rule="evenodd"/>
  <path fill="#FFA578" fill-rule="evenodd" d="M94.343 34.217L89.114 29 74.228 44.127l5.073 5.118 15.042-15.028z" clip-rule="evenodd"/>
  <path stroke="#0E0916" stroke-linecap="round" stroke-linejoin="round" stroke-width=".75" d="M94.343 34.217L89.114 29 74.228 44.127l5.073 5.118 15.042-15.028z" clip-rule="evenodd"/>
  <path fill="#FFA578" fill-rule="evenodd" d="M96.805 31.853c.51-2.853-1.652-5.22-5.228-5.22-.922.92-1.848 1.84-2.771 2.76 1.746 1.736 3.49 3.478 5.235 5.218.92-.922 1.842-1.84 2.764-2.758z" clip-rule="evenodd"/>
  <path stroke="#0E0916" stroke-linecap="round" stroke-linejoin="round" stroke-width=".75" d="M96.805 31.853c.51-2.853-1.652-5.22-5.228-5.22-.922.92-1.848 1.84-2.771 2.76 1.746 1.736 3.49 3.478 5.235 5.218.92-.922 1.842-1.84 2.764-2.758z" clip-rule="evenodd"/>
  <path fill="#F2F0FF" fill-rule="evenodd" d="M94.837 33.82a97.328 97.328 0 00-5.23-5.221c-.924.92-1.845 1.84-2.77 2.76 1.745 1.736 3.489 3.479 5.232 5.218.92-.923 1.846-1.84 2.768-2.757z" clip-rule="evenodd"/>
  <path stroke="#0E0916" stroke-linecap="round" stroke-linejoin="round" stroke-width=".75" d="M94.837 33.82a97.328 97.328 0 00-5.23-5.221c-.924.92-1.845 1.84-2.77 2.76 1.745 1.736 3.489 3.479 5.232 5.218.92-.923 1.846-1.84 2.768-2.757z" clip-rule="evenodd"/>
  <path fill="#2250FF" fill-rule="evenodd" d="M225.183 115.558c0 8.982-7.3 16.262-16.304 16.262-9.005 0-16.304-7.28-16.304-16.262 0-8.981 7.299-16.26 16.304-16.26 9.004 0 16.304 7.279 16.304 16.26z" clip-rule="evenodd"/>
  <path stroke="#0E0916" stroke-width=".75" d="M225.183 115.558c0 8.982-7.3 16.262-16.304 16.262-9.005 0-16.304-7.28-16.304-16.262 0-8.981 7.299-16.26 16.304-16.26 9.004 0 16.304 7.279 16.304 16.26z" clip-rule="evenodd"/>
  <path stroke="#E6E2FF" stroke-linecap="round" stroke-linejoin="round" stroke-width=".75" d="M202.146 115.846l3.705 4.885 9.759-9.47"/>
  <path fill="#fff" fill-rule="evenodd" d="M221.303 119.134l.166 1.266a5.845 5.845 0 005.044 5.031l1.269.165-1.269.166a5.846 5.846 0 00-5.044 5.031l-.166 1.265-.166-1.265c-.344-2.623-2.361-4.565-5.044-5.031l-1.269-.166 1.269-.165a5.844 5.844 0 005.044-5.031l.166-1.266z" clip-rule="evenodd"/>
  <path stroke="#0E0916" stroke-linecap="round" stroke-linejoin="round" stroke-width=".75" d="M221.303 119.134l.166 1.266a5.845 5.845 0 005.044 5.031l1.269.165-1.269.166a5.846 5.846 0 00-5.044 5.031l-.166 1.265-.166-1.265c-.344-2.623-2.361-4.565-5.044-5.031l-1.269-.166 1.269-.165a5.844 5.844 0 005.044-5.031l.166-1.266z" clip-rule="evenodd"/>
  <path fill="#fff" fill-rule="evenodd" d="M235.521 110.191l.166 1.266a5.843 5.843 0 005.044 5.03l1.269.166-1.269.166a5.844 5.844 0 00-5.044 5.03l-.166 1.265-.166-1.265c-.344-2.623-2.36-4.564-5.044-5.03l-1.269-.166 1.269-.166a5.843 5.843 0 005.044-5.03l.166-1.266z" clip-rule="evenodd"/>
  <path stroke="#0E0916" stroke-linecap="round" stroke-linejoin="round" stroke-width=".75" d="M235.521 110.191l.166 1.266a5.843 5.843 0 005.044 5.03l1.269.166-1.269.166a5.844 5.844 0 00-5.044 5.03l-.166 1.265-.166-1.265c-.344-2.623-2.36-4.564-5.044-5.03l-1.269-.166 1.269-.166a5.843 5.843 0 005.044-5.03l.166-1.266z" clip-rule="evenodd"/>
</svg>
