<svg  viewBox="0 0 191 136" fill="none" xmlns="http://www.w3.org/2000/svg">
<path fill-rule="evenodd" clip-rule="evenodd" d="M159.159 68C159.159 105.555 128.783 136 91.3133 136C53.8432 136 23.4678 105.555 23.4678 68C23.4678 30.4446 53.8432 0 91.3133 0C128.783 0 159.159 30.4446 159.159 68Z" fill="#F2F0FF"/>
<path d="M16.1943 80.2341H35.1574C40.2777 80.2341 44.4285 76.0839 44.4285 70.9659V32.25C44.4285 26.535 49.0637 21.9013 54.7819 21.9013C60.4987 21.9013 65.1347 26.535 65.1347 32.25V94.3467C65.1347 104.22 73.1403 112.223 83.0161 112.223C92.8919 112.223 100.898 104.22 100.898 94.3467V52.9489C100.898 47.2332 105.533 42.6002 111.251 42.6002C116.969 42.6002 121.604 47.2332 121.604 52.9489" stroke="#0E0916" stroke-width="0.75" stroke-linecap="round" stroke-linejoin="round"/>
<path d="M121.604 56.1257V73.9618C121.604 80.2193 126.678 85.2924 132.938 85.2924H155.485" stroke="#0E0916" stroke-width="0.75" stroke-linecap="round" stroke-linejoin="round" stroke-dasharray="3 3"/>
<path fill-rule="evenodd" clip-rule="evenodd" d="M68.4409 94.2502C68.4409 95.9413 67.0692 97.3125 65.3777 97.3125C63.6861 97.3125 62.3145 95.9413 62.3145 94.2502C62.3145 92.5584 63.6861 91.188 65.3777 91.188C67.0692 91.188 68.4409 92.5584 68.4409 94.2502Z" fill="#F2F0FF"/>
<path fill-rule="evenodd" clip-rule="evenodd" d="M68.4409 94.2502C68.4409 95.9413 67.0692 97.3125 65.3777 97.3125C63.6861 97.3125 62.3145 95.9413 62.3145 94.2502C62.3145 92.5584 63.6861 91.188 65.3777 91.188C67.0692 91.188 68.4409 92.5584 68.4409 94.2502Z" stroke="#0E0916" stroke-width="0.75"/>
<path fill-rule="evenodd" clip-rule="evenodd" d="M104.455 61.7272C104.455 63.4182 103.084 64.7895 101.392 64.7895C99.7 64.7895 98.3291 63.4182 98.3291 61.7272C98.3291 60.0354 99.7 58.665 101.392 58.665C103.084 58.665 104.455 60.0354 104.455 61.7272Z" fill="#FFD8BA"/>
<path fill-rule="evenodd" clip-rule="evenodd" d="M104.455 61.7272C104.455 63.4182 103.084 64.7895 101.392 64.7895C99.7 64.7895 98.3291 63.4182 98.3291 61.7272C98.3291 60.0354 99.7 58.665 101.392 58.665C103.084 58.665 104.455 60.0354 104.455 61.7272Z" stroke="#0E0916" stroke-width="0.75" stroke-linecap="round" stroke-linejoin="round"/>
<path fill-rule="evenodd" clip-rule="evenodd" d="M47.5805 46.5777C47.5805 48.2687 46.2089 49.6399 44.5173 49.6399C42.8257 49.6399 41.4541 48.2687 41.4541 46.5777C41.4541 44.8859 42.8257 43.5147 44.5173 43.5147C46.2089 43.5147 47.5805 44.8859 47.5805 46.5777Z" fill="#BC99FF"/>
<path fill-rule="evenodd" clip-rule="evenodd" d="M47.5805 46.5777C47.5805 48.2687 46.2089 49.6399 44.5173 49.6399C42.8257 49.6399 41.4541 48.2687 41.4541 46.5777C41.4541 44.8859 42.8257 43.5147 44.5173 43.5147C46.2089 43.5147 47.5805 44.8859 47.5805 46.5777Z" stroke="#0E0916" stroke-width="0.75" stroke-linecap="round" stroke-linejoin="round"/>
<path fill-rule="evenodd" clip-rule="evenodd" d="M111.795 84.9613L92.1884 77.7548L89.3682 85.4163L108.977 92.6221L111.795 84.9613Z" fill="#FFA578"/>
<path fill-rule="evenodd" clip-rule="evenodd" d="M111.795 84.9613L92.1884 77.7548L89.3682 85.4163L108.977 92.6221L111.795 84.9613Z" stroke="#0E0916" stroke-width="0.75" stroke-linecap="round" stroke-linejoin="round"/>
<path fill-rule="evenodd" clip-rule="evenodd" d="M111.789 84.9408L92.19 77.7426L91.7139 79.0338L111.314 86.2351L111.789 84.9408Z" fill="#E6E2FF"/>
<path fill-rule="evenodd" clip-rule="evenodd" d="M111.789 84.9408L92.19 77.7426L91.7139 79.0338L111.314 86.2351L111.789 84.9408Z" stroke="#0E0916" stroke-width="0.75" stroke-linecap="round" stroke-linejoin="round"/>
<path d="M96.5156 85.2495L97.9598 81.3272" stroke="#0E0916" stroke-width="0.75" stroke-linecap="round" stroke-linejoin="round"/>
<path d="M103.646 87.87L105.087 83.9477" stroke="#0E0916" stroke-width="0.75" stroke-linecap="round" stroke-linejoin="round"/>
<path d="M100.355 85.4452L101.405 82.5937" stroke="#0E0916" stroke-width="0.75" stroke-linecap="round" stroke-linejoin="round"/>
<path d="M107.603 87.9422L108.568 85.3141" stroke="#0E0916" stroke-width="0.75" stroke-linecap="round" stroke-linejoin="round"/>
<path d="M93.4004 82.891L94.4491 80.0387" stroke="#0E0916" stroke-width="0.75" stroke-linecap="round" stroke-linejoin="round"/>
<path fill-rule="evenodd" clip-rule="evenodd" d="M8.26036 92.7351L2.9502 73.1421L22.5493 67.8336L27.8595 87.4266L8.26036 92.7351Z" fill="#2250FF"/>
<path fill-rule="evenodd" clip-rule="evenodd" d="M11.4273 94.3261L6.11719 74.7324L25.7163 69.4239L31.0272 89.0176L11.4273 94.3261Z" stroke="#0E0916" stroke-width="0.75" stroke-linecap="round" stroke-linejoin="round"/>
<path fill-rule="evenodd" clip-rule="evenodd" d="M54.2214 64.9314C53.3498 58.576 57.7974 52.7183 64.1547 51.847C70.5114 50.9765 76.371 55.4219 77.2425 61.7773C78.1133 68.1327 73.6665 73.9904 67.3091 74.8609C60.9525 75.7322 55.0929 71.2861 54.2214 64.9314Z" fill="#BC99FF"/>
<path fill-rule="evenodd" clip-rule="evenodd" d="M58.0456 59.1387C57.174 52.784 61.6216 46.9256 67.979 46.055C74.3356 45.1845 80.1952 49.6299 81.0668 55.9853C81.9376 62.3399 77.4908 68.1984 71.1334 69.0689C64.776 69.9395 58.9164 65.4941 58.0456 59.1387Z" stroke="#0E0916" stroke-width="0.75" stroke-linecap="round" stroke-linejoin="round"/>
<path fill-rule="evenodd" clip-rule="evenodd" d="M92.8886 103.91L100.703 113.682L88.3304 115.561L75.958 117.439L80.5162 105.789L85.0744 94.138L92.8886 103.91Z" fill="#BCD7FE"/>
<path fill-rule="evenodd" clip-rule="evenodd" d="M84.6513 109.363L92.4656 119.135L80.0924 121.014L67.7207 122.893L72.2789 111.242L76.8371 99.5913L84.6513 109.363Z" stroke="#0E0916" stroke-width="0.75" stroke-linecap="round" stroke-linejoin="round"/>
<path fill-rule="evenodd" clip-rule="evenodd" d="M54.3203 38.9527L57.7543 32.6578C57.7543 32.6578 60.0214 34.8391 61.331 36.3164C57.5988 37.589 54.3203 38.9527 54.3203 38.9527Z" fill="#F2F0FF"/>
<path fill-rule="evenodd" clip-rule="evenodd" d="M54.3203 38.9527L57.7543 32.6578C57.7543 32.6578 60.0214 34.8391 61.331 36.3164C57.5988 37.589 54.3203 38.9527 54.3203 38.9527Z" stroke="#0E0916" stroke-width="0.75" stroke-linecap="round" stroke-linejoin="round"/>
<path fill-rule="evenodd" clip-rule="evenodd" d="M55.3855 36.6694L56.6734 38.1855L54.2628 39.204L53.9922 39.1413L55.3855 36.6694Z" fill="#2250FF"/>
<path fill-rule="evenodd" clip-rule="evenodd" d="M55.3855 36.6694L56.6734 38.1855L54.2628 39.204L53.9922 39.1413L55.3855 36.6694Z" stroke="#0E0916" stroke-width="0.75" stroke-linecap="round" stroke-linejoin="round"/>
<path fill-rule="evenodd" clip-rule="evenodd" d="M72.5234 25.2906L68.6678 21.4348L57.6895 32.616L61.4306 36.3986L72.5234 25.2906Z" fill="#FFA578"/>
<path fill-rule="evenodd" clip-rule="evenodd" d="M72.5234 25.2906L68.6678 21.4348L57.6895 32.616L61.4306 36.3986L72.5234 25.2906Z" stroke="#0E0916" stroke-width="0.75" stroke-linecap="round" stroke-linejoin="round"/>
<path fill-rule="evenodd" clip-rule="evenodd" d="M74.3396 23.5435C74.7163 21.4347 73.1212 19.6854 70.4841 19.6854C69.8038 20.3654 69.1214 21.0454 68.4404 21.7254C69.7284 23.0085 71.014 24.296 72.3012 25.582C72.9799 24.9005 73.6594 24.222 74.3396 23.5435Z" fill="#FFA578"/>
<path fill-rule="evenodd" clip-rule="evenodd" d="M74.3396 23.5435C74.7163 21.4347 73.1212 19.6854 70.4841 19.6854C69.8038 20.3654 69.1214 21.0454 68.4404 21.7254C69.7284 23.0085 71.014 24.296 72.3012 25.582C72.9799 24.9005 73.6594 24.222 74.3396 23.5435Z" stroke="#0E0916" stroke-width="0.75" stroke-linecap="round" stroke-linejoin="round"/>
<path fill-rule="evenodd" clip-rule="evenodd" d="M72.8884 24.9972C71.4189 23.4152 70.3148 22.3392 69.0314 21.1384C68.3497 21.8184 67.671 22.4984 66.9893 23.1784C68.2757 24.4614 69.5614 25.7497 70.847 27.0349C71.5258 26.3527 72.2082 25.6757 72.8884 24.9972Z" fill="#F2F0FF"/>
<path fill-rule="evenodd" clip-rule="evenodd" d="M72.8884 24.9972C71.4189 23.4152 70.3148 22.3392 69.0314 21.1384C68.3497 21.8184 67.671 22.4984 66.9893 23.1784C68.2757 24.4614 69.5614 25.7497 70.847 27.0349C71.5258 26.3527 72.2082 25.6757 72.8884 24.9972Z" stroke="#0E0916" stroke-width="0.75" stroke-linecap="round" stroke-linejoin="round"/>
<path fill-rule="evenodd" clip-rule="evenodd" d="M169.012 85.4124C169.012 92.051 163.628 97.4319 156.988 97.4319C150.348 97.4319 144.965 92.051 144.965 85.4124C144.965 78.7745 150.348 73.3936 156.988 73.3936C163.628 73.3936 169.012 78.7745 169.012 85.4124Z" fill="#2250FF"/>
<path fill-rule="evenodd" clip-rule="evenodd" d="M169.012 85.4124C169.012 92.051 163.628 97.4319 156.988 97.4319C150.348 97.4319 144.965 92.051 144.965 85.4124C144.965 78.7745 150.348 73.3936 156.988 73.3936C163.628 73.3936 169.012 78.7745 169.012 85.4124Z" stroke="#0E0916" stroke-width="0.75"/>
<path d="M152.022 85.6255L154.755 89.2363L161.952 82.2368" stroke="#E6E2FF" stroke-width="0.75" stroke-linecap="round" stroke-linejoin="round"/>
<path fill-rule="evenodd" clip-rule="evenodd" d="M166.15 88.0554L166.273 88.991C166.526 90.9301 168.052 92.456 169.992 92.7101L170.928 92.8319L169.992 92.9544C168.052 93.2085 166.526 94.7344 166.273 96.6727L166.15 97.6083L166.027 96.6727C165.774 94.7344 164.287 93.2989 162.308 92.9544L161.372 92.8319L162.308 92.7101C164.248 92.456 165.774 90.9301 166.027 88.991L166.15 88.0554Z" fill="white"/>
<path fill-rule="evenodd" clip-rule="evenodd" d="M166.15 88.0554L166.273 88.991C166.526 90.9301 168.052 92.456 169.992 92.7101L170.928 92.8319L169.992 92.9544C168.052 93.2085 166.526 94.7344 166.273 96.6727L166.15 97.6083L166.027 96.6727C165.774 94.7344 164.287 93.2989 162.308 92.9544L161.372 92.8319L162.308 92.7101C164.248 92.456 165.774 90.9301 166.027 88.991L166.15 88.0554Z" stroke="#0E0916" stroke-width="0.75" stroke-linecap="round" stroke-linejoin="round"/>
<path fill-rule="evenodd" clip-rule="evenodd" d="M176.635 81.4455L176.758 82.3811C177.011 84.3202 178.538 85.8461 180.477 86.0994L181.413 86.2219L180.477 86.3445C178.538 86.5978 177.011 88.1237 176.758 90.0621L176.635 90.9976L176.513 90.0621C176.259 88.1237 174.773 86.689 172.793 86.3445L171.857 86.2219L172.793 86.0994C174.733 85.8461 176.259 84.3202 176.513 82.3811L176.635 81.4455Z" fill="white"/>
<path fill-rule="evenodd" clip-rule="evenodd" d="M176.635 81.4455L176.758 82.3811C177.011 84.3202 178.538 85.8461 180.477 86.0994L181.413 86.2219L180.477 86.3445C178.538 86.5978 177.011 88.1237 176.758 90.0621L176.635 90.9976L176.513 90.0621C176.259 88.1237 174.773 86.689 172.793 86.3445L171.857 86.2219L172.793 86.0994C174.733 85.8461 176.259 84.3202 176.513 82.3811L176.635 81.4455Z" stroke="#0E0916" stroke-width="0.75" stroke-linecap="round" stroke-linejoin="round"/>
</svg>
