<svg xmlns="http://www.w3.org/2000/svg" fill="none" viewBox="0 0 184 184">
  <path fill="#F2F0FF" fill-rule="evenodd" d="M184 92c0 50.81-41.19 92-92 92S0 142.81 0 92 41.19 0 92 0s92 41.19 92 92z" clip-rule="evenodd"/>
  <path fill="#FFEBDE" fill-rule="evenodd" d="M151.584 99.998l-2.821-13.082s-2.981-2.91-2.884 2.317c.098 5.225 1.593 16.9 1.593 16.9l4.291-6.461" clip-rule="evenodd"/>
  <path stroke="#0E0916" stroke-linecap="round" stroke-linejoin="round" stroke-width=".75" d="M151.584 99.998l-2.821-13.082s-2.981-2.91-2.884 2.317c.098 5.225 1.593 16.9 1.593 16.9l4.291-6.461"/>
  <path fill="#FFEBDE" fill-rule="evenodd" d="M148.902 105.102l-3.971-12.78s-3.228-2.633-2.666 2.564c.56 5.197 3.085 16.693 3.085 16.693l3.701-6.817" clip-rule="evenodd"/>
  <path stroke="#0E0916" stroke-linecap="round" stroke-linejoin="round" stroke-width=".75" d="M148.902 105.102l-3.971-12.78s-3.228-2.633-2.666 2.564c.56 5.197 3.085 16.693 3.085 16.693l3.701-6.817"/>
  <path fill="#FFEBDE" fill-rule="evenodd" d="M146.847 111.775l-3.971-12.78s-3.227-2.633-2.666 2.564c.561 5.197 3.086 16.693 3.086 16.693l3.701-6.817" clip-rule="evenodd"/>
  <path stroke="#0E0916" stroke-linecap="round" stroke-linejoin="round" stroke-width=".75" d="M146.847 111.775l-3.971-12.78s-3.227-2.633-2.666 2.564c.561 5.197 3.086 16.693 3.086 16.693l3.701-6.817"/>
  <path fill="#FFEBDE" fill-rule="evenodd" d="M127.301 144.831l13.906 3.397s.986-10.905 4.577-17.753c3.591-6.846 8.143-11.893 9.355-20.894 1.213-9 2.121-26.506-.016-27.143-1.825-.544-1.85-.337-3.807 9.864-1.957 10.204-1.964 16.391-4.101 19.202" clip-rule="evenodd"/>
  <path stroke="#0E0916" stroke-linecap="round" stroke-linejoin="round" stroke-width=".75" d="M127.301 144.831l13.906 3.397s.986-10.905 4.577-17.753c3.591-6.846 8.143-11.893 9.355-20.894 1.213-9 2.121-26.506-.016-27.143-1.825-.544-1.85-.337-3.807 9.864-1.957 10.204-1.964 16.391-4.101 19.202"/>
  <path fill="#FFEBDE" fill-rule="evenodd" d="M127.301 144.83s4.706-15.052 4.468-19.253c-.216-3.831 8.296-12.117 9.79-13.54.145-.139.264-.302.35-.485 1.884-4.013 7.535-14.344 9.515-13.423 2.026.942 2.333 3.316.454 7.202-1.881 3.885-5.785 14.545-8.072 17.784" clip-rule="evenodd"/>
  <path stroke="#0E0916" stroke-linecap="round" stroke-linejoin="round" stroke-width=".75" d="M127.301 144.83s4.706-15.052 4.468-19.253c-.216-3.831 8.296-12.117 9.79-13.54.145-.139.264-.302.35-.485 1.884-4.013 7.535-14.344 9.515-13.423 2.026.942 2.333 3.316.454 7.202-1.881 3.885-5.785 14.545-8.072 17.784"/>
  <path fill="#E6E2FF" fill-rule="evenodd" d="M120.119 147.565l5.712-11.28 19.711 5.9-.833 12.74" clip-rule="evenodd"/>
  <path stroke="#340096" stroke-linecap="round" stroke-linejoin="round" stroke-width=".75" d="M120.119 147.565l5.712-11.28 19.711 5.9-.833 12.74"/>
  <mask id="a" width="85" height="51" x="76" y="53" maskUnits="userSpaceOnUse">
    <path fill="#fff" d="M126.451 53.15a10.025 10.025 0 012.195 6.267c0 5.563-4.509 10.073-10.074 10.073-5.562 0-10.073-4.51-10.073-10.073 0-2.371.826-4.546 2.197-6.266H93.272v17.556a10.029 10.029 0 00-6.442-2.33c-5.564 0-10.073 4.511-10.073 10.074s4.509 10.073 10.073 10.073c2.451 0 4.696-.876 6.442-2.33v17.558h17.557a10.038 10.038 0 01-2.33-6.442c0-5.565 4.511-10.074 10.073-10.074 5.565 0 10.074 4.51 10.074 10.074 0 2.45-.875 4.695-2.33 6.442h17.557V86.194a10.04 10.04 0 006.443 2.33c5.563 0 10.074-4.51 10.074-10.073 0-5.563-4.511-10.074-10.074-10.074-2.45 0-4.696.876-6.443 2.33V53.151"/>
  </mask>
  <g mask="url(#a)">
    <path fill="#BC99FF" fill-rule="evenodd" d="M150.316 68.377c-2.45 0-4.696.876-6.443 2.33V53.15h-17.422a10.025 10.025 0 012.196 6.267c0 5.564-4.51 10.073-10.074 10.073-5.563 0-10.073-4.51-10.073-10.073 0-2.37.825-4.545 2.196-6.267H93.272v17.558a10.028 10.028 0 00-6.442-2.33c-5.563 0-10.073 4.51-10.073 10.073 0 5.563 4.51 10.073 10.073 10.073 2.451 0 4.696-.875 6.442-2.33v17.558h17.558a10.032 10.032 0 01-2.33-6.443c0-5.564 4.51-10.074 10.073-10.074 5.564 0 10.074 4.51 10.074 10.074 0 2.45-.876 4.696-2.33 6.443h17.556V86.194a10.034 10.034 0 006.443 2.33c5.563 0 10.074-4.51 10.074-10.073 0-5.564-4.511-10.074-10.074-10.074z" clip-rule="evenodd"/>
  </g>
  <mask id="b" width="85" height="51" x="76" y="53" maskUnits="userSpaceOnUse">
    <path fill="#fff" d="M126.451 53.15a10.025 10.025 0 012.195 6.267c0 5.563-4.509 10.073-10.074 10.073-5.562 0-10.073-4.51-10.073-10.073 0-2.371.826-4.546 2.197-6.266H93.272v17.556a10.029 10.029 0 00-6.442-2.33c-5.564 0-10.073 4.511-10.073 10.074s4.509 10.073 10.073 10.073c2.451 0 4.696-.876 6.442-2.33v17.558h17.557a10.038 10.038 0 01-2.33-6.442c0-5.565 4.511-10.074 10.073-10.074 5.565 0 10.074 4.51 10.074 10.074 0 2.45-.875 4.695-2.33 6.442h17.557V86.194a10.04 10.04 0 006.443 2.33c5.563 0 10.074-4.51 10.074-10.073 0-5.563-4.511-10.074-10.074-10.074-2.45 0-4.696.876-6.443 2.33V53.151"/>
  </mask>
  <g mask="url(#b)">
    <path stroke="#2250FF" stroke-width=".75" d="M11.094 48.938c5.55 7.527 12.698 13.114 22.298 13.939 12.815 1.1 26.39-2.272 37.818-7.96 2.238-1.114 4.787-3.164 4.028-5.545-.486-1.522-2.143-2.302-3.663-2.796-12.152-3.957-26.45-.24-35.135 9.135-2.45 2.643-4.519 5.806-5.06 9.369-.542 3.563.728 7.554 3.753 9.512 1.68 1.086 3.708 1.466 5.685 1.77 13.847 2.139 27.953 1.705 41.826.058 12.355-1.466 29.36-1.132 39.305-9.837.489-.427.987-.963.98-1.613-.009-.89-.924-1.464-1.734-1.835-17.234-7.91-37.884-4.698-55.41.394l-.549.16c-7.04 2.07-14.28 4.855-18.974 10.495-2.544 3.057-4.207 7.373-2.617 11.02 1.313 3.013 4.452 4.76 7.478 6.04 5.252 2.225 10.794 3.707 16.394 4.786 19.168 3.695 40.873 3.294 59.266-3.798a64.181 64.181 0 007.71-3.576c3.803-2.08 4.477-5.077-.047-6.233-2.911-.744-6.077-.733-9.062-.606a174.832 174.832 0 00-33.983 4.812c-5.212 1.27-10.46 2.823-14.91 5.816-1.805 1.214-3.603 2.956-3.565 5.13.025 1.488.929 2.823 1.97 3.888 3.034 3.11 7.315 4.635 11.501 5.796a105.1 105.1 0 0026.729 3.799c4.511.056 9.027-.175 13.508-.699 4.165-.486 8.446-.897 12.216-2.885 2.905-1.534-.614-2.898-2.072-3.226-1.782-.402-3.682-.587-5.511-.592a104.56 104.56 0 00-20.507 1.971c-3.294.649-6.61 1.478-9.506 3.174-2.898 1.697-5.36 4.378-6.12 7.647"/>
  </g>
  <path fill="#FFEBDE" fill-rule="evenodd" d="M36.329 100.261l3.456-12.928s3.12-2.76 2.767 2.456c-.351 5.214-2.415 16.802-2.415 16.802l-3.971-6.664" clip-rule="evenodd"/>
  <path stroke="#0E0916" stroke-linecap="round" stroke-linejoin="round" stroke-width=".75" d="M36.329 100.261l3.456-12.928s3.12-2.76 2.767 2.456c-.351 5.214-2.415 16.802-2.415 16.802l-3.971-6.664"/>
  <path fill="#FFEBDE" fill-rule="evenodd" d="M38.76 105.491l4.59-12.57s3.352-2.472 2.538 2.69c-.814 5.164-3.898 16.522-3.898 16.522l-3.363-6.99" clip-rule="evenodd"/>
  <path stroke="#0E0916" stroke-linecap="round" stroke-linejoin="round" stroke-width=".75" d="M38.76 105.491l4.59-12.57s3.352-2.472 2.538 2.69c-.814 5.164-3.898 16.522-3.898 16.522l-3.363-6.99"/>
  <path fill="#FFEBDE" fill-rule="evenodd" d="M40.484 112.257l4.59-12.571s3.353-2.472 2.538 2.691c-.813 5.163-3.897 16.522-3.897 16.522l-3.363-6.989" clip-rule="evenodd"/>
  <path stroke="#0E0916" stroke-linecap="round" stroke-linejoin="round" stroke-width=".75" d="M40.484 112.257l4.59-12.571s3.353-2.472 2.538 2.691c-.813 5.163-3.897 16.522-3.897 16.522l-3.363-6.989"/>
  <path fill="#FFEBDE" fill-rule="evenodd" d="M58.394 146.228l-14.056 2.714s-.453-10.941-3.705-17.955c-3.252-7.014-7.553-12.277-8.323-21.326-.771-9.05-.824-26.579 1.342-27.11 1.849-.454 1.864-.247 3.32 10.038 1.457 10.287 1.16 16.467 3.159 19.379" clip-rule="evenodd"/>
  <path stroke="#0E0916" stroke-linecap="round" stroke-linejoin="round" stroke-width=".75" d="M58.394 146.228l-14.056 2.714s-.453-10.941-3.705-17.955c-3.252-7.014-7.553-12.277-8.323-21.326-.771-9.05-.824-26.579 1.342-27.11 1.849-.454 1.864-.247 3.32 10.038 1.457 10.287 1.16 16.467 3.159 19.379"/>
  <path stroke="#0E0916" stroke-linecap="round" stroke-linejoin="round" stroke-width=".75" d="M150.316 68.377c-2.45 0-4.696.876-6.443 2.33V53.15h-17.422a10.025 10.025 0 012.196 6.267c0 5.564-4.51 10.073-10.074 10.073-5.563 0-10.073-4.51-10.073-10.073 0-2.37.825-4.545 2.196-6.267H93.272v17.558a10.028 10.028 0 00-6.442-2.33c-5.563 0-10.073 4.51-10.073 10.073 0 5.563 4.51 10.073 10.073 10.073 2.451 0 4.696-.875 6.442-2.33v17.558h17.558a10.032 10.032 0 01-2.33-6.443c0-5.564 4.51-10.074 10.073-10.074 5.564 0 10.074 4.51 10.074 10.074 0 2.45-.876 4.696-2.33 6.443h17.556V86.194a10.034 10.034 0 006.443 2.33c5.563 0 10.074-4.51 10.074-10.073 0-5.564-4.511-10.074-10.074-10.074z" clip-rule="evenodd"/>
  <path fill="#FFEBDE" fill-rule="evenodd" d="M58.394 146.227s-3.966-15.264-3.524-19.448c.404-3.817-7.692-12.508-9.115-14.002a1.621 1.621 0 01-.326-.502c-1.688-4.1-6.827-14.696-8.849-13.872-2.07.843-2.493 3.198-.804 7.172 1.687 3.973 5.066 14.81 7.192 18.156" clip-rule="evenodd"/>
  <path stroke="#0E0916" stroke-linecap="round" stroke-linejoin="round" stroke-width=".75" d="M58.394 146.227s-3.966-15.264-3.524-19.448c.404-3.817-7.692-12.508-9.115-14.002a1.621 1.621 0 01-.326-.502c-1.688-4.1-6.827-14.696-8.849-13.872-2.07.843-2.493 3.198-.804 7.172 1.687 3.973 5.066 14.81 7.192 18.156"/>
  <path fill="#E6E2FF" fill-rule="evenodd" d="M65.434 150.956l-5.155-11.544-19.976 4.929.211 12.765" clip-rule="evenodd"/>
  <path stroke="#340096" stroke-linecap="round" stroke-linejoin="round" stroke-width=".75" d="M65.434 150.956l-5.155-11.544-19.976 4.929.211 12.765"/>
  <mask id="c" width="69" height="85" x="25" y="36" maskUnits="userSpaceOnUse">
    <path fill="#fff" d="M57.712 46.469c0 2.45.876 4.696 2.33 6.442H42.485v17.557a10.035 10.035 0 00-6.442-2.33c-5.564 0-10.073 4.51-10.073 10.073a10.072 10.072 0 0010.073 10.073c2.45 0 4.696-.874 6.442-2.33v17.558h17.557a10.038 10.038 0 00-2.33 6.443c0 5.563 4.51 10.074 10.073 10.074 5.565 0 10.074-4.511 10.074-10.074 0-2.451-.876-4.696-2.33-6.443h17.557V85.954a10.027 10.027 0 01-6.442 2.33c-5.563 0-10.073-4.509-10.073-10.073 0-5.562 4.51-10.073 10.073-10.073 2.45 0 4.695.876 6.442 2.33V52.91H75.528a10.028 10.028 0 002.33-6.442c0-5.563-4.508-10.074-10.073-10.074-5.562 0-10.073 4.51-10.073 10.074z"/>
  </mask>
  <g mask="url(#c)">
    <path fill="#FFA578" fill-rule="evenodd" d="M77.859 109.955c0-2.451-.876-4.696-2.33-6.443h17.557V85.955a10.033 10.033 0 01-6.443 2.33c-5.562 0-10.072-4.51-10.072-10.073 0-5.564 4.51-10.074 10.072-10.074 2.45 0 4.696.876 6.443 2.33V52.912H75.528a10.028 10.028 0 002.33-6.442c0-5.564-4.51-10.074-10.073-10.074-5.563 0-10.073 4.51-10.073 10.074 0 2.45.875 4.696 2.33 6.442H42.484v17.558a10.028 10.028 0 00-6.442-2.33c-5.563 0-10.073 4.51-10.073 10.073 0 5.563 4.51 10.073 10.073 10.073 2.45 0 4.696-.875 6.442-2.33v17.557h17.558a10.032 10.032 0 00-2.33 6.443c0 5.562 4.51 10.073 10.073 10.073 5.564 0 10.074-4.511 10.074-10.073z" clip-rule="evenodd"/>
  </g>
  <mask id="d" width="69" height="85" x="25" y="36" maskUnits="userSpaceOnUse">
    <path fill="#fff" d="M57.712 46.469c0 2.45.876 4.696 2.33 6.442H42.485v17.557a10.035 10.035 0 00-6.442-2.33c-5.564 0-10.073 4.51-10.073 10.073a10.072 10.072 0 0010.073 10.073c2.45 0 4.696-.874 6.442-2.33v17.558h17.557a10.038 10.038 0 00-2.33 6.443c0 5.563 4.51 10.074 10.073 10.074 5.565 0 10.074-4.511 10.074-10.074 0-2.451-.876-4.696-2.33-6.443h17.557V85.954a10.027 10.027 0 01-6.442 2.33c-5.563 0-10.073-4.509-10.073-10.073 0-5.562 4.51-10.073 10.073-10.073 2.45 0 4.695.876 6.442 2.33V52.91H75.528a10.028 10.028 0 002.33-6.442c0-5.563-4.508-10.074-10.073-10.074-5.562 0-10.073 4.51-10.073 10.074z"/>
  </mask>
  <g mask="url(#d)">
    <path stroke="#2250FF" stroke-width=".75" d="M11.095 48.938c5.549 7.527 12.698 13.114 22.298 13.939 12.815 1.1 26.39-2.272 37.818-7.96 2.237-1.114 4.787-3.164 4.028-5.545-.486-1.522-2.143-2.302-3.663-2.796-12.152-3.957-26.45-.24-35.135 9.135-2.45 2.643-4.519 5.806-5.06 9.369-.542 3.563.728 7.554 3.753 9.512 1.68 1.086 3.708 1.466 5.685 1.77 13.847 2.139 27.953 1.705 41.826.058 12.355-1.466 29.36-1.132 39.305-9.837.489-.427.987-.963.98-1.613-.009-.89-.924-1.464-1.735-1.835-17.233-7.91-37.883-4.698-55.409.394l-.549.16c-7.04 2.07-14.28 4.855-18.974 10.495-2.544 3.057-4.207 7.373-2.617 11.02 1.313 3.013 4.452 4.76 7.478 6.04 5.252 2.225 10.794 3.707 16.394 4.786 19.168 3.695 40.873 3.294 59.266-3.798a64.181 64.181 0 007.71-3.576c3.803-2.08 4.477-5.077-.047-6.233-2.911-.744-6.077-.733-9.062-.606a174.834 174.834 0 00-33.983 4.812c-5.212 1.27-10.46 2.823-14.91 5.816-1.805 1.214-3.603 2.956-3.565 5.13.025 1.488.929 2.823 1.97 3.888 3.034 3.11 7.315 4.635 11.501 5.796a105.102 105.102 0 0026.729 3.799c4.511.056 9.027-.175 13.508-.699 4.165-.486 8.446-.897 12.216-2.885 2.905-1.534-.614-2.898-2.072-3.226-1.783-.402-3.682-.587-5.511-.592a104.56 104.56 0 00-20.507 1.971c-3.294.649-6.61 1.478-9.506 3.174-2.898 1.697-5.36 4.378-6.12 7.647"/>
  </g>
  <path stroke="#0E0916" stroke-linecap="round" stroke-linejoin="round" stroke-width=".75" d="M77.859 109.955c0-2.451-.876-4.696-2.33-6.443h17.557V85.955a10.033 10.033 0 01-6.443 2.33c-5.562 0-10.072-4.51-10.072-10.073 0-5.563 4.51-10.074 10.072-10.074 2.45 0 4.696.876 6.443 2.33V52.912H75.528a10.028 10.028 0 002.33-6.442c0-5.563-4.51-10.074-10.073-10.074-5.563 0-10.073 4.51-10.073 10.074 0 2.45.875 4.696 2.33 6.442H42.484v17.558a10.029 10.029 0 00-6.442-2.33c-5.563 0-10.073 4.51-10.073 10.073 0 5.563 4.51 10.073 10.073 10.073 2.45 0 4.696-.875 6.442-2.33v17.557h17.558a10.032 10.032 0 00-2.33 6.443c0 5.563 4.51 10.074 10.073 10.074 5.564 0 10.074-4.511 10.074-10.074z" clip-rule="evenodd"/>
</svg>
