<svg  viewBox="0 0 136 136" fill="none" xmlns="http://www.w3.org/2000/svg">
<path fill-rule="evenodd" clip-rule="evenodd" d="M136 68C136 105.555 105.555 136 68 136C30.4446 136 0 105.555 0 68C0 30.4446 30.4446 0 68 0C105.555 0 136 30.4446 136 68Z" fill="#F2F0FF"/>
<path fill-rule="evenodd" clip-rule="evenodd" d="M112.041 73.9112L109.955 64.2425C109.955 64.2425 107.752 62.092 107.824 65.9545C107.896 69.817 109.001 78.4463 109.001 78.4463L112.173 73.6706" fill="#FFEBDE"/>
<path d="M112.041 73.9112L109.955 64.2425C109.955 64.2425 107.752 62.092 107.824 65.9545C107.896 69.817 109.001 78.4463 109.001 78.4463L112.173 73.6706" stroke="#0E0916" stroke-width="0.75" stroke-linecap="round" stroke-linejoin="round"/>
<path fill-rule="evenodd" clip-rule="evenodd" d="M110.058 77.6844L107.123 68.2384C107.123 68.2384 104.737 66.2918 105.152 70.1334C105.566 73.9743 107.433 82.4713 107.433 82.4713L110.168 77.4326" fill="#FFEBDE"/>
<path d="M110.058 77.6844L107.123 68.2384C107.123 68.2384 104.737 66.2918 105.152 70.1334C105.566 73.9743 107.433 82.4713 107.433 82.4713L110.168 77.4326" stroke="#0E0916" stroke-width="0.75" stroke-linecap="round" stroke-linejoin="round"/>
<path fill-rule="evenodd" clip-rule="evenodd" d="M108.54 82.6166L105.605 73.1706C105.605 73.1706 103.22 71.224 103.634 75.0656C104.049 78.9065 105.915 87.4035 105.915 87.4035L108.651 82.3648" fill="#FFEBDE"/>
<path d="M108.54 82.6166L105.605 73.1706C105.605 73.1706 103.22 71.224 103.634 75.0656C104.049 78.9065 105.915 87.4035 105.915 87.4035L108.651 82.3648" stroke="#0E0916" stroke-width="0.75" stroke-linecap="round" stroke-linejoin="round"/>
<path fill-rule="evenodd" clip-rule="evenodd" d="M94.0928 107.049L104.371 109.56C104.371 109.56 105.1 101.5 107.754 96.4384C110.408 91.378 113.773 87.6477 114.669 80.9949C115.565 74.3422 116.237 61.4035 114.657 60.9327C113.308 60.5307 113.29 60.6831 111.843 68.2236C110.396 75.7657 110.392 80.3381 108.812 82.4162" fill="#FFEBDE"/>
<path d="M94.0928 107.049L104.371 109.56C104.371 109.56 105.1 101.5 107.754 96.4384C110.408 91.378 113.773 87.6477 114.669 80.9949C115.565 74.3422 116.237 61.4035 114.657 60.9327C113.308 60.5307 113.29 60.6831 111.843 68.2236C110.396 75.7657 110.392 80.3381 108.812 82.4162" stroke="#0E0916" stroke-width="0.75" stroke-linecap="round" stroke-linejoin="round"/>
<path fill-rule="evenodd" clip-rule="evenodd" d="M94.0928 107.049C94.0928 107.049 97.5712 95.9228 97.3956 92.818C97.2357 89.9859 103.527 83.8622 104.631 82.81C104.739 82.7069 104.826 82.5866 104.89 82.4514C106.283 79.4855 110.46 71.8493 111.923 72.5301C113.42 73.2265 113.648 74.9811 112.258 77.8535C110.869 80.7252 107.983 88.6042 106.292 90.9984" fill="#FFEBDE"/>
<path d="M94.0928 107.049C94.0928 107.049 97.5712 95.9228 97.3956 92.818C97.2357 89.9859 103.527 83.8622 104.631 82.81C104.739 82.7069 104.826 82.5866 104.89 82.4514C106.283 79.4855 110.46 71.8493 111.923 72.5301C113.42 73.2265 113.648 74.9811 112.258 77.8535C110.869 80.7252 107.983 88.6042 106.292 90.9984" stroke="#0E0916" stroke-width="0.75" stroke-linecap="round" stroke-linejoin="round"/>
<path fill-rule="evenodd" clip-rule="evenodd" d="M88.7842 109.07L93.0062 100.733L107.575 105.094L106.96 114.51" fill="#E6E2FF"/>
<path d="M88.7842 109.07L93.0062 100.733L107.575 105.094L106.96 114.51" stroke="#340096" stroke-width="0.75" stroke-linecap="round" stroke-linejoin="round"/>
<mask id="mask0" mask-type="alpha" maskUnits="userSpaceOnUse" x="56" y="39" width="63" height="38">
<path d="M93.4639 39.2853C94.4764 40.5572 95.0861 42.1645 95.0861 43.9168C95.0861 48.0289 91.7534 51.3624 87.6405 51.3624C83.5291 51.3624 80.1949 48.0289 80.1949 43.9168C80.1949 42.1645 80.8054 40.5572 81.8187 39.2853H68.9405V52.2621C67.65 51.1868 65.9904 50.5397 64.179 50.5397C60.0661 50.5397 56.7334 53.874 56.7334 57.9853C56.7334 62.0975 60.0661 65.431 64.179 65.431C65.9904 65.431 67.65 64.7831 68.9405 63.7085V76.6861H81.9173C80.8428 75.3948 80.1949 73.7352 80.1949 71.9246C80.1949 67.8117 83.5291 64.479 87.6405 64.479C91.7534 64.479 95.0861 67.8117 95.0861 71.9246C95.0861 73.7352 94.4398 75.3948 93.3637 76.6861H106.341V63.7085C107.633 64.7831 109.292 65.431 111.104 65.431C115.215 65.431 118.549 62.0975 118.549 57.9853C118.549 53.874 115.215 50.5397 111.104 50.5397C109.292 50.5397 107.633 51.1868 106.341 52.2621V39.2853" fill="white"/>
</mask>
<g mask="url(#mask0)">
<path fill-rule="evenodd" clip-rule="evenodd" d="M111.104 50.5398C109.292 50.5398 107.633 51.1869 106.341 52.2622V39.2847H93.4639C94.4771 40.5572 95.0869 42.1646 95.0869 43.9169C95.0869 48.029 91.7534 51.3625 87.6413 51.3625C83.5291 51.3625 80.1956 48.029 80.1956 43.9169C80.1956 42.1646 80.8054 40.5572 81.8187 39.2847H68.9405V52.2622C67.65 51.1869 65.9904 50.5398 64.179 50.5398C60.0669 50.5398 56.7334 53.8733 56.7334 57.9854C56.7334 62.0975 60.0669 65.431 64.179 65.431C65.9904 65.431 67.65 64.7839 68.9405 63.7086V76.6862H81.9181C80.8428 75.3949 80.1956 73.7353 80.1956 71.9239C80.1956 67.8118 83.5291 64.4783 87.6413 64.4783C91.7534 64.4783 95.0869 67.8118 95.0869 71.9239C95.0869 73.7353 94.4398 75.3949 93.3645 76.6862H106.341V63.7086C107.633 64.7839 109.292 65.431 111.104 65.431C115.215 65.431 118.549 62.0975 118.549 57.9854C118.549 53.8733 115.215 50.5398 111.104 50.5398Z" fill="#BC99FF"/>
</g>
<mask id="mask1" mask-type="alpha" maskUnits="userSpaceOnUse" x="56" y="39" width="63" height="38">
<path d="M93.4639 39.2853C94.4764 40.5572 95.0861 42.1645 95.0861 43.9168C95.0861 48.0289 91.7534 51.3624 87.6405 51.3624C83.5291 51.3624 80.1949 48.0289 80.1949 43.9168C80.1949 42.1645 80.8054 40.5572 81.8187 39.2853H68.9405V52.2621C67.65 51.1868 65.9904 50.5397 64.179 50.5397C60.0661 50.5397 56.7334 53.874 56.7334 57.9853C56.7334 62.0975 60.0661 65.431 64.179 65.431C65.9904 65.431 67.65 64.7831 68.9405 63.7085V76.6861H81.9173C80.8428 75.3948 80.1949 73.7352 80.1949 71.9246C80.1949 67.8117 83.5291 64.479 87.6405 64.479C91.7534 64.479 95.0861 67.8117 95.0861 71.9246C95.0861 73.7352 94.4398 75.3948 93.3637 76.6861H106.341V63.7085C107.633 64.7831 109.292 65.431 111.104 65.431C115.215 65.431 118.549 62.0975 118.549 57.9853C118.549 53.874 115.215 50.5397 111.104 50.5397C109.292 50.5397 107.633 51.1868 106.341 52.2621V39.2853" fill="white"/>
</mask>
<g mask="url(#mask1)">
<path d="M8.2002 36.172C12.3019 41.7353 17.5857 45.8647 24.6816 46.4744C34.1538 47.2874 44.1871 44.7953 52.6341 40.5913C54.2878 39.7678 56.1723 38.2524 55.6111 36.4926C55.2517 35.3673 54.027 34.7911 52.9038 34.4257C43.9219 31.501 33.3542 34.2479 26.9346 41.1779C25.124 43.1312 23.5943 45.4694 23.1938 48.1027C22.794 50.736 23.7326 53.6862 25.9684 55.1336C27.2096 55.9361 28.7093 56.2171 30.1702 56.442C40.4053 58.0225 50.831 57.7019 61.0855 56.4846C70.2169 55.4011 82.7857 55.6477 90.1364 49.2139C90.4981 48.8978 90.8665 48.5017 90.8613 48.0212C90.8546 47.3629 90.1783 46.9392 89.579 46.665C76.8413 40.8192 61.5779 43.1925 48.6243 46.9564C48.4891 46.9953 48.3538 47.0356 48.2186 47.0752C43.0147 48.6048 37.6636 50.6628 34.1941 54.8317C32.314 57.0914 31.0848 60.2814 32.2595 62.9768C33.2302 65.2036 35.5504 66.4948 37.7869 67.4416C41.6689 69.0855 45.7653 70.181 49.9044 70.9791C64.0723 73.7095 80.115 73.4136 93.7098 68.1717C95.6646 67.4177 97.5701 66.5344 99.4084 65.5286C102.22 63.9908 102.717 61.7759 99.3732 60.9218C97.2219 60.3718 94.8823 60.3801 92.6756 60.4735C84.213 60.8314 75.7862 62.0248 67.5575 64.0304C63.7054 64.9689 59.8264 66.1167 56.537 68.3293C55.2031 69.226 53.8745 70.5135 53.9022 72.1201C53.9208 73.2208 54.5889 74.2072 55.3578 74.9948C57.6011 77.2934 60.7649 78.4202 63.8593 79.2788C70.2864 81.0618 76.9459 82.0018 83.6152 82.0863C86.9494 82.1281 90.2874 81.957 93.5992 81.5699C96.6779 81.2105 99.8425 80.9071 102.629 79.4372C104.776 78.3037 102.175 77.2956 101.097 77.0528C99.7797 76.7561 98.3757 76.6194 97.0239 76.6156C91.9396 76.6007 86.8545 77.0894 81.8666 78.072C79.4321 78.5517 76.9811 79.1645 74.8402 80.4184C72.6986 81.6723 70.8783 83.654 70.3171 86.0706" stroke="#2250FF" stroke-width="0.75"/>
</g>
<path fill-rule="evenodd" clip-rule="evenodd" d="M26.8518 74.1065L29.4066 64.5507C29.4066 64.5507 31.7126 62.5107 31.4518 66.3657C31.1918 70.2201 29.6667 78.7851 29.6667 78.7851L26.7314 73.8592" fill="#FFEBDE"/>
<path d="M26.8518 74.1065L29.4066 64.5507C29.4066 64.5507 31.7126 62.5107 31.4518 66.3657C31.1918 70.2201 29.6667 78.7851 29.6667 78.7851L26.7314 73.8592" stroke="#0E0916" stroke-width="0.75" stroke-linecap="round" stroke-linejoin="round"/>
<path fill-rule="evenodd" clip-rule="evenodd" d="M28.6487 77.972L32.0419 68.6806C32.0419 68.6806 34.5191 66.8536 33.9176 70.6698C33.316 74.486 31.0369 82.8814 31.0369 82.8814L28.5508 77.7149" fill="#FFEBDE"/>
<path d="M28.6487 77.972L32.0419 68.6806C32.0419 68.6806 34.5191 66.8536 33.9176 70.6698C33.316 74.486 31.0369 82.8814 31.0369 82.8814L28.5508 77.7149" stroke="#0E0916" stroke-width="0.75" stroke-linecap="round" stroke-linejoin="round"/>
<path fill-rule="evenodd" clip-rule="evenodd" d="M29.9241 82.9725L33.3173 73.6812C33.3173 73.6812 35.7952 71.8541 35.1929 75.6704C34.5914 79.4866 32.3123 87.882 32.3123 87.882L29.8262 82.7162" fill="#FFEBDE"/>
<path d="M29.9241 82.9725L33.3173 73.6812C33.3173 73.6812 35.7952 71.8541 35.1929 75.6704C34.5914 79.4866 32.3123 87.882 32.3123 87.882L29.8262 82.7162" stroke="#0E0916" stroke-width="0.75" stroke-linecap="round" stroke-linejoin="round"/>
<path fill-rule="evenodd" clip-rule="evenodd" d="M43.1606 108.081L32.7716 110.088C32.7716 110.088 32.4368 102.001 30.0336 96.8165C27.6297 91.6321 24.4509 87.7426 23.8815 81.054C23.3113 74.3646 23.2725 61.4087 24.8731 61.0157C26.2398 60.6801 26.251 60.8333 27.3278 68.4359C28.4046 76.0392 28.1849 80.6064 29.6623 82.7592" fill="#FFEBDE"/>
<path d="M43.1606 108.081L32.7716 110.088C32.7716 110.088 32.4368 102.001 30.0336 96.8165C27.6297 91.6321 24.4509 87.7426 23.8815 81.054C23.3113 74.3646 23.2725 61.4087 24.8731 61.0157C26.2398 60.6801 26.251 60.8333 27.3278 68.4359C28.4046 76.0392 28.1849 80.6064 29.6623 82.7592" stroke="#0E0916" stroke-width="0.75" stroke-linecap="round" stroke-linejoin="round"/>
<path fill-rule="evenodd" clip-rule="evenodd" d="M111.104 50.54C109.292 50.54 107.633 51.1871 106.341 52.2624V39.2849H93.4639C94.4771 40.5574 95.0869 42.1648 95.0869 43.9171C95.0869 48.0292 91.7534 51.3627 87.6413 51.3627C83.5291 51.3627 80.1956 48.0292 80.1956 43.9171C80.1956 42.1648 80.8054 40.5574 81.8187 39.2849H68.9405V52.2624C67.65 51.1871 65.9904 50.54 64.179 50.54C60.0669 50.54 56.7334 53.8735 56.7334 57.9856C56.7334 62.0977 60.0669 65.4312 64.179 65.4312C65.9904 65.4312 67.65 64.7841 68.9405 63.7088V76.6863H81.9181C80.8428 75.3951 80.1956 73.7354 80.1956 71.9241C80.1956 67.812 83.5291 64.4785 87.6413 64.4785C91.7534 64.4785 95.0869 67.812 95.0869 71.9241C95.0869 73.7354 94.4398 75.3951 93.3645 76.6863H106.341V63.7088C107.633 64.7841 109.292 65.4312 111.104 65.4312C115.215 65.4312 118.549 62.0977 118.549 57.9856C118.549 53.8735 115.215 50.54 111.104 50.54Z" stroke="#0E0916" stroke-width="0.75" stroke-linecap="round" stroke-linejoin="round"/>
<path fill-rule="evenodd" clip-rule="evenodd" d="M43.1602 108.081C43.1602 108.081 40.2295 96.7986 40.5561 93.7065C40.8542 90.8848 34.8702 84.4615 33.8188 83.357C33.7157 83.2487 33.6343 83.1246 33.5775 82.9864C32.3303 79.9555 28.532 72.1236 27.0375 72.7326C25.5079 73.3558 25.1948 75.0969 26.4427 78.0336C27.6899 80.9703 30.1872 88.9801 31.7587 91.4535" fill="#FFEBDE"/>
<path d="M43.1602 108.081C43.1602 108.081 40.2295 96.7986 40.5561 93.7065C40.8542 90.8848 34.8702 84.4615 33.8188 83.357C33.7157 83.2487 33.6343 83.1246 33.5775 82.9864C32.3303 79.9555 28.532 72.1236 27.0375 72.7326C25.5079 73.3558 25.1948 75.0969 26.4427 78.0336C27.6899 80.9703 30.1872 88.9801 31.7587 91.4535" stroke="#0E0916" stroke-width="0.75" stroke-linecap="round" stroke-linejoin="round"/>
<path fill-rule="evenodd" clip-rule="evenodd" d="M48.3643 111.576L44.554 103.044L29.7891 106.687L29.9452 116.122" fill="#E6E2FF"/>
<path d="M48.3643 111.576L44.554 103.044L29.7891 106.687L29.9452 116.122" stroke="#340096" stroke-width="0.75" stroke-linecap="round" stroke-linejoin="round"/>
<mask id="mask2" mask-type="alpha" maskUnits="userSpaceOnUse" x="19" y="26" width="50" height="63">
<path d="M42.6558 34.3467C42.6558 36.1581 43.3037 37.8177 44.3782 39.1082H31.4015V52.085C30.111 51.0105 28.4506 50.3634 26.64 50.3634C22.5271 50.3634 19.1943 53.6969 19.1943 57.8082C19.1943 61.9211 22.5271 65.2539 26.64 65.2539C28.4506 65.2539 30.111 64.6075 31.4015 63.5315V76.509H44.3782C43.3037 77.8002 42.6558 79.4599 42.6558 81.2712C42.6558 85.3826 45.9901 88.7169 50.1015 88.7169C54.2143 88.7169 57.5471 85.3826 57.5471 81.2712C57.5471 79.4599 56.9 77.8002 55.8247 76.509H68.8022V63.5315C67.5109 64.6075 65.8513 65.2539 64.0407 65.2539C59.9286 65.2539 56.5951 61.9211 56.5951 57.8082C56.5951 53.6969 59.9286 50.3634 64.0407 50.3634C65.8513 50.3634 67.5109 51.0105 68.8022 52.085V39.1082H55.8247C56.9 37.8177 57.5471 36.1581 57.5471 34.3467C57.5471 30.2346 54.2143 26.9011 50.1015 26.9011C45.9901 26.9011 42.6558 30.2346 42.6558 34.3467Z" fill="white"/>
</mask>
<g mask="url(#mask2)">
<path fill-rule="evenodd" clip-rule="evenodd" d="M57.5468 81.2711C57.5468 79.4597 56.8997 77.8001 55.8244 76.5088H68.802V63.532C67.5107 64.6073 65.8511 65.2544 64.0397 65.2544C59.9283 65.2544 56.5948 61.9209 56.5948 57.8088C56.5948 53.6967 59.9283 50.3632 64.0397 50.3632C65.8511 50.3632 67.5107 51.0103 68.802 52.0856V39.1081H55.8244C56.8997 37.8176 57.5468 36.1579 57.5468 34.3466C57.5468 30.2344 54.2134 26.9009 50.1012 26.9009C45.9891 26.9009 42.6556 30.2344 42.6556 34.3466C42.6556 36.1579 43.3027 37.8176 44.378 39.1081H31.4005V52.0856C30.11 51.0103 28.4503 50.3632 26.639 50.3632C22.5269 50.3632 19.1934 53.6967 19.1934 57.8088C19.1934 61.9209 22.5269 65.2544 26.639 65.2544C28.4503 65.2544 30.11 64.6073 31.4005 63.532V76.5088H44.378C43.3027 77.8001 42.6556 79.4597 42.6556 81.2711C42.6556 85.3824 45.9891 88.7167 50.1012 88.7167C54.2134 88.7167 57.5468 85.3824 57.5468 81.2711Z" fill="#FFA578"/>
</g>
<mask id="mask3" mask-type="alpha" maskUnits="userSpaceOnUse" x="19" y="26" width="50" height="63">
<path d="M42.6558 34.3467C42.6558 36.1581 43.3037 37.8177 44.3782 39.1082H31.4015V52.085C30.111 51.0105 28.4506 50.3634 26.64 50.3634C22.5271 50.3634 19.1943 53.6969 19.1943 57.8082C19.1943 61.9211 22.5271 65.2539 26.64 65.2539C28.4506 65.2539 30.111 64.6075 31.4015 63.5315V76.509H44.3782C43.3037 77.8002 42.6558 79.4599 42.6558 81.2712C42.6558 85.3826 45.9901 88.7169 50.1015 88.7169C54.2143 88.7169 57.5471 85.3826 57.5471 81.2712C57.5471 79.4599 56.9 77.8002 55.8247 76.509H68.8022V63.5315C67.5109 64.6075 65.8513 65.2539 64.0407 65.2539C59.9286 65.2539 56.5951 61.9211 56.5951 57.8082C56.5951 53.6969 59.9286 50.3634 64.0407 50.3634C65.8513 50.3634 67.5109 51.0105 68.8022 52.085V39.1082H55.8247C56.9 37.8177 57.5471 36.1581 57.5471 34.3467C57.5471 30.2346 54.2143 26.9011 50.1015 26.9011C45.9901 26.9011 42.6558 30.2346 42.6558 34.3467Z" fill="white"/>
</mask>
<g mask="url(#mask3)">
<path d="M8.19922 36.172C12.3009 41.7353 17.5847 45.8647 24.6806 46.4744C34.1528 47.2874 44.1862 44.7953 52.6331 40.5913C54.2868 39.7678 56.1713 38.2524 55.6102 36.4926C55.2507 35.3673 54.026 34.7911 52.9029 34.4257C43.9209 31.501 33.3532 34.2479 26.9336 41.1779C25.123 43.1312 23.5934 45.4694 23.1928 48.1027C22.7931 50.736 23.7316 53.6862 25.9674 55.1336C27.2086 55.9361 28.7083 56.2171 30.1692 56.442C40.4043 58.0225 50.83 57.7019 61.0845 56.4846C70.216 55.4011 82.7847 55.6477 90.1355 49.2139C90.4971 48.8978 90.8655 48.5017 90.8603 48.0212C90.8536 47.3629 90.1773 46.9392 89.578 46.665C76.8404 40.8192 61.577 43.1925 48.6233 46.9564C48.4881 46.9953 48.3528 47.0356 48.2176 47.0752C43.0137 48.6048 37.6626 50.6628 34.1932 54.8317C32.3131 57.0914 31.0838 60.2814 32.2585 62.9768C33.2292 65.2036 35.5494 66.4948 37.7859 67.4416C41.6679 69.0855 45.7644 70.181 49.9034 70.9791C64.0713 73.7095 80.1141 73.4136 93.7088 68.1717C95.6637 67.4177 97.5691 66.5344 99.4074 65.5286C102.219 63.9908 102.716 61.7759 99.3723 60.9218C97.2209 60.3718 94.8813 60.3801 92.6746 60.4735C84.212 60.8314 75.7852 62.0248 67.5565 64.0304C63.7044 64.9689 59.8254 66.1167 56.536 68.3293C55.2022 69.226 53.8735 70.5135 53.9012 72.1201C53.9199 73.2208 54.5879 74.2072 55.3568 74.9948C57.6001 77.2934 60.764 78.4202 63.8583 79.2788C70.2855 81.0618 76.945 82.0018 83.6142 82.0863C86.9484 82.1281 90.2864 81.957 93.5982 81.5699C96.6769 81.2105 99.8415 80.9071 102.628 79.4372C104.775 78.3037 102.174 77.2956 101.096 77.0528C99.7788 76.7561 98.3747 76.6194 97.0229 76.6156C91.9386 76.6007 86.8535 77.0894 81.8656 78.072C79.4311 78.5517 76.9801 79.1645 74.8392 80.4184C72.6976 81.6723 70.8773 83.654 70.3161 86.0706" stroke="#2250FF" stroke-width="0.75"/>
</g>
<path fill-rule="evenodd" clip-rule="evenodd" d="M57.5478 81.2711C57.5478 79.4597 56.9007 77.8001 55.8254 76.5088H68.8029V63.532C67.5117 64.6073 65.852 65.2544 64.0407 65.2544C59.9293 65.2544 56.5958 61.9209 56.5958 57.8088C56.5958 53.6967 59.9293 50.3632 64.0407 50.3632C65.852 50.3632 67.5117 51.0103 68.8029 52.0856V39.1081H55.8254C56.9007 37.8176 57.5478 36.1579 57.5478 34.3466C57.5478 30.2344 54.2143 26.9009 50.1022 26.9009C45.9901 26.9009 42.6566 30.2344 42.6566 34.3466C42.6566 36.1579 43.3037 37.8176 44.379 39.1081H31.4015V52.0856C30.1109 51.0103 28.4513 50.3632 26.64 50.3632C22.5278 50.3632 19.1943 53.6967 19.1943 57.8088C19.1943 61.9209 22.5278 65.2544 26.64 65.2544C28.4513 65.2544 30.1109 64.6073 31.4015 63.532V76.5088H44.379C43.3037 77.8001 42.6566 79.4597 42.6566 81.2711C42.6566 85.3824 45.9901 88.7167 50.1022 88.7167C54.2143 88.7167 57.5478 85.3824 57.5478 81.2711Z" stroke="#0E0916" stroke-width="0.75" stroke-linecap="round" stroke-linejoin="round"/>
</svg>
