<svg xmlns="http://www.w3.org/2000/svg" fill="none" viewBox="0 0 185 185">
  <path fill="#DCEAFF" fill-rule="evenodd" d="M184 93c0 50.81-41.19 92-92 92S0 143.81 0 93 41.19 1 92 1s92 41.19 92 92z" clip-rule="evenodd"/>
  <path fill="#FFA578" fill-rule="evenodd" d="M151.565 115.227c0 26.575-21.509 48.118-48.042 48.118-26.532 0-48.042-21.543-48.042-48.118 0-26.574 21.51-48.117 48.042-48.117 26.533 0 48.042 21.543 48.042 48.117z" clip-rule="evenodd"/>
  <mask id="a" width="97" height="97" x="55" y="67" maskUnits="userSpaceOnUse">
    <path fill="#fff" d="M55.482 115.227c0 26.575 21.509 48.117 48.042 48.117s48.042-21.542 48.042-48.117c0-26.574-21.509-48.117-48.042-48.117s-48.042 21.543-48.042 48.117z"/>
  </mask>
  <g mask="url(#a)">
    <path fill="#FBFBFC" fill-rule="evenodd" d="M92.8 149.229V132.35l.043-.109c-3.894-.565-6.584-3.325-8.33-6.663-5.438-10.398.633-29.546.689-29.956l7.949-3.727 16.909 2.743 15.123 16.936-5.001 40.311-27.383-2.656z" clip-rule="evenodd"/>
  </g>
  <mask id="b" width="97" height="97" x="55" y="67" maskUnits="userSpaceOnUse">
    <path fill="#fff" d="M55.482 115.227c0 26.575 21.509 48.117 48.042 48.117s48.042-21.542 48.042-48.117c0-26.574-21.509-48.117-48.042-48.117s-48.042 21.543-48.042 48.117z"/>
  </mask>
  <g mask="url(#b)">
    <path stroke="#340096" stroke-linecap="round" stroke-linejoin="round" stroke-width=".75" d="M95.96 126.528c3.528 1.192 4.77-2.277 4.77-2.277"/>
  </g>
  <mask id="c" width="97" height="97" x="55" y="67" maskUnits="userSpaceOnUse">
    <path fill="#fff" d="M55.482 115.227c0 26.575 21.509 48.117 48.042 48.117s48.042-21.542 48.042-48.117c0-26.574-21.509-48.117-48.042-48.117s-48.042 21.543-48.042 48.117z"/>
  </mask>
  <g mask="url(#c)">
    <path stroke="#340096" stroke-linecap="round" stroke-linejoin="round" stroke-width=".75" d="M92.799 132.35v10.837"/>
  </g>
  <mask id="d" width="97" height="97" x="55" y="67" maskUnits="userSpaceOnUse">
    <path fill="#fff" d="M55.482 115.227c0 26.575 21.509 48.117 48.042 48.117s48.042-21.542 48.042-48.117c0-26.574-21.509-48.117-48.042-48.117s-48.042 21.543-48.042 48.117z"/>
  </mask>
  <g mask="url(#d)">
    <path fill="#340096" fill-rule="evenodd" d="M124.355 102.514c1.885-5.798-4.598-12.687-9.914-13.173-.798-.073-1.672-3.9-5.975-5.228-3.535-1.09-13.43-.504-14.644 2.703.221-1.429-12.002.537-12.916 7.223-.649 4.739 1.37 6.379 2.991 7.388 5.503 3.424.789-.195 9.745-5.388-6.19 15.114 17.201 17.632 20.639 16.665 3.315-.934 5.552-.262 6.387 2.829 1.188 4.388-5.089 6.46-5.089 6.46l-.505 17.516c3.054 1.378 12.084 12.967 16.398 12.569 5.837-.54-4.822-12.493-4.139-19.727 1.159-12.266 2.328-27.254-2.978-29.837z" clip-rule="evenodd"/>
  </g>
  <mask id="e" width="97" height="97" x="55" y="67" maskUnits="userSpaceOnUse">
    <path fill="#fff" d="M55.482 115.227c0 26.575 21.509 48.117 48.042 48.117s48.042-21.542 48.042-48.117c0-26.574-21.509-48.117-48.042-48.117s-48.042 21.543-48.042 48.117z"/>
  </mask>
  <g mask="url(#e)">
    <path stroke="#340096" stroke-linecap="round" stroke-linejoin="round" stroke-width=".75" d="M85.202 95.623c-.057.409-6.127 19.557-.688 29.955 2.703 5.168 7.67 8.952 15.866 5.347"/>
  </g>
  <mask id="f" width="97" height="97" x="55" y="67" maskUnits="userSpaceOnUse">
    <path fill="#fff" d="M55.482 115.227c0 26.575 21.509 48.117 48.042 48.117s48.042-21.542 48.042-48.117c0-26.574-21.509-48.117-48.042-48.117s-48.042 21.543-48.042 48.117z"/>
  </mask>
  <g mask="url(#f)">
    <path fill="#2250FF" fill-rule="evenodd" d="M50.287 153.271s20.79-19.793 42.379-14.301c.914 2.174 9.393 6.973 22.762.776 24.07 3.686 26.603 4.646 31.663 10.011 4.856 5.151 2.11 13.588 2.11 13.588H36.879l13.408-10.074z" clip-rule="evenodd"/>
  </g>
  <mask id="g" width="97" height="97" x="55" y="67" maskUnits="userSpaceOnUse">
    <path fill="#fff" d="M55.482 115.227c0 26.575 21.509 48.117 48.042 48.117s48.042-21.542 48.042-48.117c0-26.574-21.509-48.117-48.042-48.117s-48.042 21.543-48.042 48.117z"/>
  </mask>
  <g mask="url(#g)">
    <path stroke="#340096" stroke-linecap="round" stroke-linejoin="round" stroke-width=".75" d="M50.287 153.271s20.79-19.793 42.379-14.301c.914 2.174 9.393 6.973 22.762.776 24.07 3.686 26.603 4.646 31.663 10.011 4.856 5.151 2.11 13.588 2.11 13.588H36.879l13.408-10.074z" clip-rule="evenodd"/>
  </g>
  <mask id="h" width="97" height="97" x="55" y="67" maskUnits="userSpaceOnUse">
    <path fill="#fff" d="M55.482 115.227c0 26.575 21.509 48.117 48.042 48.117s48.042-21.542 48.042-48.117c0-26.574-21.509-48.117-48.042-48.117s-48.042 21.543-48.042 48.117z"/>
  </mask>
  <g mask="url(#h)">
    <path stroke="#340096" stroke-linecap="round" stroke-linejoin="round" stroke-width=".75" d="M116.104 118.904s2.233-.33 2.386-2.317c.148-1.942-2.312-2.053-2.312-2.053"/>
  </g>
  <mask id="i" width="97" height="97" x="55" y="67" maskUnits="userSpaceOnUse">
    <path fill="#fff" d="M55.482 115.227c0 26.575 21.509 48.117 48.042 48.117s48.042-21.542 48.042-48.117c0-26.574-21.509-48.117-48.042-48.117s-48.042 21.543-48.042 48.117z"/>
  </mask>
  <g mask="url(#i)">
    <path fill="#fff" fill-rule="evenodd" d="M91.329 112.513a5.47 5.47 0 01-5.467 5.476 5.472 5.472 0 01-5.468-5.476 5.472 5.472 0 015.468-5.476 5.471 5.471 0 015.467 5.476z" clip-rule="evenodd"/>
  </g>
  <mask id="j" width="97" height="97" x="55" y="67" maskUnits="userSpaceOnUse">
    <path fill="#fff" d="M55.482 115.227c0 26.575 21.509 48.117 48.042 48.117s48.042-21.542 48.042-48.117c0-26.574-21.509-48.117-48.042-48.117s-48.042 21.543-48.042 48.117z"/>
  </mask>
  <g mask="url(#j)">
    <path stroke="#340096" stroke-linecap="round" stroke-linejoin="round" stroke-width=".75" d="M91.329 112.513a5.47 5.47 0 01-5.467 5.476 5.472 5.472 0 01-5.468-5.476 5.472 5.472 0 015.468-5.476 5.471 5.471 0 015.467 5.476z" clip-rule="evenodd"/>
  </g>
  <mask id="k" width="97" height="97" x="55" y="67" maskUnits="userSpaceOnUse">
    <path fill="#fff" d="M55.482 115.227c0 26.575 21.509 48.117 48.042 48.117s48.042-21.542 48.042-48.117c0-26.574-21.509-48.117-48.042-48.117s-48.042 21.543-48.042 48.117z"/>
  </mask>
  <g mask="url(#k)">
    <path stroke="#340096" stroke-linecap="round" stroke-linejoin="round" stroke-width=".75" d="M86.764 112.827s-1.288-.59-2.65-.026"/>
  </g>
  <mask id="l" width="97" height="97" x="55" y="67" maskUnits="userSpaceOnUse">
    <path fill="#fff" d="M55.482 115.227c0 26.575 21.509 48.117 48.042 48.117s48.042-21.542 48.042-48.117c0-26.574-21.509-48.117-48.042-48.117s-48.042 21.543-48.042 48.117z"/>
  </mask>
  <g mask="url(#l)">
    <path fill="#fff" fill-rule="evenodd" d="M105.568 112.513a5.471 5.471 0 01-5.468 5.476 5.47 5.47 0 01-5.467-5.476 5.471 5.471 0 015.467-5.476 5.472 5.472 0 015.468 5.476z" clip-rule="evenodd"/>
  </g>
  <mask id="m" width="97" height="97" x="55" y="67" maskUnits="userSpaceOnUse">
    <path fill="#fff" d="M55.482 115.227c0 26.575 21.509 48.117 48.042 48.117s48.042-21.542 48.042-48.117c0-26.574-21.509-48.117-48.042-48.117s-48.042 21.543-48.042 48.117z"/>
  </mask>
  <g mask="url(#m)">
    <path stroke="#340096" stroke-linecap="round" stroke-linejoin="round" stroke-width=".75" d="M105.568 112.513a5.471 5.471 0 01-5.468 5.476 5.47 5.47 0 01-5.467-5.476 5.471 5.471 0 015.467-5.476 5.472 5.472 0 015.468 5.476z" clip-rule="evenodd"/>
  </g>
  <mask id="n" width="97" height="97" x="55" y="67" maskUnits="userSpaceOnUse">
    <path fill="#fff" d="M55.482 115.227c0 26.575 21.509 48.117 48.042 48.117s48.042-21.542 48.042-48.117c0-26.574-21.509-48.117-48.042-48.117s-48.042 21.543-48.042 48.117z"/>
  </mask>
  <g mask="url(#n)">
    <path stroke="#340096" stroke-linecap="round" stroke-linejoin="round" stroke-width=".75" d="M101.002 112.827s-1.288-.59-2.65-.026"/>
  </g>
  <mask id="o" width="97" height="97" x="55" y="67" maskUnits="userSpaceOnUse">
    <path fill="#fff" d="M55.482 115.227c0 26.575 21.509 48.117 48.042 48.117s48.042-21.542 48.042-48.117c0-26.574-21.509-48.117-48.042-48.117s-48.042 21.543-48.042 48.117z"/>
  </mask>
  <g mask="url(#o)">
    <path stroke="#340096" stroke-linecap="round" stroke-linejoin="round" stroke-width=".75" d="M92.527 115.051s-1.433 5.123.346 6.093c0 0 .903.48 2.083.12"/>
  </g>
  <mask id="p" width="97" height="97" x="55" y="67" maskUnits="userSpaceOnUse">
    <path fill="#fff" d="M55.482 115.227c0 26.575 21.509 48.117 48.042 48.117s48.042-21.542 48.042-48.117c0-26.574-21.509-48.117-48.042-48.117s-48.042 21.543-48.042 48.117z"/>
  </mask>
  <g mask="url(#p)">
    <path stroke="#340096" stroke-linecap="round" stroke-linejoin="round" stroke-width=".75" d="M94.632 112.513h-3.304"/>
  </g>
  <path stroke="#0E0916" stroke-linecap="round" stroke-linejoin="round" stroke-width=".75" d="M151.565 115.227c0 26.575-21.509 48.118-48.042 48.118-26.532 0-48.042-21.543-48.042-48.118 0-26.574 21.51-48.116 48.042-48.116 26.533 0 48.042 21.542 48.042 48.116z" clip-rule="evenodd"/>
  <path fill="#BC99FF" fill-rule="evenodd" d="M4.21 68.394c0 21.692 17.56 39.277 39.218 39.277 21.658 0 39.216-17.585 39.216-39.277 0-21.694-17.558-39.279-39.216-39.279S4.21 46.7 4.21 68.394z" clip-rule="evenodd"/>
  <mask id="q" width="79" height="79" x="4" y="29" maskUnits="userSpaceOnUse">
    <path fill="#fff" d="M4.21 68.393c0 21.692 17.56 39.277 39.218 39.277 21.658 0 39.216-17.585 39.216-39.277 0-21.693-17.558-39.277-39.216-39.277S4.21 46.7 4.21 68.393z"/>
  </mask>
  <g mask="url(#q)">
    <path fill="#FFEBDE" fill-rule="evenodd" d="M26.334 62.358c-1.243-.272-1.863-1.83-1.737-3.155.229-2.4 2.453-4.35 4.73-4.3a1.401 1.401 0 01-.797-.83c-.204-.57-.086-1.22.169-1.768.926-1.995 3.781-2.617 5.39-1.176-.364-2.328.755-4.751 2.532-6.201 1.776-1.45 3.984-1.798 6.233-1.688 2.25.11 4.56.636 6.64 1.538 2.651 1.153 5.224 2.627 7.244 4.763 2.019 2.136 3.447 5.002 3.473 8.01.014 1.622-.485 3.402-1.804 4.25-.199.129-.41.225-.628.304 1.804 4.604 5.596 15.694 1.83 21.435-1.919 2.926-4.78 4.338-8.28 4.163l-.032.156v7.5L34.48 98.416l-.566-20.22s-5.284-.588-4.03-4.807a.707.707 0 01-1.137.196 3.243 3.243 0 01-.432-.578 22.085 22.085 0 01-2.746-6.509c-.354-1.456-.427-3.307.766-4.14z" clip-rule="evenodd"/>
  </g>
  <mask id="r" width="79" height="79" x="4" y="29" maskUnits="userSpaceOnUse">
    <path fill="#fff" d="M4.21 68.393c0 21.692 17.56 39.277 39.218 39.277 21.658 0 39.216-17.585 39.216-39.277 0-21.693-17.558-39.277-39.216-39.277S4.21 46.7 4.21 68.393z"/>
  </mask>
  <g mask="url(#r)">
    <path stroke="#340096" stroke-linecap="round" stroke-linejoin="round" stroke-width=".75" d="M26.334 62.358c-1.243-.272-1.863-1.83-1.737-3.155.229-2.4 2.453-4.35 4.73-4.3a1.401 1.401 0 01-.797-.83c-.204-.57-.086-1.22.169-1.768.926-1.995 3.781-2.617 5.39-1.176-.364-2.328.755-4.751 2.532-6.201 1.776-1.45 3.984-1.798 6.233-1.688 2.25.11 4.56.636 6.64 1.538 2.651 1.153 5.224 2.627 7.244 4.763 2.019 2.136 3.447 5.002 3.473 8.01.014 1.622-.485 3.402-1.804 4.25-.199.129-.41.225-.628.304 1.804 4.604 5.596 15.694 1.83 21.435-1.919 2.926-4.78 4.338-8.28 4.163l-.032.156v7.5L34.48 98.416l-.566-20.22s-5.284-.588-4.03-4.807a.707.707 0 01-1.137.196 3.243 3.243 0 01-.432-.578 22.085 22.085 0 01-2.746-6.509c-.354-1.456-.427-3.307.766-4.14z" clip-rule="evenodd"/>
  </g>
  <mask id="s" width="79" height="79" x="4" y="29" maskUnits="userSpaceOnUse">
    <path fill="#fff" d="M4.21 68.393c0 21.692 17.56 39.277 39.218 39.277 21.658 0 39.216-17.585 39.216-39.277 0-21.693-17.558-39.277-39.216-39.277S4.21 46.7 4.21 68.393z"/>
  </mask>
  <g mask="url(#s)">
    <path stroke="#340096" stroke-linecap="round" stroke-linejoin="round" stroke-width=".75" d="M45.026 80.019s1.357 3.809 5.167 2.457"/>
  </g>
  <mask id="t" width="79" height="79" x="4" y="29" maskUnits="userSpaceOnUse">
    <path fill="#fff" d="M4.21 68.393c0 21.692 17.56 39.277 39.218 39.277 21.658 0 39.216-17.585 39.216-39.277 0-21.693-17.558-39.277-39.216-39.277S4.21 46.7 4.21 68.393z"/>
  </mask>
  <g mask="url(#t)">
    <path stroke="#340096" stroke-linecap="round" stroke-linejoin="round" stroke-width=".75" d="M49.791 77.064s3.623 1.267 3.301-2.249c-.181-1.984-.67-5.085-1.062-7.413-.351-2.086 1.903-2.207 3.744-1.168"/>
  </g>
  <mask id="u" width="79" height="79" x="4" y="29" maskUnits="userSpaceOnUse">
    <path fill="#fff" d="M4.21 68.393c0 21.692 17.56 39.277 39.218 39.277 21.658 0 39.216-17.585 39.216-39.277 0-21.693-17.558-39.277-39.216-39.277S4.21 46.7 4.21 68.393z"/>
  </mask>
  <g mask="url(#u)">
    <path stroke="#340096" stroke-linecap="round" stroke-linejoin="round" stroke-width=".75" d="M42.63 70.565s2.257-.659 3.54-.082"/>
  </g>
  <mask id="v" width="79" height="79" x="4" y="29" maskUnits="userSpaceOnUse">
    <path fill="#fff" d="M4.21 68.393c0 21.692 17.56 39.277 39.218 39.277 21.658 0 39.216-17.585 39.216-39.277 0-21.693-17.558-39.277-39.216-39.277S4.21 46.7 4.21 68.393z"/>
  </mask>
  <g mask="url(#v)">
    <path stroke="#340096" stroke-linecap="round" stroke-linejoin="round" stroke-width=".75" d="M55.19 70.425s1.911-.787 3.542-.082"/>
  </g>
  <mask id="w" width="79" height="79" x="4" y="29" maskUnits="userSpaceOnUse">
    <path fill="#fff" d="M4.21 68.393c0 21.692 17.56 39.277 39.218 39.277 21.658 0 39.216-17.585 39.216-39.277 0-21.693-17.558-39.277-39.216-39.277S4.21 46.7 4.21 68.393z"/>
  </mask>
  <g mask="url(#w)">
    <path stroke="#340096" stroke-linecap="round" stroke-linejoin="round" stroke-width=".75" d="M51.297 87.859v7.5"/>
  </g>
  <mask id="x" width="79" height="79" x="4" y="29" maskUnits="userSpaceOnUse">
    <path fill="#fff" d="M4.21 68.393c0 21.692 17.56 39.277 39.218 39.277 21.658 0 39.216-17.585 39.216-39.277 0-21.693-17.558-39.277-39.216-39.277S4.21 46.7 4.21 68.393z"/>
  </mask>
  <g mask="url(#x)">
    <path stroke="#340096" stroke-linecap="round" stroke-linejoin="round" stroke-width=".75" d="M34.477 98.416l-.566-20.22s-5.623-.626-3.89-5.217"/>
  </g>
  <mask id="y" width="79" height="79" x="4" y="29" maskUnits="userSpaceOnUse">
    <path fill="#fff" d="M4.21 68.393c0 21.692 17.56 39.277 39.218 39.277 21.658 0 39.216-17.585 39.216-39.277 0-21.693-17.558-39.277-39.216-39.277S4.21 46.7 4.21 68.393z"/>
  </mask>
  <g mask="url(#y)">
    <path stroke="#340096" stroke-linecap="round" stroke-linejoin="round" stroke-width=".75" d="M33.837 73.413c-.09-.472-.571-.812-1.05-.808-.48.005-.926.308-1.175.72-.249.41-.317.91-.27 1.387.021.232.07.464.186.666"/>
  </g>
  <mask id="z" width="79" height="79" x="4" y="29" maskUnits="userSpaceOnUse">
    <path fill="#fff" d="M4.21 68.393c0 21.692 17.56 39.277 39.218 39.277 21.658 0 39.216-17.585 39.216-39.277 0-21.693-17.558-39.277-39.216-39.277S4.21 46.7 4.21 68.393z"/>
  </mask>
  <g mask="url(#z)">
    <path stroke="#340096" stroke-linecap="round" stroke-linejoin="round" stroke-width=".75" d="M56.94 60.024c.043.304 7.45 16.226 2.669 23.515-2.876 4.384-7.855 5.39-13.944 2.712"/>
  </g>
  <mask id="A" width="79" height="79" x="4" y="29" maskUnits="userSpaceOnUse">
    <path fill="#fff" d="M4.21 68.393c0 21.692 17.56 39.277 39.218 39.277 21.658 0 39.216-17.585 39.216-39.277 0-21.693-17.558-39.277-39.216-39.277S4.21 46.7 4.21 68.393z"/>
  </mask>
  <g mask="url(#A)">
    <path fill="#340096" fill-rule="evenodd" d="M29.337 73.784a.724.724 0 00.578-.448c.404-1.006 1.158-1.868 2.13-2.247 1.096-.428 2.452-.153 3.206.785.595.74.893 1.89 1.868 2.016.405.055.808-.11 1.108-.401.617-.598.758-1.462.827-2.292.192-2.342-.092-4.695-.42-7.019-.129-.925-.256-1.92.149-2.751.67-1.374 2.411-1.646 3.885-1.634 2.801.023 5.6.45 8.291 1.269 1.414.43 2.806.97 4.263 1.196 1.083.168 2.252.143 3.184-.456 1.32-.849 1.82-2.629 1.806-4.252-.027-3.007-1.454-5.873-3.474-8.01-2.019-2.135-4.592-3.61-7.244-4.762a19.248 19.248 0 00-6.64-1.538c-2.248-.11-4.457.238-6.234 1.688-1.776 1.449-2.895 3.872-2.531 6.2-1.61-1.44-4.463-.819-5.39 1.177-.255.547-.372 1.197-.169 1.768.204.57.793 1.01 1.36.879-2.457-.424-5.045 1.654-5.293 4.251-.126 1.325.494 2.883 1.737 3.155-1.193.833-1.12 2.683-.766 4.14a22.09 22.09 0 002.745 6.51c.13.203.267.41.435.577a.705.705 0 00.589.199z" clip-rule="evenodd"/>
  </g>
  <mask id="B" width="79" height="79" x="4" y="29" maskUnits="userSpaceOnUse">
    <path fill="#fff" d="M4.21 68.393c0 21.692 17.56 39.277 39.218 39.277 21.658 0 39.216-17.585 39.216-39.277 0-21.693-17.558-39.277-39.216-39.277S4.21 46.7 4.21 68.393z"/>
  </mask>
  <g mask="url(#B)">
    <path stroke="#340096" stroke-linecap="round" stroke-linejoin="round" stroke-width=".75" d="M29.337 73.784a.724.724 0 00.578-.448c.404-1.006 1.158-1.868 2.13-2.247 1.096-.428 2.452-.153 3.206.785.595.74.893 1.89 1.868 2.016.405.055.808-.11 1.108-.401.617-.598.758-1.462.827-2.292.192-2.342-.092-4.695-.42-7.019-.129-.925-.256-1.92.149-2.751.67-1.374 2.411-1.646 3.885-1.634 2.801.023 5.6.45 8.291 1.269 1.414.43 2.806.97 4.263 1.196 1.083.168 2.252.143 3.184-.456 1.32-.849 1.82-2.629 1.806-4.252-.027-3.007-1.454-5.873-3.474-8.01-2.019-2.135-4.592-3.61-7.244-4.762a19.248 19.248 0 00-6.64-1.538c-2.248-.11-4.457.238-6.234 1.688-1.776 1.449-2.895 3.872-2.531 6.2-1.61-1.44-4.463-.819-5.39 1.177-.255.547-.372 1.197-.169 1.768.204.57.793 1.01 1.36.879-2.457-.424-5.045 1.654-5.293 4.251-.126 1.325.494 2.883 1.737 3.155-1.193.833-1.12 2.683-.766 4.14a22.09 22.09 0 002.745 6.51c.13.203.267.41.435.577a.705.705 0 00.589.199z" clip-rule="evenodd"/>
  </g>
  <mask id="C" width="79" height="79" x="4" y="29" maskUnits="userSpaceOnUse">
    <path fill="#fff" d="M4.21 68.393c0 21.692 17.56 39.277 39.218 39.277 21.658 0 39.216-17.585 39.216-39.277 0-21.693-17.558-39.277-39.216-39.277S4.21 46.7 4.21 68.393z"/>
  </mask>
  <g mask="url(#C)">
    <path stroke="#340096" stroke-linecap="round" stroke-linejoin="round" stroke-width=".75" d="M33.102 78.008s1.826.486 3.905.093"/>
  </g>
  <mask id="D" width="79" height="79" x="4" y="29" maskUnits="userSpaceOnUse">
    <path fill="#fff" d="M4.21 68.393c0 21.692 17.56 39.277 39.218 39.277 21.658 0 39.216-17.585 39.216-39.277 0-21.693-17.558-39.277-39.216-39.277S4.21 46.7 4.21 68.393z"/>
  </mask>
  <g mask="url(#D)">
    <path fill="#BCD7FE" fill-rule="evenodd" d="M84.06 103.588s-16.036-15.265-32.69-11.03c-.703 1.677-7.244 5.379-17.555.598C15.248 96 12.445 97.69 9.392 100.878c-3.777 3.944-1.628 10.48-1.628 10.48h86.638l-10.343-7.77z" clip-rule="evenodd"/>
  </g>
  <mask id="E" width="79" height="79" x="4" y="29" maskUnits="userSpaceOnUse">
    <path fill="#fff" d="M4.21 68.393c0 21.692 17.56 39.277 39.218 39.277 21.658 0 39.216-17.585 39.216-39.277 0-21.693-17.558-39.277-39.216-39.277S4.21 46.7 4.21 68.393z"/>
  </mask>
  <g mask="url(#E)">
    <path stroke="#340096" stroke-linecap="round" stroke-linejoin="round" stroke-width=".75" d="M84.06 103.588s-16.036-15.265-32.69-11.03c-.703 1.677-7.244 5.379-17.555.598C15.248 96 12.445 97.69 9.392 100.878c-3.777 3.944-1.628 10.48-1.628 10.48h86.638l-10.343-7.77z" clip-rule="evenodd"/>
  </g>
  <path stroke="#0E0916" stroke-linecap="round" stroke-linejoin="round" stroke-width=".75" d="M4.212 68.393c0 21.692 17.558 39.278 39.217 39.278 21.658 0 39.215-17.586 39.215-39.278 0-21.693-17.557-39.278-39.215-39.278-21.659 0-39.217 17.585-39.217 39.278z" clip-rule="evenodd"/>
  <path fill="#E6E2FF" fill-rule="evenodd" d="M159.697 50.372c-13.42 0-24.301 10.897-24.301 24.34 0 7.56 3.443 14.317 8.844 18.78l-4.591 11.034 12.611-6.647a24.247 24.247 0 007.437 1.171c13.422 0 24.302-10.896 24.302-24.338 0-13.443-10.88-24.34-24.302-24.34z" clip-rule="evenodd"/>
  <path stroke="#0E0916" stroke-linecap="round" stroke-linejoin="round" stroke-width=".75" d="M159.697 50.372c-13.42 0-24.301 10.897-24.301 24.34 0 7.56 3.443 14.317 8.844 18.78l-4.591 11.034 12.611-6.647a24.247 24.247 0 007.437 1.171c13.422 0 24.302-10.896 24.302-24.338 0-13.443-10.88-24.34-24.302-24.34z" clip-rule="evenodd"/>
  <path fill="#FBFBFC" fill-rule="evenodd" d="M159.798 64.234l.222 2.015c.455 4.145 4.328 7.03 8.423 6.274l2.19-.405-2.173 1.099c-3.737 1.889-5.069 6.572-2.885 10.15l.919 1.508-1.74-1.669a7.159 7.159 0 00-9.911 0l-1.741 1.669.92-1.509c2.184-3.577.852-8.26-2.886-10.15l-2.172-1.098 2.19.405c4.094.756 7.968-2.129 8.423-6.274l.221-2.015z" clip-rule="evenodd"/>
  <path stroke="#0E0916" stroke-linecap="round" stroke-linejoin="round" stroke-width=".75" d="M159.798 64.234l.222 2.015c.455 4.145 4.328 7.03 8.423 6.274l2.19-.405-2.173 1.099c-3.737 1.889-5.069 6.572-2.885 10.15l.919 1.508-1.74-1.669a7.159 7.159 0 00-9.911 0l-1.741 1.669.92-1.509c2.184-3.577.852-8.26-2.886-10.15l-2.172-1.098 2.19.405c4.094.756 7.968-2.129 8.423-6.274l.221-2.015z" clip-rule="evenodd"/>
  <path fill="#FBFBFC" fill-rule="evenodd" d="M95.18 60.495l.139 1.262a4.49 4.49 0 005.276 3.93l1.373-.253-1.362.687a4.5 4.5 0 00-1.808 6.359l.576.945-1.09-1.045a4.484 4.484 0 00-6.209 0l-1.09 1.045.577-.945a4.501 4.501 0 00-1.808-6.359l-1.361-.687 1.371.253a4.489 4.489 0 005.276-3.93l.14-1.262z" clip-rule="evenodd"/>
  <path stroke="#0E0916" stroke-linecap="round" stroke-linejoin="round" stroke-width=".75" d="M95.18 60.495l.139 1.262a4.49 4.49 0 005.276 3.93l1.373-.253-1.362.687a4.5 4.5 0 00-1.808 6.359l.576.945-1.09-1.045a4.484 4.484 0 00-6.209 0l-1.09 1.045.577-.945a4.501 4.501 0 00-1.808-6.359l-1.361-.687 1.371.253a4.489 4.489 0 005.276-3.93l.14-1.262z" clip-rule="evenodd"/>
  <path fill="#FBFBFC" fill-rule="evenodd" d="M78.037 77.529l.119 1.082a3.848 3.848 0 004.522 3.367l1.175-.217-1.166.59a3.855 3.855 0 00-1.55 5.448l.495.81-.935-.896a3.842 3.842 0 00-5.32 0l-.935.896.495-.81a3.856 3.856 0 00-1.55-5.449l-1.166-.59 1.176.218a3.848 3.848 0 004.522-3.367l.118-1.082z" clip-rule="evenodd"/>
  <path stroke="#0E0916" stroke-linecap="round" stroke-linejoin="round" stroke-width=".75" d="M78.037 77.529l.119 1.082a3.848 3.848 0 004.522 3.367l1.175-.217-1.166.59a3.855 3.855 0 00-1.55 5.448l.495.81-.935-.896a3.842 3.842 0 00-5.32 0l-.935.896.495-.81a3.856 3.856 0 00-1.55-5.449l-1.166-.59 1.176.218a3.848 3.848 0 004.522-3.367l.118-1.082z" clip-rule="evenodd"/>
  <path fill="#FFA578" fill-rule="evenodd" d="M81.831 1C71.226 1 62.63 9.61 62.63 20.233c0 5.975 2.72 11.313 6.988 14.84l-3.627 8.72 9.965-5.253c1.853.596 3.826.926 5.876.926 10.605 0 19.202-8.611 19.202-19.233S92.436 1 81.831 1z" clip-rule="evenodd"/>
  <path stroke="#0E0916" stroke-linecap="round" stroke-linejoin="round" stroke-width=".75" d="M81.831 1C71.226 1 62.63 9.61 62.63 20.233c0 5.975 2.72 11.313 6.988 14.84l-3.627 8.72 9.965-5.253c1.853.596 3.826.926 5.876.926 10.605 0 19.202-8.611 19.202-19.233S92.436 1 81.831 1z" clip-rule="evenodd"/>
  <path fill="#FBFBFC" fill-rule="evenodd" d="M86.43 18.338l.135 1.23a4.373 4.373 0 005.137 3.827l1.337-.247-1.325.67a4.383 4.383 0 00-1.761 6.192l.561.92-1.062-1.018a4.369 4.369 0 00-6.046 0l-1.062 1.018.56-.92a4.383 4.383 0 00-1.76-6.192l-1.325-.67 1.336.247c2.498.46 4.86-1.3 5.139-3.827l.135-1.23z" clip-rule="evenodd"/>
  <path stroke="#0E0916" stroke-linecap="round" stroke-linejoin="round" stroke-width=".75" d="M86.43 18.338l.135 1.23a4.373 4.373 0 005.137 3.827l1.337-.247-1.325.67a4.383 4.383 0 00-1.761 6.192l.561.92-1.062-1.018a4.369 4.369 0 00-6.046 0l-1.062 1.018.56-.92a4.383 4.383 0 00-1.76-6.192l-1.325-.67 1.336.247c2.498.46 4.86-1.3 5.139-3.827l.135-1.23z" clip-rule="evenodd"/>
  <path fill="#FBFBFC" fill-rule="evenodd" d="M75.8 10.28l.101.911a3.241 3.241 0 003.81 2.838l.99-.182-.982.495a3.25 3.25 0 00-1.306 4.593l.417.682-.788-.754a3.237 3.237 0 00-4.483 0l-.788.754.417-.682a3.252 3.252 0 00-1.306-4.592l-.983-.496.99.182a3.242 3.242 0 003.811-2.838l.1-.911z" clip-rule="evenodd"/>
  <path stroke="#0E0916" stroke-linecap="round" stroke-linejoin="round" stroke-width=".75" d="M75.8 10.28l.101.911a3.241 3.241 0 003.81 2.838l.99-.182-.982.495a3.25 3.25 0 00-1.306 4.593l.417.682-.788-.754a3.237 3.237 0 00-4.483 0l-.788.754.417-.682a3.252 3.252 0 00-1.306-4.592l-.983-.496.99.182a3.242 3.242 0 003.811-2.838l.1-.911z" clip-rule="evenodd"/>
</svg>
