<svg viewBox="0 0 137 137" fill="none" xmlns="http://www.w3.org/2000/svg">
<path fill-rule="evenodd" clip-rule="evenodd" d="M136 69C136 106.555 105.555 137 67.9996 137C30.4445 137 0 106.555 0 69C0 31.4443 30.4445 1 67.9996 1C105.555 1 136 31.4443 136 69Z" fill="#DCEAFF"/>
<path fill-rule="evenodd" clip-rule="evenodd" d="M112.026 85.4288C112.026 105.071 96.1283 120.994 76.5167 120.994C56.9059 120.994 41.0078 105.071 41.0078 85.4288C41.0078 65.7872 56.9059 49.8643 76.5167 49.8643C96.1283 49.8643 112.026 65.7872 112.026 85.4288Z" fill="#FFA578"/>
<mask id="mask0" mask-type="alpha" maskUnits="userSpaceOnUse" x="41" y="49" width="72" height="72">
<path d="M41.0088 85.4286C41.0088 105.071 56.9061 120.994 76.5177 120.994C96.1293 120.994 112.027 105.071 112.027 85.4286C112.027 65.787 96.1293 49.864 76.5177 49.864C56.9061 49.864 41.0088 65.787 41.0088 85.4286Z" fill="white"/>
</mask>
<g mask="url(#mask0)">
<path fill-rule="evenodd" clip-rule="evenodd" d="M68.5908 110.561V98.0847L68.623 98.0045C65.7452 97.5867 63.7568 95.5464 62.4667 93.0798C58.4469 85.3938 62.9339 71.241 62.9754 70.9386L68.8505 68.1838L81.3484 70.2112L92.5262 82.7287L88.8299 112.524L68.5908 110.561Z" fill="#FBFBFC"/>
</g>
<mask id="mask1" mask-type="alpha" maskUnits="userSpaceOnUse" x="41" y="49" width="72" height="72">
<path d="M41.0088 85.4286C41.0088 105.071 56.9061 120.994 76.5177 120.994C96.1293 120.994 112.027 105.071 112.027 85.4286C112.027 65.787 96.1293 49.864 76.5177 49.864C56.9061 49.864 41.0088 65.787 41.0088 85.4286Z" fill="white"/>
</mask>
<g mask="url(#mask1)">
<path d="M70.9277 93.7812C73.5346 94.6627 74.4525 92.0986 74.4525 92.0986" stroke="#340096" stroke-width="0.75" stroke-linecap="round" stroke-linejoin="round"/>
</g>
<mask id="mask2" mask-type="alpha" maskUnits="userSpaceOnUse" x="41" y="49" width="72" height="72">
<path d="M41.0088 85.4286C41.0088 105.071 56.9061 120.994 76.5177 120.994C96.1293 120.994 112.027 105.071 112.027 85.4286C112.027 65.787 96.1293 49.864 76.5177 49.864C56.9061 49.864 41.0088 65.787 41.0088 85.4286Z" fill="white"/>
</mask>
<g mask="url(#mask2)">
<path d="M68.5908 98.0847V106.095" stroke="#340096" stroke-width="0.75" stroke-linecap="round" stroke-linejoin="round"/>
</g>
<mask id="mask3" mask-type="alpha" maskUnits="userSpaceOnUse" x="41" y="49" width="72" height="72">
<path d="M41.0088 85.4286C41.0088 105.071 56.9061 120.994 76.5177 120.994C96.1293 120.994 112.027 105.071 112.027 85.4286C112.027 65.787 96.1293 49.864 76.5177 49.864C56.9061 49.864 41.0088 65.787 41.0088 85.4286Z" fill="white"/>
</mask>
<g mask="url(#mask3)">
<path fill-rule="evenodd" clip-rule="evenodd" d="M91.9146 76.0318C93.3077 71.7463 88.5158 66.6546 84.5869 66.2956C83.9974 66.2418 83.3512 63.4126 80.1708 62.4315C77.5577 61.626 70.2437 62.0588 69.3464 64.4295C69.5103 63.3732 60.4762 64.8265 59.8 69.7677C59.3206 73.2706 60.8125 74.4832 62.011 75.2285C66.0787 77.7596 62.5941 75.0844 69.2141 71.2461C64.6383 82.417 81.9274 84.2789 84.4689 83.5637C86.9188 82.8735 88.5724 83.3702 89.1899 85.6548C90.0678 88.8983 85.4284 90.4298 85.4284 90.4298L85.0549 103.377C87.3123 104.395 93.9867 112.961 97.175 112.666C101.49 112.267 93.611 103.432 94.1162 98.0856C94.9727 89.0194 95.8363 77.9409 91.9146 76.0318Z" fill="#340096"/>
</g>
<mask id="mask4" mask-type="alpha" maskUnits="userSpaceOnUse" x="41" y="49" width="72" height="72">
<path d="M41.0088 85.4286C41.0088 105.071 56.9061 120.994 76.5177 120.994C96.1293 120.994 112.027 105.071 112.027 85.4286C112.027 65.787 96.1293 49.864 76.5177 49.864C56.9061 49.864 41.0088 65.787 41.0088 85.4286Z" fill="white"/>
</mask>
<g mask="url(#mask4)">
<path d="M62.9756 70.9386C62.9333 71.241 58.4471 85.3938 62.4668 93.0798C64.4645 96.8994 68.1366 99.6965 74.1941 97.032" stroke="#340096" stroke-width="0.75" stroke-linecap="round" stroke-linejoin="round"/>
</g>
<mask id="mask5" mask-type="alpha" maskUnits="userSpaceOnUse" x="41" y="49" width="72" height="72">
<path d="M41.0088 85.4286C41.0088 105.071 56.9061 120.994 76.5177 120.994C96.1293 120.994 112.027 105.071 112.027 85.4286C112.027 65.787 96.1293 49.864 76.5177 49.864C56.9061 49.864 41.0088 65.787 41.0088 85.4286Z" fill="white"/>
</mask>
<g mask="url(#mask5)">
<path fill-rule="evenodd" clip-rule="evenodd" d="M37.1684 113.548C37.1684 113.548 52.5349 98.9188 68.4916 102.978C69.167 104.585 75.4342 108.132 85.3155 103.552C103.107 106.276 104.979 106.985 108.719 110.951C112.308 114.758 110.278 120.994 110.278 120.994H27.2578L37.1684 113.548Z" fill="#2250FF"/>
</g>
<mask id="mask6" mask-type="alpha" maskUnits="userSpaceOnUse" x="41" y="49" width="72" height="72">
<path d="M41.0088 85.4286C41.0088 105.071 56.9061 120.994 76.5177 120.994C96.1293 120.994 112.027 105.071 112.027 85.4286C112.027 65.787 96.1293 49.864 76.5177 49.864C56.9061 49.864 41.0088 65.787 41.0088 85.4286Z" fill="white"/>
</mask>
<g mask="url(#mask6)">
<path fill-rule="evenodd" clip-rule="evenodd" d="M37.1684 113.548C37.1684 113.548 52.5349 98.9188 68.4916 102.978C69.167 104.585 75.4342 108.132 85.3155 103.552C103.107 106.276 104.979 106.985 108.719 110.951C112.308 114.758 110.278 120.994 110.278 120.994H27.2578L37.1684 113.548Z" stroke="#340096" stroke-width="0.75" stroke-linecap="round" stroke-linejoin="round"/>
</g>
<mask id="mask7" mask-type="alpha" maskUnits="userSpaceOnUse" x="41" y="49" width="72" height="72">
<path d="M41.0088 85.4286C41.0088 105.071 56.9061 120.994 76.5177 120.994C96.1293 120.994 112.027 105.071 112.027 85.4286C112.027 65.787 96.1293 49.864 76.5177 49.864C56.9061 49.864 41.0088 65.787 41.0088 85.4286Z" fill="white"/>
</mask>
<g mask="url(#mask7)">
<path d="M85.8154 88.1462C85.8154 88.1462 87.4666 87.9026 87.5796 86.4342C87.689 84.9987 85.8705 84.9163 85.8705 84.9163" stroke="#340096" stroke-width="0.75" stroke-linecap="round" stroke-linejoin="round"/>
</g>
<mask id="mask8" mask-type="alpha" maskUnits="userSpaceOnUse" x="41" y="49" width="72" height="72">
<path d="M41.0088 85.4286C41.0088 105.071 56.9061 120.994 76.5177 120.994C96.1293 120.994 112.027 105.071 112.027 85.4286C112.027 65.787 96.1293 49.864 76.5177 49.864C56.9061 49.864 41.0088 65.787 41.0088 85.4286Z" fill="white"/>
</mask>
<g mask="url(#mask8)">
<path fill-rule="evenodd" clip-rule="evenodd" d="M67.5034 83.4229C67.5034 85.6581 65.6946 87.4698 63.4629 87.4698C61.2304 87.4698 59.4209 85.6581 59.4209 83.4229C59.4209 81.1877 61.2304 79.3754 63.4629 79.3754C65.6946 79.3754 67.5034 81.1877 67.5034 83.4229Z" fill="white"/>
</g>
<mask id="mask9" mask-type="alpha" maskUnits="userSpaceOnUse" x="41" y="49" width="72" height="72">
<path d="M41.0088 85.4286C41.0088 105.071 56.9061 120.994 76.5177 120.994C96.1293 120.994 112.027 105.071 112.027 85.4286C112.027 65.787 96.1293 49.864 76.5177 49.864C56.9061 49.864 41.0088 65.787 41.0088 85.4286Z" fill="white"/>
</mask>
<g mask="url(#mask9)">
<path fill-rule="evenodd" clip-rule="evenodd" d="M67.5034 83.4229C67.5034 85.6581 65.6946 87.4698 63.4629 87.4698C61.2304 87.4698 59.4209 85.6581 59.4209 83.4229C59.4209 81.1877 61.2304 79.3754 63.4629 79.3754C65.6946 79.3754 67.5034 81.1877 67.5034 83.4229Z" stroke="#340096" stroke-width="0.75" stroke-linecap="round" stroke-linejoin="round"/>
</g>
<mask id="mask10" mask-type="alpha" maskUnits="userSpaceOnUse" x="41" y="49" width="72" height="72">
<path d="M41.0088 85.4286C41.0088 105.071 56.9061 120.994 76.5177 120.994C96.1293 120.994 112.027 105.071 112.027 85.4286C112.027 65.787 96.1293 49.864 76.5177 49.864C56.9061 49.864 41.0088 65.787 41.0088 85.4286Z" fill="white"/>
</mask>
<g mask="url(#mask10)">
<path d="M64.1306 83.6552C64.1306 83.6552 63.1784 83.2188 62.1719 83.6359" stroke="#340096" stroke-width="0.75" stroke-linecap="round" stroke-linejoin="round"/>
</g>
<mask id="mask11" mask-type="alpha" maskUnits="userSpaceOnUse" x="41" y="49" width="72" height="72">
<path d="M41.0088 85.4286C41.0088 105.071 56.9061 120.994 76.5177 120.994C96.1293 120.994 112.027 105.071 112.027 85.4286C112.027 65.787 96.1293 49.864 76.5177 49.864C56.9061 49.864 41.0088 65.787 41.0088 85.4286Z" fill="white"/>
</mask>
<g mask="url(#mask11)">
<path fill-rule="evenodd" clip-rule="evenodd" d="M78.0288 83.4229C78.0288 85.6581 76.2192 87.4698 73.9875 87.4698C71.7551 87.4698 69.9463 85.6581 69.9463 83.4229C69.9463 81.1877 71.7551 79.3754 73.9875 79.3754C76.2192 79.3754 78.0288 81.1877 78.0288 83.4229Z" fill="white"/>
</g>
<mask id="mask12" mask-type="alpha" maskUnits="userSpaceOnUse" x="41" y="49" width="72" height="72">
<path d="M41.0088 85.4286C41.0088 105.071 56.9061 120.994 76.5177 120.994C96.1293 120.994 112.027 105.071 112.027 85.4286C112.027 65.787 96.1293 49.864 76.5177 49.864C56.9061 49.864 41.0088 65.787 41.0088 85.4286Z" fill="white"/>
</mask>
<g mask="url(#mask12)">
<path fill-rule="evenodd" clip-rule="evenodd" d="M78.0288 83.4229C78.0288 85.6581 76.2192 87.4698 73.9875 87.4698C71.7551 87.4698 69.9463 85.6581 69.9463 83.4229C69.9463 81.1877 71.7551 79.3754 73.9875 79.3754C76.2192 79.3754 78.0288 81.1877 78.0288 83.4229Z" stroke="#340096" stroke-width="0.75" stroke-linecap="round" stroke-linejoin="round"/>
</g>
<mask id="mask13" mask-type="alpha" maskUnits="userSpaceOnUse" x="41" y="49" width="72" height="72">
<path d="M41.0088 85.4286C41.0088 105.071 56.9061 120.994 76.5177 120.994C96.1293 120.994 112.027 105.071 112.027 85.4286C112.027 65.787 96.1293 49.864 76.5177 49.864C56.9061 49.864 41.0088 65.787 41.0088 85.4286Z" fill="white"/>
</mask>
<g mask="url(#mask13)">
<path d="M74.6533 83.6552C74.6533 83.6552 73.7019 83.2188 72.6953 83.6359" stroke="#340096" stroke-width="0.75" stroke-linecap="round" stroke-linejoin="round"/>
</g>
<mask id="mask14" mask-type="alpha" maskUnits="userSpaceOnUse" x="41" y="49" width="72" height="72">
<path d="M41.0088 85.4286C41.0088 105.071 56.9061 120.994 76.5177 120.994C96.1293 120.994 112.027 105.071 112.027 85.4286C112.027 65.787 96.1293 49.864 76.5177 49.864C56.9061 49.864 41.0088 65.787 41.0088 85.4286Z" fill="white"/>
</mask>
<g mask="url(#mask14)">
<path d="M68.3893 85.2986C68.3893 85.2986 67.3305 89.0853 68.6454 89.8019C68.6454 89.8019 69.3129 90.1574 70.1849 89.8908" stroke="#340096" stroke-width="0.75" stroke-linecap="round" stroke-linejoin="round"/>
</g>
<mask id="mask15" mask-type="alpha" maskUnits="userSpaceOnUse" x="41" y="49" width="72" height="72">
<path d="M41.0088 85.4286C41.0088 105.071 56.9061 120.994 76.5177 120.994C96.1293 120.994 112.027 105.071 112.027 85.4286C112.027 65.787 96.1293 49.864 76.5177 49.864C56.9061 49.864 41.0088 65.787 41.0088 85.4286Z" fill="white"/>
</mask>
<g mask="url(#mask15)">
<path d="M69.9455 83.4229H67.5039" stroke="#340096" stroke-width="0.75" stroke-linecap="round" stroke-linejoin="round"/>
</g>
<path fill-rule="evenodd" clip-rule="evenodd" d="M112.027 85.4287C112.027 105.071 96.1293 120.994 76.5177 120.994C56.9069 120.994 41.0088 105.071 41.0088 85.4287C41.0088 65.7871 56.9069 49.8642 76.5177 49.8642C96.1293 49.8642 112.027 65.7871 112.027 85.4287Z" stroke="#0E0916" stroke-width="0.75" stroke-linecap="round" stroke-linejoin="round"/>
<path fill-rule="evenodd" clip-rule="evenodd" d="M3.1123 50.8126C3.1123 66.8459 16.0903 79.8435 32.0986 79.8435C48.1068 79.8435 61.0842 66.8459 61.0842 50.8126C61.0842 34.7786 48.1068 21.7809 32.0986 21.7809C16.0903 21.7809 3.1123 34.7786 3.1123 50.8126Z" fill="#BC99FF"/>
<mask id="mask16" mask-type="alpha" maskUnits="userSpaceOnUse" x="3" y="21" width="59" height="59">
<path d="M3.1123 50.8123C3.1123 66.8456 16.0903 79.8432 32.0986 79.8432C48.1068 79.8432 61.0842 66.8456 61.0842 50.8123C61.0842 34.7782 48.1068 21.7813 32.0986 21.7813C16.0903 21.7813 3.1123 34.7782 3.1123 50.8123Z" fill="white"/>
</mask>
<g mask="url(#mask16)">
<path fill-rule="evenodd" clip-rule="evenodd" d="M19.4636 46.3518C18.5449 46.1504 18.0862 44.9987 18.18 44.0198C18.3488 42.2461 19.9931 40.805 21.6753 40.8408C21.4127 40.7412 21.1858 40.5076 21.0871 40.2281C20.9361 39.806 21.0234 39.3259 21.2116 38.921C21.8963 37.4461 24.0064 36.9868 25.1956 38.0517C24.9266 36.331 25.7537 34.5402 27.0667 33.4681C28.3796 32.3967 30.0117 32.1394 31.6739 32.2211C33.3367 32.3028 35.0447 32.6905 36.5823 33.3577C38.5414 34.2098 40.4432 35.2991 41.9358 36.8778C43.4284 38.4566 44.4838 40.575 44.5031 42.798C44.5138 43.9976 44.1446 45.3133 43.1694 45.9404C43.0227 46.035 42.8667 46.1059 42.7057 46.1647C44.0387 49.5673 46.8421 57.7642 44.0587 62.0074C42.6399 64.1702 40.5248 65.2143 37.9375 65.0846L37.9146 65.2V70.7439L25.4839 73.0027L25.0654 58.058C25.0654 58.058 21.1601 57.623 22.0874 54.5049C22.0073 54.6655 21.8563 54.7744 21.6831 54.7966C21.5243 54.8174 21.3633 54.7644 21.2474 54.6497C21.1229 54.5264 21.022 54.3731 20.9268 54.2226C20.0024 52.752 19.3133 51.1181 18.8976 49.4118C18.6357 48.3354 18.5821 46.9673 19.4636 46.3518Z" fill="#FFEBDE"/>
</g>
<mask id="mask17" mask-type="alpha" maskUnits="userSpaceOnUse" x="3" y="21" width="59" height="59">
<path d="M3.1123 50.8123C3.1123 66.8456 16.0903 79.8432 32.0986 79.8432C48.1068 79.8432 61.0842 66.8456 61.0842 50.8123C61.0842 34.7782 48.1068 21.7813 32.0986 21.7813C16.0903 21.7813 3.1123 34.7782 3.1123 50.8123Z" fill="white"/>
</mask>
<g mask="url(#mask17)">
<path fill-rule="evenodd" clip-rule="evenodd" d="M19.4636 46.3518C18.5449 46.1504 18.0862 44.9987 18.18 44.0198C18.3488 42.2461 19.9931 40.805 21.6753 40.8408C21.4127 40.7412 21.1858 40.5076 21.0871 40.2281C20.9361 39.806 21.0234 39.3259 21.2116 38.921C21.8963 37.4461 24.0064 36.9868 25.1956 38.0517C24.9266 36.331 25.7537 34.5402 27.0667 33.4681C28.3796 32.3967 30.0117 32.1394 31.6739 32.2211C33.3367 32.3028 35.0447 32.6905 36.5823 33.3577C38.5414 34.2098 40.4432 35.2991 41.9358 36.8778C43.4284 38.4566 44.4838 40.5749 44.5031 42.798C44.5138 43.9976 44.1446 45.3133 43.1694 45.9404C43.0227 46.035 42.8667 46.1059 42.7057 46.1647C44.0387 49.5673 46.8421 57.7642 44.0587 62.0074C42.6399 64.1702 40.5248 65.2143 37.9375 65.0846L37.9146 65.2V70.7439L25.4839 73.0027L25.0654 58.058C25.0654 58.058 21.1601 57.623 22.0874 54.5049C22.0073 54.6655 21.8563 54.7744 21.6831 54.7966C21.5243 54.8174 21.3633 54.7644 21.2474 54.6497C21.1229 54.5264 21.022 54.3731 20.9268 54.2226C20.0024 52.752 19.3133 51.1181 18.8976 49.4118C18.6357 48.3354 18.5821 46.9673 19.4636 46.3518Z" stroke="#340096" stroke-width="0.75" stroke-linecap="round" stroke-linejoin="round"/>
</g>
<mask id="mask18" mask-type="alpha" maskUnits="userSpaceOnUse" x="3" y="21" width="59" height="59">
<path d="M3.1123 50.8123C3.1123 66.8456 16.0903 79.8432 32.0986 79.8432C48.1068 79.8432 61.0842 66.8456 61.0842 50.8123C61.0842 34.7782 48.1068 21.7813 32.0986 21.7813C16.0903 21.7813 3.1123 34.7782 3.1123 50.8123Z" fill="white"/>
</mask>
<g mask="url(#mask18)">
<path d="M33.2803 59.405C33.2803 59.405 34.2832 62.2207 37.099 61.2217" stroke="#340096" stroke-width="0.75" stroke-linecap="round" stroke-linejoin="round"/>
</g>
<mask id="mask19" mask-type="alpha" maskUnits="userSpaceOnUse" x="3" y="21" width="59" height="59">
<path d="M3.1123 50.8123C3.1123 66.8456 16.0903 79.8432 32.0986 79.8432C48.1068 79.8432 61.0842 66.8456 61.0842 50.8123C61.0842 34.7782 48.1068 21.7813 32.0986 21.7813C16.0903 21.7813 3.1123 34.7782 3.1123 50.8123Z" fill="white"/>
</mask>
<g mask="url(#mask19)">
<path d="M36.8018 57.2215C36.8018 57.2215 39.4792 58.1574 39.2417 55.5589C39.1079 54.0927 38.7458 51.8001 38.4567 50.0795C38.197 48.538 39.8635 48.4484 41.2237 49.2167" stroke="#340096" stroke-width="0.75" stroke-linecap="round" stroke-linejoin="round"/>
</g>
<mask id="mask20" mask-type="alpha" maskUnits="userSpaceOnUse" x="3" y="21" width="59" height="59">
<path d="M3.1123 50.8123C3.1123 66.8456 16.0903 79.8432 32.0986 79.8432C48.1068 79.8432 61.0842 66.8456 61.0842 50.8123C61.0842 34.7782 48.1068 21.7813 32.0986 21.7813C16.0903 21.7813 3.1123 34.7782 3.1123 50.8123Z" fill="white"/>
</mask>
<g mask="url(#mask20)">
<path d="M31.5088 52.4179C31.5088 52.4179 33.1771 51.9306 34.1257 52.357" stroke="#340096" stroke-width="0.75" stroke-linecap="round" stroke-linejoin="round"/>
</g>
<mask id="mask21" mask-type="alpha" maskUnits="userSpaceOnUse" x="3" y="21" width="59" height="59">
<path d="M3.1123 50.8123C3.1123 66.8456 16.0903 79.8432 32.0986 79.8432C48.1068 79.8432 61.0842 66.8456 61.0842 50.8123C61.0842 34.7782 48.1068 21.7813 32.0986 21.7813C16.0903 21.7813 3.1123 34.7782 3.1123 50.8123Z" fill="white"/>
</mask>
<g mask="url(#mask21)">
<path d="M40.792 52.3143C40.792 52.3143 42.2042 51.7324 43.4096 52.2534" stroke="#340096" stroke-width="0.75" stroke-linecap="round" stroke-linejoin="round"/>
</g>
<mask id="mask22" mask-type="alpha" maskUnits="userSpaceOnUse" x="3" y="21" width="59" height="59">
<path d="M3.1123 50.8123C3.1123 66.8456 16.0903 79.8432 32.0986 79.8432C48.1068 79.8432 61.0842 66.8456 61.0842 50.8123C61.0842 34.7782 48.1068 21.7813 32.0986 21.7813C16.0903 21.7813 3.1123 34.7782 3.1123 50.8123Z" fill="white"/>
</mask>
<g mask="url(#mask22)">
<path d="M37.9141 65.1999V70.7438" stroke="#340096" stroke-width="0.75" stroke-linecap="round" stroke-linejoin="round"/>
</g>
<mask id="mask23" mask-type="alpha" maskUnits="userSpaceOnUse" x="3" y="21" width="59" height="59">
<path d="M3.1123 50.8123C3.1123 66.8456 16.0903 79.8432 32.0986 79.8432C48.1068 79.8432 61.0842 66.8456 61.0842 50.8123C61.0842 34.7782 48.1068 21.7813 32.0986 21.7813C16.0903 21.7813 3.1123 34.7782 3.1123 50.8123Z" fill="white"/>
</mask>
<g mask="url(#mask23)">
<path d="M25.483 73.0029L25.0645 58.0582C25.0645 58.0582 20.9088 57.5952 22.1894 54.202" stroke="#340096" stroke-width="0.75" stroke-linecap="round" stroke-linejoin="round"/>
</g>
<mask id="mask24" mask-type="alpha" maskUnits="userSpaceOnUse" x="3" y="21" width="59" height="59">
<path d="M3.1123 50.8123C3.1123 66.8456 16.0903 79.8432 32.0986 79.8432C48.1068 79.8432 61.0842 66.8456 61.0842 50.8123C61.0842 34.7782 48.1068 21.7813 32.0986 21.7813C16.0903 21.7813 3.1123 34.7782 3.1123 50.8123Z" fill="white"/>
</mask>
<g mask="url(#mask24)">
<path d="M25.0096 54.5224C24.9438 54.1741 24.5876 53.9226 24.2334 53.9254C23.8786 53.929 23.5488 54.1533 23.365 54.4572C23.1811 54.7603 23.131 55.1301 23.1654 55.4827C23.1811 55.654 23.2176 55.826 23.3027 55.975" stroke="#340096" stroke-width="0.75" stroke-linecap="round" stroke-linejoin="round"/>
</g>
<mask id="mask25" mask-type="alpha" maskUnits="userSpaceOnUse" x="3" y="21" width="59" height="59">
<path d="M3.1123 50.8123C3.1123 66.8456 16.0903 79.8432 32.0986 79.8432C48.1068 79.8432 61.0842 66.8456 61.0842 50.8123C61.0842 34.7782 48.1068 21.7813 32.0986 21.7813C16.0903 21.7813 3.1123 34.7782 3.1123 50.8123Z" fill="white"/>
</mask>
<g mask="url(#mask25)">
<path d="M42.0856 44.6267C42.1171 44.851 47.5915 56.6196 44.0583 62.0073C41.9325 65.2472 38.2526 65.9911 33.752 64.0117" stroke="#340096" stroke-width="0.75" stroke-linecap="round" stroke-linejoin="round"/>
</g>
<mask id="mask26" mask-type="alpha" maskUnits="userSpaceOnUse" x="3" y="21" width="59" height="59">
<path d="M3.1123 50.8123C3.1123 66.8456 16.0903 79.8432 32.0986 79.8432C48.1068 79.8432 61.0842 66.8456 61.0842 50.8123C61.0842 34.7782 48.1068 21.7813 32.0986 21.7813C16.0903 21.7813 3.1123 34.7782 3.1123 50.8123Z" fill="white"/>
</mask>
<g mask="url(#mask26)">
<path fill-rule="evenodd" clip-rule="evenodd" d="M21.683 54.7966C21.8712 54.7722 22.0364 54.6483 22.1101 54.4655C22.4092 53.7224 22.9666 53.0853 23.685 52.8051C24.495 52.4883 25.4974 52.6918 26.0541 53.3848C26.4941 53.9316 26.7145 54.7816 27.435 54.8754C27.7348 54.9156 28.0325 54.7937 28.2543 54.5787C28.7101 54.1366 28.8145 53.4981 28.8653 52.8846C29.007 51.1539 28.7974 49.4147 28.5555 47.6969C28.4596 47.0132 28.3659 46.2779 28.665 45.6631C29.1601 44.6476 30.4473 44.4469 31.5364 44.4555C33.6071 44.4727 35.6756 44.7888 37.6647 45.3936C38.7101 45.7118 39.739 46.1102 40.8159 46.2772C41.6158 46.4019 42.4802 46.3833 43.1692 45.9404C44.1452 45.3134 44.5137 43.9976 44.5039 42.798C44.4836 40.5749 43.429 38.4566 41.9364 36.8778C40.4438 35.2991 38.542 34.2091 36.5822 33.3577C35.0452 32.6898 33.3366 32.3028 31.6744 32.2211C30.0123 32.1394 28.3795 32.3967 27.0665 33.4681C25.7535 34.5394 24.9264 36.3303 25.1954 38.0517C24.0063 36.986 21.8969 37.4461 21.2122 38.921C21.0233 39.3251 20.9367 39.806 21.0869 40.2281C21.2372 40.6495 21.673 40.9741 22.0922 40.8774C20.2756 40.5642 18.363 42.1 18.1798 44.0198C18.0868 44.9987 18.5447 46.1504 19.4634 46.3518C18.5819 46.9673 18.6356 48.3347 18.8975 49.4111C19.3132 51.1181 20.0022 52.7513 20.9267 54.2226C21.0218 54.3731 21.1234 54.5264 21.2479 54.6497C21.3639 54.7644 21.5241 54.8174 21.683 54.7966Z" fill="#340096"/>
</g>
<mask id="mask27" mask-type="alpha" maskUnits="userSpaceOnUse" x="3" y="21" width="59" height="59">
<path d="M3.1123 50.8123C3.1123 66.8456 16.0903 79.8432 32.0986 79.8432C48.1068 79.8432 61.0842 66.8456 61.0842 50.8123C61.0842 34.7782 48.1068 21.7813 32.0986 21.7813C16.0903 21.7813 3.1123 34.7782 3.1123 50.8123Z" fill="white"/>
</mask>
<g mask="url(#mask27)">
<path fill-rule="evenodd" clip-rule="evenodd" d="M21.683 54.7966C21.8712 54.7722 22.0364 54.6483 22.1101 54.4655C22.4092 53.7224 22.9666 53.0853 23.685 52.8051C24.495 52.4883 25.4974 52.6918 26.0541 53.3848C26.4941 53.9316 26.7145 54.7816 27.435 54.8754C27.7348 54.9156 28.0325 54.7937 28.2543 54.5787C28.7101 54.1366 28.8145 53.4981 28.8653 52.8846C29.007 51.1539 28.7974 49.4147 28.5555 47.6969C28.4596 47.0132 28.3659 46.2779 28.665 45.6631C29.1601 44.6476 30.4473 44.4469 31.5364 44.4555C33.6071 44.4727 35.6756 44.7888 37.6647 45.3936C38.7101 45.7118 39.739 46.1102 40.8159 46.2772C41.6158 46.4019 42.4802 46.3833 43.1692 45.9404C44.1452 45.3134 44.5137 43.9976 44.5039 42.798C44.4836 40.5749 43.429 38.4566 41.9364 36.8778C40.4438 35.2991 38.542 34.2091 36.5822 33.3577C35.0452 32.6898 33.3366 32.3028 31.6744 32.2211C30.0123 32.1394 28.3795 32.3967 27.0665 33.4681C25.7535 34.5394 24.9264 36.3303 25.1954 38.0517C24.0063 36.986 21.8969 37.4461 21.2122 38.921C21.0233 39.3251 20.9367 39.806 21.0869 40.2281C21.2372 40.6495 21.673 40.9741 22.0922 40.8774C20.2756 40.5642 18.363 42.1 18.1798 44.0198C18.0868 44.9987 18.5447 46.1504 19.4634 46.3518C18.5819 46.9673 18.6356 48.3347 18.8975 49.4111C19.3132 51.1181 20.0022 52.7513 20.9267 54.2226C21.0218 54.3731 21.1234 54.5264 21.2479 54.6497C21.3639 54.7644 21.5241 54.8174 21.683 54.7966Z" stroke="#340096" stroke-width="0.75" stroke-linecap="round" stroke-linejoin="round"/>
</g>
<mask id="mask28" mask-type="alpha" maskUnits="userSpaceOnUse" x="3" y="21" width="59" height="59">
<path d="M3.1123 50.8123C3.1123 66.8456 16.0903 79.8432 32.0986 79.8432C48.1068 79.8432 61.0842 66.8456 61.0842 50.8123C61.0842 34.7782 48.1068 21.7813 32.0986 21.7813C16.0903 21.7813 3.1123 34.7782 3.1123 50.8123Z" fill="white"/>
</mask>
<g mask="url(#mask28)">
<path d="M24.4668 57.9187C24.4668 57.9187 25.816 58.2777 27.3527 57.9875" stroke="#340096" stroke-width="0.75" stroke-linecap="round" stroke-linejoin="round"/>
</g>
<mask id="mask29" mask-type="alpha" maskUnits="userSpaceOnUse" x="3" y="21" width="59" height="59">
<path d="M3.1123 50.8123C3.1123 66.8456 16.0903 79.8432 32.0986 79.8432C48.1068 79.8432 61.0842 66.8456 61.0842 50.8123C61.0842 34.7782 48.1068 21.7813 32.0986 21.7813C16.0903 21.7813 3.1123 34.7782 3.1123 50.8123Z" fill="white"/>
</mask>
<g mask="url(#mask29)">
<path fill-rule="evenodd" clip-rule="evenodd" d="M62.131 76.8262C62.131 76.8262 50.2792 65.5428 37.9702 68.673C37.45 69.9128 32.6153 72.6489 24.9943 69.1152C11.2707 71.2171 9.19928 72.4669 6.94255 74.8232C4.1506 77.7378 5.73905 82.5694 5.73905 82.5694H69.7756L62.131 76.8262Z" fill="#BCD7FE"/>
</g>
<mask id="mask30" mask-type="alpha" maskUnits="userSpaceOnUse" x="3" y="21" width="59" height="59">
<path d="M3.1123 50.8123C3.1123 66.8456 16.0903 79.8432 32.0986 79.8432C48.1068 79.8432 61.0842 66.8456 61.0842 50.8123C61.0842 34.7782 48.1068 21.7813 32.0986 21.7813C16.0903 21.7813 3.1123 34.7782 3.1123 50.8123Z" fill="white"/>
</mask>
<g mask="url(#mask30)">
<path fill-rule="evenodd" clip-rule="evenodd" d="M62.131 76.8262C62.131 76.8262 50.2792 65.5428 37.9702 68.673C37.45 69.9128 32.6153 72.6489 24.9943 69.1152C11.2707 71.2171 9.19928 72.4669 6.94255 74.8232C4.1506 77.7378 5.73905 82.5694 5.73905 82.5694H69.7756L62.131 76.8262Z" stroke="#340096" stroke-width="0.75" stroke-linecap="round" stroke-linejoin="round"/>
</g>
<path fill-rule="evenodd" clip-rule="evenodd" d="M3.11328 50.8126C3.11328 66.8459 16.0913 79.8435 32.0996 79.8435C48.1078 79.8435 61.0851 66.8459 61.0851 50.8126C61.0851 34.7785 48.1078 21.7809 32.0996 21.7809C16.0913 21.7809 3.11328 34.7785 3.11328 50.8126Z" stroke="#0E0916" stroke-width="0.75" stroke-linecap="round" stroke-linejoin="round"/>
<path fill-rule="evenodd" clip-rule="evenodd" d="M118.038 37.4924C108.119 37.4924 100.076 45.5467 100.076 55.4828C100.076 61.0705 102.621 66.0647 106.612 69.3641L103.219 77.5194L112.54 72.6062C114.274 73.1637 116.119 73.4719 118.038 73.4719C127.958 73.4719 136 65.4183 136 55.4828C136 45.5467 127.958 37.4924 118.038 37.4924Z" fill="#E6E2FF"/>
<path fill-rule="evenodd" clip-rule="evenodd" d="M118.038 37.4924C108.119 37.4924 100.076 45.5467 100.076 55.4828C100.076 61.0705 102.621 66.0647 106.612 69.3641L103.219 77.5194L112.54 72.6062C114.274 73.1637 116.119 73.4719 118.038 73.4719C127.958 73.4719 136 65.4183 136 55.4828C136 45.5467 127.958 37.4924 118.038 37.4924Z" stroke="#0E0916" stroke-width="0.75" stroke-linecap="round" stroke-linejoin="round"/>
<path fill-rule="evenodd" clip-rule="evenodd" d="M118.112 47.7381L118.275 49.2273C118.612 52.2916 121.474 54.4236 124.501 53.8647L126.12 53.5658L124.514 54.3778C121.751 55.7738 120.767 59.2351 122.381 61.8795L123.061 62.9946L121.774 61.7613C119.726 59.7977 116.497 59.7977 114.449 61.7613L113.162 62.9946L113.842 61.8795C115.456 59.2351 114.472 55.7738 111.709 54.3778L110.104 53.5658L111.722 53.8647C114.749 54.4236 117.611 52.2916 117.948 49.2273L118.112 47.7381Z" fill="#FBFBFC"/>
<path fill-rule="evenodd" clip-rule="evenodd" d="M118.112 47.7381L118.275 49.2273C118.612 52.2916 121.474 54.4236 124.501 53.8647L126.12 53.5658L124.514 54.3778C121.751 55.7738 120.767 59.2351 122.381 61.8795L123.061 62.9946L121.774 61.7613C119.726 59.7977 116.497 59.7977 114.449 61.7613L113.162 62.9946L113.842 61.8795C115.456 59.2351 114.472 55.7738 111.709 54.3778L110.104 53.5658L111.722 53.8647C114.749 54.4236 117.611 52.2916 117.948 49.2273L118.112 47.7381Z" stroke="#0E0916" stroke-width="0.75" stroke-linecap="round" stroke-linejoin="round"/>
<path fill-rule="evenodd" clip-rule="evenodd" d="M70.3495 44.9744L70.4525 45.9075C70.6629 47.8259 72.456 49.1624 74.3521 48.812L75.3667 48.6249L74.36 49.133C72.6298 50.0081 72.0131 52.1766 73.0241 53.8327L73.4498 54.5315L72.6441 53.7589C71.3605 52.5285 69.3385 52.5285 68.0548 53.7589L67.2492 54.5315L67.6756 53.8327C68.6859 52.1766 68.0691 50.0081 66.339 49.133L65.333 48.6249L66.3469 48.812C68.243 49.1624 70.0368 47.8259 70.2465 45.9075L70.3495 44.9744Z" fill="#FBFBFC"/>
<path fill-rule="evenodd" clip-rule="evenodd" d="M70.3495 44.9744L70.4525 45.9075C70.6629 47.8259 72.456 49.1624 74.3521 48.812L75.3667 48.6249L74.36 49.133C72.6298 50.0081 72.0131 52.1766 73.0241 53.8327L73.4498 54.5315L72.6441 53.7589C71.3605 52.5285 69.3385 52.5285 68.0548 53.7589L67.2492 54.5315L67.6756 53.8327C68.6859 52.1766 68.0691 50.0081 66.339 49.133L65.333 48.6249L66.3469 48.812C68.243 49.1624 70.0368 47.8259 70.2465 45.9075L70.3495 44.9744Z" stroke="#0E0916" stroke-width="0.75" stroke-linecap="round" stroke-linejoin="round"/>
<path fill-rule="evenodd" clip-rule="evenodd" d="M57.6797 57.5646L57.7677 58.3644C57.9487 60.0083 59.4849 61.1535 61.1099 60.8533L61.9785 60.6927L61.117 61.1284C59.633 61.8788 59.105 63.7356 59.9715 65.1559L60.3371 65.7543L59.6459 65.0922C58.5469 64.038 56.8132 64.038 55.7142 65.0922L55.023 65.7543L55.3886 65.1559C56.2551 63.7356 55.7263 61.8788 54.2431 61.1284L53.3809 60.6927L54.2502 60.8533C55.8751 61.1535 57.4114 60.0083 57.5924 58.3644L57.6797 57.5646Z" fill="#FBFBFC"/>
<path fill-rule="evenodd" clip-rule="evenodd" d="M57.6797 57.5646L57.7677 58.3644C57.9487 60.0083 59.4849 61.1535 61.1099 60.8533L61.9785 60.6927L61.117 61.1284C59.633 61.8788 59.105 63.7356 59.9715 65.1559L60.3371 65.7543L59.6459 65.0922C58.5469 64.038 56.8132 64.038 55.7142 65.0922L55.023 65.7543L55.3886 65.1559C56.2551 63.7356 55.7263 61.8788 54.2431 61.1284L53.3809 60.6927L54.2502 60.8533C55.8751 61.1535 57.4114 60.0083 57.5924 58.3644L57.6797 57.5646Z" stroke="#0E0916" stroke-width="0.75" stroke-linecap="round" stroke-linejoin="round"/>
<path fill-rule="evenodd" clip-rule="evenodd" d="M60.484 1C52.6455 1 46.291 7.36445 46.291 15.2159C46.291 19.6318 48.3016 23.5776 51.4563 26.1848L48.7753 32.6295L56.1408 28.7467C57.5103 29.1875 58.9685 29.4311 60.484 29.4311C68.3225 29.4311 74.677 23.0667 74.677 15.2159C74.677 7.36445 68.3225 1 60.484 1Z" fill="#FFA578"/>
<path fill-rule="evenodd" clip-rule="evenodd" d="M60.484 1C52.6455 1 46.291 7.36445 46.291 15.2159C46.291 19.6318 48.3016 23.5776 51.4563 26.1848L48.7753 32.6295L56.1408 28.7467C57.5103 29.1875 58.9685 29.4311 60.484 29.4311C68.3225 29.4311 74.677 23.0667 74.677 15.2159C74.677 7.36445 68.3225 1 60.484 1Z" stroke="#0E0916" stroke-width="0.75" stroke-linecap="round" stroke-linejoin="round"/>
<path fill-rule="evenodd" clip-rule="evenodd" d="M63.8826 13.8148L63.9828 14.7242C64.1881 16.5924 65.934 17.8931 67.78 17.5527L68.7682 17.37L67.7886 17.8652C66.1036 18.7173 65.5025 20.8292 66.4871 22.4423L66.9021 23.1224L66.1172 22.37C64.8672 21.1725 62.8973 21.1725 61.6481 22.37L60.8631 23.1224L61.2774 22.4423C62.262 20.8292 61.6617 18.7173 59.9766 17.8652L58.9971 17.37L59.9845 17.5527C61.8305 17.8931 63.5771 16.5924 63.7824 14.7242L63.8826 13.8148Z" fill="#FBFBFC"/>
<path fill-rule="evenodd" clip-rule="evenodd" d="M63.8826 13.8148L63.9828 14.7242C64.1881 16.5924 65.934 17.8931 67.78 17.5527L68.7682 17.37L67.7886 17.8652C66.1036 18.7173 65.5025 20.8292 66.4871 22.4423L66.9021 23.1224L66.1172 22.37C64.8672 21.1725 62.8973 21.1725 61.6481 22.37L60.8631 23.1224L61.2774 22.4423C62.262 20.8292 61.6617 18.7173 59.9766 17.8652L58.9971 17.37L59.9845 17.5527C61.8305 17.8931 63.5771 16.5924 63.7824 14.7242L63.8826 13.8148Z" stroke="#0E0916" stroke-width="0.75" stroke-linecap="round" stroke-linejoin="round"/>
<path fill-rule="evenodd" clip-rule="evenodd" d="M56.026 7.85919L56.1004 8.53283C56.2521 9.9188 57.5472 10.8834 58.916 10.6304L59.6479 10.4957L58.9224 10.8619C57.6724 11.494 57.2273 13.0598 57.9572 14.2566L58.2648 14.7604L57.6824 14.2029C56.7565 13.3142 55.2954 13.3142 54.3688 14.2029L53.7864 14.7604L54.0948 14.2566C54.8246 13.0598 54.3789 11.494 53.1296 10.8619L52.4033 10.4957L53.1353 10.6304C54.5041 10.8834 55.7999 9.9188 55.9516 8.53283L56.026 7.85919Z" fill="#FBFBFC"/>
<path fill-rule="evenodd" clip-rule="evenodd" d="M56.026 7.85919L56.1004 8.53283C56.2521 9.9188 57.5472 10.8834 58.916 10.6304L59.6479 10.4957L58.9224 10.8619C57.6724 11.494 57.2273 13.0598 57.9572 14.2566L58.2648 14.7604L57.6824 14.2029C56.7565 13.3142 55.2954 13.3142 54.3688 14.2029L53.7864 14.7604L54.0948 14.2566C54.8246 13.0598 54.3789 11.494 53.1296 10.8619L52.4033 10.4957L53.1353 10.6304C54.5041 10.8834 55.7999 9.9188 55.9516 8.53283L56.026 7.85919Z" stroke="#0E0916" stroke-width="0.75" stroke-linecap="round" stroke-linejoin="round"/>
</svg>
