<svg width="60" height="64" viewBox="0 0 60 64" fill="none" xmlns="http://www.w3.org/2000/svg">
<g clip-path="url(#clip0_1912_123541)">
<path d="M45.3256 38.3442C48.8302 29.8832 44.8123 20.1831 36.3513 16.6784C27.8903 13.1738 18.1903 17.1917 14.6856 25.6527C11.1809 34.1137 15.1988 43.8137 23.6598 47.3184C32.1208 50.8231 41.8209 46.8052 45.3256 38.3442Z" fill="#020000"/>
<path d="M29.991 8.62891C17.116 8.62891 6.62891 19.116 6.62891 31.991C6.62891 44.866 17.116 55.3531 29.991 55.3531C42.866 55.3531 53.3531 44.866 53.3531 31.991C53.3531 19.116 42.8827 8.62891 29.991 8.62891ZM29.991 54.5181C17.5668 54.5181 7.46386 44.4152 7.46386 31.991C7.46386 19.5668 17.5835 9.46386 29.991 9.46386C42.3985 9.46386 52.5181 19.5668 52.5181 31.991C52.5181 44.4152 42.4152 54.5181 29.991 54.5181Z" fill="#020000"/>
<path d="M29.9916 2C13.4595 2 0 15.4595 0 32.0084C0 48.5572 13.4595 62.0167 29.9916 62.0167C46.5238 62.0167 60 48.5572 60 32.0084C60 15.4595 46.5405 2 29.9916 2ZM29.9916 61.1651C13.9104 61.1651 0.834957 48.0896 0.834957 32.0084C0.834957 15.9271 13.9104 2.83496 29.9916 2.83496C46.0729 2.83496 59.165 15.9104 59.165 32.0084C59.165 48.1063 46.0896 61.1817 29.9916 61.1817V61.1651Z" fill="#020000"/>
</g>
<defs>
<clipPath id="clip0_1912_123541">
<rect width="60" height="60" fill="white" transform="translate(0 2)"/>
</clipPath>
</defs>
</svg>
