<svg width="69" height="64" viewBox="0 0 69 64" fill="none" xmlns="http://www.w3.org/2000/svg">
<g clip-path="url(#clip0_1912_123528)">
<path d="M34.3773 45.6457C39.654 45.6457 44.3798 43.3183 47.6133 39.6406C43.456 40.3513 38.8722 40.7421 34.0042 40.7421C29.4737 40.7421 25.192 40.4046 21.2656 39.7828C24.4991 43.3716 29.1717 45.6457 34.3773 45.6457Z" fill="#020000"/>
<path d="M65.8426 22.3706C67.2284 20.8782 68.0101 19.2614 68.0101 17.5558C68.0101 9.95178 53.0685 4 34.0051 4C14.9416 4 0 9.95178 0 17.5558C0 19.2614 0.781726 20.8782 2.16751 22.3706C0.781726 23.8629 0 25.4797 0 27.1853C0 28.8909 0.781726 30.5076 2.16751 32C0.781726 33.4924 0 35.1091 0 36.8147C0 38.5203 0.781726 40.1371 2.16751 41.6294C0.781726 43.1218 0 44.7386 0 46.4442C0 54.0482 14.9416 60 34.0051 60C53.0685 60 68.0101 54.0482 68.0101 46.4442C68.0101 44.7386 67.2284 43.1218 65.8426 41.6294C67.2284 40.1371 68.0101 38.5203 68.0101 36.8147C68.0101 35.1091 67.2284 33.4924 65.8426 32C67.2284 30.5076 68.0101 28.8909 68.0101 27.1853C68.0101 25.4797 67.2284 23.8629 65.8426 22.3706ZM0.888325 17.5558C0.888325 10.5736 15.7411 4.88832 34.0051 4.88832C52.269 4.88832 67.1218 10.5736 67.1218 17.5558C67.1218 19.0305 66.4289 20.434 65.2208 21.731C61.5609 18.3198 54.5076 15.6904 45.6599 14.4289C42.6041 11.8706 38.6599 10.3426 34.3782 10.3426C30.0964 10.3426 26.2944 11.835 23.2563 14.3046C13.9822 15.4949 6.5736 18.2132 2.78934 21.731C1.58122 20.4162 0.888325 19.0127 0.888325 17.5558ZM20.3959 38.7157C17.5533 38.2183 14.9239 37.5787 12.5787 36.8147C14.3553 36.2284 16.2741 35.731 18.3528 35.3046C18.9036 36.5305 19.5964 37.6675 20.4137 38.7157C24.5711 39.4442 29.1726 39.8528 34.0406 39.8528C39.2462 39.8528 44.1497 39.3731 48.5381 38.5558C49.2665 37.5964 49.8883 36.5482 50.4036 35.4467C52.2157 35.8376 53.9213 36.2995 55.5025 36.8147C53.3883 37.5076 51.0609 38.0761 48.5558 38.5558C48.2716 38.9289 47.9873 39.2843 47.6853 39.6396C51.0964 39.0533 54.1878 38.2538 56.8883 37.2944C60.2284 38.5025 62.9112 39.9772 64.6878 41.6294C59.7132 46.231 47.8807 49.4822 34.0761 49.4822C20.2716 49.4822 8.42132 46.231 3.46447 41.6294C5.24112 39.9772 7.92386 38.5025 11.264 37.2944C14.1954 38.3426 17.5888 39.1954 21.3376 39.7817C21.0355 39.4442 20.7335 39.0888 20.4492 38.7157H20.3959ZM50.7411 34.6117C51.434 32.8883 51.8604 31.0406 51.9848 29.1041C46.797 30.3655 40.6675 31.1117 34.0228 31.1117C27.3782 31.1117 21.835 30.4365 16.8249 29.2995C16.9492 31.1117 17.3579 32.8528 17.9975 34.4695C15.5279 34.9848 13.2716 35.6244 11.2107 36.3528C7.87056 35.1447 5.18782 33.6701 3.41117 32.0178C5.18782 30.3655 7.87056 28.8909 11.2107 27.6827C12.934 28.3046 14.7995 28.8376 16.8249 29.2995C16.8071 28.9797 16.7893 28.6777 16.7716 28.3579C15.297 28.0203 13.8934 27.6294 12.5787 27.203C13.9112 26.7589 15.3503 26.368 16.8604 26.0305C16.7893 26.6878 16.736 27.3452 16.736 28.0203C16.736 28.1447 16.736 28.2513 16.736 28.3579C21.764 29.5305 27.6624 30.2411 33.9873 30.2411C40.632 30.2411 46.8147 29.4772 52.0025 28.198C52.0025 28.1447 52.0025 28.0914 52.0025 28.0381C52.0025 27.434 51.967 26.8299 51.9137 26.2259C53.1396 26.5279 54.3122 26.8655 55.4315 27.2208C54.3477 27.5761 53.2107 27.8959 52.0025 28.198C52.0025 28.5178 51.967 28.8198 51.9492 29.1396C53.6726 28.7132 55.2893 28.2335 56.7995 27.7005C60.1396 28.9086 62.8223 30.3832 64.599 32.0355C62.8223 33.6878 60.1396 35.1624 56.7995 36.3706C54.9518 35.7132 52.9086 35.1269 50.7233 34.6294L50.7411 34.6117ZM17.0025 25.0355C14.9061 25.5152 12.9695 26.066 11.1929 26.7056C7.85279 25.4975 5.17005 24.0228 3.3934 22.3706C6.8401 19.1726 13.6091 16.6497 22.0482 15.3883C19.4365 17.9289 17.6421 21.2868 17.0025 25.0355ZM51.7893 25.231C51.1853 21.4645 49.4264 18.0888 46.8503 15.5127C54.8807 16.8096 61.2944 19.2792 64.6167 22.3706C62.8401 24.0228 60.1574 25.4975 56.8173 26.7056C55.2716 26.1548 53.5838 25.6574 51.7893 25.231ZM0.888325 27.1853C0.888325 25.7107 1.58122 24.3071 2.78934 23.0102C4.49492 24.5914 6.8934 26.0127 9.87817 27.1853C6.8934 28.3756 4.47716 29.797 2.78934 31.3604C1.58122 30.0457 0.888325 28.6421 0.888325 27.1853ZM0.888325 36.8147C0.888325 35.3401 1.58122 33.9366 2.78934 32.6396C4.47716 34.2208 6.8934 35.6421 9.87817 36.8147C6.8934 38.0051 4.47716 39.4264 2.78934 40.9898C1.58122 39.6751 0.888325 38.2716 0.888325 36.8147ZM67.1218 46.4442C67.1218 53.4264 52.269 59.1117 34.0051 59.1117C15.7411 59.1117 0.888325 53.4442 0.888325 46.4619C0.888325 44.9873 1.58122 43.5838 2.78934 42.2868C7.95939 47.1015 19.8452 50.3883 34.0051 50.3883C48.165 50.3883 60.0508 47.1015 65.2208 42.2868C66.4289 43.6015 67.1218 45.0051 67.1218 46.4619V46.4442ZM67.1218 36.8147C67.1218 38.2893 66.4289 39.6929 65.2208 40.9898C63.533 39.4086 61.1168 37.9873 58.132 36.8147C61.1168 35.6244 63.533 34.203 65.2208 32.6396C66.4289 33.9543 67.1218 35.3579 67.1218 36.8147ZM65.2208 31.3604C63.5152 29.7792 61.1168 28.3579 58.132 27.1853C61.1168 25.9949 63.533 24.5736 65.2208 23.0102C66.4289 24.3249 67.1218 25.7284 67.1218 27.1853C67.1218 28.6421 66.4289 30.0634 65.2208 31.3604Z" fill="#020000"/>
</g>
<defs>
<clipPath id="clip0_1912_123528">
<rect width="68.0101" height="56" fill="white" transform="translate(0 4)"/>
</clipPath>
</defs>
</svg>
