<svg width="90" height="64" viewBox="0 0 90 64" fill="none" xmlns="http://www.w3.org/2000/svg">
<g clip-path="url(#clip0_1912_123535)">
<path d="M70.729 12.748C66.7954 12.748 63.1455 13.9962 60.1386 16.1143C57.472 13.9962 54.2382 12.748 50.7585 12.748C47.2787 12.748 43.9503 14.034 41.2649 16.2089C39.109 14.034 36.5181 12.748 33.7003 12.748C30.3151 12.748 27.2515 14.6014 24.9064 17.6272C23.1666 14.6014 20.8594 12.748 18.3631 12.748C16.1693 12.748 14.1458 14.1664 12.5194 16.5303C11.2145 14.1664 9.60704 12.748 7.82936 12.748C3.42298 12.748 0 21.2015 0 32C0 42.7984 3.42298 51.2519 7.81045 51.2519C9.58813 51.2519 11.1956 49.8524 12.5005 47.4696C14.1458 49.8335 16.1504 51.2519 18.3442 51.2519C20.8594 51.2519 23.1477 49.3985 24.8875 46.3727C27.2326 49.3985 30.3151 51.2519 33.6814 51.2519C36.4992 51.2519 39.109 49.9659 41.246 47.7911C43.9503 49.9659 47.222 51.2519 50.7396 51.2519C54.2571 51.2519 57.4531 50.0037 60.1197 47.8856C63.1455 50.0037 66.7765 51.2519 70.7101 51.2519C81.0736 51.2519 89.5081 42.6093 89.5081 32C89.5081 21.3906 81.0925 12.748 70.729 12.748ZM35.0619 32C35.0619 26.0996 37.4826 20.8611 41.1892 17.5137C44.1016 20.8611 46.0117 26.0996 46.0117 32C46.0117 37.9003 44.1205 43.1388 41.1892 46.4862C37.4637 43.1388 35.0619 37.9003 35.0619 32ZM7.81045 50.3063C4.08488 50.3063 0.945575 41.9285 0.945575 32C0.945575 22.0714 4.08488 13.6936 7.81045 13.6936C9.32337 13.6936 10.7417 15.112 11.8953 17.4381C9.79616 20.9745 8.45344 26.1941 8.45344 32C8.45344 37.8058 9.79616 43.0254 11.8953 46.5618C10.7417 48.8879 9.32337 50.3063 7.81045 50.3063ZM12.3492 18.4404C13.7676 21.8256 14.6564 26.6858 14.6564 32C14.6564 37.3141 13.7487 42.1743 12.3492 45.5595C10.5337 42.2122 9.39901 37.3708 9.39901 32C9.39901 26.6291 10.5337 21.7877 12.3492 18.4404ZM18.3252 50.3063C16.3017 50.3063 14.4295 48.9068 12.9355 46.5618C14.5808 43.0632 15.602 37.8814 15.602 31.981C15.602 26.0807 14.5808 20.9178 12.9355 17.4003C14.4295 15.0742 16.3017 13.6558 18.3252 13.6558C20.6135 13.6558 22.7127 15.4524 24.2824 18.3837C21.8806 21.8634 20.4055 26.6669 20.4055 31.981C20.4055 37.2952 21.8806 42.0798 24.2824 45.5784C22.6938 48.5097 20.6135 50.3063 18.3252 50.3063ZM24.793 19.386C26.3248 22.6766 27.2704 27.1208 27.2704 32.0189C27.2704 36.9169 26.3248 41.3611 24.793 44.6517C22.6749 41.3611 21.37 36.9169 21.37 32.0189C21.37 27.1208 22.6749 22.6766 24.793 19.386ZM33.6814 50.3252C30.4853 50.3252 27.573 48.4908 25.3792 45.5028C27.138 42.023 28.216 37.2763 28.216 32.0189C28.216 26.7615 27.138 22.0147 25.3792 18.535C27.573 15.5469 30.4853 13.7125 33.6814 13.7125C36.2155 13.7125 38.5795 14.8661 40.5463 16.8329C36.6316 20.3505 34.0974 25.8537 34.0974 32.0189C34.0974 38.184 36.6316 43.6873 40.5463 47.2048C38.5795 49.1716 36.2155 50.3252 33.6814 50.3252ZM50.7396 50.3252C47.449 50.3252 44.4042 49.1338 41.8701 47.1102C44.9526 43.5738 46.9194 38.1273 46.9194 32.0189C46.9194 25.9104 44.9337 20.445 41.8701 16.9275C44.3853 14.904 47.449 13.7125 50.7396 13.7125C54.0302 13.7125 56.8669 14.8283 59.3443 16.7195C54.8433 20.237 51.9121 25.7781 51.9121 32.0189C51.9121 38.2597 54.8433 43.8007 59.3443 47.3183C56.8669 49.2094 53.9167 50.3252 50.7396 50.3252ZM66.4361 32.0189C66.4361 38.0327 63.9209 43.3658 60.0818 46.6942C55.7133 43.3469 52.8576 38.0327 52.8576 32.0189C52.8576 26.005 55.7133 20.672 60.0818 17.3435C63.9209 20.6909 66.4361 26.005 66.4361 32.0189ZM70.7101 50.3252C67.0602 50.3252 63.675 49.1905 60.8572 47.2615C64.8097 43.744 67.3817 38.2218 67.3817 32C67.3817 25.7781 64.8097 20.2748 60.8572 16.7384C63.675 14.8094 67.0791 13.6747 70.7101 13.6747C80.563 13.6747 88.5626 21.8823 88.5626 31.981C88.5626 42.0798 80.5441 50.2874 70.7101 50.2874V50.3252Z" fill="#020000"/>
</g>
<defs>
<clipPath id="clip0_1912_123535">
<rect width="89.527" height="38.5038" fill="white" transform="translate(0 12.748)"/>
</clipPath>
</defs>
</svg>
