<svg width="60" height="64" viewBox="0 0 60 64" fill="none" xmlns="http://www.w3.org/2000/svg">
<g clip-path="url(#clip0_1912_123504)">
<path d="M18.8416 50.9716C17.0184 49.948 14.6825 50.5622 13.638 52.3487C12.5935 54.1353 13.2202 56.4243 15.0433 57.4479C16.8665 58.4714 19.2024 57.8573 20.247 56.0707C21.2915 54.2842 20.6648 51.9951 18.8416 50.9716Z" fill="#020000"/>
<path d="M3.79826 28.3244C1.70922 28.3244 0 29.9993 0 32.065C0 34.1307 1.70922 35.8056 3.81725 35.787C5.92528 35.787 7.6345 34.1121 7.61551 32.0464C7.61551 29.9807 5.90629 28.3058 3.79826 28.3244Z" fill="#020000"/>
<path d="M18.7645 13.082C20.5876 12.0398 21.2143 9.75078 20.1508 7.96421C19.0873 6.17765 16.7514 5.56351 14.9282 6.60568C13.1051 7.64784 12.4784 9.93688 13.5419 11.7234C14.6054 13.51 16.9413 14.1241 18.7645 13.082Z" fill="#020000"/>
<path d="M41.098 13.026C42.9212 14.0496 45.2571 13.4354 46.3016 11.6489C47.3462 9.86231 46.7194 7.57327 44.8963 6.54972C43.0731 5.52616 40.7372 6.14029 39.6927 7.92686C38.6481 9.71343 39.2749 12.0025 41.098 13.026Z" fill="#020000"/>
<path d="M56.0992 28.215C53.9912 28.215 52.2819 29.8899 52.3009 31.9556C52.3009 34.0213 54.0102 35.6962 56.1182 35.6776C58.2262 35.6776 59.9354 34.0027 59.9164 31.937C59.9164 29.8713 58.2072 28.1964 56.0992 28.215Z" fill="#020000"/>
<path d="M41.1743 50.9377C39.3512 51.9799 38.7244 54.2689 39.788 56.0555C40.8515 57.842 43.1874 58.4562 45.0106 57.414C46.8337 56.3718 47.4604 54.0828 46.3969 52.2962C45.3334 50.5097 42.9975 49.8955 41.1743 50.9377Z" fill="#020000"/>
<path d="M3.24853 44.8516C2.14704 44.8516 1.27344 45.7262 1.27344 46.787C1.27344 47.8478 2.16603 48.7225 3.24853 48.7225C4.33104 48.7225 5.22363 47.8478 5.22363 46.787C5.22363 45.7262 4.33104 44.8516 3.24853 44.8516Z" fill="#020000"/>
<path d="M4.52016 18.4061C5.46972 17.8664 5.79258 16.694 5.24183 15.7635C4.69108 14.833 3.49463 14.5166 2.54507 15.0563C1.5955 15.596 1.27265 16.7684 1.8234 17.6989C2.37414 18.6294 3.5706 18.9458 4.52016 18.4061Z" fill="#020000"/>
<path d="M29.2638 3.60922C30.2134 4.14891 31.4098 3.83254 31.9606 2.90204C32.5113 1.97153 32.1885 0.7991 31.2389 0.259408C30.2893 -0.280284 29.0929 0.0360874 28.5421 0.96659C27.9914 1.89709 28.3143 3.06953 29.2638 3.60922Z" fill="#020000"/>
<path d="M56.6899 19.1482C57.7914 19.1482 58.665 18.2736 58.665 17.2128C58.665 16.152 57.7724 15.2773 56.6899 15.2773C55.6074 15.2773 54.7148 16.152 54.7148 17.2128C54.7148 18.2736 55.6074 19.1482 56.6899 19.1482Z" fill="#020000"/>
<path d="M55.3966 45.5953C54.4471 46.135 54.1242 47.3075 54.675 48.238C55.2257 49.1685 56.4222 49.4848 57.3717 48.9452C58.3213 48.4055 58.6441 47.233 58.0934 46.3025C57.5426 45.372 56.3462 45.0557 55.3966 45.5953Z" fill="#020000"/>
<path d="M30.6725 60.3883C29.7229 59.8486 28.5265 60.165 27.9757 61.0955C27.425 62.026 27.7478 63.1984 28.6974 63.7381C29.647 64.2778 30.8434 63.9614 31.3942 63.0309C31.9449 62.1004 31.6221 60.928 30.6725 60.3883Z" fill="#020000"/>
<path d="M30.2746 43.3438C27.046 43.3438 24.4252 45.8747 24.4062 49.0198C24.4062 52.1835 26.9891 54.7517 30.1986 54.7703C33.4081 54.7889 36.0479 52.2394 36.0669 49.0943C36.0669 45.9305 33.4841 43.3624 30.2746 43.3438Z" fill="#020000"/>
<path d="M12.5551 35.6206C9.76342 37.1839 8.77588 40.6826 10.3901 43.4183C12.0044 46.1539 15.5558 47.1217 18.3475 45.5398C21.1392 43.9766 22.1268 40.4779 20.5125 37.7422C18.9172 35.0065 15.3469 34.0388 12.5551 35.6206Z" fill="#020000"/>
<path d="M18.4604 18.8508C15.6877 17.2503 12.1173 18.1808 10.484 20.8979C8.8508 23.615 9.80036 27.1137 12.5731 28.7141C15.3458 30.3146 18.9162 29.3841 20.5494 26.667C22.1827 23.9499 21.2331 20.4513 18.4604 18.8508Z" fill="#020000"/>
<path d="M30.3862 21.1805C33.6147 21.1805 36.2355 18.6495 36.2545 15.5044C36.2545 12.3407 33.6717 9.77252 30.4622 9.75391C27.2336 9.75391 24.6128 12.2849 24.5939 15.43C24.5749 18.5751 27.1767 21.1619 30.3862 21.1805Z" fill="#020000"/>
<path d="M42.3325 18.9644C39.5408 20.5276 38.5532 24.0263 40.1675 26.762C41.7627 29.4977 45.3331 30.4654 48.1248 28.8835C50.9166 27.3203 51.9041 23.8216 50.2898 21.0859C48.6756 18.3503 45.1242 17.3825 42.3325 18.9644Z" fill="#020000"/>
<path d="M48.0659 35.7883C45.2931 34.1878 41.7228 35.1183 40.0895 37.8354C38.4563 40.5525 39.4058 44.0512 42.1786 45.6516C44.9513 47.2521 48.5216 46.3216 50.1549 43.6045C51.7881 40.8874 50.8386 37.3888 48.0659 35.7883Z" fill="#020000"/>
<path d="M32.2983 40.4719C36.9022 39.4071 39.7535 34.8867 38.6669 30.3752C37.5803 25.8638 32.9672 23.0697 28.3634 24.1345C23.7595 25.1993 20.9082 29.7198 21.9948 34.2312C23.0814 38.7426 27.6945 41.5367 32.2983 40.4719Z" fill="#020000"/>
</g>
<defs>
<clipPath id="clip0_1912_123504">
<rect width="59.9365" height="64" fill="white"/>
</clipPath>
</defs>
</svg>
