<svg width="96" height="64" viewBox="0 0 96 64" fill="none" xmlns="http://www.w3.org/2000/svg">
<g clip-path="url(#clip0_1912_123483)">
<path d="M1.85156 23.8872L2.70258 24.3033C2.96734 23.7548 3.25101 23.2253 3.57251 22.6958L2.75931 22.2041C2.41891 22.7525 2.11632 23.3199 1.85156 23.8872Z" fill="#020000"/>
<path d="M8.01953 47.8473C8.54905 48.2255 9.07858 48.5659 9.62701 48.8874L10.0998 48.0742C9.58919 47.7716 9.05966 47.4501 8.56797 47.0908L8.01953 47.8662V47.8473Z" fill="#020000"/>
<path d="M5.08594 19.1406L5.78566 19.7836C6.20172 19.3297 6.63668 18.9136 7.09056 18.4976L6.46648 17.7979C5.99369 18.2139 5.53981 18.6678 5.10485 19.1406H5.08594Z" fill="#020000"/>
<path d="M3.89453 43.8574C4.27276 44.368 4.68881 44.8597 5.12378 45.3325L5.8235 44.6895C5.40745 44.2356 5.01031 43.7817 4.65099 43.29L3.89453 43.8574Z" fill="#020000"/>
<path d="M1.13281 38.8258C1.35975 39.4309 1.6056 40.0172 1.88927 40.5845L2.74029 40.1685C2.47553 39.62 2.22968 39.0527 2.02165 38.4854L1.13281 38.8068V38.8258Z" fill="#020000"/>
<path d="M1.47348 27.7279L0.56573 27.501C0.414438 28.1251 0.282057 28.7491 0.1875 29.3921L1.13307 29.5245C1.22763 28.9193 1.3411 28.3142 1.49239 27.7279H1.47348Z" fill="#020000"/>
<path d="M-0.000619752 33.1911C0.0372032 33.8341 0.0939377 34.4771 0.188495 35.1012L1.11516 34.9688C1.0206 34.3826 0.963867 33.7585 0.926044 33.1533L-0.0195312 33.2101L-0.000619752 33.1911Z" fill="#020000"/>
<path d="M27.9507 15.0381C27.3834 14.7544 26.7971 14.4896 26.192 14.2627L25.8516 15.1515C26.4189 15.3785 26.9673 15.6243 27.5158 15.8891L27.9507 15.0381Z" fill="#020000"/>
<path d="M9.55078 15.5461L10.0236 16.3593C10.5531 16.0567 11.0826 15.773 11.65 15.5272L11.2528 14.6572C10.6666 14.922 10.0992 15.2246 9.55078 15.5461Z" fill="#020000"/>
<path d="M29.1797 47.5835L29.6903 48.3777C30.2198 48.0373 30.7493 47.6591 31.241 47.262L30.6548 46.5244C30.182 46.9026 29.6903 47.262 29.1797 47.5835Z" fill="#020000"/>
<path d="M20.5384 13.9394C21.1436 13.9772 21.7488 14.0528 22.3539 14.1663L22.5052 13.2396C21.8622 13.1262 21.2382 13.0505 20.5952 13.0127L20.5195 13.9583L20.5384 13.9394Z" fill="#020000"/>
<path d="M24.207 49.8333L24.4718 50.7411C25.0959 50.5709 25.701 50.3628 26.2873 50.1359L25.9469 49.2471C25.3795 49.474 24.8122 49.6631 24.2259 49.8333H24.207Z" fill="#020000"/>
<path d="M19.2351 50.5147H18.8002L18.7812 51.4603H19.2351C19.7268 51.4603 20.2185 51.4603 20.6913 51.4036L20.6157 50.458C20.1618 50.4958 19.689 50.5147 19.2351 50.5147Z" fill="#020000"/>
<path d="M13.125 50.4556C13.7302 50.6636 14.3542 50.8338 14.9783 50.9662L15.1864 50.0396C14.6001 49.9072 13.9949 49.737 13.4276 49.5479L13.125 50.4367V50.4556Z" fill="#020000"/>
<path d="M14.8828 13.4273L15.0908 14.354C15.6771 14.2216 16.2823 14.1081 16.8874 14.0325L16.774 13.0869C16.131 13.1626 15.5069 13.276 14.8828 13.4273Z" fill="#020000"/>
<path d="M76.233 13.41C69.9165 13.41 64.3376 16.5493 60.9336 21.3339C57.4917 16.0576 51.5346 12.54 44.7832 12.54C34.1738 12.54 25.5312 21.1826 25.5312 31.7919C25.5312 42.4013 34.1738 51.0438 44.7832 51.0438C51.3644 51.0438 57.1702 47.7154 60.6499 42.685C64.0161 47.6965 69.7463 50.9871 76.233 50.9871C86.6154 50.9871 95.0121 42.5715 95.0121 32.208C95.0121 21.8445 86.5965 13.41 76.233 13.41ZM60.3473 22.2038C59.553 23.452 58.91 24.8136 58.4373 26.232C56.6407 25.4944 54.4658 24.9271 52.0263 24.5299C51.2131 19.4616 49.5678 15.547 47.4875 13.6936C52.9151 14.5068 57.5673 17.7029 60.3473 22.1849V22.2038ZM44.7832 50.0983C42.041 50.0983 39.6203 45.5406 38.5424 39.1863C40.4902 39.4511 42.5894 39.6024 44.7832 39.6024C46.9769 39.6024 49.0761 39.4511 51.0239 39.1863C49.9271 45.5406 47.5064 50.0983 44.7832 50.0983ZM44.7832 38.6568C42.5327 38.6568 40.3768 38.4866 38.3722 38.2029C38.0885 36.1983 37.9183 34.0424 37.9183 31.7919C37.9183 29.5415 38.0885 27.3856 38.3722 25.3809C40.3768 25.0973 42.5327 24.9271 44.7832 24.9271C47.0336 24.9271 49.1895 25.0973 51.1942 25.3809C51.4778 27.3856 51.648 29.5415 51.648 31.7919C51.648 34.0424 51.4778 36.1983 51.1942 38.2029C49.1895 38.4866 47.0336 38.6568 44.7832 38.6568ZM37.3888 38.0516C31.0345 36.9548 26.4768 34.5341 26.4768 31.8109C26.4768 29.0876 31.0345 26.648 37.3888 25.5701C37.124 27.5179 36.9727 29.6171 36.9727 31.8109C36.9727 34.0046 37.124 36.1038 37.3888 38.0516ZM44.7832 13.4856C47.5253 13.4856 49.946 18.0433 51.0239 24.3975C49.0761 24.1328 46.9769 23.9815 44.7832 23.9815C42.5894 23.9815 40.4902 24.1328 38.5424 24.3975C39.6392 18.0433 42.0599 13.4856 44.7832 13.4856ZM52.1776 25.5511C54.4469 25.9483 56.4705 26.4967 58.1536 27.1775C57.6997 28.785 57.4539 30.4681 57.4539 32.208C57.4539 33.6831 57.643 35.1204 57.9645 36.5009C56.3192 37.1439 54.3524 37.6734 52.1776 38.0516C52.4423 36.1038 52.5936 34.0046 52.5936 31.8109C52.5936 29.6171 52.4423 27.5179 52.1776 25.5701V25.5511ZM42.0788 13.7126C39.9985 15.5659 38.3532 19.4806 37.5401 24.5488C32.4718 25.362 28.5571 27.0073 26.7038 29.0876C27.8952 21.1637 34.1549 14.8851 42.0788 13.7126ZM26.6849 34.4963C28.5382 36.5766 32.4529 38.2219 37.5211 39.035C38.3343 44.1033 39.9796 48.018 42.0599 49.8713C34.136 48.6988 27.8574 42.4202 26.6849 34.4963ZM47.4686 49.8713C49.5489 48.018 51.1942 44.1033 52.0073 39.035C54.3335 38.6568 56.4137 38.1084 58.1725 37.4276C58.6264 38.9783 59.2694 40.4345 60.0636 41.7772C57.2647 46.0512 52.726 49.0771 47.4497 49.8713H47.4686Z" fill="#020000"/>
</g>
<defs>
<clipPath id="clip0_1912_123483">
<rect width="95.0114" height="38.9199" fill="white" transform="translate(0 12.54)"/>
</clipPath>
</defs>
</svg>
