<svg width="72" height="19" viewBox="0 0 72 19" fill="none" xmlns="http://www.w3.org/2000/svg">
<path d="M0 13.8233L2.57819 11.7874C3.94796 13.6302 5.40327 14.4796 7.02317 14.4796C8.63441 14.4796 10.0486 13.6403 11.3566 11.8119L13.9716 13.7988C12.0843 16.4352 9.73888 17.8283 7.02317 17.8283C4.31612 17.8283 1.94799 16.4442 0 13.8233V13.8233Z" fill="url(#paint0_linear_2378_159315)"/>
<path d="M7.01431 4.97404L2.42532 9.05043L0.304077 6.5144L7.02406 0.544922L13.691 6.51887L11.56 9.04596L7.01431 4.97404Z" fill="url(#paint1_linear_2378_159315)"/>
<path d="M23.8591 15.3134C22.2922 15.3134 20.9864 14.7899 19.9274 13.7429C18.8684 12.6814 18.3464 11.3207 18.3464 9.65981C18.3464 7.98549 18.8824 6.60921 19.9414 5.53207C21.0156 4.44042 22.3215 3.9024 23.8742 3.9024C25.7897 3.9024 27.4865 4.75407 28.4741 6.08571L26.7459 7.95536C25.9186 7.0423 25.0188 6.57907 24.0475 6.57907C23.2202 6.57907 22.538 6.86259 21.9717 7.44636C21.4206 8.03014 21.1455 8.76349 21.1455 9.6453C21.1455 10.4981 21.4206 11.2158 21.9717 11.7996C22.538 12.3677 23.2202 12.6512 24.0323 12.6512C25.0913 12.6512 26.0204 12.1724 26.7892 11.2303L28.5888 13.0107C28.0951 13.6837 27.428 14.2374 26.6008 14.6705C25.7735 15.1047 24.8596 15.3134 23.858 15.3134H23.8591ZM31.6337 3.7372V15.1493H29.0804V3.7372H31.6337V3.7372ZM34.0538 6.15938C33.1984 6.15938 32.5747 5.51644 32.5747 4.63464C32.5747 3.78185 33.2276 3.13892 34.0538 3.13892C34.8811 3.13892 35.52 3.78185 35.52 4.63464C35.52 5.51644 34.8811 6.16049 34.0538 6.16049V6.15938ZM35.3456 6.89272V15.1493H32.7772V6.89272H35.3456V6.89272ZM40.2616 15.329C38.9991 15.329 37.9834 14.925 37.1864 14.1168C36.4025 13.3098 36.0105 12.2773 36.0105 11.006C36.0105 9.73459 36.4025 8.70322 37.2005 7.89508C37.9985 7.08695 39.0283 6.68399 40.3049 6.68399C41.9736 6.68399 43.4397 7.52115 44.1208 9.09166L42.0754 10.1989C41.6693 9.49572 41.103 9.1363 40.3634 9.1363C39.8263 9.1363 39.391 9.31601 39.0424 9.67543C38.8769 9.85184 38.7469 10.0602 38.6598 10.2885C38.5726 10.5168 38.5301 10.7606 38.5345 11.006C38.5345 12.0976 39.3033 12.9057 40.3342 12.9057C41.0737 12.9057 41.7559 12.4872 42.0461 11.8442L44.0927 13.1C43.3953 14.4762 41.9595 15.329 40.2616 15.329V15.329ZM52.9988 15.1493H49.9507L47.5847 11.8732L47.2079 12.2327V15.1493H44.6557V3.7372H47.209V9.28588L49.6172 6.89272H52.7368L49.2988 10.2134L52.9988 15.1493ZM53.1699 10.8564V4.09551H55.8976V10.8117C55.8976 12.053 56.5938 12.6512 57.5954 12.6512C58.5819 12.6512 59.2781 12.0228 59.2781 10.8117V4.09551H62.0209V10.8564C62.0209 14.1168 59.8293 15.3435 57.5954 15.3435C55.3756 15.3435 53.1699 14.1168 53.1699 10.8564V10.8564ZM68.0825 6.68399C69.2292 6.68399 70.1583 7.10257 70.8979 7.93973C71.6374 8.76237 72.0002 9.79487 72.0002 11.006C72.0002 12.2182 71.6234 13.2495 70.8838 14.1023C70.1431 14.9395 69.2152 15.3592 68.0977 15.3592C67.2119 15.3592 66.4431 15.06 65.8194 14.4617V18.5448H63.251V6.89272H65.7761V7.65621C66.3998 7.01216 67.1686 6.68399 68.0825 6.68399V6.68399ZM69.3884 11.0361C69.3884 9.95895 68.6348 9.1363 67.5898 9.1363C66.5449 9.1363 65.7761 9.95895 65.7761 11.0361C65.7761 11.5596 65.9494 12.0083 66.284 12.3822C66.6315 12.7562 67.0668 12.9359 67.5898 12.9359C68.1118 12.9359 68.5471 12.7562 68.8806 12.3822C69.2133 12.0186 69.3958 11.5359 69.3895 11.0361H69.3884Z" fill="#2250FF"/>
<defs>
<linearGradient id="paint0_linear_2378_159315" x1="0" y1="15.8958" x2="13.9716" y2="15.8958" gradientUnits="userSpaceOnUse">
<stop stop-color="#2250FF"/>
<stop offset="1" stop-color="#2250FF" stop-opacity="0.28"/>
</linearGradient>
<linearGradient id="paint1_linear_2378_159315" x1="0.304077" y1="6.32952" x2="13.691" y2="6.32952" gradientUnits="userSpaceOnUse">
<stop stop-color="#2250FF" stop-opacity="0.3"/>
<stop offset="1" stop-color="#2250FF"/>
</linearGradient>
</defs>
</svg>
