<svg viewBox="0 0 500 232" fill="none" xmlns="http://www.w3.org/2000/svg">
  <path d="M61.753 63.89v138.748M85.648 63.89v138.748M109.545 63.89v138.748M133.441 63.89v138.748M157.337 63.89v138.748M181.234 63.89v138.748M51.734 192.676h139.517M51.734 168.912h139.517M51.734 145.148h139.517M51.734 121.383h139.517M51.734 97.619h139.517M51.734 73.855h139.517" stroke="#BCD7FE" stroke-width=".757" stroke-linecap="round" stroke-linejoin="round"/>
  <path fill-rule="evenodd" clip-rule="evenodd" d="M211.542 19.174c-1.424-2.005-5.095-.079-5.095-.079l-.091.142-.008-.026c.035-.039.064-.076.099-.116 3.067-3.522 1.17-7.552-2.557-8.231-3.729-.679-8.801 4.733-10.802 6.86a14.276 14.276 0 01-3.524 2.695l-1.174-.155c-.663-2.498-1.052-5.903-1.281-9.973-.387-6.856-12.537-10.98-14.297-8.623-1.757 2.357 1.993 5.799 4.726 8.913 2.734 3.113.611 14.137.791 24.69.181 10.554-4.217 22.91-5.934 27.16-1.717 4.25-1.716 13.103-1.716 13.103l22.392 5.25s1.414-13.902 2.382-17.52c.969-3.62 4.22-5.204 8.322-9.269 4.102-4.063 5.446-8.963 5.724-9.348l.013-.22c1.841-.531 3.659-1.596 5.197-2.687 3.235-2.295 3.389-4.915 2.368-6.497-1.321-2.052-3.304-.966-3.304-.966l-.086.055c1.19-1.624 1.491-3.329.787-5.088-1.107-2.77-4.234-2.087-4.234-2.087l-1.226 1.245-.002-.034c.439-.445.847-.859 1.228-1.211 2.659-2.473 2.727-5.976 1.302-7.983z" fill="#fff"/>
  <path clip-rule="evenodd" d="M211.542 19.174c-1.424-2.005-5.095-.079-5.095-.079l-.091.142-.008-.026c.035-.039.064-.076.099-.116 3.067-3.522 1.17-7.552-2.557-8.231-3.729-.679-8.801 4.733-10.802 6.86a14.276 14.276 0 01-3.524 2.695l-1.174-.155c-.663-2.498-1.052-5.903-1.281-9.973-.387-6.856-12.537-10.98-14.297-8.623-1.757 2.357 1.993 5.799 4.726 8.913 2.734 3.113.611 14.137.791 24.69.181 10.554-4.217 22.91-5.934 27.16-1.717 4.25-1.716 13.103-1.716 13.103l22.392 5.25s1.414-13.902 2.382-17.52c.969-3.62 4.22-5.204 8.322-9.269 4.102-4.063 5.446-8.963 5.724-9.348l.013-.22c1.841-.531 3.659-1.596 5.197-2.687 3.235-2.295 3.389-4.915 2.368-6.497-1.321-2.052-3.304-.966-3.304-.966l-.086.055c1.19-1.624 1.491-3.329.787-5.088-1.107-2.77-4.234-2.087-4.234-2.087l-1.226 1.245-.002-.034c.439-.445.847-.859 1.228-1.211 2.659-2.473 2.727-5.976 1.302-7.983z" stroke="#0E0916" stroke-width=".757"/>
  <path d="M192.251 25.955s.707-2.765 4.645-6.523c-.146-1.382.572-2.168 1.203-3.083" stroke="#0E0916" stroke-width=".757"/>
  <path d="M170.679 75.534s-.001-8.854 1.715-13.104c1.718-4.25 6.116-16.605 5.935-27.159-.18-10.554 1.942-21.578-.792-24.69-2.733-3.113-6.482-6.556-4.725-8.913 1.76-2.358 13.91 1.767 14.296 8.623.387 6.856 1.219 11.841 3.07 13.744 1.85 1.9 5.015 5.146 5.216 10.067 0 0 .728 7.275.764 8.931" stroke="#0E0916" stroke-width=".757"/>
  <path d="M188.79 20.8s2.298-.952 4.298-3.077c2.001-2.126 7.073-7.538 10.801-6.86 3.728.678 5.624 4.71 2.557 8.232-3.064 3.52-3.212 5.512-5.704 6.938-2.493 1.427-6.195 4.03-6.195 4.03" stroke="#0E0916" stroke-width=".757"/>
  <path d="M206.447 19.095s3.671-1.925 5.095.08c1.424 2.006 1.356 5.51-1.303 7.982-2.66 2.47-6.528 7.679-14.611 8.821" stroke="#0E0916" stroke-width=".757"/>
  <path d="M210.239 27.157s3.127-.683 4.234 2.087c1.108 2.77-.263 5.403-3.687 7.795-3.424 2.394-6.906 4.22-8.517 4.586 0 0-3.982 1.367-5.854-.395" stroke="#0E0916" stroke-width=".757"/>
  <path d="M213.773 34.276s1.983-1.084 3.304.967c1.021 1.582.867 4.202-2.368 6.496-3.236 2.295-7.708 4.509-11.043 1.761-2.131-1.755-1.388-1.841-1.388-1.841" stroke="#0E0916" stroke-width=".757"/>
  <path d="M209.498 44.646c-.278.385-1.622 5.285-5.724 9.35-4.102 4.064-7.352 5.648-8.322 9.267-.968 3.619-2.381 17.52-2.381 17.52" stroke="#0E0916" stroke-width=".757"/>
  <path fill-rule="evenodd" clip-rule="evenodd" d="M155.51 202.191c.669-47.356-1.145-84.719 5.76-105.76 3.481-10.611 3.015-21.214 5.483-24.68 0 0 17.333-1.645 24.351 2.057 4.218 2.225 8.284 5.099 8.308 5.991.056 2.05-3.5 12.301-3.273 17.38.226 5.078-.085 14.239 1.068 20.974 1.154 6.734 2.986 74.419.231 84.038" fill="#FFEBDE"/>
  <mask id="a" maskUnits="userSpaceOnUse" x="155" y="71" width="45" height="132">
    <path d="M166.754 71.752c-2.468 3.465-2.003 14.068-5.484 24.68-6.905 21.039-5.09 58.403-5.759 105.76h41.927c2.755-9.62.924-77.306-.23-84.039-1.154-6.734-.843-15.897-1.07-20.975-.226-5.078 3.33-15.328 3.275-17.378-.025-.893-4.091-3.767-8.308-5.992-3.715-1.96-10.319-2.42-15.714-2.42-4.796 0-8.637.364-8.637.364z" fill="#fff"/>
  </mask>
  <g mask="url(#a)">
    <path fill-rule="evenodd" clip-rule="evenodd" d="M162.968 51.202c8.205.896 14.219 8.74 15.777 16.802 1.556 8.06-.324 16.337-2.071 24.36-2.938 13.501-5.524 27.104-6.823 40.859-1.434 15.174-1.295 30.446-1.25 45.687.063 21.265-.057 42.53-.363 63.791-.044 3.073-.976 7.123-4.062 7.272-1.171.056-2.265-.547-3.234-1.201-3.353-2.266-6.069-5.344-8.499-8.57a79.837 79.837 0 01-10.961-19.941c-2.26-6.015-3.78-12.279-5.085-18.568-9.189-44.279-7.745-90.705 4.177-134.336" fill="#FFD8BA"/>
  </g>
  <path d="M155.51 202.191c.669-47.356-1.145-84.719 5.76-105.76 3.481-10.611 3.015-21.214 5.483-24.68 0 0 17.333-1.645 24.351 2.057 4.218 2.225 8.284 5.099 8.308 5.991.056 2.05-3.5 12.301-3.273 17.38.226 5.078-.085 14.239 1.068 20.974 1.154 6.734 2.986 74.419.231 84.038" stroke="#0E0916" stroke-width=".757"/>
  <path fill-rule="evenodd" clip-rule="evenodd" d="M499.054 7.409v89.803a3.056 3.056 0 01-3.066 3.047H361.199a3.056 3.056 0 01-3.066-3.047V7.409a3.058 3.058 0 013.066-3.05h134.789a3.058 3.058 0 013.066 3.05z" fill="#BCD7FE"/>
  <path clip-rule="evenodd" d="M499.054 7.409v89.803a3.056 3.056 0 01-3.066 3.047H361.199a3.056 3.056 0 01-3.066-3.047V7.409a3.058 3.058 0 013.066-3.05h134.789a3.058 3.058 0 013.066 3.05z" stroke="#0E0916" stroke-width=".757" stroke-linecap="round" stroke-linejoin="round"/>
  <path d="M358.134 92.3h140.927" stroke="#0E0916" stroke-width=".757" stroke-linecap="round" stroke-linejoin="round"/>
  <path fill-rule="evenodd" clip-rule="evenodd" d="M366.072 9.973c0 .795-.648 1.44-1.447 1.44-.8 0-1.447-.645-1.447-1.44 0-.794.647-1.439 1.447-1.439.799 0 1.447.645 1.447 1.44z" fill="#fff"/>
  <path clip-rule="evenodd" d="M366.072 9.973c0 .795-.648 1.44-1.447 1.44-.8 0-1.447-.645-1.447-1.44 0-.794.647-1.439 1.447-1.439.799 0 1.447.645 1.447 1.44z" stroke="#0E0916" stroke-width=".757" stroke-linecap="round" stroke-linejoin="round"/>
  <path fill-rule="evenodd" clip-rule="evenodd" d="M372.578 9.973c0 .795-.648 1.44-1.447 1.44a1.442 1.442 0 01-1.446-1.44c0-.794.647-1.439 1.446-1.439.799 0 1.447.645 1.447 1.44z" fill="#fff"/>
  <path clip-rule="evenodd" d="M372.578 9.973c0 .795-.648 1.44-1.447 1.44a1.442 1.442 0 01-1.446-1.44c0-.794.647-1.439 1.446-1.439.799 0 1.447.645 1.447 1.44z" stroke="#0E0916" stroke-width=".757" stroke-linecap="round" stroke-linejoin="round"/>
  <path fill-rule="evenodd" clip-rule="evenodd" d="M379.085 9.973c0 .795-.648 1.44-1.447 1.44-.8 0-1.447-.645-1.447-1.44 0-.794.647-1.439 1.447-1.439.799 0 1.447.645 1.447 1.44z" fill="#fff"/>
  <path clip-rule="evenodd" d="M379.085 9.973c0 .795-.648 1.44-1.447 1.44-.8 0-1.447-.645-1.447-1.44 0-.794.647-1.439 1.447-1.439.799 0 1.447.645 1.447 1.44z" stroke="#0E0916" stroke-width=".757" stroke-linecap="round" stroke-linejoin="round"/>
  <path fill-rule="evenodd" clip-rule="evenodd" d="M436.756 64.472l-19.657-7.987v-4.033l19.657-7.945V49.5l-12.631 4.99 12.631 4.992v4.991zM439.474 74.163l16.437-35.022h5.019l-16.437 35.022h-5.019zM484.351 56.486l-19.657 7.986V59.44l12.631-4.95-12.631-4.992v-4.992l19.657 7.946v4.034z" fill="#340096"/>
  <path d="M373.084 36.756h29.872M373.084 44.31h29.872M373.084 51.863h29.872M373.084 59.417h29.872M373.084 66.97h29.872M373.084 74.524h29.872" stroke="#0E0916" stroke-width=".757" stroke-linecap="round" stroke-linejoin="round"/>
  <path fill-rule="evenodd" clip-rule="evenodd" d="M490.058 18.53v89.804a3.057 3.057 0 01-3.065 3.048h-134.79a3.056 3.056 0 01-3.064-3.048V18.531a3.056 3.056 0 013.064-3.05h134.79a3.057 3.057 0 013.065 3.05z" fill="#fff"/>
  <path clip-rule="evenodd" d="M490.058 18.53v89.804a3.057 3.057 0 01-3.065 3.048h-134.79a3.056 3.056 0 01-3.064-3.048V18.531a3.056 3.056 0 013.064-3.05h134.79a3.057 3.057 0 013.065 3.05z" stroke="#0E0916" stroke-width=".757" stroke-linecap="round" stroke-linejoin="round"/>
  <path fill-rule="evenodd" clip-rule="evenodd" d="M349.141 35.632h141.124v-9.028H349.141v9.028z" fill="#E6E2FF"/>
  <path clip-rule="evenodd" d="M349.141 35.632h141.124v-9.028H349.141v9.028z" stroke="#0E0916" stroke-width=".757" stroke-linecap="round" stroke-linejoin="round"/>
  <path d="M349.139 103.421h140.927" stroke="#0E0916" stroke-width=".757" stroke-linecap="round" stroke-linejoin="round"/>
  <path fill-rule="evenodd" clip-rule="evenodd" d="M357.077 21.095c0 .795-.648 1.44-1.446 1.44-.8 0-1.447-.645-1.447-1.44 0-.794.647-1.439 1.447-1.439.798 0 1.446.645 1.446 1.44z" fill="#fff"/>
  <path clip-rule="evenodd" d="M357.077 21.095c0 .795-.648 1.44-1.446 1.44-.8 0-1.447-.645-1.447-1.44 0-.794.647-1.439 1.447-1.439.798 0 1.446.645 1.446 1.44z" stroke="#0E0916" stroke-width=".757" stroke-linecap="round" stroke-linejoin="round"/>
  <path fill-rule="evenodd" clip-rule="evenodd" d="M363.584 21.095c0 .795-.648 1.44-1.447 1.44a1.443 1.443 0 01-1.448-1.44c0-.794.647-1.439 1.448-1.439.799 0 1.447.645 1.447 1.44z" fill="#fff"/>
  <path clip-rule="evenodd" d="M363.584 21.095c0 .795-.648 1.44-1.447 1.44a1.443 1.443 0 01-1.448-1.44c0-.794.647-1.439 1.448-1.439.799 0 1.447.645 1.447 1.44z" stroke="#0E0916" stroke-width=".757" stroke-linecap="round" stroke-linejoin="round"/>
  <path fill-rule="evenodd" clip-rule="evenodd" d="M370.089 21.095c0 .795-.648 1.44-1.447 1.44-.8 0-1.447-.645-1.447-1.44 0-.794.647-1.439 1.447-1.439.799 0 1.447.645 1.447 1.44z" fill="#fff"/>
  <path clip-rule="evenodd" d="M370.089 21.095c0 .795-.648 1.44-1.447 1.44-.8 0-1.447-.645-1.447-1.44 0-.794.647-1.439 1.447-1.439.799 0 1.447.645 1.447 1.44z" stroke="#0E0916" stroke-width=".757" stroke-linecap="round" stroke-linejoin="round"/>
  <path fill-rule="evenodd" clip-rule="evenodd" d="M427.762 75.594l-19.658-7.987v-4.034l19.658-7.944v4.991l-12.632 4.991 12.632 4.992v4.99zM430.479 85.285l16.437-35.022h5.019l-16.438 35.022h-5.018zM475.356 67.608l-19.657 7.987v-5.033l12.631-4.95-12.631-4.992V55.63l19.657 7.945v4.034z" fill="#340096"/>
  <path d="M364.088 47.877h29.873M364.088 55.432h29.873M364.088 62.985h29.873M364.088 70.54h29.873M364.088 78.093h29.873M364.088 85.647h29.873" stroke="#0E0916" stroke-width=".757" stroke-linecap="round" stroke-linejoin="round"/>
  <path fill-rule="evenodd" clip-rule="evenodd" d="M451.082 98.574l1.772 34.767 8.859-13.127 16.593-2.194-27.224-19.446z" fill="#FFD8BA"/>
  <path clip-rule="evenodd" d="M451.082 98.574l1.772 34.767 8.859-13.127 16.593-2.194-27.224-19.446z" stroke="#0E0916" stroke-width=".757" stroke-linecap="round" stroke-linejoin="round"/>
  <path d="M55.812 59.198v1.962" stroke="#0E0916" stroke-width=".757" stroke-linecap="round" stroke-linejoin="round"/>
  <path d="M55.812 63.397v3.354" stroke="#0E0916" stroke-width=".757" stroke-linecap="round" stroke-linejoin="round" stroke-dasharray="1.56 1.56"/>
  <path d="M55.812 67.869v1.963h1.972" stroke="#0E0916" stroke-width=".757" stroke-linecap="round" stroke-linejoin="round"/>
  <path d="M61.746 69.831h61.388" stroke="#0E0916" stroke-width=".757" stroke-linecap="round" stroke-linejoin="round" stroke-dasharray="2.74 2.74"/>
  <path d="M125.114 69.83h1.973v-1.962" stroke="#0E0916" stroke-width=".757" stroke-linecap="round" stroke-linejoin="round"/>
  <path d="M127.087 65.633v-3.355" stroke="#0E0916" stroke-width=".757" stroke-linecap="round" stroke-linejoin="round" stroke-dasharray="1.56 1.56"/>
  <path d="M127.087 61.16v-1.963" stroke="#0E0916" stroke-width=".757" stroke-linecap="round" stroke-linejoin="round"/>
  <path fill-rule="evenodd" clip-rule="evenodd" d="M80.045 54.945h24.234v-9.674c0-3.662-2.985-6.629-6.666-6.629H86.711c-3.682 0-6.666 2.967-6.666 6.63v9.673z" fill="#EFFD95"/>
  <path clip-rule="evenodd" d="M80.045 54.945h24.234v-9.674c0-3.662-2.985-6.629-6.666-6.629H86.711c-3.682 0-6.666 2.967-6.666 6.63v9.673z" stroke="#0E0916" stroke-width=".757" stroke-linecap="round" stroke-linejoin="round"/>
  <path fill-rule="evenodd" clip-rule="evenodd" d="M44.407 54.945h24.234v-9.674c0-3.662-2.984-6.629-6.666-6.629H51.073c-3.682 0-6.666 2.967-6.666 6.63v9.673z" fill="#FFD8BA"/>
  <path clip-rule="evenodd" d="M44.407 54.945h24.234v-9.674c0-3.662-2.984-6.629-6.666-6.629H51.073c-3.682 0-6.666 2.967-6.666 6.63v9.673z" stroke="#0E0916" stroke-width=".757" stroke-linecap="round" stroke-linejoin="round"/>
  <path fill-rule="evenodd" clip-rule="evenodd" d="M133.251 38.642h-10.903c-3.682 0-6.665 2.967-6.665 6.63v9.673h24.234v-9.674c0-3.662-2.985-6.629-6.666-6.629z" fill="#FFEBDE"/>
  <path clip-rule="evenodd" d="M133.251 38.642h-10.903c-3.682 0-6.665 2.967-6.665 6.63v9.673h24.234v-9.674c0-3.662-2.985-6.629-6.666-6.629z" stroke="#0E0916" stroke-width=".757" stroke-linecap="round" stroke-linejoin="round"/>
  <path d="M91.45 59.198v1.962" stroke="#0E0916" stroke-width=".757" stroke-linecap="round" stroke-linejoin="round"/>
  <path d="M91.45 64.629v12.138" stroke="#0E0916" stroke-width=".757" stroke-linecap="round" stroke-linejoin="round" stroke-dasharray="2.42 2.42"/>
  <path d="M91.45 78.501v1.962" stroke="#0E0916" stroke-width=".757" stroke-linecap="round" stroke-linejoin="round"/>
  <path fill-rule="evenodd" clip-rule="evenodd" d="M120.315 28.64c0 4.11 3.35 7.443 7.485 7.443 4.133 0 7.484-3.332 7.484-7.443s-3.351-7.445-7.484-7.445c-4.135 0-7.485 3.334-7.485 7.445z" fill="#FFEBDE"/>
  <path clip-rule="evenodd" d="M120.315 28.64c0 4.11 3.35 7.443 7.485 7.443 4.133 0 7.484-3.332 7.484-7.443s-3.351-7.445-7.484-7.445c-4.135 0-7.485 3.334-7.485 7.445z" stroke="#0E0916" stroke-width=".757" stroke-linecap="round" stroke-linejoin="round"/>
  <path fill-rule="evenodd" clip-rule="evenodd" d="M84.677 28.64c0 4.11 3.35 7.443 7.485 7.443 4.133 0 7.484-3.332 7.484-7.443s-3.35-7.445-7.484-7.445c-4.135 0-7.485 3.334-7.485 7.445z" fill="#EFFD95"/>
  <path clip-rule="evenodd" d="M84.677 28.64c0 4.11 3.35 7.443 7.485 7.443 4.133 0 7.484-3.332 7.484-7.443s-3.35-7.445-7.484-7.445c-4.135 0-7.485 3.334-7.485 7.445z" stroke="#0E0916" stroke-width=".757" stroke-linecap="round" stroke-linejoin="round"/>
  <path fill-rule="evenodd" clip-rule="evenodd" d="M49.04 28.64c0 4.11 3.35 7.443 7.484 7.443 4.135 0 7.485-3.332 7.485-7.443s-3.35-7.445-7.485-7.445-7.484 3.334-7.484 7.445z" fill="#FFD8BA"/>
  <path clip-rule="evenodd" d="M49.04 28.64c0 4.11 3.35 7.443 7.484 7.443 4.135 0 7.485-3.332 7.485-7.443s-3.35-7.445-7.485-7.445-7.484 3.334-7.484 7.445z" stroke="#0E0916" stroke-width=".757" stroke-linecap="round" stroke-linejoin="round"/>
  <path fill-rule="evenodd" clip-rule="evenodd" d="M69.644 102.632c0 12.007 9.764 21.74 21.804 21.74 12.043 0 21.805-9.733 21.805-21.74 0-12.007-9.762-21.74-21.805-21.74-12.04 0-21.803 9.733-21.803 21.74z" fill="#FFD8BA"/>
  <path clip-rule="evenodd" d="M69.644 102.632c0 12.007 9.764 21.74 21.804 21.74 12.043 0 21.805-9.733 21.805-21.74 0-12.007-9.762-21.74-21.805-21.74-12.04 0-21.803 9.733-21.803 21.74z" stroke="#0E0916" stroke-width=".757" stroke-linecap="round" stroke-linejoin="round"/>
  <path fill-rule="evenodd" clip-rule="evenodd" d="M97.508 106.848c0-2.744-1.644-4.346-4.854-5.565-2.41-.913-3.516-1.6-3.516-3.124 0-1.372 1.107-2.516 3.095-2.516 1.72 0 3.058.61 3.785 1.068l.838-2.439c-.968-.573-2.482-1.074-4.218-1.132v-3.162H90.26v3.393c-2.738.685-4.335 2.75-4.335 5.17 0 2.211 1.57 4.037 4.895 5.221 2.484.914 3.44 1.79 3.44 3.391 0 1.525-1.147 2.745-3.592 2.745-1.683 0-3.44-.686-4.436-1.336l-.839 2.555c1.228.719 2.97 1.196 4.867 1.247v2.922h2.38v-3.107c3.117-.606 4.869-2.637 4.869-5.331z" fill="#0E0916"/>
  <path fill-rule="evenodd" clip-rule="evenodd" d="M293.597 40.409c-1.107 15.794-14.88 27.707-30.763 26.606-15.884-1.101-27.861-14.799-26.753-30.594 1.107-15.794 14.879-27.707 30.762-26.605 15.883 1.1 27.861 14.797 26.754 30.593z" fill="#EFFD95"/>
  <path clip-rule="evenodd" d="M301.019 47.484c-1.064 15.187-14.307 26.64-29.578 25.58-15.268-1.058-26.785-14.228-25.722-29.413 1.066-15.187 14.307-26.639 29.578-25.581 15.27 1.06 26.787 14.228 25.722 29.414z" stroke="#0E0916" stroke-width=".757" stroke-linecap="round" stroke-linejoin="round"/>
  <path clip-rule="evenodd" d="M280.957 96.466l-43.94 17.594-17.691-43.7 43.941-17.592 17.69 43.698z" stroke="#0E0916" stroke-width=".757" stroke-linecap="round" stroke-linejoin="round"/>
  <path fill-rule="evenodd" clip-rule="evenodd" d="M289.983 100.33l-43.941 17.594-17.69-43.7 43.94-17.593 17.691 43.699z" fill="#FFD8BA"/>
  <path fill-rule="evenodd" clip-rule="evenodd" d="M301.536 202.055h-94.212c-6.474 0-11.444-5.711-10.514-12.083l11.524-78.982h91.57l12.133 78.902c.985 6.396-3.994 12.163-10.501 12.163z" fill="#140CA3"/>
  <path clip-rule="evenodd" d="M301.536 202.055h-94.211c-6.475 0-11.445-5.711-10.515-12.083l11.525-78.982h91.569l12.133 78.902c.985 6.396-3.993 12.163-10.501 12.163z" stroke="#0E0916" stroke-width=".757" stroke-linecap="round" stroke-linejoin="round"/>
  <path d="M230.346 119.294c0-51.265 48.264-51.265 48.264 0" stroke="#0E0916" stroke-width=".757" stroke-linecap="round" stroke-linejoin="round"/>
  <path fill-rule="evenodd" clip-rule="evenodd" d="M233.567 122.499a3.211 3.211 0 01-3.221 3.203 3.213 3.213 0 01-3.223-3.203 3.214 3.214 0 013.223-3.205 3.212 3.212 0 013.221 3.205z" fill="#E6E2FF"/>
  <path clip-rule="evenodd" d="M233.567 122.499a3.211 3.211 0 01-3.221 3.203 3.213 3.213 0 01-3.223-3.203 3.214 3.214 0 013.223-3.205 3.212 3.212 0 013.221 3.205z" stroke="#0E0916" stroke-width=".757"/>
  <path fill-rule="evenodd" clip-rule="evenodd" d="M281.833 122.499a3.213 3.213 0 01-3.222 3.203 3.212 3.212 0 01-3.222-3.203 3.213 3.213 0 013.222-3.205 3.214 3.214 0 013.222 3.205z" fill="#E6E2FF"/>
  <path clip-rule="evenodd" d="M281.833 122.499a3.213 3.213 0 01-3.222 3.203 3.212 3.212 0 01-3.222-3.203 3.213 3.213 0 013.222-3.205 3.214 3.214 0 013.222 3.205z" stroke="#0E0916" stroke-width=".757"/>
  <mask id="b" maskUnits="userSpaceOnUse" x="196" y="110" width="117" height="93">
    <path d="M208.335 110.989l-11.526 78.983c-.929 6.372 4.04 12.083 10.515 12.083h94.212c6.508 0 11.486-5.766 10.501-12.164l-12.133-78.902" fill="#fff"/>
  </mask>
  <g mask="url(#b)">
    <path d="M162.614 120.621c7.531 10.159 17.23 17.696 30.258 18.809 17.389 1.485 35.806-3.066 51.315-10.74 3.035-1.504 6.495-4.271 5.463-7.483-.659-2.054-2.907-3.106-4.969-3.775-16.489-5.339-35.889-.323-47.674 12.328-3.323 3.566-6.133 7.836-6.866 12.643-.735 4.808.988 10.194 5.093 12.836 2.279 1.465 5.031 1.977 7.713 2.389 18.789 2.885 37.928 2.299 56.754.077 16.763-1.977 39.837-1.527 53.331-13.273.664-.578 1.34-1.3 1.332-2.179-.013-1.201-1.256-1.973-2.356-2.476-23.382-10.67-51.404-6.339-75.184.533l-.744.216c-9.552 2.794-19.377 6.551-25.746 14.162-3.452 4.126-5.708 9.949-3.552 14.869 1.782 4.067 6.042 6.424 10.147 8.152 7.127 3.001 14.647 5.001 22.246 6.458 26.009 4.987 55.461 4.445 80.416-5.125a87.155 87.155 0 0010.462-4.824c5.161-2.809 6.075-6.852-.063-8.412-3.951-1.004-8.244-.988-12.296-.818a238.551 238.551 0 00-46.113 6.493c-7.071 1.713-14.191 3.81-20.231 7.85-2.447 1.637-4.887 3.987-4.837 6.92.034 2.009 1.262 3.81 2.673 5.248 4.118 4.196 9.926 6.254 15.606 7.821a143.315 143.315 0 0036.268 5.125 143.52 143.52 0 0018.329-.941c5.652-.658 11.462-1.21 16.576-3.895 3.942-2.068-.833-3.91-2.811-4.352-2.42-.544-4.996-.791-7.478-.798a142.552 142.552 0 00-27.826 2.659c-4.468.876-8.969 1.994-12.898 4.282-3.931 2.29-7.274 5.908-8.304 10.321" stroke="#FFD8BA" stroke-width=".757"/>
  </g>
  <path fill-rule="evenodd" clip-rule="evenodd" d="M99.567 169.355l20.845-20.73-5.45-5.422-20.845 20.731 5.45 5.421z" fill="#A19FD8"/>
  <path clip-rule="evenodd" d="M99.567 169.355l20.845-20.73-5.45-5.422-20.845 20.731 5.45 5.421z" stroke="#0E0916" stroke-width=".757" stroke-linecap="round" stroke-linejoin="round"/>
  <path fill-rule="evenodd" clip-rule="evenodd" d="M71.002 201.343l37.137-36.931a1.002 1.002 0 000-1.421l-7.624-7.581a1.015 1.015 0 00-1.429 0L61.95 192.342a.998.998 0 000 1.42l7.624 7.581a1.015 1.015 0 001.428 0z" fill="#140CA3"/>
  <path clip-rule="evenodd" d="M71.002 201.343l37.137-36.931a1.002 1.002 0 000-1.421l-7.624-7.581a1.015 1.015 0 00-1.429 0L61.95 192.342a.998.998 0 000 1.42l7.624 7.581a1.015 1.015 0 001.428 0z" stroke="#0E0916" stroke-width=".757" stroke-linecap="round" stroke-linejoin="round"/>
  <path fill-rule="evenodd" clip-rule="evenodd" d="M103.899 120.142c0 21.687 17.68 39.269 39.488 39.269s39.486-17.582 39.486-39.269c0-21.688-17.678-39.27-39.486-39.27-21.808 0-39.488 17.582-39.488 39.27z" fill="#BCD7FE"/>
  <path clip-rule="evenodd" d="M103.899 120.142c0 21.687 17.68 39.269 39.488 39.269s39.486-17.582 39.486-39.269c0-21.688-17.678-39.27-39.486-39.27-21.808 0-39.488 17.582-39.488 39.27z" stroke="#0E0916" stroke-width=".757" stroke-linecap="round" stroke-linejoin="round"/>
  <path fill-rule="evenodd" clip-rule="evenodd" d="M112.326 120.189c0 17.059 13.907 30.889 31.061 30.889 17.153 0 31.06-13.83 31.06-30.889 0-17.058-13.907-30.889-31.06-30.889-17.154 0-31.061 13.831-31.061 30.889z" fill="#fff"/>
  <path clip-rule="evenodd" d="M112.326 120.189c0 17.059 13.907 30.889 31.061 30.889 17.153 0 31.06-13.83 31.06-30.889 0-17.058-13.907-30.889-31.06-30.889-17.154 0-31.061 13.831-31.061 30.889z" stroke="#0E0916" stroke-width=".757" stroke-linecap="round" stroke-linejoin="round"/>
  <path fill-rule="evenodd" clip-rule="evenodd" d="M126.024 133.721h6.491v-14.47h-6.491v14.47z" fill="#F2F0FF"/>
  <path clip-rule="evenodd" d="M126.024 133.721h6.491v-14.47h-6.491v14.47z" stroke="#0E0916" stroke-width=".706" stroke-linecap="round" stroke-linejoin="round"/>
  <path fill-rule="evenodd" clip-rule="evenodd" d="M134.394 133.722h6.491v-20.919h-6.491v20.919z" fill="#BC99FF"/>
  <path clip-rule="evenodd" d="M134.394 133.722h6.491v-20.919h-6.491v20.919z" stroke="#0E0916" stroke-width=".706" stroke-linecap="round" stroke-linejoin="round"/>
  <path fill-rule="evenodd" clip-rule="evenodd" d="M142.765 133.722h6.491V107.16h-6.491v26.562z" fill="#140CA3"/>
  <path clip-rule="evenodd" d="M142.765 133.722h6.491V107.16h-6.491v26.562z" stroke="#0E0916" stroke-width=".706" stroke-linecap="round" stroke-linejoin="round"/>
  <path fill-rule="evenodd" clip-rule="evenodd" d="M151.134 133.722h6.491v-30.739h-6.491v30.739z" fill="#BC99FF"/>
  <path clip-rule="evenodd" d="M151.134 133.722h6.491v-30.739h-6.491v30.739z" stroke="#0E0916" stroke-width=".706" stroke-linecap="round" stroke-linejoin="round"/>
  <path d="M121.724 133.722h40.432" stroke="#0E0916" stroke-width=".706" stroke-linecap="round" stroke-linejoin="round"/>
  <path d="M473.147 202.259H.939" stroke="#0E0916" stroke-width=".757" stroke-linecap="round" stroke-linejoin="round"/>
  <path fill-rule="evenodd" clip-rule="evenodd" d="M383.216 202.316h-51.068c-5.539 0-10.029-4.465-10.029-9.975v-91.555c0-5.51 4.49-9.975 10.029-9.975h51.068c5.539 0 10.029 4.465 10.029 9.975v91.555c0 5.51-4.49 9.975-10.029 9.975z" fill="#fff"/>
  <path clip-rule="evenodd" d="M383.216 202.316h-51.068c-5.539 0-10.029-4.465-10.029-9.975v-91.555c0-5.51 4.49-9.975 10.029-9.975h51.068c5.539 0 10.029 4.465 10.029 9.975v91.555c0 5.51-4.49 9.975-10.029 9.975z" stroke="#0E0916" stroke-width=".757" stroke-linecap="round" stroke-linejoin="round"/>
  <path fill-rule="evenodd" clip-rule="evenodd" d="M382.731 199.782h-50.096c-4.203 0-7.61-3.388-7.61-7.568v-91.302c0-4.18 3.407-7.568 7.61-7.568h50.096c4.203 0 7.61 3.388 7.61 7.568v91.302c0 4.18-3.407 7.568-7.61 7.568z" fill="#F2F0FF"/>
  <path clip-rule="evenodd" d="M382.731 199.782h-50.096c-4.203 0-7.61-3.388-7.61-7.568v-91.302c0-4.18 3.407-7.568 7.61-7.568h50.096c4.203 0 7.61 3.388 7.61 7.568v91.302c0 4.18-3.407 7.568-7.61 7.568z" stroke="#0E0916" stroke-width=".757"/>
  <path fill-rule="evenodd" clip-rule="evenodd" d="M325.053 112.719h65.257v-8.524h-65.257v8.524z" fill="#F2F0FF"/>
  <path clip-rule="evenodd" d="M325.053 112.719h65.257v-8.524h-65.257v8.524z" stroke="#0E0916" stroke-width=".757" stroke-linecap="round" stroke-linejoin="round"/>
  <path fill-rule="evenodd" clip-rule="evenodd" d="M331.363 180.747h52.64v-7.202h-52.64v7.202z" fill="#E6E2FF"/>
  <path clip-rule="evenodd" d="M331.363 180.747h52.64v-7.202h-52.64v7.202z" stroke="#0E0916" stroke-width=".757" stroke-linecap="round" stroke-linejoin="round"/>
  <path fill-rule="evenodd" clip-rule="evenodd" d="M351.137 192.642h32.629v-7.201h-32.629v7.201z" fill="#E6E2FF"/>
  <path clip-rule="evenodd" d="M351.137 192.642h32.629v-7.201h-32.629v7.201z" stroke="#0E0916" stroke-width=".757" stroke-linecap="round" stroke-linejoin="round"/>
  <path fill-rule="evenodd" clip-rule="evenodd" d="M331.598 192.642h14.479v-7.201h-14.479v7.201z" fill="#E6E2FF"/>
  <path clip-rule="evenodd" d="M331.598 192.642h14.479v-7.201h-14.479v7.201z" stroke="#0E0916" stroke-width=".757" stroke-linecap="round" stroke-linejoin="round"/>
  <path fill-rule="evenodd" clip-rule="evenodd" d="M331.598 167.195h52.168V118.24h-52.168v48.955z" fill="#E6E2FF"/>
  <path fill-rule="evenodd" clip-rule="evenodd" d="M351.4 162.442v-9.875l.025-.064c-2.293-.331-3.878-1.946-4.906-3.897-3.204-6.084.372-17.286.405-17.525l4.683-2.179 9.963 1.603 8.909 9.908-2.946 23.582-16.133-1.553z" fill="#FFEBDE"/>
  <path clip-rule="evenodd" d="M351.4 162.442v-9.875l.025-.064c-2.293-.331-3.878-1.946-4.906-3.897-3.204-6.084.372-17.286.405-17.525l4.683-2.179 9.963 1.603 8.909 9.908-2.946 23.582-16.133-1.553z" stroke="#0E0916" stroke-width=".757"/>
  <path d="M353.263 149.16c2.077.698 2.81-1.331 2.81-1.331M351.4 152.567v6.34" stroke="#340096" stroke-width=".757" stroke-linecap="round" stroke-linejoin="round"/>
  <path fill-rule="evenodd" clip-rule="evenodd" d="M369.991 135.112c1.112-3.392-2.709-7.422-5.841-7.706-.47-.042-.984-2.281-3.519-3.057-2.084-.638-7.914-.296-8.629 1.58.13-.836-7.071.315-7.609 4.224-.383 2.774.806 3.733 1.762 4.324 3.243 2.003.465-.114 5.742-3.152-3.648 8.841 10.134 10.315 12.158 9.747 1.953-.545 3.271-.152 3.766 1.657.698 2.566-3 3.778-3 3.778l-.297 10.248c1.799.805 7.12 7.586 9.66 7.352 3.439-.315-2.841-7.308-2.438-11.539.682-7.177 1.371-15.944-1.755-17.456z" fill="#340096"/>
  <path d="M346.925 131.082c-.034.239-3.61 11.44-.406 17.523 1.593 3.023 4.52 5.236 9.349 3.128" stroke="#340096" stroke-width=".757" stroke-linecap="round" stroke-linejoin="round"/>
  <mask id="c" maskUnits="userSpaceOnUse" x="331" y="155" width="53" height="13">
    <path d="M331.598 155.876h52.17v11.32h-52.17v-11.32z" fill="#fff"/>
  </mask>
  <g mask="url(#c)">
    <path fill-rule="evenodd" clip-rule="evenodd" d="M326.354 164.806s12.249-11.578 24.968-8.366c.539 1.271 5.533 4.08 13.41.454 14.182 2.155 15.674 2.718 18.655 5.856 2.861 3.013 1.243 7.949 1.243 7.949h-66.176l7.9-5.893z" fill="#BC99FF"/>
  </g>
  <mask id="d" maskUnits="userSpaceOnUse" x="331" y="155" width="53" height="13">
    <path d="M331.598 155.876h52.17v11.32h-52.17v-11.32z" fill="#fff"/>
  </mask>
  <g mask="url(#d)">
    <path clip-rule="evenodd" d="M326.354 164.806s12.249-11.578 24.968-8.366c.539 1.271 5.533 4.08 13.41.454 14.182 2.155 15.674 2.718 18.655 5.856 2.861 3.013 1.243 7.949 1.243 7.949h-66.176l7.9-5.893z" stroke="#340096" stroke-width=".757" stroke-linecap="round" stroke-linejoin="round"/>
  </g>
  <path d="M365.13 144.7s1.316-.192 1.405-1.354c.088-1.136-1.361-1.202-1.361-1.202" stroke="#340096" stroke-width=".757" stroke-linecap="round" stroke-linejoin="round"/>
  <path fill-rule="evenodd" clip-rule="evenodd" d="M350.533 140.961a3.21 3.21 0 01-3.221 3.203 3.212 3.212 0 01-3.222-3.203 3.213 3.213 0 013.222-3.203 3.212 3.212 0 013.221 3.203z" fill="#fff"/>
  <path clip-rule="evenodd" d="M350.533 140.961a3.21 3.21 0 01-3.221 3.203 3.212 3.212 0 01-3.222-3.203 3.213 3.213 0 013.222-3.203 3.212 3.212 0 013.221 3.203z" stroke="#340096" stroke-width=".757" stroke-linecap="round" stroke-linejoin="round"/>
  <path fill-rule="evenodd" clip-rule="evenodd" d="M347.844 141.147s-.758-.347-1.561-.016l1.561.016z" fill="#E2E4E8"/>
  <path d="M347.844 141.147s-.758-.347-1.561-.016" stroke="#340096" stroke-width=".757" stroke-linecap="round" stroke-linejoin="round"/>
  <path fill-rule="evenodd" clip-rule="evenodd" d="M358.923 140.961a3.211 3.211 0 01-3.221 3.203 3.212 3.212 0 01-3.222-3.203 3.213 3.213 0 013.222-3.203 3.213 3.213 0 013.221 3.203z" fill="#fff"/>
  <path clip-rule="evenodd" d="M358.923 140.961a3.211 3.211 0 01-3.221 3.203 3.212 3.212 0 01-3.222-3.203 3.213 3.213 0 013.222-3.203 3.213 3.213 0 013.221 3.203z" stroke="#340096" stroke-width=".757" stroke-linecap="round" stroke-linejoin="round"/>
  <path fill-rule="evenodd" clip-rule="evenodd" d="M356.234 141.147s-.758-.347-1.561-.016l1.561.016z" fill="#E2E4E8"/>
  <path d="M356.234 141.147s-.758-.347-1.561-.016M351.239 142.446s-.843 2.997.205 3.564c0 0 .532.282 1.227.071M352.48 140.961h-1.946" stroke="#340096" stroke-width=".757" stroke-linecap="round" stroke-linejoin="round"/>
  <path clip-rule="evenodd" d="M331.598 167.195h52.168V118.24h-52.168v48.955z" stroke="#0E0916" stroke-width=".757" stroke-linecap="round" stroke-linejoin="round"/>
  <path fill-rule="evenodd" clip-rule="evenodd" d="M337.458 90.81c.46 0 .833.372.833.83v1.54a2.99 2.99 0 002.998 2.981h32.787a2.989 2.989 0 002.997-2.98V91.64c0-.458.374-.83.835-.83h-40.45z" fill="#E1DFEB"/>
  <path clip-rule="evenodd" d="M337.458 90.81c.46 0 .833.372.833.83v1.54a2.99 2.99 0 002.998 2.981h32.787a2.989 2.989 0 002.997-2.98V91.64c0-.458.374-.83.835-.83h-40.45z" stroke="#0E0916" stroke-width=".757" stroke-linecap="round"/>
  <path d="M353.872 93.267h7.62" stroke="#0E0916" stroke-width=".757" stroke-linecap="round"/>
  <path fill-rule="evenodd" clip-rule="evenodd" d="M313.707 178.179h-40.182a2.495 2.495 0 01-2.501-2.487v-12.413a2.495 2.495 0 012.501-2.487h40.182a2.494 2.494 0 012.501 2.487v12.413a2.494 2.494 0 01-2.501 2.487z" fill="#EFFD95"/>
  <path clip-rule="evenodd" d="M313.707 178.179h-40.182a2.495 2.495 0 01-2.501-2.487v-12.413a2.495 2.495 0 012.501-2.487h40.182a2.494 2.494 0 012.501 2.487v12.413a2.494 2.494 0 01-2.501 2.487z" stroke="#0E0916" stroke-width=".757" stroke-linecap="round" stroke-linejoin="round"/>
  <path fill-rule="evenodd" clip-rule="evenodd" d="M325.269 227.846c-4.437-9.398-6.071-13.106-6.446-13.143-2.114-.21-8.181-1.99-7.945-8.058.078-1.977 1.531-3.867 3.422-4.484l.086.001c-1.534-4.525-1.816-4.887-3.308-9.425-2.181-6.635-5.588-21.976-2.701-20.501 4.004 2.046 8.785 18.511 8.812 17.296.029-1.214 1.195-2.296 2.488-2.296 2.438 0 2.797 1.728 3.948 1.963.979.201 1.936-1.435 4.017-.505 1.175.528 1.55 2.008 1.731 2.412.417.926.715.579 2.188.33 2.438-.414 3.967 1.82 4.131 4.108 1.271 17.692 7.285 28.177 6.995 28.366" fill="#FFEBDE"/>
  <path d="M325.269 227.846c-4.437-9.398-6.071-13.106-6.446-13.143-2.114-.21-8.181-1.99-7.945-8.058.078-1.977 1.531-3.867 3.422-4.484l.086.001c-1.534-4.525-1.816-4.887-3.308-9.425-2.181-6.635-5.588-21.976-2.701-20.501 4.004 2.046 8.785 18.511 8.812 17.296.029-1.214 1.195-2.296 2.488-2.296 2.438 0 2.797 1.728 3.948 1.963.979.201 1.936-1.435 4.017-.505 1.175.528 1.55 2.008 1.731 2.412.417.926.715.579 2.188.33 2.438-.414 3.967 1.82 4.131 4.108 1.271 17.692 7.285 28.177 6.995 28.366" stroke="#0E0916" stroke-width=".757" stroke-linecap="round" stroke-linejoin="round"/>
  <path fill-rule="evenodd" clip-rule="evenodd" d="M323.712 231l-4.292-11.368 23.123-6.118L350.654 231" fill="#FFD8BA"/>
  <path d="M323.712 231l-4.292-11.368 23.123-6.118L350.654 231M313.781 200.382l1.725 4.735" stroke="#0E0916" stroke-width=".757" stroke-linecap="round" stroke-linejoin="round"/>
  <path fill-rule="evenodd" clip-rule="evenodd" d="M287.108 171.842c.384 0 .66-.094.829-.282a.974.974 0 00.252-.67c0-.702-.46-1.055-1.379-1.055h-1.638v2.007h1.936zm-.39-3.143c.397 0 .7-.079.911-.235a.766.766 0 00.314-.646c0-.58-.345-.871-1.031-.871h-1.74v1.752h1.546zm-2.781-2.888h2.944c.804 0 1.389.181 1.756.542.367.362.551.819.551 1.373 0 .682-.309 1.174-.926 1.474.398.143.694.367.89.671.196.305.294.634.294.988 0 .574-.198 1.07-.592 1.491-.395.419-1.001.629-1.817.629h-3.1v-7.168zM294.285 173.102c-.391 0-.749-.05-1.07-.149a2.646 2.646 0 01-.887-.471 2.122 2.122 0 01-.627-.891c-.152-.378-.226-.827-.226-1.347v-4.433h1.235v4.433c0 .622.135 1.058.407 1.306.271.25.659.375 1.168.375.508 0 .897-.127 1.168-.38.271-.252.407-.686.407-1.301v-4.433h1.236v4.433c0 .513-.074.958-.221 1.337-.149.378-.354.676-.618.891a2.62 2.62 0 01-.886.475 3.566 3.566 0 01-1.086.155zM301.421 172.978v-2.805l-2.594-4.363h1.4l1.812 3.103 1.813-3.103h1.4l-2.605 4.363v2.805h-1.226z" fill="#0E0916"/>
</svg>
