<svg width="104" height="24" viewBox="0 0 104 24" fill="none" xmlns="http://www.w3.org/2000/svg">
<path d="M84.8448 5.02638H88.1797V17.8267H84.8448V16.5185C83.7842 17.6188 82.5233 18.1568 81.0385 18.1568C79.2827 18.1568 77.8215 17.5088 76.6667 16.2129C75.5236 14.9047 74.958 13.2909 74.958 11.3593C74.958 9.43986 75.5472 7.85052 76.6903 6.59127C77.8333 5.33202 79.3063 4.69629 81.0385 4.69629C82.5233 4.69629 83.7842 5.25867 84.8448 6.38343V5.02638ZM79.377 13.8289C79.9898 14.4768 80.7322 14.8069 81.6513 14.8069C82.5705 14.8069 83.3129 14.4768 83.9256 13.8044C84.5384 13.132 84.8448 12.3373 84.8448 11.396C84.8448 10.4668 84.5266 9.67214 83.9256 9.01196C83.3129 8.35177 82.5705 8.0339 81.6513 8.0339C80.7322 8.0339 79.9898 8.36399 79.377 9.01196C78.7878 9.65992 78.4932 10.4546 78.4932 11.396C78.4932 12.3496 78.7878 13.1442 79.377 13.8289Z" fill="#2250FF"/>
<path d="M99.2803 5.02661H103.11L98.2198 18.1692C96.9589 21.5557 95.2973 23.2673 92.6577 23.2673C91.6443 23.2673 90.8076 23.0351 90.1595 22.5949L90.8076 19.563C91.3497 19.8686 91.8918 20.0031 92.4103 20.0031C93.3765 20.0031 94.1896 19.3551 94.8024 18.047L94.9556 17.668L89.5703 5.02661H93.6476L96.6171 12.9489L99.2803 5.02661Z" fill="#2250FF"/>
<path d="M72.0238 6.6524C70.8807 5.34425 69.4313 4.69629 67.6755 4.69629C66.1907 4.69629 64.9298 5.28312 63.9164 6.44456V5.01416H60.499V21.7389L63.9164 22.5336V16.5185C64.9298 17.6188 66.2143 18.1568 67.6755 18.1568C69.4077 18.1568 70.8572 17.5088 72.0002 16.2007C73.1433 14.8925 73.7324 13.3032 73.7324 11.4082C73.7324 9.52544 73.1668 7.9361 72.0238 6.6524ZM67.0156 14.7825C65.189 14.7825 63.9046 13.3154 63.9046 11.4204C63.9046 10.4913 64.1992 9.6966 64.7884 9.06086C65.3776 8.4129 66.12 8.08281 67.0156 8.08281C67.9347 8.08281 68.6771 8.4129 69.2663 9.06086C69.8555 9.6966 70.1501 10.4913 70.1501 11.4204C70.1501 13.3154 68.8421 14.7825 67.0156 14.7825Z" fill="#2250FF"/>
<path d="M46.205 16.1885C47.348 17.4967 48.7974 18.1447 50.5533 18.1447C52.038 18.1447 53.2989 17.5578 54.3124 16.3964V17.8268H57.7297V1.10204L54.3124 0.307373V6.32241C53.2989 5.2221 52.0145 4.68417 50.5533 4.68417C48.821 4.68417 47.3716 5.33213 46.2285 6.64028C45.0855 7.94843 44.4963 9.53777 44.4963 11.4327C44.4845 13.3155 45.0501 14.9048 46.205 16.1885ZM51.2014 8.05846C53.0279 8.05846 54.3124 9.52554 54.3124 11.4205C54.3124 12.3497 54.0178 13.1443 53.4286 13.7801C52.8394 14.428 52.097 14.7581 51.2014 14.7581C50.2822 14.7581 49.5398 14.428 48.9506 13.7801C48.3614 13.1443 48.0668 12.3497 48.0668 11.4205C48.0668 9.52554 49.3749 8.05846 51.2014 8.05846Z" fill="#2250FF"/>
<path d="M39.253 5.02638H42.5879V17.8267H39.253V16.5185C38.1924 17.6188 36.9315 18.1568 35.4468 18.1568C33.6909 18.1568 32.2297 17.5088 31.0749 16.2129C29.9318 14.9047 29.3662 13.2909 29.3662 11.3593C29.3662 9.43986 29.9554 7.85052 31.0985 6.59127C32.2415 5.33202 33.7145 4.69629 35.4468 4.69629C36.9315 4.69629 38.1924 5.25867 39.253 6.38343V5.02638ZM33.7734 13.8289C34.3862 14.4768 35.1286 14.8069 36.0477 14.8069C36.9669 14.8069 37.7093 14.4768 38.3221 13.8044C38.9348 13.132 39.2412 12.3373 39.2412 11.396C39.2412 10.4668 38.923 9.67214 38.3221 9.01196C37.7093 8.35177 36.9669 8.0339 36.0477 8.0339C35.1286 8.0339 34.3862 8.36399 33.7734 9.01196C33.1842 9.65992 32.8896 10.4546 32.8896 11.396C32.9014 12.3496 33.1842 13.1442 33.7734 13.8289Z" fill="#2250FF"/>
<path d="M16.0029 12.3376V5.02661H19.5381V12.362C19.5381 13.8291 20.3748 14.7949 21.7889 14.7949C23.203 14.7949 24.0396 13.8413 24.0396 12.362V5.02661H27.5748V12.3376C27.5748 16.0542 25.3948 18.157 21.7889 18.157C18.2183 18.1448 16.0029 16.0053 16.0029 12.3376Z" fill="#2250FF"/>
<path d="M15.06 17.839L14.3411 14.5136H6.43406H6.4105C4.63111 14.5014 3.20525 12.9976 3.20525 11.1516C3.20525 9.29326 4.65468 7.7895 6.44585 7.7895C8.23702 7.7895 9.68645 9.29326 9.68645 11.1516V13.2666H12.8917V10.9804C12.8092 7.3616 9.95748 4.46411 6.44585 4.46411C2.88708 4.46411 0 7.4594 0 11.1516C0 14.8437 2.87529 17.8268 6.43406 17.839H9.66288V21.6779L12.8917 22.4237V17.839H15.06Z" fill="#2250FF"/>
</svg>
