<svg viewBox="0 0 66 50" fill="none" xmlns="http://www.w3.org/2000/svg">
  <path fill-rule="evenodd" clip-rule="evenodd" d="M10.646 49H65V12.997H10.646V49z" fill="#D5BFFF"/>
  <path clip-rule="evenodd" d="M10.646 49H65V12.997H10.646V49z" stroke="#0E0916" stroke-linecap="round" stroke-linejoin="round"/>
  <path fill-rule="evenodd" clip-rule="evenodd" d="M37.823 10.03c-8.962-3.358-17.531-3.218-25.755 0v36.996c8.586-3.86 17.17-3.86 25.755 0 8.585-3.86 17.17-3.86 25.756 0V10.03c-8.963-3.358-17.532-3.218-25.756 0z" fill="#F2F0FF"/>
  <mask id="a" maskUnits="userSpaceOnUse" x="12" y="7" width="52" height="41">
    <path d="M37.823 10.03c-8.964-3.359-17.533-3.219-25.755 0v36.995c8.585-3.86 17.17-3.86 25.755 0 8.585-3.86 17.17-3.86 25.754 0V10.029c-4.432-1.661-8.77-2.465-13.017-2.465-4.338-.002-8.581.839-12.737 2.465z" fill="#fff"/>
  </mask>
  <g mask="url(#a)">
    <path d="M28.368 27.432c2.933 4.028 6.715 7.02 11.79 7.461 6.778.59 13.956-1.217 20-4.26 1.183-.597 2.53-1.695 2.128-2.968-.257-.816-1.134-1.234-1.936-1.499-6.427-2.117-13.987-.127-18.579 4.89-1.295 1.415-2.39 3.11-2.676 5.017-.287 1.905.386 4.042 1.985 5.09.888.583 1.96.786 3.007.948 7.321 1.145 14.78.912 22.117.032 6.532-.786 15.524-.606 20.784-5.266.258-.23.521-.515.518-.863-.005-.478-.49-.785-.918-.982-9.113-4.235-20.033-2.516-29.3.209-.096.03-.194.059-.29.087-3.722 1.107-7.551 2.598-10.033 5.618-1.346 1.636-2.225 3.946-1.385 5.898.695 1.614 2.355 2.548 3.955 3.233 2.777 1.192 5.709 1.984 8.668 2.563 10.136 1.977 21.615 1.762 31.34-2.033a33.752 33.752 0 004.078-1.915c2.01-1.113 2.367-2.717-.025-3.336-1.54-.398-3.214-.392-4.794-.325a91.552 91.552 0 00-17.97 2.575c-2.754.68-5.531 1.513-7.884 3.114-.953.65-1.905 1.584-1.884 2.746.014.797.491 1.511 1.04 2.082 1.606 1.665 3.87 2.48 6.083 3.102a54.933 54.933 0 0021.277 1.66c2.204-.26 4.467-.48 6.461-1.546 1.534-.82-.326-1.55-1.098-1.727a13.542 13.542 0 00-2.912-.315 54.676 54.676 0 00-10.845 1.054c-1.74.347-3.495.79-5.026 1.7-1.532.907-2.834 2.342-3.236 4.093" stroke="#2250FF"/>
  </g>
  <path clip-rule="evenodd" d="M37.823 47.169c-8.584-3.86-17.169-3.86-25.755 0V10.173c8.224-3.217 16.793-3.36 25.755 0V47.17zM63.582 47.169c-8.585-3.86-17.17-3.86-25.756 0V10.173c8.224-3.217 16.793-3.36 25.756 0V47.17z" stroke="#0E0916" stroke-linecap="round" stroke-linejoin="round"/>
  <path fill-rule="evenodd" clip-rule="evenodd" d="M24.726 19.597s-3.445 3.318-5.304 5.442c2.566.886 5.01 1.773 6.85 2.455l1.603-1.907-3.15-5.99z" fill="#FBFBFC"/>
  <path clip-rule="evenodd" d="M24.726 19.597s-3.445 3.318-5.304 5.442c2.566.886 5.01 1.773 6.85 2.455l1.603-1.907-3.15-5.99z" stroke="#340096" stroke-linecap="round" stroke-linejoin="round"/>
  <path fill-rule="evenodd" clip-rule="evenodd" d="M27.873 25.586l-1.602 1.908c1.966.727 3.246 1.22 3.246 1.22l-1.644-3.128z" fill="#2250FF"/>
  <path clip-rule="evenodd" d="M27.873 25.586l-1.602 1.908c1.966.727 3.246 1.22 3.246 1.22l-1.644-3.128z" stroke="#340096" stroke-linecap="round" stroke-linejoin="round"/>
  <path fill-rule="evenodd" clip-rule="evenodd" d="M3.659 9.06l5.477-5.546L24.73 19.597l-5.313 5.442L3.659 9.062z" fill="#2250FF"/>
  <path clip-rule="evenodd" d="M3.659 9.06l5.477-5.546L24.73 19.597l-5.313 5.442L3.659 9.062z" stroke="#340096" stroke-linecap="round" stroke-linejoin="round"/>
  <path fill-rule="evenodd" clip-rule="evenodd" d="M1.078 6.548C.542 3.515 2.809.999 6.556.999l2.902 2.934C7.629 5.779 5.802 7.63 3.973 9.48c-.964-.979-1.928-1.956-2.895-2.932z" fill="#FFD8BA"/>
  <path clip-rule="evenodd" d="M1.078 6.548C.542 3.515 2.809.999 6.556.999l2.902 2.934C7.629 5.779 5.802 7.63 3.973 9.48c-.964-.979-1.928-1.956-2.895-2.932z" stroke="#340096" stroke-linecap="round" stroke-linejoin="round"/>
  <path fill-rule="evenodd" clip-rule="evenodd" d="M3.144 8.64a102.052 102.052 0 015.48-5.551l2.9 2.934c-1.828 1.846-3.655 3.699-5.48 5.547-.965-.979-1.935-1.955-2.9-2.93z" fill="#F2F0FF"/>
  <path clip-rule="evenodd" d="M3.144 8.64a102.052 102.052 0 015.48-5.551l2.9 2.934c-1.828 1.846-3.655 3.699-5.48 5.547-.965-.979-1.935-1.955-2.9-2.93z" stroke="#340096" stroke-linecap="round" stroke-linejoin="round"/>
</svg>