<svg width="24" height="24" viewBox="0 0 24 24" fill="none" xmlns="http://www.w3.org/2000/svg">
<g clip-path="url(#clip0)">
<path d="M10.125 3.375C10.125 4.07119 10.4015 4.73887 10.8938 5.23116C11.3861 5.72344 12.0538 6 12.75 6C13.4462 6 14.1139 5.72344 14.6061 5.23116C15.0984 4.73887 15.375 4.07119 15.375 3.375C15.375 2.67881 15.0984 2.01113 14.6061 1.51884C14.1139 1.02656 13.4462 0.75 12.75 0.75C12.0538 0.75 11.3861 1.02656 10.8938 1.51884C10.4015 2.01113 10.125 2.67881 10.125 3.375V3.375Z" stroke="black" stroke-width="1.5" stroke-linecap="round" stroke-linejoin="round"/>
<path d="M20.544 5.27902C20.3507 5.23958 20.1516 5.23879 19.9581 5.27669C19.7645 5.3146 19.5804 5.39044 19.4163 5.49987C19.2522 5.60929 19.1114 5.75011 19.002 5.91422C18.8927 6.07833 18.8168 6.26247 18.779 6.45602C18.6544 7.08953 18.2871 7.64926 17.7556 8.0158C17.2241 8.38235 16.5704 8.52668 15.934 8.41802L7.78699 7.25002C6.58325 7.05798 5.35128 7.325 4.33509 7.9982C3.31889 8.67141 2.59257 9.7017 2.29999 10.885C2.25204 11.0761 2.2422 11.2747 2.27104 11.4696C2.29987 11.6645 2.3668 11.8518 2.46802 12.0208C2.56924 12.1898 2.70276 12.3372 2.86095 12.4546C3.01914 12.572 3.19891 12.6571 3.38999 12.705C3.50974 12.7346 3.63262 12.7497 3.75599 12.75C4.08842 12.7476 4.41064 12.6348 4.67201 12.4294C4.93338 12.2239 5.1191 11.9375 5.19999 11.615C5.30983 11.1526 5.59263 10.7498 5.99027 10.4894C6.38792 10.229 6.87019 10.1308 7.33799 10.215L9.26798 10.492L7.99999 14.908C7.93296 15.2037 7.77743 15.472 7.55412 15.6771C7.3308 15.8822 7.05031 16.0143 6.74999 16.056L3.53599 16.515C3.14214 16.5714 2.78681 16.7819 2.54817 17.1002C2.30953 17.4186 2.20713 17.8187 2.26349 18.2125C2.31984 18.6064 2.53035 18.9617 2.84869 19.2003C3.16703 19.439 3.56714 19.5414 3.96099 19.485L7.17499 19.027C7.94965 18.9203 8.68279 18.6123 9.3013 18.1338C9.9198 17.6553 10.4021 17.023 10.7 16.3L11.363 16.49C11.708 16.5864 12.0067 16.804 12.2042 17.1029C12.4016 17.4018 12.4847 17.7619 12.438 18.117L12.008 21.567C11.9785 21.7648 11.9888 21.9665 12.0384 22.1602C12.088 22.3539 12.1758 22.5358 12.2967 22.6951C12.4176 22.8544 12.5692 22.9879 12.7424 23.0878C12.9156 23.1876 13.1071 23.2519 13.3055 23.2767C13.504 23.3015 13.7053 23.2863 13.8978 23.2322C14.0903 23.178 14.2701 23.0859 14.4264 22.9613C14.5828 22.8367 14.7127 22.682 14.8085 22.5065C14.9042 22.3309 14.9639 22.138 14.984 21.939L15.415 18.491C15.5548 17.4243 15.3058 16.3429 14.7136 15.4448C14.1213 14.5466 13.2255 13.8918 12.19 13.6L11.551 13.418L12.271 10.924L15.489 11.385C16.8876 11.6074 18.318 11.2794 19.4799 10.4698C20.6419 9.66022 21.4451 8.43206 21.721 7.04302C21.7987 6.65304 21.7184 6.24815 21.4977 5.91737C21.2769 5.58659 20.9339 5.35699 20.544 5.27902V5.27902Z" stroke="black" stroke-width="1.5" stroke-linecap="round" stroke-linejoin="round"/>
<path d="M18 3L19.211 5.664" stroke="black" stroke-width="1.5" stroke-linecap="round" stroke-linejoin="round"/>
<path d="M20.803 9.16699L21.75 11.25" stroke="black" stroke-width="1.5" stroke-linecap="round" stroke-linejoin="round"/>
</g>
<defs>
<clipPath id="clip0">
<rect width="24" height="24" fill="white"/>
</clipPath>
</defs>
</svg>
