<svg width="155" height="33" viewBox="0 0 155 33" fill="none" xmlns="http://www.w3.org/2000/svg">
<path d="M17.679 9.07065H16.175L12.719 1.07061L14.191 0.430603L16.911 6.73464L19.631 0.430603L21.135 1.07061L17.679 9.07065Z" fill="white"/>
<path d="M19.631 32.4306L16.911 26.1586L14.191 32.4306L12.719 31.7906L16.175 23.7906H17.679L21.135 31.7906L19.631 32.4306Z" fill="white"/>
<path d="M11.1827 11.7588L3.08667 8.55878L3.69467 7.05477L10.0627 9.55079L7.53469 3.21475L9.0387 2.60675L12.2387 10.7028L11.1827 11.7588Z" fill="white" fill-opacity="0.4"/>
<path d="M24.8145 30.2549L21.6145 22.1588L22.6705 21.1348L30.7665 24.3348L30.1585 25.8388L23.7905 23.3108L26.3185 29.6789L24.8145 30.2549Z" fill="white" fill-opacity="0.4"/>
<path d="M1.58287 20.6228L0.942871 19.1508L7.2149 16.4308L0.942871 13.7108L1.58287 12.2388L9.55091 15.6948V17.1668L1.58287 20.6228Z" fill="white"/>
<path d="M32.2708 20.6229L24.3027 17.1669V15.6948L32.2708 12.2388L32.9108 13.7108L26.6387 16.4309L32.9108 19.1509L32.2708 20.6229Z" fill="white"/>
<path d="M9.0387 30.2549L7.53469 29.6789L10.0627 23.3108L3.69467 25.8388L3.08667 24.3348L11.1827 21.1348L12.2387 22.1588L9.0387 30.2549Z" fill="white" fill-opacity="0.4"/>
<path d="M22.6705 11.7588L21.6145 10.7028L24.8145 2.60675L26.3185 3.21475L23.7905 9.55079L30.1585 7.05477L30.7665 8.55878L22.6705 11.7588Z" fill="white" fill-opacity="0.4"/>
<path d="M50.1268 14.0304C51.3748 15.3104 51.9828 16.9105 51.9828 18.7665C51.9828 20.6225 51.3748 22.2225 50.1268 23.5025C48.8788 24.7825 47.4068 25.4225 45.6468 25.4225C43.7268 25.4225 42.2548 24.7185 41.1988 23.2785V25.1025H38.4468V8.46241L41.1988 7.34241V14.2224C42.2548 12.8144 43.7268 12.0784 45.6468 12.0784C47.4068 12.1104 48.8788 12.7184 50.1268 14.0304ZM45.2308 22.8305C46.3828 22.8305 47.3428 22.4465 48.1108 21.6785C48.8788 20.8785 49.2628 19.9185 49.2628 18.7665C49.2628 17.6145 48.8788 16.6225 48.1108 15.8864C47.3428 15.0864 46.3828 14.7344 45.2308 14.7344C44.0788 14.7344 43.1188 15.1184 42.3508 15.8864C41.5828 16.6545 41.1988 17.6145 41.1988 18.7665C41.1988 19.9185 41.5828 20.9105 42.3508 21.6785C43.1188 22.4465 44.0788 22.8305 45.2308 22.8305Z" fill="white"/>
<path d="M55.9825 19.9505C56.3985 21.8705 57.9345 22.9585 60.0466 22.9585C61.4866 22.9585 62.5746 22.4145 63.3106 21.3905L65.5826 22.7025C64.3346 24.5585 62.4786 25.4545 60.0146 25.4545C57.9665 25.4545 56.2705 24.8145 55.0225 23.5665C53.7425 22.2865 53.1345 20.6865 53.1345 18.7664C53.1345 16.8784 53.7745 15.2784 55.0225 14.0304C56.2705 12.7504 57.9025 12.1104 59.8546 12.1104C61.7106 12.1104 63.2146 12.7824 64.4306 14.0624C65.6146 15.3424 66.2226 16.9424 66.2226 18.7984C66.2226 19.0864 66.1906 19.4705 66.1266 19.9505H55.9825ZM63.4386 17.7104C63.0546 15.6624 61.6146 14.5744 59.8226 14.5744C57.8065 14.5744 56.3665 15.7584 55.9825 17.7104H63.4386Z" fill="white"/>
<path d="M74.6388 14.8625H71.5028V21.1665C71.5028 22.7985 72.5588 22.7665 74.6388 22.6705V25.1345C70.4468 25.6465 68.7508 24.4945 68.7508 21.1665V14.8625H66.4148V12.2384H68.7508V9.55043L71.5028 8.43042V12.2384H74.6388V14.8625Z" fill="white"/>
<path d="M77.1033 9.51838L79.8553 8.39838V12.2064H82.9913V14.8304H79.8553V21.1344C79.8553 22.7664 80.9113 22.7344 82.9913 22.6384V25.1025C78.7993 25.6145 77.1033 24.4625 77.1033 21.1344V9.51838Z" fill="white"/>
<path d="M86.4789 19.9505C86.8949 21.8705 88.4309 22.9585 90.5429 22.9585C91.9829 22.9585 93.0709 22.4145 93.8069 21.3905L96.0789 22.7025C94.8309 24.5585 92.9749 25.4545 90.5109 25.4545C88.4629 25.4545 86.7669 24.8145 85.5189 23.5665C84.2389 22.2865 83.6309 20.6865 83.6309 18.7664C83.6309 16.8784 84.2709 15.2784 85.5189 14.0304C86.7669 12.7504 88.3989 12.1104 90.3509 12.1104C92.2069 12.1104 93.7109 12.7824 94.9269 14.0624C96.1109 15.3424 96.7189 16.9424 96.7189 18.7984C96.7189 19.0864 96.6869 19.4705 96.6229 19.9505H86.4789ZM93.9349 17.7104C93.5509 15.6624 92.1109 14.5744 90.3189 14.5744C88.3029 14.5744 86.8629 15.7584 86.4789 17.7104H93.9349Z" fill="white"/>
<path d="M101.199 14.5746C101.871 13.0065 103.215 12.2065 105.103 12.2065V15.1826C104.047 15.1186 103.151 15.3746 102.351 15.9506C101.551 16.4946 101.199 17.4546 101.199 18.7346V25.1346H98.447V12.4305H101.199V14.5746Z" fill="white"/>
<path d="M106.511 25.1025V8.39845L109.263 7.27844V25.1025H106.511Z" fill="white"/>
<path d="M113.935 19.9505C114.351 21.8705 115.887 22.9585 117.999 22.9585C119.439 22.9585 120.527 22.4145 121.263 21.3905L123.535 22.7025C122.287 24.5585 120.431 25.4545 117.967 25.4545C115.919 25.4545 114.223 24.8145 112.975 23.5665C111.695 22.2865 111.087 20.6865 111.087 18.7664C111.087 16.8784 111.727 15.2784 112.975 14.0304C114.223 12.7504 115.855 12.1104 117.807 12.1104C119.663 12.1104 121.167 12.7824 122.383 14.0624C123.567 15.3424 124.175 16.9424 124.175 18.7984C124.175 19.0864 124.143 19.4705 124.079 19.9505H113.935ZM121.391 17.7104C121.007 15.6624 119.567 14.5744 117.775 14.5744C115.759 14.5744 114.319 15.7584 113.935 17.7104H121.391Z" fill="white"/>
<path d="M135.887 12.4304H138.639V25.1025H135.887V23.2785C134.831 24.7185 133.359 25.4225 131.439 25.4225C129.679 25.4225 128.207 24.7825 126.959 23.5025C125.711 22.2225 125.103 20.6225 125.103 18.7664C125.103 16.8784 125.711 15.3104 126.959 14.0304C128.207 12.7504 129.679 12.1104 131.439 12.1104C133.359 12.1104 134.831 12.8144 135.887 14.2544V12.4304ZM131.887 22.8305C133.039 22.8305 133.999 22.4465 134.767 21.6785C135.535 20.8785 135.919 19.9185 135.919 18.7664C135.919 17.6144 135.535 16.6224 134.767 15.8864C133.999 15.0864 133.039 14.7344 131.887 14.7344C130.735 14.7344 129.775 15.1184 129.007 15.8864C128.239 16.6544 127.855 17.6144 127.855 18.7664C127.855 19.9185 128.239 20.9105 129.007 21.6785C129.775 22.4465 130.735 22.8305 131.887 22.8305Z" fill="white"/>
<path d="M152.848 14.0624C154.096 15.3424 154.704 16.9424 154.704 18.7664C154.704 20.6545 154.096 22.2225 152.848 23.5025C151.6 24.7825 150.128 25.4225 148.368 25.4225C146.448 25.4225 144.976 24.7185 143.919 23.2785V30.1585H141.167V12.4304H143.919V14.2544C144.976 12.8144 146.448 12.1104 148.368 12.1104C150.128 12.1104 151.6 12.7504 152.848 14.0624ZM147.952 22.8305C149.104 22.8305 150.064 22.4465 150.832 21.6785C151.6 20.8785 151.984 19.9185 151.984 18.7664C151.984 17.6144 151.6 16.6224 150.832 15.8864C150.064 15.0864 149.104 14.7344 147.952 14.7344C146.8 14.7344 145.839 15.1184 145.071 15.8864C144.303 16.6544 143.919 17.6144 143.919 18.7664C143.919 19.9185 144.303 20.9105 145.071 21.6785C145.839 22.4465 146.8 22.8305 147.952 22.8305Z" fill="white"/>
</svg>
