<svg width="117" height="29" viewBox="0 0 117 29" fill="none" xmlns="http://www.w3.org/2000/svg">
<path d="M0.896484 21.0859L5.0262 17.9189C7.22028 20.7856 9.55138 22.1069 12.1461 22.1069C14.727 22.1069 16.9922 20.8012 19.0874 17.9571L23.2761 21.0477C20.2529 25.1489 16.4961 27.3159 12.1461 27.3159C7.80999 27.3159 4.01675 25.1628 0.896484 21.0859Z" fill="url(#paint0_linear_218_43271)"/>
<path d="M12.1319 7.3204L4.78133 13.6615L1.38354 9.71653L12.1475 0.430664L22.8265 9.72347L19.4131 13.6545L12.1319 7.3204Z" fill="url(#paint1_linear_218_43271)"/>
<path d="M39.1135 23.404C36.6038 23.404 34.512 22.5896 32.8157 20.961C31.1194 19.3097 30.2834 17.1931 30.2834 14.6095C30.2834 12.005 31.142 9.86411 32.8383 8.18856C34.5589 6.49044 36.6506 5.65353 39.1378 5.65353C42.206 5.65353 44.9239 6.97834 46.5057 9.04978L43.7376 11.9581C42.4124 10.5378 40.9711 9.81723 39.4153 9.81723C38.0902 9.81723 36.9975 10.2583 36.0904 11.1664C35.2075 12.0745 34.767 13.2152 34.767 14.5869C34.767 15.9135 35.2075 17.0299 36.0904 17.938C36.9975 18.8218 38.0902 19.2628 39.391 19.2628C41.0873 19.2628 42.5755 18.518 43.8069 17.0525L46.6896 19.8219C45.8987 20.8689 44.8303 21.7302 43.5051 22.4038C42.18 23.0793 40.7161 23.404 39.1118 23.404H39.1135ZM51.5668 5.39655V23.1487H47.477V5.39655H51.5668ZM55.4433 9.16437C54.0731 9.16437 53.0741 8.16425 53.0741 6.79256C53.0741 5.466 54.12 4.46588 55.4433 4.46588C56.7685 4.46588 57.7918 5.466 57.7918 6.79256C57.7918 8.16425 56.7685 9.16611 55.4433 9.16611V9.16437ZM57.5125 10.3051V23.1487H53.3984V10.3051H57.5125ZM65.3869 23.4283C63.3646 23.4283 61.7376 22.7997 60.4611 21.5426C59.2054 20.2873 58.5775 18.6812 58.5775 16.7035C58.5775 14.7258 59.2054 13.1215 60.4836 11.8644C61.7619 10.6073 63.4114 9.98045 65.4563 9.98045C68.1291 9.98045 70.4775 11.2827 71.5685 13.7257L68.2921 15.4481C67.6417 14.3542 66.7346 13.7952 65.55 13.7952C64.6897 13.7952 63.9924 14.0747 63.4339 14.6338C63.1689 14.9082 62.9607 15.2323 62.8211 15.5875C62.6815 15.9426 62.6133 16.3219 62.6205 16.7035C62.6205 18.4016 63.8519 19.6587 65.5031 19.6587C66.6878 19.6587 67.7805 19.0076 68.2453 18.0075L71.5234 19.9608C70.4064 22.1017 68.1065 23.4283 65.3869 23.4283ZM85.7892 23.1487H80.9068L77.117 18.0526L76.5134 18.6117V23.1487H72.4253V5.39655H76.5151V14.0278L80.3725 10.3051H85.3695L79.8626 15.4707L85.7892 23.1487ZM86.0633 16.4708V5.95391H90.4323V16.4014C90.4323 18.3322 91.5476 19.2628 93.1519 19.2628C94.732 19.2628 95.8473 18.2853 95.8473 16.4014V5.95391H100.241V16.4708C100.241 21.5426 96.7301 23.4509 93.1519 23.4509C89.5963 23.4509 86.0633 21.5426 86.0633 16.4708ZM109.95 9.98045C111.787 9.98045 113.275 10.6316 114.46 11.9338C115.644 13.2135 116.225 14.8196 116.225 16.7035C116.225 18.5891 115.622 20.1935 114.437 21.5201C113.251 22.8223 111.764 23.4752 109.974 23.4752C108.556 23.4752 107.324 23.0098 106.325 22.0792V28.4306H102.211V10.3051H106.256V11.4928C107.255 10.4909 108.486 9.98045 109.95 9.98045ZM112.042 16.7504C112.042 15.0748 110.835 13.7952 109.161 13.7952C107.487 13.7952 106.256 15.0748 106.256 16.7504C106.256 17.5647 106.533 18.2627 107.069 18.8444C107.626 19.4261 108.323 19.7056 109.161 19.7056C109.997 19.7056 110.694 19.4261 111.228 18.8444C111.761 18.2788 112.054 17.5278 112.044 16.7504H112.042Z" fill="white"/>
<defs>
<linearGradient id="paint0_linear_218_43271" x1="0.896484" y1="24.3098" x2="23.2761" y2="24.3098" gradientUnits="userSpaceOnUse">
<stop stop-color="white"/>
<stop offset="1" stop-color="white" stop-opacity="0.28"/>
</linearGradient>
<linearGradient id="paint1_linear_218_43271" x1="1.38354" y1="9.42892" x2="22.8265" y2="9.42892" gradientUnits="userSpaceOnUse">
<stop stop-color="white" stop-opacity="0.3"/>
<stop offset="1" stop-color="white"/>
</linearGradient>
</defs>
</svg>
