<svg width="84" height="22" viewBox="0 0 84 22" fill="none" xmlns="http://www.w3.org/2000/svg">
<path d="M11.4874 10.3901L2.82767 19.081L1.40206 17.6502L0 19.0691L2.85124 21.9306L12.913 11.8208L11.4874 10.3901Z" fill="white" fill-opacity="0.6"/>
<path d="M10.262 3.74479L11.7112 5.21102L13.125 3.79209L10.2738 0.930603L0.200195 11.0286L1.60225 12.4238L10.262 3.74479Z" fill="white" fill-opacity="0.6"/>
<path d="M2.05075 15.9593C2.33352 16.2431 2.33352 16.716 2.05075 17.0117L2.81658 17.7802L12.8783 7.67044L12.1126 6.90185C11.8181 7.18564 11.3585 7.18564 11.064 6.90185C10.7812 6.61807 10.7812 6.1451 11.064 5.84949L10.2981 5.08093L0.236328 15.1907L1.00216 15.9593C1.29671 15.6637 1.7562 15.6637 2.05075 15.9593Z" fill="white"/>
<path d="M36.8528 1.90326L30.3544 13.5068V20.9254H26.6448V13.5068L20.1733 1.90326H24.3974L28.5131 9.83821L32.6289 1.90326H36.8528ZM47.3449 19.2406C45.9549 20.6175 44.258 21.3059 42.2544 21.3059C40.2506 21.3059 38.5538 20.6175 37.1639 19.2406C35.7919 17.8456 35.1059 16.1427 35.1059 14.1319C35.1059 12.1209 35.7919 10.4271 37.1639 9.05012C38.5538 7.6552 40.2506 6.95769 42.2544 6.95769C44.258 6.95769 45.9549 7.6552 47.3449 9.05012C48.7348 10.4271 49.4298 12.1209 49.4298 14.1319C49.4298 16.1427 48.7348 17.8456 47.3449 19.2406ZM39.6278 16.8221C40.3318 17.5286 41.2073 17.8819 42.2544 17.8819C43.3013 17.8819 44.1769 17.5286 44.8808 16.8221C45.5848 16.1155 45.9368 15.2188 45.9368 14.1319C45.9368 13.0448 45.5848 12.1481 44.8808 11.4415C44.1769 10.735 43.3013 10.3817 42.2544 10.3817C41.2073 10.3817 40.3318 10.735 39.6278 11.4415C38.9419 12.1481 38.5989 13.0448 38.5989 14.1319C38.5989 15.2188 38.9419 16.1155 39.6278 16.8221ZM59.3402 10.7078H56.2806V16.3602C56.2806 16.8311 56.3979 17.1753 56.6325 17.3928C56.8672 17.6101 57.2102 17.737 57.6614 17.7732C58.1128 17.7913 58.6723 17.7823 59.3402 17.746V20.9254C56.9394 21.1971 55.2426 20.9707 54.2497 20.2461C53.275 19.5214 52.7876 18.2261 52.7876 16.3602V10.7078H50.4319V7.33819H52.7876V4.59353L56.2806 3.53373V7.33819H59.3402V10.7078ZM68.1783 10.7078H65.1185V16.3602C65.1185 16.8311 65.2359 17.1753 65.4706 17.3928C65.7051 17.6101 66.0481 17.737 66.4995 17.7732C66.9507 17.7913 67.5104 17.7823 68.1783 17.746V20.9254C65.7774 21.1971 64.0805 20.9707 63.0878 20.2461C62.1129 19.5214 61.6255 18.2261 61.6255 16.3602V10.7078H59.2698V7.33819H61.6255V4.59353L65.1185 3.53373V7.33819H68.1783V10.7078ZM80.5073 7.33819H84.0002V20.9254H80.5073V19.3221C79.4602 20.6446 77.989 21.3059 76.0937 21.3059C74.2885 21.3059 72.7362 20.6175 71.4364 19.2406C70.1547 17.8456 69.5139 16.1427 69.5139 14.1319C69.5139 12.1209 70.1547 10.4271 71.4364 9.05012C72.7362 7.6552 74.2885 6.95769 76.0937 6.95769C77.989 6.95769 79.4602 7.61902 80.5073 8.94145V7.33819ZM74.0629 16.9036C74.7669 17.6101 75.6604 17.9634 76.7435 17.9634C77.8267 17.9634 78.7202 17.6101 79.4242 16.9036C80.1462 16.179 80.5073 15.2551 80.5073 14.1319C80.5073 13.0085 80.1462 12.0937 79.4242 11.3872C78.7202 10.6625 77.8267 10.3002 76.7435 10.3002C75.6604 10.3002 74.7669 10.6625 74.0629 11.3872C73.3588 12.0937 73.0069 13.0085 73.0069 14.1319C73.0069 15.2551 73.3588 16.179 74.0629 16.9036Z" fill="white"/>
</svg>
