<svg width="104" height="33" viewBox="0 0 104 33" fill="none" xmlns="http://www.w3.org/2000/svg">
<path d="M1.72475 19.5484L13.7758 7.48896L25.8352 19.5484C28.2103 14.5808 27.3405 8.45906 23.226 4.34448C18.0075 -0.874022 9.5525 -0.874022 4.334 4.34448C0.219411 8.45906 -0.650339 14.5808 1.72475 19.5484Z" fill="white" fill-opacity="0.3"/>
<path d="M13.7796 7.23816L1.72852 19.2976C2.3641 20.6273 3.23385 21.8817 4.33777 22.9857L6.69613 25.3524L13.7796 18.2689L20.863 25.3524L23.2214 22.994C24.3253 21.8901 25.195 20.644 25.8306 19.3059L13.7796 7.23816Z" fill="white" fill-opacity="0.5"/>
<path d="M13.7782 18.2616L6.69385 25.3459L13.7782 32.4302L20.8625 25.3459L13.7782 18.2616Z" fill="white"/>
<path d="M47.8347 10.8008V21.6057C47.8347 22.6762 47.7009 23.6463 47.4416 24.5077C47.174 25.3691 46.7726 26.105 46.2206 26.7071C45.6687 27.3093 44.9745 27.7776 44.1299 28.1038C43.2936 28.4299 42.29 28.5972 41.1359 28.5972C40.032 28.5972 38.9866 28.455 37.9998 28.179C37.013 27.8947 36.093 27.3846 35.2567 26.6486L37.0381 24.2233C37.6318 24.7669 38.2507 25.1851 38.8946 25.4862C39.5386 25.7789 40.2829 25.9294 41.1192 25.9294C41.83 25.9294 42.4238 25.829 42.9089 25.6367C43.3939 25.436 43.7786 25.1684 44.0713 24.8171C44.3557 24.4742 44.5647 24.0561 44.6902 23.571C44.8156 23.086 44.8742 22.5424 44.8742 21.9486V21.0872H44.824C44.3975 21.6643 43.8288 22.0991 43.1179 22.3835C42.4071 22.6678 41.6879 22.8184 40.9436 22.8184C40.0571 22.8184 39.2459 22.6595 38.5183 22.3333C37.7907 22.0155 37.1719 21.5806 36.6534 21.037C36.1349 20.4935 35.7334 19.8495 35.4575 19.1052C35.1731 18.3609 35.0393 17.5748 35.0393 16.7301C35.0393 15.8604 35.1731 15.0408 35.4324 14.2798C35.6916 13.5187 36.0847 12.8664 36.5948 12.3061C37.105 11.7458 37.7238 11.3025 38.4347 10.9847C39.1539 10.667 39.9735 10.4997 40.8934 10.4997C41.7381 10.4997 42.5158 10.667 43.2434 10.9931C43.971 11.3193 44.548 11.8461 44.9745 12.5737H45.0247V10.8008H47.8347ZM41.5039 13.1758C40.977 13.1758 40.5003 13.2595 40.0738 13.4351C39.6473 13.6107 39.2793 13.8449 38.9699 14.1543C38.6688 14.4554 38.4263 14.8317 38.2507 15.2666C38.0751 15.7015 37.9914 16.1865 37.9914 16.7134C37.9914 17.1901 38.0751 17.6333 38.2507 18.0515C38.4263 18.4613 38.6688 18.8292 38.9783 19.1387C39.2877 19.4481 39.664 19.699 40.0905 19.883C40.5171 20.0669 40.977 20.1589 41.4788 20.1589C42.0224 20.1589 42.5158 20.0669 42.9507 19.883C43.3856 19.699 43.7619 19.4564 44.063 19.1554C44.364 18.8543 44.6066 18.4863 44.7655 18.0515C44.9327 17.625 45.0163 17.165 45.0163 16.6632C45.0163 15.6262 44.7069 14.7815 44.0797 14.146C43.4525 13.4936 42.5911 13.1758 41.5039 13.1758Z" fill="white"/>
<path d="M50.0837 16.7301C50.0837 15.7935 50.251 14.9404 50.5939 14.171C50.9284 13.4016 51.3884 12.7493 51.9654 12.2057C52.5425 11.6621 53.2282 11.244 54.0143 10.9429C54.8088 10.6502 55.6451 10.4997 56.5316 10.4997C57.4181 10.4997 58.2627 10.6502 59.0572 10.9429C59.8517 11.2356 60.5291 11.6621 61.1061 12.2057C61.6832 12.7493 62.1432 13.4016 62.4777 14.171C62.8122 14.9404 62.9878 15.7935 62.9878 16.7301C62.9878 17.6668 62.8206 18.5198 62.4777 19.2892C62.1432 20.0586 61.6832 20.7109 61.1061 21.2545C60.5291 21.7981 59.8433 22.2162 59.0572 22.5173C58.2627 22.81 57.4264 22.9605 56.5316 22.9605C55.6451 22.9605 54.8005 22.81 54.0143 22.5173C53.2199 22.2246 52.5425 21.7981 51.9654 21.2545C51.3884 20.7109 50.9284 20.0586 50.5939 19.2892C50.251 18.5282 50.0837 17.6751 50.0837 16.7301ZM53.0526 16.7301C53.0526 17.1901 53.1279 17.6333 53.2868 18.0682C53.4457 18.4947 53.6715 18.8794 53.9809 19.2056C54.282 19.5317 54.6499 19.7993 55.0848 20C55.5197 20.2008 55.9964 20.2927 56.54 20.2927C57.0836 20.2927 57.5686 20.1924 57.9951 20C58.4216 19.7993 58.7896 19.5401 59.099 19.2056C59.4001 18.8794 59.6343 18.4947 59.7932 18.0682C59.9521 17.6417 60.0273 17.1984 60.0273 16.7301C60.0273 16.2702 59.9521 15.8269 59.7932 15.392C59.6343 14.9655 59.4085 14.5808 59.099 14.2547C58.798 13.9285 58.43 13.6609 57.9951 13.4602C57.5686 13.2595 57.0836 13.1675 56.54 13.1675C55.9964 13.1675 55.5113 13.2678 55.0848 13.4602C54.6583 13.6609 54.2903 13.9202 53.9809 14.2547C53.6798 14.5808 53.4457 14.9655 53.2868 15.392C53.1279 15.8269 53.0526 16.2702 53.0526 16.7301Z" fill="white"/>
<path d="M71.5687 14.0873C70.9916 13.2761 70.2139 12.8747 69.2438 12.8747C68.8507 12.8747 68.4576 12.975 68.0813 13.1674C67.705 13.3681 67.5126 13.6859 67.5126 14.1291C67.5126 14.4887 67.6715 14.7563 67.981 14.9236C68.2904 15.0908 68.6918 15.2247 69.1685 15.3417C69.6452 15.4588 70.1637 15.5759 70.7157 15.7013C71.2676 15.8268 71.7861 16.0108 72.2628 16.27C72.7395 16.5293 73.1326 16.8722 73.4504 17.3238C73.7598 17.767 73.9187 18.3775 73.9187 19.1553C73.9187 19.8661 73.7682 20.4599 73.4587 20.9449C73.1577 21.43 72.7562 21.823 72.2712 22.1158C71.7861 22.4085 71.2342 22.6259 70.6237 22.7597C70.0132 22.8935 69.4027 22.9604 68.7922 22.9604C67.8722 22.9604 67.0192 22.8266 66.2498 22.5674C65.472 22.2997 64.7863 21.823 64.1758 21.1373L66.1495 19.2807C66.5258 19.7072 66.9356 20.0585 67.3705 20.3344C67.8053 20.6021 68.3406 20.7442 68.9678 20.7442C69.1852 20.7442 69.4027 20.7191 69.6368 20.669C69.871 20.6188 70.0801 20.5351 70.2808 20.4181C70.4815 20.301 70.6404 20.1588 70.7658 19.9832C70.8913 19.8076 70.9498 19.6069 70.9498 19.3811C70.9498 18.9713 70.7909 18.6618 70.4815 18.4695C70.1721 18.2688 69.7706 18.1099 69.2939 17.9844C68.8173 17.859 68.2987 17.7419 67.7468 17.6416C67.1948 17.5328 66.6763 17.3656 66.1996 17.1231C65.7229 16.8805 65.3299 16.5544 65.0121 16.1195C64.7027 15.693 64.5438 15.0992 64.5438 14.3382C64.5438 13.6775 64.6776 13.1088 64.9535 12.6238C65.2295 12.1387 65.5808 11.7373 66.0324 11.4279C66.4756 11.1184 66.9858 10.8843 67.5628 10.7337C68.1398 10.5832 68.7253 10.5079 69.319 10.5079C70.1135 10.5079 70.8913 10.6417 71.669 10.9177C72.4468 11.1853 73.0657 11.6537 73.5507 12.3143L71.5687 14.0873Z" fill="white"/>
<path d="M75.324 6.76947C75.324 6.29278 75.4996 5.87464 75.8592 5.52339C76.2105 5.17214 76.6621 4.98816 77.2056 4.98816C77.7492 4.98816 78.2092 5.15542 78.5772 5.4983C78.9451 5.83282 79.1375 6.25933 79.1375 6.76947C79.1375 7.27962 78.9535 7.70613 78.5772 8.04065C78.2092 8.37517 77.7492 8.55079 77.2056 8.55079C76.6621 8.55079 76.2105 8.37517 75.8592 8.01556C75.4996 7.66431 75.324 7.24616 75.324 6.76947ZM75.7421 10.8004H78.711V22.6675H75.7421V10.8004Z" fill="white"/>
<path d="M80.2153 13.3176V10.8003H82.6657V7.36316H85.6345V10.8003H88.8961V13.3176H85.6345V18.511C85.6345 19.1048 85.7433 19.5731 85.9691 19.916C86.1949 20.2589 86.6297 20.4345 87.2904 20.4345C87.558 20.4345 87.8424 20.4094 88.1518 20.3509C88.4612 20.2923 88.7121 20.2003 88.8961 20.0665V22.5671C88.5867 22.7176 88.202 22.8179 87.7504 22.8765C87.2988 22.935 86.8974 22.9601 86.5545 22.9601C85.76 22.9601 85.116 22.8765 84.6143 22.7009C84.1125 22.5252 83.7194 22.266 83.4267 21.9064C83.1424 21.5551 82.9417 21.1119 82.8329 20.585C82.7242 20.0582 82.674 19.4477 82.674 18.7535V13.3176H80.2153Z" fill="white"/>
<path d="M93.0707 17.7671C93.1711 18.6536 93.514 19.3477 94.1077 19.8411C94.7015 20.3346 95.4207 20.5854 96.257 20.5854C97.0013 20.5854 97.6202 20.4349 98.122 20.1255C98.6238 19.8244 99.067 19.4397 99.4433 18.9798L101.568 20.5854C100.873 21.4385 100.104 22.049 99.2426 22.4169C98.3896 22.7765 97.4864 22.9605 96.5497 22.9605C95.6633 22.9605 94.8186 22.81 94.0241 22.5173C93.2296 22.2162 92.5522 21.7981 91.9752 21.2545C91.3981 20.7109 90.9382 20.0586 90.6037 19.2892C90.2691 18.5198 90.0935 17.6668 90.0935 16.7301C90.0935 15.7935 90.2608 14.9404 90.6037 14.171C90.9382 13.4016 91.3981 12.7493 91.9752 12.2057C92.5522 11.6621 93.238 11.244 94.0241 10.9429C94.8186 10.6502 95.6549 10.4997 96.5497 10.4997C97.3693 10.4997 98.1303 10.6419 98.8077 10.9346C99.4935 11.2189 100.079 11.6371 100.564 12.1807C101.049 12.7242 101.425 13.3933 101.701 14.1961C101.977 14.999 102.111 15.9105 102.111 16.9559V17.7755H93.0707V17.7671ZM99.1506 15.5426C99.1339 14.6728 98.8579 13.9787 98.331 13.4769C97.8042 12.9751 97.0682 12.7242 96.1316 12.7242C95.2451 12.7242 94.5343 12.9835 94.0157 13.4936C93.4972 14.0038 93.1794 14.6895 93.0624 15.5426H99.1506Z" fill="white"/>
</svg>
