<svg width="78" height="29" viewBox="0 0 78 29" fill="none" xmlns="http://www.w3.org/2000/svg">
<path fill-rule="evenodd" clip-rule="evenodd" d="M2.39249 23.2152L3.04187 28.7075H25.773L25.03 22.4182H14.4301L14.3384 21.6379L24.0999 14.5555L23.4477 9.05133H0.717529L1.46143 15.3417H12.0774L12.171 16.1278L2.39249 23.2152Z" fill="white"/>
<path fill-rule="evenodd" clip-rule="evenodd" d="M26.0908 9.05133L28.4152 28.7075H51.1642L48.839 9.05133H26.0908Z" fill="white" fill-opacity="0.6"/>
<path fill-rule="evenodd" clip-rule="evenodd" d="M28.289 6.4427C29.7777 7.81776 31.9253 7.81776 33.0851 6.4427C34.2459 5.06764 33.9793 2.8377 32.4906 1.46264C31.0028 0.0865922 28.8552 0.0865922 27.6944 1.46264C26.5346 2.8377 26.8002 5.06764 28.289 6.4427Z" fill="white"/>
<path fill-rule="evenodd" clip-rule="evenodd" d="M66.6091 19.2651L59.4896 19.273L58.9319 14.5559L66.0883 14.5618C67.7708 14.5824 68.6329 15.5669 68.7718 16.9135C68.8607 17.7801 68.4788 19.2651 66.6091 19.2651ZM75.018 16.1283C74.4924 11.7096 71.15 9.03214 66.6072 9.05069H51.4758L53.8002 28.708H60.6068L60.1408 24.7762H67.3445C73.0141 24.7762 75.6087 21.1074 75.018 16.1283Z" fill="white"/>
</svg>
