<svg viewBox="0 0 134 48" fill="none" xmlns="http://www.w3.org/2000/svg">
<g clip-path="url(#clip0_485_111348)">
<path d="M131.623 32.5125C131.623 34.5083 130.688 35.7462 129.096 35.7462C127.505 35.7462 126.57 34.483 126.57 32.5125C126.57 30.5419 127.505 29.2662 129.096 29.2662C130.688 29.2662 131.623 30.5041 131.623 32.5125ZM133.846 32.5125C133.894 31.8562 133.806 31.1972 133.587 30.5765C133.369 29.9558 133.025 29.3868 132.577 28.9049C132.129 28.4231 131.586 28.0388 130.983 27.776C130.38 27.5132 129.729 27.3776 129.071 27.3776C128.413 27.3776 127.762 27.5132 127.159 27.776C126.556 28.0388 126.013 28.4231 125.565 28.9049C125.117 29.3868 124.773 29.9558 124.555 30.5765C124.337 31.1972 124.249 31.8562 124.296 32.5125C124.296 33.7788 124.799 34.9933 125.695 35.8887C126.59 36.7842 127.805 37.2872 129.071 37.2872C130.337 37.2872 131.552 36.7842 132.447 35.8887C133.343 34.9933 133.846 33.7788 133.846 32.5125ZM123.576 27.523H122.957C122.4 27.4996 121.846 27.6101 121.34 27.8452C120.835 28.0804 120.393 28.4334 120.052 28.8746V27.7125H117.88V37.3125H120.052V30.7567C120.352 30.3084 120.758 29.9413 121.234 29.6878C121.71 29.4344 122.241 29.3026 122.781 29.3041C123.059 29.3041 123.374 29.3041 123.564 29.3041L123.576 27.523ZM111.437 29.2662C111.754 29.2611 112.069 29.3186 112.364 29.4352C112.658 29.5519 112.927 29.7254 113.155 29.9459C113.382 30.1664 113.564 30.4296 113.69 30.7205C113.816 31.0113 113.883 31.3241 113.888 31.6409H108.962C108.981 30.9998 109.252 30.392 109.715 29.948C110.178 29.5041 110.796 29.2592 111.437 29.2662ZM116.086 32.563C116.086 29.5819 114.204 27.5104 111.437 27.5104C110.788 27.5026 110.145 27.6309 109.548 27.887C108.952 28.1432 108.415 28.5214 107.974 28.9974C107.532 29.4734 107.195 30.0366 106.985 30.6507C106.774 31.2648 106.695 31.9162 106.751 32.563C106.78 33.5868 107.12 34.5774 107.725 35.4038C108.33 36.2301 109.172 36.8531 110.139 37.19C111.106 37.527 112.153 37.5622 113.141 37.2908C114.128 37.0194 115.01 36.4543 115.669 35.6704L114.128 34.5841C113.855 34.9655 113.498 35.2783 113.083 35.4975C112.669 35.7168 112.209 35.8365 111.741 35.8472C111.056 35.8695 110.388 35.6297 109.874 35.1766C109.36 34.7236 109.038 34.0915 108.974 33.4093H116.048C116.085 33.1288 116.098 32.8457 116.086 32.563ZM94.3343 37.3125H96.6206V31.4135H102.482V37.3125H104.768V24.3398H102.482V29.4935H96.6206V24.3398H94.3343V37.3125ZM82.4354 29.2662C83.6985 29.2662 84.2922 30.0493 84.2922 31.4009V37.3125H86.4775V31.0851C86.5337 30.6172 86.4866 30.1427 86.3395 29.6951C86.1924 29.2474 85.9488 28.8374 85.626 28.4941C85.3032 28.1509 84.909 27.8826 84.4712 27.7082C84.0334 27.5339 83.5626 27.4577 83.0922 27.4851C82.493 27.4811 81.8991 27.5975 81.3457 27.8275C80.7924 28.0576 80.291 28.3964 79.8712 28.8241V27.7125H77.6859V37.3125H79.8712V30.5672C80.1775 30.1761 80.5658 29.8569 81.0089 29.6321C81.4519 29.4073 81.9388 29.2824 82.4354 29.2662ZM70.9785 35.7462C69.7912 35.7462 69.0333 35.3041 69.0333 34.3946C69.0333 33.4851 69.7912 33.043 70.9785 33.043C71.8136 33.0338 72.6213 33.3406 73.2396 33.9019V34.8998C72.6214 35.4599 71.8126 35.7626 70.9785 35.7462ZM73.2396 32.1967C72.4372 31.5696 71.4406 31.2434 70.4227 31.2746C69.9749 31.2108 69.5186 31.2439 69.0847 31.3718C68.6508 31.4996 68.2495 31.7192 67.9078 32.0156C67.5661 32.3121 67.2921 32.6784 67.1043 33.09C66.9166 33.5015 66.8194 33.9486 66.8194 34.4009C66.8194 34.8532 66.9166 35.3003 67.1043 35.7118C67.2921 36.1234 67.5661 36.4897 67.9078 36.7862C68.2495 37.0826 68.6508 37.3022 69.0847 37.43C69.5186 37.5579 69.9749 37.591 70.4227 37.5272C71.456 37.5606 72.4632 37.1993 73.2396 36.5167V37.3125H75.4248V31.6535C75.4248 29.1904 74.4775 27.4851 71.307 27.4851C69.8574 27.4756 68.4517 27.9815 67.3406 28.9125L68.6038 30.1756C69.2905 29.6006 70.1587 29.2873 71.0543 29.2914C72.7217 29.2914 73.2396 30.0872 73.2396 31.2872V32.1967ZM63.3491 32.5125C63.3491 34.5083 62.4017 35.7462 60.8227 35.7462C59.2438 35.7462 58.2964 34.483 58.2964 32.5125C58.2964 30.5419 59.2438 29.2662 60.8227 29.2662C62.4017 29.2662 63.3491 30.5041 63.3491 32.5125ZM65.5722 32.5125C65.6056 31.8639 65.5066 31.2154 65.2814 30.6063C65.0562 29.9972 64.7094 29.4404 64.2622 28.9695C63.8149 28.4987 63.2766 28.1238 62.6799 27.8676C62.0831 27.6114 61.4406 27.4793 60.7912 27.4793C60.1418 27.4793 59.4992 27.6114 58.9025 27.8676C58.3058 28.1238 57.7674 28.4987 57.3202 28.9695C56.8729 29.4404 56.5261 29.9972 56.3009 30.6063C56.0757 31.2154 55.9768 31.8639 56.0101 32.5125C55.9768 33.161 56.0757 33.8095 56.3009 34.4186C56.5261 35.0277 56.8729 35.5846 57.3202 36.0554C57.7674 36.5263 58.3058 36.9012 58.9025 37.1574C59.4992 37.4136 60.1418 37.5457 60.7912 37.5457C61.4406 37.5457 62.0831 37.4136 62.6799 37.1574C63.2766 36.9012 63.8149 36.5263 64.2622 36.0554C64.7094 35.5846 65.0562 35.0277 65.2814 34.4186C65.5066 33.8095 65.6056 33.161 65.5722 32.5125ZM46.7891 37.3125H55.1512V35.3672H49.0249V24.3398H46.7891V37.3125Z" fill="currentColor"/>
<path d="M111.51 21.2451C111.898 21.2443 112.286 21.2233 112.672 21.182V19.4388C112.407 19.4525 112.141 19.4525 111.876 19.4388C110.739 19.4388 110.386 18.9335 110.386 17.8598V13.1609H112.672V11.4304H110.386V8.55037H108.2V11.4304H106.508V13.1609H108.2V17.8093C108.2 20.2093 109.198 21.2451 111.51 21.2451ZM101.569 12.9841C102.832 12.9841 103.413 13.7546 103.413 15.1062V21.0177H105.598V14.7904C105.653 14.3235 105.604 13.8504 105.456 13.4043C105.308 12.9582 105.064 12.5499 104.741 12.208C104.419 11.8662 104.025 11.5991 103.589 11.4254C103.152 11.2518 102.682 11.1759 102.213 11.203C101.615 11.2008 101.023 11.3169 100.47 11.5445C99.9173 11.7722 99.4149 12.1068 98.992 12.5293V11.4304H96.8067V21.0177H98.992V14.2725C99.3037 13.8853 99.6953 13.5697 100.14 13.3474C100.585 13.1251 101.072 13.0011 101.569 12.9841ZM90.3646 12.9841C90.6802 12.9774 90.994 13.0333 91.2879 13.1487C91.5817 13.2641 91.8498 13.4366 92.0765 13.6563C92.3032 13.876 92.4841 14.1385 92.6087 14.4285C92.7334 14.7186 92.7992 15.0305 92.8025 15.3462H87.8762C87.896 14.704 88.1685 14.0956 88.6345 13.6533C89.1005 13.2109 89.7222 12.9704 90.3646 12.9841ZM95.013 16.2809C95.0757 15.6331 95.0028 14.9794 94.7989 14.3613C94.595 13.7433 94.2646 13.1745 93.8288 12.6912C93.3929 12.2079 92.8612 11.8206 92.2675 11.5541C91.6737 11.2876 91.031 11.1477 90.3802 11.1433C89.7294 11.1389 89.0848 11.2701 88.4875 11.5286C87.8902 11.787 87.3533 12.167 86.911 12.6444C86.4687 13.1218 86.1306 13.686 85.9184 14.3013C85.7061 14.9165 85.6244 15.5692 85.6783 16.2177C85.6886 17.2414 86.0135 18.2372 86.609 19.0699C87.2046 19.9027 88.0418 20.532 89.0072 20.8727C89.9727 21.2134 91.0195 21.2488 92.0057 20.9742C92.992 20.6996 93.8699 20.1283 94.5204 19.3377L92.9793 18.2388C92.7089 18.6224 92.3518 18.9368 91.9369 19.1563C91.522 19.3758 91.0612 19.4942 90.592 19.502C89.9073 19.5207 89.2412 19.2777 88.7295 18.8223C88.2179 18.367 87.8991 17.7337 87.8383 17.0514H94.912C94.9666 16.7978 95.0004 16.5401 95.013 16.2809ZM79.3625 12.9967C79.8008 13.0013 80.2337 13.0943 80.6352 13.2701C81.0367 13.4459 81.3986 13.7009 81.6993 14.0198V18.4283C81.3962 18.7432 81.0336 18.9947 80.6324 19.1682C80.2312 19.3417 79.7995 19.4337 79.3625 19.4388C77.6572 19.4388 76.8362 18.1756 76.8362 16.2177C76.8362 14.2598 77.6572 12.9967 79.3625 12.9967ZM74.6635 16.2177C74.6635 19.2998 76.1793 21.2704 78.8067 21.2704C79.881 21.2636 80.9134 20.8533 81.6993 20.1209V21.043H83.8846V7.50195H81.6993V12.3525C80.9169 11.6146 79.8822 11.2035 78.8067 11.203C76.1793 11.203 74.6635 13.1483 74.6635 16.2177ZM68.4488 21.2704C71.1014 21.2704 72.8446 19.8935 72.8446 17.0009V11.4304H70.6593V17.0009C70.7005 17.3146 70.6743 17.6335 70.5824 17.9363C70.4905 18.239 70.335 18.5187 70.1264 18.7566C69.9177 18.9944 69.6607 19.185 69.3725 19.3156C69.0843 19.4461 68.7715 19.5137 68.4551 19.5137C68.1387 19.5137 67.8259 19.4461 67.5377 19.3156C67.2495 19.185 66.9925 18.9944 66.7838 18.7566C66.5752 18.5187 66.4197 18.239 66.3278 17.9363C66.2359 17.6335 66.2097 17.3146 66.2509 17.0009V11.4304H64.0656V16.9756C64.0656 19.8683 65.8088 21.2451 68.4488 21.2451V21.2704ZM61.3751 21.2704C61.7675 21.2693 62.1596 21.2482 62.5498 21.2072V19.4388C62.2848 19.4522 62.0192 19.4522 61.7541 19.4388C60.6046 19.4388 60.2509 18.9335 60.2509 17.8598V13.1609H62.5498V11.4304H60.2509V8.55037H58.0656V11.4304H56.373V13.1609H58.0656V17.8093C58.0656 20.2093 59.0635 21.2451 61.3751 21.2451V21.2704ZM51.1941 19.2998C50.5105 19.3093 49.8332 19.1696 49.2092 18.8903C48.5853 18.6111 48.0297 18.1991 47.5814 17.683L45.9141 18.9462C46.6001 19.6907 47.4374 20.2799 48.3698 20.6743C49.3023 21.0686 50.3083 21.2589 51.3204 21.2325C54.1246 21.2325 55.8551 19.7672 55.8551 17.443C55.8551 15.1188 54.5035 14.2093 51.472 13.3504C49.3372 12.7693 48.8193 12.1756 48.8193 11.2662C48.8193 10.3567 49.4888 9.78827 50.9035 9.78827C51.4439 9.78219 51.9793 9.89175 52.4739 10.1096C52.9684 10.3275 53.4107 10.6486 53.7709 11.0514L55.3625 9.78827C54.7771 9.1464 54.0596 8.639 53.2593 8.301C52.459 7.96301 51.595 7.80245 50.7267 7.83037C48.0488 7.83037 46.4951 9.24511 46.4951 11.3672C46.4951 13.4893 47.6067 14.4998 50.4109 15.283C52.9372 15.9651 53.5309 16.4577 53.5309 17.6451C53.5309 18.5925 52.5962 19.2746 51.1941 19.2746V19.2998Z" fill="currentColor"/>
<path d="M36.935 4.00421C35.057 3.23108 33.1384 2.56061 31.1876 1.99579C29.2843 1.44033 27.3533 0.984973 25.4024 0.631579C23.2398 0.229722 21.0461 0.0183853 18.8466 0C16.6471 0.019867 14.4536 0.231191 12.2908 0.631579C10.3363 0.987758 8.40115 1.44308 6.49289 1.99579C3.10762 2.99368 0.783413 3.96632 0.68236 4.00421L0.0507812 4.25684V31.3389C0.217336 33.8314 1.31262 36.1707 3.12025 37.8947C4.98946 39.8545 7.11377 41.5539 9.43604 42.9474C12.3164 44.7276 15.3419 46.2614 18.4803 47.5326L18.8339 47.6716L19.2003 47.5326C22.337 46.2578 25.3622 44.7241 28.2445 42.9474C30.549 41.5558 32.6527 39.8558 34.4971 37.8947C36.2917 36.1653 37.358 33.8157 37.4781 31.3263V4.25684L36.935 4.00421ZM7.04868 3.86526C10.8773 2.69881 14.8456 2.05302 18.8466 1.94526C22.8353 2.05165 26.7912 2.69751 30.6066 3.86526C32.9055 4.53474 34.6866 5.20421 35.5581 5.55789V31.3389C35.5767 31.5997 35.5767 31.8614 35.5581 32.1221L21.5245 18.1137L16.1181 23.4442L2.04657 9.43579V5.55789C3.69851 4.90158 5.38526 4.33652 7.0992 3.86526" fill="currentColor"/>
</g>
<defs>
<clipPath id="clip0_485_111348">
<rect width="133.895" height="48" fill="currentColor" transform="translate(0.0507812)"/>
</clipPath>
</defs>
</svg>
