<svg viewBox="0 0 129 32" fill="none" xmlns="http://www.w3.org/2000/svg">
<path d="M17.5046 14.4141L4.30884 27.6573L2.13647 25.4771L0 27.6393L4.34474 31.9997L19.6769 16.5942L17.5046 14.4141Z" fill="currentColor" fill-opacity="0.6"/>
<path d="M15.637 4.28829L17.8452 6.52254L19.9996 4.36036L15.6549 0L0.304688 15.3874L2.44115 17.5135L15.637 4.28829Z" fill="currentColor" fill-opacity="0.6"/>
<path d="M3.12421 22.9008C3.55509 23.3332 3.55509 24.0539 3.12421 24.5044L4.29119 25.6755L19.6234 10.2701L18.4566 9.09896C18.0077 9.53139 17.3075 9.53139 16.8586 9.09896C16.4277 8.66653 16.4277 7.9458 16.8586 7.49535L15.6916 6.32422L0.359375 21.7296L1.52635 22.9008C1.97519 22.4503 2.67537 22.4503 3.12421 22.9008Z" fill="currentColor"/>
<path d="M56.1586 1.48242L46.2561 19.164V30.4685H40.6035V19.164L30.7422 1.48242H37.1789L43.4504 13.5738L49.7221 1.48242H56.1586ZM72.1465 27.9012C70.0283 29.9994 67.4427 31.0484 64.3895 31.0484C61.3362 31.0484 58.7505 29.9994 56.6325 27.9012C54.5418 25.7756 53.4966 23.1806 53.4966 20.1165C53.4966 17.0522 54.5418 14.4711 56.6325 12.3729C58.7505 10.2473 61.3362 9.1844 64.3895 9.1844C67.4427 9.1844 70.0283 10.2473 72.1465 12.3729C74.2644 14.4711 75.3235 17.0522 75.3235 20.1165C75.3235 23.1806 74.2644 25.7756 72.1465 27.9012ZM60.3871 24.2159C61.4599 25.2925 62.794 25.8309 64.3895 25.8309C65.9848 25.8309 67.319 25.2925 68.3917 24.2159C69.4644 23.1392 70.0009 21.7727 70.0009 20.1165C70.0009 18.4601 69.4644 17.0936 68.3917 16.0168C67.319 14.9403 65.9848 14.4019 64.3895 14.4019C62.794 14.4019 61.4599 14.9403 60.3871 16.0168C59.3419 17.0936 58.8193 18.4601 58.8193 20.1165C58.8193 21.7727 59.3419 23.1392 60.3871 24.2159ZM90.4251 14.8988H85.7627V23.512C85.7627 24.2296 85.9416 24.7541 86.299 25.0855C86.6566 25.4167 87.1793 25.61 87.8669 25.6651C88.5547 25.6927 89.4073 25.679 90.4251 25.6237V30.4685C86.7667 30.8826 84.181 30.5376 82.6681 29.4334C81.1828 28.3291 80.4401 26.3554 80.4401 23.512V14.8988H76.8505V9.76422H80.4401V5.58188L85.7627 3.96694V9.76422H90.4251V14.8988ZM103.893 14.8988H99.2301V23.512C99.2301 24.2296 99.4089 24.7541 99.7665 25.0855C100.124 25.4167 100.647 25.61 101.334 25.6651C102.022 25.6927 102.875 25.679 103.893 25.6237V30.4685C100.234 30.8826 97.6484 30.5376 96.1356 29.4334C94.6502 28.3291 93.9074 26.3554 93.9074 23.512V14.8988H90.3178V9.76422H93.9074V5.58188L99.2301 3.96694V9.76422H103.893V14.8988ZM122.68 9.76422H128.002V30.4685H122.68V28.0255C121.084 30.0406 118.842 31.0484 115.954 31.0484C113.203 31.0484 110.838 29.9994 108.857 27.9012C106.904 25.7756 105.928 23.1806 105.928 20.1165C105.928 17.0522 106.904 14.4711 108.857 12.3729C110.838 10.2473 113.203 9.1844 115.954 9.1844C118.842 9.1844 121.084 10.1922 122.68 12.2073V9.76422ZM112.86 24.3401C113.932 25.4167 115.294 25.955 116.944 25.955C118.595 25.955 119.956 25.4167 121.029 24.3401C122.129 23.2359 122.68 21.828 122.68 20.1165C122.68 18.4048 122.129 17.0107 121.029 15.9341C119.956 14.8298 118.595 14.2777 116.944 14.2777C115.294 14.2777 113.932 14.8298 112.86 15.9341C111.787 17.0107 111.25 18.4048 111.25 20.1165C111.25 21.828 111.787 23.2359 112.86 24.3401Z" fill="currentColor"/>
</svg>
