<svg viewBox="0 0 120 64" fill="none" xmlns="http://www.w3.org/2000/svg">
<path fill-rule="evenodd" clip-rule="evenodd" d="M2.62871 35.6334L3.64786 44.223H39.3224L38.1564 34.387H21.5207L21.3768 33.1667L36.6966 22.0904L35.673 13.4824H0L1.16749 23.32H17.8284L17.9752 24.5494L2.62871 35.6334Z" fill="currentColor"/>
<path fill-rule="evenodd" clip-rule="evenodd" d="M39.8125 13.4805L43.4604 44.221H79.1631L75.5137 13.4805H39.8125Z" fill="white" fill-opacity="0.6"/>
<path fill-rule="evenodd" clip-rule="evenodd" d="M43.2811 9.40237C45.6176 11.5528 48.988 11.5528 50.8082 9.40237C52.6299 7.2519 52.2116 3.76448 49.8751 1.61401C47.5401 -0.538002 44.1697 -0.538002 42.348 1.61401C40.5278 3.76448 40.9446 7.2519 43.2811 9.40237Z" fill="currentColor"/>
<path fill-rule="evenodd" clip-rule="evenodd" d="M103.418 29.4551L92.2448 29.4673L91.3695 22.0903L102.601 22.0996C105.241 22.1318 106.594 23.6713 106.812 25.7773C106.952 27.1327 106.353 29.4551 103.418 29.4551ZM116.615 24.5493C115.79 17.639 110.545 13.4516 103.415 13.4806H79.668L83.3158 44.2229H93.9983L93.2669 38.0738H104.572C113.47 38.0738 117.542 32.3362 116.615 24.5493Z" fill="currentColor"/>
<path d="M110.516 54.4693H112.248V61.1561H110.516V60.4727C109.965 61.0475 109.311 61.3286 108.54 61.3286C107.628 61.3286 106.87 60.9901 106.27 60.3131C105.676 59.6297 105.383 58.7867 105.383 57.7776C105.383 56.7749 105.689 55.9446 106.282 55.2868C106.876 54.629 107.64 54.2969 108.54 54.2969C109.311 54.2969 109.965 54.5907 110.516 55.1782V54.4693ZM107.677 59.0677C107.995 59.4062 108.381 59.5786 108.858 59.5786C109.335 59.5786 109.721 59.4062 110.039 59.0549C110.357 58.7037 110.516 58.2885 110.516 57.7967C110.516 57.3114 110.351 56.8962 110.039 56.5514C109.721 56.2065 109.335 56.0404 108.858 56.0404C108.381 56.0404 107.995 56.2129 107.677 56.5514C107.371 56.8898 107.218 57.305 107.218 57.7967C107.218 58.2949 107.371 58.71 107.677 59.0677Z" fill="currentColor"/>
<path d="M118.01 54.4707H119.999L117.46 61.3363C116.805 63.1054 115.942 63.9996 114.572 63.9996C114.046 63.9996 113.611 63.8782 113.275 63.6483L113.611 62.0644C113.893 62.2241 114.174 62.2943 114.443 62.2943C114.945 62.2943 115.367 61.9558 115.685 61.2725L115.765 61.0745L112.969 54.4707H115.086L116.628 58.6092L118.01 54.4707Z" fill="currentColor"/>
<path d="M103.859 55.3187C103.266 54.6354 102.513 54.2969 101.601 54.2969C100.83 54.2969 100.176 54.6034 99.6494 55.2102V54.4629H97.875V63.1998L99.6494 63.615V60.4728C100.176 61.0475 100.843 61.3286 101.601 61.3286C102.501 61.3286 103.253 60.9901 103.847 60.3067C104.44 59.6233 104.746 58.7931 104.746 57.8031C104.746 56.8196 104.453 55.9893 103.859 55.3187ZM101.259 59.5658C100.31 59.5658 99.6433 58.7995 99.6433 57.8095C99.6433 57.3241 99.7963 56.909 100.102 56.5769C100.408 56.2384 100.794 56.066 101.259 56.066C101.736 56.066 102.121 56.2384 102.427 56.5769C102.733 56.909 102.886 57.3241 102.886 57.8095C102.886 58.7995 102.207 59.5658 101.259 59.5658Z" fill="currentColor"/>
<path d="M90.4576 60.3021C91.0511 60.9855 91.8037 61.324 92.7153 61.324C93.4862 61.324 94.1409 61.0174 94.6671 60.4107V61.1579H96.4415V52.421L94.6671 52.0059V55.1481C94.1409 54.5733 93.474 54.2923 92.7153 54.2923C91.8159 54.2923 91.0633 54.6308 90.4698 55.3141C89.8763 55.9975 89.5704 56.8278 89.5704 57.8177C89.5643 58.8012 89.858 59.6315 90.4576 60.3021ZM93.0518 56.055C94.0002 56.055 94.6671 56.8214 94.6671 57.8113C94.6671 58.2967 94.5141 58.7118 94.2082 59.0439C93.9023 59.3824 93.5168 59.5549 93.0518 59.5549C92.5746 59.5549 92.1891 59.3824 91.8832 59.0439C91.5773 58.7118 91.4243 58.2967 91.4243 57.8113C91.4243 56.8214 92.1035 56.055 93.0518 56.055Z" fill="currentColor"/>
<path d="M86.8443 54.4693H88.5758V61.1561H86.8443V60.4727C86.2936 61.0475 85.639 61.3286 84.868 61.3286C83.9564 61.3286 83.1977 60.9901 82.5981 60.3131C82.0046 59.6297 81.7109 58.7867 81.7109 57.7776C81.7109 56.7749 82.0169 55.9446 82.6103 55.2868C83.2038 54.629 83.9686 54.2969 84.868 54.2969C85.639 54.2969 86.2936 54.5907 86.8443 55.1782V54.4693ZM83.9992 59.0677C84.3174 59.4062 84.7028 59.5786 85.1801 59.5786C85.6573 59.5786 86.0428 59.4062 86.3609 59.0549C86.6791 58.7037 86.8382 58.2885 86.8382 57.7967C86.8382 57.3114 86.673 56.8962 86.3609 56.5514C86.0428 56.2065 85.6573 56.0404 85.1801 56.0404C84.7028 56.0404 84.3174 56.2129 83.9992 56.5514C83.6933 56.8898 83.5403 57.305 83.5403 57.7967C83.5465 58.2949 83.6933 58.71 83.9992 59.0677Z" fill="currentColor"/>
<path d="M74.7773 58.2899V54.4707H76.6129V58.3027C76.6129 59.0691 77.0473 59.5736 77.7815 59.5736C78.5157 59.5736 78.9501 59.0755 78.9501 58.3027V54.4707H80.7856V58.2899C80.7856 60.2315 79.6537 61.33 77.7815 61.33C75.9276 61.3236 74.7773 60.2059 74.7773 58.2899Z" fill="currentColor"/>
<path d="M74.2843 61.1628L73.911 59.4256H69.8055H69.7933C68.8694 59.4192 68.1291 58.6336 68.1291 57.6693C68.1291 56.6985 68.8816 55.9129 69.8116 55.9129C70.7417 55.9129 71.4942 56.6985 71.4942 57.6693V58.7742H73.1585V57.5799C73.1156 55.6894 71.635 54.1758 69.8116 54.1758C67.9639 54.1758 66.4648 55.7405 66.4648 57.6693C66.4648 59.598 67.9577 61.1564 69.8055 61.1628H71.482V63.1682L73.1585 63.5577V61.1628H74.2843Z" fill="currentColor"/>
<path d="M8.26764 60.5091C7.51283 60.5091 6.91457 60.3442 6.47287 60.0144C6.03116 59.6847 5.81031 59.1984 5.81031 58.5556C5.81031 58.1476 5.91374 57.7899 6.12062 57.4825C6.32749 57.1751 6.61824 56.9347 6.99285 56.7614C7.18295 56.6776 7.38703 56.6133 7.60509 56.5686C7.82314 56.5239 8.05518 56.5015 8.30119 56.5015C8.78763 56.5015 9.21535 56.5826 9.58437 56.7447C9.95898 56.9012 10.2497 57.1331 10.4566 57.4405C10.5628 57.5915 10.6411 57.7591 10.6914 57.9436C10.7473 58.128 10.7753 58.3293 10.7753 58.5472C10.7753 59.19 10.5572 59.6791 10.1211 60.0144C9.68502 60.3442 9.06719 60.5091 8.26764 60.5091ZM8.41022 61.0708C8.98611 61.0708 9.50051 60.9758 9.95339 60.7858C10.4119 60.5957 10.7753 60.3135 11.0437 59.939C11.1779 59.7545 11.2785 59.5477 11.3456 59.3186C11.4127 59.0838 11.4462 58.8267 11.4462 58.5472C11.4462 57.9995 11.3204 57.5356 11.0688 57.1555C10.8172 56.7698 10.4678 56.4736 10.0205 56.2668C9.79684 56.1662 9.55642 56.0907 9.29922 56.0404C9.04203 55.9901 8.76526 55.965 8.46893 55.965C7.85389 55.965 7.31714 56.0851 6.85866 56.3255C6.40577 56.5602 6.0675 56.8816 5.84385 57.2896L5.78515 56.1662H5.21484V62.6135H5.86063V59.8635C6.07309 60.2436 6.39459 60.5398 6.82511 60.7522C7.25564 60.9646 7.784 61.0708 8.41022 61.0708Z" fill="currentColor"/>
<path d="M13.478 60.9199V59.2934C13.478 58.7512 13.5562 58.2957 13.7128 57.9268C13.8693 57.5523 14.1237 57.2701 14.476 57.08C14.6549 56.9794 14.859 56.9068 15.0882 56.8621C15.3231 56.8117 15.5858 56.7866 15.8766 56.7866H16.3295V56.1494H15.9017C15.2084 56.1494 14.6661 56.3031 14.2747 56.6105C13.8833 56.9124 13.6149 57.3176 13.4696 57.8262L13.3941 56.1662H12.8154V60.9199H13.478Z" fill="currentColor"/>
<path d="M20.114 56.4932C20.8353 56.4932 21.4028 56.6469 21.8165 56.9543C22.2303 57.2561 22.4567 57.7005 22.4959 58.2873H17.5728C17.6175 57.8849 17.7517 57.5523 17.9754 57.2896C18.2046 57.0213 18.5038 56.8201 18.8728 56.686C19.0573 56.6245 19.253 56.577 19.4598 56.5435C19.6667 56.5099 19.8848 56.4932 20.114 56.4932ZM23.0326 59.6372H22.303V59.6455C22.1241 59.9418 21.8529 60.1626 21.4895 60.3079C21.1316 60.4532 20.6675 60.5259 20.0972 60.5259C19.3201 60.5259 18.7162 60.3833 18.2857 60.0983C17.8608 59.8076 17.6203 59.3717 17.5644 58.7904H23.1417V58.4718C23.1417 57.9632 23.0214 57.5216 22.781 57.1471C22.5406 56.767 22.1939 56.4736 21.7411 56.2668C21.5174 56.1662 21.2686 56.0907 20.9946 56.0404C20.7207 55.9845 20.4243 55.9566 20.1056 55.9566C19.4794 55.9566 18.9259 56.0628 18.445 56.2752C17.9698 56.482 17.598 56.7782 17.3296 57.1639C17.1954 57.3595 17.0948 57.5747 17.0277 57.8094C16.9606 58.0386 16.927 58.2901 16.927 58.564C16.927 59.3577 17.187 59.9753 17.707 60.4169C18.2326 60.8528 19.0126 61.0708 20.0469 61.0708C20.7626 61.0708 21.3776 60.9646 21.892 60.7522C22.4064 60.5342 22.7866 60.1626 23.0326 59.6372Z" fill="currentColor"/>
<path d="M26.9565 60.9199L29.7494 56.1662H29.0113L26.6462 60.2492L24.4237 56.1662H23.6857L26.3191 60.9199H26.9565Z" fill="currentColor"/>
<path d="M31.1704 55.2775C31.3325 55.2775 31.45 55.2383 31.5226 55.1601C31.5953 55.0763 31.6317 54.9561 31.6317 54.7996C31.6317 54.6431 31.5925 54.5257 31.5143 54.4475C31.4416 54.3692 31.3269 54.3301 31.1704 54.3301C31.0194 54.3301 30.9048 54.3692 30.8265 54.4475C30.7483 54.5257 30.7091 54.6431 30.7091 54.7996C30.7091 54.9729 30.7455 55.0958 30.8181 55.1685C30.8908 55.2411 31.0082 55.2775 31.1704 55.2775ZM31.4891 60.9199V56.1662H30.8181V60.9199H31.4891Z" fill="currentColor"/>
<path d="M35.9939 61.0708C37.0227 61.0708 37.8139 60.85 38.3674 60.4085C38.9209 59.9669 39.1977 59.3465 39.1977 58.5472C39.1977 57.9883 39.0607 57.5188 38.7867 57.1387C38.5128 56.7531 38.1354 56.4596 37.6545 56.2584C37.4197 56.1578 37.1653 56.0823 36.8913 56.032C36.6229 55.9817 36.335 55.9566 36.0275 55.9566C35.4292 55.9566 34.8897 56.0572 34.4088 56.2584C33.928 56.454 33.5478 56.7447 33.2682 57.1303C33.1284 57.3204 33.0222 57.5356 32.9495 57.7759C32.8824 58.0107 32.8489 58.2678 32.8489 58.5472C32.8489 59.3577 33.1145 59.9809 33.6456 60.4169C34.1768 60.8528 34.9596 61.0708 35.9939 61.0708ZM36.0107 60.5007C35.2223 60.5007 34.6101 60.3414 34.174 60.0228C33.7435 59.6986 33.5282 59.2068 33.5282 58.5472C33.5282 58.0833 33.6372 57.7032 33.8553 57.407C34.0789 57.1052 34.3781 56.8816 34.7527 56.7363C34.9428 56.6636 35.1441 56.6105 35.3565 56.577C35.569 56.5379 35.7926 56.5183 36.0275 56.5183C36.5139 56.5183 36.9444 56.5966 37.319 56.7531C37.6992 56.904 37.9956 57.1303 38.208 57.4322C38.3199 57.5831 38.4009 57.7508 38.4513 57.9352C38.5072 58.1197 38.5351 58.3237 38.5351 58.5472C38.5351 59.2068 38.3143 59.6986 37.8726 60.0228C37.4309 60.3414 36.8102 60.5007 36.0107 60.5007Z" fill="currentColor"/>
<path d="M45.5295 60.9199H46.1166V56.1662H45.4541V58.2957C45.4541 58.9888 45.2528 59.531 44.8502 59.9222C44.4532 60.3079 43.9137 60.5007 43.2315 60.5007C42.5159 60.5007 41.9903 60.333 41.6548 59.9977C41.325 59.6567 41.16 59.1732 41.16 58.5472V56.1662H40.4891V58.6311C40.4891 59.4192 40.6987 60.0228 41.1181 60.442C41.5374 60.8612 42.1776 61.0708 43.0387 61.0708C43.6705 61.0708 44.196 60.9283 44.6154 60.6432C45.0347 60.3526 45.3227 59.9613 45.4792 59.4695L45.5295 60.9199Z" fill="currentColor"/>
<path d="M50.4037 61.0708C51.0466 61.0708 51.5666 61.0038 51.9636 60.8696C52.3662 60.7299 52.6597 60.5454 52.8442 60.3163C52.9337 60.1989 53.0008 60.0759 53.0455 59.9474C53.0958 59.8188 53.121 59.6847 53.121 59.5449V59.5366C53.121 59.2235 53.0287 58.9748 52.8442 58.7904C52.6597 58.6059 52.369 58.469 51.972 58.3796C51.7707 58.3348 51.5387 58.2985 51.2759 58.2706C51.0187 58.2426 50.7279 58.2231 50.4037 58.2119C49.8389 58.1895 49.3944 58.1532 49.0701 58.1029C48.7514 58.047 48.525 57.9659 48.3908 57.8597C48.3237 57.8039 48.2734 57.7396 48.2399 57.6669C48.2063 57.5887 48.1895 57.502 48.1895 57.407C48.1895 57.1499 48.3293 56.9319 48.6089 56.7531C48.8884 56.5686 49.3553 56.4764 50.0095 56.4764C50.6245 56.4764 51.1333 56.563 51.5359 56.7363C51.9384 56.904 52.2124 57.1974 52.3578 57.6166H53.0623C52.8722 57.0353 52.5227 56.6133 52.0139 56.3506C51.5051 56.0879 50.837 55.9566 50.0095 55.9566C49.4671 55.9566 49.0114 56.0236 48.6424 56.1578C48.2734 56.2863 47.9966 56.4624 47.8121 56.686C47.7227 56.7978 47.6528 56.9179 47.6025 57.0465C47.5577 57.1695 47.5354 57.3008 47.5354 57.4405C47.5354 57.748 47.6248 57.9939 47.8037 58.1783C47.9827 58.3572 48.2678 58.4913 48.6592 58.5808C48.8549 58.6255 49.0785 58.6618 49.3301 58.6898C49.5873 58.7177 49.8753 58.7373 50.194 58.7485C50.7699 58.7652 51.2228 58.7988 51.5527 58.8491C51.8825 58.8994 52.1174 58.9804 52.2571 59.0922C52.3242 59.1481 52.3746 59.2152 52.4081 59.2934C52.4472 59.3661 52.4668 59.4527 52.4668 59.5533C52.4668 59.7266 52.4025 59.8887 52.2739 60.0396C52.1509 60.1849 51.9412 60.3023 51.6449 60.3917C51.4995 60.4364 51.3234 60.47 51.1165 60.4923C50.9152 60.5147 50.686 60.5259 50.4288 60.5259C50.043 60.5259 49.6824 60.4923 49.3469 60.4253C49.017 60.3582 48.7375 60.2352 48.5082 60.0564C48.3908 59.9669 48.293 59.8579 48.2147 59.7294C48.1364 59.5952 48.0777 59.4415 48.0386 59.2683H47.2921C47.3872 59.7266 47.5773 60.0871 47.8624 60.3498C48.1532 60.6069 48.5166 60.7914 48.9527 60.9031C49.1708 60.959 49.4 61.001 49.6405 61.0289C49.8809 61.0569 50.1353 61.0708 50.4037 61.0708Z" fill="currentColor"/>
<path d="M55.0275 60.9199V54.5816H54.3649V60.9199H55.0275Z" fill="currentColor"/>
<path d="M56.5971 63.0243C56.9605 63.0243 57.2625 63.0047 57.5029 62.9656C57.7433 62.9265 57.9586 62.8454 58.1487 62.7225C58.3332 62.5939 58.5177 62.4039 58.7022 62.1524C58.8923 61.9064 59.1132 61.5739 59.3648 61.1547L62.3756 56.1662H61.6544L59.2557 60.157L56.832 56.1662H56.1107L58.9035 60.769L58.7609 61.0038C58.5652 61.3223 58.3947 61.5767 58.2493 61.7667C58.1095 61.9567 57.967 62.1021 57.8216 62.2027C57.6818 62.2977 57.5169 62.362 57.3268 62.3955C57.1367 62.429 56.899 62.4458 56.6139 62.4458H56.2868V63.0243H56.5971Z" fill="currentColor"/>
</svg>
