<svg  viewBox="0 0 225 157" fill="none" xmlns="http://www.w3.org/2000/svg">
<path fill-rule="evenodd" clip-rule="evenodd" d="M223.734 103.181L191.403 153.866L139.098 120.468L171.429 69.7832L223.734 103.181Z" stroke="#FFA578" stroke-width="2.24232" stroke-linecap="round" stroke-linejoin="round"/>
<path fill-rule="evenodd" clip-rule="evenodd" d="M177.061 93.1854C178.411 126.498 152.513 154.6 119.216 155.95C85.9197 157.303 57.8324 131.392 56.4823 98.0792C55.1301 64.7643 81.0302 36.6631 114.327 35.3122C147.623 33.9614 175.708 59.8724 177.061 93.1854Z" fill="#E6E2FF"/>
<path fill-rule="evenodd" clip-rule="evenodd" d="M177.061 93.1854C178.411 126.498 152.513 154.6 119.216 155.95C85.9197 157.303 57.8324 131.392 56.4823 98.0792C55.1301 64.7643 81.0302 36.6631 114.327 35.3122C147.623 33.9614 175.708 59.8724 177.061 93.1854Z" stroke="#0E0916" stroke-width="1.49488" stroke-linecap="round" stroke-linejoin="round"/>
<mask id="mask0_923_89068" style="mask-type:alpha" maskUnits="userSpaceOnUse" x="56" y="35" width="122" height="121">
<path d="M56.4258 95.6292C56.4258 128.972 83.4412 156.001 116.765 156.001C150.089 156.001 177.105 128.972 177.105 95.6292C177.105 62.2886 150.089 35.2598 116.765 35.2598C83.4412 35.2598 56.4258 62.2886 56.4258 95.6292Z" fill="white"/>
</mask>
<g mask="url(#mask0_923_89068)">
<path d="M69.0273 109.078C76.398 119.083 85.8947 126.506 98.6483 127.603C115.672 129.066 133.704 124.585 148.883 117.023C151.856 115.544 155.243 112.82 154.233 109.654C153.589 107.632 151.386 106.595 149.369 105.938C133.226 100.678 114.233 105.62 102.697 118.079C99.4419 121.593 96.6941 125.797 95.9736 130.531C95.2551 135.267 96.9429 140.57 100.962 143.173C103.192 144.616 105.887 145.12 108.512 145.527C126.905 148.369 145.642 147.792 164.073 145.602C180.484 143.655 203.072 144.097 216.284 132.53C216.933 131.961 217.596 131.25 217.586 130.385C217.574 129.2 216.359 128.44 215.281 127.946C192.389 117.434 164.957 121.703 141.678 128.47C141.436 128.541 141.191 128.612 140.948 128.683C131.595 131.434 121.978 135.133 115.745 142.63C112.363 146.694 110.156 152.429 112.267 157.276C114.01 161.281 118.181 163.601 122.199 165.306C129.177 168.26 136.538 170.229 143.978 171.663C169.44 176.575 198.273 176.041 222.705 166.617C226.218 165.26 229.643 163.675 232.948 161.865C237.999 159.099 238.893 155.117 232.884 153.581C229.017 152.593 224.813 152.607 220.845 152.775C205.638 153.419 190.492 155.563 175.703 159.17C168.781 160.858 161.809 162.924 155.897 166.9C153.502 168.513 151.114 170.83 151.161 173.715C151.195 175.694 152.397 177.469 153.779 178.887C157.811 183.019 163.494 185.045 169.059 186.588C180.608 189.795 192.576 191.485 204.562 191.637C210.555 191.712 216.552 191.404 222.507 190.709C228.04 190.061 233.727 189.516 238.735 186.874C242.594 184.836 237.918 183.023 235.982 182.586C233.613 182.051 231.092 181.806 228.66 181.8C219.523 181.775 210.383 182.652 201.42 184.419C197.045 185.282 192.64 186.384 188.792 188.638C184.945 190.893 181.672 194.454 180.664 198.802" stroke="#2250FF" stroke-width="1.49488"/>
</g>
<path fill-rule="evenodd" clip-rule="evenodd" d="M130.115 15.9752V80.6046C130.115 83.6618 127.636 86.1403 124.579 86.1403H25.074C22.0164 86.1403 19.5371 83.6618 19.5371 80.6046V15.9752C19.5371 12.9161 22.0164 10.4355 25.074 10.4355H124.579C127.636 10.4355 130.115 12.9161 130.115 15.9752Z" fill="white"/>
<path fill-rule="evenodd" clip-rule="evenodd" d="M130.115 15.9752V80.6046C130.115 83.6618 127.636 86.1403 124.579 86.1403H25.074C22.0164 86.1403 19.5371 83.6618 19.5371 80.6046V15.9752C19.5371 12.9161 22.0164 10.4355 25.074 10.4355H124.579C127.636 10.4355 130.115 12.9161 130.115 15.9752Z" stroke="#0E0916" stroke-width="1.49488" stroke-linecap="round" stroke-linejoin="round"/>
<path fill-rule="evenodd" clip-rule="evenodd" d="M19.5469 26.3423H130.285V19.2168H19.5469V26.3423Z" fill="#E6E2FF"/>
<path fill-rule="evenodd" clip-rule="evenodd" d="M19.5469 26.3423H130.285V19.2168H19.5469V26.3423Z" stroke="#0E0916" stroke-width="1.49488" stroke-linecap="round" stroke-linejoin="round"/>
<path d="M19.5371 79.8574H130.119" stroke="#0E0916" stroke-width="1.49488" stroke-linecap="round" stroke-linejoin="round"/>
<path fill-rule="evenodd" clip-rule="evenodd" d="M25.7744 14.868C25.7744 15.4941 25.265 16.0036 24.6372 16.0036C24.0094 16.0036 23.502 15.4941 23.502 14.868C23.502 14.24 24.0094 13.7324 24.6372 13.7324C25.265 13.7324 25.7744 14.24 25.7744 14.868Z" fill="white"/>
<path fill-rule="evenodd" clip-rule="evenodd" d="M25.7744 14.868C25.7744 15.4941 25.265 16.0036 24.6372 16.0036C24.0094 16.0036 23.502 15.4941 23.502 14.868C23.502 14.24 24.0094 13.7324 24.6372 13.7324C25.265 13.7324 25.7744 14.24 25.7744 14.868Z" stroke="#0E0916" stroke-width="1.49488" stroke-linecap="round" stroke-linejoin="round"/>
<path fill-rule="evenodd" clip-rule="evenodd" d="M30.8759 14.868C30.8759 15.4941 30.3666 16.0036 29.7407 16.0036C29.1109 16.0036 28.6055 15.4941 28.6055 14.868C28.6055 14.24 29.1109 13.7324 29.7407 13.7324C30.3666 13.7324 30.8759 14.24 30.8759 14.868Z" fill="white"/>
<path fill-rule="evenodd" clip-rule="evenodd" d="M30.8759 14.868C30.8759 15.4941 30.3666 16.0036 29.7407 16.0036C29.1109 16.0036 28.6055 15.4941 28.6055 14.868C28.6055 14.24 29.1109 13.7324 29.7407 13.7324C30.3666 13.7324 30.8759 14.24 30.8759 14.868Z" stroke="#0E0916" stroke-width="1.49488" stroke-linecap="round" stroke-linejoin="round"/>
<path fill-rule="evenodd" clip-rule="evenodd" d="M35.9775 14.868C35.9775 15.4941 35.4681 16.0036 34.8423 16.0036C34.2144 16.0036 33.707 15.4941 33.707 14.868C33.707 14.24 34.2144 13.7324 34.8423 13.7324C35.4681 13.7324 35.9775 14.24 35.9775 14.868Z" fill="white"/>
<path fill-rule="evenodd" clip-rule="evenodd" d="M35.9775 14.868C35.9775 15.4941 35.4681 16.0036 34.8423 16.0036C34.2144 16.0036 33.707 15.4941 33.707 14.868C33.707 14.24 34.2144 13.7324 34.8423 13.7324C35.4681 13.7324 35.9775 14.24 35.9775 14.868Z" stroke="#0E0916" stroke-width="1.49488" stroke-linecap="round" stroke-linejoin="round"/>
<path fill-rule="evenodd" clip-rule="evenodd" d="M81.233 57.8888L65.8086 51.5848V48.3993L81.233 42.1289V46.0689L71.3218 50.0089L81.233 53.9488V57.8888Z" fill="#340096"/>
<path fill-rule="evenodd" clip-rule="evenodd" d="M83.3652 65.5415L96.263 37.8945H100.201L87.3032 65.5415H83.3652Z" fill="#340096"/>
<path fill-rule="evenodd" clip-rule="evenodd" d="M118.583 51.5848L103.16 57.8888V53.9172L113.069 50.0089L103.16 46.0689V42.1289L118.583 48.4013V51.5848Z" fill="#340096"/>
<path d="M31.2715 36.0117H54.7101" stroke="#0E0916" stroke-width="1.49488" stroke-linecap="round" stroke-linejoin="round"/>
<path d="M31.2715 41.9727H54.7101" stroke="#0E0916" stroke-width="1.49488" stroke-linecap="round" stroke-linejoin="round"/>
<path d="M31.2715 47.9375H54.7101" stroke="#0E0916" stroke-width="1.49488" stroke-linecap="round" stroke-linejoin="round"/>
<path d="M31.2715 53.8984H54.7101" stroke="#0E0916" stroke-width="1.49488" stroke-linecap="round" stroke-linejoin="round"/>
<path d="M31.2715 59.8613H54.7101" stroke="#0E0916" stroke-width="1.49488" stroke-linecap="round" stroke-linejoin="round"/>
<path d="M31.2715 65.8262H54.7101" stroke="#0E0916" stroke-width="1.49488" stroke-linecap="round" stroke-linejoin="round"/>
<path fill-rule="evenodd" clip-rule="evenodd" d="M59.3152 89.3027C59.3152 89.3027 50.849 97.3644 46.2793 102.525C52.5841 104.676 58.5928 106.834 63.119 108.491L67.0551 103.854L59.3152 89.3027Z" fill="#FBFBFC"/>
<path fill-rule="evenodd" clip-rule="evenodd" d="M59.3152 89.3027C59.3152 89.3027 50.849 97.3644 46.2793 102.525C52.5841 104.676 58.5928 106.834 63.119 108.491L67.0551 103.854L59.3152 89.3027Z" stroke="#340096" stroke-width="1.49488" stroke-linecap="round" stroke-linejoin="round"/>
<path fill-rule="evenodd" clip-rule="evenodd" d="M67.0552 103.855L63.1191 108.493C67.9494 110.258 71.0958 111.455 71.0958 111.455L67.0552 103.855Z" fill="#2250FF"/>
<path fill-rule="evenodd" clip-rule="evenodd" d="M67.0552 103.855L63.1191 108.493C67.9494 110.258 71.0958 111.455 71.0958 111.455L67.0552 103.855Z" stroke="#340096" stroke-width="1.49488" stroke-linecap="round" stroke-linejoin="round"/>
<path fill-rule="evenodd" clip-rule="evenodd" d="M7.53125 63.7112L20.9916 50.2383L59.3256 89.3102L46.262 102.53L7.53125 63.7112Z" fill="#2250FF"/>
<path fill-rule="evenodd" clip-rule="evenodd" d="M7.53125 63.7112L20.9916 50.2383L59.3256 89.3102L46.262 102.53L7.53125 63.7112Z" stroke="#340096" stroke-width="1.49488" stroke-linecap="round" stroke-linejoin="round"/>
<path fill-rule="evenodd" clip-rule="evenodd" d="M1.19171 57.6078C-0.124906 50.2394 5.44556 44.125 14.654 44.125C17.0287 46.5028 19.4112 48.8786 21.7898 51.2545C17.2912 55.7376 12.8024 60.2384 8.30778 64.7294C5.93707 62.3496 3.56637 59.9797 1.19171 57.6078Z" fill="#FFD8BA"/>
<path fill-rule="evenodd" clip-rule="evenodd" d="M1.19171 57.6078C-0.124906 50.2394 5.44556 44.125 14.654 44.125C17.0287 46.5028 19.4112 48.8786 21.7898 51.2545C17.2912 55.7376 12.8024 60.2384 8.30778 64.7294C5.93707 62.3496 3.56637 59.9797 1.19171 57.6078Z" stroke="#340096" stroke-width="1.49488" stroke-linecap="round" stroke-linejoin="round"/>
<path fill-rule="evenodd" clip-rule="evenodd" d="M6.26367 62.6859C11.394 57.1581 15.251 53.3998 19.7299 49.2031C22.1085 51.5809 24.4812 53.9568 26.8618 56.3326C22.3691 60.8177 17.8803 65.3165 13.3896 69.8075C11.0189 67.4257 8.63833 65.0578 6.26367 62.6859Z" fill="#F2F0FF"/>
<path fill-rule="evenodd" clip-rule="evenodd" d="M6.26367 62.6859C11.394 57.1581 15.251 53.3998 19.7299 49.2031C22.1085 51.5809 24.4812 53.9568 26.8618 56.3326C22.3691 60.8177 17.8803 65.3165 13.3896 69.8075C11.0189 67.4257 8.63833 65.0578 6.26367 62.6859Z" stroke="#340096" stroke-width="1.49488" stroke-linecap="round" stroke-linejoin="round"/>
<path fill-rule="evenodd" clip-rule="evenodd" d="M202.978 62.7807C202.978 81.1257 188.116 95.9969 169.78 95.9969C151.444 95.9969 136.578 81.1257 136.578 62.7807C136.578 44.4376 151.444 29.5664 169.78 29.5664C188.116 29.5664 202.978 44.4376 202.978 62.7807Z" stroke="#FFA578" stroke-width="2.24232" stroke-linecap="round" stroke-linejoin="round"/>
<path fill-rule="evenodd" clip-rule="evenodd" d="M191.903 105.074L144.6 116.845L149.195 135.346L196.5 123.571L191.903 105.074Z" fill="#FFA578"/>
<path fill-rule="evenodd" clip-rule="evenodd" d="M191.903 105.074L144.6 116.845L149.195 135.346L196.5 123.571L191.903 105.074Z" stroke="#0E0916" stroke-width="1.49488" stroke-linecap="round" stroke-linejoin="round"/>
<path fill-rule="evenodd" clip-rule="evenodd" d="M191.86 105.045L144.584 116.819L145.354 119.938L192.64 108.169L191.86 105.045Z" fill="#E6E2FF"/>
<path fill-rule="evenodd" clip-rule="evenodd" d="M191.86 105.045L144.584 116.819L145.354 119.938L192.64 108.169L191.86 105.045Z" stroke="#0E0916" stroke-width="1.49488" stroke-linecap="round" stroke-linejoin="round"/>
<path d="M162.771 125.657L160.422 116.186" stroke="#0E0916" stroke-width="1.49488" stroke-linecap="round" stroke-linejoin="round"/>
<path d="M179.977 121.374L177.617 111.906" stroke="#0E0916" stroke-width="1.49488" stroke-linecap="round" stroke-linejoin="round"/>
<path d="M170.442 121.004L168.732 114.117" stroke="#0E0916" stroke-width="1.49488" stroke-linecap="round" stroke-linejoin="round"/>
<path d="M187.706 116.332L186.127 109.986" stroke="#0E0916" stroke-width="1.49488" stroke-linecap="round" stroke-linejoin="round"/>
<path d="M153.667 125.181L151.955 118.295" stroke="#0E0916" stroke-width="1.49488" stroke-linecap="round" stroke-linejoin="round"/>
</svg>
