<svg viewBox="0 0 238 182" fill="none" xmlns="http://www.w3.org/2000/svg">
<path fill-rule="evenodd" clip-rule="evenodd" d="M180.987 90.0149C180.987 124.667 153.051 152.756 118.593 152.756C84.1333 152.756 56.2012 124.667 56.2012 90.0149C56.2012 55.3632 84.1333 27.2754 118.593 27.2754C153.051 27.2754 180.987 55.3632 180.987 90.0149Z" stroke="#0E0916" stroke-width="1.58757" stroke-linecap="round" stroke-linejoin="round" stroke-dasharray="20.63 20.63"/>
<path fill-rule="evenodd" clip-rule="evenodd" d="M237 130.187C237 158.249 214.374 180.999 186.47 180.999C158.561 180.999 135.938 158.249 135.938 130.187C135.938 102.123 158.561 79.375 186.47 79.375C214.374 79.375 237 102.123 237 130.187Z" fill="#FFA578"/>
<mask id="mask0_923_89199" style="mask-type:alpha" maskUnits="userSpaceOnUse" x="135" y="79" width="102" height="102">
<path d="M135.932 130.185C135.932 158.247 158.556 180.999 186.464 180.999C214.37 180.999 236.994 158.247 236.994 130.185C236.994 102.121 214.37 79.373 186.464 79.373C158.556 79.373 135.932 102.121 135.932 130.185Z" fill="white"/>
</mask>
<g mask="url(#mask0_923_89199)">
<path fill-rule="evenodd" clip-rule="evenodd" d="M175.186 166.09V148.264L175.231 148.151C171.136 147.554 168.308 144.639 166.469 141.115C160.752 130.133 167.135 109.913 167.194 109.481L175.555 105.543L193.341 108.442L209.247 126.325L203.985 168.895L175.186 166.09Z" fill="#FBFBFC"/>
</g>
<mask id="mask1_923_89199" style="mask-type:alpha" maskUnits="userSpaceOnUse" x="135" y="79" width="102" height="102">
<path d="M135.932 130.185C135.932 158.247 158.556 180.999 186.464 180.999C214.37 180.999 236.994 158.247 236.994 130.185C236.994 102.121 214.37 79.373 186.464 79.373C158.556 79.373 135.932 102.121 135.932 130.185Z" fill="white"/>
</mask>
<g mask="url(#mask1_923_89199)">
<path d="M178.512 142.116C182.223 143.375 183.53 139.713 183.53 139.713" stroke="#340096" stroke-width="1.58757" stroke-linecap="round" stroke-linejoin="round"/>
</g>
<mask id="mask2_923_89199" style="mask-type:alpha" maskUnits="userSpaceOnUse" x="135" y="79" width="102" height="102">
<path d="M135.932 130.185C135.932 158.247 158.556 180.999 186.464 180.999C214.37 180.999 236.994 158.247 236.994 130.185C236.994 102.121 214.37 79.373 186.464 79.373C158.556 79.373 135.932 102.121 135.932 130.185Z" fill="white"/>
</mask>
<g mask="url(#mask2_923_89199)">
<path d="M175.189 148.264V159.709" stroke="#340096" stroke-width="1.58757" stroke-linecap="round" stroke-linejoin="round"/>
</g>
<mask id="mask3_923_89199" style="mask-type:alpha" maskUnits="userSpaceOnUse" x="135" y="79" width="102" height="102">
<path d="M135.932 130.185C135.932 158.247 158.556 180.999 186.464 180.999C214.37 180.999 236.994 158.247 236.994 130.185C236.994 102.121 214.37 79.373 186.464 79.373C158.556 79.373 135.932 102.121 135.932 130.185Z" fill="white"/>
</mask>
<g mask="url(#mask3_923_89199)">
<path fill-rule="evenodd" clip-rule="evenodd" d="M208.373 116.757C210.356 110.635 203.537 103.359 197.946 102.847C197.107 102.771 196.189 98.7259 191.661 97.3256C187.942 96.1757 177.534 96.7933 176.258 100.18C176.49 98.6721 163.634 100.748 162.673 107.808C161.993 112.812 164.114 114.545 165.82 115.609C171.608 119.226 166.65 115.405 176.07 109.919C169.559 125.881 194.162 128.54 197.777 127.519C201.265 126.534 203.616 127.242 204.496 130.506C205.745 135.141 199.142 137.328 199.142 137.328L198.612 155.825C201.823 157.283 211.324 169.519 215.86 169.099C222 168.528 210.789 155.905 211.507 148.267C212.724 135.314 213.954 119.486 208.373 116.757Z" fill="#340096"/>
</g>
<mask id="mask4_923_89199" style="mask-type:alpha" maskUnits="userSpaceOnUse" x="135" y="79" width="102" height="102">
<path d="M135.932 130.185C135.932 158.247 158.556 180.999 186.464 180.999C214.37 180.999 236.994 158.247 236.994 130.185C236.994 102.121 214.37 79.373 186.464 79.373C158.556 79.373 135.932 102.121 135.932 130.185Z" fill="white"/>
</mask>
<g mask="url(#mask4_923_89199)">
<path d="M167.194 109.479C167.135 109.911 160.752 130.133 166.469 141.114C169.314 146.571 174.539 150.566 183.158 146.76" stroke="#340096" stroke-width="1.58757" stroke-linecap="round" stroke-linejoin="round"/>
</g>
<mask id="mask5_923_89199" style="mask-type:alpha" maskUnits="userSpaceOnUse" x="135" y="79" width="102" height="102">
<path d="M135.932 130.185C135.932 158.247 158.556 180.999 186.464 180.999C214.37 180.999 236.994 158.247 236.994 130.185C236.994 102.121 214.37 79.373 186.464 79.373C158.556 79.373 135.932 102.121 135.932 130.185Z" fill="white"/>
</mask>
<g mask="url(#mask5_923_89199)">
<path fill-rule="evenodd" clip-rule="evenodd" d="M130.472 170.358C130.472 170.358 152.338 149.457 175.044 155.255C176.005 157.553 184.925 162.62 198.985 156.076C224.304 159.967 226.967 160.982 232.29 166.648C237.399 172.088 234.509 180.996 234.509 180.996H116.369L130.472 170.358Z" fill="#2250FF"/>
</g>
<mask id="mask6_923_89199" style="mask-type:alpha" maskUnits="userSpaceOnUse" x="135" y="79" width="102" height="102">
<path d="M135.932 130.185C135.932 158.247 158.556 180.999 186.464 180.999C214.37 180.999 236.994 158.247 236.994 130.185C236.994 102.121 214.37 79.373 186.464 79.373C158.556 79.373 135.932 102.121 135.932 130.185Z" fill="white"/>
</mask>
<g mask="url(#mask6_923_89199)">
<path fill-rule="evenodd" clip-rule="evenodd" d="M130.472 170.358C130.472 170.358 152.338 149.457 175.044 155.255C176.005 157.553 184.925 162.62 198.985 156.076C224.304 159.967 226.967 160.982 232.29 166.648C237.399 172.088 234.509 180.996 234.509 180.996H116.369L130.472 170.358Z" stroke="#340096" stroke-width="1.58757" stroke-linecap="round" stroke-linejoin="round"/>
</g>
<mask id="mask7_923_89199" style="mask-type:alpha" maskUnits="userSpaceOnUse" x="135" y="79" width="102" height="102">
<path d="M135.932 130.185C135.932 158.247 158.556 180.999 186.464 180.999C214.37 180.999 236.994 158.247 236.994 130.185C236.994 102.121 214.37 79.373 186.464 79.373C158.556 79.373 135.932 102.121 135.932 130.185Z" fill="white"/>
</mask>
<g mask="url(#mask7_923_89199)">
<path d="M199.699 134.067C199.699 134.067 202.047 133.72 202.209 131.623C202.366 129.57 199.777 129.453 199.777 129.453" stroke="#340096" stroke-width="1.58757" stroke-linecap="round" stroke-linejoin="round"/>
</g>
<mask id="mask8_923_89199" style="mask-type:alpha" maskUnits="userSpaceOnUse" x="135" y="79" width="102" height="102">
<path d="M135.932 130.185C135.932 158.247 158.556 180.999 186.464 180.999C214.37 180.999 236.994 158.247 236.994 130.185C236.994 102.121 214.37 79.373 186.464 79.373C158.556 79.373 135.932 102.121 135.932 130.185Z" fill="white"/>
</mask>
<g mask="url(#mask8_923_89199)">
<path fill-rule="evenodd" clip-rule="evenodd" d="M173.635 127.318C173.635 130.512 171.06 133.101 167.886 133.101C164.708 133.101 162.135 130.512 162.135 127.318C162.135 124.124 164.708 121.535 167.886 121.535C171.06 121.535 173.635 124.124 173.635 127.318Z" fill="white"/>
</g>
<mask id="mask9_923_89199" style="mask-type:alpha" maskUnits="userSpaceOnUse" x="135" y="79" width="102" height="102">
<path d="M135.932 130.185C135.932 158.247 158.556 180.999 186.464 180.999C214.37 180.999 236.994 158.247 236.994 130.185C236.994 102.121 214.37 79.373 186.464 79.373C158.556 79.373 135.932 102.121 135.932 130.185Z" fill="white"/>
</mask>
<g mask="url(#mask9_923_89199)">
<path fill-rule="evenodd" clip-rule="evenodd" d="M173.635 127.318C173.635 130.512 171.06 133.101 167.886 133.101C164.708 133.101 162.135 130.512 162.135 127.318C162.135 124.124 164.708 121.535 167.886 121.535C171.06 121.535 173.635 124.124 173.635 127.318Z" stroke="#340096" stroke-width="1.58757" stroke-linecap="round" stroke-linejoin="round"/>
</g>
<mask id="mask10_923_89199" style="mask-type:alpha" maskUnits="userSpaceOnUse" x="135" y="79" width="102" height="102">
<path d="M135.932 130.185C135.932 158.247 158.556 180.999 186.464 180.999C214.37 180.999 236.994 158.247 236.994 130.185C236.994 102.121 214.37 79.373 186.464 79.373C158.556 79.373 135.932 102.121 135.932 130.185Z" fill="white"/>
</mask>
<g mask="url(#mask10_923_89199)">
<path d="M168.845 127.649C168.845 127.649 167.49 127.029 166.057 127.621" stroke="#340096" stroke-width="1.58757" stroke-linecap="round" stroke-linejoin="round"/>
</g>
<mask id="mask11_923_89199" style="mask-type:alpha" maskUnits="userSpaceOnUse" x="135" y="79" width="102" height="102">
<path d="M135.932 130.185C135.932 158.247 158.556 180.999 186.464 180.999C214.37 180.999 236.994 158.247 236.994 130.185C236.994 102.121 214.37 79.373 186.464 79.373C158.556 79.373 135.932 102.121 135.932 130.185Z" fill="white"/>
</mask>
<g mask="url(#mask11_923_89199)">
<path fill-rule="evenodd" clip-rule="evenodd" d="M188.611 127.318C188.611 130.512 186.037 133.101 182.86 133.101C179.684 133.101 177.111 130.512 177.111 127.318C177.111 124.124 179.684 121.535 182.86 121.535C186.037 121.535 188.611 124.124 188.611 127.318Z" fill="white"/>
</g>
<mask id="mask12_923_89199" style="mask-type:alpha" maskUnits="userSpaceOnUse" x="135" y="79" width="102" height="102">
<path d="M135.932 130.185C135.932 158.247 158.556 180.999 186.464 180.999C214.37 180.999 236.994 158.247 236.994 130.185C236.994 102.121 214.37 79.373 186.464 79.373C158.556 79.373 135.932 102.121 135.932 130.185Z" fill="white"/>
</mask>
<g mask="url(#mask12_923_89199)">
<path fill-rule="evenodd" clip-rule="evenodd" d="M188.611 127.318C188.611 130.512 186.037 133.101 182.86 133.101C179.684 133.101 177.111 130.512 177.111 127.318C177.111 124.124 179.684 121.535 182.86 121.535C186.037 121.535 188.611 124.124 188.611 127.318Z" stroke="#340096" stroke-width="1.58757" stroke-linecap="round" stroke-linejoin="round"/>
</g>
<mask id="mask13_923_89199" style="mask-type:alpha" maskUnits="userSpaceOnUse" x="135" y="79" width="102" height="102">
<path d="M135.932 130.185C135.932 158.247 158.556 180.999 186.464 180.999C214.37 180.999 236.994 158.247 236.994 130.185C236.994 102.121 214.37 79.373 186.464 79.373C158.556 79.373 135.932 102.121 135.932 130.185Z" fill="white"/>
</mask>
<g mask="url(#mask13_923_89199)">
<path d="M183.812 127.649C183.812 127.649 182.459 127.029 181.025 127.621" stroke="#340096" stroke-width="1.58757" stroke-linecap="round" stroke-linejoin="round"/>
</g>
<mask id="mask14_923_89199" style="mask-type:alpha" maskUnits="userSpaceOnUse" x="135" y="79" width="102" height="102">
<path d="M135.932 130.185C135.932 158.247 158.556 180.999 186.464 180.999C214.37 180.999 236.994 158.247 236.994 130.185C236.994 102.121 214.37 79.373 186.464 79.373C158.556 79.373 135.932 102.121 135.932 130.185Z" fill="white"/>
</mask>
<g mask="url(#mask14_923_89199)">
<path d="M174.898 129.994C174.898 129.994 173.391 135.404 175.263 136.43C175.263 136.43 176.211 136.938 177.452 136.556" stroke="#340096" stroke-width="1.58757" stroke-linecap="round" stroke-linejoin="round"/>
</g>
<mask id="mask15_923_89199" style="mask-type:alpha" maskUnits="userSpaceOnUse" x="135" y="79" width="102" height="102">
<path d="M135.932 130.185C135.932 158.247 158.556 180.999 186.464 180.999C214.37 180.999 236.994 158.247 236.994 130.185C236.994 102.121 214.37 79.373 186.464 79.373C158.556 79.373 135.932 102.121 135.932 130.185Z" fill="white"/>
</mask>
<g mask="url(#mask15_923_89199)">
<path d="M177.115 127.318H173.639" stroke="#340096" stroke-width="1.58757" stroke-linecap="round" stroke-linejoin="round"/>
</g>
<path fill-rule="evenodd" clip-rule="evenodd" d="M237 130.185C237 158.247 214.374 180.997 186.47 180.997C158.561 180.997 135.938 158.247 135.938 130.185C135.938 102.121 158.561 79.373 186.47 79.373C214.374 79.373 237 102.121 237 130.185Z" stroke="#0E0916" stroke-width="1.58757" stroke-linecap="round" stroke-linejoin="round"/>
<path fill-rule="evenodd" clip-rule="evenodd" d="M1.00586 51.8118C1.00586 79.8755 23.6297 102.624 51.5361 102.624C79.4443 102.624 102.068 79.8755 102.068 51.8118C102.068 23.7481 79.4443 1 51.5361 1C23.6297 1 1.00586 23.7481 1.00586 51.8118Z" fill="#FFD8BA"/>
<mask id="mask16_923_89199" style="mask-type:alpha" maskUnits="userSpaceOnUse" x="1" y="1" width="102" height="102">
<path d="M1 51.8118C1 79.8755 23.6257 102.625 51.5321 102.625C79.4403 102.625 102.064 79.8755 102.064 51.8118C102.064 23.7481 79.4403 1 51.5321 1C23.6257 1 1 23.7481 1 51.8118Z" fill="white"/>
</mask>
<g mask="url(#mask16_923_89199)">
<path fill-rule="evenodd" clip-rule="evenodd" d="M29.5045 44.0039C27.9035 43.6533 27.103 41.6373 27.2671 39.9235C27.5604 36.8206 30.4267 34.2963 33.3593 34.3593C32.9019 34.185 32.5072 33.7751 32.3338 33.2873C32.0719 32.5473 32.225 31.7071 32.5515 30.9986C33.7448 28.4187 37.4226 27.6119 39.4958 29.4777C39.0273 26.4657 40.4696 23.3312 42.7586 21.4561C45.0475 19.5791 47.8935 19.1284 50.7911 19.2731C53.6887 19.4159 56.6675 20.0929 59.3475 21.2613C62.7615 22.7525 66.0778 24.6592 68.6803 27.4227C71.281 30.1862 73.1199 33.8957 73.1549 37.7832C73.1752 39.8827 72.5297 42.1881 70.8291 43.2842C70.5746 43.4493 70.3016 43.5754 70.0231 43.6774C72.3471 49.6329 77.233 63.981 72.3803 71.4054C69.9069 75.1928 66.2198 77.0197 61.7102 76.7915L61.6696 76.9937V86.6994L39.9993 90.65L39.2707 64.4948C39.2707 64.4948 32.4629 63.7325 34.0787 58.2741C33.9366 58.556 33.6747 58.747 33.3741 58.786C33.0956 58.8212 32.8171 58.7285 32.6142 58.5282C32.3965 58.313 32.2213 58.0441 32.0553 57.7807C30.4433 55.2064 29.2407 52.3482 28.5177 49.3603C28.0621 47.4759 27.9662 45.0833 29.5045 44.0039Z" fill="#FFEBDE"/>
</g>
<mask id="mask17_923_89199" style="mask-type:alpha" maskUnits="userSpaceOnUse" x="1" y="1" width="102" height="102">
<path d="M1 51.8118C1 79.8755 23.6257 102.625 51.5321 102.625C79.4403 102.625 102.064 79.8755 102.064 51.8118C102.064 23.7481 79.4403 1 51.5321 1C23.6257 1 1 23.7481 1 51.8118Z" fill="white"/>
</mask>
<g mask="url(#mask17_923_89199)">
<path fill-rule="evenodd" clip-rule="evenodd" d="M29.5045 44.0039C27.9035 43.6533 27.103 41.6373 27.2671 39.9235C27.5604 36.8206 30.4267 34.2963 33.3593 34.3593C32.9019 34.185 32.5072 33.7751 32.3338 33.2873C32.0719 32.5473 32.225 31.7071 32.5515 30.9986C33.7448 28.4187 37.4226 27.6119 39.4958 29.4777C39.0273 26.4657 40.4696 23.3312 42.7586 21.4561C45.0475 19.5791 47.8935 19.1284 50.7911 19.2731C53.6887 19.4159 56.6675 20.0929 59.3475 21.2613C62.7615 22.7525 66.0778 24.6592 68.6803 27.4227C71.281 30.1862 73.1199 33.8957 73.1549 37.7832C73.1752 39.8827 72.5297 42.1881 70.8291 43.2842C70.5745 43.4493 70.3016 43.5754 70.0231 43.6774C72.3471 49.6329 77.233 63.981 72.3803 71.4054C69.9069 75.1928 66.2198 77.0197 61.7102 76.7915L61.6696 76.9937V86.6994L39.9993 90.65L39.2707 64.4948C39.2707 64.4948 32.4629 63.7325 34.0787 58.2741C33.9366 58.556 33.6747 58.747 33.3741 58.786C33.0956 58.8212 32.8171 58.7285 32.6142 58.5282C32.3965 58.313 32.2213 58.0441 32.0553 57.7807C30.4433 55.2064 29.2407 52.3482 28.5177 49.3603C28.0621 47.4759 27.9662 45.0833 29.5045 44.0039Z" stroke="#340096" stroke-width="1.58757" stroke-linecap="round" stroke-linejoin="round"/>
</g>
<mask id="mask18_923_89199" style="mask-type:alpha" maskUnits="userSpaceOnUse" x="1" y="1" width="102" height="102">
<path d="M1 51.8118C1 79.8755 23.6257 102.625 51.5321 102.625C79.4403 102.625 102.064 79.8755 102.064 51.8118C102.064 23.7481 79.4403 1 51.5321 1C23.6257 1 1 23.7481 1 51.8118Z" fill="white"/>
</mask>
<g mask="url(#mask18_923_89199)">
<path d="M53.5918 66.8516C53.5918 66.8516 55.3403 71.7787 60.2502 70.0318" stroke="#340096" stroke-width="1.58757" stroke-linecap="round" stroke-linejoin="round"/>
</g>
<mask id="mask19_923_89199" style="mask-type:alpha" maskUnits="userSpaceOnUse" x="1" y="1" width="102" height="102">
<path d="M1 51.8118C1 79.8755 23.6257 102.625 51.5321 102.625C79.4403 102.625 102.064 79.8755 102.064 51.8118C102.064 23.7481 79.4403 1 51.5321 1C23.6257 1 1 23.7481 1 51.8118Z" fill="white"/>
</mask>
<g mask="url(#mask19_923_89199)">
<path d="M59.7344 63.03C59.7344 63.03 64.4026 64.6677 63.9895 60.1181C63.7552 57.553 63.1245 53.5413 62.6191 50.5292C62.1653 47.8306 65.074 47.673 67.4423 49.0176" stroke="#340096" stroke-width="1.58757" stroke-linecap="round" stroke-linejoin="round"/>
</g>
<mask id="mask20_923_89199" style="mask-type:alpha" maskUnits="userSpaceOnUse" x="1" y="1" width="102" height="102">
<path d="M1 51.8118C1 79.8755 23.6257 102.625 51.5321 102.625C79.4403 102.625 102.064 79.8755 102.064 51.8118C102.064 23.7481 79.4403 1 51.5321 1C23.6257 1 1 23.7481 1 51.8118Z" fill="white"/>
</mask>
<g mask="url(#mask20_923_89199)">
<path d="M50.5078 54.62C50.5078 54.62 53.4183 53.7713 55.0728 54.513" stroke="#340096" stroke-width="1.58757" stroke-linecap="round" stroke-linejoin="round"/>
</g>
<mask id="mask21_923_89199" style="mask-type:alpha" maskUnits="userSpaceOnUse" x="1" y="1" width="102" height="102">
<path d="M1 51.8118C1 79.8755 23.6257 102.625 51.5321 102.625C79.4403 102.625 102.064 79.8755 102.064 51.8118C102.064 23.7481 79.4403 1 51.5321 1C23.6257 1 1 23.7481 1 51.8118Z" fill="white"/>
</mask>
<g mask="url(#mask21_923_89199)">
<path d="M66.6895 54.4402C66.6895 54.4402 69.1499 53.4242 71.2526 54.3328" stroke="#340096" stroke-width="1.58757" stroke-linecap="round" stroke-linejoin="round"/>
</g>
<mask id="mask22_923_89199" style="mask-type:alpha" maskUnits="userSpaceOnUse" x="1" y="1" width="102" height="102">
<path d="M1 51.8118C1 79.8755 23.6257 102.625 51.5321 102.625C79.4403 102.625 102.064 79.8755 102.064 51.8118C102.064 23.7481 79.4403 1 51.5321 1C23.6257 1 1 23.7481 1 51.8118Z" fill="white"/>
</mask>
<g mask="url(#mask22_923_89199)">
<path d="M61.6758 76.9941V86.698" stroke="#340096" stroke-width="1.58757" stroke-linecap="round" stroke-linejoin="round"/>
</g>
<mask id="mask23_923_89199" style="mask-type:alpha" maskUnits="userSpaceOnUse" x="1" y="1" width="102" height="102">
<path d="M1 51.8118C1 79.8755 23.6257 102.625 51.5321 102.625C79.4403 102.625 102.064 79.8755 102.064 51.8118C102.064 23.7481 79.4403 1 51.5321 1C23.6257 1 1 23.7481 1 51.8118Z" fill="white"/>
</mask>
<g mask="url(#mask23_923_89199)">
<path d="M40.0064 90.6505L39.276 64.4935C39.276 64.4935 32.0311 63.6848 34.2629 57.7441" stroke="#340096" stroke-width="1.58757" stroke-linecap="round" stroke-linejoin="round"/>
</g>
<mask id="mask24_923_89199" style="mask-type:alpha" maskUnits="userSpaceOnUse" x="1" y="1" width="102" height="102">
<path d="M1 51.8118C1 79.8755 23.6257 102.625 51.5321 102.625C79.4403 102.625 102.064 79.8755 102.064 51.8118C102.064 23.7481 79.4403 1 51.5321 1C23.6257 1 1 23.7481 1 51.8118Z" fill="white"/>
</mask>
<g mask="url(#mask24_923_89199)">
<path d="M39.1774 58.3038C39.0631 57.6937 38.4415 57.2543 37.8255 57.2598C37.2076 57.2635 36.6303 57.6585 36.3093 58.1889C35.9902 58.7211 35.9036 59.3664 35.9626 59.9839C35.9884 60.2825 36.0548 60.5847 36.2024 60.8462" stroke="#340096" stroke-width="1.58757" stroke-linecap="round" stroke-linejoin="round"/>
</g>
<mask id="mask25_923_89199" style="mask-type:alpha" maskUnits="userSpaceOnUse" x="1" y="1" width="102" height="102">
<path d="M1 51.8118C1 79.8755 23.6257 102.625 51.5321 102.625C79.4403 102.625 102.064 79.8755 102.064 51.8118C102.064 23.7481 79.4403 1 51.5321 1C23.6257 1 1 23.7481 1 51.8118Z" fill="white"/>
</mask>
<g mask="url(#mask25_923_89199)">
<path d="M68.9505 40.9863C69.0058 41.3795 78.549 61.9761 72.3886 71.4055C68.6831 77.0772 62.2681 78.3774 54.4219 74.9147" stroke="#340096" stroke-width="1.58757" stroke-linecap="round" stroke-linejoin="round"/>
</g>
<mask id="mask26_923_89199" style="mask-type:alpha" maskUnits="userSpaceOnUse" x="1" y="1" width="102" height="102">
<path d="M1 51.8118C1 79.8755 23.6257 102.625 51.5321 102.625C79.4403 102.625 102.064 79.8755 102.064 51.8118C102.064 23.7481 79.4403 1 51.5321 1C23.6257 1 1 23.7481 1 51.8118Z" fill="white"/>
</mask>
<g mask="url(#mask26_923_89199)">
<path fill-rule="evenodd" clip-rule="evenodd" d="M33.3751 58.786C33.7034 58.7452 33.9911 58.5263 34.1184 58.2073C34.6422 56.9053 35.6124 55.7906 36.8648 55.2991C38.2758 54.7464 40.0225 55.1044 40.9945 56.3155C41.7618 57.2744 42.1473 58.7581 43.4033 58.9251C43.9253 58.9937 44.4436 58.7804 44.8309 58.4057C45.6259 57.6305 45.8066 56.5121 45.8951 55.4382C46.1441 52.4094 45.7789 49.3659 45.3566 46.3594C45.1869 45.1631 45.0246 43.8778 45.5465 42.8002C46.4079 41.0215 48.6544 40.6709 50.5524 40.6858C54.1619 40.7173 57.7696 41.2719 61.2353 42.3291C63.0576 42.8855 64.8523 43.5829 66.7299 43.8759C68.1243 44.0929 69.6312 44.0614 70.832 43.2861C72.5307 42.1881 73.1762 39.8845 73.1559 37.785C73.1227 33.8957 71.2838 30.1862 68.6832 27.4227C66.0788 24.661 62.7644 22.7525 59.3485 21.2632C56.6685 20.0947 53.6916 19.4159 50.7921 19.2731C47.8945 19.1284 45.0485 19.5791 42.7614 21.4561C40.4725 23.3312 39.0283 26.4657 39.4968 29.4777C37.4236 27.6119 33.7458 28.4187 32.5543 31.0005C32.226 31.7071 32.0729 32.5491 32.3367 33.2873C32.5967 34.0236 33.3567 34.593 34.0889 34.4224C30.922 33.8734 27.5873 36.5646 27.2663 39.9235C27.1059 41.6373 27.9045 43.6533 29.5055 44.0039C27.9672 45.0833 28.0631 47.4759 28.5187 49.3603C29.2436 52.3482 30.4443 55.2064 32.0563 57.7807C32.2223 58.0459 32.3994 58.313 32.6152 58.5282C32.8181 58.7303 33.0984 58.8231 33.3751 58.786Z" fill="#340096"/>
</g>
<mask id="mask27_923_89199" style="mask-type:alpha" maskUnits="userSpaceOnUse" x="1" y="1" width="102" height="102">
<path d="M1 51.8118C1 79.8755 23.6257 102.625 51.5321 102.625C79.4403 102.625 102.064 79.8755 102.064 51.8118C102.064 23.7481 79.4403 1 51.5321 1C23.6257 1 1 23.7481 1 51.8118Z" fill="white"/>
</mask>
<g mask="url(#mask27_923_89199)">
<path fill-rule="evenodd" clip-rule="evenodd" d="M33.3751 58.786C33.7034 58.7452 33.9911 58.5263 34.1184 58.2073C34.6422 56.9053 35.6124 55.7906 36.8648 55.2991C38.2758 54.7464 40.0225 55.1043 40.9945 56.3155C41.7618 57.2744 42.1473 58.7581 43.4033 58.9251C43.9253 58.9937 44.4436 58.7804 44.8309 58.4057C45.6259 57.6305 45.8066 56.5121 45.8951 55.4382C46.1441 52.4094 45.779 49.3659 45.3566 46.3594C45.1869 45.1631 45.0246 43.8778 45.5465 42.8002C46.4079 41.0215 48.6544 40.6709 50.5524 40.6858C54.1619 40.7173 57.7696 41.2719 61.2353 42.3291C63.0576 42.8855 64.8523 43.5829 66.7299 43.8759C68.1243 44.0929 69.6312 44.0614 70.832 43.2861C72.5307 42.1881 73.1762 39.8845 73.1559 37.785C73.1227 33.8957 71.2838 30.1862 68.6832 27.4227C66.0788 24.661 62.7644 22.7525 59.3485 21.2632C56.6685 20.0947 53.6916 19.4159 50.7921 19.2731C47.8945 19.1284 45.0486 19.5791 42.7614 21.4561C40.4725 23.3312 39.0283 26.4657 39.4968 29.4777C37.4236 27.6119 33.7458 28.4187 32.5543 31.0005C32.226 31.7071 32.0729 32.5491 32.3367 33.2873C32.5967 34.0236 33.3567 34.593 34.0889 34.4224C30.922 33.8734 27.5873 36.5646 27.2663 39.9235C27.1059 41.6373 27.9045 43.6533 29.5055 44.0039C27.9672 45.0833 28.0631 47.4759 28.5187 49.3603C29.2436 52.3482 30.4443 55.2064 32.0563 57.7807C32.2223 58.0459 32.3994 58.313 32.6152 58.5282C32.8181 58.7303 33.0984 58.8231 33.3751 58.786Z" stroke="#340096" stroke-width="1.58757" stroke-linecap="round" stroke-linejoin="round"/>
</g>
<mask id="mask28_923_89199" style="mask-type:alpha" maskUnits="userSpaceOnUse" x="1" y="1" width="102" height="102">
<path d="M1 51.8118C1 79.8755 23.6257 102.625 51.5321 102.625C79.4403 102.625 102.064 79.8755 102.064 51.8118C102.064 23.7481 79.4403 1 51.5321 1C23.6257 1 1 23.7481 1 51.8118Z" fill="white"/>
</mask>
<g mask="url(#mask28_923_89199)">
<path d="M38.2305 64.25C38.2305 64.25 40.5821 64.8754 43.2639 64.3681" stroke="#340096" stroke-width="1.58757" stroke-linecap="round" stroke-linejoin="round"/>
</g>
<mask id="mask29_923_89199" style="mask-type:alpha" maskUnits="userSpaceOnUse" x="1" y="1" width="102" height="102">
<path d="M1 51.8118C1 79.8755 23.6257 102.625 51.5321 102.625C79.4403 102.625 102.064 79.8755 102.064 51.8118C102.064 23.7481 79.4403 1 51.5321 1C23.6257 1 1 23.7481 1 51.8118Z" fill="white"/>
</mask>
<g mask="url(#mask29_923_89199)">
<path fill-rule="evenodd" clip-rule="evenodd" d="M103.895 97.3427C103.895 97.3427 83.234 77.5936 61.7776 83.0743C60.8701 85.2425 52.4429 90.0332 39.1537 83.8477C15.2314 87.5257 11.6218 89.7142 7.68577 93.8373C2.8183 98.9377 5.5868 107.395 5.5868 107.395H117.223L103.895 97.3427Z" fill="#DCEAFF"/>
</g>
<mask id="mask30_923_89199" style="mask-type:alpha" maskUnits="userSpaceOnUse" x="1" y="1" width="102" height="102">
<path d="M1 51.8118C1 79.8755 23.6257 102.625 51.5321 102.625C79.4403 102.625 102.064 79.8755 102.064 51.8118C102.064 23.7481 79.4403 1 51.5321 1C23.6257 1 1 23.7481 1 51.8118Z" fill="white"/>
</mask>
<g mask="url(#mask30_923_89199)">
<path fill-rule="evenodd" clip-rule="evenodd" d="M103.895 97.3427C103.895 97.3427 83.234 77.5936 61.7776 83.0743C60.8701 85.2425 52.4429 90.0332 39.1537 83.8477C15.2314 87.5257 11.6218 89.7142 7.68577 93.8373C2.8183 98.9377 5.5868 107.395 5.5868 107.395H117.223L103.895 97.3427Z" stroke="#340096" stroke-width="1.58757" stroke-linecap="round" stroke-linejoin="round"/>
</g>
<path fill-rule="evenodd" clip-rule="evenodd" d="M1.00586 51.8118C1.00586 79.8755 23.6297 102.624 51.5361 102.624C79.4443 102.624 102.068 79.8755 102.068 51.8118C102.068 23.7481 79.4443 1 51.5361 1C23.6297 1 1.00586 23.7481 1.00586 51.8118Z" stroke="#0E0916" stroke-width="1.58757" stroke-linecap="round" stroke-linejoin="round"/>
<path fill-rule="evenodd" clip-rule="evenodd" d="M105.213 142.453C105.213 152.338 97.245 160.351 87.416 160.351C77.5852 160.351 69.6172 152.338 69.6172 142.453C69.6172 132.569 77.5852 124.557 87.416 124.557C97.245 124.557 105.213 132.569 105.213 142.453Z" fill="#D5BFFF"/>
<path fill-rule="evenodd" clip-rule="evenodd" d="M105.213 142.453C105.213 152.338 97.245 160.351 87.416 160.351C77.5852 160.351 69.6172 152.338 69.6172 142.453C69.6172 132.569 77.5852 124.557 87.416 124.557C97.245 124.557 105.213 132.569 105.213 142.453Z" stroke="#0E0916" stroke-width="1.58757" stroke-linecap="round" stroke-linejoin="round"/>
<path fill-rule="evenodd" clip-rule="evenodd" d="M84.9435 146.875C84.9435 152.139 80.6994 156.406 75.463 156.406C70.2285 156.406 65.9863 152.139 65.9863 146.875C65.9863 141.609 70.2285 137.342 75.463 137.342C80.6994 137.342 84.9435 141.609 84.9435 146.875Z" fill="#FFA578"/>
<path fill-rule="evenodd" clip-rule="evenodd" d="M84.9435 146.875C84.9435 152.139 80.6994 156.406 75.4631 156.406C70.2285 156.406 65.9863 152.139 65.9863 146.875C65.9863 141.609 70.2285 137.342 75.4631 137.342C80.6994 137.342 84.9435 141.609 84.9435 146.875Z" stroke="#0E0916" stroke-width="1.58757" stroke-linecap="round" stroke-linejoin="round"/>
<path fill-rule="evenodd" clip-rule="evenodd" d="M75.4727 149.682L76.773 175.471L83.2728 165.734L95.4461 164.106L75.4727 149.682Z" fill="#E1DFEB"/>
<path fill-rule="evenodd" clip-rule="evenodd" d="M75.4727 149.682L76.773 175.471L83.2728 165.734L95.4461 164.106L75.4727 149.682Z" stroke="#0E0916" stroke-width="1.58757" stroke-linecap="round" stroke-linejoin="round"/>
<path fill-rule="evenodd" clip-rule="evenodd" d="M164.662 29.3278C164.662 20.0339 157.17 12.5 147.928 12.5C138.684 12.5 131.191 20.0339 131.191 29.3278C131.191 36.4685 135.62 42.5557 141.86 44.9983V48.5408H153.994V44.9983C160.234 42.5557 164.662 36.4685 164.662 29.3278Z" fill="#E6E2FF"/>
<path fill-rule="evenodd" clip-rule="evenodd" d="M164.662 29.3278C164.662 20.0339 157.17 12.5 147.928 12.5C138.684 12.5 131.191 20.0339 131.191 29.3278C131.191 36.4685 135.62 42.5557 141.86 44.9983V48.5408H153.994V44.9983C160.234 42.5557 164.662 36.4685 164.662 29.3278Z" stroke="#0E0916" stroke-width="1.58757" stroke-linecap="round" stroke-linejoin="round"/>
<path d="M145.017 48.0532C145.017 48.0532 143.63 32.4031 141.677 32.6554C139.724 32.9095 139.471 36.0773 146.402 35.762C153.334 35.4449 155.16 35.1908 154.721 33.6068C154.278 32.0229 152.199 32.5923 151.508 36.2034C150.814 39.8164 149.931 48.0532 149.931 48.0532" stroke="#0E0916" stroke-width="1.58757" stroke-linecap="round" stroke-linejoin="round"/>
<path fill-rule="evenodd" clip-rule="evenodd" d="M153.711 51.4153H142.414C141.625 51.4153 140.986 50.7718 140.986 49.9782C140.986 49.1845 141.625 48.541 142.414 48.541H153.711C154.501 48.541 155.139 49.1845 155.139 49.9782C155.139 50.7718 154.501 51.4153 153.711 51.4153Z" fill="#2250FF"/>
<path fill-rule="evenodd" clip-rule="evenodd" d="M153.711 51.4153H142.414C141.625 51.4153 140.986 50.7718 140.986 49.9782C140.986 49.1845 141.625 48.541 142.414 48.541H153.711C154.501 48.541 155.139 49.1845 155.139 49.9782C155.139 50.7718 154.501 51.4153 153.711 51.4153Z" stroke="#0E0916" stroke-width="1.58757" stroke-linecap="round" stroke-linejoin="round"/>
<path fill-rule="evenodd" clip-rule="evenodd" d="M153.711 54.2923H142.414C141.625 54.2923 140.986 53.6488 140.986 52.857C140.986 52.0614 141.625 51.418 142.414 51.418H153.711C154.501 51.418 155.139 52.0614 155.139 52.857C155.139 53.6488 154.501 54.2923 153.711 54.2923Z" fill="#2250FF"/>
<path fill-rule="evenodd" clip-rule="evenodd" d="M153.711 54.2923H142.414C141.625 54.2923 140.986 53.6488 140.986 52.857C140.986 52.0614 141.625 51.418 142.414 51.418H153.711C154.501 51.418 155.139 52.0614 155.139 52.857C155.139 53.6488 154.501 54.2923 153.711 54.2923Z" stroke="#0E0916" stroke-width="1.58757" stroke-linecap="round" stroke-linejoin="round"/>
<path fill-rule="evenodd" clip-rule="evenodd" d="M153.711 57.1672H142.414C141.625 57.1672 140.986 56.5218 140.986 55.73C140.986 54.9363 141.625 54.291 142.414 54.291H153.711C154.501 54.291 155.139 54.9363 155.139 55.73C155.139 56.5218 154.501 57.1672 153.711 57.1672Z" fill="#2250FF"/>
<path fill-rule="evenodd" clip-rule="evenodd" d="M153.711 57.1672H142.414C141.625 57.1672 140.986 56.5218 140.986 55.73C140.986 54.9363 141.625 54.291 142.414 54.291H153.711C154.501 54.291 155.139 54.9363 155.139 55.73C155.139 56.5218 154.501 57.1672 153.711 57.1672Z" stroke="#0E0916" stroke-width="1.58757" stroke-linecap="round" stroke-linejoin="round"/>
</svg>
