<svg viewBox="0 0 237 194" fill="none" xmlns="http://www.w3.org/2000/svg">
<path d="M41.9141 73.4703L42.314 74.047L42.9353 73.7209C44.5812 72.857 46.4583 72.3661 48.454 72.3661C54.9827 72.3661 60.2621 77.6037 60.2621 84.0487C60.2621 85.6878 59.9211 87.2479 59.3058 88.6622H2.38028C2.31215 88.2366 2.27621 87.8008 2.27621 87.3563C2.27621 82.7391 6.05934 78.9825 10.7431 78.9825C12.1679 78.9825 13.5067 79.3319 14.6834 79.945L15.6672 80.4576L15.8348 79.361C16.8795 72.5275 22.8414 67.2801 30.0502 67.2801C34.9785 67.2801 39.3229 69.7328 41.9141 73.4703Z" fill="#FBFBFC" stroke="#FBFBFC" stroke-width="1.58757"/>
<path fill-rule="evenodd" clip-rule="evenodd" d="M59.8139 89.456C60.6099 87.8205 61.0559 85.9852 61.0559 84.0487C61.0559 77.1578 55.4136 71.5723 48.454 71.5723C46.3267 71.5723 44.3233 72.0959 42.5664 73.018C39.8322 69.0742 35.2479 66.4863 30.0502 66.4863C22.4493 66.4863 16.1541 72.02 15.0502 79.2411C13.7635 78.5707 12.2993 78.1887 10.7431 78.1887C5.62852 78.1887 1.48242 82.2931 1.48242 87.3563C1.48242 88.0798 1.5693 88.7818 1.72902 89.456H59.8139Z" stroke="#0E0916" stroke-width="1.58757" stroke-linecap="round" stroke-linejoin="round"/>
<path fill-rule="evenodd" clip-rule="evenodd" d="M168.166 51.269C168.166 73.691 149.804 91.8681 127.154 91.8681C104.505 91.8681 86.1445 73.691 86.1445 51.269C86.1445 28.8471 104.505 10.6699 127.154 10.6699C149.804 10.6699 168.166 28.8471 168.166 51.269Z" fill="#F2F0FF"/>
<mask id="mask0_923_89361" style="mask-type:alpha" maskUnits="userSpaceOnUse" x="86" y="10" width="83" height="82">
<path d="M86.1426 51.269C86.1426 73.691 104.504 91.8668 127.154 91.8668C149.803 91.8668 168.165 73.691 168.165 51.269C168.165 28.847 149.803 10.6699 127.154 10.6699C104.504 10.6699 86.1426 28.847 86.1426 51.269Z" fill="white"/>
</mask>
<g mask="url(#mask0_923_89361)">
<path fill-rule="evenodd" clip-rule="evenodd" d="M110.7 38.7422C110.653 39.0812 105.944 54.9955 109.739 63.5054C110.826 65.944 112.468 67.9918 114.819 68.6913L114.838 68.7659V77.8386L133.813 81.2461L134.452 58.6307C134.452 58.6307 137.913 59.5894 139.064 57.0104C140.216 54.4314 138.337 52.8718 136.883 52.2723C136.883 52.2723 136.625 41.7854 135.435 41.6172C134.243 41.449 110.7 38.7422 110.7 38.7422Z" fill="#FFD8BA"/>
</g>
<mask id="mask1_923_89361" style="mask-type:alpha" maskUnits="userSpaceOnUse" x="86" y="10" width="83" height="82">
<path d="M86.1426 51.269C86.1426 73.691 104.504 91.8668 127.154 91.8668C149.803 91.8668 168.165 73.691 168.165 51.269C168.165 28.847 149.803 10.6699 127.154 10.6699C104.504 10.6699 86.1426 28.847 86.1426 51.269Z" fill="white"/>
</mask>
<g mask="url(#mask1_923_89361)">
<path d="M116.045 63.8286C117.885 65.1288 119.202 63.3125 119.202 63.3125" stroke="#340096" stroke-width="1.58757" stroke-linecap="round" stroke-linejoin="round"/>
</g>
<mask id="mask2_923_89361" style="mask-type:alpha" maskUnits="userSpaceOnUse" x="86" y="10" width="83" height="82">
<path d="M86.1426 51.269C86.1426 73.691 104.504 91.8668 127.154 91.8668C149.803 91.8668 168.165 73.691 168.165 51.269C168.165 28.847 149.803 10.6699 127.154 10.6699C104.504 10.6699 86.1426 28.847 86.1426 51.269Z" fill="white"/>
</mask>
<g mask="url(#mask2_923_89361)">
<path d="M118.239 59.5761C118.239 59.5761 113.413 60.7005 114.001 56.8048C114.332 54.609 115.12 51.1901 115.745 48.625" stroke="#340096" stroke-width="1.58757" stroke-linecap="round" stroke-linejoin="round"/>
</g>
<mask id="mask3_923_89361" style="mask-type:alpha" maskUnits="userSpaceOnUse" x="86" y="10" width="83" height="82">
<path d="M86.1426 51.269C86.1426 73.691 104.504 91.8668 127.154 91.8668C149.803 91.8668 168.165 73.691 168.165 51.269C168.165 28.847 149.803 10.6699 127.154 10.6699C104.504 10.6699 86.1426 28.847 86.1426 51.269Z" fill="white"/>
</mask>
<g mask="url(#mask3_923_89361)">
<path d="M123.577 51.9413C123.577 51.9413 121.588 51.2436 120.459 51.8537" stroke="#340096" stroke-width="1.58757" stroke-linecap="round" stroke-linejoin="round"/>
</g>
<mask id="mask4_923_89361" style="mask-type:alpha" maskUnits="userSpaceOnUse" x="86" y="10" width="83" height="82">
<path d="M86.1426 51.269C86.1426 73.691 104.504 91.8668 127.154 91.8668C149.803 91.8668 168.165 73.691 168.165 51.269C168.165 28.847 149.803 10.6699 127.154 10.6699C104.504 10.6699 86.1426 28.847 86.1426 51.269Z" fill="white"/>
</mask>
<g mask="url(#mask4_923_89361)">
<path d="M113.16 52.2781C113.16 52.2781 111.801 51.5017 110.365 52.2476" stroke="#340096" stroke-width="1.58757" stroke-linecap="round" stroke-linejoin="round"/>
</g>
<mask id="mask5_923_89361" style="mask-type:alpha" maskUnits="userSpaceOnUse" x="86" y="10" width="83" height="82">
<path d="M86.1426 51.269C86.1426 73.691 104.504 91.8668 127.154 91.8668C149.803 91.8668 168.165 73.691 168.165 51.269C168.165 28.847 149.803 10.6699 127.154 10.6699C104.504 10.6699 86.1426 28.847 86.1426 51.269Z" fill="white"/>
</mask>
<g mask="url(#mask5_923_89361)">
<path d="M114.836 68.7656V77.8371" stroke="#340096" stroke-width="1.58757" stroke-linecap="round" stroke-linejoin="round"/>
</g>
<mask id="mask6_923_89361" style="mask-type:alpha" maskUnits="userSpaceOnUse" x="86" y="10" width="83" height="82">
<path d="M86.1426 51.269C86.1426 73.691 104.504 91.8668 127.154 91.8668C149.803 91.8668 168.165 73.691 168.165 51.269C168.165 28.847 149.803 10.6699 127.154 10.6699C104.504 10.6699 86.1426 28.847 86.1426 51.269Z" fill="white"/>
</mask>
<g mask="url(#mask6_923_89361)">
<path d="M133.811 81.2434L134.449 58.6279C134.449 58.6279 137.911 59.5867 139.062 57.0077C140.213 54.4286 138.335 52.8691 136.881 52.2695" stroke="#340096" stroke-width="1.58757" stroke-linecap="round" stroke-linejoin="round"/>
</g>
<mask id="mask7_923_89361" style="mask-type:alpha" maskUnits="userSpaceOnUse" x="86" y="10" width="83" height="82">
<path d="M86.1426 51.269C86.1426 73.691 104.504 91.8668 127.154 91.8668C149.803 91.8668 168.165 73.691 168.165 51.269C168.165 28.847 149.803 10.6699 127.154 10.6699C104.504 10.6699 86.1426 28.847 86.1426 51.269Z" fill="white"/>
</mask>
<g mask="url(#mask7_923_89361)">
<path d="M135.473 54.5258C135.86 54.1539 136.525 54.1526 136.965 54.4651C137.405 54.7762 137.619 55.3416 137.582 55.8741C137.546 56.4091 137.286 56.9087 136.934 57.3148C136.763 57.5121 136.566 57.6929 136.329 57.803" stroke="#340096" stroke-width="1.58757" stroke-linecap="round" stroke-linejoin="round"/>
</g>
<mask id="mask8_923_89361" style="mask-type:alpha" maskUnits="userSpaceOnUse" x="86" y="10" width="83" height="82">
<path d="M86.1426 51.269C86.1426 73.691 104.504 91.8668 127.154 91.8668C149.803 91.8668 168.165 73.691 168.165 51.269C168.165 28.847 149.803 10.6699 127.154 10.6699C104.504 10.6699 86.1426 28.847 86.1426 51.269Z" fill="white"/>
</mask>
<g mask="url(#mask8_923_89361)">
<path d="M110.7 38.7422C110.653 39.0812 105.944 54.9955 109.739 63.5054C111.624 67.7338 115.177 70.7846 121.192 67.6806" stroke="#340096" stroke-width="1.58757" stroke-linecap="round" stroke-linejoin="round"/>
</g>
<mask id="mask9_923_89361" style="mask-type:alpha" maskUnits="userSpaceOnUse" x="86" y="10" width="83" height="82">
<path d="M86.1426 51.269C86.1426 73.691 104.504 91.8668 127.154 91.8668C149.803 91.8668 168.165 73.691 168.165 51.269C168.165 28.847 149.803 10.6699 127.154 10.6699C104.504 10.6699 86.1426 28.847 86.1426 51.269Z" fill="white"/>
</mask>
<g mask="url(#mask9_923_89361)">
<path fill-rule="evenodd" clip-rule="evenodd" d="M79.2119 86.1908C79.2119 86.1908 96.6357 69.7958 114.729 74.3442C115.496 76.1454 122.602 80.1208 133.806 74.988C153.981 78.0401 156.769 78.8648 160.344 83.2804C164.052 87.8604 162.113 94.5363 162.113 94.5363H67.9746L79.2119 86.1908Z" fill="#2250FF"/>
</g>
<mask id="mask10_923_89361" style="mask-type:alpha" maskUnits="userSpaceOnUse" x="86" y="10" width="83" height="82">
<path d="M86.1426 51.269C86.1426 73.691 104.504 91.8668 127.154 91.8668C149.803 91.8668 168.165 73.691 168.165 51.269C168.165 28.847 149.803 10.6699 127.154 10.6699C104.504 10.6699 86.1426 28.847 86.1426 51.269Z" fill="white"/>
</mask>
<g mask="url(#mask10_923_89361)">
<path fill-rule="evenodd" clip-rule="evenodd" d="M79.2119 86.1908C79.2119 86.1908 96.6357 69.7958 114.729 74.3442C115.496 76.1454 122.602 80.1208 133.806 74.988C153.981 78.0401 156.769 78.8648 160.344 83.2804C164.052 87.8604 162.113 94.5363 162.113 94.5363H67.9746L79.2119 86.1908Z" stroke="#0E0916" stroke-width="1.58757" stroke-linecap="round" stroke-linejoin="round"/>
</g>
<mask id="mask11_923_89361" style="mask-type:alpha" maskUnits="userSpaceOnUse" x="86" y="10" width="83" height="82">
<path d="M86.1426 51.269C86.1426 73.691 104.504 91.8668 127.154 91.8668C149.803 91.8668 168.165 73.691 168.165 51.269C168.165 28.847 149.803 10.6699 127.154 10.6699C104.504 10.6699 86.1426 28.847 86.1426 51.269Z" fill="white"/>
</mask>
<g mask="url(#mask11_923_89361)">
<path fill-rule="evenodd" clip-rule="evenodd" d="M138.708 60.7921C138.708 62.444 137.354 63.7835 135.686 63.7835C134.017 63.7835 132.664 62.444 132.664 60.7921C132.664 59.1403 134.017 57.8008 135.686 57.8008C137.354 57.8008 138.708 59.1403 138.708 60.7921Z" fill="white"/>
</g>
<mask id="mask12_923_89361" style="mask-type:alpha" maskUnits="userSpaceOnUse" x="86" y="10" width="83" height="82">
<path d="M86.1426 51.269C86.1426 73.691 104.504 91.8668 127.154 91.8668C149.803 91.8668 168.165 73.691 168.165 51.269C168.165 28.847 149.803 10.6699 127.154 10.6699C104.504 10.6699 86.1426 28.847 86.1426 51.269Z" fill="white"/>
</mask>
<g mask="url(#mask12_923_89361)">
<path fill-rule="evenodd" clip-rule="evenodd" d="M138.708 60.7921C138.708 62.444 137.354 63.7835 135.686 63.7835C134.017 63.7835 132.664 62.444 132.664 60.7921C132.664 59.1403 134.017 57.8008 135.686 57.8008C137.354 57.8008 138.708 59.1403 138.708 60.7921Z" stroke="#340096" stroke-width="1.58757" stroke-linecap="round" stroke-linejoin="round"/>
</g>
<mask id="mask13_923_89361" style="mask-type:alpha" maskUnits="userSpaceOnUse" x="86" y="10" width="83" height="82">
<path d="M86.1426 51.269C86.1426 73.691 104.504 91.8668 127.154 91.8668C149.803 91.8668 168.165 73.691 168.165 51.269C168.165 28.847 149.803 10.6699 127.154 10.6699C104.504 10.6699 86.1426 28.847 86.1426 51.269Z" fill="white"/>
</mask>
<g mask="url(#mask13_923_89361)">
<path fill-rule="evenodd" clip-rule="evenodd" d="M107.924 44.2696C108.415 46.4021 111.578 46.6424 113.774 46.8891C120.019 47.5936 126.435 46.7525 132.281 44.4631C131.57 46.583 131.444 49.0052 132.506 50.9758C133.567 52.9464 136.142 54.0747 138.276 53.3499C140.933 52.4481 141.724 49.3049 141.529 46.5311C141.149 41.1454 137.679 36.3807 132.642 34.3253C129.197 32.9201 125.333 32.7329 121.652 33.3021C116.34 34.1217 106.286 37.1548 107.924 44.2696Z" fill="#340096"/>
</g>
<mask id="mask14_923_89361" style="mask-type:alpha" maskUnits="userSpaceOnUse" x="86" y="10" width="83" height="82">
<path d="M86.1426 51.269C86.1426 73.691 104.504 91.8668 127.154 91.8668C149.803 91.8668 168.165 73.691 168.165 51.269C168.165 28.847 149.803 10.6699 127.154 10.6699C104.504 10.6699 86.1426 28.847 86.1426 51.269Z" fill="white"/>
</mask>
<g mask="url(#mask14_923_89361)">
<path fill-rule="evenodd" clip-rule="evenodd" d="M148.835 37.8395C152.787 32.0237 151.466 24.2968 145.885 20.5807C140.304 16.8633 132.575 18.5632 128.623 24.3777C124.672 30.1935 125.993 37.9205 131.574 41.6366C137.155 45.354 144.883 43.654 148.835 37.8395Z" fill="#340096"/>
</g>
<path fill-rule="evenodd" clip-rule="evenodd" d="M168.164 51.269C168.164 73.691 149.802 91.8681 127.153 91.8681C104.503 91.8681 86.1426 73.691 86.1426 51.269C86.1426 28.847 104.503 10.6699 127.153 10.6699C149.802 10.6699 168.164 28.847 168.164 51.269Z" stroke="#0E0916" stroke-width="1.58757" stroke-linecap="round" stroke-linejoin="round"/>
<path fill-rule="evenodd" clip-rule="evenodd" d="M31.9424 40.1758L32.8943 41.4975C34.8543 44.217 38.7333 44.7178 41.3309 42.5853L42.721 41.4444L41.6171 43.0634C39.7197 45.8486 40.6269 49.6444 43.5847 51.2913L44.8317 51.9844L42.9408 51.5C39.9318 50.7271 36.8411 52.4385 35.9314 55.3805L35.359 57.2297L35.4139 55.8156C35.5442 52.4574 32.7538 49.7051 29.3628 49.8481L27.3926 49.9315L29.1008 49.356C32.2963 48.2822 33.896 44.7482 32.5813 41.6721L31.9424 40.1758Z" fill="#E6E2FF"/>
<path fill-rule="evenodd" clip-rule="evenodd" d="M31.9424 40.1758L32.8943 41.4975C34.8543 44.217 38.7333 44.7178 41.3309 42.5853L42.721 41.4444L41.6171 43.0634C39.7197 45.8486 40.6269 49.6444 43.5847 51.2913L44.8317 51.9844L42.9408 51.5C39.9318 50.7271 36.8411 52.4385 35.9314 55.3805L35.359 57.2297L35.4139 55.8156C35.5442 52.4574 32.7538 49.7051 29.3628 49.8481L27.3926 49.9315L29.1008 49.356C32.2963 48.2822 33.896 44.7482 32.5813 41.6721L31.9424 40.1758Z" stroke="#0E0916" stroke-width="1.58757" stroke-linecap="round" stroke-linejoin="round"/>
<mask id="mask15_923_89361" style="mask-type:alpha" maskUnits="userSpaceOnUse" x="1" y="-7" width="236" height="201">
<path d="M1 193.061H236.718V-6.39648H1V193.061Z" fill="white"/>
</mask>
<g mask="url(#mask15_923_89361)">
<path fill-rule="evenodd" clip-rule="evenodd" d="M138.805 161.197H153.418V128.771H138.805V161.197Z" fill="#BCD7FE"/>
<path fill-rule="evenodd" clip-rule="evenodd" d="M138.805 161.197H153.418V128.771H138.805V161.197Z" stroke="#0E0916" stroke-width="1.58757" stroke-linecap="round" stroke-linejoin="round"/>
<path fill-rule="evenodd" clip-rule="evenodd" d="M157.648 161.198H172.261V114.322H157.648V161.198Z" fill="#BC99FF"/>
<path fill-rule="evenodd" clip-rule="evenodd" d="M157.648 161.198H172.261V114.322H157.648V161.198Z" stroke="#0E0916" stroke-width="1.58757" stroke-linecap="round" stroke-linejoin="round"/>
<path fill-rule="evenodd" clip-rule="evenodd" d="M176.492 161.197H191.105V101.682H176.492V161.197Z" fill="#2250FF"/>
<path fill-rule="evenodd" clip-rule="evenodd" d="M176.492 161.197H191.105V101.682H176.492V161.197Z" stroke="#0E0916" stroke-width="1.58757" stroke-linecap="round" stroke-linejoin="round"/>
<path d="M31.2812 161.197H233.595" stroke="#0E0916" stroke-width="1.58757" stroke-linecap="round" stroke-linejoin="round"/>
<path fill-rule="evenodd" clip-rule="evenodd" d="M218.397 29.3687L209.07 19.8064L202.634 13.209L194.707 21.3331L186.871 29.3687H195.331V161.197H209.942V29.3687H218.397Z" fill="#340096"/>
<path fill-rule="evenodd" clip-rule="evenodd" d="M218.397 29.3687L209.07 19.8064L202.634 13.209L194.707 21.3331L186.871 29.3687H195.331V161.197H209.942V29.3687H218.397Z" stroke="#0E0916" stroke-width="1.58757" stroke-linecap="round" stroke-linejoin="round"/>
<path fill-rule="evenodd" clip-rule="evenodd" d="M236.24 84.7956C236.24 94.3224 228.44 102.044 218.816 102.044C209.194 102.044 201.393 94.3224 201.393 84.7956C201.393 75.27 209.194 67.5469 218.816 67.5469C228.44 67.5469 236.24 75.27 236.24 84.7956Z" fill="#FFA578"/>
<path fill-rule="evenodd" clip-rule="evenodd" d="M236.24 84.7956C236.24 94.3224 228.44 102.044 218.816 102.044C209.194 102.044 201.393 94.3224 201.393 84.7956C201.393 75.27 209.194 67.5469 218.816 67.5469C228.44 67.5469 236.24 75.27 236.24 84.7956Z" stroke="#340096" stroke-width="1.58757" stroke-linecap="round" stroke-linejoin="round"/>
<path d="M211.621 85.1036L215.581 90.2844L226.01 80.2402" stroke="#340096" stroke-width="1.58757" stroke-linecap="round" stroke-linejoin="round"/>
<path fill-rule="evenodd" clip-rule="evenodd" d="M53.6965 102.111L34.291 126.881L36.2012 138.588L60.0006 134.894" fill="#BC99FF"/>
<path d="M53.6965 102.111L34.291 126.881L36.2012 138.588L60.0006 134.894" stroke="#0E0916" stroke-width="1.58757" stroke-linecap="round" stroke-linejoin="round"/>
<path fill-rule="evenodd" clip-rule="evenodd" d="M95.8685 102.064L113.76 127.927L111.153 139.501L87.6172 134.421" fill="#BC99FF"/>
<path d="M95.8685 102.064L113.76 127.927L111.153 139.501L87.6172 134.421" stroke="#0E0916" stroke-width="1.58757" stroke-linecap="round" stroke-linejoin="round"/>
<path fill-rule="evenodd" clip-rule="evenodd" d="M92.1788 176.086L83.9723 154.425C83.382 152.867 82.9987 151.238 82.8313 149.581L82.8134 149.399C82.508 146.376 82.9297 143.342 84.0425 140.511C91.7866 120.812 121.333 36.5631 75.5293 1.48633C27.059 38.0442 62.8598 137.748 65.5608 145.039C65.6771 145.355 65.7831 145.669 65.8815 145.991C66.8909 149.261 67.002 152.738 66.2022 156.065L61.4262 175.929" fill="white"/>
<path d="M92.1788 176.086L83.9723 154.425C83.382 152.867 82.9987 151.238 82.8313 149.581L82.8134 149.399C82.508 146.376 82.9297 143.342 84.0425 140.511C91.7866 120.812 121.333 36.5631 75.5293 1.48633C27.059 38.0442 62.8598 137.748 65.5608 145.039C65.6771 145.355 65.7831 145.669 65.8815 145.991C66.8909 149.261 67.002 152.738 66.2022 156.065L61.4262 175.929" stroke="#0E0916" stroke-width="1.58757" stroke-linecap="round" stroke-linejoin="round"/>
<path fill-rule="evenodd" clip-rule="evenodd" d="M81.6521 34.0355C83.7041 37.8465 82.2475 42.5833 78.3978 44.6159C74.5481 46.6485 69.7632 45.2066 67.71 41.3944C65.6567 37.5834 67.1146 32.8465 70.9642 30.8139C74.8139 28.7813 79.5988 30.2245 81.6521 34.0355Z" fill="#BC99FF"/>
<path fill-rule="evenodd" clip-rule="evenodd" d="M81.6521 34.0355C83.7041 37.8465 82.2475 42.5833 78.3978 44.6159C74.5481 46.6485 69.7632 45.2066 67.71 41.3944C65.6567 37.5834 67.1146 32.8465 70.9642 30.8139C74.8139 28.7813 79.5988 30.2245 81.6521 34.0355Z" stroke="#0E0916" stroke-width="1.58757" stroke-linecap="round" stroke-linejoin="round"/>
<path d="M75.459 163.756L76.4517 192.587" stroke="#0E0916" stroke-width="1.58757" stroke-linecap="round" stroke-linejoin="round"/>
</g>
</svg>
