<svg viewBox="0 0 236 105" fill="none" xmlns="http://www.w3.org/2000/svg">
<path d="M145.621 66.0645H181.015" stroke="#0E0916" stroke-width="1.49488" stroke-linecap="round" stroke-linejoin="round"/>
<path fill-rule="evenodd" clip-rule="evenodd" d="M94.5428 46.0839C94.5428 70.1669 74.829 89.6894 50.5113 89.6894C26.1937 89.6894 6.47852 70.1669 6.47852 46.0839C6.47852 22.001 26.1937 2.47852 50.5113 2.47852C74.829 2.47852 94.5428 22.001 94.5428 46.0839Z" stroke="#FFF6F0" stroke-width="1.49488"/>
<path fill-rule="evenodd" clip-rule="evenodd" d="M107.853 46.0839C107.853 70.1669 88.1395 89.6894 63.8219 89.6894C39.5043 89.6894 19.7891 70.1669 19.7891 46.0839C19.7891 22.001 39.5043 2.47852 63.8219 2.47852C88.1395 2.47852 107.853 22.001 107.853 46.0839Z" stroke="#DCEAFF" stroke-width="1.49488"/>
<path fill-rule="evenodd" clip-rule="evenodd" d="M121.16 46.0839C121.16 70.1669 101.446 89.6894 77.1285 89.6894C52.8109 89.6894 33.0957 70.1669 33.0957 46.0839C33.0957 22.001 52.8109 2.47852 77.1285 2.47852C101.446 2.47852 121.16 22.001 121.16 46.0839Z" stroke="#D5BFFF" stroke-width="1.49488"/>
<path fill-rule="evenodd" clip-rule="evenodd" d="M132.781 46.0839C132.781 70.1669 113.067 89.6894 88.7496 89.6894C64.432 89.6894 44.7168 70.1669 44.7168 46.0839C44.7168 22.001 64.432 2.47852 88.7496 2.47852C113.067 2.47852 132.781 22.001 132.781 46.0839Z" stroke="#BC99FF" stroke-width="1.49488"/>
<path fill-rule="evenodd" clip-rule="evenodd" d="M144.404 46.0839C144.404 70.1669 124.69 89.6894 100.373 89.6894C76.0551 89.6894 56.3398 70.1669 56.3398 46.0839C56.3398 22.001 76.0551 2.47852 100.373 2.47852C124.69 2.47852 144.404 22.001 144.404 46.0839Z" stroke="#2250FF" stroke-width="1.49488"/>
<path fill-rule="evenodd" clip-rule="evenodd" d="M154.514 46.0839C154.514 70.1669 134.8 89.6894 110.481 89.6894C86.1631 89.6894 66.4492 70.1669 66.4492 46.0839C66.4492 22.001 86.1631 2.47852 110.481 2.47852C134.8 2.47852 154.514 22.001 154.514 46.0839Z" fill="#2250FF"/>
<path fill-rule="evenodd" clip-rule="evenodd" d="M154.514 46.0839C154.514 70.1669 134.8 89.6894 110.481 89.6894C86.1631 89.6894 66.4492 70.1669 66.4492 46.0839C66.4492 22.001 86.1631 2.47852 110.481 2.47852C134.8 2.47852 154.514 22.001 154.514 46.0839Z" stroke="#340096" stroke-width="1.49488"/>
<mask id="mask0_923_89163" style="mask-type:alpha" maskUnits="userSpaceOnUse" x="67" y="2" width="90" height="88">
<path d="M67.9551 46.0839C67.9551 70.1669 87.6689 89.6894 111.988 89.6894C136.306 89.6894 156.019 70.1669 156.019 46.0839C156.019 22.0024 136.306 2.47852 111.988 2.47852C87.6689 2.47852 67.9551 22.0024 67.9551 46.0839Z" fill="white"/>
</mask>
<g mask="url(#mask0_923_89163)">
<path d="M84.3469 3.89626C83.3647 11.1572 82.3838 18.4181 81.4017 25.6776C81.0473 28.3047 80.7967 31.2681 82.652 33.12C85.0973 35.563 89.627 34.641 93.2001 33.3134C102.906 29.7043 111.949 24.278 119.579 17.4854C123.434 14.0538 127.067 10.0337 128.19 5.32255C128.566 3.74015 128.582 1.94427 127.446 0.82485C125.448 -1.14448 121.653 0.300496 119.184 2.12306C115.532 4.81954 112.499 8.16847 109.667 11.6001C101.469 21.5402 94.7064 32.4382 89.6418 43.8712C86.7869 50.3156 84.5786 57.9914 88.5289 63.4097C91.9282 68.0769 99.038 69.3858 105.306 68.0956C111.573 66.8067 117.223 63.4044 122.677 60.0435C128.391 56.5251 134.28 52.7946 137.936 47.4363C139.522 45.1121 140.557 41.9179 138.715 40.0206C136.613 37.8578 132.515 39.0466 129.7 40.7998C118.919 47.515 113.615 60.8173 116.68 71.7954C119.743 82.7721 130.521 90.8629 142.822 92.2866" stroke="#FFA578" stroke-width="1.49488" stroke-linecap="round" stroke-linejoin="round"/>
</g>
<path d="M175.967 41.0052H194.487V30.6035L213.489 49.4229L194.072 68.6519V57.5644H166.293" stroke="#0E0916" stroke-width="1.49488" stroke-linecap="round" stroke-linejoin="round"/>
<path d="M209.413 65.6388H224.27V59.959L234.981 70.5648L224.374 81.0692V75.356H196.906" stroke="#0E0916" stroke-width="1.49488" stroke-linecap="round" stroke-linejoin="round"/>
<path d="M113.82 51.1328H169.227" stroke="#0E0916" stroke-width="1.49488" stroke-linecap="round" stroke-linejoin="round"/>
<path d="M1 51.6055L52.0163 51.6055" stroke="#0E0916" stroke-width="1.49488" stroke-linecap="round" stroke-linejoin="round"/>
<path d="M36.4277 66.0645H71.8216" stroke="#0E0916" stroke-width="1.49488" stroke-linecap="round" stroke-linejoin="round"/>
<path fill-rule="evenodd" clip-rule="evenodd" d="M110.467 46.0852C110.467 33.3433 120.898 23.0137 133.765 23.0137C146.631 23.0137 157.061 33.3433 157.061 46.0852C157.061 58.8272 146.631 69.1568 133.765 69.1568C120.898 69.1568 110.467 58.8272 110.467 46.0852Z" fill="#FFD8BA"/>
<path fill-rule="evenodd" clip-rule="evenodd" d="M110.467 46.0852C110.467 33.3433 120.898 23.0137 133.765 23.0137C146.631 23.0137 157.061 33.3433 157.061 46.0852C157.061 58.8272 146.631 69.1568 133.765 69.1568C120.898 69.1568 110.467 58.8272 110.467 46.0852Z" stroke="#0E0916" stroke-width="1.49488" stroke-linecap="round" stroke-linejoin="round"/>
<path d="M133.76 64.3277C123.587 64.3277 115.34 56.1596 115.34 46.0848C115.34 36.01 123.587 27.8418 133.76 27.8418C143.934 27.8418 152.182 36.01 152.182 46.0848" stroke="#0E0916" stroke-width="1.49488" stroke-linecap="round" stroke-linejoin="round"/>
<path fill-rule="evenodd" clip-rule="evenodd" d="M131.689 45.7233C131.689 44.5879 132.616 43.6699 133.762 43.6699C134.907 43.6699 135.835 44.5879 135.835 45.7233C135.835 46.8574 134.907 47.7754 133.762 47.7754C132.616 47.7754 131.689 46.8574 131.689 45.7233Z" fill="#2250FF"/>
<path fill-rule="evenodd" clip-rule="evenodd" d="M131.689 45.7233C131.689 44.5879 132.616 43.6699 133.762 43.6699C134.907 43.6699 135.835 44.5879 135.835 45.7233C135.835 46.8574 134.907 47.7754 133.762 47.7754C132.616 47.7754 131.689 46.8574 131.689 45.7233Z" stroke="#0E0916" stroke-width="1.49488" stroke-linecap="round" stroke-linejoin="round"/>
<path d="M135.162 44.2112L144.584 34.8809" stroke="#0E0916" stroke-width="1.49488" stroke-linecap="round" stroke-linejoin="round"/>
</svg>
