<svg  viewBox="0 0 41 40" fill="none" xmlns="http://www.w3.org/2000/svg">
<path fill-rule="evenodd" clip-rule="evenodd" d="M20.5184 1L21.0029 4.69816C22.0079 12.368 28.0533 18.4028 35.7351 19.4056L39.441 19.8892L35.7351 20.3747C28.0533 21.3776 22.0079 27.4124 21.0029 35.0802L20.5184 38.7803L20.0338 35.0802C19.0288 27.4124 12.9834 21.3776 5.30158 20.3747L1.5957 19.8892L5.30158 19.4056C12.9834 18.4028 19.0288 12.368 20.0338 4.69816L20.5184 1Z" fill="white"/>
<path fill-rule="evenodd" clip-rule="evenodd" d="M20.5184 1L21.0029 4.69816C22.0079 12.368 28.0533 18.4028 35.7351 19.4056L39.441 19.8892L35.7351 20.3747C28.0533 21.3776 22.0079 27.4124 21.0029 35.0802L20.5184 38.7803L20.0338 35.0802C19.0288 27.4124 12.9834 21.3776 5.30158 20.3747L1.5957 19.8892L5.30158 19.4056C12.9834 18.4028 19.0288 12.368 20.0338 4.69816L20.5184 1Z" stroke="#0E0916" stroke-width="2" stroke-linecap="round" stroke-linejoin="round"/>
</svg>
