<svg viewBox="0 0 834 399" fill="none" xmlns="http://www.w3.org/2000/svg">
<path fill-rule="evenodd" clip-rule="evenodd" d="M69.1119 144.265C84.6415 123.852 81.9739 95.6285 63.1536 81.2253C44.3333 66.8232 16.4866 71.6958 0.957031 92.1094L15.7135 103.402C24.5183 91.8282 40.3068 89.065 50.9771 97.2306C61.6484 105.397 63.161 121.399 54.3554 132.974L69.1119 144.265Z" stroke="#BC99FF" stroke-width="1.75" stroke-linecap="round" stroke-linejoin="round"/>
<path fill-rule="evenodd" clip-rule="evenodd" d="M494.655 64.9693C484.132 78.7607 485.939 97.8282 498.692 107.559C511.444 117.289 530.313 113.997 540.836 100.206L530.837 92.5766C524.871 100.396 514.173 102.262 506.943 96.7458C499.712 91.2285 498.687 80.418 504.654 72.5977L494.655 64.9693Z" stroke="#BC99FF" stroke-width="1.75" stroke-linecap="round" stroke-linejoin="round"/>
<path fill-rule="evenodd" clip-rule="evenodd" d="M159.078 323.251L178.519 328.028L180.606 339.68L194.937 340.923L202.638 357.978L229.911 327.546L210.373 323.065L208.092 311.458L193.727 310.43L185.737 293.51L159.078 323.251Z" stroke="#BC99FF" stroke-width="1.75" stroke-linecap="round" stroke-linejoin="round"/>
<path fill-rule="evenodd" clip-rule="evenodd" d="M681.082 90.2297L661.641 85.4527L659.554 73.8003L645.223 72.5576L637.522 55.5027L610.249 85.9343L629.787 90.4153L632.068 102.023L646.433 103.05L654.423 119.97L681.082 90.2297Z" stroke="#BC99FF" stroke-width="1.75" stroke-linecap="round" stroke-linejoin="round"/>
<path fill-rule="evenodd" clip-rule="evenodd" d="M294.692 349.175L293.168 364.835L305.968 373.985L320.292 367.475L321.817 351.814L309.016 342.665L294.692 349.175Z" stroke="#BC99FF" stroke-width="1.75" stroke-linecap="round" stroke-linejoin="round"/>
<path fill-rule="evenodd" clip-rule="evenodd" d="M242.938 40.9604L241.414 56.6205L254.215 65.7705L268.539 59.2599L270.063 43.5991L257.262 34.4497L242.938 40.9604Z" stroke="#BC99FF" stroke-width="1.75" stroke-linecap="round" stroke-linejoin="round"/>
<path fill-rule="evenodd" clip-rule="evenodd" d="M792.629 283.82L794.152 268.16L781.352 259.01L767.028 265.52L765.504 281.181L778.305 290.331L792.629 283.82Z" stroke="#BC99FF" stroke-width="1.75" stroke-linecap="round" stroke-linejoin="round"/>
<path fill-rule="evenodd" clip-rule="evenodd" d="M293.186 297.224L273.602 318.196L281.972 345.644L309.928 352.118L329.512 331.145L321.141 303.698L293.186 297.224Z" stroke="#BC99FF" stroke-width="1.75" stroke-linecap="round" stroke-linejoin="round"/>
<path fill-rule="evenodd" clip-rule="evenodd" d="M809.408 76.3159L828.992 55.3436L820.622 27.896L792.666 21.4219L773.081 42.3948L781.453 69.8418L809.408 76.3159Z" stroke="#BC99FF" stroke-width="1.75" stroke-linecap="round" stroke-linejoin="round"/>
<path fill-rule="evenodd" clip-rule="evenodd" d="M138.133 312.144C140.569 321.459 134.993 330.985 125.678 333.422C116.363 335.858 106.836 330.282 104.4 320.967C101.964 311.651 107.54 302.125 116.855 299.688C126.17 297.252 135.697 302.828 138.133 312.144Z" stroke="#BC99FF" stroke-width="1.75" stroke-linecap="round" stroke-linejoin="round"/>
<path fill-rule="evenodd" clip-rule="evenodd" d="M82.5981 14.027C85.0343 23.3424 79.4583 32.8686 70.1429 35.3054C60.8275 37.7415 51.3013 32.1655 48.8645 22.8501C46.4284 13.5347 52.0044 4.00791 61.3198 1.57176C70.6352 -0.865008 80.162 4.71161 82.5981 14.027Z" stroke="#BC99FF" stroke-width="1.75" stroke-linecap="round" stroke-linejoin="round"/>
<path fill-rule="evenodd" clip-rule="evenodd" d="M699.835 103.861C697.399 94.5458 702.975 85.0196 712.291 82.5828C721.606 80.1466 731.132 85.7226 733.569 95.038C736.005 104.353 730.429 113.88 721.114 116.316C711.798 118.753 702.272 113.177 699.835 103.861Z" stroke="#BC99FF" stroke-width="1.75" stroke-linecap="round" stroke-linejoin="round"/>
<path fill-rule="evenodd" clip-rule="evenodd" d="M688.137 40.7736C687.035 36.5594 689.557 32.2498 693.771 31.1474C697.986 30.0453 702.295 32.5679 703.398 36.7821C704.5 40.9964 701.977 45.3062 697.763 46.4083C693.549 47.5107 689.239 44.9879 688.137 40.7736Z" stroke="#BC99FF" stroke-width="1.75" stroke-linecap="round" stroke-linejoin="round"/>
<path fill-rule="evenodd" clip-rule="evenodd" d="M131.855 391.679C130.753 387.465 133.276 383.155 137.49 382.053C141.704 380.951 146.014 383.473 147.116 387.687C148.219 391.902 145.696 396.212 141.482 397.314C137.267 398.416 132.958 395.893 131.855 391.679Z" stroke="#BC99FF" stroke-width="1.75" stroke-linecap="round" stroke-linejoin="round"/>
<path fill-rule="evenodd" clip-rule="evenodd" d="M41.5708 251.556C44.0069 260.871 38.431 270.397 29.1156 272.834C19.8001 275.27 10.274 269.694 7.83718 260.379C5.40104 251.064 10.977 241.537 20.2924 239.101C29.6078 236.664 39.1347 242.24 41.5708 251.556Z" stroke="#BC99FF" stroke-width="1.75" stroke-linecap="round" stroke-linejoin="round"/>
<path fill-rule="evenodd" clip-rule="evenodd" d="M798.585 161.925C796.149 152.609 801.725 143.083 811.041 140.646C820.356 138.21 829.882 143.786 832.319 153.102C834.755 162.417 829.179 171.944 819.864 174.38C810.548 176.817 801.022 171.24 798.585 161.925Z" stroke="#BC99FF" stroke-width="1.75" stroke-linecap="round" stroke-linejoin="round"/>
<path fill-rule="evenodd" clip-rule="evenodd" d="M129.572 22.2548C138.274 15.3818 154.103 20.9187 164.927 34.6223C175.751 48.3259 177.472 65.0065 168.77 71.8795C160.069 78.7531 144.239 73.2156 133.416 59.5126C122.591 45.809 120.871 29.1283 129.572 22.2548Z" stroke="#BC99FF" stroke-width="1.75" stroke-linecap="round" stroke-linejoin="round"/>
<path fill-rule="evenodd" clip-rule="evenodd" d="M675.823 330.867C667.121 337.74 651.292 332.203 640.468 318.499C629.644 304.796 627.923 288.115 636.625 281.242C645.326 274.369 661.155 279.906 671.979 293.609C682.803 307.313 684.524 323.993 675.823 330.867Z" stroke="#BC99FF" stroke-width="1.75" stroke-linecap="round" stroke-linejoin="round"/>
</svg>
