<svg viewBox="0 0 425 370" fill="none" xmlns="http://www.w3.org/2000/svg">
<path fill-rule="evenodd" clip-rule="evenodd" d="M75.912 162.969C92.9813 140.532 90.0492 109.51 69.363 93.6793C48.6768 77.8492 18.0693 83.205 1 105.642L17.2195 118.054C26.8972 105.333 44.251 102.296 55.9793 111.271C67.7086 120.248 69.3712 137.835 59.6925 150.558L75.912 162.969Z" stroke="#BC99FF" stroke-width="1.75" stroke-linecap="round" stroke-linejoin="round"/>
<path fill-rule="evenodd" clip-rule="evenodd" d="M175.727 322.189L197.095 327.44L199.389 340.247L215.14 341.613L223.605 360.359L253.582 326.91L232.107 321.985L229.6 309.227L213.811 308.097L205.029 289.5L175.727 322.189Z" stroke="#BC99FF" stroke-width="1.75" stroke-linecap="round" stroke-linejoin="round"/>
<path fill-rule="evenodd" clip-rule="evenodd" d="M152.706 309.981C155.384 320.22 149.255 330.691 139.016 333.369C128.777 336.047 118.307 329.918 115.628 319.679C112.951 309.44 119.079 298.969 129.318 296.291C139.557 293.613 150.029 299.742 152.706 309.981Z" stroke="#BC99FF" stroke-width="1.75" stroke-linecap="round" stroke-linejoin="round"/>
<path fill-rule="evenodd" clip-rule="evenodd" d="M90.7337 19.8186C93.4113 30.0575 87.2825 40.5282 77.0436 43.2066C66.8046 45.8842 56.3339 39.7554 53.6556 29.5165C50.9779 19.2775 57.1067 8.80612 67.3457 6.12845C77.5846 3.45009 88.056 9.5796 90.7337 19.8186Z" stroke="#BC99FF" stroke-width="1.75" stroke-linecap="round" stroke-linejoin="round"/>
<path fill-rule="evenodd" clip-rule="evenodd" d="M44.2855 362.365C43.0742 357.733 45.8468 352.996 50.4789 351.784C55.111 350.573 59.8479 353.345 61.0595 357.977C62.2709 362.609 59.4983 367.347 54.8662 368.558C50.2341 369.77 45.4969 366.997 44.2855 362.365Z" stroke="#BC99FF" stroke-width="1.75" stroke-linecap="round" stroke-linejoin="round"/>
<path fill-rule="evenodd" clip-rule="evenodd" d="M333.286 12.3646C332.074 7.7326 334.847 2.99573 339.479 1.78406C344.111 0.572695 348.848 3.34533 350.06 7.97738C351.271 12.6094 348.498 17.3466 343.866 18.558C339.234 19.7697 334.497 16.9967 333.286 12.3646Z" stroke="#BC99FF" stroke-width="1.75" stroke-linecap="round" stroke-linejoin="round"/>
<path fill-rule="evenodd" clip-rule="evenodd" d="M133.099 8.7447C142.663 1.19034 160.061 7.27615 171.959 22.3384C183.856 37.4006 185.748 55.7351 176.183 63.2894C166.619 70.8445 149.22 64.758 137.323 49.6964C125.426 34.6342 123.535 16.2998 133.099 8.7447Z" stroke="#BC99FF" stroke-width="1.75" stroke-linecap="round" stroke-linejoin="round"/>
<path fill-rule="evenodd" clip-rule="evenodd" d="M321.855 39.6698L300.487 34.4192L298.193 21.6115L282.442 20.2456L273.977 1.49978L244 34.9485L265.475 39.8737L267.982 52.6322L283.771 53.7615L292.553 72.3589L321.855 39.6698Z" stroke="#BC99FF" stroke-width="1.75" stroke-linecap="round" stroke-linejoin="round"/>
<path fill-rule="evenodd" clip-rule="evenodd" d="M355.63 168.516C352.952 158.277 359.081 147.807 369.32 145.128C379.559 142.451 390.029 148.58 392.708 158.819C395.385 169.057 389.257 179.529 379.018 182.207C368.779 184.885 358.307 178.755 355.63 168.516Z" stroke="#BC99FF" stroke-width="1.75" stroke-linecap="round" stroke-linejoin="round"/>
<path fill-rule="evenodd" clip-rule="evenodd" d="M329.525 295.5C317.959 310.659 319.946 331.617 333.963 342.312C347.98 353.007 368.719 349.389 380.285 334.23L369.295 325.844C362.737 334.439 350.979 336.491 343.032 330.427C335.084 324.363 333.957 312.48 340.515 303.885L329.525 295.5Z" stroke="#BC99FF" stroke-width="1.75" stroke-linecap="round" stroke-linejoin="round"/>
<path fill-rule="evenodd" clip-rule="evenodd" d="M401.927 78.8364L423.453 55.7849L414.253 25.616L383.525 18.5L361.999 41.5523L371.2 71.7205L401.927 78.8364Z" stroke="#BC99FF" stroke-width="1.75" stroke-linecap="round" stroke-linejoin="round"/>
</svg>
