<svg  viewBox="0 0 873 324" fill="none" xmlns="http://www.w3.org/2000/svg">
<g clip-path="url(#clip0_2585_42966)">
<path fill-rule="evenodd" clip-rule="evenodd" d="M427.448 315.606C427.448 235.958 362.837 171.392 283.134 171.392C203.432 171.392 138.82 235.958 138.82 315.606H201.311C201.311 270.447 237.944 233.838 283.134 233.838C328.324 233.838 364.957 270.447 364.957 315.606H427.448Z" fill="#E6E2FF"/>
<mask id="mask0_2585_42966" style="mask-type:alpha" maskUnits="userSpaceOnUse" x="138" y="171" width="290" height="145">
<path d="M138.82 315.606H201.312C201.312 270.447 237.945 233.838 283.135 233.838C328.325 233.838 364.96 270.447 364.96 315.606H427.449C427.449 235.958 362.838 171.392 283.135 171.392C203.434 171.392 138.82 235.958 138.82 315.606Z" fill="white"/>
</mask>
<g mask="url(#mask0_2585_42966)">
<path fill-rule="evenodd" clip-rule="evenodd" d="M43.3516 372.652C105.883 366.58 169.868 360.11 226.685 332.453C229.686 330.993 233.209 328.227 232.115 324.992C231.564 323.362 229.98 322.384 228.474 321.637C221.052 317.954 212.802 316.527 204.679 315.142C174.909 310.065 145.141 304.987 115.372 299.909C105.903 298.294 93.9447 293.767 94.2353 283.857C128.828 287.845 163.421 291.832 198.013 295.821C209.053 297.094 223.366 296.414 227.151 285.623C230.509 276.052 222.289 266.363 213.875 261.065C188.345 244.988 156.102 245.007 129.128 231.68C126.124 230.197 122.704 227.505 123.515 224.169C182.842 230.06 238.534 256.751 297.48 265.843C309.632 267.716 322.373 268.778 333.924 264.453C335.789 263.755 337.715 262.828 338.777 261.097C340.87 257.684 338.609 253.227 336.037 250.184C325.682 237.928 310.283 231.845 295.65 225.835C271.996 216.117 248.713 205.441 225.871 193.834C214.998 188.311 202.989 180.939 200.834 168.621C200.308 165.617 200.582 162.16 202.728 160.061C204.31 158.515 206.577 158.023 208.726 157.646C236.221 152.816 265.05 156.409 290.646 167.852C292.177 168.537 293.778 169.319 294.699 170.757C297.246 174.74 292.937 179.566 289.04 182.131C266.846 196.737 242.191 206.809 218.873 219.406C195.554 232.004 168.254 245.447 158.488 270.538C151.733 287.891 165.425 299.294 167.994 300.608C178.013 305.733 197.111 306.32 208.291 306.26C254.612 306.011 289.205 287.461 327.366 260.336C351.966 242.851 371.768 217.491 399.534 206.146C413.374 200.491 428.672 198.699 443.386 201.01C458.352 203.361 474.048 211.433 479.028 226.202C482.502 236.5 480.079 247.821 477.43 258.376C470.61 285.554 460.492 314.974 436.7 328.541C427.72 333.661 417.508 336.009 407.346 337.425C386.218 340.367 364.604 339.518 343.755 334.928C338.314 333.729 332.743 332.187 328.399 328.598C324.054 325.007 321.237 318.86 322.977 313.401C324.524 308.546 329.072 305.493 333.394 303.004C374.468 279.345 422.062 271.61 466.789 256.603C471.723 254.948 477.426 252.271 478.205 246.97C478.611 244.215 477.497 241.484 476.33 238.971C456.24 195.722 414.515 167.625 372.08 148.149C347.655 136.939 321.833 127.726 295.119 126.861C286.008 126.566 276.193 127.513 269.174 133.52C259.236 142.023 258.404 157.369 259.941 170.603C263.692 202.903 277.087 234.124 298.633 257.849C320.178 281.573 349.898 297.495 381.224 300.791C434.972 306.449 487.144 275.14 522.892 233.29" fill="#E6E2FF"/>
<path d="M43.3516 372.652C105.883 366.58 169.868 360.11 226.685 332.453C229.686 330.993 233.209 328.227 232.115 324.992C231.564 323.362 229.98 322.384 228.474 321.637C221.052 317.954 212.802 316.527 204.679 315.142C174.909 310.065 145.141 304.987 115.372 299.909C105.903 298.294 93.9447 293.767 94.2353 283.857C128.828 287.845 163.421 291.832 198.013 295.821C209.053 297.094 223.366 296.414 227.151 285.623C230.509 276.052 222.289 266.363 213.875 261.065C188.345 244.988 156.102 245.007 129.128 231.68C126.124 230.197 122.704 227.505 123.515 224.169C182.842 230.06 238.534 256.751 297.48 265.843C309.632 267.716 322.373 268.778 333.924 264.453C335.789 263.755 337.715 262.828 338.777 261.097C340.87 257.684 338.609 253.227 336.037 250.184C325.682 237.928 310.283 231.845 295.65 225.835C271.996 216.117 248.713 205.441 225.871 193.834C214.998 188.311 202.989 180.939 200.834 168.621C200.308 165.617 200.582 162.16 202.728 160.061C204.31 158.515 206.577 158.023 208.726 157.646C236.221 152.816 265.05 156.409 290.646 167.852C292.177 168.537 293.778 169.319 294.699 170.757C297.246 174.74 292.937 179.566 289.04 182.131C266.846 196.737 242.191 206.809 218.873 219.406C195.554 232.004 168.254 245.447 158.488 270.538C151.733 287.891 165.425 299.294 167.994 300.608C178.013 305.733 197.111 306.32 208.291 306.26C254.612 306.011 289.205 287.461 327.366 260.336C351.966 242.851 371.768 217.491 399.534 206.146C413.374 200.491 428.672 198.699 443.386 201.01C458.352 203.361 474.048 211.433 479.028 226.202C482.502 236.5 480.079 247.821 477.43 258.376C470.61 285.554 460.492 314.974 436.7 328.541C427.72 333.661 417.508 336.009 407.346 337.425C386.218 340.367 364.604 339.518 343.755 334.928C338.314 333.729 332.743 332.187 328.399 328.598C324.054 325.007 321.237 318.86 322.977 313.401C324.524 308.546 329.072 305.493 333.394 303.004C374.468 279.345 422.062 271.61 466.789 256.603C471.723 254.948 477.426 252.271 478.205 246.97C478.611 244.215 477.497 241.484 476.33 238.971C456.24 195.722 414.515 167.625 372.08 148.149C347.655 136.939 321.833 127.726 295.119 126.861C286.008 126.566 276.193 127.513 269.174 133.52C259.236 142.023 258.404 157.369 259.941 170.603C263.692 202.903 277.087 234.124 298.633 257.849C320.178 281.573 349.898 297.495 381.224 300.791C434.972 306.449 487.144 275.14 522.892 233.29" stroke="#F2F0FF" stroke-linecap="round" stroke-linejoin="round"/>
</g>
<path fill-rule="evenodd" clip-rule="evenodd" d="M650.392 216.353V248.847H685.471V278.738H718.436V315.606H612.812V216.353H650.392Z" fill="#E6E2FF"/>
<mask id="mask1_2585_42966" style="mask-type:alpha" maskUnits="userSpaceOnUse" x="612" y="216" width="107" height="100">
<path d="M612.812 216.353V315.606H718.436V278.737H685.471V248.848H650.394V216.353" fill="white"/>
</mask>
<g mask="url(#mask1_2585_42966)">
<path fill-rule="evenodd" clip-rule="evenodd" d="M579.242 260.441C602.043 237.68 632.583 222.805 664.57 218.877C648.954 246.662 615.552 259.691 596.353 285.135C632.875 269.117 669.398 253.099 705.92 237.081C701.383 246.012 691.955 251.226 682.891 255.503C663.498 264.653 643.255 271.97 624.152 281.713C613.401 287.195 602.124 294.594 599.106 306.272C634.89 291.986 670.158 276.413 704.821 259.592C701.068 269.199 691.904 275.423 683.249 281.041C669.464 289.988 655.678 298.935 641.893 307.883C638.011 310.401 633.578 314.313 634.966 318.726C666.268 302.743 699.206 289.961 733.098 280.641C710.593 298.353 687.764 316.403 671.185 339.747" fill="#E6E2FF"/>
<path d="M579.242 260.441C602.043 237.68 632.583 222.805 664.57 218.877C648.954 246.662 615.552 259.691 596.353 285.135C632.875 269.117 669.398 253.099 705.92 237.081C701.383 246.012 691.955 251.226 682.891 255.503C663.498 264.653 643.255 271.97 624.152 281.713C613.401 287.195 602.124 294.594 599.106 306.272C634.89 291.986 670.158 276.413 704.821 259.592C701.068 269.199 691.904 275.423 683.249 281.041C669.464 289.988 655.678 298.935 641.893 307.883C638.011 310.401 633.578 314.313 634.966 318.726C666.268 302.743 699.206 289.961 733.098 280.641C710.593 298.353 687.764 316.403 671.185 339.747" stroke="#F2F0FF"/>
</g>
<path fill-rule="evenodd" clip-rule="evenodd" d="M218.945 114.912C229.928 97.5638 236.071 76.5278 240.268 67.4366C240.268 67.4366 240.356 67.2422 240.429 67.2422C240.513 67.2446 240.589 67.4366 240.589 67.4366C244.735 76.5482 250.91 97.5602 261.912 114.912C271.664 130.318 286.141 144.301 286.141 154.3C286.141 164.056 278.063 171.103 271.927 178.505C267.729 183.553 264.335 200.16 264.335 200.16C264.335 200.16 247.292 200.094 240.589 200.16H240.425H240.268C233.544 200.094 216.522 200.16 216.522 200.16C216.522 200.16 213.116 183.553 208.931 178.505C202.778 171.103 194.715 164.056 194.715 154.3C194.715 144.301 209.172 130.318 218.945 114.912Z" fill="#E6E2FF"/>
<path fill-rule="evenodd" clip-rule="evenodd" d="M238.833 200.159H225.247C223.511 193.774 220.359 176.099 216.886 171.91C215.743 170.527 214.525 169.156 213.318 167.785C209.054 162.974 205.062 158.434 205.062 154.3C205.062 151.131 211.918 142.082 216.482 136.1C220.265 131.122 224.157 125.98 227.672 120.442C232.937 112.123 237.139 103.725 240.428 96.2622L238.833 200.159ZM240.428 96.2622C243.701 103.725 247.903 112.123 253.17 120.442C256.679 125.98 260.598 131.122 264.38 136.1C268.922 142.082 275.804 151.131 275.804 154.3C275.804 158.434 271.782 162.974 267.549 167.785C266.315 169.156 265.119 170.527 263.976 171.91C260.503 176.099 258.4 193.774 256.679 200.159C255.572 200.149 246.833 200.159 238.833 200.159" fill="#E6E2FF"/>
<path d="M240.428 96.2622C243.701 103.725 247.903 112.123 253.17 120.442C256.679 125.98 260.598 131.122 264.38 136.1C268.922 142.082 275.804 151.131 275.804 154.3C275.804 158.434 271.782 162.974 267.549 167.785C266.315 169.156 265.119 170.527 263.976 171.91C260.503 176.099 258.4 193.774 256.679 200.159C255.572 200.149 246.833 200.159 238.833 200.159M238.833 200.159H225.247C223.511 193.774 220.359 176.099 216.886 171.91C215.743 170.527 214.525 169.156 213.318 167.785C209.054 162.974 205.062 158.434 205.062 154.3C205.062 151.131 211.918 142.082 216.482 136.1C220.265 131.122 224.157 125.98 227.672 120.442C232.937 112.123 237.139 103.725 240.428 96.2622L238.833 200.159Z" stroke="#F2F0FF"/>
<mask id="mask2_2585_42966" style="mask-type:alpha" maskUnits="userSpaceOnUse" x="0" y="-56" width="873" height="468">
<path d="M0 412H873V-56H0V412Z" fill="white"/>
</mask>
<g mask="url(#mask2_2585_42966)">
<path fill-rule="evenodd" clip-rule="evenodd" d="M214.742 315.606H265.143V210.468H214.742V315.606Z" fill="#E6E2FF"/>
</g>
<mask id="mask3_2585_42966" style="mask-type:alpha" maskUnits="userSpaceOnUse" x="214" y="210" width="20" height="106">
<path d="M214.742 210.468H233.296V315.606H214.742V210.468Z" fill="white"/>
</mask>
<g mask="url(#mask3_2585_42966)">
<path fill-rule="evenodd" clip-rule="evenodd" d="M233.297 315.606V210.175H212.211V315.606" fill="#E6E2FF"/>
<path d="M233.297 315.606V210.175H212.211V315.606" stroke="#F2F0FF"/>
</g>
<path fill-rule="evenodd" clip-rule="evenodd" d="M214.742 315.606H265.143V210.468H214.742V315.606Z" stroke="#F2F0FF"/>
<path fill-rule="evenodd" clip-rule="evenodd" d="M205.062 212.644H277.421V200.16H205.062V212.644Z" fill="#E6E2FF"/>
<path fill-rule="evenodd" clip-rule="evenodd" d="M205.062 212.644H277.421V200.16H205.062V212.644Z" stroke="#F2F0FF"/>
<path fill-rule="evenodd" clip-rule="evenodd" d="M235.37 159.031C238.145 161.812 242.693 161.812 245.499 159.031C248.285 156.132 248.285 151.582 245.499 148.801C244.77 147.97 243.842 147.456 242.788 147.142L243.055 83.3604C243.055 81.906 241.9 80.7816 240.579 80.6772C239.016 80.7816 237.883 81.8088 237.883 83.2608L237.62 147.245C236.823 147.559 235.989 148.073 235.37 148.801C232.575 151.582 232.575 156.132 235.37 159.031Z" fill="#E6E2FF"/>
<path fill-rule="evenodd" clip-rule="evenodd" d="M235.37 159.031C238.145 161.812 242.693 161.812 245.499 159.031C248.285 156.132 248.285 151.582 245.499 148.801C244.77 147.97 243.842 147.456 242.788 147.142L243.055 83.3604C243.055 81.906 241.9 80.7816 240.579 80.6772C239.016 80.7816 237.883 81.8088 237.883 83.2608L237.62 147.245C236.823 147.559 235.989 148.073 235.37 148.801C232.575 151.582 232.575 156.132 235.37 159.031Z" stroke="#F2F0FF"/>
<path fill-rule="evenodd" clip-rule="evenodd" d="M402.266 307.936H478.366V266.472H402.266V307.936Z" stroke="#340096"/>
<path fill-rule="evenodd" clip-rule="evenodd" d="M512.351 315.606H368.273V313.718C368.273 310.513 370.873 307.915 374.081 307.915H506.544C509.751 307.915 512.351 310.513 512.351 313.718V315.606Z" stroke="#340096"/>
<path fill-rule="evenodd" clip-rule="evenodd" d="M585.872 78.7156V250.575C585.872 259.35 578.752 266.465 569.97 266.465H310.659C301.878 266.465 294.758 259.35 294.758 250.575V78.7156C294.758 69.94 301.878 62.8252 310.659 62.8252H569.97C578.752 62.8252 585.872 69.94 585.872 78.7156Z" stroke="#340096"/>
<path fill-rule="evenodd" clip-rule="evenodd" d="M573.99 81.8863V246.721C573.99 251.761 569.901 255.847 564.857 255.847H315.382C310.338 255.847 306.25 251.761 306.25 246.721V81.8863C306.25 76.8463 310.338 72.7603 315.382 72.7603H564.857C569.901 72.7603 573.99 76.8463 573.99 81.8863Z" fill="#F2F0FF"/>
<path fill-rule="evenodd" clip-rule="evenodd" d="M573.99 81.8863V246.721C573.99 251.761 569.901 255.847 564.857 255.847H315.382C310.338 255.847 306.25 251.761 306.25 246.721V81.8863C306.25 76.8463 310.338 72.7603 315.382 72.7603H564.857C569.901 72.7603 573.99 76.8463 573.99 81.8863Z" stroke="#340096" stroke-linecap="round" stroke-linejoin="round"/>
<path fill-rule="evenodd" clip-rule="evenodd" d="M306.258 111.227H573.999V93.9937H306.258V111.227Z" fill="#E6E2FF"/>
<path fill-rule="evenodd" clip-rule="evenodd" d="M306.258 111.227H573.999V93.9937H306.258V111.227Z" stroke="#340096" stroke-linecap="round" stroke-linejoin="round"/>
<path d="M306.25 240.65H574.005" stroke="#340096" stroke-linecap="round" stroke-linejoin="round"/>
<path fill-rule="evenodd" clip-rule="evenodd" d="M450.5 155.494H555.171V140.686H450.5V155.494Z" fill="#E6E2FF"/>
<path fill-rule="evenodd" clip-rule="evenodd" d="M450.5 155.494H555.171V140.686H450.5V155.494Z" stroke="#340096" stroke-linecap="round" stroke-linejoin="round"/>
<path fill-rule="evenodd" clip-rule="evenodd" d="M450.5 204.858H532.86V190.05H450.5V204.858Z" fill="#E6E2FF"/>
<path fill-rule="evenodd" clip-rule="evenodd" d="M450.5 204.858H532.86V190.05H450.5V204.858Z" stroke="#340096" stroke-linecap="round" stroke-linejoin="round"/>
<path fill-rule="evenodd" clip-rule="evenodd" d="M450.5 179.501H502.086V164.693H450.5V179.501Z" fill="#E6E2FF"/>
<path fill-rule="evenodd" clip-rule="evenodd" d="M450.5 179.501H502.086V164.693H450.5V179.501Z" stroke="#340096" stroke-linecap="round" stroke-linejoin="round"/>
<path fill-rule="evenodd" clip-rule="evenodd" d="M321.331 83.4751C321.331 84.9931 320.1 86.2231 318.581 86.2231C317.063 86.2231 315.832 84.9931 315.832 83.4751C315.832 81.9571 317.063 80.7271 318.581 80.7271C320.1 80.7271 321.331 81.9571 321.331 83.4751Z" stroke="#340096" stroke-linecap="round" stroke-linejoin="round"/>
<path fill-rule="evenodd" clip-rule="evenodd" d="M333.694 83.4751C333.694 84.9931 332.463 86.2231 330.944 86.2231C329.426 86.2231 328.195 84.9931 328.195 83.4751C328.195 81.9571 329.426 80.7271 330.944 80.7271C332.463 80.7271 333.694 81.9571 333.694 83.4751Z" stroke="#340096" stroke-linecap="round" stroke-linejoin="round"/>
<path fill-rule="evenodd" clip-rule="evenodd" d="M346.053 83.4751C346.053 84.9931 344.822 86.2231 343.303 86.2231C341.786 86.2231 340.555 84.9931 340.555 83.4751C340.555 81.9571 341.786 80.7271 343.303 80.7271C344.822 80.7271 346.053 81.9571 346.053 83.4751Z" stroke="#340096" stroke-linecap="round" stroke-linejoin="round"/>
<path fill-rule="evenodd" clip-rule="evenodd" d="M326.789 227.549H432.45V122.653H326.789V227.549Z" fill="#D5BFFF"/>
<path fill-rule="evenodd" clip-rule="evenodd" d="M409.95 161.29C411.933 160.857 412.921 158.379 412.719 156.272C412.354 152.456 408.808 149.351 405.181 149.43C405.747 149.215 406.235 148.712 406.45 148.111C406.774 147.202 406.586 146.168 406.18 145.297C404.703 142.124 400.151 141.134 397.587 143.427C398.167 139.722 396.382 135.868 393.549 133.562C390.717 131.256 387.197 130.701 383.61 130.878C380.024 131.054 376.339 131.887 373.024 133.324C368.797 135.157 364.694 137.502 361.474 140.9C358.255 144.298 355.979 148.858 355.936 153.642C355.913 156.224 356.709 159.055 358.814 160.406C359.13 160.609 359.466 160.763 359.813 160.889C356.939 168.212 350.891 185.854 356.894 194.986C359.956 199.642 364.518 201.889 370.098 201.609L370.148 201.857V213.79L396.963 218.653L397.866 186.488C397.866 186.488 406.291 185.551 404.291 178.839C404.465 179.183 404.79 179.419 405.164 179.467C405.506 179.512 405.852 179.398 406.103 179.15C406.371 178.886 406.59 178.556 406.794 178.232C408.789 175.065 410.276 171.55 411.171 167.877C411.736 165.56 411.852 162.616 409.95 161.29Z" fill="#FFEBDF"/>
<path fill-rule="evenodd" clip-rule="evenodd" d="M409.95 161.29C411.933 160.857 412.921 158.379 412.719 156.272C412.354 152.456 408.808 149.351 405.181 149.429C405.747 149.215 406.235 148.712 406.45 148.111C406.774 147.202 406.586 146.168 406.18 145.297C404.703 142.124 400.151 141.134 397.587 143.427C398.167 139.722 396.382 135.868 393.549 133.562C390.717 131.256 387.197 130.701 383.61 130.878C380.024 131.054 376.339 131.887 373.024 133.324C368.797 135.157 364.694 137.502 361.474 140.9C358.255 144.298 355.979 148.858 355.936 153.641C355.913 156.224 356.709 159.055 358.814 160.406C359.13 160.609 359.466 160.763 359.813 160.889C356.939 168.212 350.891 185.854 356.894 194.986C359.956 199.642 364.518 201.889 370.098 201.609L370.148 201.857V213.79L396.963 218.653L397.866 186.488C397.866 186.488 406.291 185.551 404.291 178.839C404.465 179.183 404.79 179.419 405.164 179.467C405.506 179.512 405.852 179.398 406.103 179.15C406.371 178.886 406.59 178.556 406.794 178.232C408.789 175.065 410.276 171.55 411.171 167.877C411.736 165.56 411.852 162.616 409.95 161.29Z" stroke="#340096" stroke-linecap="round" stroke-linejoin="round"/>
<path d="M380.145 189.385C380.145 189.385 377.981 195.445 371.906 193.296" stroke="#340096" stroke-linecap="round" stroke-linejoin="round"/>
<path d="M372.545 184.687C372.545 184.687 366.768 186.701 367.282 181.107C367.571 177.953 368.35 173.018 368.975 169.315C369.535 165.997 365.94 165.804 363.008 167.459" stroke="#340096" stroke-linecap="round" stroke-linejoin="round"/>
<path d="M383.967 174.348C383.967 174.348 380.367 173.299 378.32 174.217" stroke="#340096" stroke-linecap="round" stroke-linejoin="round"/>
<path d="M363.935 174.124C363.935 174.124 360.89 172.872 358.289 173.993" stroke="#340096" stroke-linecap="round" stroke-linejoin="round"/>
<path d="M370.148 201.857V213.791" stroke="#340096" stroke-linecap="round" stroke-linejoin="round"/>
<path d="M396.961 218.653L397.864 186.488C397.864 186.488 406.829 185.491 404.067 178.188" stroke="#340096" stroke-linecap="round" stroke-linejoin="round"/>
<path d="M397.984 178.876C398.126 178.126 398.895 177.585 399.66 177.592C400.423 177.599 401.135 178.083 401.532 178.735C401.928 179.388 402.037 180.184 401.964 180.943C401.928 181.312 401.85 181.683 401.666 182.003" stroke="#340096" stroke-linecap="round" stroke-linejoin="round"/>
<path d="M361.148 157.578C361.081 158.062 349.271 183.39 356.894 194.986C361.479 201.96 369.419 203.56 379.126 199.3" stroke="#340096" stroke-linecap="round" stroke-linejoin="round"/>
<path fill-rule="evenodd" clip-rule="evenodd" d="M405.166 179.468C404.76 179.416 404.404 179.148 404.244 178.755C403.599 177.156 402.396 175.784 400.847 175.18C399.101 174.5 396.938 174.939 395.736 176.429C394.788 177.606 394.312 179.434 392.758 179.638C392.112 179.723 391.468 179.462 390.991 178.998C390.007 178.046 389.781 176.672 389.673 175.352C389.366 171.628 389.819 167.884 390.341 164.186C390.549 162.716 390.75 161.134 390.104 159.81C389.037 157.623 386.259 157.192 383.912 157.21C379.445 157.246 374.981 157.929 370.692 159.23C368.435 159.914 366.215 160.77 363.891 161.132C362.167 161.399 360.302 161.36 358.817 160.406C356.712 159.056 355.916 156.224 355.938 153.642C355.982 148.859 358.257 144.298 361.477 140.9C364.696 137.502 368.799 135.158 373.026 133.325C376.343 131.888 380.027 131.055 383.614 130.878C387.2 130.701 390.719 131.256 393.552 133.563C396.386 135.868 398.169 139.722 397.589 143.427C400.155 141.134 404.705 142.125 406.183 145.298C406.588 146.169 406.777 147.203 406.452 148.112C406.128 149.019 405.188 149.716 404.282 149.508C408.202 148.834 412.327 152.14 412.722 156.273C412.924 158.38 411.935 160.858 409.953 161.291C411.856 162.617 411.74 165.561 411.174 167.877C410.278 171.55 408.792 175.066 406.797 178.232C406.593 178.556 406.373 178.886 406.105 179.151C405.854 179.398 405.508 179.512 405.166 179.468Z" fill="#340096"/>
<path fill-rule="evenodd" clip-rule="evenodd" d="M405.166 179.468C404.76 179.416 404.404 179.148 404.244 178.755C403.599 177.156 402.396 175.784 400.847 175.18C399.101 174.5 396.938 174.939 395.736 176.429C394.788 177.606 394.312 179.434 392.758 179.638C392.112 179.723 391.468 179.462 390.991 178.998C390.007 178.046 389.781 176.672 389.673 175.352C389.366 171.628 389.819 167.884 390.341 164.186C390.549 162.716 390.75 161.134 390.104 159.81C389.037 157.623 386.259 157.192 383.912 157.21C379.445 157.246 374.981 157.929 370.692 159.23C368.435 159.914 366.215 160.77 363.891 161.132C362.167 161.399 360.302 161.36 358.817 160.406C356.712 159.056 355.916 156.224 355.938 153.642C355.982 148.859 358.257 144.298 361.477 140.9C364.696 137.502 368.799 135.158 373.026 133.325C376.343 131.888 380.027 131.055 383.614 130.878C387.2 130.701 390.719 131.256 393.552 133.563C396.386 135.868 398.169 139.722 397.589 143.427C400.155 141.134 404.705 142.125 406.183 145.298C406.588 146.169 406.777 147.203 406.452 148.112C406.128 149.019 405.188 149.716 404.282 149.508C408.202 148.834 412.327 152.14 412.722 156.273C412.924 158.38 411.935 160.858 409.953 161.291C411.856 162.617 411.74 165.561 411.174 167.877C410.278 171.55 408.792 175.066 406.797 178.232C406.593 178.556 406.373 178.886 406.105 179.151C405.854 179.398 405.508 179.512 405.166 179.468Z" stroke="#340096" stroke-linecap="round" stroke-linejoin="round"/>
<path d="M399.157 186.186C399.157 186.186 396.246 186.96 392.93 186.334" stroke="#340096" stroke-linecap="round" stroke-linejoin="round"/>
<mask id="mask4_2585_42966" style="mask-type:alpha" maskUnits="userSpaceOnUse" x="326" y="207" width="107" height="21">
<path d="M326.781 207.752H432.442V227.549H326.781V207.752Z" fill="white"/>
</mask>
<g mask="url(#mask4_2585_42966)">
<path fill-rule="evenodd" clip-rule="evenodd" d="M303.914 225.559L370.561 207.752C370.561 207.752 381.118 217.049 396.953 209.724C414.455 223.81 427.789 216.485 434.456 221.556C441.124 226.627 436.956 237.613 436.956 237.613H303.914V225.559Z" fill="#1259FF"/>
</g>
<mask id="mask5_2585_42966" style="mask-type:alpha" maskUnits="userSpaceOnUse" x="326" y="207" width="107" height="21">
<path d="M326.781 207.752H432.442V227.549H326.781V207.752Z" fill="white"/>
</mask>
<g mask="url(#mask5_2585_42966)">
<path fill-rule="evenodd" clip-rule="evenodd" d="M303.914 225.559L370.561 207.752C370.561 207.752 381.118 217.049 396.953 209.724C414.455 223.81 427.789 216.485 434.456 221.556C441.124 226.627 436.956 237.613 436.956 237.613H303.914V225.559Z" stroke="#340096" stroke-linecap="round" stroke-linejoin="round"/>
</g>
<path fill-rule="evenodd" clip-rule="evenodd" d="M326.785 227.549H432.446V122.654H326.785V227.549Z" stroke="#340096" stroke-linecap="round" stroke-linejoin="round"/>
<path fill-rule="evenodd" clip-rule="evenodd" d="M614.992 315.607H507.812C502.768 315.607 498.68 311.52 498.68 306.48V154.868C498.68 149.828 502.768 145.742 507.812 145.742H614.992C620.035 145.742 624.124 149.828 624.124 154.868V306.48C624.124 311.52 620.035 315.607 614.992 315.607Z" fill="#F2F0FF"/>
<path fill-rule="evenodd" clip-rule="evenodd" d="M614.992 315.607H507.812C502.768 315.607 498.68 311.52 498.68 306.48V154.868C498.68 149.828 502.768 145.742 507.812 145.742H614.992C620.035 145.742 624.124 149.828 624.124 154.868V306.48C624.124 311.52 620.035 315.607 614.992 315.607Z" stroke="#340096" stroke-linecap="round" stroke-linejoin="round"/>
<path fill-rule="evenodd" clip-rule="evenodd" d="M509.016 269.63H613.786V260.011H509.016V269.63Z" fill="#E6E2FF"/>
<path fill-rule="evenodd" clip-rule="evenodd" d="M509.016 269.63H613.786V260.011H509.016V269.63Z" stroke="#340096" stroke-linecap="round" stroke-linejoin="round"/>
<path fill-rule="evenodd" clip-rule="evenodd" d="M498.723 173.052H624.078V161.194H498.723V173.052Z" fill="#E6E2FF"/>
<path fill-rule="evenodd" clip-rule="evenodd" d="M498.723 173.052H624.078V161.194H498.723V173.052Z" stroke="#340096" stroke-linecap="round" stroke-linejoin="round"/>
<path fill-rule="evenodd" clip-rule="evenodd" d="M537.629 286.364H613.705V276.745H537.629V286.364Z" fill="#E6E2FF"/>
<path fill-rule="evenodd" clip-rule="evenodd" d="M537.629 286.364H613.705V276.745H537.629V286.364Z" stroke="#340096" stroke-linecap="round" stroke-linejoin="round"/>
<path fill-rule="evenodd" clip-rule="evenodd" d="M509.098 286.364H530.965V276.745H509.098V286.364Z" fill="#E6E2FF"/>
<path fill-rule="evenodd" clip-rule="evenodd" d="M509.098 286.364H530.965V276.745H509.098V286.364Z" stroke="#340096" stroke-linecap="round" stroke-linejoin="round"/>
<path fill-rule="evenodd" clip-rule="evenodd" d="M566.734 304.645C566.734 307.587 564.346 309.973 561.402 309.973C558.458 309.973 556.07 307.587 556.07 304.645C556.07 301.702 558.458 299.318 561.402 299.318C564.346 299.318 566.734 301.702 566.734 304.645Z" fill="#D4D2DF"/>
<path fill-rule="evenodd" clip-rule="evenodd" d="M566.734 304.645C566.734 307.587 564.346 309.973 561.402 309.973C558.458 309.973 556.07 307.587 556.07 304.645C556.07 301.702 558.458 299.318 561.402 299.318C564.346 299.318 566.734 301.702 566.734 304.645Z" stroke="#340096" stroke-linecap="round"/>
<path d="M624.078 294.948H498.723" stroke="#340096" stroke-linecap="round" stroke-linejoin="round"/>
<path d="M555.312 152.822H567.494" stroke="#340096" stroke-linecap="round" stroke-linejoin="round"/>
<path fill-rule="evenodd" clip-rule="evenodd" d="M509.691 250.789H613.115V178.9H509.691V250.789Z" fill="#D5BFFF"/>
<path fill-rule="evenodd" clip-rule="evenodd" d="M583.732 205.766C585.126 205.461 585.821 203.719 585.68 202.237C585.423 199.552 582.929 197.37 580.378 197.425C580.777 197.274 581.119 196.92 581.27 196.497C581.498 195.859 581.366 195.132 581.081 194.518C580.042 192.288 576.842 191.59 575.037 193.203C575.445 190.598 574.19 187.887 572.198 186.266C570.206 184.642 567.73 184.254 565.208 184.377C562.686 184.502 560.094 185.088 557.762 186.098C554.79 187.387 551.904 189.037 549.639 191.426C547.376 193.816 545.775 197.023 545.745 200.388C545.729 202.203 546.289 204.194 547.768 205.143C547.992 205.287 548.228 205.395 548.471 205.484C546.45 210.634 542.198 223.041 546.419 229.464C548.572 232.738 551.78 234.318 555.705 234.122L555.74 234.296V242.689L574.599 246.108L575.234 223.486C575.234 223.486 581.159 222.828 579.751 218.108C579.874 218.349 580.103 218.516 580.365 218.55C580.606 218.581 580.85 218.5 581.027 218.326C581.215 218.14 581.369 217.909 581.513 217.681C582.915 215.454 583.96 212.982 584.591 210.398C584.988 208.768 585.07 206.7 583.732 205.766Z" fill="#FFEBDF"/>
<path fill-rule="evenodd" clip-rule="evenodd" d="M583.732 205.766C585.126 205.461 585.821 203.719 585.68 202.237C585.423 199.552 582.929 197.37 580.378 197.425C580.777 197.274 581.119 196.92 581.27 196.497C581.498 195.859 581.366 195.132 581.081 194.518C580.042 192.288 576.842 191.59 575.037 193.203C575.445 190.598 574.19 187.887 572.198 186.266C570.206 184.642 567.73 184.254 565.208 184.377C562.686 184.502 560.094 185.088 557.762 186.098C554.79 187.387 551.904 189.037 549.639 191.426C547.376 193.816 545.775 197.023 545.745 200.388C545.729 202.203 546.289 204.194 547.768 205.143C547.992 205.287 548.228 205.395 548.471 205.484C546.45 210.634 542.198 223.041 546.419 229.464C548.572 232.738 551.78 234.318 555.705 234.122L555.74 234.296V242.689L574.599 246.108L575.234 223.486C575.234 223.486 581.159 222.828 579.751 218.108C579.874 218.349 580.103 218.516 580.365 218.55C580.606 218.581 580.85 218.5 581.027 218.326C581.215 218.14 581.369 217.909 581.513 217.681C582.915 215.454 583.96 212.982 584.591 210.398C584.988 208.768 585.07 206.7 583.732 205.766Z" stroke="#340096" stroke-width="0.75" stroke-linecap="round" stroke-linejoin="round"/>
<path d="M562.771 225.525C562.771 225.525 561.248 229.787 556.977 228.275" stroke="#340096" stroke-width="0.75" stroke-linecap="round" stroke-linejoin="round"/>
<path d="M557.427 222.22C557.427 222.22 553.364 223.636 553.724 219.703C553.929 217.484 554.476 214.013 554.916 211.409C555.309 209.075 552.781 208.94 550.719 210.104" stroke="#340096" stroke-width="0.75" stroke-linecap="round" stroke-linejoin="round"/>
<path d="M565.456 214.949C565.456 214.949 562.924 214.211 561.484 214.857" stroke="#340096" stroke-width="0.75" stroke-linecap="round" stroke-linejoin="round"/>
<path d="M551.373 214.792C551.373 214.792 549.231 213.912 547.402 214.699" stroke="#340096" stroke-width="0.75" stroke-linecap="round" stroke-linejoin="round"/>
<path d="M555.742 234.296V242.689" stroke="#340096" stroke-width="0.75" stroke-linecap="round" stroke-linejoin="round"/>
<path d="M574.598 246.108L575.233 223.487C575.233 223.487 581.538 222.786 579.596 217.65" stroke="#340096" stroke-width="0.75" stroke-linecap="round" stroke-linejoin="round"/>
<path d="M575.32 218.134C575.42 217.607 575.96 217.226 576.498 217.232C577.035 217.235 577.536 217.577 577.816 218.036C578.094 218.494 578.171 219.054 578.119 219.587C578.094 219.846 578.039 220.108 577.909 220.333" stroke="#340096" stroke-width="0.75" stroke-linecap="round" stroke-linejoin="round"/>
<path d="M549.411 203.156C549.364 203.495 541.058 221.308 546.419 229.463C549.643 234.369 555.228 235.493 562.055 232.498" stroke="#340096" stroke-width="0.75" stroke-linecap="round" stroke-linejoin="round"/>
<path fill-rule="evenodd" clip-rule="evenodd" d="M580.364 218.55C580.079 218.513 579.828 218.326 579.715 218.048C579.263 216.924 578.416 215.959 577.327 215.534C576.098 215.056 574.578 215.364 573.733 216.413C573.065 217.241 572.73 218.526 571.637 218.67C571.183 218.729 570.731 218.545 570.395 218.22C569.704 217.55 569.544 216.583 569.468 215.656C569.253 213.036 569.571 210.403 569.937 207.802C570.084 206.768 570.226 205.656 569.771 204.725C569.021 203.186 567.067 202.883 565.416 202.897C562.275 202.922 559.136 203.401 556.119 204.317C554.533 204.798 552.971 205.4 551.337 205.655C550.123 205.843 548.812 205.814 547.767 205.144C546.288 204.194 545.727 202.202 545.742 200.387C545.774 197.023 547.374 193.816 549.638 191.425C551.903 189.036 554.789 187.387 557.761 186.098C560.093 185.087 562.684 184.501 565.206 184.378C567.729 184.253 570.205 184.643 572.196 186.265C574.188 187.888 575.443 190.598 575.036 193.202C576.839 191.591 580.04 192.287 581.079 194.519C581.364 195.131 581.496 195.859 581.268 196.498C581.04 197.136 580.379 197.626 579.742 197.48C582.499 197.005 585.4 199.331 585.679 202.237C585.82 203.719 585.125 205.462 583.731 205.766C585.069 206.7 584.987 208.769 584.589 210.398C583.959 212.982 582.914 215.454 581.512 217.68C581.368 217.908 581.214 218.141 581.024 218.327C580.849 218.501 580.605 218.581 580.364 218.55Z" fill="#340096"/>
<path fill-rule="evenodd" clip-rule="evenodd" d="M580.364 218.55C580.079 218.513 579.828 218.326 579.715 218.048C579.263 216.924 578.416 215.959 577.327 215.534C576.098 215.056 574.578 215.364 573.733 216.413C573.065 217.241 572.73 218.526 571.637 218.67C571.183 218.729 570.731 218.545 570.395 218.22C569.704 217.55 569.544 216.583 569.468 215.656C569.253 213.036 569.571 210.403 569.937 207.802C570.084 206.768 570.226 205.656 569.771 204.725C569.021 203.186 567.067 202.883 565.416 202.897C562.275 202.922 559.136 203.401 556.119 204.317C554.533 204.798 552.971 205.4 551.337 205.655C550.123 205.843 548.812 205.814 547.767 205.144C546.288 204.194 545.727 202.202 545.742 200.387C545.774 197.023 547.374 193.816 549.638 191.425C551.903 189.036 554.789 187.387 557.761 186.098C560.093 185.087 562.684 184.501 565.206 184.378C567.729 184.253 570.205 184.643 572.196 186.265C574.188 187.888 575.443 190.598 575.036 193.202C576.839 191.591 580.04 192.287 581.079 194.519C581.364 195.131 581.496 195.859 581.268 196.498C581.04 197.136 580.379 197.626 579.742 197.48C582.499 197.005 585.4 199.331 585.679 202.237C585.82 203.719 585.125 205.462 583.731 205.766C585.069 206.7 584.987 208.769 584.589 210.398C583.959 212.982 582.914 215.454 581.512 217.68C581.368 217.908 581.214 218.141 581.024 218.327C580.849 218.501 580.605 218.581 580.364 218.55Z" stroke="#340096" stroke-width="0.75" stroke-linecap="round" stroke-linejoin="round"/>
<path d="M576.141 223.275C576.141 223.275 574.094 223.818 571.762 223.378" stroke="#340096" stroke-width="0.75" stroke-linecap="round" stroke-linejoin="round"/>
<mask id="mask6_2585_42966" style="mask-type:alpha" maskUnits="userSpaceOnUse" x="509" y="238" width="95" height="13">
<path d="M509.688 238.442H603.627V250.788H509.688V238.442Z" fill="white"/>
</mask>
<g mask="url(#mask6_2585_42966)">
<path fill-rule="evenodd" clip-rule="evenodd" d="M509.156 250.965L556.028 238.442C556.028 238.442 563.453 244.979 574.589 239.829C586.898 249.735 596.275 244.583 600.964 248.15C605.653 251.715 602.722 259.442 602.722 259.442H509.156V250.965Z" fill="#1259FF"/>
</g>
<mask id="mask7_2585_42966" style="mask-type:alpha" maskUnits="userSpaceOnUse" x="509" y="238" width="95" height="13">
<path d="M509.688 238.442H603.627V250.788H509.688V238.442Z" fill="white"/>
</mask>
<g mask="url(#mask7_2585_42966)">
<path fill-rule="evenodd" clip-rule="evenodd" d="M509.156 250.965L556.028 238.442C556.028 238.442 563.453 244.979 574.589 239.829C586.898 249.735 596.275 244.583 600.964 248.15C605.653 251.715 602.722 259.442 602.722 259.442H509.156V250.965Z" stroke="#340096" stroke-width="0.75" stroke-linecap="round" stroke-linejoin="round"/>
</g>
<path fill-rule="evenodd" clip-rule="evenodd" d="M509.691 250.788H613.115V178.9H509.691V250.788Z" stroke="#340096" stroke-linecap="round" stroke-linejoin="round"/>
<path fill-rule="evenodd" clip-rule="evenodd" d="M659.262 86.3745L659.484 88.0725C659.945 91.5921 662.717 94.3617 666.24 94.8225L667.939 95.0445L666.24 95.2665C662.717 95.7273 659.945 98.4981 659.484 102.018L659.262 103.716L659.04 102.018C658.579 98.4981 655.807 95.7273 652.284 95.2665L650.586 95.0445L652.284 94.8225C655.807 94.3617 658.579 91.5921 659.04 88.0725L659.262 86.3745Z" fill="#E6E2FF"/>
<path fill-rule="evenodd" clip-rule="evenodd" d="M659.262 86.3745L659.484 88.0725C659.945 91.5921 662.717 94.3617 666.24 94.8225L667.939 95.0445L666.24 95.2665C662.717 95.7273 659.945 98.4981 659.484 102.018L659.262 103.716L659.04 102.018C658.579 98.4981 655.807 95.7273 652.284 95.2665L650.586 95.0445L652.284 94.8225C655.807 94.3617 658.579 91.5921 659.04 88.0725L659.262 86.3745Z" stroke="#340096" stroke-linecap="round" stroke-linejoin="round"/>
<path fill-rule="evenodd" clip-rule="evenodd" d="M109.539 94.8267L109.761 96.5247C110.223 100.044 112.994 102.814 116.517 103.275L118.215 103.497L116.517 103.72C112.994 104.179 110.223 106.95 109.761 110.47L109.539 112.168L109.317 110.47C108.856 106.95 106.084 104.179 102.561 103.72L100.863 103.497L102.561 103.275C106.084 102.814 108.856 100.044 109.317 96.5247L109.539 94.8267Z" fill="#E6E2FF"/>
<path fill-rule="evenodd" clip-rule="evenodd" d="M109.539 94.8267L109.761 96.5247C110.223 100.044 112.994 102.814 116.517 103.275L118.215 103.497L116.517 103.72C112.994 104.179 110.223 106.95 109.761 110.47L109.539 112.168L109.317 110.47C108.856 106.95 106.084 104.179 102.561 103.72L100.863 103.497L102.561 103.275C106.084 102.814 108.856 100.044 109.317 96.5247L109.539 94.8267Z" stroke="#340096" stroke-linecap="round" stroke-linejoin="round"/>
<path fill-rule="evenodd" clip-rule="evenodd" d="M277.74 13.7114L277.962 15.4094C278.423 18.929 281.194 21.6986 284.718 22.1594L286.416 22.3826L284.718 22.6046C281.194 23.0642 278.423 25.835 277.962 29.3546L277.74 31.0526L277.518 29.3546C277.056 25.835 274.285 23.0642 270.762 22.6046L269.062 22.3826L270.762 22.1594C274.285 21.6986 277.056 18.929 277.518 15.4094L277.74 13.7114Z" fill="#E6E2FF"/>
<path fill-rule="evenodd" clip-rule="evenodd" d="M277.74 13.7114L277.962 15.4094C278.423 18.929 281.194 21.6986 284.718 22.1594L286.416 22.3826L284.718 22.6046C281.194 23.0642 278.423 25.835 277.962 29.3546L277.74 31.0526L277.518 29.3546C277.056 25.835 274.285 23.0642 270.762 22.6046L269.062 22.3826L270.762 22.1594C274.285 21.6986 277.056 18.929 277.518 15.4094L277.74 13.7114Z" stroke="#340096" stroke-linecap="round" stroke-linejoin="round"/>
<path fill-rule="evenodd" clip-rule="evenodd" d="M730.521 40.9736L730.743 42.6716C731.204 46.1912 733.976 48.962 737.499 49.4228L739.197 49.6448L737.499 49.8668C733.976 50.3264 731.204 53.0972 730.743 56.6168L730.521 58.3148L730.299 56.6168C729.838 53.0972 727.066 50.3264 723.543 49.8668L721.844 49.6448L723.543 49.4228C727.066 48.962 729.838 46.1912 730.299 42.6716L730.521 40.9736Z" fill="#E6E2FF"/>
<path fill-rule="evenodd" clip-rule="evenodd" d="M730.521 40.9736L730.743 42.6716C731.204 46.1912 733.976 48.962 737.499 49.4228L739.197 49.6448L737.499 49.8668C733.976 50.3264 731.204 53.0972 730.743 56.6168L730.521 58.3148L730.299 56.6168C729.838 53.0972 727.066 50.3264 723.543 49.8668L721.844 49.6448L723.543 49.4228C727.066 48.962 729.838 46.1912 730.299 42.6716L730.521 40.9736Z" stroke="#340096" stroke-linecap="round" stroke-linejoin="round"/>
<path fill-rule="evenodd" clip-rule="evenodd" d="M773.79 150.073L774.013 151.771C774.474 155.291 777.245 158.06 780.768 158.521L782.466 158.744L780.768 158.966C777.245 159.426 774.474 162.197 774.013 165.716L773.79 167.414L773.568 165.716C773.107 162.197 770.336 159.426 766.812 158.966L765.113 158.744L766.812 158.521C770.336 158.06 773.107 155.291 773.568 151.771L773.79 150.073Z" fill="#E6E2FF"/>
<path fill-rule="evenodd" clip-rule="evenodd" d="M773.79 150.073L774.013 151.771C774.474 155.291 777.245 158.06 780.768 158.521L782.466 158.744L780.768 158.966C777.245 159.426 774.474 162.197 774.013 165.716L773.79 167.414L773.568 165.716C773.107 162.197 770.336 159.426 766.812 158.966L765.113 158.744L766.812 158.521C770.336 158.06 773.107 155.291 773.568 151.771L773.79 150.073Z" stroke="#340096" stroke-linecap="round" stroke-linejoin="round"/>
<path fill-rule="evenodd" clip-rule="evenodd" d="M540.675 82.4634L540.973 84.7326C541.587 89.4354 545.292 93.1362 549.998 93.7518L552.268 94.0482L549.998 94.3446C545.292 94.9614 541.587 98.6622 540.973 103.365L540.675 105.633L540.377 103.365C539.762 98.6622 536.059 94.9614 531.352 94.3446L529.082 94.0482L531.352 93.7518C536.059 93.1362 539.762 89.4354 540.377 84.7326L540.675 82.4634Z" fill="white"/>
<path fill-rule="evenodd" clip-rule="evenodd" d="M540.675 82.4634L540.973 84.7326C541.587 89.4354 545.292 93.1362 549.998 93.7518L552.268 94.0482L549.998 94.3446C545.292 94.9614 541.587 98.6622 540.973 103.365L540.675 105.633L540.377 103.365C539.762 98.6622 536.059 94.9614 531.352 94.3446L529.082 94.0482L531.352 93.7518C536.059 93.1362 539.762 89.4354 540.377 84.7326L540.675 82.4634Z" stroke="#340096" stroke-linecap="round" stroke-linejoin="round"/>
<path fill-rule="evenodd" clip-rule="evenodd" d="M591.051 179.337L592.651 179.09C596.564 178.578 599.642 175.503 600.154 171.593L600.4 169.708L600.648 171.593C601.159 175.503 604.237 178.578 608.149 179.09L610.037 179.337L608.149 179.584C604.237 180.095 601.159 183.172 600.648 187.08L600.4 188.966L600.154 187.08C599.642 183.172 596.564 180.095 592.651 179.584L591.051 179.337Z" fill="white"/>
<path fill-rule="evenodd" clip-rule="evenodd" d="M591.051 179.337L592.651 179.09C596.564 178.578 599.642 175.503 600.154 171.593L600.4 169.708L600.648 171.593C601.159 175.503 604.237 178.578 608.149 179.09L610.037 179.337L608.149 179.584C604.237 180.095 601.159 183.172 600.648 187.08L600.4 188.966L600.154 187.08C599.642 183.172 596.564 180.095 592.651 179.584L591.051 179.337Z" stroke="#340096" stroke-linecap="round" stroke-linejoin="round"/>
<path fill-rule="evenodd" clip-rule="evenodd" d="M305.653 312.804H250.485C245.868 312.804 242.125 309.064 242.125 304.45V203.44C242.125 198.826 245.868 195.084 250.485 195.084H305.653C310.271 195.084 314.014 198.826 314.014 203.44V304.45C314.014 309.064 310.271 312.804 305.653 312.804Z" fill="#F2F0FF"/>
<path fill-rule="evenodd" clip-rule="evenodd" d="M305.653 312.804H250.485C245.868 312.804 242.125 309.064 242.125 304.45V203.44C242.125 198.826 245.868 195.084 250.485 195.084H305.653C310.271 195.084 314.014 198.826 314.014 203.44V304.45C314.014 309.064 310.271 312.804 305.653 312.804Z" stroke="#340096" stroke-linecap="round" stroke-linejoin="round"/>
<path fill-rule="evenodd" clip-rule="evenodd" d="M242.156 216.514H313.981V207.087H242.156V216.514Z" fill="#E6E2FF"/>
<path fill-rule="evenodd" clip-rule="evenodd" d="M242.156 216.514H313.981V207.087H242.156V216.514Z" stroke="#340096" stroke-linecap="round" stroke-linejoin="round"/>
<path fill-rule="evenodd" clip-rule="evenodd" d="M249.102 291.752H307.039V283.787H249.102V291.752Z" fill="#E6E2FF"/>
<path fill-rule="evenodd" clip-rule="evenodd" d="M249.102 291.752H307.039V283.787H249.102V291.752Z" stroke="#340096" stroke-linecap="round" stroke-linejoin="round"/>
<path fill-rule="evenodd" clip-rule="evenodd" d="M270.867 304.907H306.78V296.943H270.867V304.907Z" fill="#E6E2FF"/>
<path fill-rule="evenodd" clip-rule="evenodd" d="M270.867 304.907H306.78V296.943H270.867V304.907Z" stroke="#340096" stroke-linecap="round" stroke-linejoin="round"/>
<path fill-rule="evenodd" clip-rule="evenodd" d="M249.359 304.907H265.294V296.943H249.359V304.907Z" fill="#E6E2FF"/>
<path fill-rule="evenodd" clip-rule="evenodd" d="M249.359 304.907H265.294V296.943H249.359V304.907Z" stroke="#340096" stroke-linecap="round" stroke-linejoin="round"/>
<path fill-rule="evenodd" clip-rule="evenodd" d="M249.359 276.764H306.778V222.619H249.359V276.764Z" fill="#D5BFFF"/>
<path fill-rule="evenodd" clip-rule="evenodd" d="M292.929 242.488C293.952 242.265 294.462 240.987 294.358 239.9C294.17 237.931 292.34 236.33 290.469 236.369C290.761 236.259 291.013 236 291.123 235.689C291.291 235.221 291.194 234.688 290.984 234.238C290.223 232.601 287.875 232.09 286.551 233.273C286.851 231.363 285.93 229.375 284.47 228.184C283.008 226.994 281.192 226.708 279.342 226.799C277.492 226.891 275.591 227.32 273.879 228.062C271.7 229.007 269.584 230.217 267.922 231.97C266.261 233.722 265.087 236.075 265.065 238.543C265.053 239.875 265.464 241.335 266.55 242.032C266.713 242.137 266.887 242.216 267.065 242.282C265.583 246.059 262.463 255.16 265.56 259.87C267.139 262.273 269.493 263.432 272.371 263.288L272.396 263.415V269.571L286.23 272.079L286.696 255.487C286.696 255.487 291.042 255.003 290.009 251.541C290.1 251.719 290.267 251.84 290.46 251.865C290.637 251.888 290.816 251.83 290.944 251.702C291.082 251.565 291.197 251.395 291.302 251.228C292.33 249.595 293.097 247.781 293.56 245.887C293.852 244.69 293.91 243.172 292.929 242.488Z" fill="#FFEBDF"/>
<path fill-rule="evenodd" clip-rule="evenodd" d="M292.929 242.488C293.952 242.265 294.462 240.987 294.358 239.9C294.17 237.931 292.34 236.33 290.469 236.369C290.761 236.259 291.013 236 291.123 235.689C291.291 235.221 291.194 234.688 290.984 234.238C290.223 232.601 287.875 232.09 286.551 233.273C286.851 231.363 285.93 229.375 284.47 228.184C283.008 226.994 281.192 226.708 279.342 226.799C277.492 226.891 275.591 227.32 273.879 228.062C271.7 229.007 269.584 230.217 267.922 231.97C266.261 233.722 265.087 236.075 265.065 238.543C265.053 239.875 265.464 241.335 266.55 242.032C266.713 242.137 266.887 242.216 267.065 242.282C265.583 246.059 262.463 255.16 265.56 259.87C267.139 262.273 269.493 263.432 272.371 263.288L272.396 263.415V269.571L286.23 272.079L286.696 255.487C286.696 255.487 291.042 255.003 290.009 251.541C290.1 251.719 290.267 251.84 290.46 251.865C290.637 251.888 290.816 251.83 290.944 251.702C291.082 251.565 291.197 251.395 291.302 251.228C292.33 249.595 293.097 247.781 293.56 245.887C293.852 244.69 293.91 243.172 292.929 242.488Z" stroke="#340096" stroke-width="0.75" stroke-linecap="round" stroke-linejoin="round"/>
<path d="M277.556 256.981C277.556 256.981 276.439 260.107 273.305 258.999" stroke="#340096" stroke-width="0.75" stroke-linecap="round" stroke-linejoin="round"/>
<path d="M273.635 254.558C273.635 254.558 270.654 255.597 270.92 252.711C271.068 251.083 271.471 248.537 271.793 246.628C272.082 244.916 270.228 244.816 268.715 245.669" stroke="#340096" stroke-width="0.75" stroke-linecap="round" stroke-linejoin="round"/>
<path d="M279.526 249.224C279.526 249.224 277.67 248.683 276.613 249.157" stroke="#340096" stroke-width="0.75" stroke-linecap="round" stroke-linejoin="round"/>
<path d="M269.194 249.109C269.194 249.109 267.624 248.463 266.281 249.042" stroke="#340096" stroke-width="0.75" stroke-linecap="round" stroke-linejoin="round"/>
<path d="M272.398 263.416V269.572" stroke="#340096" stroke-width="0.75" stroke-linecap="round" stroke-linejoin="round"/>
<path d="M286.23 272.079L286.696 255.487C286.696 255.487 291.322 254.972 289.897 251.204" stroke="#340096" stroke-width="0.75" stroke-linecap="round" stroke-linejoin="round"/>
<path d="M286.758 251.56C286.831 251.174 287.227 250.894 287.622 250.898C288.016 250.902 288.384 251.151 288.588 251.488C288.792 251.824 288.848 252.235 288.81 252.627C288.792 252.817 288.752 253.009 288.657 253.174" stroke="#340096" stroke-width="0.5" stroke-linecap="round" stroke-linejoin="round"/>
<path d="M267.755 240.574C267.72 240.824 261.628 253.889 265.559 259.871C267.925 263.469 272.021 264.295 277.029 262.097" stroke="#340096" stroke-width="0.75" stroke-linecap="round" stroke-linejoin="round"/>
<path fill-rule="evenodd" clip-rule="evenodd" d="M290.462 251.865C290.253 251.838 290.068 251.7 289.986 251.497C289.654 250.673 289.033 249.965 288.234 249.654C287.333 249.302 286.217 249.529 285.597 250.297C285.109 250.905 284.862 251.847 284.06 251.953C283.728 251.996 283.396 251.862 283.149 251.623C282.642 251.132 282.526 250.423 282.469 249.741C282.311 247.82 282.545 245.889 282.814 243.981C282.921 243.223 283.025 242.407 282.691 241.724C282.141 240.596 280.708 240.373 279.497 240.384C277.193 240.402 274.891 240.753 272.677 241.425C271.514 241.778 270.369 242.22 269.17 242.407C268.28 242.544 267.318 242.523 266.551 242.033C265.467 241.335 265.055 239.875 265.067 238.543C265.09 236.075 266.263 233.723 267.924 231.969C269.586 230.216 271.701 229.007 273.881 228.062C275.592 227.32 277.493 226.891 279.344 226.8C281.194 226.709 283.008 226.994 284.471 228.185C285.932 229.374 286.852 231.362 286.553 233.273C287.877 232.091 290.224 232.601 290.987 234.239C291.196 234.687 291.293 235.221 291.125 235.689C290.958 236.157 290.473 236.517 290.006 236.411C292.028 236.063 294.156 237.768 294.36 239.9C294.464 240.986 293.954 242.265 292.931 242.489C293.913 243.173 293.853 244.691 293.561 245.886C293.099 247.781 292.333 249.594 291.304 251.227C291.198 251.395 291.085 251.565 290.946 251.701C290.817 251.829 290.638 251.888 290.462 251.865Z" fill="#340096"/>
<path fill-rule="evenodd" clip-rule="evenodd" d="M290.462 251.865C290.253 251.838 290.068 251.7 289.986 251.497C289.654 250.673 289.033 249.965 288.234 249.654C287.333 249.302 286.217 249.529 285.597 250.297C285.109 250.905 284.862 251.847 284.06 251.953C283.728 251.996 283.396 251.862 283.149 251.623C282.642 251.132 282.526 250.423 282.469 249.741C282.311 247.82 282.545 245.889 282.814 243.981C282.921 243.223 283.025 242.407 282.691 241.724C282.141 240.596 280.708 240.373 279.497 240.384C277.193 240.402 274.891 240.753 272.677 241.425C271.514 241.778 270.369 242.22 269.17 242.407C268.28 242.544 267.318 242.523 266.551 242.033C265.467 241.335 265.055 239.875 265.067 238.543C265.09 236.075 266.263 233.723 267.924 231.969C269.586 230.216 271.701 229.007 273.881 228.062C275.592 227.32 277.493 226.891 279.344 226.8C281.194 226.709 283.008 226.994 284.471 228.185C285.932 229.374 286.852 231.362 286.553 233.273C287.877 232.091 290.224 232.601 290.987 234.239C291.196 234.687 291.293 235.221 291.125 235.689C290.958 236.157 290.473 236.517 290.006 236.411C292.028 236.063 294.156 237.768 294.36 239.9C294.464 240.986 293.954 242.265 292.931 242.489C293.913 243.173 293.853 244.691 293.561 245.886C293.099 247.781 292.333 249.594 291.304 251.227C291.198 251.395 291.085 251.565 290.946 251.701C290.817 251.829 290.638 251.888 290.462 251.865Z" stroke="#340096" stroke-width="0.75" stroke-linecap="round" stroke-linejoin="round"/>
<path d="M287.361 255.332C287.361 255.332 285.86 255.731 284.148 255.407" stroke="#340096" stroke-width="0.75" stroke-linecap="round" stroke-linejoin="round"/>
<mask id="mask8_2585_42966" style="mask-type:alpha" maskUnits="userSpaceOnUse" x="249" y="266" width="58" height="11">
<path d="M249.359 266.457H306.778V276.764H249.359V266.457Z" fill="white"/>
</mask>
<g mask="url(#mask8_2585_42966)">
<path fill-rule="evenodd" clip-rule="evenodd" d="M238.227 275.643L272.607 266.457C272.607 266.457 278.053 271.253 286.222 267.474C295.25 274.74 302.13 270.963 305.569 273.577C309.008 276.193 306.859 281.861 306.859 281.861H238.227V275.643Z" fill="#1259FF"/>
</g>
<mask id="mask9_2585_42966" style="mask-type:alpha" maskUnits="userSpaceOnUse" x="249" y="266" width="58" height="11">
<path d="M249.359 266.457H306.778V276.764H249.359V266.457Z" fill="white"/>
</mask>
<g mask="url(#mask9_2585_42966)">
<path fill-rule="evenodd" clip-rule="evenodd" d="M238.227 275.643L272.607 266.457C272.607 266.457 278.053 271.253 286.222 267.474C295.25 274.74 302.13 270.963 305.569 273.577C309.008 276.193 306.859 281.861 306.859 281.861H238.227V275.643Z" stroke="#340096" stroke-width="0.75" stroke-linecap="round" stroke-linejoin="round"/>
</g>
<path fill-rule="evenodd" clip-rule="evenodd" d="M249.359 276.763H306.778V222.618H249.359V276.763Z" stroke="#340096" stroke-linecap="round" stroke-linejoin="round"/>
<path fill-rule="evenodd" clip-rule="evenodd" d="M306.19 315.606H249.942C243.856 315.606 238.922 310.676 238.922 304.594V203.294C238.922 197.213 243.856 192.283 249.942 192.283H306.19C312.276 192.283 317.209 197.213 317.209 203.294V304.594C317.209 310.676 312.276 315.606 306.19 315.606Z" stroke="#340096"/>
<path fill-rule="evenodd" clip-rule="evenodd" d="M255.805 192.283C256.311 192.283 256.722 192.694 256.722 193.2V194.904C256.722 196.724 258.199 198.2 260.022 198.2H296.108C297.931 198.2 299.409 196.724 299.409 194.904V193.2C299.409 192.694 299.819 192.283 300.326 192.283H255.805Z" fill="#F2F0FF"/>
<path fill-rule="evenodd" clip-rule="evenodd" d="M255.805 192.283C256.311 192.283 256.722 192.694 256.722 193.2V194.904C256.722 196.724 258.199 198.2 260.022 198.2H296.108C297.931 198.2 299.409 196.724 299.409 194.904V193.2C299.409 192.694 299.819 192.283 300.326 192.283H255.805Z" stroke="#340096" stroke-linecap="round"/>
<path d="M273.875 194.999H282.262" stroke="#340096" stroke-linecap="round"/>
<path d="M759.399 315.606H96.2266" stroke="#340096" stroke-linecap="round" stroke-linejoin="round"/>
<path fill-rule="evenodd" clip-rule="evenodd" d="M304.368 199.34L304.566 200.855C304.978 203.996 307.452 206.468 310.595 206.879L312.111 207.077L310.595 207.277C307.452 207.687 304.978 210.159 304.566 213.301L304.368 214.815L304.17 213.301C303.758 210.159 301.284 207.687 298.14 207.277L296.625 207.077L298.14 206.879C301.284 206.468 303.758 203.996 304.17 200.855L304.368 199.34Z" fill="white"/>
<path fill-rule="evenodd" clip-rule="evenodd" d="M304.368 199.34L304.566 200.855C304.978 203.996 307.452 206.468 310.595 206.879L312.111 207.077L310.595 207.277C307.452 207.687 304.978 210.159 304.566 213.301L304.368 214.815L304.17 213.301C303.758 210.159 301.284 207.687 298.14 207.277L296.625 207.077L298.14 206.879C301.284 206.468 303.758 203.996 304.17 200.855L304.368 199.34Z" stroke="#340096" stroke-linecap="round" stroke-linejoin="round"/>
</g>
<defs>
<clipPath id="clip0_2585_42966">
<rect width="873" height="324" fill="white"/>
</clipPath>
</defs>
</svg>
