<svg viewBox="0 0 281 254" fill="none" xmlns="http://www.w3.org/2000/svg">
<path fill-rule="evenodd" clip-rule="evenodd" d="M229.791 178.078C229.791 219.275 196.395 252.672 155.197 252.672C114.002 252.672 80.6055 219.275 80.6055 178.078C80.6055 136.883 114.002 103.486 155.197 103.486C196.395 103.486 229.791 136.883 229.791 178.078Z" fill="#FFA578"/>
<mask id="mask0_2585_43149" style="mask-type:alpha" maskUnits="userSpaceOnUse" x="80" y="103" width="150" height="150">
<path d="M80.6055 178.078C80.6055 219.275 114 252.671 155.197 252.671C196.395 252.671 229.791 219.275 229.791 178.078C229.791 136.882 196.395 103.486 155.197 103.486C114 103.486 80.6055 136.882 80.6055 178.078Z" fill="white"/>
</mask>
<g mask="url(#mask0_2585_43149)">
<path fill-rule="evenodd" clip-rule="evenodd" d="M138.544 230.789V204.622L138.612 204.454C132.567 203.578 128.39 199.299 125.68 194.125C117.236 178.005 126.661 148.321 126.748 147.687L139.09 141.909L165.344 146.161L188.824 172.415L181.06 234.906L138.544 230.789Z" fill="#FBFBFC"/>
</g>
<mask id="mask1_2585_43149" style="mask-type:alpha" maskUnits="userSpaceOnUse" x="80" y="103" width="150" height="150">
<path d="M80.6055 178.078C80.6055 219.275 114 252.671 155.197 252.671C196.395 252.671 229.791 219.275 229.791 178.078C229.791 136.882 196.395 103.486 155.197 103.486C114 103.486 80.6055 136.882 80.6055 178.078Z" fill="white"/>
</mask>
<g mask="url(#mask1_2585_43149)">
<path d="M143.453 195.597C148.93 197.445 150.859 192.067 150.859 192.067" stroke="#340096" stroke-width="0.75" stroke-linecap="round" stroke-linejoin="round"/>
</g>
<mask id="mask2_2585_43149" style="mask-type:alpha" maskUnits="userSpaceOnUse" x="80" y="103" width="150" height="150">
<path d="M80.6055 178.078C80.6055 219.275 114 252.671 155.197 252.671C196.395 252.671 229.791 219.275 229.791 178.078C229.791 136.882 196.395 103.486 155.197 103.486C114 103.486 80.6055 136.882 80.6055 178.078Z" fill="white"/>
</mask>
<g mask="url(#mask2_2585_43149)">
<path d="M138.547 204.622V221.423" stroke="#340096" stroke-width="0.75" stroke-linecap="round" stroke-linejoin="round"/>
</g>
<mask id="mask3_2585_43149" style="mask-type:alpha" maskUnits="userSpaceOnUse" x="80" y="103" width="150" height="150">
<path d="M80.6055 178.078C80.6055 219.275 114 252.671 155.197 252.671C196.395 252.671 229.791 219.275 229.791 178.078C229.791 136.882 196.395 103.486 155.197 103.486C114 103.486 80.6055 136.882 80.6055 178.078Z" fill="white"/>
</mask>
<g mask="url(#mask3_2585_43149)">
<path fill-rule="evenodd" clip-rule="evenodd" d="M187.538 158.369C190.464 149.381 180.398 138.702 172.145 137.949C170.906 137.836 169.549 131.902 162.868 129.845C157.379 128.155 142.015 129.063 140.13 134.035C140.474 131.82 121.496 134.868 120.076 145.231C119.069 152.578 122.203 155.121 124.721 156.685C133.265 161.993 125.946 156.382 139.852 148.332C130.24 171.762 166.558 175.667 171.897 174.167C177.043 172.719 180.517 173.761 181.814 178.552C183.658 185.355 173.912 188.567 173.912 188.567L173.128 215.721C177.87 217.857 191.89 235.823 198.588 235.205C207.651 234.368 191.101 215.839 192.162 204.624C193.962 185.609 195.776 162.374 187.538 158.369Z" fill="#340096"/>
</g>
<mask id="mask4_2585_43149" style="mask-type:alpha" maskUnits="userSpaceOnUse" x="80" y="103" width="150" height="150">
<path d="M80.6055 178.078C80.6055 219.275 114 252.671 155.197 252.671C196.395 252.671 229.791 219.275 229.791 178.078C229.791 136.882 196.395 103.486 155.197 103.486C114 103.486 80.6055 136.882 80.6055 178.078Z" fill="white"/>
</mask>
<g mask="url(#mask4_2585_43149)">
<path d="M126.749 147.687C126.66 148.321 117.236 178.005 125.68 194.125C129.877 202.137 137.59 208.003 150.315 202.415" stroke="#340096" stroke-width="0.75" stroke-linecap="round" stroke-linejoin="round"/>
</g>
<mask id="mask5_2585_43149" style="mask-type:alpha" maskUnits="userSpaceOnUse" x="80" y="103" width="150" height="150">
<path d="M80.6055 178.078C80.6055 219.275 114 252.671 155.197 252.671C196.395 252.671 229.791 219.275 229.791 178.078C229.791 136.882 196.395 103.486 155.197 103.486C114 103.486 80.6055 136.882 80.6055 178.078Z" fill="white"/>
</mask>
<g mask="url(#mask5_2585_43149)">
<path fill-rule="evenodd" clip-rule="evenodd" d="M72.5375 237.055C72.5375 237.055 104.817 206.372 138.337 214.885C139.755 218.255 152.921 225.695 173.678 216.089C211.051 221.802 214.983 223.29 222.84 231.608C230.38 239.592 226.116 252.672 226.116 252.672H51.7188L72.5375 237.055Z" fill="#2250FF"/>
</g>
<mask id="mask6_2585_43149" style="mask-type:alpha" maskUnits="userSpaceOnUse" x="80" y="103" width="150" height="150">
<path d="M80.6055 178.078C80.6055 219.275 114 252.671 155.197 252.671C196.395 252.671 229.791 219.275 229.791 178.078C229.791 136.882 196.395 103.486 155.197 103.486C114 103.486 80.6055 136.882 80.6055 178.078Z" fill="white"/>
</mask>
<g mask="url(#mask6_2585_43149)">
<path fill-rule="evenodd" clip-rule="evenodd" d="M72.5375 237.055C72.5375 237.055 104.817 206.372 138.337 214.885C139.755 218.255 152.921 225.695 173.678 216.089C211.051 221.802 214.983 223.29 222.84 231.608C230.38 239.592 226.116 252.672 226.116 252.672H51.7188L72.5375 237.055Z" stroke="#340096" stroke-width="0.75" stroke-linecap="round" stroke-linejoin="round"/>
</g>
<mask id="mask7_2585_43149" style="mask-type:alpha" maskUnits="userSpaceOnUse" x="80" y="103" width="150" height="150">
<path d="M80.6055 178.078C80.6055 219.275 114 252.671 155.197 252.671C196.395 252.671 229.791 219.275 229.791 178.078C229.791 136.882 196.395 103.486 155.197 103.486C114 103.486 80.6055 136.882 80.6055 178.078Z" fill="white"/>
</mask>
<g mask="url(#mask7_2585_43149)">
<path d="M174.727 183.778C174.727 183.778 178.196 183.267 178.433 180.187C178.663 177.176 174.842 177.003 174.842 177.003" stroke="#340096" stroke-width="0.75" stroke-linecap="round" stroke-linejoin="round"/>
</g>
<mask id="mask8_2585_43149" style="mask-type:alpha" maskUnits="userSpaceOnUse" x="80" y="103" width="150" height="150">
<path d="M80.6055 178.078C80.6055 219.275 114 252.671 155.197 252.671C196.395 252.671 229.791 219.275 229.791 178.078C229.791 136.882 196.395 103.486 155.197 103.486C114 103.486 80.6055 136.882 80.6055 178.078Z" fill="white"/>
</mask>
<g mask="url(#mask8_2585_43149)">
<path fill-rule="evenodd" clip-rule="evenodd" d="M136.26 173.871C136.26 178.559 132.46 182.359 127.772 182.359C123.082 182.359 119.281 178.559 119.281 173.871C119.281 169.183 123.082 165.382 127.772 165.382C132.46 165.382 136.26 169.183 136.26 173.871Z" fill="white"/>
</g>
<mask id="mask9_2585_43149" style="mask-type:alpha" maskUnits="userSpaceOnUse" x="80" y="103" width="150" height="150">
<path d="M80.6055 178.078C80.6055 219.275 114 252.671 155.197 252.671C196.395 252.671 229.791 219.275 229.791 178.078C229.791 136.882 196.395 103.486 155.197 103.486C114 103.486 80.6055 136.882 80.6055 178.078Z" fill="white"/>
</mask>
<g mask="url(#mask9_2585_43149)">
<path fill-rule="evenodd" clip-rule="evenodd" d="M136.26 173.871C136.26 178.559 132.46 182.359 127.772 182.359C123.082 182.359 119.281 178.559 119.281 173.871C119.281 169.183 123.082 165.382 127.772 165.382C132.46 165.382 136.26 169.183 136.26 173.871Z" stroke="#340096" stroke-width="0.75" stroke-linecap="round" stroke-linejoin="round"/>
</g>
<mask id="mask10_2585_43149" style="mask-type:alpha" maskUnits="userSpaceOnUse" x="80" y="103" width="150" height="150">
<path d="M80.6055 178.078C80.6055 219.275 114 252.671 155.197 252.671C196.395 252.671 229.791 219.275 229.791 178.078C229.791 136.882 196.395 103.486 155.197 103.486C114 103.486 80.6055 136.882 80.6055 178.078Z" fill="white"/>
</mask>
<g mask="url(#mask10_2585_43149)">
<path d="M129.178 174.359C129.178 174.359 127.177 173.443 125.062 174.318" stroke="#340096" stroke-width="0.75" stroke-linecap="round" stroke-linejoin="round"/>
</g>
<mask id="mask11_2585_43149" style="mask-type:alpha" maskUnits="userSpaceOnUse" x="80" y="103" width="150" height="150">
<path d="M80.6055 178.078C80.6055 219.275 114 252.671 155.197 252.671C196.395 252.671 229.791 219.275 229.791 178.078C229.791 136.882 196.395 103.486 155.197 103.486C114 103.486 80.6055 136.882 80.6055 178.078Z" fill="white"/>
</mask>
<g mask="url(#mask11_2585_43149)">
<path fill-rule="evenodd" clip-rule="evenodd" d="M158.369 173.872C158.369 178.56 154.568 182.359 149.88 182.359C145.19 182.359 141.391 178.56 141.391 173.872C141.391 169.184 145.19 165.382 149.88 165.382C154.568 165.382 158.369 169.184 158.369 173.872Z" fill="white"/>
</g>
<mask id="mask12_2585_43149" style="mask-type:alpha" maskUnits="userSpaceOnUse" x="80" y="103" width="150" height="150">
<path d="M80.6055 178.078C80.6055 219.275 114 252.671 155.197 252.671C196.395 252.671 229.791 219.275 229.791 178.078C229.791 136.882 196.395 103.486 155.197 103.486C114 103.486 80.6055 136.882 80.6055 178.078Z" fill="white"/>
</mask>
<g mask="url(#mask12_2585_43149)">
<path fill-rule="evenodd" clip-rule="evenodd" d="M158.369 173.872C158.369 178.56 154.568 182.359 149.88 182.359C145.19 182.359 141.391 178.56 141.391 173.872C141.391 169.184 145.19 165.382 149.88 165.382C154.568 165.382 158.369 169.184 158.369 173.872Z" stroke="#340096" stroke-width="0.75" stroke-linecap="round" stroke-linejoin="round"/>
</g>
<mask id="mask13_2585_43149" style="mask-type:alpha" maskUnits="userSpaceOnUse" x="80" y="103" width="150" height="150">
<path d="M80.6055 178.078C80.6055 219.275 114 252.671 155.197 252.671C196.395 252.671 229.791 219.275 229.791 178.078C229.791 136.882 196.395 103.486 155.197 103.486C114 103.486 80.6055 136.882 80.6055 178.078Z" fill="white"/>
</mask>
<g mask="url(#mask13_2585_43149)">
<path d="M151.282 174.359C151.282 174.359 149.283 173.443 147.168 174.318" stroke="#340096" stroke-width="0.75" stroke-linecap="round" stroke-linejoin="round"/>
</g>
<mask id="mask14_2585_43149" style="mask-type:alpha" maskUnits="userSpaceOnUse" x="80" y="103" width="150" height="150">
<path d="M80.6055 178.078C80.6055 219.275 114 252.671 155.197 252.671C196.395 252.671 229.791 219.275 229.791 178.078C229.791 136.882 196.395 103.486 155.197 103.486C114 103.486 80.6055 136.882 80.6055 178.078Z" fill="white"/>
</mask>
<g mask="url(#mask14_2585_43149)">
<path d="M138.12 177.805C138.12 177.805 135.896 185.747 138.658 187.25C138.658 187.25 140.061 187.996 141.893 187.437" stroke="#340096" stroke-width="0.75" stroke-linecap="round" stroke-linejoin="round"/>
</g>
<mask id="mask15_2585_43149" style="mask-type:alpha" maskUnits="userSpaceOnUse" x="80" y="103" width="150" height="150">
<path d="M80.6055 178.078C80.6055 219.275 114 252.671 155.197 252.671C196.395 252.671 229.791 219.275 229.791 178.078C229.791 136.882 196.395 103.486 155.197 103.486C114 103.486 80.6055 136.882 80.6055 178.078Z" fill="white"/>
</mask>
<g mask="url(#mask15_2585_43149)">
<path d="M141.392 173.871H136.262" stroke="#340096" stroke-width="0.75" stroke-linecap="round" stroke-linejoin="round"/>
</g>
<path fill-rule="evenodd" clip-rule="evenodd" d="M229.791 178.078C229.791 219.275 196.395 252.672 155.197 252.672C114.002 252.672 80.6055 219.275 80.6055 178.078C80.6055 136.883 114.002 103.486 155.197 103.486C196.395 103.486 229.791 136.883 229.791 178.078Z" stroke="#0E0916" stroke-width="0.75" stroke-linecap="round" stroke-linejoin="round"/>
<path fill-rule="evenodd" clip-rule="evenodd" d="M1 105.475C1 139.103 28.2623 166.364 61.8901 166.364C95.5179 166.364 122.779 139.103 122.779 105.475C122.779 71.8458 95.5179 44.585 61.8901 44.585C28.2623 44.585 1 71.8458 1 105.475Z" fill="#BC99FF"/>
<mask id="mask16_2585_43149" style="mask-type:alpha" maskUnits="userSpaceOnUse" x="1" y="44" width="122" height="123">
<path d="M1 105.475C1 139.102 28.2623 166.363 61.8901 166.363C95.5179 166.363 122.779 139.102 122.779 105.475C122.779 71.8453 95.5179 44.5859 61.8901 44.5859C28.2623 44.5859 1 71.8453 1 105.475Z" fill="white"/>
</mask>
<g mask="url(#mask16_2585_43149)">
<path fill-rule="evenodd" clip-rule="evenodd" d="M35.3467 96.1197C33.4167 95.6974 32.4533 93.2819 32.6502 91.2288C33.0049 87.5087 36.4589 84.4861 39.9926 84.5612C39.441 84.3523 38.9645 83.8623 38.7571 83.2761C38.4399 82.3908 38.6233 81.3838 39.0186 80.5346C40.457 77.4413 44.8895 76.4778 47.3876 78.7114C46.8224 75.1025 48.56 71.3464 51.3181 69.0979C54.0762 66.8508 57.5046 66.3112 60.9962 66.4825C64.4893 66.6539 68.0771 67.467 71.3072 68.8664C75.4225 70.6535 79.4176 72.9381 82.553 76.2494C85.6884 79.5606 87.9053 84.0036 87.9459 88.6661C87.9685 91.1822 87.1929 93.9418 85.1442 95.257C84.8361 95.4554 84.5085 95.6042 84.1703 95.7274C86.9705 102.864 92.8594 120.056 87.0125 128.955C84.032 133.492 79.589 135.682 74.1539 135.409L74.1058 135.651V147.279L47.9933 152.017L47.114 120.672C47.114 120.672 38.9104 119.76 40.8583 113.22C40.69 113.557 40.3729 113.785 40.0091 113.832C39.6754 113.875 39.3373 113.764 39.0938 113.524C38.8322 113.265 38.6203 112.943 38.4204 112.628C36.4785 109.543 35.031 106.117 34.1577 102.538C33.6076 100.28 33.4949 97.4108 35.3467 96.1197Z" fill="#FFEBDE"/>
</g>
<mask id="mask17_2585_43149" style="mask-type:alpha" maskUnits="userSpaceOnUse" x="1" y="44" width="122" height="123">
<path d="M1 105.475C1 139.102 28.2623 166.363 61.8901 166.363C95.5179 166.363 122.779 139.102 122.779 105.475C122.779 71.8453 95.5179 44.5859 61.8901 44.5859C28.2623 44.5859 1 71.8453 1 105.475Z" fill="white"/>
</mask>
<g mask="url(#mask17_2585_43149)">
<path fill-rule="evenodd" clip-rule="evenodd" d="M35.3467 96.1197C33.4167 95.6974 32.4533 93.282 32.6502 91.2288C33.0049 87.5087 36.4589 84.4861 39.9926 84.5612C39.441 84.3523 38.9645 83.8623 38.7571 83.2761C38.4399 82.3908 38.6233 81.3838 39.0186 80.5346C40.457 77.4413 44.8895 76.4778 47.3876 78.7114C46.8224 75.1025 48.56 71.3464 51.3181 69.0979C54.0762 66.8508 57.5046 66.3112 60.9962 66.4825C64.4893 66.6539 68.0771 67.467 71.3072 68.8664C75.4225 70.6535 79.4176 72.9381 82.553 76.2494C85.6884 79.5606 87.9054 84.0036 87.9459 88.6661C87.9685 91.1822 87.1929 93.9418 85.1442 95.257C84.8361 95.4554 84.5085 95.6042 84.1703 95.7274C86.9705 102.864 92.8594 120.056 87.0125 128.955C84.032 133.492 79.589 135.682 74.1539 135.409L74.1058 135.651V147.279L47.9933 152.017L47.114 120.672C47.114 120.672 38.9104 119.76 40.8583 113.22C40.69 113.557 40.3729 113.785 40.0091 113.832C39.6754 113.875 39.3373 113.764 39.0938 113.524C38.8322 113.265 38.6203 112.943 38.4204 112.628C36.4785 109.543 35.031 106.117 34.1577 102.538C33.6076 100.28 33.4949 97.4108 35.3467 96.1197Z" stroke="#340096" stroke-width="0.75" stroke-linecap="round" stroke-linejoin="round"/>
</g>
<mask id="mask18_2585_43149" style="mask-type:alpha" maskUnits="userSpaceOnUse" x="1" y="44" width="122" height="123">
<path d="M1 105.475C1 139.102 28.2623 166.363 61.8901 166.363C95.5179 166.363 122.779 139.102 122.779 105.475C122.779 71.8453 95.5179 44.5859 61.8901 44.5859C28.2623 44.5859 1 71.8453 1 105.475Z" fill="white"/>
</mask>
<g mask="url(#mask18_2585_43149)">
<path d="M64.3711 123.497C64.3711 123.497 66.4784 129.403 72.3944 127.307" stroke="#340096" stroke-width="0.75" stroke-linecap="round" stroke-linejoin="round"/>
</g>
<mask id="mask19_2585_43149" style="mask-type:alpha" maskUnits="userSpaceOnUse" x="1" y="44" width="122" height="123">
<path d="M1 105.475C1 139.102 28.2623 166.363 61.8901 166.363C95.5179 166.363 122.779 139.102 122.779 105.475C122.779 71.8453 95.5179 44.5859 61.8901 44.5859C28.2623 44.5859 1 71.8453 1 105.475Z" fill="white"/>
</mask>
<g mask="url(#mask19_2585_43149)">
<path d="M71.7695 118.917C71.7695 118.917 77.3939 120.88 76.8949 115.43C76.6139 112.355 75.8533 107.547 75.2461 103.938C74.7005 100.705 78.2011 100.517 81.0584 102.128" stroke="#340096" stroke-width="0.75" stroke-linecap="round" stroke-linejoin="round"/>
</g>
<mask id="mask20_2585_43149" style="mask-type:alpha" maskUnits="userSpaceOnUse" x="1" y="44" width="122" height="123">
<path d="M1 105.475C1 139.102 28.2623 166.363 61.8901 166.363C95.5179 166.363 122.779 139.102 122.779 105.475C122.779 71.8453 95.5179 44.5859 61.8901 44.5859C28.2623 44.5859 1 71.8453 1 105.475Z" fill="white"/>
</mask>
<g mask="url(#mask20_2585_43149)">
<path d="M60.6484 108.842C60.6484 108.842 64.1536 107.82 66.1466 108.715" stroke="#340096" stroke-width="0.75" stroke-linecap="round" stroke-linejoin="round"/>
</g>
<mask id="mask21_2585_43149" style="mask-type:alpha" maskUnits="userSpaceOnUse" x="1" y="44" width="122" height="123">
<path d="M1 105.475C1 139.102 28.2623 166.363 61.8901 166.363C95.5179 166.363 122.779 139.102 122.779 105.475C122.779 71.8453 95.5179 44.5859 61.8901 44.5859C28.2623 44.5859 1 71.8453 1 105.475Z" fill="white"/>
</mask>
<g mask="url(#mask21_2585_43149)">
<path d="M80.1523 108.625C80.1523 108.625 83.1194 107.405 85.652 108.497" stroke="#340096" stroke-width="0.75" stroke-linecap="round" stroke-linejoin="round"/>
</g>
<mask id="mask22_2585_43149" style="mask-type:alpha" maskUnits="userSpaceOnUse" x="1" y="44" width="122" height="123">
<path d="M1 105.475C1 139.102 28.2623 166.363 61.8901 166.363C95.5179 166.363 122.779 139.102 122.779 105.475C122.779 71.8453 95.5179 44.5859 61.8901 44.5859C28.2623 44.5859 1 71.8453 1 105.475Z" fill="white"/>
</mask>
<g mask="url(#mask22_2585_43149)">
<path d="M74.1055 135.651V147.278" stroke="#340096" stroke-width="0.75" stroke-linecap="round" stroke-linejoin="round"/>
</g>
<mask id="mask23_2585_43149" style="mask-type:alpha" maskUnits="userSpaceOnUse" x="1" y="44" width="122" height="123">
<path d="M1 105.475C1 139.102 28.2623 166.363 61.8901 166.363C95.5179 166.363 122.779 139.102 122.779 105.475C122.779 71.8453 95.5179 44.5859 61.8901 44.5859C28.2623 44.5859 1 71.8453 1 105.475Z" fill="white"/>
</mask>
<g mask="url(#mask23_2585_43149)">
<path d="M47.9934 152.017L47.1142 120.672C47.1142 120.672 38.3829 119.701 41.0734 112.584" stroke="#340096" stroke-width="0.75" stroke-linecap="round" stroke-linejoin="round"/>
</g>
<mask id="mask24_2585_43149" style="mask-type:alpha" maskUnits="userSpaceOnUse" x="1" y="44" width="122" height="123">
<path d="M1 105.475C1 139.102 28.2623 166.363 61.8901 166.363C95.5179 166.363 122.779 139.102 122.779 105.475C122.779 71.8453 95.5179 44.5859 61.8901 44.5859C28.2623 44.5859 1 71.8453 1 105.475Z" fill="white"/>
</mask>
<g mask="url(#mask24_2585_43149)">
<path d="M46.9976 113.256C46.8594 112.526 46.1108 111.998 45.3668 112.004C44.6213 112.012 43.9284 112.482 43.5421 113.12C43.1558 113.755 43.0506 114.531 43.1228 115.271C43.1558 115.63 43.2325 115.991 43.4114 116.303" stroke="#340096" stroke-width="0.75" stroke-linecap="round" stroke-linejoin="round"/>
</g>
<mask id="mask25_2585_43149" style="mask-type:alpha" maskUnits="userSpaceOnUse" x="1" y="44" width="122" height="123">
<path d="M1 105.475C1 139.102 28.2623 166.363 61.8901 166.363C95.5179 166.363 122.779 139.102 122.779 105.475C122.779 71.8453 95.5179 44.5859 61.8901 44.5859C28.2623 44.5859 1 71.8453 1 105.475Z" fill="white"/>
</mask>
<g mask="url(#mask25_2585_43149)">
<path d="M82.8693 92.501C82.9355 92.9714 94.4353 117.655 87.0132 128.954C82.5477 135.75 74.8175 137.31 65.3633 133.159" stroke="#340096" stroke-width="0.75" stroke-linecap="round" stroke-linejoin="round"/>
</g>
<mask id="mask26_2585_43149" style="mask-type:alpha" maskUnits="userSpaceOnUse" x="1" y="44" width="122" height="123">
<path d="M1 105.475C1 139.102 28.2623 166.363 61.8901 166.363C95.5179 166.363 122.779 139.102 122.779 105.475C122.779 71.8453 95.5179 44.5859 61.8901 44.5859C28.2623 44.5859 1 71.8453 1 105.475Z" fill="white"/>
</mask>
<g mask="url(#mask26_2585_43149)">
<path fill-rule="evenodd" clip-rule="evenodd" d="M40.0088 113.831C40.4041 113.78 40.7513 113.52 40.9061 113.137C41.5344 111.578 42.7053 110.242 44.2143 109.654C45.9158 108.99 48.0216 109.417 49.1909 110.87C50.1153 112.017 50.5783 113.8 52.0918 113.997C52.7216 114.081 53.3469 113.825 53.8128 113.374C54.7703 112.447 54.9897 111.108 55.0964 109.821C55.394 106.191 54.9536 102.543 54.4456 98.9404C54.2442 97.5065 54.0473 95.9644 54.6756 94.6748C55.7157 92.545 58.4197 92.1241 60.7073 92.1421C65.0571 92.1782 69.4025 92.8411 73.5809 94.1096C75.7769 94.777 77.9383 95.6127 80.2004 95.9629C81.8808 96.2244 83.6965 96.1854 85.1439 95.2565C87.1941 93.9413 87.9682 91.1817 87.9475 88.6656C87.905 84.0031 85.6895 79.5601 82.5542 76.2489C79.4188 72.9377 75.4237 70.6515 71.3068 68.8659C68.0783 67.4651 64.489 66.6534 60.9974 66.4821C57.5058 66.3107 54.0759 66.8503 51.3178 69.0974C48.5597 71.3444 46.8221 75.1006 47.3873 78.7109C44.8892 76.4758 40.4582 77.4408 39.0198 80.5341C38.623 81.3818 38.4411 82.3904 38.7568 83.2756C39.0724 84.1594 39.9878 84.8403 40.8685 84.6374C37.0523 83.9806 33.0346 87.2016 32.6499 91.2283C32.4545 93.2815 33.4164 95.6969 35.3463 96.1192C33.4946 97.4103 33.6073 100.278 34.1574 102.536C35.0307 106.116 36.4781 109.541 38.4201 112.627C38.62 112.943 38.8334 113.265 39.0949 113.523C39.3384 113.764 39.6751 113.875 40.0088 113.831Z" fill="#340096"/>
</g>
<mask id="mask27_2585_43149" style="mask-type:alpha" maskUnits="userSpaceOnUse" x="1" y="44" width="122" height="123">
<path d="M1 105.475C1 139.102 28.2623 166.363 61.8901 166.363C95.5179 166.363 122.779 139.102 122.779 105.475C122.779 71.8453 95.5179 44.5859 61.8901 44.5859C28.2623 44.5859 1 71.8453 1 105.475Z" fill="white"/>
</mask>
<g mask="url(#mask27_2585_43149)">
<path fill-rule="evenodd" clip-rule="evenodd" d="M40.0088 113.831C40.4041 113.78 40.7513 113.52 40.9061 113.137C41.5344 111.578 42.7053 110.242 44.2143 109.654C45.9158 108.99 48.0216 109.417 49.1909 110.87C50.1153 112.017 50.5783 113.8 52.0918 113.997C52.7216 114.081 53.3469 113.825 53.8128 113.374C54.7703 112.447 54.9897 111.108 55.0964 109.821C55.394 106.191 54.9536 102.543 54.4456 98.9405C54.2442 97.5065 54.0473 95.9644 54.6756 94.6748C55.7157 92.545 58.4197 92.1241 60.7073 92.1421C65.0571 92.1782 69.4025 92.8411 73.5809 94.1096C75.7769 94.777 77.9383 95.6127 80.2004 95.9629C81.8808 96.2244 83.6965 96.1854 85.1439 95.2565C87.1941 93.9413 87.9682 91.1817 87.9475 88.6656C87.905 84.0031 85.6895 79.5601 82.5542 76.2489C79.4188 72.9377 75.4237 70.6515 71.3068 68.8659C68.0783 67.4651 64.489 66.6534 60.9974 66.4821C57.5058 66.3107 54.0759 66.8503 51.3178 69.0974C48.5597 71.3444 46.8221 75.1006 47.3873 78.7109C44.8892 76.4758 40.4582 77.4408 39.0198 80.5341C38.623 81.3818 38.4411 82.3904 38.7568 83.2756C39.0724 84.1594 39.9878 84.8403 40.8685 84.6374C37.0523 83.9806 33.0346 87.2016 32.6499 91.2283C32.4545 93.2815 33.4164 95.6969 35.3463 96.1192C33.4946 97.4103 33.6073 100.278 34.1574 102.536C35.0307 106.116 36.4781 109.541 38.4201 112.627C38.62 112.943 38.8334 113.265 39.0949 113.523C39.3384 113.764 39.6751 113.875 40.0088 113.831Z" stroke="#340096" stroke-width="0.75" stroke-linecap="round" stroke-linejoin="round"/>
</g>
<mask id="mask28_2585_43149" style="mask-type:alpha" maskUnits="userSpaceOnUse" x="1" y="44" width="122" height="123">
<path d="M1 105.475C1 139.102 28.2623 166.363 61.8901 166.363C95.5179 166.363 122.779 139.102 122.779 105.475C122.779 71.8453 95.5179 44.5859 61.8901 44.5859C28.2623 44.5859 1 71.8453 1 105.475Z" fill="white"/>
</mask>
<g mask="url(#mask28_2585_43149)">
<path d="M45.8594 120.38C45.8594 120.38 48.6941 121.133 51.9227 120.524" stroke="#340096" stroke-width="0.75" stroke-linecap="round" stroke-linejoin="round"/>
</g>
<mask id="mask29_2585_43149" style="mask-type:alpha" maskUnits="userSpaceOnUse" x="1" y="44" width="122" height="123">
<path d="M1 105.475C1 139.102 28.2623 166.363 61.8901 166.363C95.5179 166.363 122.779 139.102 122.779 105.475C122.779 71.8453 95.5179 44.5859 61.8901 44.5859C28.2623 44.5859 1 71.8453 1 105.475Z" fill="white"/>
</mask>
<g mask="url(#mask29_2585_43149)">
<path fill-rule="evenodd" clip-rule="evenodd" d="M124.976 160.035C124.976 160.035 100.079 136.37 74.222 142.935C73.1293 145.535 62.9732 151.274 46.9642 143.862C18.1357 148.271 13.7843 150.892 9.04371 155.834C3.1788 161.947 6.51557 172.081 6.51557 172.081H141.034L124.976 160.035Z" fill="#BCD7FE"/>
</g>
<mask id="mask30_2585_43149" style="mask-type:alpha" maskUnits="userSpaceOnUse" x="1" y="44" width="122" height="123">
<path d="M1 105.475C1 139.102 28.2623 166.363 61.8901 166.363C95.5179 166.363 122.779 139.102 122.779 105.475C122.779 71.8453 95.5179 44.5859 61.8901 44.5859C28.2623 44.5859 1 71.8453 1 105.475Z" fill="white"/>
</mask>
<g mask="url(#mask30_2585_43149)">
<path fill-rule="evenodd" clip-rule="evenodd" d="M124.976 160.035C124.976 160.035 100.079 136.37 74.222 142.935C73.1293 145.535 62.9732 151.274 46.9642 143.862C18.1357 148.271 13.7843 150.892 9.04371 155.834C3.1788 161.947 6.51557 172.081 6.51557 172.081H141.034L124.976 160.035Z" stroke="#340096" stroke-width="0.75" stroke-linecap="round" stroke-linejoin="round"/>
</g>
<path fill-rule="evenodd" clip-rule="evenodd" d="M1 105.476C1 139.103 28.2623 166.364 61.8901 166.364C95.5179 166.364 122.779 139.103 122.779 105.476C122.779 71.8463 95.5179 44.5854 61.8901 44.5854C28.2623 44.5854 1 71.8463 1 105.476Z" stroke="#0E0916" stroke-width="0.75" stroke-linecap="round" stroke-linejoin="round"/>
<path fill-rule="evenodd" clip-rule="evenodd" d="M242.415 77.5381C221.578 77.5381 204.684 94.4309 204.684 115.271C204.684 126.99 210.028 137.465 218.414 144.385L211.287 161.49L230.867 151.185C234.509 152.354 238.385 153 242.415 153C263.253 153 280.147 136.109 280.147 115.271C280.147 94.4309 263.253 77.5381 242.415 77.5381Z" fill="#BCD7FE"/>
<path fill-rule="evenodd" clip-rule="evenodd" d="M242.415 77.5381C221.578 77.5381 204.684 94.4309 204.684 115.271C204.684 126.99 210.028 137.465 218.414 144.385L211.287 161.49L230.867 151.185C234.509 152.354 238.385 153 242.415 153C263.253 153 280.147 136.109 280.147 115.271C280.147 94.4309 263.253 77.5381 242.415 77.5381Z" stroke="#0E0916" stroke-width="0.75" stroke-linecap="round" stroke-linejoin="round"/>
<path fill-rule="evenodd" clip-rule="evenodd" d="M242.572 99.0273L242.916 102.151C243.623 108.578 249.636 113.049 255.994 111.877L259.394 111.25L256.021 112.953C250.218 115.881 248.15 123.141 251.541 128.687L252.969 131.026L250.266 128.439C245.965 124.321 239.181 124.321 234.878 128.439L232.176 131.026L233.603 128.687C236.994 123.141 234.926 115.881 229.123 112.953L225.75 111.25L229.15 111.877C235.508 113.049 241.522 108.578 242.228 102.151L242.572 99.0273Z" fill="#FBFBFC"/>
<path fill-rule="evenodd" clip-rule="evenodd" d="M242.572 99.0273L242.916 102.151C243.623 108.578 249.636 113.049 255.994 111.877L259.394 111.25L256.021 112.953C250.218 115.881 248.15 123.141 251.541 128.687L252.969 131.026L250.266 128.439C245.965 124.321 239.181 124.321 234.878 128.439L232.176 131.026L233.603 128.687C236.994 123.141 234.926 115.881 229.123 112.953L225.75 111.25L229.15 111.877C235.508 113.049 241.522 108.578 242.228 102.151L242.572 99.0273Z" stroke="#0E0916" stroke-width="0.75" stroke-linecap="round" stroke-linejoin="round"/>
<path fill-rule="evenodd" clip-rule="evenodd" d="M142.241 93.2305L142.457 95.1874C142.899 99.2111 146.666 102.014 150.649 101.279L152.78 100.887L150.666 101.953C147.031 103.788 145.736 108.336 147.859 111.81L148.754 113.275L147.061 111.655C144.365 109.074 140.117 109.074 137.421 111.655L135.728 113.275L136.624 111.81C138.746 108.336 137.451 103.788 133.816 101.953L131.703 100.887L133.833 101.279C137.816 102.014 141.584 99.2111 142.025 95.1874L142.241 93.2305Z" fill="#FBFBFC"/>
<path fill-rule="evenodd" clip-rule="evenodd" d="M142.241 93.2305L142.457 95.1874C142.899 99.2111 146.666 102.014 150.649 101.279L152.78 100.887L150.666 101.953C147.031 103.788 145.736 108.336 147.859 111.81L148.754 113.275L147.061 111.655C144.365 109.074 140.117 109.074 137.421 111.655L135.728 113.275L136.624 111.81C138.746 108.336 137.451 103.788 133.816 101.953L131.703 100.887L133.833 101.279C137.816 102.014 141.584 99.2111 142.025 95.1874L142.241 93.2305Z" stroke="#0E0916" stroke-width="0.75" stroke-linecap="round" stroke-linejoin="round"/>
<path fill-rule="evenodd" clip-rule="evenodd" d="M115.624 119.637L115.809 121.314C116.189 124.762 119.416 127.164 122.83 126.534L124.654 126.198L122.845 127.111C119.727 128.685 118.618 132.579 120.438 135.559L121.206 136.814L119.754 135.425C117.446 133.214 113.804 133.214 111.495 135.425L110.043 136.814L110.811 135.559C112.632 132.579 111.521 128.685 108.405 127.111L106.594 126.198L108.42 126.534C111.833 127.164 115.06 124.762 115.441 121.314L115.624 119.637Z" fill="#FBFBFC"/>
<path fill-rule="evenodd" clip-rule="evenodd" d="M115.624 119.637L115.809 121.314C116.189 124.762 119.416 127.164 122.83 126.534L124.654 126.198L122.845 127.111C119.727 128.685 118.618 132.579 120.438 135.559L121.206 136.814L119.754 135.425C117.446 133.214 113.804 133.214 111.495 135.425L110.043 136.814L110.811 135.559C112.632 132.579 111.521 128.685 108.405 127.111L106.594 126.198L108.42 126.534C111.833 127.164 115.06 124.762 115.441 121.314L115.624 119.637Z" stroke="#0E0916" stroke-width="0.75" stroke-linecap="round" stroke-linejoin="round"/>
<path fill-rule="evenodd" clip-rule="evenodd" d="M121.518 1C105.052 1 91.7031 14.3486 91.7031 30.816C91.7031 40.0778 95.9267 48.3536 102.554 53.8217L96.9217 67.3387L112.394 59.1951C115.271 60.1195 118.334 60.6305 121.518 60.6305C137.984 60.6305 151.332 47.282 151.332 30.816C151.332 14.3486 137.984 1 121.518 1Z" fill="#FFA578"/>
<path fill-rule="evenodd" clip-rule="evenodd" d="M121.518 1C105.052 1 91.7031 14.3486 91.7031 30.816C91.7031 40.0778 95.9267 48.3536 102.554 53.8217L96.9217 67.3387L112.394 59.1951C115.271 60.1195 118.334 60.6305 121.518 60.6305C137.984 60.6305 151.332 47.282 151.332 30.816C151.332 14.3486 137.984 1 121.518 1Z" stroke="#0E0916" stroke-width="0.75" stroke-linecap="round" stroke-linejoin="round"/>
<path fill-rule="evenodd" clip-rule="evenodd" d="M128.653 27.8774L128.864 29.7848C129.295 33.7033 132.963 36.4313 136.841 35.7174L138.916 35.3341L136.859 36.3727C133.319 38.1598 132.056 42.5893 134.125 45.9727L134.996 47.3991L133.347 45.8209C130.722 43.3093 126.584 43.3093 123.959 45.8209L122.311 47.3991L123.181 45.9727C125.249 42.5893 123.988 38.1598 120.448 36.3727L118.391 35.3341L120.465 35.7174C124.343 36.4313 128.012 33.7033 128.443 29.7848L128.653 27.8774Z" fill="#FBFBFC"/>
<path fill-rule="evenodd" clip-rule="evenodd" d="M128.653 27.8774L128.864 29.7848C129.295 33.7033 132.963 36.4313 136.841 35.7174L138.916 35.3341L136.859 36.3727C133.319 38.1598 132.056 42.5893 134.125 45.9727L134.996 47.3991L133.347 45.8209C130.722 43.3093 126.584 43.3093 123.959 45.8209L122.311 47.3991L123.181 45.9727C125.249 42.5893 123.988 38.1598 120.448 36.3727L118.391 35.3341L120.465 35.7174C124.343 36.4313 128.012 33.7033 128.443 29.7848L128.653 27.8774Z" stroke="#0E0916" stroke-width="0.75" stroke-linecap="round" stroke-linejoin="round"/>
<path fill-rule="evenodd" clip-rule="evenodd" d="M112.153 15.3862L112.309 16.7991C112.628 19.706 115.348 21.7291 118.224 21.1985L119.761 20.916L118.237 21.684C115.611 23.0097 114.677 26.2939 116.21 28.804L116.856 29.8606L115.632 28.6912C113.688 26.8275 110.618 26.8275 108.672 28.6912L107.448 29.8606L108.096 28.804C109.629 26.2939 108.693 23.0097 106.069 21.684L104.543 20.916L106.081 21.1985C108.956 21.7291 111.678 19.706 111.997 16.7991L112.153 15.3862Z" fill="#FBFBFC"/>
<path fill-rule="evenodd" clip-rule="evenodd" d="M112.153 15.3862L112.309 16.7991C112.628 19.706 115.348 21.7291 118.224 21.1985L119.761 20.916L118.237 21.684C115.611 23.0097 114.677 26.2939 116.21 28.804L116.856 29.8606L115.632 28.6912C113.688 26.8275 110.618 26.8275 108.672 28.6912L107.448 29.8606L108.096 28.804C109.629 26.2939 108.693 23.0097 106.069 21.684L104.543 20.916L106.081 21.1985C108.956 21.7291 111.678 19.706 111.997 16.7991L112.153 15.3862Z" stroke="#0E0916" stroke-width="0.75" stroke-linecap="round" stroke-linejoin="round"/>
</svg>
