<svg viewBox="0 0 2937 585" fill="none" xmlns="http://www.w3.org/2000/svg">
<path fill-rule="evenodd" clip-rule="evenodd" d="M74.173 194.233C90.846 172.381 87.982 142.169 67.776 126.751C47.57 111.334 17.673 116.55 1 138.402L16.843 150.49C26.296 138.101 43.247 135.143 54.703 143.884C66.16 152.626 67.784 169.755 58.33 182.146L74.173 194.233Z" stroke="#BC99FF" stroke-width="1.75" stroke-linecap="round" stroke-linejoin="round"/>
<path fill-rule="evenodd" clip-rule="evenodd" d="M2548.17 189.342C2564.85 167.49 2561.98 137.278 2541.78 121.86C2521.57 106.443 2491.67 111.659 2475 133.511L2490.84 145.599C2500.3 133.21 2517.25 130.252 2528.7 138.993C2540.16 147.735 2541.78 164.864 2532.33 177.255L2548.17 189.342Z" stroke="#BC99FF" stroke-width="1.75" stroke-linecap="round" stroke-linejoin="round"/>
<path fill-rule="evenodd" clip-rule="evenodd" d="M365.128 468.94C343.158 485.457 337.729 515.314 353.002 535.63C368.274 555.946 398.466 559.025 420.436 542.508L408.461 526.58C396.005 535.944 378.887 534.199 370.228 522.681C361.568 511.161 364.646 494.233 377.104 484.867L365.128 468.94Z" stroke="#BC99FF" stroke-width="1.75" stroke-linecap="round" stroke-linejoin="round"/>
<path fill-rule="evenodd" clip-rule="evenodd" d="M2242.85 476C2226.18 497.852 2229.04 528.064 2249.25 543.482C2269.45 558.899 2299.35 553.683 2316.02 531.831L2300.18 519.743C2290.73 532.132 2273.78 535.09 2262.32 526.349C2250.86 517.607 2249.24 500.478 2258.69 488.087L2242.85 476Z" stroke="#BC99FF" stroke-width="1.75" stroke-linecap="round" stroke-linejoin="round"/>
<path fill-rule="evenodd" clip-rule="evenodd" d="M2862.85 297C2846.18 318.852 2849.04 349.064 2869.25 364.482C2889.45 379.899 2919.35 374.683 2936.02 352.831L2920.18 340.743C2910.73 353.132 2893.78 356.09 2882.32 347.349C2870.86 338.607 2869.24 321.478 2878.69 309.087L2862.85 297Z" stroke="#BC99FF" stroke-width="1.75" stroke-linecap="round" stroke-linejoin="round"/>
<path fill-rule="evenodd" clip-rule="evenodd" d="M952.539 528.24L983.343 535.809L986.649 554.272L1009.36 556.241L1021.56 583.264L1064.77 535.046L1033.81 527.946L1030.2 509.554L1007.44 507.926L994.78 481.117L952.539 528.24Z" stroke="#BC99FF" stroke-width="1.75" stroke-linecap="round" stroke-linejoin="round"/>
<path fill-rule="evenodd" clip-rule="evenodd" d="M1955.23 59.024L1924.43 51.455L1921.12 32.992L1898.42 31.023L1886.22 3.99996L1843 52.218L1873.96 59.318L1877.57 77.71L1900.33 79.338L1912.99 106.147L1955.23 59.024Z" stroke="#BC99FF" stroke-width="1.75" stroke-linecap="round" stroke-linejoin="round"/>
<path fill-rule="evenodd" clip-rule="evenodd" d="M2617.96 569.239L2625.09 538.331L2643.51 534.764L2645.16 512.032L2672 499.449L2623.18 456.921L2616.52 487.977L2598.18 491.851L2596.87 514.632L2570.25 527.669L2617.96 569.239Z" stroke="#BC99FF" stroke-width="1.75" stroke-linecap="round" stroke-linejoin="round"/>
<path fill-rule="evenodd" clip-rule="evenodd" d="M74.7968 121.502L72.3828 146.315L92.6648 160.813L115.361 150.497L117.776 125.683L97.4928 111.186L74.7968 121.502Z" stroke="#BC99FF" stroke-width="1.75" stroke-linecap="round" stroke-linejoin="round"/>
<path fill-rule="evenodd" clip-rule="evenodd" d="M1071.41 29.316L1069 54.129L1089.28 68.627L1111.98 58.311L1114.39 33.497L1094.11 19L1071.41 29.316Z" stroke="#BC99FF" stroke-width="1.75" stroke-linecap="round" stroke-linejoin="round"/>
<path fill-rule="evenodd" clip-rule="evenodd" d="M2210.98 501.311L2213.39 476.498L2193.11 462L2170.41 472.316L2168 497.13L2188.28 511.627L2210.98 501.311Z" stroke="#BC99FF" stroke-width="1.75" stroke-linecap="round" stroke-linejoin="round"/>
<path fill-rule="evenodd" clip-rule="evenodd" d="M845.031 476.41L814 509.64L827.263 553.13L871.558 563.388L902.589 530.157L889.325 486.668L845.031 476.41Z" stroke="#BC99FF" stroke-width="1.75" stroke-linecap="round" stroke-linejoin="round"/>
<path fill-rule="evenodd" clip-rule="evenodd" d="M586.031 4L555 37.23L568.263 80.72L612.558 90.978L643.589 57.747L630.325 14.258L586.031 4Z" stroke="#BC99FF" stroke-width="1.75" stroke-linecap="round" stroke-linejoin="round"/>
<path fill-rule="evenodd" clip-rule="evenodd" d="M2256.7 87.978L2287.73 54.748L2274.47 11.258L2230.18 1.00002L2199.15 34.231L2212.41 77.72L2256.7 87.978Z" stroke="#BC99FF" stroke-width="1.75" stroke-linecap="round" stroke-linejoin="round"/>
<path fill-rule="evenodd" clip-rule="evenodd" d="M932.828 476.641C936.688 491.401 927.853 506.495 913.093 510.356C898.333 514.216 883.239 505.381 879.378 490.621C875.518 475.861 884.353 460.766 899.113 456.906C913.873 453.045 928.968 461.881 932.828 476.641Z" stroke="#BC99FF" stroke-width="1.75" stroke-linecap="round" stroke-linejoin="round"/>
<path fill-rule="evenodd" clip-rule="evenodd" d="M1872.36 47.6409C1876.22 62.4009 1867.38 77.4949 1852.62 81.3559C1837.86 85.2159 1822.77 76.3809 1818.91 61.6209C1815.05 46.8609 1823.88 31.7659 1838.64 27.9059C1853.4 24.0449 1868.5 32.8809 1872.36 47.6409Z" stroke="#BC99FF" stroke-width="1.75" stroke-linecap="round" stroke-linejoin="round"/>
<path fill-rule="evenodd" clip-rule="evenodd" d="M646.356 87.6409C650.216 102.401 641.381 117.495 626.621 121.356C611.861 125.216 596.767 116.381 592.906 101.621C589.046 86.8609 597.881 71.7659 612.641 67.9059C627.401 64.0449 642.496 72.8809 646.356 87.6409Z" stroke="#BC99FF" stroke-width="1.75" stroke-linecap="round" stroke-linejoin="round"/>
<path fill-rule="evenodd" clip-rule="evenodd" d="M130.356 24.6409C134.216 39.4009 125.381 54.4949 110.621 58.3559C95.8606 62.2159 80.7666 53.3809 76.9056 38.6209C73.0456 23.8609 81.8806 8.76595 96.6406 4.90595C111.401 1.04495 126.496 9.88095 130.356 24.6409Z" stroke="#BC99FF" stroke-width="1.75" stroke-linecap="round" stroke-linejoin="round"/>
<path fill-rule="evenodd" clip-rule="evenodd" d="M315.356 476.641C319.216 491.401 310.381 506.495 295.621 510.356C280.861 514.216 265.767 505.381 261.906 490.621C258.046 475.861 266.881 460.766 281.641 456.906C296.401 453.045 311.496 461.881 315.356 476.641Z" stroke="#BC99FF" stroke-width="1.75" stroke-linecap="round" stroke-linejoin="round"/>
<path fill-rule="evenodd" clip-rule="evenodd" d="M2168.91 87.7472C2165.05 72.9872 2173.88 57.8932 2188.64 54.0322C2203.4 50.1722 2218.5 59.0072 2222.36 73.7672C2226.22 88.5272 2217.38 103.622 2202.62 107.482C2187.86 111.343 2172.77 102.507 2168.91 87.7472Z" stroke="#BC99FF" stroke-width="1.75" stroke-linecap="round" stroke-linejoin="round"/>
<path fill-rule="evenodd" clip-rule="evenodd" d="M65.3556 314.641C69.2156 329.401 60.3806 344.495 45.6206 348.356C30.8606 352.216 15.7666 343.381 11.9056 328.621C8.04561 313.861 16.8806 298.766 31.6406 294.906C46.4006 291.045 61.4956 299.881 65.3556 314.641Z" stroke="#BC99FF" stroke-width="1.75" stroke-linecap="round" stroke-linejoin="round"/>
<path fill-rule="evenodd" clip-rule="evenodd" d="M2389.91 526.621C2386.05 511.861 2394.88 496.767 2409.64 492.906C2424.4 489.046 2439.5 497.881 2443.36 512.641C2447.22 527.401 2438.38 542.496 2423.62 546.356C2408.86 550.217 2393.77 541.381 2389.91 526.621Z" stroke="#BC99FF" stroke-width="1.75" stroke-linecap="round" stroke-linejoin="round"/>
<path fill-rule="evenodd" clip-rule="evenodd" d="M832.792 22.6774C846.58 11.7874 871.66 20.5604 888.811 42.2734C905.961 63.9864 908.688 90.4164 894.9 101.306C881.113 112.197 856.032 103.423 838.882 81.7114C821.731 59.9984 819.005 33.5684 832.792 22.6774Z" stroke="#BC99FF" stroke-width="1.75" stroke-linecap="round" stroke-linejoin="round"/>
<path fill-rule="evenodd" clip-rule="evenodd" d="M1978.98 465.586C1965.19 476.476 1940.11 467.703 1922.96 445.99C1905.81 424.277 1903.09 397.847 1916.87 386.957C1930.66 376.066 1955.74 384.84 1972.89 406.552C1990.04 428.265 1992.77 454.695 1978.98 465.586Z" stroke="#BC99FF" stroke-width="1.75" stroke-linecap="round" stroke-linejoin="round"/>
<path fill-rule="evenodd" clip-rule="evenodd" d="M2648.1 91.5472C2634.22 80.7633 2636.75 54.3131 2653.73 32.4674C2670.71 10.6228 2695.72 1.65468 2709.59 12.4385C2723.46 23.2212 2720.94 49.6726 2703.96 71.5171C2686.98 93.3627 2661.97 102.33 2648.1 91.5472Z" stroke="#BC99FF" stroke-width="1.75" stroke-linecap="round" stroke-linejoin="round"/>
<path fill-rule="evenodd" clip-rule="evenodd" d="M317.795 19.0131L309.826 49.716L291.322 52.7816L289.057 75.4611L261.878 87.3106L309.53 131.148L317.032 100.285L335.469 96.9105L337.393 74.1727L364.365 61.8634L317.795 19.0131Z" stroke="#BC99FF" stroke-width="1.75" stroke-linecap="round" stroke-linejoin="round"/>
</svg>
