<svg  viewBox="0 0 890 462" fill="none" xmlns="http://www.w3.org/2000/svg">
<path fill-rule="evenodd" clip-rule="evenodd" d="M88.2218 311.979C100.577 295.784 98.4543 273.395 83.4815 261.969C68.5087 250.543 46.3548 254.409 34 270.603L45.7398 279.561C52.7445 270.38 65.3054 268.188 73.7943 274.666C82.2841 281.144 83.4875 293.838 76.482 303.021L88.2218 311.979Z" stroke="#BC99FF" stroke-width="1.75" stroke-linecap="round" stroke-linejoin="round"/>
<path fill-rule="evenodd" clip-rule="evenodd" d="M209.652 419.507L232.478 425.116L234.928 438.799L251.754 440.258L260.796 460.285L292.818 424.551L269.878 419.289L267.2 405.659L250.334 404.453L240.953 384.585L209.652 419.507Z" stroke="#BC99FF" stroke-width="1.75" stroke-linecap="round" stroke-linejoin="round"/>
<path fill-rule="evenodd" clip-rule="evenodd" d="M48.6833 88.0786L46.8945 106.467L61.9236 117.211L78.7416 109.566L80.5311 91.1771L65.5012 80.4336L48.6833 88.0786Z" stroke="#BC99FF" stroke-width="1.75" stroke-linecap="round" stroke-linejoin="round"/>
<path fill-rule="evenodd" clip-rule="evenodd" d="M246.633 25.7085L244.844 44.0971L259.873 54.8413L276.691 47.1963L278.48 28.807L263.45 18.0635L246.633 25.7085Z" stroke="#BC99FF" stroke-width="1.75" stroke-linecap="round" stroke-linejoin="round"/>
<path fill-rule="evenodd" clip-rule="evenodd" d="M119.986 381.096L96.9922 405.722L106.82 437.952L139.643 445.554L162.637 420.927L152.809 388.698L119.986 381.096Z" stroke="#BC99FF" stroke-width="1.75" stroke-linecap="round" stroke-linejoin="round"/>
<path fill-rule="evenodd" clip-rule="evenodd" d="M185.047 381.267C187.908 392.206 181.361 403.392 170.424 406.253C159.486 409.114 148.302 402.566 145.441 391.628C142.58 380.689 149.127 369.503 160.064 366.642C171.002 363.781 182.187 370.329 185.047 381.267Z" stroke="#BC99FF" stroke-width="1.75" stroke-linecap="round" stroke-linejoin="round"/>
<path fill-rule="evenodd" clip-rule="evenodd" d="M89.8521 16.2967C92.7124 27.2351 86.1656 38.4211 75.2284 41.2824C64.2911 44.143 53.1063 37.5955 50.2453 26.6571C47.385 15.7187 53.9318 4.53197 64.8691 1.67138C75.8063 -1.18995 86.9918 5.35828 89.8521 16.2967Z" stroke="#BC99FF" stroke-width="1.75" stroke-linecap="round" stroke-linejoin="round"/>
<path fill-rule="evenodd" clip-rule="evenodd" d="M41.6881 231.212C44.5484 242.15 38.0016 253.336 27.0643 256.197C16.127 259.058 4.94225 252.511 2.08122 241.572C-0.77907 230.634 5.76772 219.447 16.705 216.586C27.6423 213.725 38.8278 220.273 41.6881 231.212Z" stroke="#BC99FF" stroke-width="1.75" stroke-linecap="round" stroke-linejoin="round"/>
<path fill-rule="evenodd" clip-rule="evenodd" d="M126.964 17.6581C134.75 11.4695 148.912 16.455 158.597 28.7942C168.281 41.1333 169.821 56.153 162.035 62.3416C154.25 68.5308 140.087 63.5447 130.403 51.2061C120.718 38.867 119.179 23.8473 126.964 17.6581Z" stroke="#BC99FF" stroke-width="1.75" stroke-linecap="round" stroke-linejoin="round"/>
<path fill-rule="evenodd" clip-rule="evenodd" d="M840.818 254.347C829.961 268.577 831.826 288.252 844.983 298.292C858.14 308.332 877.608 304.936 888.465 290.705L878.149 282.833C871.993 290.901 860.955 292.827 853.496 287.135C846.036 281.442 844.978 270.287 851.134 262.218L840.818 254.347Z" stroke="#BC99FF" stroke-width="1.75" stroke-linecap="round" stroke-linejoin="round"/>
<path fill-rule="evenodd" clip-rule="evenodd" d="M762.523 46.8329L742.465 41.9037L740.312 29.8802L725.527 28.5979L717.581 10.9999L689.442 42.4006L709.601 47.0243L711.954 59.0016L726.775 60.0618L735.018 77.5205L762.523 46.8329Z" stroke="#BC99FF" stroke-width="1.75" stroke-linecap="round" stroke-linejoin="round"/>
<path fill-rule="evenodd" clip-rule="evenodd" d="M820.412 311.711L821.984 295.552L808.778 286.111L793.999 292.829L792.426 308.988L805.634 318.429L820.412 311.711Z" stroke="#BC99FF" stroke-width="1.75" stroke-linecap="round" stroke-linejoin="round"/>
<path fill-rule="evenodd" clip-rule="evenodd" d="M822.528 110.586L842.734 88.9457L834.098 60.624L805.255 53.9437L785.049 75.5846L793.686 103.906L822.528 110.586Z" stroke="#BC99FF" stroke-width="1.75" stroke-linecap="round" stroke-linejoin="round"/>
<path fill-rule="evenodd" clip-rule="evenodd" d="M765.356 110.436C762.843 100.823 768.596 90.9939 778.207 88.4795C787.818 85.9658 797.646 91.7194 800.16 101.331C802.674 110.944 796.921 120.774 787.31 123.287C777.699 125.802 767.869 120.048 765.356 110.436Z" stroke="#BC99FF" stroke-width="1.75" stroke-linecap="round" stroke-linejoin="round"/>
<path fill-rule="evenodd" clip-rule="evenodd" d="M843.758 170.812C841.245 161.199 846.998 151.37 856.609 148.855C866.22 146.342 876.049 152.095 878.563 161.707C881.076 171.319 875.323 181.15 865.712 183.663C856.101 186.178 846.272 180.424 843.758 170.812Z" stroke="#BC99FF" stroke-width="1.75" stroke-linecap="round" stroke-linejoin="round"/>
<path fill-rule="evenodd" clip-rule="evenodd" d="M765.627 432.954C756.649 440.046 740.318 434.333 729.15 420.193C717.982 406.053 716.207 388.841 725.185 381.749C734.162 374.656 750.494 380.37 761.661 394.51C772.829 408.65 774.604 425.861 765.627 432.954Z" stroke="#BC99FF" stroke-width="1.75" stroke-linecap="round" stroke-linejoin="round"/>
</svg>
