<svg  viewBox="0 0 1114 526" fill="none" xmlns="http://www.w3.org/2000/svg">
<path fill-rule="evenodd" clip-rule="evenodd" d="M67.1851 173.084C82.2658 153.317 79.6753 125.987 61.399 112.04C43.1226 98.0938 16.0807 102.812 1 122.579L15.33 133.514C23.8803 122.307 39.2125 119.631 49.5744 127.538C59.9373 135.446 61.4062 150.941 52.8551 162.15L67.1851 173.084Z" stroke="#BC99FF" stroke-width="1.75" stroke-linecap="round" stroke-linejoin="round"/>
<path fill-rule="evenodd" clip-rule="evenodd" d="M227.613 475.226L255.476 482.073L258.466 498.774L279.004 500.555L290.041 525L329.128 481.383L301.127 474.96L297.858 458.323L277.27 456.85L265.82 432.599L227.613 475.226Z" stroke="#BC99FF" stroke-width="1.75" stroke-linecap="round" stroke-linejoin="round"/>
<path fill-rule="evenodd" clip-rule="evenodd" d="M67.7499 107.292L65.5664 129.738L83.9115 142.852L104.44 133.521L106.624 111.074L88.2784 97.96L67.7499 107.292Z" stroke="#BC99FF" stroke-width="1.75" stroke-linecap="round" stroke-linejoin="round"/>
<path fill-rule="evenodd" clip-rule="evenodd" d="M345.988 79.9856L343.805 102.431L362.15 115.546L382.678 106.214L384.863 83.7677L366.517 70.6538L345.988 79.9856Z" stroke="#BC99FF" stroke-width="1.75" stroke-linecap="round" stroke-linejoin="round"/>
<path fill-rule="evenodd" clip-rule="evenodd" d="M130.372 428.34L102.305 458.4L114.301 497.741L154.366 507.02L182.434 476.96L170.436 437.62L130.372 428.34Z" stroke="#BC99FF" stroke-width="1.75" stroke-linecap="round" stroke-linejoin="round"/>
<path fill-rule="evenodd" clip-rule="evenodd" d="M209.786 428.549C213.277 441.901 205.286 455.555 191.935 459.048C178.585 462.539 164.932 454.547 161.44 441.195C157.949 427.844 165.94 414.189 179.291 410.697C192.641 407.204 206.294 415.197 209.786 428.549Z" stroke="#BC99FF" stroke-width="1.75" stroke-linecap="round" stroke-linejoin="round"/>
<path fill-rule="evenodd" clip-rule="evenodd" d="M118.001 19.6717C121.492 33.0235 113.501 46.6775 100.15 50.1702C86.7999 53.6619 73.1473 45.6698 69.6551 32.318C66.1637 18.9661 74.1549 5.31125 87.5054 1.81951C100.856 -1.67313 114.509 6.31988 118.001 19.6717Z" stroke="#BC99FF" stroke-width="1.75" stroke-linecap="round" stroke-linejoin="round"/>
<path fill-rule="evenodd" clip-rule="evenodd" d="M59.2116 282.005C62.703 295.357 54.7117 309.011 41.3613 312.503C28.0108 315.995 14.3583 308.003 10.866 294.651C7.37463 281.299 15.3659 267.644 28.7163 264.153C42.0668 260.66 55.7202 268.653 59.2116 282.005Z" stroke="#BC99FF" stroke-width="1.75" stroke-linecap="round" stroke-linejoin="round"/>
<path fill-rule="evenodd" clip-rule="evenodd" d="M169.952 62.2204C182.423 52.3694 205.108 60.3054 220.621 79.9469C236.133 99.5884 238.6 123.497 226.129 133.348C213.658 143.2 190.973 135.263 175.46 115.622C159.947 95.9808 157.482 72.0724 169.952 62.2204Z" stroke="#BC99FF" stroke-width="1.75" stroke-linecap="round" stroke-linejoin="round"/>
<path fill-rule="evenodd" clip-rule="evenodd" d="M1045.86 352.916C1030.78 372.683 1033.37 400.013 1051.65 413.96C1069.92 427.906 1096.97 423.187 1112.05 403.42L1097.72 392.485C1089.17 403.692 1073.83 406.368 1063.47 398.461C1053.11 390.553 1051.64 375.058 1060.19 363.85L1045.86 352.916Z" stroke="#BC99FF" stroke-width="1.75" stroke-linecap="round" stroke-linejoin="round"/>
<path fill-rule="evenodd" clip-rule="evenodd" d="M895.434 50.7746L867.571 43.9277L864.581 27.2261L844.043 25.445L833.006 1.0001L793.919 44.6179L821.92 51.0405L825.189 67.6779L845.776 69.1505L857.227 93.4019L895.434 50.7746Z" stroke="#BC99FF" stroke-width="1.75" stroke-linecap="round" stroke-linejoin="round"/>
<path fill-rule="evenodd" clip-rule="evenodd" d="M1045.3 418.708L1047.48 396.262L1029.14 383.148L1008.61 392.479L1006.42 414.926L1024.77 428.04L1045.3 418.708Z" stroke="#BC99FF" stroke-width="1.75" stroke-linecap="round" stroke-linejoin="round"/>
<path fill-rule="evenodd" clip-rule="evenodd" d="M992.675 97.6592L1020.74 67.5995L1008.75 28.2586L968.681 18.9792L940.613 49.0399L952.611 88.3798L992.675 97.6592Z" stroke="#BC99FF" stroke-width="1.75" stroke-linecap="round" stroke-linejoin="round"/>
<path fill-rule="evenodd" clip-rule="evenodd" d="M913.261 97.4504C909.77 84.0985 917.761 70.4445 931.111 66.9519C944.462 63.4602 958.114 71.4523 961.607 84.8041C965.098 98.1559 957.107 111.811 943.756 115.303C930.406 118.795 916.752 110.802 913.261 97.4504Z" stroke="#BC99FF" stroke-width="1.75" stroke-linecap="round" stroke-linejoin="round"/>
<path fill-rule="evenodd" clip-rule="evenodd" d="M1063.84 153.535C1060.34 140.183 1068.34 126.53 1081.69 123.037C1095.04 119.545 1108.69 127.537 1112.18 140.889C1115.67 154.241 1107.68 167.896 1094.33 171.388C1080.98 174.88 1067.33 166.887 1063.84 153.535Z" stroke="#BC99FF" stroke-width="1.75" stroke-linecap="round" stroke-linejoin="round"/>
<path fill-rule="evenodd" clip-rule="evenodd" d="M983.091 503.779C970.62 513.63 947.935 505.694 932.422 486.053C916.91 466.411 914.443 442.503 926.914 432.652C939.385 422.8 962.07 430.737 977.583 450.377C993.096 470.019 995.561 493.927 983.091 503.779Z" stroke="#BC99FF" stroke-width="1.75" stroke-linecap="round" stroke-linejoin="round"/>
</svg>
