<svg viewBox="0 0 455 573" fill="none" xmlns="http://www.w3.org/2000/svg">
<path fill-rule="evenodd" clip-rule="evenodd" d="M75.912 213.469C92.9813 191.032 90.0492 160.01 69.363 144.179C48.6768 128.349 18.0693 133.705 1 156.142L17.2195 168.554C26.8972 155.833 44.251 152.796 55.9793 161.771C67.7086 170.748 69.3712 188.335 59.6925 201.058L75.912 213.469Z" stroke="#BC99FF" stroke-width="1.75" stroke-linecap="round" stroke-linejoin="round"/>
<path fill-rule="evenodd" clip-rule="evenodd" d="M216.368 520.674L236.43 529.713L236.363 542.725L251.606 546.925L256.53 566.895L292.077 539.437L271.851 530.699L271.699 517.697L256.376 513.723L251.113 493.842L216.368 520.674Z" stroke="#BC99FF" stroke-width="1.75" stroke-linecap="round" stroke-linejoin="round"/>
<path fill-rule="evenodd" clip-rule="evenodd" d="M182.706 525.481C185.384 535.72 179.255 546.19 169.016 548.869C158.777 551.546 148.307 545.418 145.628 535.179C142.951 524.94 149.079 514.468 159.318 511.791C169.557 509.112 180.029 515.242 182.706 525.481Z" stroke="#BC99FF" stroke-width="1.75" stroke-linecap="round" stroke-linejoin="round"/>
<path fill-rule="evenodd" clip-rule="evenodd" d="M120.734 60.3186C123.411 70.5575 117.283 81.0282 107.044 83.7066C96.8046 86.3842 86.3339 80.2554 83.6556 70.0165C80.9779 59.7775 87.1067 49.3061 97.3457 46.6285C107.585 43.9501 118.056 50.0796 120.734 60.3186Z" stroke="#BC99FF" stroke-width="1.75" stroke-linecap="round" stroke-linejoin="round"/>
<path fill-rule="evenodd" clip-rule="evenodd" d="M81.5121 515.865C80.3007 511.233 83.0734 506.496 87.7054 505.284C92.3375 504.073 97.0744 506.845 98.2861 511.477C99.4975 516.109 96.7248 520.847 92.0927 522.058C87.4607 523.27 82.7235 520.497 81.5121 515.865Z" stroke="#BC99FF" stroke-width="1.75" stroke-linecap="round" stroke-linejoin="round"/>
<path fill-rule="evenodd" clip-rule="evenodd" d="M130.286 11.8646C129.074 7.2326 131.847 2.49573 136.479 1.28406C141.111 0.0726949 145.848 2.84533 147.06 7.47738C148.271 12.1094 145.498 16.8466 140.866 18.058C136.234 19.2697 131.497 16.4967 130.286 11.8646Z" stroke="#BC99FF" stroke-width="1.75" stroke-linecap="round" stroke-linejoin="round"/>
<path fill-rule="evenodd" clip-rule="evenodd" d="M75.6438 291.49C78.3215 301.729 72.1927 312.2 61.9537 314.878C51.7147 317.556 41.2441 311.427 38.5657 301.188C35.888 290.949 42.0169 280.478 52.2558 277.8C62.4948 275.122 72.9662 281.251 75.6438 291.49Z" stroke="#BC99FF" stroke-width="1.75" stroke-linecap="round" stroke-linejoin="round"/>
<path fill-rule="evenodd" clip-rule="evenodd" d="M163.099 49.2447C172.663 41.6903 190.061 47.7761 201.959 62.8384C213.856 77.9006 215.748 96.2351 206.183 103.789C196.619 111.344 179.22 105.258 167.323 90.1964C155.426 75.1342 153.535 56.7998 163.099 49.2447Z" stroke="#BC99FF" stroke-width="1.75" stroke-linecap="round" stroke-linejoin="round"/>
<path fill-rule="evenodd" clip-rule="evenodd" d="M79.3572 434.021C88.6489 441.909 86.1123 460.165 73.6911 474.798C61.2698 489.431 43.6681 494.9 34.3764 487.012C25.0842 479.126 27.6213 460.868 40.0419 446.236C52.4631 431.602 70.065 426.134 79.3572 434.021Z" stroke="#BC99FF" stroke-width="1.75" stroke-linecap="round" stroke-linejoin="round"/>
<path fill-rule="evenodd" clip-rule="evenodd" d="M351.855 76.1703L330.487 70.9197L328.193 58.1119L312.442 56.7461L303.977 38.0003L274 71.449L295.475 76.3742L297.982 89.1327L313.771 90.262L322.553 108.859L351.855 76.1703Z" stroke="#BC99FF" stroke-width="1.75" stroke-linecap="round" stroke-linejoin="round"/>
<path fill-rule="evenodd" clip-rule="evenodd" d="M405.63 411.016C402.952 400.777 409.081 390.307 419.32 387.628C429.559 384.951 440.029 391.08 442.708 401.319C445.385 411.557 439.257 422.029 429.018 424.707C418.779 427.385 408.307 421.255 405.63 411.016Z" stroke="#BC99FF" stroke-width="1.75" stroke-linecap="round" stroke-linejoin="round"/>
<path fill-rule="evenodd" clip-rule="evenodd" d="M399.525 441C387.959 456.158 389.946 477.116 403.963 487.812C417.98 498.506 438.719 494.888 450.285 479.729L439.295 471.344C432.737 479.938 420.979 481.99 413.032 475.926C405.084 469.862 403.957 457.98 410.515 449.384L399.525 441Z" stroke="#BC99FF" stroke-width="1.75" stroke-linecap="round" stroke-linejoin="round"/>
<path fill-rule="evenodd" clip-rule="evenodd" d="M431.927 115.336L453.453 92.2844L444.253 62.1155L413.525 54.9995L391.999 78.0518L401.2 108.22L431.927 115.336Z" stroke="#BC99FF" stroke-width="1.75" stroke-linecap="round" stroke-linejoin="round"/>
</svg>
