<svg xmlns="http://www.w3.org/2000/svg" fill="none" viewBox="0 0 54 54">
  <path stroke="#8900FF" stroke-linecap="round" stroke-linejoin="round" stroke-width="3" d="M5.758 7h42.484A3.755 3.755 0 0 1 52 10.758c0 13.8-11.19 24.992-25 24.992-13.807 0-25-11.19-25-25A3.753 3.753 0 0 1 5.758 7Z" clip-rule="evenodd"/>
  <path fill="#E6E2FF" fill-rule="evenodd" d="M26 35.75a4 4 0 0 0-4 4v4.75h-1a4 4 0 0 0-4 4V52h20v-3.5a4 4 0 0 0-4-4h-1v-4.75a4 4 0 0 0-4-4h-2Z" clip-rule="evenodd"/>
  <path fill="#8900FF" d="M22 44.5V46a1.5 1.5 0 0 0 1.5-1.5H22ZM17 52h-1.5a1.5 1.5 0 0 0 1.5 1.5V52Zm20 0v1.5a1.5 1.5 0 0 0 1.5-1.5H37Zm-5-7.5h-1.5A1.5 1.5 0 0 0 32 46v-1.5Zm-8.5-4.75a2.5 2.5 0 0 1 2.5-2.5v-3a5.5 5.5 0 0 0-5.5 5.5h3Zm0 4.75v-4.75h-3v4.75h3ZM21 46h1v-3h-1v3Zm-2.5 2.5A2.5 2.5 0 0 1 21 46v-3a5.5 5.5 0 0 0-5.5 5.5h3Zm0 3.5v-3.5h-3V52h3ZM37 50.5H17v3h20v-3Zm-1.5-2V52h3v-3.5h-3ZM33 46a2.5 2.5 0 0 1 2.5 2.5h3A5.5 5.5 0 0 0 33 43v3Zm-1 0h1v-3h-1v3Zm-1.5-6.25v4.75h3v-4.75h-3Zm-2.5-2.5a2.5 2.5 0 0 1 2.5 2.5h3a5.5 5.5 0 0 0-5.5-5.5v3Zm-2 0h2v-3h-2v3Z"/>
  <path fill="#E6E2FF" fill-rule="evenodd" stroke="#8900FF" stroke-linecap="round" stroke-linejoin="round" stroke-width="3" d="M12 3.35c0-.746.604-1.35 1.35-1.35h27.3c.746 0 1.35.604 1.35 1.35V34.1a5.4 5.4 0 0 1-5.4 5.4H17.4a5.4 5.4 0 0 1-5.4-5.4V3.35Z" clip-rule="evenodd"/>
  <path fill="#8900FF" fill-rule="evenodd" stroke="#8900FF" stroke-linecap="round" stroke-linejoin="round" stroke-width="3" d="m27 23.735-3.662 1.849c-.812.41-1.345.036-1.19-.83l.7-3.915-2.963-2.772c-.657-.615-.452-1.216.454-1.343l4.095-.57 1.83-3.562c.407-.79 1.066-.788 1.471 0l1.831 3.561 4.095.571c.908.127 1.11.73.454 1.343l-2.962 2.772.699 3.915c.155.868-.38 1.238-1.19.83L27 23.735Z" clip-rule="evenodd"/>
</svg>
