<svg xmlns="http://www.w3.org/2000/svg" fill="none" viewBox="0 0 50 50">
  <path stroke="#8900FF" stroke-linecap="round" stroke-linejoin="round" stroke-width="3" d="M48.438 45.313c0-5.178-10.494-9.376-23.438-9.376-12.944 0-23.438 4.198-23.438 9.376v3.124h46.876v-3.124ZM32.572 17.66l-1.69 18.575M17.68 36.404l10.93-20.04M28.613 16.364l17.242 5.644a1.566 1.566 0 0 0 2.031-1.793 9.854 9.854 0 0 0-7.5-8.367 14.208 14.208 0 0 0-5-.171M28.61 16.365l-15.695 4.26a1.562 1.562 0 0 1-1.946-1.819 9.909 9.909 0 0 1 7.533-8.52 13.223 13.223 0 0 1 6.484.164"/>
  <path stroke="#8900FF" stroke-linecap="round" stroke-linejoin="round" stroke-width="3" d="m38.707 11.598 6.458-6.492a1.555 1.555 0 0 0-.437-2.523 10.144 10.144 0 0 0-10.6 1.063 7.725 7.725 0 0 0-2.667 4.187M21.207 9.967l-4.062-4.409a1.559 1.559 0 0 1 .819-2.587c1.723-.333 3.474-.5 5.229-.498a10.586 10.586 0 0 1 8.267 5.36"/>
</svg>
