<svg xmlns="http://www.w3.org/2000/svg" fill="none" viewBox="0 0 50 50">
  <path stroke="#8900FF" stroke-linecap="round" stroke-linejoin="round" stroke-width="3" d="M17.188 21.925a11.6 11.6 0 0 0 15.625 0M20.313 12.5v3.125M29.688 12.5v3.125"/>
  <path stroke="#8900FF" stroke-linecap="round" stroke-linejoin="round" stroke-width="3" d="M43.75 31.25V7.812a3.125 3.125 0 0 0-3.125-3.125H9.375A3.125 3.125 0 0 0 6.25 7.813V31.25h37.5ZM48.17 40.919a3.125 3.125 0 0 1-2.857 4.394H4.688a3.125 3.125 0 0 1-2.856-4.394L6.25 31.25h37.5l4.42 9.669ZM21.875 39.063h6.25"/>
</svg>
