<svg viewBox="0 0 430 144" fill="none" xmlns="http://www.w3.org/2000/svg">
<path d="M0.882812 1.23291C43.6913 1.23291 43.6913 35.2308 86.4997 35.2308C129.311 35.2308 129.312 1.23291 172.122 1.23291C214.93 1.23291 214.93 35.2308 257.739 35.2308C300.554 35.2308 300.554 1.23291 343.369 1.23291C386.184 1.23291 386.184 35.2308 428.999 35.2308" stroke="#0E0916" stroke-width="1.25718" stroke-linecap="round" stroke-linejoin="round"/>
<path d="M0.882812 37.1104C43.6913 37.1104 43.6913 71.1083 86.4997 71.1083C129.311 71.1083 129.312 37.1104 172.122 37.1104C214.93 37.1104 214.93 71.1083 257.739 71.1083C300.554 71.1083 300.554 37.1104 343.369 37.1104C386.184 37.1104 386.184 71.1083 428.999 71.1083" stroke="#0E0916" stroke-width="1.25718" stroke-linecap="round" stroke-linejoin="round"/>
<path d="M0.882812 72.9885C43.6913 72.9885 43.6913 106.986 86.4997 106.986C129.311 106.986 129.312 72.9885 172.122 72.9885C214.93 72.9885 214.93 106.986 257.739 106.986C300.554 106.986 300.554 72.9885 343.369 72.9885C386.184 72.9885 386.184 106.986 428.999 106.986" stroke="#0E0916" stroke-width="1.25718" stroke-linecap="round" stroke-linejoin="round"/>
<path d="M0.882812 108.866C43.6913 108.866 43.6913 142.864 86.4997 142.864C129.311 142.864 129.312 108.866 172.122 108.866C214.93 108.866 214.93 142.864 257.739 142.864C300.554 142.864 300.554 108.866 343.369 108.866C386.184 108.866 386.184 142.864 428.999 142.864" stroke="#0E0916" stroke-width="1.25718" stroke-linecap="round" stroke-linejoin="round"/>
</svg>
