<svg viewBox="0 0 388 296" fill="none" xmlns="http://www.w3.org/2000/svg">
<path d="M168.856 152.013H76.4425L65.5714 140.235H9.39844" stroke="#0E0916" stroke-width="1.25718" stroke-linecap="round" stroke-linejoin="round"/>
<path d="M169.413 142.048H110.866L91.8404 120.304H22.0781" stroke="#0E0916" stroke-width="1.25718" stroke-linecap="round" stroke-linejoin="round"/>
<path d="M168.853 161.979H76.4399L61.9451 176.476H13.0195" stroke="#0E0916" stroke-width="1.25718" stroke-linecap="round" stroke-linejoin="round"/>
<path fill-rule="evenodd" clip-rule="evenodd" d="M12.7812 119.911C12.7812 123.516 15.706 126.441 19.3098 126.441C22.917 126.441 25.8401 123.516 25.8401 119.911C25.8401 116.303 22.917 113.38 19.3098 113.38C15.706 113.38 12.7812 116.303 12.7812 119.911Z" fill="#BC99FF"/>
<path fill-rule="evenodd" clip-rule="evenodd" d="M12.7812 119.911C12.7812 123.516 15.706 126.441 19.3098 126.441C22.917 126.441 25.8401 123.516 25.8401 119.911C25.8401 116.303 22.917 113.38 19.3098 113.38C15.706 113.38 12.7812 116.303 12.7812 119.911Z" stroke="#0E0916" stroke-width="1.25718" stroke-linecap="round" stroke-linejoin="round"/>
<path fill-rule="evenodd" clip-rule="evenodd" d="M1 139.295C1 142.901 3.92473 145.826 7.53024 145.826C11.1358 145.826 14.0588 142.901 14.0588 139.295C14.0588 135.688 11.1358 132.765 7.53024 132.765C3.92473 132.765 1 135.688 1 139.295Z" fill="#BC99FF"/>
<path fill-rule="evenodd" clip-rule="evenodd" d="M1 139.295C1 142.901 3.92473 145.826 7.53024 145.826C11.1358 145.826 14.0588 142.901 14.0588 139.295C14.0588 135.688 11.1358 132.765 7.53024 132.765C3.92473 132.765 1 135.688 1 139.295Z" stroke="#0E0916" stroke-width="1.25718" stroke-linecap="round" stroke-linejoin="round"/>
<path fill-rule="evenodd" clip-rule="evenodd" d="M4.55469 175.842C4.55469 179.449 7.47776 182.372 11.0833 182.372C14.6904 182.372 17.6135 179.449 17.6135 175.842C17.6135 172.236 14.6904 169.311 11.0833 169.311C7.47776 169.311 4.55469 172.236 4.55469 175.842Z" fill="#BC99FF"/>
<path fill-rule="evenodd" clip-rule="evenodd" d="M4.55469 175.842C4.55469 179.449 7.47776 182.372 11.0833 182.372C14.6904 182.372 17.6135 179.449 17.6135 175.842C17.6135 172.236 14.6904 169.311 11.0833 169.311C7.47776 169.311 4.55469 172.236 4.55469 175.842Z" stroke="#0E0916" stroke-width="1.25718" stroke-linecap="round" stroke-linejoin="round"/>
<path fill-rule="evenodd" clip-rule="evenodd" d="M285.063 0C203.392 0 137.188 66.2063 137.188 147.876C137.188 229.545 203.392 295.751 285.063 295.751V206.907C252.462 206.907 226.03 180.479 226.03 147.876C226.03 115.274 252.462 88.8457 285.063 88.8457V0Z" fill="#2250FF"/>
<mask id="mask0_2535_45005" style="mask-type:alpha" maskUnits="userSpaceOnUse" x="137" y="0" width="149" height="296">
<path d="M137.191 147.876C137.191 229.545 203.396 295.752 285.067 295.752V206.906C252.465 206.906 226.034 180.478 226.034 147.876C226.034 115.274 252.465 88.8443 285.067 88.8443V0.000244141C203.396 0.000244141 137.191 66.2065 137.191 147.876Z" fill="white"/>
</mask>
<g mask="url(#mask0_2535_45005)">
<path d="M311.84 -13.1593C294.409 -19.0782 275.809 -21.5419 257.438 -20.3654C243.882 -19.4979 227.826 -14.2648 224.85 -1.01096C222.771 8.26225 228.409 17.7057 235.666 23.8426C242.925 29.978 251.8 33.8743 259.49 39.4594C267.182 45.0428 274.011 53.2469 274.02 62.7498C274.028 73.4738 264.918 82.6346 254.606 85.5693C244.292 88.5023 233.191 86.3707 223.063 82.8478C183.809 69.1892 154.848 36.4487 126.787 5.78862C124.654 3.45875 121.845 0.91242 118.779 1.68243C115.653 2.46897 114.406 6.17198 113.804 9.33961C108.925 35.0921 113.021 62.4573 125.229 85.6503C129.655 94.0609 136.779 102.845 146.278 102.559C158.164 102.202 164.301 88.7452 169.44 78.0228C173.602 69.3412 178.824 61.1685 184.953 53.7459C190.624 46.8786 198.747 40.1203 207.433 42.0734C217.528 44.3438 221.474 56.7533 221.328 67.0972C221.145 80.1346 216.232 94.5005 204.499 100.19C197.081 103.785 188.281 103.265 180.589 106.237C170.045 110.314 162.738 120.967 161.404 132.191C160.069 143.416 164.24 154.904 171.423 163.631C175.732 168.868 183.18 173.445 188.927 169.846C195.599 165.669 192.031 153.947 184.551 151.493C177.069 149.039 168.966 153.076 163.019 158.236C146.321 172.721 139.345 196.904 144.013 218.512C145.778 226.682 149.202 234.729 155.206 240.542C161.213 246.357 170.099 249.59 178.173 247.429C198.42 242.011 199.91 210.462 218.939 201.679C228.462 197.284 240.916 200.695 246.871 209.328C253.621 219.115 251.597 232.572 246.75 243.43C234.196 271.566 203.527 290.552 172.746 289.244C168.711 289.074 164.451 288.491 161.297 285.968C158.723 283.909 157.206 280.786 156.305 277.615C153.098 266.332 157.232 253.464 166.021 245.697C174.812 237.933 187.717 235.365 198.998 238.579C206.63 240.752 213.346 245.271 220.512 248.678C231.846 254.067 244.482 256.684 257.022 256.241C275.191 255.597 293.981 247.627 303.495 232.135C304.662 230.236 305.689 227.827 304.635 225.864C303.759 224.235 301.79 223.582 299.987 223.167C279.886 218.549 258.107 226.131 243.07 240.248C228.032 254.363 219.289 274.277 215.938 294.628C212.587 314.977 214.276 335.85 217.655 356.196" stroke="#0E0916" stroke-width="1.25718" stroke-linecap="round" stroke-linejoin="round"/>
</g>
<mask id="mask1_2535_45005" style="mask-type:alpha" maskUnits="userSpaceOnUse" x="181" y="44" width="207" height="208">
<path d="M181 147.876C181 205.004 227.313 251.316 284.441 251.316C341.569 251.316 387.881 205.004 387.881 147.876C387.881 90.748 341.569 44.4365 284.441 44.4365C227.313 44.4365 181 90.748 181 147.876Z" fill="white"/>
</mask>
<g mask="url(#mask1_2535_45005)">
<path fill-rule="evenodd" clip-rule="evenodd" d="M284.531 88.7765C317.133 88.7765 343.563 115.185 343.563 147.762C343.563 180.339 317.133 206.747 284.531 206.747V295.523C366.201 295.523 432.405 229.368 432.405 147.762C432.405 66.1553 366.201 0.000244141 284.531 0.000244141V88.7765Z" fill="#FFA578"/>
</g>
<mask id="mask2_2535_45005" style="mask-type:alpha" maskUnits="userSpaceOnUse" x="284" y="44" width="104" height="208">
<path d="M284.531 88.7767C317.135 88.7767 343.563 115.185 343.563 147.76C343.563 180.339 317.135 206.747 284.531 206.747V251.316C341.618 251.264 387.882 204.973 387.882 147.876C387.882 90.7794 341.618 44.4877 284.531 44.4365" fill="white"/>
</mask>
<g mask="url(#mask2_2535_45005)">
<path d="M188.891 -25.5529C209.755 -31.5825 232.015 -34.0924 254.001 -32.8945C270.228 -32.0104 289.445 -26.6798 293.004 -13.1781C295.496 -3.73143 288.746 5.88713 280.06 12.1381C271.373 18.3875 260.75 22.3581 251.546 28.0457C242.34 33.7332 234.164 42.0893 234.156 51.7707C234.146 62.693 245.047 72.0257 257.392 75.0132C269.737 78.0024 283.022 75.8295 295.143 72.2421C342.125 58.329 376.787 24.9805 410.372 -6.25298C412.925 -8.62581 416.288 -11.2201 419.954 -10.4352C423.697 -9.63377 425.191 -5.86136 425.908 -2.6359C431.751 23.5974 426.848 51.4716 412.236 75.0975C406.938 83.6634 398.414 92.6111 387.044 92.3203C372.82 91.9585 365.472 78.2502 359.323 67.3263C354.343 58.4843 348.093 50.1596 340.755 42.5983C333.97 35.6037 324.246 28.7182 313.849 30.7093C301.77 33.021 297.048 45.6618 297.221 56.1991C297.439 69.4793 303.319 84.1113 317.362 89.9062C326.242 93.5712 336.775 93.0408 345.978 96.0679C358.598 100.22 367.344 111.072 368.942 122.506C370.538 133.939 365.546 145.641 356.949 154.531C351.791 159.863 342.878 164.528 336 160.861C328.014 156.607 332.283 144.666 341.236 142.166C350.19 139.666 359.89 143.779 367.008 149.035C386.992 163.791 395.34 188.425 389.755 210.433C387.642 218.756 383.545 226.952 376.358 232.874C369.171 238.796 358.533 242.091 348.868 239.89C324.638 234.371 322.853 202.234 300.078 193.286C288.682 188.81 273.777 192.285 266.652 201.079C258.572 211.048 260.994 224.756 266.794 235.817C281.819 264.476 318.526 283.816 355.366 282.484C360.196 282.31 365.295 281.717 369.069 279.146C372.151 277.048 373.965 273.868 375.044 270.638C378.882 259.146 373.933 246.037 363.413 238.127C352.894 230.216 337.447 227.601 323.947 230.875C314.811 233.089 306.775 237.691 298.196 241.163C284.633 246.65 269.509 249.317 254.5 248.864C232.755 248.21 210.266 240.092 198.878 224.31C197.481 222.375 196.254 219.923 197.516 217.922C198.562 216.263 200.92 215.599 203.078 215.177C227.137 210.471 253.202 218.196 271.199 232.574C289.196 246.953 299.659 267.237 303.672 287.967C307.684 308.697 305.662 329.957 301.617 350.681" stroke="#0E0916" stroke-width="1.25718" stroke-linecap="round" stroke-linejoin="round"/>
</g>
<path fill-rule="evenodd" clip-rule="evenodd" d="M258.037 184.288C252.561 185.877 246.971 188.04 241.29 190.866C230.325 179.844 223.547 164.652 223.547 147.875H250.967C250.788 159.32 252.793 171.549 258.037 184.288Z" fill="#BC99FF"/>
<path fill-rule="evenodd" clip-rule="evenodd" d="M258.037 184.288C252.561 185.877 246.971 188.04 241.29 190.866C230.325 179.844 223.547 164.652 223.547 147.875H250.967C250.788 159.32 252.793 171.549 258.037 184.288Z" stroke="#0E0916" stroke-width="1.25718" stroke-linecap="round" stroke-linejoin="round"/>
<path fill-rule="evenodd" clip-rule="evenodd" d="M250.964 147.876H284.497V180.702C276.067 180.572 267.208 181.626 258.034 184.288C252.79 171.55 250.787 159.319 250.964 147.876Z" fill="#BC99FF"/>
<path fill-rule="evenodd" clip-rule="evenodd" d="M250.964 147.876H284.497V180.702C276.067 180.572 267.208 181.626 258.034 184.288C252.79 171.55 250.787 159.319 250.964 147.876Z" stroke="#0E0916" stroke-width="1.25718" stroke-linecap="round" stroke-linejoin="round"/>
<path fill-rule="evenodd" clip-rule="evenodd" d="M241.289 104.886C249.409 96.7267 259.826 90.8558 271.486 88.3193C266.984 94.8975 262.417 102.763 258.738 111.668C253.036 110.061 247.211 107.832 241.289 104.886Z" fill="#BC99FF"/>
<path fill-rule="evenodd" clip-rule="evenodd" d="M241.289 104.886C249.409 96.7267 259.826 90.8558 271.486 88.3193C266.984 94.8975 262.417 102.763 258.738 111.668C253.036 110.061 247.211 107.832 241.289 104.886Z" stroke="#0E0916" stroke-width="1.25718" stroke-linecap="round" stroke-linejoin="round"/>
<path fill-rule="evenodd" clip-rule="evenodd" d="M258.738 111.668C262.418 102.763 266.984 94.8978 271.488 88.3196C275.68 87.4075 280.033 86.9233 284.499 86.9233V115.05C276.283 115.178 267.661 114.181 258.738 111.668Z" fill="#BC99FF"/>
<path fill-rule="evenodd" clip-rule="evenodd" d="M258.738 111.668C262.418 102.763 266.984 94.8978 271.488 88.3196C275.68 87.4075 280.033 86.9233 284.499 86.9233V115.05C276.283 115.178 267.661 114.181 258.738 111.668Z" stroke="#0E0916" stroke-width="1.25718" stroke-linecap="round" stroke-linejoin="round"/>
<path fill-rule="evenodd" clip-rule="evenodd" d="M250.967 147.876H223.547C223.547 131.099 230.327 115.907 241.292 104.886C247.214 107.832 253.039 110.061 258.739 111.667C254.311 122.381 251.172 134.599 250.967 147.876Z" fill="#BC99FF"/>
<path fill-rule="evenodd" clip-rule="evenodd" d="M250.967 147.876H223.547C223.547 131.099 230.327 115.907 241.292 104.886C247.214 107.832 253.039 110.061 258.739 111.667C254.311 122.381 251.172 134.599 250.967 147.876Z" stroke="#0E0916" stroke-width="1.25718" stroke-linecap="round" stroke-linejoin="round"/>
<path fill-rule="evenodd" clip-rule="evenodd" d="M250.965 147.876C251.17 134.599 254.309 122.381 258.738 111.667C267.661 114.182 276.283 115.177 284.498 115.05V147.876H250.965Z" fill="#BC99FF"/>
<path fill-rule="evenodd" clip-rule="evenodd" d="M250.965 147.876C251.17 134.599 254.309 122.381 258.738 111.667C267.661 114.182 276.283 115.177 284.498 115.05V147.876H250.965Z" stroke="#0E0916" stroke-width="1.25718" stroke-linecap="round" stroke-linejoin="round"/>
<path fill-rule="evenodd" clip-rule="evenodd" d="M284.5 115.05C293.542 114.91 302.091 113.409 310.01 111.066C314.567 121.924 317.824 134.348 318.034 147.876H284.5V115.05Z" fill="#BC99FF"/>
<path fill-rule="evenodd" clip-rule="evenodd" d="M284.5 115.05C293.542 114.91 302.091 113.409 310.01 111.066C314.567 121.924 317.824 134.348 318.034 147.876H284.5V115.05Z" stroke="#0E0916" stroke-width="1.25718" stroke-linecap="round" stroke-linejoin="round"/>
<path fill-rule="evenodd" clip-rule="evenodd" d="M318.034 147.876C318.214 159.501 316.143 171.936 310.71 184.893C302.597 182.431 293.81 180.846 284.5 180.702V147.876H318.034Z" fill="#BC99FF"/>
<path fill-rule="evenodd" clip-rule="evenodd" d="M318.034 147.876C318.214 159.501 316.143 171.936 310.71 184.893C302.597 182.431 293.81 180.846 284.5 180.702V147.876H318.034Z" stroke="#0E0916" stroke-width="1.25718" stroke-linecap="round" stroke-linejoin="round"/>
<path fill-rule="evenodd" clip-rule="evenodd" d="M284.502 180.702V208.829C279.837 208.829 275.295 208.303 270.931 207.31C265.361 199.498 261.136 191.804 258.039 184.287C267.213 181.627 276.072 180.571 284.502 180.702Z" fill="#BC99FF"/>
<path fill-rule="evenodd" clip-rule="evenodd" d="M284.502 180.702V208.829C279.837 208.829 275.295 208.303 270.931 207.31C265.361 199.498 261.136 191.804 258.039 184.287C267.213 181.627 276.072 180.571 284.502 180.702Z" stroke="#0E0916" stroke-width="1.25718" stroke-linecap="round" stroke-linejoin="round"/>
<path fill-rule="evenodd" clip-rule="evenodd" d="M327.182 191.384C319.272 199.145 309.257 204.766 298.07 207.311C303.49 199.708 307.638 192.218 310.709 184.893C316.57 186.671 322.081 188.907 327.182 191.384Z" fill="#BC99FF"/>
<path fill-rule="evenodd" clip-rule="evenodd" d="M327.182 191.384C319.272 199.145 309.257 204.766 298.07 207.311C303.49 199.708 307.638 192.218 310.709 184.893C316.57 186.671 322.081 188.907 327.182 191.384Z" stroke="#0E0916" stroke-width="1.25718" stroke-linecap="round" stroke-linejoin="round"/>
<path fill-rule="evenodd" clip-rule="evenodd" d="M258.036 184.287C261.133 191.804 265.358 199.498 270.928 207.31C259.492 204.709 249.28 198.896 241.289 190.866C246.97 188.04 252.56 185.877 258.036 184.287Z" fill="#BC99FF"/>
<path fill-rule="evenodd" clip-rule="evenodd" d="M258.036 184.287C261.133 191.804 265.358 199.498 270.928 207.31C259.492 204.709 249.28 198.896 241.289 190.866C246.97 188.04 252.56 185.877 258.036 184.287Z" stroke="#0E0916" stroke-width="1.25718" stroke-linecap="round" stroke-linejoin="round"/>
<path fill-rule="evenodd" clip-rule="evenodd" d="M310.71 184.893C307.638 192.218 303.491 199.707 298.071 207.31C293.707 208.303 289.165 208.828 284.5 208.828V180.701C293.808 180.847 302.597 182.431 310.71 184.893Z" fill="#BC99FF"/>
<path fill-rule="evenodd" clip-rule="evenodd" d="M310.71 184.893C307.638 192.218 303.491 199.707 298.071 207.31C293.707 208.303 289.165 208.828 284.5 208.828V180.701C293.808 180.847 302.597 182.431 310.71 184.893Z" stroke="#0E0916" stroke-width="1.25718" stroke-linecap="round" stroke-linejoin="round"/>
<path fill-rule="evenodd" clip-rule="evenodd" d="M284.5 115.05V86.9231C288.966 86.9231 293.319 87.4072 297.511 88.3194C301.913 94.7488 306.373 102.409 310.01 111.066C302.091 113.409 293.542 114.91 284.5 115.05Z" fill="#BC99FF"/>
<path fill-rule="evenodd" clip-rule="evenodd" d="M284.5 115.05V86.9231C288.966 86.9231 293.319 87.4072 297.511 88.3194C301.913 94.7488 306.373 102.409 310.01 111.066C302.091 113.409 293.542 114.91 284.5 115.05Z" stroke="#0E0916" stroke-width="1.25718" stroke-linecap="round" stroke-linejoin="round"/>
<path fill-rule="evenodd" clip-rule="evenodd" d="M297.512 88.3198C308.923 90.8017 319.143 96.4777 327.184 104.368C321.88 106.944 316.132 109.254 310.009 111.067C306.373 102.41 301.914 94.7493 297.512 88.3198Z" fill="#BC99FF"/>
<path fill-rule="evenodd" clip-rule="evenodd" d="M297.512 88.3198C308.923 90.8017 319.143 96.4777 327.184 104.368C321.88 106.944 316.132 109.254 310.009 111.067C306.373 102.41 301.914 94.7493 297.512 88.3198Z" stroke="#0E0916" stroke-width="1.25718" stroke-linecap="round" stroke-linejoin="round"/>
<path fill-rule="evenodd" clip-rule="evenodd" d="M310.008 111.066C316.13 109.254 321.879 106.942 327.183 104.368C338.455 115.429 345.452 130.834 345.452 147.875H318.032C317.822 134.349 314.567 121.924 310.008 111.066Z" fill="#BC99FF"/>
<path fill-rule="evenodd" clip-rule="evenodd" d="M310.008 111.066C316.13 109.254 321.879 106.942 327.183 104.368C338.455 115.429 345.452 130.834 345.452 147.875H318.032C317.822 134.349 314.567 121.924 310.008 111.066Z" stroke="#0E0916" stroke-width="1.25718" stroke-linecap="round" stroke-linejoin="round"/>
<path fill-rule="evenodd" clip-rule="evenodd" d="M318.034 147.876H345.454C345.454 164.917 338.456 180.322 327.184 191.383C322.083 188.908 316.572 186.672 310.711 184.893C316.144 171.936 318.214 159.501 318.034 147.876Z" fill="#BC99FF"/>
<path fill-rule="evenodd" clip-rule="evenodd" d="M318.034 147.876H345.454C345.454 164.917 338.456 180.322 327.184 191.383C322.083 188.908 316.572 186.672 310.711 184.893C316.144 171.936 318.214 159.501 318.034 147.876Z" stroke="#0E0916" stroke-width="1.25718" stroke-linecap="round" stroke-linejoin="round"/>
</svg>
