<svg width="117" height="30" viewBox="0 0 117 30" fill="none" xmlns="http://www.w3.org/2000/svg">
<path d="M16.0432 13.7476L4.08457 25.7493L2.11586 23.7735L0.179688 25.7329L4.11711 29.6845L18.0119 15.7233L16.0432 13.7476Z" fill="#BCD7FE"/>
<path d="M14.3519 4.57083L16.3531 6.59562L18.3055 4.63615L14.3681 0.68457L0.457031 14.6294L2.3932 16.5562L14.3519 4.57083Z" fill="#BCD7FE"/>
<path d="M3.01344 21.4385C3.40393 21.8304 3.40393 22.4836 3.01344 22.8918L4.07101 23.9531L17.9658 9.992L16.9084 8.93062C16.5016 9.32251 15.867 9.32251 15.4602 8.93062C15.0697 8.53873 15.0697 7.88558 15.4602 7.47736L14.4027 6.41602L0.507812 20.3771L1.56538 21.4385C1.97214 21.0303 2.60668 21.0303 3.01344 21.4385Z" fill="#2250FF"/>
<path d="M51.0726 2.02783L42.0986 18.0518V28.2965H36.9759V18.0518L28.0391 2.02783H33.8723L39.5558 12.9856L45.2395 2.02783H51.0726ZM65.5616 25.9698C63.6421 27.8713 61.2988 28.822 58.5319 28.822C55.7648 28.822 53.4216 27.8713 51.5021 25.9698C49.6075 24.0435 48.6602 21.6918 48.6602 18.9149C48.6602 16.1379 49.6075 13.7988 51.5021 11.8973C53.4216 9.97099 55.7648 9.00775 58.5319 9.00775C61.2988 9.00775 63.6421 9.97099 65.5616 11.8973C67.481 13.7988 68.4408 16.1379 68.4408 18.9149C68.4408 21.6918 67.481 24.0435 65.5616 25.9698ZM54.9048 22.6301C55.8769 23.6057 57.0859 24.0936 58.5319 24.0936C59.9777 24.0936 61.1867 23.6057 62.1589 22.6301C63.131 21.6543 63.6172 20.4159 63.6172 18.9149C63.6172 17.4138 63.131 16.1755 62.1589 15.1996C61.1867 14.224 59.9777 13.7361 58.5319 13.7361C57.0859 13.7361 55.8769 14.224 54.9048 15.1996C53.9575 16.1755 53.4839 17.4138 53.4839 18.9149C53.4839 20.4159 53.9575 21.6543 54.9048 22.6301ZM82.1266 14.1864H77.9014V21.9921C77.9014 22.6425 78.0634 23.1178 78.3874 23.4181C78.7115 23.7182 79.1851 23.8934 79.8082 23.9434C80.4316 23.9684 81.2042 23.956 82.1266 23.9059V28.2965C78.8112 28.6717 76.4679 28.3591 75.0968 27.3584C73.7508 26.3576 73.0777 24.569 73.0777 21.9921V14.1864H69.8246V9.53322H73.0777V5.74297L77.9014 4.27943V9.53322H82.1266V14.1864ZM94.3315 14.1864H90.1061V21.9921C90.1061 22.6425 90.2682 23.1178 90.5923 23.4181C90.9162 23.7182 91.3898 23.8934 92.0132 23.9434C92.6363 23.9684 93.4092 23.956 94.3315 23.9059V28.2965C91.016 28.6717 88.6727 28.3591 87.3018 27.3584C85.9556 26.3576 85.2825 24.569 85.2825 21.9921V14.1864H82.0294V9.53322H85.2825V5.74297L90.1061 4.27943V9.53322H94.3315V14.1864ZM111.357 9.53322H116.181V28.2965H111.357V26.0825C109.911 27.9087 107.88 28.822 105.262 28.822C102.769 28.822 100.626 27.8713 98.8307 25.9698C97.0609 24.0435 96.1759 21.6918 96.1759 18.9149C96.1759 16.1379 97.0609 13.7988 98.8307 11.8973C100.626 9.97099 102.769 9.00775 105.262 9.00775C107.88 9.00775 109.911 9.92103 111.357 11.7472V9.53322ZM102.458 22.7426C103.43 23.7182 104.664 24.2061 106.16 24.2061C107.655 24.2061 108.889 23.7182 109.862 22.7426C110.859 21.742 111.357 20.466 111.357 18.9149C111.357 17.3637 110.859 16.1003 109.862 15.1247C108.889 14.1239 107.655 13.6236 106.16 13.6236C104.664 13.6236 103.43 14.1239 102.458 15.1247C101.486 16.1003 101 17.3637 101 18.9149C101 20.466 101.486 21.742 102.458 22.7426Z" fill="#2250FF"/>
</svg>
