<svg width="24" height="24" viewBox="0 0 24 24" fill="none" xmlns="http://www.w3.org/2000/svg">
<path d="M3.75 15.751H21.75" stroke="#0E0916" stroke-width="1.5" stroke-linecap="round" stroke-linejoin="round"/>
<path d="M3.75 18.751H21.75" stroke="#0E0916" stroke-width="1.5" stroke-linecap="round" stroke-linejoin="round"/>
<path d="M3 6.00098C3 6.49343 3.097 6.98107 3.28545 7.43604C3.47391 7.89101 3.75013 8.30441 4.09835 8.65263C4.44657 9.00085 4.85997 9.27707 5.31494 9.46553C5.76991 9.65398 6.25754 9.75098 6.75 9.75098C7.24246 9.75098 7.73009 9.65398 8.18506 9.46553C8.64003 9.27707 9.05343 9.00085 9.40165 8.65263C9.74987 8.30441 10.0261 7.89101 10.2145 7.43604C10.403 6.98107 10.5 6.49343 10.5 6.00098C10.5 5.50852 10.403 5.02088 10.2145 4.56591C10.0261 4.11094 9.74987 3.69755 9.40165 3.34933C9.05343 3.00111 8.64003 2.72488 8.18506 2.53643C7.73009 2.34797 7.24246 2.25098 6.75 2.25098C6.25754 2.25098 5.76991 2.34797 5.31494 2.53643C4.85997 2.72488 4.44657 3.00111 4.09835 3.34933C3.75013 3.69755 3.47391 4.11094 3.28545 4.56591C3.097 5.02088 3 5.50852 3 6.00098V6.00098Z" stroke="#0E0916" stroke-width="1.5" stroke-linecap="round" stroke-linejoin="round"/>
<path d="M13.5 6.00098C13.5 6.49343 13.597 6.98107 13.7855 7.43604C13.9739 7.89101 14.2501 8.30441 14.5983 8.65263C14.9466 9.00085 15.36 9.27707 15.8149 9.46553C16.2699 9.65398 16.7575 9.75098 17.25 9.75098C17.7425 9.75098 18.2301 9.65398 18.6851 9.46553C19.14 9.27707 19.5534 9.00085 19.9017 8.65263C20.2499 8.30441 20.5261 7.89101 20.7145 7.43604C20.903 6.98107 21 6.49343 21 6.00098C21 5.50852 20.903 5.02088 20.7145 4.56591C20.5261 4.11094 20.2499 3.69755 19.9017 3.34933C19.5534 3.00111 19.14 2.72488 18.6851 2.53643C18.2301 2.34797 17.7425 2.25098 17.25 2.25098C16.7575 2.25098 16.2699 2.34797 15.8149 2.53643C15.36 2.72488 14.9466 3.00111 14.5983 3.34933C14.2501 3.69755 13.9739 4.11094 13.7855 4.56591C13.597 5.02088 13.5 5.50852 13.5 6.00098V6.00098Z" stroke="#0E0916" stroke-width="1.5" stroke-linecap="round" stroke-linejoin="round"/>
<path d="M10.5 6.07196C10.5 5.67414 10.658 5.2926 10.9393 5.0113C11.2206 4.73 11.6022 4.57196 12 4.57196C12.3978 4.57196 12.7794 4.73 13.0607 5.0113C13.342 5.2926 13.5 5.67414 13.5 6.07196" stroke="#0E0916" stroke-width="1.5" stroke-linecap="round" stroke-linejoin="round"/>
<path d="M23.25 6.00098H21" stroke="#0E0916" stroke-width="1.5" stroke-linecap="round" stroke-linejoin="round"/>
<path d="M3 6.00098H0.75" stroke="#0E0916" stroke-width="1.5" stroke-linecap="round" stroke-linejoin="round"/>
<path d="M23.25 21.751H3.75C2.95435 21.751 2.19129 21.4349 1.62868 20.8723C1.06607 20.3097 0.75 19.5466 0.75 18.751V15.751C0.75 14.9553 1.06607 14.1923 1.62868 13.6297C2.19129 13.067 2.95435 12.751 3.75 12.751H23.25" stroke="#0E0916" stroke-width="1.5" stroke-linecap="round" stroke-linejoin="round"/>
</svg>
