<svg viewBox="0 0 24 24" fill="none" xmlns="http://www.w3.org/2000/svg">
<g clip-path="url(#clip0)">
<path d="M19.5 12.88V2.25C19.5 1.85218 19.342 1.47064 19.0607 1.18934C18.7794 0.908035 18.3978 0.75 18 0.75H6C5.60218 0.75 5.22064 0.908035 4.93934 1.18934C4.65804 1.47064 4.5 1.85218 4.5 2.25V12.88" stroke="#0E0916" stroke-width="1.5" stroke-linecap="round" stroke-linejoin="round"/>
<path d="M21.284 11.465C21.3944 11.3775 21.5273 11.3228 21.6674 11.3073C21.8075 11.2917 21.9491 11.316 22.076 11.3773C22.203 11.4386 22.3101 11.5344 22.3851 11.6537C22.46 11.773 22.4999 11.9111 22.5 12.052V21.7521C22.5 22.1499 22.342 22.5314 22.0607 22.8127C21.7794 23.094 21.3978 23.2521 21 23.2521H3C2.60218 23.2521 2.22064 23.094 1.93934 22.8127C1.65804 22.5314 1.5 22.1499 1.5 21.7521V12.052C1.50012 11.9111 1.53996 11.773 1.61494 11.6537C1.68993 11.5344 1.79702 11.4386 1.92395 11.3773C2.05088 11.316 2.19251 11.2917 2.3326 11.3073C2.47268 11.3228 2.60556 11.3775 2.716 11.465L10.147 17.359C10.6755 17.7741 11.328 17.9997 12 17.9997C12.672 17.9997 13.3245 17.7741 13.853 17.359L21.284 11.465Z" stroke="#0E0916" stroke-width="1.5" stroke-linecap="round" stroke-linejoin="round"/>
<path d="M8.25 5.25H11.25" stroke="#0E0916" stroke-width="1.5" stroke-linecap="round" stroke-linejoin="round"/>
<path d="M8.25 8.25H15.75" stroke="#0E0916" stroke-width="1.5" stroke-linecap="round" stroke-linejoin="round"/>
<path d="M8.25 11.25H15.75" stroke="#0E0916" stroke-width="1.5" stroke-linecap="round" stroke-linejoin="round"/>
</g>
<defs>
<clipPath id="clip0">
<rect width="24" height="24" fill="white"/>
</clipPath>
</defs>
</svg>
