<svg width="40" height="40" viewBox="0 0 40 40" fill="none" xmlns="http://www.w3.org/2000/svg">
<path d="M32.5 21.4667V3.75C32.5 3.08696 32.2366 2.45107 31.7678 1.98223C31.2989 1.51339 30.663 1.25 30 1.25H10C9.33696 1.25 8.70107 1.51339 8.23223 1.98223C7.76339 2.45107 7.5 3.08696 7.5 3.75V21.4667" stroke="currentColor" stroke-width="2" stroke-linecap="round" stroke-linejoin="round"/>
<path d="M35.4733 19.1085C35.6574 18.9625 35.8789 18.8714 36.1123 18.8455C36.3458 18.8196 36.5819 18.8601 36.7934 18.9622C37.005 19.0643 37.1835 19.224 37.3084 19.4229C37.4334 19.6218 37.4998 19.8519 37.5 20.0868V36.2535C37.5 36.9165 37.2366 37.5524 36.7678 38.0212C36.2989 38.4901 35.663 38.7535 35 38.7535H5C4.33696 38.7535 3.70107 38.4901 3.23223 38.0212C2.76339 37.5524 2.5 36.9165 2.5 36.2535V20.0868C2.50021 19.8519 2.5666 19.6218 2.69157 19.4229C2.81655 19.224 2.99504 19.0643 3.20659 18.9622C3.41814 18.8601 3.65418 18.8196 3.88766 18.8455C4.12114 18.8714 4.34261 18.9625 4.52667 19.1085L16.9117 28.9318C17.7925 29.6236 18.88 29.9996 20 29.9996C21.12 29.9996 22.2075 29.6236 23.0883 28.9318L35.4733 19.1085Z" stroke="currentColor" stroke-width="2" stroke-linecap="round" stroke-linejoin="round"/>
<path d="M13.75 8.75H18.75" stroke="currentColor" stroke-width="2" stroke-linecap="round" stroke-linejoin="round"/>
<path d="M13.75 13.75H26.25" stroke="currentColor" stroke-width="2" stroke-linecap="round" stroke-linejoin="round"/>
<path d="M13.75 18.75H26.25" stroke="currentColor" stroke-width="2" stroke-linecap="round" stroke-linejoin="round"/>
</svg>
