<svg width="24" height="24" viewBox="0 0 24 24" fill="none" xmlns="http://www.w3.org/2000/svg">
<path d="M9.67438 14.3254C10.6589 15.31 11.7987 16.0587 12.843 16.4068C13.8873 16.7549 14.7506 16.6739 15.2428 16.1816C15.7351 15.6893 15.8161 14.8261 15.468 13.7818C15.1199 12.7375 14.3713 11.5977 13.3867 10.6131C12.4021 9.62856 11.2623 8.87988 10.218 8.53178C9.17374 8.18369 8.31051 8.26469 7.81822 8.75697C7.32594 9.24926 7.24494 10.1125 7.59303 11.1568C7.94113 12.2011 8.68981 13.3409 9.67438 14.3254V14.3254Z" stroke="#0E0916" stroke-width="1.5" stroke-linecap="round" stroke-linejoin="round"/>
<path d="M7.39996 9.69995L0.88796 21.121C0.759133 21.3996 0.718906 21.7111 0.77271 22.0133C0.826514 22.3156 0.971757 22.594 1.18883 22.8111C1.40591 23.0282 1.68436 23.1734 1.9866 23.2272C2.28884 23.281 2.60031 23.2408 2.87896 23.112L14.3 16.605" stroke="#0E0916" stroke-width="1.5" stroke-linecap="round" stroke-linejoin="round"/>
<path d="M15.773 7.70001C15.8079 7.73485 15.8356 7.77623 15.8545 7.82179C15.8734 7.86735 15.8832 7.91619 15.8832 7.96551C15.8832 8.01484 15.8734 8.06368 15.8545 8.10924C15.8356 8.1548 15.8079 8.19618 15.773 8.23101" stroke="#0E0916" stroke-width="1.5" stroke-linecap="round" stroke-linejoin="round"/>
<path d="M15.2429 7.69994C15.3132 7.62972 15.4085 7.59027 15.5079 7.59027C15.6073 7.59027 15.7026 7.62972 15.7729 7.69994" stroke="#0E0916" stroke-width="1.5" stroke-linecap="round" stroke-linejoin="round"/>
<path d="M15.243 8.22702C15.1729 8.1564 15.1336 8.06097 15.1336 7.96151C15.1336 7.86206 15.1729 7.76663 15.243 7.69601" stroke="#0E0916" stroke-width="1.5" stroke-linecap="round" stroke-linejoin="round"/>
<path d="M15.7729 8.22699C15.7026 8.29722 15.6073 8.33666 15.5079 8.33666C15.4085 8.33666 15.3132 8.29722 15.2429 8.22699" stroke="#0E0916" stroke-width="1.5" stroke-linecap="round" stroke-linejoin="round"/>
<path d="M20.016 3.45401C20.0509 3.48876 20.0786 3.53006 20.0975 3.57553C20.1164 3.62101 20.1261 3.66977 20.1261 3.71901C20.1261 3.76825 20.1164 3.81701 20.0975 3.86249C20.0786 3.90796 20.0509 3.94926 20.016 3.98401" stroke="#0E0916" stroke-width="1.5" stroke-linecap="round" stroke-linejoin="round"/>
<path d="M19.486 3.45396C19.5208 3.41907 19.5621 3.39138 19.6075 3.37249C19.653 3.3536 19.7018 3.34387 19.751 3.34387C19.8002 3.34387 19.849 3.3536 19.8945 3.37249C19.94 3.39138 19.9812 3.41907 20.016 3.45396" stroke="#0E0916" stroke-width="1.5" stroke-linecap="round" stroke-linejoin="round"/>
<path d="M19.4859 3.98401C19.4511 3.94926 19.4234 3.90796 19.4045 3.86249C19.3856 3.81701 19.3759 3.76825 19.3759 3.71901C19.3759 3.66977 19.3856 3.62101 19.4045 3.57553C19.4234 3.53006 19.4511 3.48876 19.4859 3.45401" stroke="#0E0916" stroke-width="1.5" stroke-linecap="round" stroke-linejoin="round"/>
<path d="M20.016 3.98401C19.9457 4.05423 19.8504 4.09368 19.751 4.09368C19.6516 4.09368 19.5563 4.05423 19.486 3.98401" stroke="#0E0916" stroke-width="1.5" stroke-linecap="round" stroke-linejoin="round"/>
<path d="M20.016 14.06C20.0509 14.0948 20.0786 14.1362 20.0975 14.1817C20.1164 14.2273 20.1262 14.2761 20.1262 14.3255C20.1262 14.3748 20.1164 14.4236 20.0975 14.4692C20.0786 14.5148 20.0509 14.5561 20.016 14.591" stroke="#0E0916" stroke-width="1.5" stroke-linecap="round" stroke-linejoin="round"/>
<path d="M19.486 14.06C19.5563 13.9898 19.6516 13.9503 19.751 13.9503C19.8504 13.9503 19.9457 13.9898 20.016 14.06" stroke="#0E0916" stroke-width="1.5" stroke-linecap="round" stroke-linejoin="round"/>
<path d="M19.4859 14.591C19.451 14.5561 19.4233 14.5148 19.4044 14.4692C19.3855 14.4236 19.3758 14.3748 19.3758 14.3255C19.3758 14.2761 19.3855 14.2273 19.4044 14.1817C19.4233 14.1362 19.451 14.0948 19.4859 14.06" stroke="#0E0916" stroke-width="1.5" stroke-linecap="round" stroke-linejoin="round"/>
<path d="M20.016 14.591C19.9457 14.6613 19.8504 14.7007 19.751 14.7007C19.6516 14.7007 19.5563 14.6613 19.486 14.591" stroke="#0E0916" stroke-width="1.5" stroke-linecap="round" stroke-linejoin="round"/>
<path d="M8.34899 4.51401C8.41903 4.58462 8.45833 4.68005 8.45833 4.77951C8.45833 4.87897 8.41903 4.9744 8.34899 5.04501" stroke="#0E0916" stroke-width="1.5" stroke-linecap="round" stroke-linejoin="round"/>
<path d="M7.819 4.51403C7.88931 4.4438 7.98462 4.40436 8.084 4.40436C8.18337 4.40436 8.27868 4.4438 8.349 4.51403" stroke="#0E0916" stroke-width="1.5" stroke-linecap="round" stroke-linejoin="round"/>
<path d="M7.81893 5.04501C7.78401 5.01017 7.7563 4.96879 7.73739 4.92323C7.71849 4.87767 7.70876 4.82883 7.70876 4.77951C7.70876 4.73018 7.71849 4.68134 7.73739 4.63578C7.7563 4.59022 7.78401 4.54884 7.81893 4.51401" stroke="#0E0916" stroke-width="1.5" stroke-linecap="round" stroke-linejoin="round"/>
<path d="M8.349 5.04498C8.27868 5.11521 8.18337 5.15465 8.084 5.15465C7.98462 5.15465 7.88931 5.11521 7.819 5.04498" stroke="#0E0916" stroke-width="1.5" stroke-linecap="round" stroke-linejoin="round"/>
<path d="M12.8569 0.75C13.068 2.63992 12.8873 4.55306 12.3259 6.37" stroke="#0E0916" stroke-width="1.5" stroke-linecap="round" stroke-linejoin="round"/>
<path d="M16.5689 2.12799L16.0389 4.77899" stroke="#0E0916" stroke-width="1.5" stroke-linecap="round" stroke-linejoin="round"/>
<path d="M23.25 11.143C21.3601 10.9319 19.4469 11.1127 17.63 11.674" stroke="#0E0916" stroke-width="1.5" stroke-linecap="round" stroke-linejoin="round"/>
<path d="M21.872 7.43097L19.221 7.96097" stroke="#0E0916" stroke-width="1.5" stroke-linecap="round" stroke-linejoin="round"/>
</svg>
