<svg viewBox="0 0 24 24" fill="none" xmlns="http://www.w3.org/2000/svg">
<path d="M14.25 5.25H10.5L8.7 2.85C8.56028 2.66371 8.3791 2.5125 8.17082 2.40836C7.96254 2.30422 7.73287 2.25 7.5 2.25H2.25C1.85218 2.25 1.47064 2.40804 1.18934 2.68934C0.908035 2.97064 0.75 3.35218 0.75 3.75V20.25C0.75 20.6478 0.908035 21.0294 1.18934 21.3107C1.47064 21.592 1.85218 21.75 2.25 21.75H21.75C22.1478 21.75 22.5294 21.592 22.8107 21.3107C23.092 21.0294 23.25 20.6478 23.25 20.25V6.75C23.25 6.35218 23.092 5.97064 22.8107 5.68934C22.5294 5.40804 22.1478 5.25 21.75 5.25H20.25" stroke="currentColor" stroke-width="1.5" stroke-linecap="round" stroke-linejoin="round"/>
<path d="M20.25 13.5L17.25 11.25L14.25 13.5V4.5C14.25 4.30109 14.329 4.11032 14.4697 3.96967C14.6103 3.82902 14.8011 3.75 15 3.75H19.5C19.6989 3.75 19.8897 3.82902 20.0303 3.96967C20.171 4.11032 20.25 4.30109 20.25 4.5V13.5Z" stroke="currentColor" stroke-width="1.5" stroke-linecap="round" stroke-linejoin="round"/>
</svg>
