<svg viewBox="0 0 24 24" fill="none" xmlns="http://www.w3.org/2000/svg">
<path d="M0.75 0.75H23.25V23.25H0.75V0.75Z" stroke="#0E0916" stroke-width="1.5" stroke-linecap="round" stroke-linejoin="round"/>
<path d="M10.238 15.66C10.1075 15.725 9.96253 15.7557 9.81685 15.749C9.67117 15.7424 9.52961 15.6986 9.4056 15.6219C9.28159 15.5451 9.17924 15.438 9.10825 15.3106C9.03727 15.1832 9.00001 15.0398 9 14.894V9.10596C9.00001 8.96013 9.03727 8.81672 9.10825 8.68933C9.17924 8.56195 9.28159 8.4548 9.4056 8.37807C9.52961 8.30134 9.67117 8.25757 9.81685 8.2509C9.96253 8.24423 10.1075 8.27488 10.238 8.33996L16.027 11.235C16.1692 11.3059 16.2887 11.4151 16.3723 11.5502C16.4559 11.6853 16.5002 11.8411 16.5002 12C16.5002 12.1588 16.4559 12.3146 16.3723 12.4497C16.2887 12.5848 16.1692 12.694 16.027 12.765L10.238 15.66Z" stroke="#0E0916" stroke-width="1.5" stroke-linecap="round" stroke-linejoin="round"/>
</svg>
