<svg viewBox="0 0 24 24" fill="none" xmlns="http://www.w3.org/2000/svg">
<path d="M8.25 10.524C9.27545 11.4583 10.6127 11.9762 12 11.9762C13.3873 11.9762 14.7245 11.4583 15.75 10.524" stroke="#0E0916" stroke-width="1.5" stroke-linecap="round" stroke-linejoin="round"/>
<path d="M9.75 6V7.5" stroke="#0E0916" stroke-width="1.5" stroke-linecap="round" stroke-linejoin="round"/>
<path d="M14.25 6V7.5" stroke="#0E0916" stroke-width="1.5" stroke-linecap="round" stroke-linejoin="round"/>
<path d="M21 15V3.75C21 3.35218 20.842 2.97064 20.5607 2.68934C20.2794 2.40804 19.8978 2.25 19.5 2.25H4.5C4.10218 2.25 3.72064 2.40804 3.43934 2.68934C3.15804 2.97064 3 3.35218 3 3.75V15H21Z" stroke="#0E0916" stroke-width="1.5" stroke-linecap="round" stroke-linejoin="round"/>
<path d="M23.121 19.641C23.2225 19.8694 23.2652 20.1195 23.2455 20.3686C23.2257 20.6178 23.144 20.858 23.0078 21.0675C22.8716 21.2771 22.6852 21.4493 22.4655 21.5684C22.2459 21.6876 21.9999 21.75 21.75 21.75H2.24999C2.00008 21.75 1.75411 21.6876 1.53445 21.5684C1.31479 21.4493 1.12838 21.2771 0.992174 21.0675C0.855963 20.858 0.774264 20.6178 0.754497 20.3686C0.734731 20.1195 0.777524 19.8694 0.878989 19.641L2.99999 15H21L23.121 19.641Z" stroke="#0E0916" stroke-width="1.5" stroke-linecap="round" stroke-linejoin="round"/>
<path d="M10.5 18.75H13.5" stroke="#0E0916" stroke-width="1.5" stroke-linecap="round" stroke-linejoin="round"/>
</svg>
