<svg viewBox="0 0 66 48" fill="none" xmlns="http://www.w3.org/2000/svg">
  <path d="M49.242 39.034l10.363-5.61s1.707-3.205-2.697-1.824c-4.404 1.38-13.902 5.535-13.902 5.535l6.562 1.96" fill="#FFEBDE"/>
  <path d="M49.242 39.034l10.363-5.61s1.707-3.205-2.697-1.824c-4.404 1.38-13.902 5.535-13.902 5.535l6.562 1.96" stroke="#0E0916" stroke-miterlimit="10" stroke-linecap="round" stroke-linejoin="round"/>
  <path d="M44.247 38.073l9.811-6.485s1.406-3.341-2.848-1.578c-4.253 1.763-13.35 6.72-13.35 6.72l6.713 1.38" fill="#FFEBDE"/>
  <path d="M44.247 38.073l9.811-6.485s1.406-3.341-2.848-1.578c-4.253 1.763-13.35 6.72-13.35 6.72l6.713 1.38" stroke="#0E0916" stroke-miterlimit="10" stroke-linecap="round" stroke-linejoin="round"/>
  <path d="M38.077 38.023l9.811-6.485s1.406-3.341-2.848-1.578c-4.253 1.763-13.35 6.732-13.35 6.732l6.713 1.38" fill="#FFEBDE"/>
  <path d="M38.077 38.023l9.811-6.485s1.406-3.341-2.848-1.578c-4.253 1.763-13.35 6.732-13.35 6.732l6.713 1.38" stroke="#0E0916" stroke-miterlimit="10" stroke-linecap="round" stroke-linejoin="round"/>
  <path d="M5.126 29.997l.652 12.415s9.486-1.899 16.186-.617c6.712 1.283 12.133 3.81 20.062 2.577C49.956 43.14 65.012 39.54 65 37.604c0-1.652-.188-1.628-9.322-.715-9.134.912-14.379 2.453-17.302 1.368" fill="#FFEBDE"/>
  <path d="M5.126 29.997l.652 12.415s9.486-1.899 16.186-.617c6.712 1.283 12.133 3.81 20.062 2.577C49.956 43.14 65.012 39.54 65 37.604c0-1.652-.188-1.628-9.322-.715-9.134.912-14.379 2.453-17.302 1.368" stroke="#0E0916" stroke-miterlimit="10" stroke-linecap="round" stroke-linejoin="round"/>
  <path d="M5.126 29.997s13.94.172 17.428-1.073c3.186-1.134 12.358 3.884 13.939 4.772.15.086.326.148.502.172 3.877.567 14.052 2.7 13.776 4.574-.288 1.924-2.22 2.762-5.985 2.17-3.764-.592-13.776-1.196-17.1-2.28" fill="#FFEBDE"/>
  <path d="M5.126 29.997s13.94.172 17.428-1.073c3.186-1.134 12.358 3.884 13.939 4.772.15.086.326.148.502.172 3.877.567 14.052 2.7 13.776 4.574-.288 1.924-2.22 2.762-5.985 2.17-3.764-.592-13.776-1.196-17.1-2.28" stroke="#0E0916" stroke-miterlimit="10" stroke-linecap="round" stroke-linejoin="round"/>
  <path d="M11.991 26.644V44.52L1 46.999V24.708l10.991 1.936z" fill="#E6E2FF" stroke="#0E0916" stroke-miterlimit="10" stroke-linecap="round" stroke-linejoin="round"/>
  <path d="M37.587 26.668c7.213 0 13.06-5.746 13.06-12.834C50.648 6.745 44.8.998 37.588.998c-7.214 0-13.062 5.746-13.062 12.835 0 7.088 5.848 12.834 13.062 12.834z" fill="#2250FF" stroke="#340096" stroke-miterlimit="10"/>
  <path d="M32.205 14.056l2.961 3.86 7.817-7.472" stroke="#E6E2FF" stroke-width="3" stroke-miterlimit="10" stroke-linecap="round" stroke-linejoin="round"/>
</svg>
