<svg xmlns="http://www.w3.org/2000/svg" width="55" height="54" viewBox="0 0 55 54" fill="none">
  <path d="M29.7959 21.3979V0H25.204V21.3979L27.5 23.6938L29.7959 21.3979Z" fill="#020000"/>
  <path d="M25.204 32.5101V53.9999H29.7959V32.5101L27.5 30.2142L25.204 32.5101Z" fill="#020000"/>
  <path d="M30.8061 26.9999L33.102 29.2958H54.4999V24.704H33.102L30.8061 26.9999Z" fill="#020000"/>
  <path d="M21.9897 24.704H0.5V29.2958H21.9897L24.2857 26.9999L21.9897 24.704Z" fill="#020000"/>
  <path d="M33.102 24.704L48.255 9.551L44.9489 6.24488L29.7959 21.3979L29.7959 24.704H33.102Z" fill="#020000"/>
  <path d="M21.9897 29.2958L6.83673 44.4489L10.051 47.6632L25.204 32.5101L25.204 29.2959L21.9897 29.2958Z" fill="#020000"/>
  <path d="M26.5816 29.2959H25.204L25.204 32.5101L27.5 30.2142L26.5816 29.2959Z" fill="#020000"/>
  <path d="M28.5102 24.704L29.7959 24.704L29.7959 21.3979L27.5 23.6938L28.5102 24.704Z" fill="#020000"/>
  <path d="M25.2041 27.9183L24.2857 26.9999L21.9897 29.2958L25.204 29.2959L25.2041 27.9183Z" fill="#020000"/>
  <path d="M29.7959 25.9897L30.8061 26.9999L33.102 24.704H29.7959V25.9897Z" fill="#020000"/>
  <path d="M29.7959 24.704L28.5102 24.704L29.7959 25.9897V24.704Z" fill="#020000"/>
  <path d="M25.204 29.2959H26.5816L25.2041 27.9183L25.204 29.2959Z" fill="#020000"/>
  <path d="M29.7959 32.5101L44.9489 47.6632L48.255 44.4489L33.102 29.2958L29.7959 29.2959L29.7959 32.5101Z" fill="#020000"/>
  <path d="M25.204 21.3979L10.051 6.24488L6.83673 9.551L21.9897 24.704H25.204L25.204 21.3979Z" fill="#020000"/>
  <path d="M26.5816 24.704L27.5 23.6938L25.204 21.3979L25.204 24.704L26.5816 24.704Z" fill="#020000"/>
  <path d="M28.5102 29.2959L27.5 30.2142L29.7959 32.5101L29.7959 29.2959H28.5102Z" fill="#020000"/>
  <path d="M29.7959 27.9183V29.2959L33.102 29.2958L30.8061 26.9999L29.7959 27.9183Z" fill="#020000"/>
  <path d="M25.2041 25.9897L25.204 24.704H21.9897L24.2857 26.9999L25.2041 25.9897Z" fill="#020000"/>
  <path d="M29.7959 29.2959V27.9183L28.5102 29.2959H29.7959Z" fill="#020000"/>
  <path d="M25.204 24.704L25.2041 25.9897L26.5816 24.704L25.204 24.704Z" fill="#020000"/>
  <path d="M27.5 30.2142L28.5102 29.2959H26.5816L27.5 30.2142Z" fill="#020000"/>
  <path d="M27.5 23.6938L26.5816 24.704H28.5102L27.5 23.6938Z" fill="#020000"/>
  <path d="M29.7959 27.9183L30.8061 26.9999L29.7959 25.9897V27.9183Z" fill="#020000"/>
  <path d="M24.2857 26.9999L25.2041 27.9183V25.9897L24.2857 26.9999Z" fill="#020000"/>
  <path d="M28.5102 24.704H26.5816L25.2041 25.9897V27.9183L26.5816 29.2959H28.5102L29.7959 27.9183V25.9897L28.5102 24.704Z" fill="#020000"/>
</svg>