<svg width="61" height="61" viewBox="0 0 61 61" fill="none" xmlns="http://www.w3.org/2000/svg">
<path d="M51.5039 22.8731C51.5039 22.5316 51.4962 22.1938 51.4824 21.8594H58.5037V59.0828H21.5039V52.0058C21.8337 52.0195 22.1669 52.0271 22.5037 52.0271C38.5035 52.0271 51.5039 38.9419 51.5039 22.8731Z" stroke="#C7B2AB" stroke-width="3"/>
<path d="M15 13.83H13.5V15.33V41.936C6.40898 38.5471 1.5 31.2944 1.5 22.8719C1.5 11.1962 10.9095 1.74609 22.5 1.74609C30.8698 1.74609 38.0873 6.68381 41.4562 13.83H15Z" stroke="#C7B2AB" stroke-width="3"/>
<path d="M22.5037 43.9968C22.1705 43.9968 21.8372 43.9873 21.5039 43.9696V21.8594H43.4761C43.494 22.1973 43.5037 22.5351 43.5037 22.8731C43.5037 34.5487 34.0943 43.9968 22.5037 43.9968Z" stroke="#C7B2AB" stroke-width="3"/>
</svg>
