<svg fill="none" xmlns="http://www.w3.org/2000/svg" viewBox="0 0 75 75"><path d="M50.11 45.278c-2.152-1.758-5.211-1.68-7.27.035L29.21 34.47c.17-.65.23-1.332.161-2.021a5.678 5.678 0 00-2.073-3.854 5.724 5.724 0 00-8.044.814c-1.79 2.193-1.672 5.324.139 7.385l-8.446 9.621a5.654 5.654 0 00-4.124-1.209 5.677 5.677 0 00-3.854 2.073 5.724 5.724 0 00.814 8.044 5.674 5.674 0 004.191 1.258 5.678 5.678 0 003.854-2.073 5.679 5.679 0 001.259-4.19 5.7 5.7 0 00-.676-2.177l8.774-9.994a5.694 5.694 0 002.494.592 5.71 5.71 0 004.434-2.1c.03-.037.055-.076.084-.114L41.43 47.052a5.728 5.728 0 001.45 7.084 5.693 5.693 0 003.61 1.285c1.66 0 3.305-.716 4.434-2.1a5.678 5.678 0 001.259-4.19 5.68 5.68 0 00-2.073-3.853zm-40.017 7.816a3.453 3.453 0 01-2.345 1.26 3.452 3.452 0 01-2.55-.765 3.484 3.484 0 01-.495-4.895 3.482 3.482 0 014.894-.495c.143.118.267.251.388.386.062.121.146.234.255.33.335.48.557 1.03.619 1.63a3.452 3.452 0 01-.766 2.548zm16.285-17.87a3.46 3.46 0 01-2.344 1.261 3.458 3.458 0 01-2.55-.765 3.482 3.482 0 01-.496-4.894 3.482 3.482 0 014.894-.496 3.453 3.453 0 011.262 2.345 3.454 3.454 0 01-.766 2.55zm22.81 16.682a3.482 3.482 0 01-4.894.496 3.483 3.483 0 01-.495-4.895 3.473 3.473 0 012.698-1.277c.773 0 1.551.256 2.196.782a3.482 3.482 0 01.495 4.894zM55.273 40.463a1.12 1.12 0 00-1.573.179l-1.697 2.135a1.119 1.119 0 101.752 1.393l1.697-2.135a1.119 1.119 0 00-.18-1.572zM62.329 31.597a1.12 1.12 0 00-1.572.18l-3.527 4.432a1.12 1.12 0 001.752 1.394l3.527-4.433a1.121 1.121 0 00-.18-1.573zM67.553 25.03a1.12 1.12 0 00-1.572.178l-1.698 2.136a1.12 1.12 0 001.752 1.394l1.698-2.136a1.121 1.121 0 00-.18-1.573z" fill="#C7B2AB"/><path d="M72.474 18.211a1.118 1.118 0 00-1.036-.136l-8.383 3.106a1.12 1.12 0 00.778 2.1l6.847-2.537-.126 7.301a1.12 1.12 0 001.1 1.139h.02a1.12 1.12 0 001.119-1.1l.153-8.939c.007-.37-.17-.72-.472-.934z" fill="#C7B2AB"/><circle opacity=".25" cx="7.5" cy="50.5" r="4.5" fill="#C7B2AB"/><circle opacity=".25" cx="24.5" cy="33.5" r="4.5" fill="#C7B2AB"/><circle opacity=".25" cx="47.5" cy="49.5" r="4.5" fill="#C7B2AB"/></svg>