<svg fill="none" xmlns="http://www.w3.org/2000/svg" viewBox="0 0 70 70"><path d="M52.03 14.482a16.44 16.44 0 00-11.945-4.19 16.432 16.432 0 00-11.408 5.483c-6.08 6.796-5.5 17.272 1.296 23.353a16.473 16.473 0 0011.02 4.206c4.544 0 9.07-1.856 12.332-5.501 6.081-6.794 5.5-17.27-1.296-23.351zm-.265 21.957c-5.31 5.935-14.461 6.443-20.397 1.13-5.936-5.312-6.443-14.462-1.132-20.398a14.35 14.35 0 019.964-4.79c.274-.014.546-.022.818-.022 3.557 0 6.944 1.291 9.616 3.682 5.936 5.312 6.443 14.462 1.131 20.398z" fill="#C7B2AB"/><path d="M63.25 25.457a22.07 22.07 0 00-7.434-15.29c-4.439-3.938-10.14-5.905-16.07-5.556a22.068 22.068 0 00-15.29 7.435c-7.892 8.898-7.325 22.42 1.106 30.638L21.953 46.8l-1.157-1.026a1.044 1.044 0 00-1.474.085L6.767 59.89a1.044 1.044 0 00.081 1.478l3.945 3.53a1.045 1.045 0 001.477-.082l12.573-14.05a1.046 1.046 0 00-.085-1.48l-1.239-1.097 3.607-4.114a22.026 22.026 0 0013.92 4.927c.451 0 .905-.014 1.36-.041a22.075 22.075 0 0015.29-7.435 22.065 22.065 0 005.555-16.069zM11.41 62.641l-2.385-2.134 11.163-12.475 2.396 2.124L11.409 62.64zM56.13 40.138a19.99 19.99 0 01-13.85 6.734c-5.364.33-10.535-1.466-14.556-5.032-8.3-7.362-9.064-20.105-1.702-28.406A19.99 19.99 0 0139.872 6.7c.412-.025.822-.037 1.232-.037 4.92 0 9.612 1.776 13.325 5.069a19.99 19.99 0 016.734 13.85 19.996 19.996 0 01-5.033 14.556z" fill="#C7B2AB"/><path opacity=".25" d="M7.5 60l12-13 4.5 3.5L12 64l-4.5-4z" fill="#C7B2AB"/><rect x="45" y="21" width="2" height="12" rx="1" fill="#C7B2AB"/><rect x="40" y="25" width="2" height="8" rx="1" fill="#C7B2AB"/><rect x="35" y="29" width="2" height="4" rx="1" fill="#C7B2AB"/></svg>