<svg width="63" height="61" viewBox="0 0 63 61" fill="none" xmlns="http://www.w3.org/2000/svg">
<path fill-rule="evenodd" clip-rule="evenodd" d="M23.4784 46.1524C23.4784 52.6718 18.2255 57.9573 11.7392 57.9573C5.25604 57.9549 0 52.6718 0 46.1524C0 41.8696 2.29071 38.1574 5.68022 36.086C5.67326 35.9623 5.6651 35.839 5.65694 35.7157C5.63571 35.3949 5.61448 35.074 5.61448 34.7466C5.61448 28.1449 8.08048 22.1348 12.1311 17.573C12.9093 16.6967 13.746 15.8737 14.6349 15.1104C14.8368 16.2262 15.1464 17.3039 15.553 18.3327C15.8448 19.0707 16.1865 19.7836 16.5742 20.4674C13.7601 23.4048 11.8056 27.1757 11.1175 31.3804C10.9546 32.3758 10.8626 33.3954 10.847 34.4341C10.9668 34.4251 11.084 34.4091 11.201 34.3933C11.3782 34.3692 11.5549 34.3452 11.7392 34.3452C12.3283 34.3454 12.9072 34.3892 13.473 34.4735C19.1345 35.3173 23.4806 40.2203 23.4784 46.1524ZM11.7671 37.3453C16.5674 37.3627 20.4802 41.2802 20.4784 46.1513V46.1524C20.4784 51.0309 16.553 54.9567 11.7403 54.9573M11.7671 37.3453C11.7541 37.3466 11.7276 37.3496 11.6831 37.3554L11.5842 37.3687C11.5463 37.3739 11.4993 37.3802 11.4496 37.3866C11.3501 37.3992 11.2201 37.4145 11.0736 37.4256L8.77008 37.6L8.77625 37.7098L7.24456 38.6459C4.69402 40.2045 3 42.9751 3 46.1524C3 51.0294 6.92729 54.9549 11.7392 54.9573" fill="#C7B2AB"/>
<path fill-rule="evenodd" clip-rule="evenodd" d="M40.0593 13.6883L40.0288 11.8991C39.9467 7.0829 36.0647 3.24609 31.3095 3.24609C26.4958 3.24609 22.5703 7.16944 22.5703 12.051C22.5703 16.9326 26.4967 20.8582 31.3095 20.8582C34.7431 20.8582 37.7159 18.8379 39.1451 15.8644L40.1648 13.743L40.0593 13.6883ZM50.9516 29.1051C49.8003 25.0592 47.4516 21.5378 44.3186 18.93C43.5416 18.2832 42.7163 17.6925 41.849 17.1641C41.5035 17.8829 41.0887 18.562 40.6133 19.1918C38.4778 22.0212 35.1183 23.8582 31.3095 23.8582C24.8232 23.8582 19.5703 18.5728 19.5703 12.051C19.5703 5.52838 24.8232 0.246094 31.3095 0.246094C37.727 0.246094 42.9188 5.42057 43.0284 11.8479C48.9787 14.9312 53.5976 20.2409 55.7164 26.7152C56.0767 27.8162 56.3647 28.9509 56.5747 30.114C55.5359 29.7394 54.4527 29.4584 53.3338 29.2893C52.556 29.1718 51.761 29.1083 50.9516 29.1051Z" fill="#C7B2AB"/>
<path fill-rule="evenodd" clip-rule="evenodd" d="M38.3781 54.0216C36.177 54.8605 33.8002 55.3357 31.3024 55.3357C29.6033 55.3357 27.9598 55.1051 26.3805 54.7101C25.9814 55.3984 25.5367 56.0558 25.0503 56.6783C24.3655 57.5545 23.5979 58.3615 22.7578 59.0881C23.8441 59.4745 24.9624 59.7934 26.1084 60.0359C27.7844 60.3905 29.5199 60.5818 31.3024 60.5818C36.4363 60.5818 41.2072 59.0527 45.2173 56.4422C46.8991 57.3803 48.804 57.9587 50.8654 57.9587C57.3509 57.9587 62.607 52.6733 62.607 46.1539C62.607 39.6313 57.3509 34.349 50.8654 34.3467C44.3815 34.349 39.1285 39.6313 39.1262 46.1539C39.1262 47.8858 39.4972 49.5308 40.164 51.0134C40.4362 51.6186 40.7577 52.1967 41.1234 52.7426C40.2439 53.2306 39.3273 53.6599 38.3781 54.0216ZM42.1262 46.155C42.1264 47.9813 42.6755 49.6691 43.6159 51.0729L44.937 53.0451L45.0977 52.9404L46.6787 53.8222C47.9739 54.5447 49.3803 54.9587 50.8654 54.9587C55.6787 54.9587 59.607 51.0319 59.607 46.1539C59.607 41.2739 55.6798 37.349 50.8654 37.3467C46.0544 37.349 42.1285 41.272 42.1262 46.1539" fill="#C7B2AB"/>
<path fill-rule="evenodd" clip-rule="evenodd" d="M31.3067 38.3064C33.2365 38.3064 34.8282 36.7299 34.8282 34.7484C34.8282 32.7648 33.2374 31.1904 31.3067 31.1904C29.3762 31.1904 27.7852 32.7653 27.7852 34.7484C27.7852 36.7299 29.3769 38.3064 31.3067 38.3064ZM31.3067 41.3064C34.9091 41.3064 37.8282 38.3709 37.8282 34.7484C37.8282 31.1228 34.9091 28.1904 31.3067 28.1904C27.7043 28.1904 24.7852 31.1235 24.7852 34.7484C24.7852 38.3709 27.7043 41.3064 31.3067 41.3064Z" fill="#C7B2AB"/>
</svg>
