<svg width="63" height="61" viewBox="0 0 63 61" fill="none" xmlns="http://www.w3.org/2000/svg">
<path d="M13.8187 17.9531C9.66678 22.319 7.11448 28.2257 7.11448 34.7466C7.11448 35.0218 7.13095 35.2702 7.15071 35.5684C7.15949 35.7008 7.16892 35.843 7.17785 36.0018L7.22823 36.8979L6.46239 37.3659C3.49237 39.181 1.5 42.4224 1.5 46.1524C1.5 51.8506 6.09167 56.4549 11.7392 56.4573L13.8187 17.9531ZM13.8187 17.9531C14.0814 18.7386 14.3951 19.5008 14.756 20.2357C11.4555 24.0381 9.42861 28.9845 9.34721 34.4116L9.32257 36.0539L10.9603 35.9298C11.1302 35.917 11.3055 35.893 11.4224 35.877C11.4468 35.8737 11.4686 35.8707 11.4873 35.8683C11.6209 35.8507 11.6884 35.8452 11.7387 35.8452L13.8187 17.9531ZM21.9784 46.1524V46.1519C21.9805 40.4491 17.3873 35.8475 11.7392 35.8452L21.9784 46.1524ZM21.9784 46.1524C21.9784 51.8514 17.3893 56.457 11.7398 56.4573L21.9784 46.1524Z" stroke="#C7B2AB" stroke-width="3"/>
<path d="M41.5286 11.8735L41.5439 12.7681L42.3383 13.1798C48.1921 16.213 52.672 21.528 54.5371 27.9817C53.7326 27.8146 52.9081 27.7 52.0668 27.6441C50.3842 22.6884 47.0031 18.5483 42.6296 15.8832L41.2148 15.021L40.4971 16.5142C38.8335 19.9751 35.3546 22.3582 31.3095 22.3582C25.66 22.3582 21.0703 17.7527 21.0703 12.051C21.0703 6.34891 25.6595 1.74609 31.3095 1.74609C36.8958 1.74609 41.4328 6.25174 41.5286 11.8735Z" stroke="#C7B2AB" stroke-width="3"/>
<path d="M25.5913 58.378C26.1333 57.7566 26.6347 57.0986 27.0919 56.4079C28.4479 56.6804 29.8535 56.8357 31.3024 56.8357C35.1555 56.8357 38.7308 55.7855 41.8512 54.0542L43.2774 53.2629L42.3696 51.9078C41.2687 50.2642 40.6263 48.2871 40.6262 46.1544L25.5913 58.378ZM25.5913 58.378C27.4242 58.8336 29.334 59.0818 31.3024 59.0818C36.1334 59.0818 40.6217 57.644 44.3989 55.1851L45.1575 54.6913L45.948 55.1322C47.4365 55.9625 49.0922 56.4587 50.8654 56.4587C56.5148 56.4587 61.107 51.8526 61.107 46.1539C61.107 40.4526 56.5154 35.849 50.8654 35.8467C45.2179 35.849 40.6285 40.4517 40.6262 46.1539L25.5913 58.378Z" stroke="#C7B2AB" stroke-width="3"/>
<path d="M36.3282 34.7484C36.3282 37.5504 34.0728 39.8064 31.3067 39.8064C28.5406 39.8064 26.2852 37.5504 26.2852 34.7484C26.2852 31.9444 28.5403 29.6904 31.3067 29.6904C34.0732 29.6904 36.3282 31.9438 36.3282 34.7484Z" stroke="#C7B2AB" stroke-width="3"/>
</svg>
