<svg width="63" height="61" viewBox="0 0 63 61" fill="none" xmlns="http://www.w3.org/2000/svg">
<path d="M13.8187 17.707C9.66678 22.0729 7.11448 27.9796 7.11448 34.5005C7.11448 34.7757 7.13095 35.0241 7.15071 35.3223C7.15949 35.4547 7.16892 35.5969 7.17785 35.7557L7.22823 36.6518L6.46239 37.1198C3.49237 38.9349 1.5 42.1763 1.5 45.9063C1.5 51.6045 6.09167 56.2088 11.7392 56.2112L13.8187 17.707ZM13.8187 17.707C14.0814 18.4925 14.3951 19.2547 14.756 19.9896C11.4555 23.792 9.42861 28.7384 9.34721 34.1655L9.32257 35.8078L10.9603 35.6837C11.1302 35.6709 11.3055 35.6469 11.4224 35.6309C11.4468 35.6276 11.4686 35.6246 11.4873 35.6222C11.6209 35.6046 11.6884 35.5991 11.7387 35.5991L13.8187 17.707ZM21.9784 45.9063V45.9058C21.9805 40.203 17.3873 35.6015 11.7392 35.5991L21.9784 45.9063ZM21.9784 45.9063C21.9784 51.6053 17.3893 56.2109 11.7398 56.2112L21.9784 45.9063Z" stroke="#C7B2AB" stroke-width="3"/>
<path d="M41.5286 11.6274L41.5439 12.522L42.3383 12.9337C48.1921 15.9669 52.672 21.2819 54.5371 27.7356C53.7326 27.5685 52.9081 27.4539 52.0668 27.398C50.3842 22.4423 47.0031 18.3022 42.6296 15.6371L41.2148 14.7749L40.4971 16.2681C38.8335 19.729 35.3546 22.1121 31.3095 22.1121C25.66 22.1121 21.0703 17.5066 21.0703 11.8049C21.0703 6.10282 25.6595 1.5 31.3095 1.5C36.8958 1.5 41.4328 6.00564 41.5286 11.6274Z" stroke="#C7B2AB" stroke-width="3"/>
<path d="M25.5913 58.1319C26.1333 57.5105 26.6347 56.8525 27.0919 56.1618C28.4479 56.4344 29.8535 56.5896 31.3024 56.5896C35.1555 56.5896 38.7308 55.5394 41.8512 53.8081L43.2774 53.0168L42.3696 51.6617C41.2687 50.0181 40.6263 48.041 40.6262 45.9083L25.5913 58.1319ZM25.5913 58.1319C27.4242 58.5875 29.334 58.8357 31.3024 58.8357C36.1334 58.8357 40.6217 57.3979 44.3989 54.939L45.1575 54.4452L45.948 54.8861C47.4365 55.7164 49.0922 56.2127 50.8654 56.2127C56.5148 56.2127 61.107 51.6065 61.107 45.9078C61.107 40.2065 56.5154 35.6029 50.8654 35.6006C45.2179 35.6029 40.6285 40.2056 40.6262 45.9078L25.5913 58.1319Z" stroke="#C7B2AB" stroke-width="3"/>
<path d="M36.3282 34.5023C36.3282 37.3043 34.0728 39.5603 31.3067 39.5603C28.5406 39.5603 26.2852 37.3043 26.2852 34.5023C26.2852 31.6983 28.5403 29.4443 31.3067 29.4443C34.0732 29.4443 36.3282 31.6977 36.3282 34.5023Z" stroke="#C7B2AB" stroke-width="3"/>
</svg>
