<svg fill="none" xmlns="http://www.w3.org/2000/svg" viewBox="0 0 75 75"><path d="M65.625 44.25H60V20.625a1.125 1.125 0 00-1.125-1.125H50.25V8.625A1.125 1.125 0 0049.125 7.5h-23.25a1.125 1.125 0 00-1.125 1.125V19.5h-8.625A1.125 1.125 0 0015 20.625V44.25H9.375a1.125 1.125 0 00-1.125 1.125v14.25a1.125 1.125 0 001.125 1.125h14.25a1.125 1.125 0 001.125-1.125v-14.25a1.125 1.125 0 00-1.125-1.125H17.25v-22.5h7.5v10.125A1.125 1.125 0 0025.875 33H36.75v11.25h-6.375a1.125 1.125 0 00-1.125 1.125v14.25a1.125 1.125 0 001.125 1.125h14.25a1.125 1.125 0 001.125-1.125v-14.25a1.125 1.125 0 00-1.125-1.125H39V33h10.125a1.125 1.125 0 001.125-1.125V21.75h7.5v22.5h-6.375a1.125 1.125 0 00-1.125 1.125v14.25a1.125 1.125 0 001.125 1.125h14.25a1.125 1.125 0 001.125-1.125v-14.25a1.125 1.125 0 00-1.125-1.125zM22.5 58.5h-12v-12h12v12zm21 0h-12v-12h12v12zM48 30.75H27v-21h21v21zM64.5 58.5h-12v-12h12v12z" fill="#C7B2AB"/><path opacity=".25" fill="#C7B2AB" d="M10 45h13v14H10zM31 45h13v14H31zM52 45h13v14H52z"/></svg>