<svg viewBox="0 0 61 61" fill="none" xmlns="http://www.w3.org/2000/svg">
<path d="M18.1252 25.6289C19.8501 25.6289 21.5091 25.8999 23.0723 26.3958C19.4449 30.7061 17.25 36.2768 17.25 42.3547C17.25 48.4333 19.4449 54.004 23.0723 58.3143C21.5088 58.8103 19.8501 59.0813 18.1252 59.0813C8.9513 59.0813 1.5 51.6004 1.5 42.3547C1.5 33.1098 8.95126 25.6289 18.1252 25.6289Z" stroke="#C7B2AB" stroke-width="3"/>
<path d="M26.0145 37.3812C30.2993 41.022 35.8358 43.2256 41.8784 43.2256C47.9216 43.2256 53.4581 41.022 57.7429 37.3812C58.2348 38.9533 58.5036 40.6203 58.5036 42.3539C58.5036 51.5995 51.0523 59.0803 41.8784 59.0803C32.7052 59.0803 25.2539 51.5995 25.2539 42.3539C25.2539 40.6204 25.5227 38.9531 26.0145 37.3812Z" stroke="#C7B2AB" stroke-width="3"/>
<path d="M36.9288 2.51326C38.4933 2.01712 40.1522 1.74609 41.8772 1.74609C51.0511 1.74609 58.5024 9.22699 58.5024 18.4727C58.5024 27.7175 51.0512 35.1985 41.8772 35.1985C40.1522 35.1985 38.4931 34.9275 36.9287 34.4314C40.5576 30.121 42.7524 24.5504 42.7524 18.4727C42.7524 12.3943 40.5577 6.82365 36.9288 2.51326Z" stroke="#C7B2AB" stroke-width="3"/>
<path d="M34.7497 18.4728C34.7497 20.2062 34.481 21.8733 33.9893 23.4442C29.7045 19.8048 24.168 17.601 18.1252 17.601C12.0818 17.601 6.54526 19.8048 2.26048 23.4441C1.76874 21.8731 1.5 20.2062 1.5 18.4728C1.5 9.22703 8.9513 1.74609 18.1252 1.74609C27.2984 1.74609 34.7497 9.22698 34.7497 18.4728Z" stroke="#C7B2AB" stroke-width="3"/>
</svg>
