<svg width="68" height="74" viewBox="0 0 68 74" fill="none" xmlns="http://www.w3.org/2000/svg">
<mask id="path-1-inside-1_2194_154868" fill="white">
<path fill-rule="evenodd" clip-rule="evenodd" d="M28.2607 27.1308C28.2607 23.1672 26.6287 19.5847 24 17.0186C26.5469 14.5325 30.0293 13.0005 33.8696 13.0005C41.6736 13.0005 48 19.3269 48 27.1308C48 30.9711 46.468 34.4536 43.9818 37.0005C41.4158 34.3718 37.8333 32.7398 33.8696 32.7398C30.7644 32.7398 27.893 33.7415 25.5611 35.4394C27.259 33.1075 28.2607 30.2361 28.2607 27.1308ZM24 37.243C24.5693 36.6873 25.0918 36.084 25.5611 35.4394C24.9165 35.9087 24.3132 36.4312 23.7574 37.0005C21.2713 34.4536 19.7393 30.9711 19.7393 27.1308C19.7393 23.1672 21.3713 19.5847 24 17.0186C21.4531 14.5325 17.9706 13.0005 14.1303 13.0005C6.32636 13.0005 0 19.3269 0 27.1308C0 34.9348 6.32636 41.2612 14.1303 41.2612C17.2356 41.2612 20.107 40.2595 22.4389 38.5616C20.741 40.8935 19.7393 43.7649 19.7393 46.8701C19.7393 54.6741 26.0657 61.0005 33.8696 61.0005C41.6736 61.0005 48 54.6741 48 46.8701C48 43.0298 46.468 39.5474 43.9818 37.0005C41.4158 39.6292 37.8333 41.2612 33.8696 41.2612C30.0293 41.2612 26.5469 39.7292 24 37.243ZM24 37.243C23.5125 37.7189 22.9908 38.1597 22.4389 38.5616C22.8407 38.0097 23.2816 37.4879 23.7574 37.0005C23.8373 37.0823 23.9182 37.1632 24 37.243Z"/>
</mask>
<path fill-rule="evenodd" clip-rule="evenodd" d="M28.2607 27.1308C28.2607 23.1672 26.6287 19.5847 24 17.0186C26.5469 14.5325 30.0293 13.0005 33.8696 13.0005C41.6736 13.0005 48 19.3269 48 27.1308C48 30.9711 46.468 34.4536 43.9818 37.0005C41.4158 34.3718 37.8333 32.7398 33.8696 32.7398C30.7644 32.7398 27.893 33.7415 25.5611 35.4394C27.259 33.1075 28.2607 30.2361 28.2607 27.1308ZM24 37.243C24.5693 36.6873 25.0918 36.084 25.5611 35.4394C24.9165 35.9087 24.3132 36.4312 23.7574 37.0005C21.2713 34.4536 19.7393 30.9711 19.7393 27.1308C19.7393 23.1672 21.3713 19.5847 24 17.0186C21.4531 14.5325 17.9706 13.0005 14.1303 13.0005C6.32636 13.0005 0 19.3269 0 27.1308C0 34.9348 6.32636 41.2612 14.1303 41.2612C17.2356 41.2612 20.107 40.2595 22.4389 38.5616C20.741 40.8935 19.7393 43.7649 19.7393 46.8701C19.7393 54.6741 26.0657 61.0005 33.8696 61.0005C41.6736 61.0005 48 54.6741 48 46.8701C48 43.0298 46.468 39.5474 43.9818 37.0005C41.4158 39.6292 37.8333 41.2612 33.8696 41.2612C30.0293 41.2612 26.5469 39.7292 24 37.243ZM24 37.243C23.5125 37.7189 22.9908 38.1597 22.4389 38.5616C22.8407 38.0097 23.2816 37.4879 23.7574 37.0005C23.8373 37.0823 23.9182 37.1632 24 37.243Z" fill="#2250FF"/>
<path d="M19.7393 46.8701H18.8872H19.7393ZM23.4047 17.6284C25.8759 20.0407 27.4085 23.406 27.4085 27.1308H29.1128C29.1128 22.9283 27.3814 19.1286 24.5952 16.4089L23.4047 17.6284ZM33.8696 12.1484C29.798 12.1484 26.1043 13.7736 23.4047 16.4089L24.5952 17.6284C26.9894 15.2913 30.2606 13.8526 33.8696 13.8526V12.1484ZM48.8521 27.1308C48.8521 18.8562 42.1442 12.1484 33.8696 12.1484V13.8526C41.203 13.8526 47.1478 19.7975 47.1478 27.1308H48.8521ZM44.5916 37.5957C47.2269 34.8961 48.8521 31.2024 48.8521 27.1308H47.1478C47.1478 30.7398 45.7091 34.0111 43.3721 36.4052L44.5916 37.5957ZM44.5916 36.4052C41.8718 33.6191 38.0722 31.8877 33.8696 31.8877V33.5919C37.5944 33.5919 40.9598 35.1245 43.3721 37.5957L44.5916 36.4052ZM33.8696 31.8877C30.5781 31.8877 27.5323 32.9501 25.0595 34.7505L26.0627 36.1282C28.2538 34.5329 30.9506 33.5919 33.8696 33.5919V31.8877ZM27.4085 27.1308C27.4085 30.0499 26.4676 32.7467 24.8722 34.9378L26.25 35.9409C28.0504 33.4682 29.1128 30.4223 29.1128 27.1308H27.4085ZM24.8722 34.9378C24.4311 35.5436 23.9399 36.1108 23.4047 36.6333L24.5952 37.8528C25.1986 37.2638 25.7525 36.6243 26.25 35.9409L24.8722 34.9378ZM25.0595 34.7505C24.3762 35.248 23.7367 35.8019 23.1477 36.4053L24.3672 37.5957C24.8896 37.0606 25.4568 36.5694 26.0627 36.1282L25.0595 34.7505ZM24.3672 36.4053C22.0302 34.0111 20.5914 30.7398 20.5914 27.1308H18.8872C18.8872 31.2024 20.5124 34.8961 23.1477 37.5957L24.3672 36.4053ZM20.5914 27.1308C20.5914 23.406 22.124 20.0407 24.5952 17.6284L23.4047 16.4089C20.6186 19.1286 18.8872 22.9283 18.8872 27.1308H20.5914ZM24.5952 16.4089C21.8956 13.7736 18.2019 12.1484 14.1303 12.1484V13.8526C17.7393 13.8526 21.0106 15.2913 23.4047 17.6284L24.5952 16.4089ZM14.1303 12.1484C5.85574 12.1484 -0.852137 18.8562 -0.852137 27.1308H0.852137C0.852137 19.7975 6.79699 13.8526 14.1303 13.8526V12.1484ZM-0.852137 27.1308C-0.852137 35.4054 5.85574 42.1133 14.1303 42.1133V40.409C6.79699 40.409 0.852137 34.4642 0.852137 27.1308H-0.852137ZM14.1303 42.1133C17.4218 42.1133 20.4677 41.0509 22.9404 39.2505L21.9373 37.8727C19.7462 39.4681 17.0494 40.409 14.1303 40.409V42.1133ZM21.75 38.06C19.9496 40.5328 18.8872 43.5786 18.8872 46.8701H20.5914C20.5914 43.9511 21.5324 41.2543 23.1277 39.0632L21.75 38.06ZM18.8872 46.8701C18.8872 55.1447 25.5951 61.8526 33.8696 61.8526V60.1483C26.5363 60.1483 20.5914 54.2035 20.5914 46.8701H18.8872ZM33.8696 61.8526C42.1442 61.8526 48.8521 55.1447 48.8521 46.8701H47.1478C47.1478 54.2035 41.203 60.1483 33.8696 60.1483V61.8526ZM48.8521 46.8701C48.8521 42.7986 47.2269 39.1048 44.5916 36.4052L43.3721 37.5957C45.7091 39.9899 47.1478 43.2611 47.1478 46.8701H48.8521ZM33.8696 42.1133C38.0722 42.1133 41.8718 40.3819 44.5916 37.5957L43.3721 36.4052C40.9598 38.8764 37.5944 40.409 33.8696 40.409V42.1133ZM23.4047 37.8528C26.1043 40.4881 29.798 42.1133 33.8696 42.1133V40.409C30.2606 40.409 26.9894 38.9703 24.5952 36.6333L23.4047 37.8528ZM22.9404 39.2505C23.5256 38.8245 24.0786 38.3571 24.5952 37.8528L23.4047 36.6333C22.9465 37.0806 22.4561 37.495 21.9373 37.8727L22.9404 39.2505ZM23.1477 36.4053C22.6433 36.9219 22.176 37.4749 21.75 38.06L23.1277 39.0632C23.5055 38.5444 23.9199 38.054 24.3672 37.5957L23.1477 36.4053ZM24.5952 36.6332C24.5183 36.5582 24.4423 36.4822 24.3672 36.4053L23.1477 37.5957C23.2323 37.6825 23.318 37.7682 23.4047 37.8528L24.5952 36.6332Z" fill="#2250FF" mask="url(#path-1-inside-1_2194_154868)"/>
<path d="M33.728 33.0252C41.2966 33.0252 47.4323 39.1609 47.4323 46.7295C47.4323 54.2982 41.2966 60.4338 33.728 60.4338C26.1593 60.4338 20.0237 54.2982 20.0237 46.7295C20.0237 39.1609 26.1593 33.0252 33.728 33.0252Z" fill="white" stroke="#2250FF" stroke-width="0.852137"/>
<path d="M53.4663 33.0252C61.0349 33.0252 67.1705 39.1609 67.1705 46.7295C67.1705 54.2982 61.0349 60.4338 53.4663 60.4338C45.8976 60.4338 39.762 54.2982 39.762 46.7295C39.762 39.1609 45.8976 33.0252 53.4663 33.0252Z" stroke="#2250FF" stroke-width="0.852137"/>
<path d="M33.728 13.4266C41.2966 13.4266 47.4323 19.5622 47.4323 27.1309C47.4323 34.6995 41.2966 40.8352 33.728 40.8352C26.1593 40.8352 20.0237 34.6996 20.0237 27.1309C20.0237 19.5622 26.1593 13.4266 33.728 13.4266Z" stroke="#2250FF" stroke-width="0.852137"/>
</svg>
