<svg width="24" height="24" viewBox="0 0 24 24" fill="none" xmlns="http://www.w3.org/2000/svg">
<path d="M9.38127 10.8072C8.82829 9.69982 7.58637 9.1181 6.38163 9.40217C5.1769 9.68624 4.32568 10.7615 4.32568 11.9993C4.32568 13.2371 5.1769 14.3123 6.38163 14.5964C7.58637 14.8805 8.82829 14.2987 9.38127 13.1914" stroke="white"/>
<path d="M17.0035 9.66522C18.2002 9.66815 19.2533 8.87591 19.5821 7.72528C19.9109 6.57465 19.4356 5.3456 18.418 4.71573C17.4005 4.08586 16.0884 4.20844 15.2052 5.01588C14.3219 5.82331 14.0824 7.11915 14.6187 8.18896" stroke="white"/>
<path d="M14.6184 15.8104C14.0852 16.8776 14.3251 18.1691 15.206 18.9735C16.087 19.778 17.3948 19.9 18.4093 19.2723C19.4238 18.6446 19.8984 17.4197 19.5717 16.2723C19.2449 15.125 18.1963 14.3339 17.0033 14.3348" stroke="white"/>
<path d="M17.0034 9.66522C15.9931 9.6643 15.07 9.09285 14.6186 8.18896L9.38135 10.8073C9.76027 11.5571 9.76027 12.4423 9.38135 13.1921L14.6186 15.8111C15.07 14.9072 15.9931 14.3357 17.0034 14.3348" stroke="white"/>
</svg>
