<svg className="w-full h-auto relative" viewBox="0 0 82 82" fill="none" xmlns="http://www.w3.org/2000/svg">
<path d="M34.1426 37.5714H31.5712C31.1166 37.5714 30.6805 37.752 30.359 38.0735C30.0375 38.395 29.8569 38.831 29.8569 39.2857V42.7143C29.8569 43.1689 30.0375 43.605 30.359 43.9265C30.6805 44.2479 31.1166 44.4286 31.5712 44.4286H34.1426V37.5714Z" stroke="white" stroke-linecap="round" stroke-linejoin="round"/>
<path d="M34.1426 44.4285L40.8454 49.2457C41.0938 49.4175 41.3831 49.5207 41.6841 49.5448C41.9852 49.5689 42.2872 49.513 42.5597 49.3828C42.8553 49.2501 43.1071 49.0363 43.2861 48.7663C43.4651 48.4962 43.564 48.181 43.5711 47.8571V34.1428C43.5785 33.835 43.5028 33.5308 43.3519 33.2624C43.2011 32.9939 42.9807 32.771 42.714 32.6171C42.4415 32.487 42.1395 32.4311 41.8384 32.4552C41.5374 32.4792 41.2481 32.5824 40.9997 32.7543L34.1426 37.5714" stroke="white" stroke-linecap="round" stroke-linejoin="round"/>
<path d="M50.4282 35.8571C51.6201 37.298 52.2315 39.132 52.1425 40.9999C52.1168 43.1171 51.5249 45.1887 50.4282 46.9999" stroke="white" stroke-linecap="round" stroke-linejoin="round"/>
<path d="M47 38.4286C47.596 39.1491 47.9016 40.066 47.8571 41C47.9016 41.934 47.596 42.8509 47 43.5714" stroke="white" stroke-linecap="round" stroke-linejoin="round"/>
<rect x="0.5" y="0.5" width="81" height="81" rx="40.5" stroke="white"/>
</svg>
