<svg width="28" height="33" viewBox="0 0 28 33" fill="none" xmlns="http://www.w3.org/2000/svg">
<circle cx="14" cy="14" r="14" fill="#9E6AFF"/>
<circle cx="14" cy="14" r="4.5" fill="#8900FF" stroke="#8900FF" stroke-width="3"/>
<path d="M13.3342 15.3793V23.3369C12.0451 23.3369 11 24.3819 11 25.6711V26.3784C11 29.738 13.7235 32.4615 17.0831 32.4615H17.8965C21.7054 32.4615 24.7931 29.3738 24.7931 25.565V24.7162C24.7931 23.134 23.5105 21.8515 21.9284 21.8515C21.9284 21.2655 21.4534 20.7905 20.8674 20.7905H19.2228C19.2228 20.2045 18.7478 19.7294 18.1618 19.7294H16.0928V15.3793C16.0928 14.6175 15.4753 14 14.7135 14C13.9518 14 13.3342 14.6175 13.3342 15.3793Z" stroke="white"/>
<path d="M16.0938 19.7295V22.2759" stroke="white"/>
<path d="M19.2344 20.79V23.3365" stroke="white"/>
<path d="M21.9297 21.6387V24.1851" stroke="white"/>
<path d="M13.3359 22.7002V26.0954" stroke="white"/>
</svg>
