<svg viewBox="0 0 24 24" fill="none" xmlns="http://www.w3.org/2000/svg">
<path d="M0.75 0.75H9.75V9.75H0.75V0.75Z" stroke="black" stroke-width="1.5" stroke-linecap="round" stroke-linejoin="round"/>
<path d="M14.25 5.25C14.25 5.84095 14.3664 6.42611 14.5925 6.97208C14.8187 7.51804 15.1502 8.01412 15.568 8.43198C15.9859 8.84984 16.482 9.18131 17.0279 9.40746C17.5739 9.6336 18.1591 9.75 18.75 9.75C19.3409 9.75 19.9261 9.6336 20.4721 9.40746C21.018 9.18131 21.5141 8.84984 21.932 8.43198C22.3498 8.01412 22.6813 7.51804 22.9075 6.97208C23.1336 6.42611 23.25 5.84095 23.25 5.25C23.25 4.65905 23.1336 4.07389 22.9075 3.52792C22.6813 2.98196 22.3498 2.48588 21.932 2.06802C21.5141 1.65016 21.018 1.31869 20.4721 1.09254C19.9261 0.866396 19.3409 0.75 18.75 0.75C18.1591 0.75 17.5739 0.866396 17.0279 1.09254C16.482 1.31869 15.9859 1.65016 15.568 2.06802C15.1502 2.48588 14.8187 2.98196 14.5925 3.52792C14.3664 4.07389 14.25 4.65905 14.25 5.25V5.25Z" stroke="currentColor" stroke-width="1.5" stroke-linecap="round" stroke-linejoin="round"/>
<path d="M18.786 13.977C18.7112 13.8332 18.5983 13.7126 18.4597 13.6285C18.3211 13.5444 18.1621 13.4999 18 13.4999C17.8379 13.4999 17.6789 13.5444 17.5403 13.6285C17.4017 13.7126 17.2888 13.8332 17.214 13.977L12.877 21.784C12.795 21.9333 12.7514 22.1007 12.7501 22.2711C12.7489 22.4415 12.7901 22.6095 12.87 22.76C12.9453 22.9059 13.0589 23.0286 13.1986 23.1149C13.3383 23.2012 13.4988 23.2479 13.663 23.25H22.337C22.5012 23.2479 22.6617 23.2012 22.8014 23.1149C22.9411 23.0286 23.0547 22.9059 23.13 22.76C23.2099 22.6095 23.2511 22.4415 23.2499 22.2711C23.2486 22.1007 23.205 21.9333 23.123 21.784L18.786 13.977Z" stroke="currentColor" stroke-width="1.5" stroke-linecap="round" stroke-linejoin="round"/>
<path d="M5.851 13.034C5.77801 12.9456 5.68637 12.8744 5.58264 12.8255C5.47891 12.7766 5.36567 12.7513 5.251 12.7513C5.13633 12.7513 5.02309 12.7766 4.91936 12.8255C4.81563 12.8744 4.72399 12.9456 4.651 13.034L0.941 17.471C0.817372 17.6196 0.74968 17.8067 0.74968 18C0.74968 18.1933 0.817372 18.3805 0.941 18.529L4.649 22.966C4.72199 23.0545 4.81363 23.1257 4.91736 23.1745C5.02109 23.2234 5.13433 23.2488 5.249 23.2488C5.36367 23.2488 5.47691 23.2234 5.58064 23.1745C5.68437 23.1257 5.77601 23.0545 5.849 22.966L9.557 18.529C9.68063 18.3805 9.74832 18.1933 9.74832 18C9.74832 17.8067 9.68063 17.6196 9.557 17.471L5.851 13.034Z" stroke="currentColor" stroke-width="1.5" stroke-linecap="round" stroke-linejoin="round"/>
</svg>
