<svg width="24" height="24" viewBox="0 0 24 24" fill="none" xmlns="http://www.w3.org/2000/svg">
<path d="M11.245 7.49998C10.8014 6.906 10.5439 6.19386 10.5049 5.45356C10.4659 4.71326 10.6471 3.978 11.0258 3.34068C11.4045 2.70337 11.9636 2.19259 12.6324 1.87288C13.3013 1.55317 14.0499 1.43888 14.7837 1.54444C15.5174 1.65001 16.2035 1.97069 16.7551 2.46597C17.3067 2.96126 17.6991 3.60892 17.8828 4.32714C18.0664 5.04536 18.0331 5.8019 17.787 6.50119C17.5409 7.20047 17.093 7.81112 16.5 8.25598" stroke="currentColor" stroke-width="1.5" stroke-linecap="round" stroke-linejoin="round"/>
<path d="M23.25 9C23.25 10.1935 22.7759 11.3381 21.932 12.182C21.0881 13.0259 19.9435 13.5 18.75 13.5H17.25" stroke="currentColor" stroke-width="1.5" stroke-linecap="round" stroke-linejoin="round"/>
<path d="M4.563 10.501H6.75" stroke="currentColor" stroke-width="1.5" stroke-linecap="round" stroke-linejoin="round"/>
<path d="M7.063 13.5C7.46082 13.5 7.84236 13.658 8.12366 13.9393C8.40496 14.2206 8.563 14.6022 8.563 15V18" stroke="currentColor" stroke-width="1.5" stroke-linecap="round" stroke-linejoin="round"/>
<path d="M17.25 22.5V18H19.5C20.2226 17.9997 20.9297 17.7905 21.5363 17.3977C22.1428 17.0048 22.6228 16.4451 22.9187 15.7858C23.2145 15.1265 23.3135 14.3958 23.2037 13.6816C23.094 12.9673 22.7801 12.3 22.3 11.76C22.8163 11.0952 23.1357 10.2988 23.2221 9.46151C23.3084 8.62419 23.1581 7.77944 22.7884 7.02325C22.4186 6.26705 21.8442 5.62973 21.1303 5.18369C20.4164 4.73765 19.5918 4.50078 18.75 4.49999C18.4776 4.5005 18.2059 4.52561 17.938 4.57499C17.7687 3.65527 17.2618 2.83201 16.5168 2.26672C15.7718 1.70142 14.8424 1.43489 13.9111 1.51941C12.9797 1.60393 12.1135 2.03341 11.4825 2.72358C10.8514 3.41375 10.501 4.31481 10.5 5.24999C10.5 5.33799 10.5 5.42499 10.51 5.51099C9.77091 5.24774 8.97584 5.1823 8.20365 5.32115C7.43146 5.46001 6.70899 5.79835 6.10792 6.30259C5.50684 6.80684 5.04805 7.45948 4.77705 8.19576C4.50605 8.93205 4.43226 9.72639 4.563 10.5H4.5C3.50544 10.5 2.55161 10.8951 1.84835 11.5983C1.14509 12.3016 0.75 13.2554 0.75 14.25C0.75 15.2446 1.14509 16.1984 1.84835 16.9016C2.55161 17.6049 3.50544 18 4.5 18H8.563C8.7893 18.5185 9.13001 18.9792 9.55959 19.3473C9.98917 19.7155 10.4965 19.9817 11.0436 20.126C11.5906 20.2703 12.1632 20.289 12.7185 20.1805C13.2738 20.0721 13.7974 19.8395 14.25 19.5V22.5" stroke="currentColor" stroke-width="1.5" stroke-linecap="round" stroke-linejoin="round"/>
<path d="M14.25 19.5V16.5C14.25 16.1022 14.092 15.7206 13.8107 15.4393C13.5294 15.158 13.1478 15 12.75 15H11.25" stroke="currentColor" stroke-width="1.5" stroke-linecap="round" stroke-linejoin="round"/>
</svg>
