<svg width="24" height="24" viewBox="0 0 24 24" fill="none" xmlns="http://www.w3.org/2000/svg">
<path d="M7.281 9.37601C7.40362 9.5114 7.55324 9.61961 7.72022 9.69367C7.8872 9.76772 8.06784 9.80598 8.2505 9.80598C8.43317 9.80598 8.61381 9.76772 8.78079 9.69367C8.94777 9.61961 9.09738 9.5114 9.22 9.37601L9.847 8.67601C10.0278 8.4761 10.266 8.33702 10.5289 8.27784C10.7919 8.21866 11.0667 8.24229 11.3157 8.34548C11.5647 8.44867 11.7756 8.62636 11.9196 8.85419C12.0636 9.08202 12.1336 9.34883 12.12 9.61801L12.073 10.552C12.0627 10.7347 12.0911 10.9176 12.1564 11.0886C12.2217 11.2596 12.3223 11.4149 12.4517 11.5443C12.5811 11.6737 12.7364 11.7744 12.9074 11.8396C13.0784 11.9049 13.2613 11.9333 13.444 11.923L14.378 11.876C14.6473 11.862 14.9144 11.9318 15.1424 12.0758C15.3705 12.2198 15.5483 12.4309 15.6515 12.6801C15.7547 12.9293 15.7781 13.2043 15.7185 13.4673C15.659 13.7304 15.5194 13.9685 15.319 14.149L14.625 14.776C14.4893 14.8985 14.3809 15.048 14.3066 15.215C14.2324 15.382 14.194 15.5627 14.194 15.7455C14.194 15.9283 14.2324 16.109 14.3066 16.276C14.3809 16.443 14.4893 16.5926 14.625 16.715L15.319 17.342C15.5194 17.5225 15.659 17.7606 15.7185 18.0237C15.7781 18.2867 15.7547 18.5617 15.6515 18.8109C15.5483 19.0601 15.3705 19.2712 15.1424 19.4152C14.9144 19.5592 14.6473 19.629 14.378 19.615L13.444 19.568C13.2615 19.5585 13.079 19.5875 12.9083 19.653C12.7377 19.7186 12.5827 19.8192 12.4535 19.9485C12.3242 20.0777 12.2236 20.2327 12.158 20.4033C12.0925 20.574 12.0635 20.7565 12.073 20.939L12.12 21.873C12.1336 22.1422 12.0636 22.409 11.9196 22.6368C11.7756 22.8647 11.5647 23.0423 11.3157 23.1455C11.0667 23.2487 10.7919 23.2724 10.5289 23.2132C10.266 23.154 10.0278 23.0149 9.847 22.815L9.22 22.115C9.09738 21.9796 8.94777 21.8714 8.78079 21.7974C8.61381 21.7233 8.43317 21.685 8.2505 21.685C8.06784 21.685 7.8872 21.7233 7.72022 21.7974C7.55324 21.8714 7.40362 21.9796 7.281 22.115L6.654 22.815C6.47322 23.0149 6.23503 23.154 5.97208 23.2132C5.70913 23.2724 5.43431 23.2487 5.18532 23.1455C4.93633 23.0423 4.72537 22.8647 4.58136 22.6368C4.43736 22.409 4.36737 22.1422 4.381 21.873L4.428 20.939C4.43718 20.7565 4.408 20.5742 4.34235 20.4037C4.27669 20.2332 4.17603 20.0784 4.04684 19.9492C3.91765 19.82 3.76282 19.7193 3.59232 19.6537C3.42183 19.588 3.23947 19.5588 3.057 19.568L2.123 19.615C1.85382 19.6286 1.58702 19.5586 1.35919 19.4146C1.13136 19.2706 0.95366 19.0597 0.850471 18.8107C0.747283 18.5617 0.723657 18.2869 0.782834 18.0239C0.842011 17.761 0.981093 17.5228 1.181 17.342L1.876 16.715C2.01139 16.5924 2.1196 16.4428 2.19366 16.2758C2.26771 16.1088 2.30597 15.9282 2.30597 15.7455C2.30597 15.5628 2.26771 15.3822 2.19366 15.2152C2.1196 15.0482 2.01139 14.8986 1.876 14.776L1.181 14.149C0.981093 13.9682 0.842011 13.73 0.782834 13.4671C0.723657 13.2041 0.747283 12.9293 0.850471 12.6803C0.95366 12.4313 1.13136 12.2204 1.35919 12.0764C1.58702 11.9324 1.85382 11.8624 2.123 11.876L3.057 11.923C3.23955 11.9325 3.42205 11.9035 3.59268 11.838C3.76332 11.7725 3.91828 11.6718 4.04754 11.5425C4.17679 11.4133 4.27745 11.2583 4.34299 11.0877C4.40853 10.9171 4.43749 10.7346 4.428 10.552L4.381 9.61801C4.36737 9.34883 4.43736 9.08202 4.58136 8.85419C4.72537 8.62636 4.93633 8.44867 5.18532 8.34548C5.43431 8.24229 5.70913 8.21866 5.97208 8.27784C6.23503 8.33702 6.47322 8.4761 6.654 8.67601L7.281 9.37601Z" stroke="#0E0916" stroke-width="1.5" stroke-linecap="round" stroke-linejoin="round"/>
<path d="M6.375 15.751C6.375 16.2483 6.57254 16.7252 6.92417 17.0768C7.27581 17.4285 7.75272 17.626 8.25 17.626C8.74728 17.626 9.22419 17.4285 9.57583 17.0768C9.92746 16.7252 10.125 16.2483 10.125 15.751C10.125 15.2537 9.92746 14.7768 9.57583 14.4252C9.22419 14.0736 8.74728 13.876 8.25 13.876C7.75272 13.876 7.27581 14.0736 6.92417 14.4252C6.57254 14.7768 6.375 15.2537 6.375 15.751V15.751Z" stroke="#0E0916" stroke-width="1.5" stroke-linecap="round" stroke-linejoin="round"/>
<path d="M18.638 5C18.5638 5 18.4913 5.02199 18.4297 5.0632C18.368 5.1044 18.3199 5.16297 18.2915 5.23149C18.2632 5.30002 18.2557 5.37542 18.2702 5.44816C18.2847 5.5209 18.3204 5.58772 18.3728 5.64016C18.4253 5.69261 18.4921 5.72833 18.5648 5.74279C18.6376 5.75726 18.713 5.74984 18.7815 5.72145C18.85 5.69307 18.9086 5.64501 18.9498 5.58334C18.991 5.52167 19.013 5.44917 19.013 5.375C19.013 5.27554 18.9735 5.18016 18.9032 5.10984C18.8328 5.03951 18.7375 5 18.638 5Z" stroke="#0E0916" stroke-width="1.5" stroke-linecap="round" stroke-linejoin="round"/>
<path d="M21.194 1.848C21.3297 1.79517 21.4778 1.78298 21.6203 1.81292C21.7628 1.84285 21.8935 1.91361 21.9964 2.01657C22.0994 2.11952 22.1701 2.25022 22.2001 2.39271C22.23 2.53519 22.2178 2.68332 22.165 2.819L21.665 4.105C21.6071 4.25348 21.5982 4.41655 21.6393 4.57049C21.6805 4.72444 21.7697 4.86123 21.894 4.961L22.969 5.825C23.0825 5.91609 23.167 6.03821 23.2122 6.17649C23.2575 6.31476 23.2615 6.46322 23.2239 6.60376C23.1863 6.7443 23.1086 6.87087 23.0003 6.96803C22.892 7.0652 22.7578 7.12877 22.614 7.151L21.251 7.362C21.0935 7.38608 20.9478 7.45977 20.835 7.57234C20.7223 7.68492 20.6483 7.83053 20.624 7.988L20.413 9.352C20.3908 9.49578 20.3272 9.63 20.23 9.73829C20.1329 9.84658 20.0063 9.92428 19.8658 9.9619C19.7252 9.99953 19.5768 9.99547 19.4385 9.9502C19.3002 9.90494 19.1781 9.82044 19.087 9.707L18.223 8.632C18.1232 8.50781 17.9864 8.41859 17.8326 8.37725C17.6787 8.3359 17.5156 8.34457 17.367 8.402L16.081 8.902C15.9453 8.95482 15.7972 8.96701 15.6547 8.93707C15.5122 8.90714 15.3815 8.83638 15.2786 8.73343C15.1756 8.63047 15.1049 8.49978 15.0749 8.35729C15.045 8.2148 15.0572 8.06668 15.11 7.931L15.61 6.645C15.6679 6.49651 15.6768 6.33344 15.6357 6.1795C15.5945 6.02555 15.5053 5.88876 15.381 5.789L14.306 4.924C14.1928 4.83297 14.1085 4.71099 14.0633 4.5729C14.0182 4.43481 14.0142 4.28657 14.0518 4.14625C14.0895 4.00593 14.1671 3.87958 14.2752 3.78259C14.3834 3.6856 14.5174 3.62216 14.661 3.6L16.024 3.389C16.1815 3.36456 16.3272 3.29063 16.4399 3.17791C16.5526 3.06519 16.6266 2.91952 16.651 2.762L16.862 1.4C16.884 1.25619 16.9474 1.12189 17.0445 1.01352C17.1415 0.905149 17.268 0.827389 17.4086 0.789738C17.5491 0.752088 17.6975 0.756177 17.8358 0.801507C17.974 0.846837 18.0961 0.931445 18.187 1.045L19.052 2.12C19.1519 2.24414 19.2887 2.33325 19.4426 2.37443C19.5965 2.4156 19.7595 2.40669 19.908 2.349L21.194 1.848Z" stroke="#0E0916" stroke-width="1.5" stroke-linecap="round" stroke-linejoin="round"/>
</svg>
