<svg width="24" height="24" viewBox="0 0 24 24" fill="none" xmlns="http://www.w3.org/2000/svg">
<path d="M3.132 12.8L3.58 11.625L2.534 8.88101C2.4589 8.68309 2.45365 8.46545 2.51911 8.26413C2.58458 8.06282 2.71684 7.8899 2.894 7.77401L5.352 6.16901L6.119 3.33501C6.17441 3.13063 6.29805 2.95135 6.4694 2.82693C6.64075 2.70251 6.8495 2.64044 7.061 2.65101L9.993 2.80001L12.279 0.955009C12.444 0.821971 12.6496 0.74942 12.8615 0.74942C13.0734 0.74942 13.279 0.821971 13.444 0.955009L15.73 2.80001L18.662 2.65401C18.8735 2.64344 19.0822 2.70551 19.2536 2.82993C19.4249 2.95435 19.5486 3.13363 19.604 3.33801L20.371 6.17201L22.829 7.77701C23.0063 7.89277 23.1387 8.06568 23.2041 8.26704C23.2696 8.46841 23.2643 8.68611 23.189 8.88401L22.144 11.628L23.189 14.371C23.2644 14.5691 23.2697 14.7869 23.2043 14.9885C23.1388 15.19 23.0064 15.3631 22.829 15.479L20.371 17.079L19.6 19.914C19.5449 20.1187 19.4214 20.2983 19.25 20.4229C19.0786 20.5476 18.8697 20.6097 18.658 20.599L15.726 20.453L13.44 22.294" stroke="currentColor" stroke-width="1.5" stroke-linecap="round" stroke-linejoin="round"/>
<path d="M0.75 19.769L2.406 22.378" stroke="currentColor" stroke-width="1.5" stroke-linecap="round" stroke-linejoin="round"/>
<path d="M9.908 8.147L16.202 18.063" stroke="currentColor" stroke-width="1.5" stroke-linecap="round" stroke-linejoin="round"/>
<path d="M15.871 17.541L2.075 21.857L1.081 20.291L10.239 8.66901L15.871 17.541Z" stroke="currentColor" stroke-width="1.5" stroke-linecap="round" stroke-linejoin="round"/>
<path d="M5.056 20.924L5.932 22.27C6.07684 22.5075 6.26869 22.7128 6.49577 22.8734C6.72285 23.0341 6.98037 23.1466 7.25251 23.2041C7.52465 23.2616 7.80567 23.2628 8.07831 23.2078C8.35096 23.1528 8.60948 23.0426 8.838 22.884C9.30518 22.5478 9.62619 22.0457 9.73531 21.4806C9.84444 20.9155 9.73342 20.33 9.425 19.844L9.262 19.608" stroke="currentColor" stroke-width="1.5" stroke-linecap="round" stroke-linejoin="round"/>
</svg>
