<svg viewBox="0 0 24 24" fill="none" xmlns="http://www.w3.org/2000/svg">
<path d="M22.63 14.87L15 22.5L11.25 23.25L12 19.5L19.63 11.87C19.8263 11.6733 20.0595 11.5173 20.3162 11.4109C20.5729 11.3044 20.8481 11.2496 21.126 11.2496C21.4039 11.2496 21.6791 11.3044 21.9358 11.4109C22.1925 11.5173 22.4257 11.6733 22.622 11.87L22.63 11.878C22.8267 12.0743 22.9827 12.3075 23.0891 12.5642C23.1956 12.8209 23.2504 13.0961 23.2504 13.374C23.2504 13.6519 23.1956 13.9271 23.0891 14.1837C22.9827 14.4404 22.8267 14.6736 22.63 14.87V14.87Z" stroke="currentColor" stroke-width="1.5" stroke-linecap="round" stroke-linejoin="round"/>
<path d="M8.25 20.25H2.25C1.85218 20.25 1.47064 20.092 1.18934 19.8107C0.908035 19.5294 0.75 19.1478 0.75 18.75V2.25C0.75 1.85218 0.908035 1.47064 1.18934 1.18934C1.47064 0.908035 1.85218 0.75 2.25 0.75H17.25C17.6478 0.75 18.0294 0.908035 18.3107 1.18934C18.592 1.47064 18.75 1.85218 18.75 2.25V9" stroke="currentColor" stroke-width="1.5" stroke-linecap="round" stroke-linejoin="round"/>
<path d="M9.75 17.25H5.25C5.05109 17.25 4.86032 17.171 4.71967 17.0303C4.57902 16.8897 4.5 16.6989 4.5 16.5V12.75C4.5 12.5511 4.57902 12.3603 4.71967 12.2197C4.86032 12.079 5.05109 12 5.25 12H15" stroke="currentColor" stroke-width="1.5" stroke-linecap="round" stroke-linejoin="round"/>
<path d="M4.5 3.75H15V9H4.5V3.75Z" stroke="currentColor" stroke-width="1.5" stroke-linecap="round" stroke-linejoin="round"/>
</svg>
