<svg viewBox="0 0 48 48" xmlns="http://www.w3.org/2000/svg"><g transform="matrix(2,0,0,2,0,0)"><path d="M3.132,12.8l.448-1.175L2.534,8.881a.929.929,0,0,1,.36-1.107L5.352,6.169l.767-2.834a.928.928,0,0,1,.942-.684L9.993,2.8,12.279.955a.928.928,0,0,1,1.165,0L15.73,2.8l2.932-.146a.928.928,0,0,1,.942.684l.767,2.834,2.458,1.605a.928.928,0,0,1,.36,1.107l-1.045,2.744,1.045,2.743a.929.929,0,0,1-.36,1.108l-2.458,1.6L19.6,19.914a.927.927,0,0,1-.942.685l-2.932-.146-2.286,1.841" fill="none" stroke="currentColor" stroke-linecap="round" stroke-linejoin="round" stroke-width="1.5"></path><path d="M0.75 19.769L2.406 22.378" fill="none" stroke="currentColor" stroke-linecap="round" stroke-linejoin="round" stroke-width="1.5"></path><path d="M9.908 8.147L16.202 18.063" fill="none" stroke="currentColor" stroke-linecap="round" stroke-linejoin="round" stroke-width="1.5"></path><path d="M15.871 17.541L2.075 21.857 1.081 20.291 10.239 8.669 15.871 17.541z" fill="none" stroke="currentColor" stroke-linecap="round" stroke-linejoin="round" stroke-width="1.5"></path><path d="M5.056,20.924l.876,1.346a2.041,2.041,0,0,0,2.906.614,2.256,2.256,0,0,0,.587-3.04l-.163-.236" fill="none" stroke="currentColor" stroke-linecap="round" stroke-linejoin="round" stroke-width="1.5"></path></g></svg>