<svg width="24" height="24" viewBox="0 0 24 24" fill="none" xmlns="http://www.w3.org/2000/svg">
<g clip-path="url(#clip0)">
<path d="M4.69998 8.78C5.66671 9.78237 6.91595 10.4663 8.28124 10.7408C9.64653 11.0152 11.063 10.867 12.342 10.316" stroke="currentColor" stroke-width="1.5" stroke-linecap="round" stroke-linejoin="round"/>
<path d="M4.12399 10.875C4.12399 11.969 4.55859 13.0182 5.33218 13.7918C6.10576 14.5654 7.15497 15 8.24899 15C9.34301 15 10.3922 14.5654 11.1658 13.7918C11.9394 13.0182 12.374 11.969 12.374 10.875C12.374 9.78098 11.9394 8.73177 11.1658 7.95818C10.3922 7.1846 9.34301 6.75 8.24899 6.75C7.15497 6.75 6.10576 7.1846 5.33218 7.95818C4.55859 8.73177 4.12399 9.78098 4.12399 10.875V10.875Z" stroke="currentColor" stroke-width="1.5" stroke-linecap="round" stroke-linejoin="round"/>
<path d="M0.748993 12C0.748993 14.9837 1.93426 17.8452 4.04404 19.955C6.15383 22.0647 9.01531 23.25 11.999 23.25C14.9827 23.25 17.8442 22.0647 19.9539 19.955C22.0637 17.8452 23.249 14.9837 23.249 12C23.249 9.01631 22.0637 6.15483 19.9539 4.04505C17.8442 1.93526 14.9827 0.75 11.999 0.75C9.01531 0.75 6.15383 1.93526 4.04404 4.04505C1.93426 6.15483 0.748993 9.01631 0.748993 12V12Z" stroke="currentColor" stroke-width="1.5" stroke-linecap="round" stroke-linejoin="round"/>
<path d="M14.987 22.848C14.9074 21.502 14.4265 20.2106 13.6062 19.1405C12.786 18.0703 11.6639 17.2704 10.3848 16.8438C9.10567 16.4173 7.72809 16.3836 6.42968 16.7473C5.13126 17.1109 3.97153 17.8551 3.10001 18.884" stroke="currentColor" stroke-width="1.5" stroke-linecap="round" stroke-linejoin="round"/>
<path d="M14.999 13.125C14.999 13.4697 15.0669 13.8111 15.1988 14.1295C15.3307 14.448 15.5241 14.7374 15.7678 14.9812C16.0116 15.2249 16.301 15.4183 16.6194 15.5502C16.9379 15.6821 17.2793 15.75 17.624 15.75C17.9687 15.75 18.3101 15.6821 18.6285 15.5502C18.947 15.4183 19.2364 15.2249 19.4801 14.9812C19.7239 14.7374 19.9173 14.448 20.0492 14.1295C20.1811 13.8111 20.249 13.4697 20.249 13.125C20.249 12.7803 20.1811 12.4389 20.0492 12.1205C19.9173 11.802 19.7239 11.5126 19.4801 11.2688C19.2364 11.0251 18.947 10.8317 18.6285 10.6998C18.3101 10.5679 17.9687 10.5 17.624 10.5C17.2793 10.5 16.9379 10.5679 16.6194 10.6998C16.301 10.8317 16.0116 11.0251 15.7678 11.2688C15.5241 11.5126 15.3307 11.802 15.1988 12.1205C15.0669 12.4389 14.999 12.7803 14.999 13.125V13.125Z" stroke="currentColor" stroke-width="1.5" stroke-linecap="round" stroke-linejoin="round"/>
<path d="M21.274 18.368C20.8163 17.733 20.2008 17.2285 19.4885 16.9041C18.7761 16.5797 17.9915 16.4468 17.212 16.5184C16.4326 16.59 15.6853 16.8636 15.044 17.3123C14.4026 17.7611 13.8894 18.3693 13.555 19.077" stroke="currentColor" stroke-width="1.5" stroke-linecap="round" stroke-linejoin="round"/>
</g>
<defs>
<clipPath id="clip0">
<rect width="24" height="24" fill="white"/>
</clipPath>
</defs>
</svg>
