<svg xmlns="http://www.w3.org/2000/svg" fill="none" viewBox="0 0 484 332">
  <mask id="velocity-a" width="484" height="332" x="0" y="0" maskUnits="userSpaceOnUse" style="mask-type:alpha">
    <path fill="#C4C4C4" d="M0 0h484v332H0z"/>
  </mask>
  <g mask="url(#velocity-a)">
    <path fill="#F2F0FF" d="M55.825 258.098c-28.012-48.784-13.96-80.287-4.231-131.27 2.974-10.062-.37-21.474 2.392-31.683 6.745-24.936 37.776-45.964 59.021-58.894 26.069-15.866 52.626-22.175 81.763-29.05 16.576-3.911 36.94-4.773 53.451-.166 25.752 7.187 41.637 26.616 62.824 41.694 24.209 17.228 47.889 37.496 76.771 46.504 13.29 4.145 24.387 8.912 36.979 14.739 11.792 5.457 21.382 17.001 30.817 25.809 17.646 16.474 29.829 38.388 26.324 63.203-4.095 28.987-23.444 67.14-50.322 81.148-20.481 10.674-45.06 10.725-67.458 13.871-26.589 3.735-53.584 5.978-80.302 8.745-36.208 3.749-70.8 18.947-107.27 22.06-49.41 4.217-96.803-24.989-120.76-66.71Z"/>
    <path stroke="#0E0916" stroke-linecap="round" stroke-linejoin="round" stroke-width="2" d="M258.237 205.702h60.507"/>
    <path stroke="#F2F0FF" stroke-width="2" d="M170.918 171.546c0 41.171-33.702 74.545-75.274 74.545s-75.276-33.374-75.276-74.545 33.704-74.545 75.276-74.545c41.572 0 75.274 33.374 75.274 74.545Z" clip-rule="evenodd"/>
    <path stroke="#DCEAFF" stroke-width="2" d="M193.671 171.546c0 41.171-33.701 74.545-75.273 74.545-41.572 0-75.276-33.374-75.276-74.545s33.704-74.545 75.276-74.545c41.572 0 75.273 33.374 75.273 74.545Z" clip-rule="evenodd"/>
    <path stroke="#D5BFFF" stroke-width="2" d="M216.421 171.546c0 41.171-33.701 74.545-75.273 74.545-41.572 0-75.276-33.374-75.276-74.545s33.704-74.545 75.276-74.545c41.572 0 75.273 33.374 75.273 74.545Z" clip-rule="evenodd"/>
    <path stroke="#BC99FF" stroke-width="2" d="M236.289 171.546c0 41.171-33.702 74.545-75.274 74.545s-75.276-33.374-75.276-74.545 33.704-74.545 75.276-74.545c41.572 0 75.274 33.374 75.274 74.545Z" clip-rule="evenodd"/>
    <path stroke="#2250FF" stroke-width="2" d="M256.155 171.546c0 41.171-33.702 74.545-75.274 74.545s-75.276-33.374-75.276-74.545 33.704-74.545 75.276-74.545c41.572 0 75.274 33.374 75.274 74.545Z" clip-rule="evenodd"/>
    <path fill="#2250FF" fill-rule="evenodd" d="M273.439 171.546c0 41.171-33.702 74.545-75.276 74.545-41.572 0-75.274-33.374-75.274-74.545s33.702-74.545 75.274-74.545c41.574 0 75.276 33.374 75.276 74.545Z" clip-rule="evenodd"/>
    <path stroke="#340096" stroke-width="2" d="M273.439 171.546c0 41.171-33.702 74.545-75.276 74.545-41.572 0-75.274-33.374-75.274-74.545s33.702-74.545 75.274-74.545c41.574 0 75.276 33.374 75.276 74.545Z" clip-rule="evenodd"/>
    <mask id="velocity-b" width="152" height="150" x="125" y="97" maskUnits="userSpaceOnUse" style="mask-type:alpha">
      <path fill="#fff" d="M125.464 171.546c0 41.17 33.701 74.545 75.276 74.545 41.572 0 75.273-33.375 75.273-74.545 0-41.169-33.701-74.546-75.273-74.546-41.575 0-75.276 33.377-75.276 74.546Z"/>
    </mask>
    <g mask="url(#velocity-b)">
      <path stroke="#FFA578" stroke-linecap="round" stroke-linejoin="round" stroke-width="2" d="m153.487 99.425-5.035 37.237c-.606 4.491-1.034 9.557 2.138 12.723 4.18 4.176 11.924 2.6 18.032.33 16.593-6.17 32.052-15.446 45.096-27.058 6.59-5.867 12.802-12.739 14.72-20.793.643-2.705.67-5.776-1.271-7.69-3.416-3.366-9.904-.896-14.124 2.22-6.244 4.61-11.429 10.335-16.27 16.202-14.016 16.992-25.576 35.623-34.234 55.168-4.881 11.017-8.656 24.139-1.903 33.402 5.812 7.979 17.966 10.216 28.681 8.011 10.715-2.204 20.372-8.02 29.696-13.766 9.768-6.014 19.836-12.392 26.087-21.552 2.711-3.973 4.48-9.434 1.331-12.677-3.593-3.698-10.599-1.666-15.411 1.332-18.431 11.479-27.499 34.22-22.259 52.988 5.238 18.765 23.662 32.596 44.691 35.03"/>
    </g>
    <path stroke="#0E0916" stroke-linecap="round" stroke-linejoin="round" stroke-width="2" d="M310.11 162.861h31.661v-17.782l32.486 32.172-33.195 32.873V191.17h-47.489M367.291 204.976h25.398v-9.71L411 213.397l-18.134 17.957v-9.767h-46.957M203.873 180.175h94.72M11 180.982h87.214M71.566 205.702h60.508"/>
    <path fill="#FFD8BA" fill-rule="evenodd" d="M198.142 171.546c0-21.783 17.832-39.442 39.828-39.442 21.996 0 39.826 17.659 39.826 39.442s-17.83 39.442-39.826 39.442c-21.996 0-39.828-17.659-39.828-39.442Z" clip-rule="evenodd"/>
    <path stroke="#0E0916" stroke-linecap="round" stroke-linejoin="round" stroke-width="2" d="M198.142 171.546c0-21.783 17.832-39.442 39.828-39.442 21.996 0 39.826 17.659 39.826 39.442s-17.83 39.442-39.826 39.442c-21.996 0-39.828-17.659-39.828-39.442Z" clip-rule="evenodd"/>
    <path stroke="#0E0916" stroke-linecap="round" stroke-linejoin="round" stroke-width="2" d="M237.959 202.733c-17.392 0-31.49-13.964-31.49-31.187 0-17.224 14.098-31.187 31.49-31.187 17.392 0 31.493 13.963 31.493 31.187"/>
    <path fill="#2250FF" fill-rule="evenodd" d="M234.418 170.929c0-1.941 1.585-3.51 3.542-3.51 1.958 0 3.545 1.569 3.545 3.51 0 1.939-1.587 3.508-3.545 3.508-1.957 0-3.542-1.569-3.542-3.508Z" clip-rule="evenodd"/>
    <path stroke="#0E0916" stroke-linecap="round" stroke-linejoin="round" stroke-width="2" d="M234.418 170.929c0-1.941 1.585-3.51 3.542-3.51 1.958 0 3.545 1.569 3.545 3.51 0 1.939-1.587 3.508-3.545 3.508-1.957 0-3.542-1.569-3.542-3.508Z" clip-rule="evenodd"/>
    <path stroke="#0E0916" stroke-linecap="round" stroke-linejoin="round" stroke-width="2" d="m240.357 168.343 16.107-15.951"/>
  </g>
</svg>
