<svg xmlns="http://www.w3.org/2000/svg" fill="none" viewBox="0 0 402 375">
  <mask id="reliability-a" width="402" height="375" x="0" y="0" maskUnits="userSpaceOnUse" style="mask-type:alpha">
    <path fill="#C4C4C4" d="M0 0h402v375H0z"/>
  </mask>
  <g mask="url(#reliability-a)">
    <path fill="#F2F0FF" d="M32.669 176.911c7.664-19.037 3.001-32.928 13.82-50.042 2.15-5.758 12.011-22.904 14-28.232 2.077-5.56 8.489-14.558 10.229-19.983C73.2 70.915 87.293 59.942 93.399 54.95c7.668-6.266 35.547-18.72 43.214-24.986 37.808-30.9 61.369-38.016 116.966-16.671 25.191 9.67 47.472 31 64.881 52.302 22.279 27.26 36.98 54.14 49.337 86.244 12.314 31.991 26.7 76.087 15.308 106.594-9.906 26.527-34.397 45.183-60.006 55.07-38.13 14.72-79.055 19.638-118.923 29.32-29.118 7.072-57.985 15.985-87.23 22.361-24.579 5.357-48.806-.117-67.814-22.641-10.238-12.132-18.353-21.138-22.517-36.126-4.09-14.723-8.985-30.685-9.208-45.57-.44-29.385 4.896-58.193 15.262-83.936Z"/>
    <path stroke="#0E0916" stroke-dasharray="25.99 25.99" stroke-linecap="round" stroke-linejoin="round" stroke-width="2" d="M308.81 187.075c0 55.697-44.982 100.846-100.465 100.846-55.486 0-100.462-45.149-100.462-100.846 0-55.696 44.976-100.843 100.462-100.843 55.483 0 100.465 45.147 100.465 100.843Z" clip-rule="evenodd"/>
    <path fill="#FFA578" fill-rule="evenodd" d="M398.999 251.645c0 45.104-36.431 81.671-81.363 81.671-44.937 0-81.365-36.567-81.365-81.671 0-45.108 36.428-81.671 81.365-81.671 44.932 0 81.363 36.563 81.363 81.671Z" clip-rule="evenodd"/>
    <mask id="reliability-b" width="163" height="165" x="236" y="169" maskUnits="userSpaceOnUse" style="mask-type:alpha">
      <path fill="#fff" d="M236.263 251.645c0 45.104 36.429 81.674 81.366 81.674 44.934 0 81.362-36.57 81.362-81.674 0-45.108-36.428-81.671-81.362-81.671-44.937 0-81.366 36.563-81.366 81.671Z"/>
    </mask>
    <g mask="url(#reliability-b)">
      <path fill="#FBFBFC" fill-rule="evenodd" d="M299.471 309.357v-28.651l.071-.182c-6.593-.96-11.146-5.646-14.107-11.311-9.206-17.651 1.072-50.151 1.168-50.846l13.462-6.329 28.638 4.66 25.613 28.744-8.474 68.423-46.371-4.508Z" clip-rule="evenodd"/>
    </g>
    <mask id="reliability-c" width="163" height="165" x="236" y="169" maskUnits="userSpaceOnUse" style="mask-type:alpha">
      <path fill="#fff" d="M236.263 251.645c0 45.104 36.429 81.674 81.366 81.674 44.934 0 81.362-36.57 81.362-81.674 0-45.108-36.428-81.671-81.362-81.671-44.937 0-81.366 36.563-81.366 81.671Z"/>
    </mask>
    <g mask="url(#reliability-c)">
      <path stroke="#340096" stroke-linecap="round" stroke-linejoin="round" stroke-width="2" d="M304.823 270.824c5.976 2.023 8.081-3.863 8.081-3.863"/>
    </g>
    <mask id="reliability-d" width="163" height="165" x="236" y="169" maskUnits="userSpaceOnUse" style="mask-type:alpha">
      <path fill="#fff" d="M236.263 251.645c0 45.104 36.429 81.674 81.366 81.674 44.934 0 81.362-36.57 81.362-81.674 0-45.108-36.428-81.671-81.362-81.671-44.937 0-81.366 36.563-81.366 81.671Z"/>
    </mask>
    <g mask="url(#reliability-d)">
      <path stroke="#340096" stroke-linecap="round" stroke-linejoin="round" stroke-width="2" d="M299.474 280.705v18.396"/>
    </g>
    <mask id="reliability-e" width="163" height="165" x="236" y="169" maskUnits="userSpaceOnUse" style="mask-type:alpha">
      <path fill="#fff" d="M236.263 251.645c0 45.104 36.429 81.674 81.366 81.674 44.934 0 81.362-36.57 81.362-81.674 0-45.108-36.428-81.671-81.362-81.671-44.937 0-81.366 36.563-81.366 81.671Z"/>
    </mask>
    <g mask="url(#reliability-e)">
      <path fill="#340096" fill-rule="evenodd" d="M352.905 230.063c3.192-9.841-7.787-21.536-16.789-22.358-1.351-.123-2.83-6.624-10.121-8.875-5.987-1.848-22.746-.856-24.801 4.588.374-2.424-20.326.912-21.874 12.261-1.095 8.043 2.32 10.828 5.067 12.539 9.319 5.813 1.336-.328 16.504-9.146-10.484 25.655 29.131 29.93 34.952 28.288 5.616-1.583 9.403-.444 10.819 4.802 2.011 7.45-8.621 10.965-8.621 10.965l-.853 29.731c5.171 2.343 20.469 22.01 27.772 21.336 9.886-.918-8.165-21.208-7.009-33.484 1.96-20.821 3.941-46.262-5.046-50.647Z" clip-rule="evenodd"/>
    </g>
    <mask id="reliability-f" width="163" height="165" x="236" y="169" maskUnits="userSpaceOnUse" style="mask-type:alpha">
      <path fill="#fff" d="M236.263 251.645c0 45.104 36.429 81.674 81.366 81.674 44.934 0 81.362-36.57 81.362-81.674 0-45.108-36.428-81.671-81.362-81.671-44.937 0-81.366 36.563-81.366 81.671Z"/>
    </mask>
    <g mask="url(#reliability-f)">
      <path stroke="#340096" stroke-linecap="round" stroke-linejoin="round" stroke-width="2" d="M286.603 218.365c-.096.695-10.374 33.198-1.168 50.849 4.58 8.771 12.994 15.192 26.872 9.075"/>
    </g>
    <mask id="reliability-g" width="163" height="165" x="236" y="169" maskUnits="userSpaceOnUse" style="mask-type:alpha">
      <path fill="#fff" d="M236.263 251.645c0 45.104 36.429 81.674 81.366 81.674 44.934 0 81.362-36.57 81.362-81.674 0-45.108-36.428-81.671-81.362-81.671-44.937 0-81.366 36.563-81.366 81.671Z"/>
    </mask>
    <g mask="url(#reliability-g)">
      <path fill="#2250FF" fill-rule="evenodd" d="M227.47 316.217s35.208-33.595 71.77-24.276c1.547 3.694 15.91 11.838 38.549 1.321 40.767 6.254 45.056 7.885 53.627 16.992 8.227 8.744 3.573 23.062 3.573 23.062H204.763l22.707-17.099Z" clip-rule="evenodd"/>
    </g>
    <mask id="reliability-h" width="163" height="165" x="236" y="169" maskUnits="userSpaceOnUse" style="mask-type:alpha">
      <path fill="#fff" d="M236.263 251.645c0 45.104 36.429 81.674 81.366 81.674 44.934 0 81.362-36.57 81.362-81.674 0-45.108-36.428-81.671-81.362-81.671-44.937 0-81.366 36.563-81.366 81.671Z"/>
    </mask>
    <g mask="url(#reliability-h)">
      <path stroke="#340096" stroke-linecap="round" stroke-linejoin="round" stroke-width="2" d="M227.47 316.217s35.208-33.595 71.77-24.276c1.547 3.694 15.91 11.838 38.549 1.321 40.767 6.254 45.056 7.885 53.627 16.992 8.226 8.744 3.573 23.062 3.573 23.062H204.763l22.707-17.099Z" clip-rule="evenodd"/>
    </g>
    <mask id="i" width="163" height="165" x="236" y="169" maskUnits="userSpaceOnUse" style="mask-type:alpha">
      <path fill="#fff" d="M236.263 251.645c0 45.104 36.429 81.674 81.366 81.674 44.934 0 81.362-36.57 81.362-81.674 0-45.108-36.428-81.671-81.362-81.671-44.937 0-81.366 36.563-81.366 81.671Z"/>
    </mask>
    <g mask="url(#reliability-i)">
      <path stroke="#340096" stroke-linecap="round" stroke-linejoin="round" stroke-width="2" d="M338.938 257.881s3.781-.557 4.042-3.928c.253-3.3-3.917-3.487-3.917-3.487"/>
    </g>
    <mask id="reliability-j" width="163" height="165" x="236" y="169" maskUnits="userSpaceOnUse" style="mask-type:alpha">
      <path fill="#fff" d="M236.263 251.645c0 45.104 36.429 81.674 81.366 81.674 44.934 0 81.362-36.57 81.362-81.674 0-45.108-36.428-81.671-81.362-81.671-44.937 0-81.366 36.563-81.366 81.671Z"/>
    </mask>
    <g mask="url(#reliability-j)">
      <path fill="#fff" fill-rule="evenodd" d="M296.976 247.036c0 5.134-4.146 9.295-9.257 9.295-5.117 0-9.26-4.161-9.26-9.295 0-5.133 4.143-9.295 9.26-9.295 5.111 0 9.257 4.162 9.257 9.295Z" clip-rule="evenodd"/>
    </g>
    <mask id="reliability-k" width="163" height="165" x="236" y="169" maskUnits="userSpaceOnUse" style="mask-type:alpha">
      <path fill="#fff" d="M236.263 251.645c0 45.104 36.429 81.674 81.366 81.674 44.934 0 81.362-36.57 81.362-81.674 0-45.108-36.428-81.671-81.362-81.671-44.937 0-81.366 36.563-81.366 81.671Z"/>
    </mask>
    <g mask="url(#reliability-k)">
      <path stroke="#340096" stroke-linecap="round" stroke-linejoin="round" stroke-width="2" d="M296.976 247.036c0 5.134-4.146 9.295-9.257 9.295-5.117 0-9.26-4.161-9.26-9.295 0-5.133 4.143-9.295 9.26-9.295 5.111 0 9.257 4.162 9.257 9.295Z" clip-rule="evenodd"/>
    </g>
    <mask id="reliability-l" width="163" height="165" x="236" y="169" maskUnits="userSpaceOnUse" style="mask-type:alpha">
      <path fill="#fff" d="M236.263 251.645c0 45.104 36.429 81.674 81.366 81.674 44.934 0 81.362-36.57 81.362-81.674 0-45.108-36.428-81.671-81.362-81.671-44.937 0-81.366 36.563-81.366 81.671Z"/>
    </mask>
    <g mask="url(#reliability-l)">
      <path stroke="#340096" stroke-linecap="round" stroke-linejoin="round" stroke-width="2" d="M289.258 247.566s-2.183-.997-4.49-.044"/>
    </g>
    <mask id="reliability-m" width="163" height="165" x="236" y="169" maskUnits="userSpaceOnUse" style="mask-type:alpha">
      <path fill="#fff" d="M236.263 251.645c0 45.104 36.429 81.674 81.366 81.674 44.934 0 81.362-36.57 81.362-81.674 0-45.108-36.428-81.671-81.362-81.671-44.937 0-81.366 36.563-81.366 81.671Z"/>
    </mask>
    <g mask="url(#reliability-m)">
      <path fill="#fff" fill-rule="evenodd" d="M321.086 247.036c0 5.134-4.145 9.295-9.26 9.295-5.114 0-9.257-4.161-9.257-9.295 0-5.133 4.143-9.295 9.257-9.295 5.115 0 9.26 4.162 9.26 9.295Z" clip-rule="evenodd"/>
    </g>
    <mask id="reliability-n" width="163" height="165" x="236" y="169" maskUnits="userSpaceOnUse" style="mask-type:alpha">
      <path fill="#fff" d="M236.263 251.645c0 45.104 36.429 81.674 81.366 81.674 44.934 0 81.362-36.57 81.362-81.674 0-45.108-36.428-81.671-81.362-81.671-44.937 0-81.366 36.563-81.366 81.671Z"/>
    </mask>
    <g mask="url(#reliability-n)">
      <path stroke="#340096" stroke-linecap="round" stroke-linejoin="round" stroke-width="2" d="M321.086 247.036c0 5.134-4.145 9.295-9.26 9.295-5.114 0-9.257-4.161-9.257-9.295 0-5.133 4.143-9.295 9.257-9.295 5.115 0 9.26 4.162 9.26 9.295Z" clip-rule="evenodd"/>
    </g>
    <mask id="reliability-o" width="163" height="165" x="236" y="169" maskUnits="userSpaceOnUse" style="mask-type:alpha">
      <path fill="#fff" d="M236.263 251.645c0 45.104 36.429 81.674 81.366 81.674 44.934 0 81.362-36.57 81.362-81.674 0-45.108-36.428-81.671-81.362-81.671-44.937 0-81.366 36.563-81.366 81.671Z"/>
    </mask>
    <g mask="url(#reliability-o)">
      <path stroke="#340096" stroke-linecap="round" stroke-linejoin="round" stroke-width="2" d="M313.359 247.566s-2.18-.997-4.487-.044"/>
    </g>
    <mask id="p" width="163" height="165" x="236" y="169" maskUnits="userSpaceOnUse" style="mask-type:alpha">
      <path fill="#fff" d="M236.263 251.645c0 45.104 36.429 81.674 81.366 81.674 44.934 0 81.362-36.57 81.362-81.674 0-45.108-36.428-81.671-81.362-81.671-44.937 0-81.366 36.563-81.366 81.671Z"/>
    </mask>
    <g mask="url(#p)">
      <path stroke="#340096" stroke-linecap="round" stroke-linejoin="round" stroke-width="2" d="M299.004 251.341s-2.427 8.696.588 10.345c0 0 1.526.817 3.525.203"/>
    </g>
    <mask id="reliability-q" width="163" height="165" x="236" y="169" maskUnits="userSpaceOnUse" style="mask-type:alpha">
      <path fill="#fff" d="M236.263 251.645c0 45.104 36.429 81.674 81.366 81.674 44.934 0 81.362-36.57 81.362-81.674 0-45.108-36.428-81.671-81.362-81.671-44.937 0-81.366 36.563-81.366 81.671Z"/>
    </mask>
    <g mask="url(#reliability-q)">
      <path stroke="#340096" stroke-linecap="round" stroke-linejoin="round" stroke-width="2" d="M302.578 247.036h-5.599"/>
    </g>
    <path stroke="#0E0916" stroke-linecap="round" stroke-linejoin="round" stroke-width="2" d="M399 251.645c0 45.104-36.431 81.671-81.363 81.671-44.937 0-81.365-36.567-81.365-81.671 0-45.108 36.428-81.671 81.365-81.671 44.932 0 81.363 36.563 81.363 81.671Z" clip-rule="evenodd"/>
    <path fill="#FFD8BA" fill-rule="evenodd" d="M19.006 125.671c0 45.108 36.429 81.671 81.363 81.671 44.937 0 81.365-36.563 81.365-81.671 0-45.108-36.428-81.671-81.365-81.671-44.934 0-81.363 36.564-81.363 81.671Z" clip-rule="evenodd"/>
    <mask id="reliability-r" width="163" height="165" x="19" y="43" maskUnits="userSpaceOnUse" style="mask-type:alpha">
      <path fill="#fff" d="M19 125.671c0 45.108 36.431 81.674 81.365 81.674 44.938 0 81.366-36.566 81.366-81.674 0-45.108-36.428-81.671-81.366-81.671C55.431 44 19 80.564 19 125.67Z"/>
    </mask>
    <g mask="url(#reliability-r)">
      <path fill="#FFEBDE" fill-rule="evenodd" d="M64.899 113.121c-2.578-.564-3.867-3.804-3.602-6.559.472-4.987 5.087-9.044 9.81-8.943-.737-.28-1.373-.94-1.652-1.723-.422-1.19-.175-2.54.35-3.679 1.922-4.147 7.844-5.444 11.182-2.445-.754-4.84 1.568-9.879 5.254-12.893 3.685-3.017 8.268-3.741 12.933-3.509 4.666.23 9.462 1.318 13.778 3.196 5.497 2.397 10.837 5.462 15.027 9.903 4.188 4.442 7.149 10.405 7.205 16.653.033 3.375-1.007 7.08-3.745 8.842a6.46 6.46 0 0 1-1.298.632c3.742 9.573 11.609 32.635 3.796 44.568-3.983 6.088-9.92 9.024-17.181 8.657l-.065.325v15.6l-34.893 6.35-1.174-42.04s-10.961-1.225-8.36-9.998a1.49 1.49 0 0 1-1.134.822 1.472 1.472 0 0 1-1.224-.414c-.35-.346-.632-.778-.9-1.201a45.866 45.866 0 0 1-5.696-13.535c-.733-3.029-.888-6.874 1.589-8.609Z" clip-rule="evenodd"/>
    </g>
    <mask id="reliability-s" width="163" height="165" x="19" y="43" maskUnits="userSpaceOnUse" style="mask-type:alpha">
      <path fill="#fff" d="M19 125.671c0 45.108 36.431 81.674 81.365 81.674 44.938 0 81.366-36.566 81.366-81.674 0-45.108-36.428-81.671-81.366-81.671C55.431 44 19 80.564 19 125.67Z"/>
    </mask>
    <g mask="url(#reliability-s)">
      <path stroke="#340096" stroke-linecap="round" stroke-linejoin="round" stroke-width="2" d="M64.899 113.121c-2.578-.564-3.867-3.804-3.602-6.559.472-4.987 5.087-9.044 9.81-8.943-.737-.28-1.373-.94-1.652-1.723-.422-1.19-.175-2.54.35-3.679 1.922-4.147 7.844-5.444 11.182-2.445-.754-4.84 1.568-9.879 5.254-12.893 3.685-3.017 8.268-3.741 12.933-3.509 4.666.23 9.462 1.318 13.778 3.196 5.497 2.397 10.837 5.462 15.027 9.903 4.188 4.442 7.149 10.405 7.205 16.653.033 3.375-1.007 7.08-3.745 8.842a6.46 6.46 0 0 1-1.298.632c3.742 9.573 11.609 32.635 3.796 44.568-3.983 6.088-9.92 9.024-17.181 8.657l-.065.325v15.6l-34.893 6.35-1.174-42.04s-10.961-1.225-8.36-9.998a1.49 1.49 0 0 1-1.134.822 1.472 1.472 0 0 1-1.224-.414c-.35-.346-.632-.778-.9-1.201a45.866 45.866 0 0 1-5.696-13.535c-.733-3.029-.888-6.874 1.589-8.609Z" clip-rule="evenodd"/>
    </g>
    <mask id="reliability-t" width="163" height="165" x="19" y="43" maskUnits="userSpaceOnUse" style="mask-type:alpha">
      <path fill="#fff" d="M19 125.671c0 45.108 36.431 81.674 81.365 81.674 44.938 0 81.366-36.566 81.366-81.674 0-45.108-36.428-81.671-81.366-81.671C55.431 44 19 80.564 19 125.67Z"/>
    </mask>
    <g mask="url(#reliability-t)">
      <path stroke="#340096" stroke-linecap="round" stroke-linejoin="round" stroke-width="2" d="M103.679 149.843s2.816 7.92 10.721 5.112"/>
    </g>
    <mask id="reliability-u" width="163" height="165" x="19" y="43" maskUnits="userSpaceOnUse" style="mask-type:alpha">
      <path fill="#fff" d="M19 125.671c0 45.108 36.431 81.674 81.365 81.674 44.938 0 81.366-36.566 81.366-81.674 0-45.108-36.428-81.671-81.366-81.671C55.431 44 19 80.564 19 125.67Z"/>
    </mask>
    <g mask="url(#reliability-u)">
      <path stroke="#340096" stroke-linecap="round" stroke-linejoin="round" stroke-width="2" d="M113.574 143.704s7.517 2.632 6.852-4.681c-.377-4.123-1.393-10.571-2.207-15.412-.73-4.338 3.953-4.591 7.766-2.43"/>
    </g>
    <mask id="reliability-v" width="163" height="165" x="19" y="43" maskUnits="userSpaceOnUse" style="mask-type:alpha">
      <path fill="#fff" d="M19 125.671c0 45.108 36.431 81.674 81.365 81.674 44.938 0 81.366-36.566 81.366-81.674 0-45.108-36.428-81.671-81.366-81.671C55.431 44 19 80.564 19 125.67Z"/>
    </mask>
    <g mask="url(#reliability-v)">
      <path stroke="#340096" stroke-linecap="round" stroke-linejoin="round" stroke-width="2" d="M98.716 130.187s4.686-1.366 7.35-.172"/>
    </g>
    <mask id="reliability-w" width="163" height="165" x="19" y="43" maskUnits="userSpaceOnUse" style="mask-type:alpha">
      <path fill="#fff" d="M19 125.671c0 45.108 36.431 81.674 81.365 81.674 44.938 0 81.366-36.566 81.366-81.674 0-45.108-36.428-81.671-81.366-81.671C55.431 44 19 80.564 19 125.67Z"/>
    </mask>
    <g mask="url(#reliability-w)">
      <path stroke="#340096" stroke-linecap="round" stroke-linejoin="round" stroke-width="2" d="M124.771 129.895s3.961-1.636 7.347-.173"/>
    </g>
    <mask id="reliability-x" width="163" height="165" x="19" y="43" maskUnits="userSpaceOnUse" style="mask-type:alpha">
      <path fill="#fff" d="M19 125.671c0 45.108 36.431 81.674 81.365 81.674 44.938 0 81.366-36.566 81.366-81.674 0-45.108-36.428-81.671-81.366-81.671C55.431 44 19 80.564 19 125.67Z"/>
    </mask>
    <g mask="url(#reliability-x)">
      <path stroke="#340096" stroke-linecap="round" stroke-linejoin="round" stroke-width="2" d="M116.695 166.147v15.597"/>
    </g>
    <mask id="reliability-y" width="163" height="165" x="19" y="43" maskUnits="userSpaceOnUse" style="mask-type:alpha">
      <path fill="#fff" d="M19 125.671c0 45.108 36.431 81.674 81.365 81.674 44.938 0 81.366-36.566 81.366-81.674 0-45.108-36.428-81.671-81.366-81.671C55.431 44 19 80.564 19 125.67Z"/>
    </mask>
    <g mask="url(#reliability-y)">
      <path stroke="#340096" stroke-linecap="round" stroke-linejoin="round" stroke-width="2" d="m81.804 188.098-1.176-42.043s-11.666-1.3-8.072-10.848"/>
    </g>
    <mask id="reliability-z" width="163" height="165" x="19" y="43" maskUnits="userSpaceOnUse" style="mask-type:alpha">
      <path fill="#fff" d="M19 125.671c0 45.108 36.431 81.674 81.365 81.674 44.938 0 81.366-36.566 81.366-81.674 0-45.108-36.428-81.671-81.366-81.671C55.431 44 19 80.564 19 125.67Z"/>
    </mask>
    <g mask="url(#reliability-z)">
      <path stroke="#340096" stroke-linecap="round" stroke-linejoin="round" stroke-width="2" d="M80.474 136.107c-.184-.98-1.185-1.687-2.177-1.678-.995.006-1.925.641-2.441 1.494-.514.855-.654 1.892-.559 2.885.042.48.149.966.386 1.386"/>
    </g>
    <mask id="reliability-A" width="163" height="165" x="19" y="43" maskUnits="userSpaceOnUse" style="mask-type:alpha">
      <path fill="#fff" d="M19 125.671c0 45.108 36.431 81.674 81.365 81.674 44.938 0 81.366-36.566 81.366-81.674 0-45.108-36.428-81.671-81.366-81.671C55.431 44 19 80.564 19 125.67Z"/>
    </mask>
    <g mask="url(#reliability-A)">
      <path stroke="#340096" stroke-linecap="round" stroke-linejoin="round" stroke-width="2" d="M128.412 108.27c.089.632 15.455 33.738 5.536 48.894-5.967 9.116-16.296 11.206-28.93 5.64"/>
    </g>
    <mask id="reliability-B" width="163" height="165" x="19" y="43" maskUnits="userSpaceOnUse" style="mask-type:alpha">
      <path fill="#fff" d="M19 125.671c0 45.108 36.431 81.674 81.365 81.674 44.938 0 81.366-36.566 81.366-81.674 0-45.108-36.428-81.671-81.366-81.671C55.431 44 19 80.564 19 125.67Z"/>
    </mask>
    <g mask="url(#reliability-B)">
      <path fill="#340096" fill-rule="evenodd" d="M71.132 136.879a1.49 1.49 0 0 0 1.196-.93c.844-2.093 2.406-3.884 4.422-4.674 2.272-.889 5.085-.313 6.65 1.633 1.235 1.542 1.856 3.927 3.879 4.195.84.11 1.675-.233 2.298-.835 1.28-1.246 1.571-3.044 1.714-4.77.4-4.868-.187-9.76-.867-14.592-.274-1.923-.535-3.989.306-5.721 1.387-2.859 5.004-3.422 8.06-3.399a60.94 60.94 0 0 1 17.201 2.642c2.935.894 5.824 2.015 8.848 2.486 2.245.349 4.671.298 6.605-.948 2.735-1.765 3.774-5.467 3.742-8.842-.054-6.251-3.015-12.214-7.202-16.656-4.194-4.439-9.531-7.506-15.031-9.9-4.315-1.878-9.108-2.97-13.777-3.199-4.666-.232-9.248.492-12.93 3.509-3.686 3.014-6.012 8.052-5.257 12.893-3.339-2.999-9.26-1.702-11.18 2.448-.528 1.136-.774 2.49-.35 3.676.42 1.183 1.643 2.098 2.822 1.824-5.1-.882-10.469 3.443-10.986 8.842-.258 2.755 1.028 5.995 3.606 6.559-2.477 1.735-2.323 5.58-1.59 8.609a45.945 45.945 0 0 0 5.697 13.535c.267.426.552.855.9 1.201.327.325.778.474 1.224.414Z" clip-rule="evenodd"/>
    </g>
    <mask id="reliability-C" width="163" height="165" x="19" y="43" maskUnits="userSpaceOnUse" style="mask-type:alpha">
      <path fill="#fff" d="M19 125.671c0 45.108 36.431 81.674 81.365 81.674 44.938 0 81.366-36.566 81.366-81.674 0-45.108-36.428-81.671-81.366-81.671C55.431 44 19 80.564 19 125.67Z"/>
    </mask>
    <g mask="url(#reliability-C)">
      <path stroke="#340096" stroke-linecap="round" stroke-linejoin="round" stroke-width="2" d="M71.132 136.879a1.49 1.49 0 0 0 1.196-.93c.844-2.093 2.406-3.884 4.422-4.674 2.272-.889 5.085-.313 6.65 1.633 1.235 1.542 1.856 3.927 3.879 4.195.84.11 1.675-.233 2.298-.835 1.28-1.246 1.571-3.044 1.714-4.77.4-4.868-.187-9.76-.867-14.592-.274-1.923-.535-3.989.306-5.721 1.387-2.859 5.004-3.422 8.06-3.399a60.94 60.94 0 0 1 17.201 2.642c2.935.894 5.824 2.015 8.848 2.486 2.245.349 4.671.298 6.605-.948 2.735-1.765 3.774-5.467 3.742-8.842-.054-6.251-3.015-12.214-7.202-16.656-4.194-4.439-9.531-7.506-15.031-9.9-4.315-1.878-9.108-2.97-13.777-3.199-4.666-.232-9.248.492-12.93 3.509-3.686 3.014-6.012 8.052-5.257 12.893-3.339-2.999-9.26-1.702-11.18 2.448-.528 1.136-.774 2.49-.35 3.676.42 1.183 1.643 2.098 2.822 1.824-5.1-.882-10.469 3.443-10.986 8.842-.258 2.755 1.028 5.995 3.606 6.559-2.477 1.735-2.323 5.58-1.59 8.609a45.945 45.945 0 0 0 5.697 13.535c.267.426.552.855.9 1.201.327.325.778.474 1.224.414Z" clip-rule="evenodd"/>
    </g>
    <mask id="reliability-D" width="163" height="165" x="19" y="43" maskUnits="userSpaceOnUse" style="mask-type:alpha">
      <path fill="#fff" d="M19 125.671c0 45.108 36.431 81.674 81.365 81.674 44.938 0 81.366-36.566 81.366-81.674 0-45.108-36.428-81.671-81.366-81.671C55.431 44 19 80.564 19 125.67Z"/>
    </mask>
    <g mask="url(#reliability-D)">
      <path stroke="#340096" stroke-linecap="round" stroke-linejoin="round" stroke-width="2" d="M78.949 145.663s3.786 1.006 8.105.19"/>
    </g>
    <mask id="reliability-E" width="163" height="165" x="19" y="43" maskUnits="userSpaceOnUse" style="mask-type:alpha">
      <path fill="#fff" d="M19 125.671c0 45.108 36.431 81.674 81.365 81.674 44.938 0 81.366-36.566 81.366-81.674 0-45.108-36.428-81.671-81.366-81.671C55.431 44 19 80.564 19 125.67Z"/>
    </mask>
    <g mask="url(#reliability-E)">
      <path fill="#DCEAFF" fill-rule="evenodd" d="M184.675 198.855s-33.268-31.743-67.817-22.934c-1.461 3.485-15.03 11.185-36.428 1.243-38.52 5.912-44.331 9.429-50.67 16.056-7.837 8.198-3.379 21.792-3.379 21.792h179.754l-21.46-16.157Z" clip-rule="evenodd"/>
    </g>
    <mask id="reliability-F" width="163" height="165" x="19" y="43" maskUnits="userSpaceOnUse" style="mask-type:alpha">
      <path fill="#fff" d="M19 125.671c0 45.108 36.431 81.674 81.365 81.674 44.938 0 81.366-36.566 81.366-81.674 0-45.108-36.428-81.671-81.366-81.671C55.431 44 19 80.564 19 125.67Z"/>
    </mask>
    <g mask="url(#reliability-F)">
      <path stroke="#340096" stroke-linecap="round" stroke-linejoin="round" stroke-width="2" d="M184.675 198.855s-33.268-31.743-67.817-22.934c-1.461 3.485-15.03 11.185-36.428 1.243-38.52 5.912-44.331 9.429-50.67 16.056-7.837 8.198-3.379 21.792-3.379 21.792h179.754l-21.46-16.157Z" clip-rule="evenodd"/>
    </g>
    <path stroke="#0E0916" stroke-linecap="round" stroke-linejoin="round" stroke-width="2" d="M19.006 125.671c0 45.108 36.429 81.671 81.363 81.671 44.937 0 81.365-36.563 81.365-81.671 0-45.108-36.428-81.671-81.365-81.671-44.934 0-81.363 36.564-81.363 81.671Z" clip-rule="evenodd"/>
    <path fill="#D5BFFF" fill-rule="evenodd" d="M186.799 271.362c0 15.89-12.83 28.768-28.656 28.768-15.83 0-28.66-12.878-28.66-28.768 0-15.886 12.83-28.765 28.66-28.765 15.826 0 28.656 12.879 28.656 28.765Z" clip-rule="evenodd"/>
    <path stroke="#0E0916" stroke-linecap="round" stroke-linejoin="round" stroke-width="2" d="M186.799 271.362c0 15.89-12.83 28.768-28.656 28.768-15.83 0-28.66-12.878-28.66-28.768 0-15.886 12.83-28.765 28.66-28.765 15.826 0 28.656 12.879 28.656 28.765Z" clip-rule="evenodd"/>
    <path fill="#FFA578" fill-rule="evenodd" d="M154.163 278.469c0 8.46-6.834 15.32-15.265 15.32-8.429 0-15.259-6.86-15.259-15.32 0-8.464 6.83-15.323 15.259-15.323 8.431 0 15.265 6.859 15.265 15.323Z" clip-rule="evenodd"/>
    <path stroke="#0E0916" stroke-linecap="round" stroke-linejoin="round" stroke-width="2" d="M154.163 278.469c0 8.46-6.834 15.32-15.265 15.32-8.429 0-15.259-6.86-15.259-15.32 0-8.464 6.83-15.323 15.259-15.323 8.431 0 15.265 6.859 15.265 15.323Z" clip-rule="evenodd"/>
    <path fill="#E1DFEB" fill-rule="evenodd" d="m138.91 282.979 2.094 41.452 10.466-15.651 19.601-2.617-32.161-23.184Z" clip-rule="evenodd"/>
    <path stroke="#0E0916" stroke-linecap="round" stroke-linejoin="round" stroke-width="2" d="m138.91 282.979 2.094 41.452 10.466-15.651 19.601-2.617-32.161-23.184Z" clip-rule="evenodd"/>
    <path fill="#E6E2FF" fill-rule="evenodd" d="M282.521 89.534c0-14.939-12.064-27.048-26.946-27.048-14.885 0-26.949 12.11-26.949 27.048 0 11.477 7.131 21.261 17.178 25.187v5.694h19.539v-5.694c10.047-3.926 17.178-13.71 17.178-25.187Z" clip-rule="evenodd"/>
    <path stroke="#0E0916" stroke-linecap="round" stroke-linejoin="round" stroke-width="2" d="M282.521 89.534c0-14.939-12.064-27.048-26.946-27.048-14.885 0-26.949 12.11-26.949 27.048 0 11.477 7.131 21.261 17.178 25.187v5.694h19.539v-5.694c10.047-3.926 17.178-13.71 17.178-25.187Z" clip-rule="evenodd"/>
    <path stroke="#0E0916" stroke-linecap="round" stroke-linejoin="round" stroke-width="2" d="M250.893 119.63s-2.233-25.154-5.378-24.749c-3.145.409-3.552 5.5 7.609 4.993 11.161-.51 14.101-.918 13.394-3.464-.713-2.545-4.06-1.63-5.174 4.174-1.116 5.807-2.539 19.046-2.539 19.046"/>
    <path fill="#2250FF" fill-rule="evenodd" d="M264.887 125.035h-18.19a2.304 2.304 0 0 1-2.299-2.31 2.304 2.304 0 0 1 2.299-2.31h18.19a2.304 2.304 0 0 1 2.299 2.31 2.304 2.304 0 0 1-2.299 2.31Z" clip-rule="evenodd"/>
    <path stroke="#0E0916" stroke-linecap="round" stroke-linejoin="round" stroke-width="2" d="M264.887 125.035h-18.19a2.304 2.304 0 0 1-2.299-2.31 2.304 2.304 0 0 1 2.299-2.31h18.19a2.304 2.304 0 0 1 2.299 2.31 2.304 2.304 0 0 1-2.299 2.31Z" clip-rule="evenodd"/>
    <path fill="#2250FF" fill-rule="evenodd" d="M264.887 129.656h-18.19a2.303 2.303 0 0 1-2.299-2.307 2.304 2.304 0 0 1 2.299-2.313h18.19a2.304 2.304 0 0 1 2.299 2.313 2.303 2.303 0 0 1-2.299 2.307Z" clip-rule="evenodd"/>
    <path stroke="#0E0916" stroke-linecap="round" stroke-linejoin="round" stroke-width="2" d="M264.887 129.656h-18.19a2.303 2.303 0 0 1-2.299-2.307 2.304 2.304 0 0 1 2.299-2.313h18.19a2.304 2.304 0 0 1 2.299 2.313 2.303 2.303 0 0 1-2.299 2.307Z" clip-rule="evenodd"/>
    <path fill="#2250FF" fill-rule="evenodd" d="M264.887 134.279h-18.19a2.306 2.306 0 0 1-2.299-2.31 2.306 2.306 0 0 1 2.299-2.313h18.19a2.306 2.306 0 0 1 2.299 2.313 2.306 2.306 0 0 1-2.299 2.31Z" clip-rule="evenodd"/>
    <path stroke="#0E0916" stroke-linecap="round" stroke-linejoin="round" stroke-width="2" d="M264.887 134.279h-18.19a2.306 2.306 0 0 1-2.299-2.31 2.306 2.306 0 0 1 2.299-2.313h18.19a2.306 2.306 0 0 1 2.299 2.313 2.306 2.306 0 0 1-2.299 2.31Z" clip-rule="evenodd"/>
  </g>
</svg>
