<svg xmlns="http://www.w3.org/2000/svg" fill="none" viewBox="0 0 1043 900">
  <rect width="248" height="214" x="331" y="114" fill="#F2F0FF" rx="12"/>
  <circle cx="742.5" cy="224.5" r="223.5" stroke="#E1E1E1" stroke-dasharray="4 8" stroke-linecap="round" stroke-width="2"/>
  <rect width="139" height="137" x="904" y="304" fill="#BCD7FE" opacity=".2" rx="12"/>
  <rect width="182" height="180" x="808" y="380" fill="#8900FF" opacity=".1" rx="12"/>
  <rect width="139" height="137" x="396" y="273" fill="#FFA578" opacity=".2" rx="12"/>
  <path fill="#F6F7F9" fill-rule="evenodd" d="m284.478 822.437 61.901-203.101 62.606 203.101h86.523l112.548-355.428h-97.073l-62.606 198.165-61.199-198.165H305.58l-60.494 198.165-62.606-198.165H85.407l111.847 355.428h87.224Z" clip-rule="evenodd"/>
  <path stroke="#FFD8BA" stroke-linecap="round" stroke-linejoin="round" stroke-width=".868" d="M1.05 899.445h691.839V390H1.049v509.445Z" clip-rule="evenodd"/>
  <path stroke="#FFD8BA" stroke-linecap="round" stroke-linejoin="round" stroke-width=".868" d="M692.888 467.01H1.049M692.888 822.437H1.049M85.407 390.001v509.444M608.058 390.001v509.444"/>
  <path stroke="#2250FF" stroke-linecap="round" stroke-linejoin="round" stroke-width=".868" d="M197.257 822.436h87.224l61.903-203.1 62.604 203.1h86.523l112.55-355.427h-97.075l-41.325 130.806-21.281 67.359M387.18 467.01h-81.598l-26.84 87.92-33.654 110.245s-19.054-169.987-62.606-198.165"/>
  <path fill="#2250FF" fill-rule="evenodd" d="M381.879 472.325h10.603v-10.629h-10.603v10.629ZM300.282 472.325h10.603v-10.629h-10.603v10.629Z" clip-rule="evenodd"/>
  <path stroke="#2250FF" stroke-linecap="round" stroke-linejoin="round" stroke-width=".868" d="M991.907 351.133v-81.598l-87.92-26.84-110.245-33.654s169.987-19.054 198.165-62.606"/>
  <path fill="#2250FF" fill-rule="evenodd" d="M986.592 345.832v10.603h10.63v-10.603h-10.63ZM986.592 264.235v10.603h10.63v-10.603h-10.63ZM986.592 138v10.603h10.63V138h-10.63ZM239.843 670.488h10.603v-10.63h-10.603v10.63Z" clip-rule="evenodd"/>
  <path fill="#fff" fill-rule="evenodd" d="M177.18 472.325h10.603v-10.629H177.18v10.629Z" clip-rule="evenodd"/>
  <path stroke="#2250FF" stroke-width=".868" d="M177.18 472.325h10.603v-10.629H177.18v10.629Z" clip-rule="evenodd"/>
  <path fill="#2250FF" fill-rule="evenodd" d="M191.953 827.75h10.603v-10.63h-10.603v10.63ZM341.427 625.226h10.603v-10.63h-10.603v10.63ZM443.014 670.488h10.603v-10.63h-10.603v10.63ZM506.083 472.325h10.604v-10.629h-10.604v10.629ZM602.756 472.325h10.603v-10.629h-10.603v10.629ZM490.195 827.75h10.603v-10.63h-10.603v10.63ZM404.015 827.75h10.603v-10.63h-10.603v10.63ZM279.529 827.75h10.603v-10.63h-10.603v10.63Z" clip-rule="evenodd"/>
  <path stroke="#2250FF" stroke-linecap="round" stroke-linejoin="round" stroke-width=".868" d="m117.217 434.711 59.966 28.398M187.784 468.103l41.262 19.642"/>
  <path fill="#2250FF" fill-rule="evenodd" d="M122.272 433.023a5.32 5.32 0 0 1-3.216 6.791 5.298 5.298 0 0 1-6.772-3.224 5.317 5.317 0 0 1 3.215-6.791 5.3 5.3 0 0 1 6.773 3.224ZM236.782 487.267a5.322 5.322 0 0 1-3.217 6.791 5.297 5.297 0 0 1-6.771-3.225 5.316 5.316 0 0 1 3.214-6.791 5.301 5.301 0 0 1 6.774 3.225Z" clip-rule="evenodd"/>
  <path fill="#F6F7F9" fill-rule="evenodd" d="M498.761 773.163h63.35c5.545 0 10.043-4.508 10.043-10.07v-55.146c0-5.561-4.498-10.068-10.043-10.068h-63.35c-5.549 0-10.045 4.507-10.045 10.068v55.146c0 5.562 4.496 10.07 10.045 10.07Z" clip-rule="evenodd"/>
  <path stroke="#340096" stroke-linecap="round" stroke-linejoin="round" stroke-width=".868" d="M498.761 773.163h63.35c5.545 0 10.043-4.508 10.043-10.07v-55.146c0-5.561-4.498-10.068-10.043-10.068h-63.35c-5.549 0-10.045 4.507-10.045 10.068v55.146c0 5.562 4.496 10.07 10.045 10.07Z" clip-rule="evenodd"/>
  <path fill="#F6F7F9" fill-rule="evenodd" d="m535.05 738.955-18.444 15.82c-2.059 1.757-2.863 2.388-4.856 1.954-.098-.027-.165-.027-.273-.103a3.792 3.792 0 0 1-1.581 1.167s-2.598.996-2.697.996c-.505 0-1.044-.232-1.415-.498-.405-.63-.545-1.327-.2-1.892l1.447-2.22c.267-.343.672-.604 1.11-.84-.198-.322-.304-.696-.405-.993-.404-1.59.571-2.656 2.632-4.417l18.444-15.812c2.06-1.759 4.213-2.661 4.822-1.958l4.015 4.383c.605.665-.544 2.654-2.599 4.413Z" clip-rule="evenodd"/>
  <path stroke="#340096" stroke-linecap="round" stroke-linejoin="round" stroke-width=".868" d="m535.05 738.955-18.444 15.82c-2.059 1.757-2.863 2.388-4.856 1.954-.098-.027-.165-.027-.273-.103a3.792 3.792 0 0 1-1.581 1.167s-2.598.996-2.697.996c-.505 0-1.044-.232-1.415-.498-.405-.63-.545-1.327-.2-1.892l1.447-2.22c.267-.343.672-.604 1.11-.84-.198-.322-.304-.696-.405-.993-.404-1.59.571-2.656 2.632-4.417l18.444-15.812c2.06-1.759 4.213-2.661 4.822-1.958l4.015 4.383c.605.665-.544 2.654-2.599 4.413Z" clip-rule="evenodd"/>
  <path fill="#2250FF" fill-rule="evenodd" d="M554.599 714.21a5.842 5.842 0 0 0-8.257-.475l-8.968 8.034-2.563-2.691-7.56 7.23 14.248 14.974 7.558-7.23-3.614-3.791 8.684-7.781a5.857 5.857 0 0 0 .472-8.27Z" clip-rule="evenodd"/>
  <path stroke="#340096" stroke-linecap="round" stroke-linejoin="round" stroke-width=".868" d="M554.599 714.21a5.842 5.842 0 0 0-8.257-.475l-8.968 8.034-2.563-2.691-7.56 7.23 14.248 14.974 7.558-7.23-3.614-3.791 8.684-7.781a5.857 5.857 0 0 0 .472-8.27Z" clip-rule="evenodd"/>
  <path fill="#F6F7F9" fill-rule="evenodd" d="M390.884 583.807h65.427c4.974 0 9.005-4.041 9.005-9.027v-57.233c0-4.987-4.031-9.028-9.005-9.028h-65.427c-4.972 0-9.005 4.041-9.005 9.028v57.233c0 4.986 4.033 9.027 9.005 9.027Z" clip-rule="evenodd"/>
  <path stroke="#340096" stroke-linecap="round" stroke-linejoin="round" stroke-width=".868" d="M390.884 583.807h65.427c4.974 0 9.005-4.041 9.005-9.027v-57.233c0-4.987-4.031-9.028-9.005-9.028h-65.427c-4.972 0-9.005 4.041-9.005 9.028v57.233c0 4.986 4.033 9.027 9.005 9.027Z" clip-rule="evenodd"/>
  <path fill="#F6F7F9" fill-rule="evenodd" d="M398.885 533.714c4.541 8.338 15.176 14.184 27.562 14.184 12.196 0 22.684-5.666 27.337-13.797" clip-rule="evenodd"/>
  <path stroke="#340096" stroke-linecap="round" stroke-linejoin="round" stroke-width=".868" d="M398.885 533.714c4.541 8.338 15.176 14.184 27.562 14.184 12.196 0 22.684-5.666 27.337-13.797"/>
  <path fill="#F6F7F9" fill-rule="evenodd" d="M393.919 538.013h9.944v-9.965h-9.944v9.965Z" clip-rule="evenodd"/>
  <path stroke="#340096" stroke-linecap="round" stroke-linejoin="round" stroke-width=".868" d="M393.919 538.013h9.944v-9.965h-9.944v9.965Z" clip-rule="evenodd"/>
  <path fill="#2250FF" fill-rule="evenodd" d="M434.463 567.839v-33.302l-25.212 20.911 14.035 1.362 11.177 11.029Z" clip-rule="evenodd"/>
  <path stroke="#340096" stroke-linecap="round" stroke-linejoin="round" stroke-width=".868" d="M434.463 567.839v-33.302l-25.212 20.911 14.035 1.362 11.177 11.029Z" clip-rule="evenodd"/>
  <path fill="#2250FF" fill-rule="evenodd" d="M147.916 778.256h63.877v-67.314h-63.877v67.314Z" clip-rule="evenodd"/>
  <path stroke="#340096" stroke-linecap="round" stroke-linejoin="round" stroke-width=".868" d="M147.916 778.256h63.877v-67.314h-63.877v67.314Z" clip-rule="evenodd"/>
  <path stroke="#340096" stroke-linecap="round" stroke-linejoin="round" stroke-width=".868" d="m152.156 715.059 54.779 58.323M206.935 715.059l-54.779 58.323"/>
  <path fill="#FFA578" fill-rule="evenodd" d="M109.642 795.421h63.877v-67.314h-63.877v67.314Z" clip-rule="evenodd"/>
  <path stroke="#340096" stroke-linecap="round" stroke-linejoin="round" stroke-width=".868" d="M109.642 795.421h63.877v-67.314h-63.877v67.314Z" clip-rule="evenodd"/>
  <path stroke="#340096" stroke-linecap="round" stroke-linejoin="round" stroke-width=".868" d="m113.881 732.225 54.779 58.323M168.66 732.225l-54.779 58.323"/>
  <path fill="#FFEBDE" fill-rule="evenodd" d="M581.674 590.856c0 10.136-8.196 18.353-18.304 18.353-10.11 0-18.308-8.217-18.308-18.353 0-10.136 8.198-18.353 18.308-18.353 10.108 0 18.304 8.217 18.304 18.353Z" clip-rule="evenodd"/>
  <path stroke="#340096" stroke-linecap="round" stroke-linejoin="round" stroke-width=".868" d="M581.674 590.856c0 10.136-8.196 18.353-18.304 18.353-10.11 0-18.308-8.217-18.308-18.353 0-10.136 8.198-18.353 18.308-18.353 10.108 0 18.304 8.217 18.304 18.353Z" clip-rule="evenodd"/>
  <path stroke="#340096" stroke-linecap="round" stroke-linejoin="round" stroke-width=".868" d="M554.903 590.856c0 10.136-8.196 18.353-18.304 18.353-10.112 0-18.308-8.217-18.308-18.353 0-10.136 8.196-18.353 18.308-18.353 10.108 0 18.304 8.217 18.304 18.353Z" clip-rule="evenodd"/>
  <path fill="#F2F0FF" fill-rule="evenodd" d="M155.634 536.947c3.656-25.431 14.895-50.438 18.29-62.497 0 0 .074-.255.005-.317-.081-.066-.309.056-.309.056-11.322 5.298-34.223 20.272-58.734 27.84-21.745 6.732-46.818 8.268-54.93 17.784-7.913 9.28-5.97 22.551-6.153 34.581-.115 8.213-10.366 26.77-10.366 26.77s16.216 13.788 22.52 19.3l.155.131c.053.048.113.099.148.129 6.43 5.402 22.521 19.299 22.521 19.299s16.7-13.034 24.765-14.434c11.839-2.042 25.202-2.195 33.116-11.476 8.111-9.514 5.743-34.567 8.972-57.166Z" clip-rule="evenodd"/>
  <path stroke="#BC99FF" stroke-width=".606" d="M155.634 536.947c3.656-25.431 14.895-50.438 18.29-62.497 0 0 .074-.255.005-.317-.081-.066-.309.056-.309.056-11.322 5.298-34.223 20.272-58.734 27.84-21.745 6.732-46.818 8.268-54.93 17.784-7.913 9.28-5.97 22.551-6.153 34.581-.115 8.213-10.366 26.77-10.366 26.77s16.216 13.788 22.52 19.3l.155.131c.053.048.113.099.148.129 6.43 5.402 22.521 19.299 22.521 19.299s16.7-13.034 24.765-14.434c11.839-2.042 25.202-2.195 33.116-11.476 8.111-9.514 5.743-34.567 8.972-57.166Z" clip-rule="evenodd"/>
  <path fill="#F2F0FF" fill-rule="evenodd" d="M150.392 501.746c-2.936 9.773-5.763 21.177-7.516 33.373-1.159 8.125-1.64 16.18-2.091 23.99-.523 9.4-1.362 23.58-3.932 26.596-3.354 3.933-10.822 5.008-18.769 6.121-2.258.322-4.524.639-6.731 1.026-6.691 1.164-24.018 15.417-30.844 20.081l-12.885-11.042 82.768-100.145ZM67.624 601.891c-7.586-6.501-15.864-13.614-16.924-14.503 3.548-7.473 15.89-25.997 15.996-32.806.037-2.245.014-4.521-.042-6.828-.111-8.018-.244-15.606 3.108-19.539 2.572-3.016 16.44-6.033 25.598-8.031 7.625-1.662 15.514-3.372 23.334-5.788 11.743-3.636 22.538-8.21 31.698-12.65" clip-rule="evenodd"/>
  <path stroke="#BC99FF" stroke-width=".606" d="M67.624 601.891c-7.586-6.501-15.864-13.614-16.924-14.503 3.548-7.473 15.89-25.997 15.996-32.806.037-2.245.014-4.521-.042-6.828-.111-8.018-.244-15.606 3.108-19.539 2.572-3.016 16.44-6.033 25.598-8.031 7.625-1.662 15.514-3.372 23.334-5.788 11.743-3.636 22.538-8.21 31.698-12.65m0 0c-2.936 9.773-5.763 21.177-7.516 33.373-1.159 8.125-1.64 16.18-2.091 23.99-.523 9.4-1.362 23.58-3.932 26.596-3.354 3.933-10.822 5.008-18.769 6.121-2.258.322-4.524.639-6.731 1.026-6.691 1.164-24.018 15.417-30.844 20.081l-12.885-11.042 82.768-100.145Z"/>
  <path fill="#F2F0FF" fill-rule="evenodd" d="m9.896 618.947 24.41-28.632 47.799 40.961-24.41 28.63-47.799-40.959Z" clip-rule="evenodd"/>
  <mask id="a" width="74" height="70" x="9" y="590" maskUnits="userSpaceOnUse" style="mask-type:alpha">
    <path fill="#fff" d="m9.896 618.946 47.797 40.96 24.412-28.63-47.799-40.96"/>
  </mask>
  <g mask="url(#a)">
    <path fill="#F2F0FF" fill-rule="evenodd" d="m40.098 644.829 24.41-28.63 17.596 15.077-24.41 28.632" clip-rule="evenodd"/>
    <path stroke="#BC99FF" stroke-width=".606" d="m40.098 644.829 24.41-28.63 17.596 15.077-24.41 28.632"/>
  </g>
  <path stroke="#BC99FF" stroke-width=".606" d="m9.896 618.947 24.41-28.632 47.799 40.961-24.41 28.63-47.799-40.959Z" clip-rule="evenodd"/>
  <path fill="#F2F0FF" fill-rule="evenodd" d="M89.523 641.215 20.9 582.41l10.126-11.877 68.623 58.805-10.126 11.877Z" clip-rule="evenodd"/>
  <path stroke="#BC99FF" stroke-width=".606" d="M89.523 641.215 20.9 582.41l10.126-11.877 68.623 58.805-10.126 11.877Z" clip-rule="evenodd"/>
  <path fill="#F2F0FF" fill-rule="evenodd" d="M104.269 565.575c-4.888.392-9.202-3.306-9.608-8.231-.29-5.023 3.402-9.351 8.3-9.733 1.365-.199 2.664.067 3.918.625l51.484-60.901c1.18-1.383 3.188-1.516 4.525-.542 1.398 1.372 1.64 3.269.462 4.651l-51.653 61.088c.5.948.874 2.114.869 3.31.396 4.918-3.294 9.248-8.297 9.733Z" clip-rule="evenodd"/>
  <path stroke="#BC99FF" stroke-width=".606" d="M104.269 565.575c-4.888.392-9.202-3.306-9.608-8.231-.29-5.023 3.402-9.351 8.3-9.733 1.365-.199 2.664.067 3.918.625l51.484-60.901c1.18-1.383 3.188-1.516 4.525-.542 1.398 1.372 1.64 3.269.462 4.651l-51.653 61.088c.5.948.874 2.114.869 3.31.396 4.918-3.294 9.248-8.297 9.733Z" clip-rule="evenodd"/>
</svg>
