<svg xmlns="http://www.w3.org/2000/svg" fill="none" viewBox="0 0 484 390">
  <mask id="dream-big-a" width="484" height="390" x="0" y="0" maskUnits="userSpaceOnUse" style="mask-type:alpha">
    <path fill="#C4C4C4" d="M0 0h484v390H0z"/>
  </mask>
  <g mask="url(#dream-big-a)">
    <path fill="#F2F0FF" d="M352.217 30.224c17.534 8.232 28.965 17.293 41.239 31.882l20.221 24.034c5.078 6.035 24.943 29.22 29.671 35.265 8.884 11.358 13.757 21.245 22.949 32.17 7.53 8.95 10.483 21.637 13.068 33.277 8.133 36.618-.644 40.442-3.402 78.557-1.346 18.589-4.915 30.648-14.114 46.994-13.211 23.476-37.617 45.42-61.958 57.163-27.009 13.03-53.327 11.062-82.125 8.582-24.612-2.12-48.105-5.595-71.042-15.501a3900.016 3900.016 0 0 0-38.296-16.283c-21.988-9.217-45.255-11.76-68.12-18.417-22.275-6.486-44.203-14.655-55.625-35.792-4.922-9.108-5.95-23.103-7.273-33.119-2.836-21.468-1.284-43.495 2.9-64.672 9.36-47.359 34.613-89.675 67.838-124.685 21.02-22.148 51.681-37.262 78.216-51.165 17.423-9.129 31.907-14.179 51.203-13.11 26.724 1.482 50.811 13.629 74.65 24.82Z"/>
    <path fill="#FBFBFC" stroke="#FBFBFC" stroke-width="2" d="m72.182 176.512.505.733.786-.416a19.25 19.25 0 0 1 9.024-2.231c10.67 0 19.316 8.624 19.316 19.258 0 2.769-.587 5.402-1.641 7.78H7.987a13.814 13.814 0 0 1-.213-2.41c0-7.666 6.234-13.885 13.93-13.885 2.341 0 4.543.578 6.478 1.594l1.243.652.21-1.387c1.707-11.242 11.44-19.861 23.193-19.861 8.037 0 15.125 4.029 19.354 10.173Z"/>
    <path stroke="#0E0916" stroke-linecap="round" stroke-linejoin="round" stroke-width="2" d="M100.81 202.636a20.122 20.122 0 0 0 2.003-8.78c0-11.189-9.096-20.258-20.316-20.258-3.43 0-6.659.85-9.491 2.347-4.408-6.404-11.798-10.606-20.178-10.606-12.253 0-22.401 8.986-24.181 20.71a14.901 14.901 0 0 0-6.944-1.708c-8.245 0-14.929 6.664-14.929 14.885 0 1.175.14 2.315.398 3.41h93.638Z" clip-rule="evenodd"/>
    <path fill="#F2F0FF" fill-rule="evenodd" d="M275.485 140.631c0 36.407-29.601 65.921-66.114 65.921-36.514 0-66.112-29.514-66.112-65.921 0-36.407 29.598-65.922 66.112-65.922 36.513 0 66.114 29.515 66.114 65.922Z" clip-rule="evenodd"/>
    <mask id="dream-big-b" width="133" height="133" x="143" y="74" maskUnits="userSpaceOnUse" style="mask-type:alpha">
      <path fill="#fff" d="M143.258 140.631c0 36.407 29.601 65.92 66.114 65.92 36.514 0 66.114-29.513 66.114-65.92s-29.6-65.921-66.114-65.921c-36.513 0-66.114 29.514-66.114 65.921Z"/>
    </mask>
    <g mask="url(#dream-big-b)">
      <path fill="#FFD8BA" fill-rule="evenodd" d="M182.846 120.29c-.076.55-7.666 26.391-1.549 40.208 1.753 3.96 4.4 7.285 8.19 8.421l.031.121v14.732l30.589 5.532 1.03-36.721s5.58 1.557 7.436-2.631c1.855-4.187-1.172-6.72-3.516-7.693 0 0-.417-17.028-2.336-17.301-1.922-.273-39.875-4.668-39.875-4.668Z" clip-rule="evenodd"/>
    </g>
    <mask id="dream-big-c" width="133" height="133" x="143" y="74" maskUnits="userSpaceOnUse" style="mask-type:alpha">
      <path fill="#fff" d="M143.258 140.631c0 36.407 29.601 65.92 66.114 65.92 36.514 0 66.114-29.513 66.114-65.92s-29.6-65.921-66.114-65.921c-36.513 0-66.114 29.514-66.114 65.921Z"/>
    </mask>
    <g mask="url(#dream-big-c)">
      <path stroke="#340096" stroke-linecap="round" stroke-linejoin="round" stroke-width="2" d="M191.463 161.024c2.966 2.111 5.09-.838 5.09-.838"/>
    </g>
    <mask id="dream-big-d" width="133" height="133" x="143" y="74" maskUnits="userSpaceOnUse" style="mask-type:alpha">
      <path fill="#fff" d="M143.258 140.631c0 36.407 29.601 65.92 66.114 65.92 36.514 0 66.114-29.513 66.114-65.92s-29.6-65.921-66.114-65.921c-36.513 0-66.114 29.514-66.114 65.921Z"/>
    </mask>
    <g mask="url(#dream-big-d)">
      <path stroke="#340096" stroke-linecap="round" stroke-linejoin="round" stroke-width="2" d="M195 154.121s-7.78 1.825-6.833-4.5c.534-3.565 1.805-9.117 2.812-13.282"/>
    </g>
    <mask id="dream-big-e" width="133" height="133" x="143" y="74" maskUnits="userSpaceOnUse" style="mask-type:alpha">
      <path fill="#fff" d="M143.258 140.631c0 36.407 29.601 65.92 66.114 65.92 36.514 0 66.114-29.513 66.114-65.92s-29.6-65.921-66.114-65.921c-36.513 0-66.114 29.514-66.114 65.921Z"/>
    </mask>
    <g mask="url(#dream-big-e)">
      <path stroke="#340096" stroke-linecap="round" stroke-linejoin="round" stroke-width="2" d="M203.603 141.725s-3.205-1.133-5.026-.142"/>
    </g>
    <mask id="dream-big-f" width="133" height="133" x="143" y="74" maskUnits="userSpaceOnUse" style="mask-type:alpha">
      <path fill="#fff" d="M143.258 140.631c0 36.407 29.601 65.92 66.114 65.92 36.514 0 66.114-29.513 66.114-65.92s-29.6-65.921-66.114-65.921c-36.513 0-66.114 29.514-66.114 65.921Z"/>
    </mask>
    <g mask="url(#dream-big-f)">
      <path stroke="#340096" stroke-linecap="round" stroke-linejoin="round" stroke-width="2" d="M186.81 142.269s-2.189-1.26-4.504-.049"/>
    </g>
    <mask id="dream-big-g" width="133" height="133" x="143" y="74" maskUnits="userSpaceOnUse" style="mask-type:alpha">
      <path fill="#fff" d="M143.258 140.631c0 36.407 29.601 65.92 66.114 65.92 36.514 0 66.114-29.513 66.114-65.92s-29.6-65.921-66.114-65.921c-36.513 0-66.114 29.514-66.114 65.921Z"/>
    </mask>
    <g mask="url(#dream-big-g)">
      <path stroke="#340096" stroke-linecap="round" stroke-linejoin="round" stroke-width="2" d="M189.519 169.039v14.729"/>
    </g>
    <mask id="dream-big-h" width="133" height="133" x="143" y="74" maskUnits="userSpaceOnUse" style="mask-type:alpha">
      <path fill="#fff" d="M143.258 140.631c0 36.407 29.601 65.92 66.114 65.92 36.514 0 66.114-29.513 66.114-65.92s-29.6-65.921-66.114-65.921c-36.513 0-66.114 29.514-66.114 65.921Z"/>
    </mask>
    <g mask="url(#dream-big-h)">
      <path stroke="#340096" stroke-linecap="round" stroke-linejoin="round" stroke-width="2" d="m220.107 189.301 1.03-36.722s5.58 1.557 7.436-2.63c1.855-4.188-1.172-6.72-3.516-7.694"/>
    </g>
    <mask id="dream-big-i" width="133" height="133" x="143" y="74" maskUnits="userSpaceOnUse" style="mask-type:alpha">
      <path fill="#fff" d="M143.258 140.631c0 36.407 29.601 65.92 66.114 65.92 36.514 0 66.114-29.513 66.114-65.92s-29.6-65.921-66.114-65.921c-36.513 0-66.114 29.514-66.114 65.921Z"/>
    </mask>
    <g mask="url(#dream-big-i)">
      <path stroke="#340096" stroke-linecap="round" stroke-linejoin="round" stroke-width="2" d="M222.783 145.919c.624-.603 1.697-.605 2.406-.098.708.505 1.054 1.423.994 2.288-.057.868-.477 1.68-1.044 2.339-.276.32-.593.614-.976.793"/>
    </g>
    <mask id="dream-big-j" width="133" height="133" x="143" y="74" maskUnits="userSpaceOnUse" style="mask-type:alpha">
      <path fill="#fff" d="M143.258 140.631c0 36.407 29.601 65.92 66.114 65.92 36.514 0 66.114-29.513 66.114-65.92s-29.6-65.921-66.114-65.921c-36.513 0-66.114 29.514-66.114 65.921Z"/>
    </mask>
    <g mask="url(#dream-big-j)">
      <path stroke="#340096" stroke-linecap="round" stroke-linejoin="round" stroke-width="2" d="M182.846 120.29c-.076.55-7.666 26.391-1.549 40.208 3.038 6.866 8.766 11.82 18.464 6.78"/>
    </g>
    <mask id="dream-big-k" width="133" height="133" x="143" y="74" maskUnits="userSpaceOnUse" style="mask-type:alpha">
      <path fill="#fff" d="M143.258 140.631c0 36.407 29.601 65.92 66.114 65.92 36.514 0 66.114-29.513 66.114-65.92s-29.6-65.921-66.114-65.921c-36.513 0-66.114 29.514-66.114 65.921Z"/>
    </mask>
    <g mask="url(#dream-big-k)">
      <path fill="#2250FF" fill-rule="evenodd" d="M132.081 197.335s28.089-26.621 57.257-19.236c1.236 2.925 12.693 9.38 30.755 1.045 32.523 4.956 37.018 6.295 42.781 13.465 5.977 7.436 2.852 18.276 2.852 18.276h-151.76l18.115-13.55Z" clip-rule="evenodd"/>
    </g>
    <mask id="dream-big-l" width="133" height="133" x="143" y="74" maskUnits="userSpaceOnUse" style="mask-type:alpha">
      <path fill="#fff" d="M143.258 140.631c0 36.407 29.601 65.92 66.114 65.92 36.514 0 66.114-29.513 66.114-65.92s-29.6-65.921-66.114-65.921c-36.513 0-66.114 29.514-66.114 65.921Z"/>
    </mask>
    <g mask="url(#dream-big-l)">
      <path stroke="#0E0916" stroke-linecap="round" stroke-linejoin="round" stroke-width="2" d="M132.081 197.335s28.089-26.621 57.257-19.236c1.236 2.925 12.693 9.38 30.755 1.045 32.523 4.956 37.018 6.295 42.781 13.465 5.977 7.436 2.852 18.276 2.852 18.276h-151.76l18.115-13.55Z" clip-rule="evenodd"/>
    </g>
    <mask id="dream-big-m" width="133" height="133" x="143" y="74" maskUnits="userSpaceOnUse" style="mask-type:alpha">
      <path fill="#fff" d="M143.258 140.631c0 36.407 29.601 65.92 66.114 65.92 36.514 0 66.114-29.513 66.114-65.92s-29.6-65.921-66.114-65.921c-36.513 0-66.114 29.514-66.114 65.921Z"/>
    </mask>
    <g mask="url(#dream-big-m)">
      <path fill="#fff" fill-rule="evenodd" d="M227.996 156.094a4.864 4.864 0 0 1-4.871 4.857c-2.69 0-4.872-2.175-4.872-4.857 0-2.682 2.182-4.857 4.872-4.857a4.864 4.864 0 0 1 4.871 4.857Z" clip-rule="evenodd"/>
    </g>
    <mask id="dream-big-n" width="133" height="133" x="143" y="74" maskUnits="userSpaceOnUse" style="mask-type:alpha">
      <path fill="#fff" d="M143.258 140.631c0 36.407 29.601 65.92 66.114 65.92 36.514 0 66.114-29.513 66.114-65.92s-29.6-65.921-66.114-65.921c-36.513 0-66.114 29.514-66.114 65.921Z"/>
    </mask>
    <g mask="url(#dream-big-n)">
      <path stroke="#340096" stroke-linecap="round" stroke-linejoin="round" stroke-width="2" d="M227.996 156.094a4.864 4.864 0 0 1-4.871 4.857c-2.69 0-4.872-2.175-4.872-4.857 0-2.682 2.182-4.857 4.872-4.857a4.864 4.864 0 0 1 4.871 4.857Z" clip-rule="evenodd"/>
    </g>
    <mask id="dream-big-o" width="133" height="133" x="143" y="74" maskUnits="userSpaceOnUse" style="mask-type:alpha">
      <path fill="#fff" d="M143.258 140.631c0 36.407 29.601 65.92 66.114 65.92 36.514 0 66.114-29.513 66.114-65.92s-29.6-65.921-66.114-65.921c-36.513 0-66.114 29.514-66.114 65.921Z"/>
    </mask>
    <g mask="url(#dream-big-o)">
      <path fill="#340096" fill-rule="evenodd" d="M178.372 129.267c.791 3.463 5.891 3.853 9.429 4.253a62.474 62.474 0 0 0 29.836-3.939c-1.145 3.442-1.349 7.375.362 10.575 1.712 3.2 5.862 5.032 9.302 3.855 4.285-1.464 5.56-6.568 5.244-11.072-.611-8.745-6.206-16.481-14.325-19.819-5.555-2.281-11.784-2.585-17.718-1.661-8.563 1.331-24.771 6.256-22.13 17.808Z" clip-rule="evenodd"/>
    </g>
    <mask id="dream-big-p" width="133" height="133" x="143" y="74" maskUnits="userSpaceOnUse" style="mask-type:alpha">
      <path fill="#fff" d="M143.258 140.631c0 36.407 29.601 65.92 66.114 65.92 36.514 0 66.114-29.513 66.114-65.92s-29.6-65.921-66.114-65.921c-36.513 0-66.114 29.514-66.114 65.921Z"/>
    </mask>
    <g mask="url(#dream-big-p)">
      <path fill="#340096" fill-rule="evenodd" d="M244.321 118.824c6.37-9.443 4.241-21.99-4.756-28.024-8.997-6.036-21.457-3.275-27.828 6.166-6.37 9.443-4.241 21.989 4.756 28.023 8.997 6.036 21.457 3.276 27.828-6.165Z" clip-rule="evenodd"/>
    </g>
    <path stroke="#0E0916" stroke-linecap="round" stroke-linejoin="round" stroke-width="2" d="M275.484 140.631c0 36.407-29.6 65.922-66.114 65.922-36.513 0-66.112-29.515-66.112-65.922S172.857 74.71 209.37 74.71c36.514 0 66.114 29.514 66.114 65.921Z" clip-rule="evenodd"/>
    <path fill="#E6E2FF" fill-rule="evenodd" d="m55.88 122.62 1.534 2.147c3.16 4.415 9.413 5.228 13.6 1.766l2.242-1.853-1.78 2.629c-3.059 4.522-1.596 10.686 3.172 13.36l2.01 1.125-3.048-.786c-4.85-1.255-9.833 1.524-11.3 6.301l-.922 3.002.088-2.296c.21-5.453-4.288-9.922-9.755-9.69l-3.176.136 2.754-.934c5.151-1.744 7.73-7.482 5.61-12.477l-1.03-2.43Z" clip-rule="evenodd"/>
    <path stroke="#0E0916" stroke-linecap="round" stroke-linejoin="round" stroke-width="2" d="m55.88 122.62 1.534 2.147c3.16 4.415 9.413 5.228 13.6 1.766l2.242-1.853-1.78 2.629c-3.059 4.522-1.596 10.686 3.172 13.36l2.01 1.125-3.048-.786c-4.85-1.255-9.833 1.524-11.3 6.301l-.922 3.002.088-2.296c.21-5.453-4.288-9.922-9.755-9.69l-3.176.136 2.754-.934c5.151-1.744 7.73-7.482 5.61-12.477l-1.03-2.43Z" clip-rule="evenodd"/>
    <mask id="dream-big-q" width="380" height="324" x="6" y="47" maskUnits="userSpaceOnUse" style="mask-type:alpha">
      <path fill="#fff" d="M6 370.864h380V47H6v323.864Z"/>
    </mask>
    <g mask="url(#dream-big-q)">
      <path fill="#BCD7FE" fill-rule="evenodd" d="M228.159 319.126h23.557v-52.65h-23.557v52.65Z" clip-rule="evenodd"/>
      <path stroke="#0E0916" stroke-linecap="round" stroke-linejoin="round" stroke-width="2" d="M228.159 319.126h23.557v-52.65h-23.557v52.65Z" clip-rule="evenodd"/>
      <path fill="#BC99FF" fill-rule="evenodd" d="M258.534 319.126h23.557v-76.112h-23.557v76.112Z" clip-rule="evenodd"/>
      <path stroke="#0E0916" stroke-linecap="round" stroke-linejoin="round" stroke-width="2" d="M258.534 319.126h23.557v-76.112h-23.557v76.112Z" clip-rule="evenodd"/>
      <path fill="#2250FF" fill-rule="evenodd" d="M288.908 319.124h23.558v-96.636h-23.558v96.636Z" clip-rule="evenodd"/>
      <path stroke="#0E0916" stroke-linecap="round" stroke-linejoin="round" stroke-width="2" d="M288.908 319.124h23.558v-96.636h-23.558v96.636Z" clip-rule="evenodd"/>
      <path stroke="#0E0916" stroke-linecap="round" stroke-linejoin="round" stroke-width="2" d="M54.813 319.123h326.15"/>
      <path fill="#340096" fill-rule="evenodd" d="M356.466 105.072 341.43 89.546l-10.375-10.713-12.779 13.192-12.632 13.047h13.637v214.053h23.556V105.072h13.629Z" clip-rule="evenodd"/>
      <path stroke="#0E0916" stroke-linecap="round" stroke-linejoin="round" stroke-width="2" d="M356.466 105.072 341.43 89.546l-10.375-10.713-12.779 13.192-12.632 13.047h13.637v214.053h23.556V105.072h13.629Z" clip-rule="evenodd"/>
      <path fill="#FFA578" fill-rule="evenodd" d="M385.228 195.072c0 15.469-12.575 28.007-28.089 28.007-15.512 0-28.089-12.538-28.089-28.007 0-15.467 12.577-28.007 28.089-28.007 15.514 0 28.089 12.54 28.089 28.007Z" clip-rule="evenodd"/>
      <path stroke="#340096" stroke-linecap="round" stroke-linejoin="round" stroke-width="2" d="M385.228 195.072c0 15.469-12.575 28.007-28.089 28.007-15.512 0-28.089-12.538-28.089-28.007 0-15.467 12.577-28.007 28.089-28.007 15.514 0 28.089 12.54 28.089 28.007Z" clip-rule="evenodd"/>
      <path stroke="#340096" stroke-linecap="round" stroke-linejoin="round" stroke-width="2" d="m345.538 195.571 6.383 8.412 16.814-16.308"/>
      <path fill="#BC99FF" fill-rule="evenodd" d="m90.953 223.186-31.284 40.219 3.08 19.01 38.367-5.999" clip-rule="evenodd"/>
      <path stroke="#0E0916" stroke-linecap="round" stroke-linejoin="round" stroke-width="2" d="m90.953 223.186-31.284 40.219 3.08 19.01 38.367-5.999"/>
      <path fill="#BC99FF" fill-rule="evenodd" d="m158.934 223.11 28.843 41.994-4.202 18.794-37.943-8.25" clip-rule="evenodd"/>
      <path stroke="#0E0916" stroke-linecap="round" stroke-linejoin="round" stroke-width="2" d="m158.934 223.11 28.843 41.994-4.202 18.794-37.943-8.25"/>
      <path fill="#fff" fill-rule="evenodd" d="m152.986 343.301-13.23-35.171a31.173 31.173 0 0 1-1.839-7.866l-.029-.296a31.087 31.087 0 0 1 1.981-14.431c12.484-31.986 60.116-168.783-13.724-225.737-78.139 59.359-20.424 221.251-16.07 233.089a31.143 31.143 0 0 1 1.034 17.903l-7.699 32.254" clip-rule="evenodd"/>
      <path stroke="#0E0916" stroke-linecap="round" stroke-linejoin="round" stroke-width="2" d="m152.986 343.301-13.23-35.171a31.173 31.173 0 0 1-1.839-7.866l-.029-.296a31.087 31.087 0 0 1 1.981-14.431c12.484-31.986 60.116-168.783-13.724-225.737-78.139 59.359-20.424 221.251-16.07 233.089a31.143 31.143 0 0 1 1.034 17.903l-7.699 32.254"/>
      <path fill="#BC99FF" fill-rule="evenodd" d="M136.021 112.649c3.308 6.188.96 13.879-5.246 17.179-6.206 3.301-13.92.959-17.23-5.231-3.31-6.188-.96-13.879 5.246-17.179 6.206-3.301 13.92-.957 17.23 5.231Z" clip-rule="evenodd"/>
      <path stroke="#0E0916" stroke-linecap="round" stroke-linejoin="round" stroke-width="2" d="M136.021 112.649c3.308 6.188.96 13.879-5.246 17.179-6.206 3.301-13.92.959-17.23-5.231-3.31-6.188-.96-13.879 5.246-17.179 6.206-3.301 13.92-.957 17.23 5.231Z" clip-rule="evenodd"/>
      <path stroke="#0E0916" stroke-linecap="round" stroke-linejoin="round" stroke-width="2" d="m126.03 323.279 1.6 46.813"/>
    </g>
  </g>
</svg>
