<svg xmlns="http://www.w3.org/2000/svg" fill="none" viewBox="0 0 444 360">
  <mask id="resource-a" width="444" height="360" x="0" y="0" maskUnits="userSpaceOnUse" style="mask-type:alpha">
    <path fill="#C4C4C4" d="M0 0h444v360H0z"/>
  </mask>
  <g mask="url(#resource-a)">
    <path fill="#F2F0FF" d="M131.24 39.025c12.603-2.847 24.161-8.619 36.565-11.718 6.482-1.464 16.053-10.545 22.615-12.027 15.799-3.568 25.463-9.989 41.697-9.417 7.031.247 19.751-.861 26.901-.886 7.221-.025 13.521.933 20.605 2.012l.672.102c3.959.602 8.153 2.35 11.842 3.924 5.438 2.32 11.524 3.28 16.818 5.813 10.065 4.814 19.73 11.122 28.114 18.381 20.727 17.948 24.757 43.278 33.287 67.957 19.101 55.261-52.339 77.28-69.864 120.726-5.643 13.987-12.749 27.463-18.594 41.36-5.177 12.309-14.302 22.648-21.378 33.852-6.243 9.886-15.156 19.285-24.891 25.675-17.097 11.224-37.492 13.708-56.923 18.879-47.739 12.703-106.935 12.162-151.566-12.092-15.404-8.371-18.937-18.937-22.287-35.138-3.02-14.598-1.181-31.306 6.143-44.571 5.334-9.659 12.042-18.029 16.714-28.121 6.456-13.946 7.448-30.665 5.502-45.708-2.527-19.535-4.645-39.149-7.225-58.658-2-15.125-.324-26.693 6.789-40.296C46.725 52.4 75.05 51.715 101.004 45.855l30.236-6.83Z"/>
    <path stroke="#FFA578" stroke-linecap="round" stroke-linejoin="round" stroke-width="3" d="m442 244.863-55.74 87.364-90.176-57.567 55.74-87.364L442 244.863Z" clip-rule="evenodd"/>
    <path fill="#E6E2FF" fill-rule="evenodd" d="M361.53 227.633c2.327 57.421-42.321 105.858-99.725 108.187-57.404 2.332-105.827-42.331-108.155-99.752-2.331-57.424 42.321-105.862 99.725-108.19 57.404-2.329 105.824 42.334 108.155 99.755Z" clip-rule="evenodd"/>
    <path stroke="#0E0916" stroke-linecap="round" stroke-linejoin="round" stroke-width="2" d="M361.53 227.633c2.327 57.421-42.321 105.858-99.725 108.187-57.404 2.332-105.827-42.331-108.155-99.752-2.331-57.424 42.321-105.862 99.725-108.19 57.404-2.329 105.824 42.334 108.155 99.755Z" clip-rule="evenodd"/>
    <mask id="resource-b" width="209" height="209" x="153" y="127" maskUnits="userSpaceOnUse" style="mask-type:alpha">
      <path fill="#fff" d="M153.553 231.848c0 57.472 46.575 104.061 104.026 104.061 57.452 0 104.027-46.589 104.027-104.061 0-57.469-46.575-104.058-104.027-104.058-57.451 0-104.026 46.589-104.026 104.058Z"/>
    </mask>
    <g mask="url(#resource-b)">
      <path stroke="#2250FF" stroke-width="2" d="M175.275 255.029c12.707 17.245 29.08 30.041 51.067 31.931 29.349 2.522 60.436-5.202 86.606-18.236 5.125-2.55 10.965-7.244 9.223-12.701-1.11-3.486-4.908-5.273-8.386-6.407-27.83-9.065-60.575-.548-80.463 20.929-5.612 6.056-10.349 13.303-11.591 21.463-1.239 8.163 1.671 17.303 8.6 21.79 3.845 2.488 8.49 3.356 13.016 4.058 31.711 4.898 64.013 3.904 95.788.129 28.294-3.356 67.235-2.594 90.013-22.532 1.119-.98 2.263-2.206 2.246-3.697-.021-2.042-2.117-3.353-3.975-4.204-39.466-18.12-86.759-10.76-126.892.902l-1.259.368c-16.124 4.742-32.704 11.118-43.451 24.04-5.83 7.006-9.635 16.891-5.997 25.245 3.005 6.904 10.196 10.903 17.125 13.841 12.03 5.093 24.72 8.487 37.546 10.958 43.897 8.466 93.606 7.547 135.727-8.697a147.349 147.349 0 0 0 17.659-8.191c8.708-4.769 10.25-11.632-.109-14.28-6.667-1.702-13.916-1.678-20.756-1.389a400.347 400.347 0 0 0-77.826 11.023c-11.934 2.91-23.954 6.471-34.147 13.323-4.128 2.782-8.245 6.775-8.164 11.748.058 3.411 2.131 6.471 4.513 8.915 6.952 7.122 16.75 10.615 26.343 13.273 19.912 5.529 40.545 8.443 61.209 8.705 10.332.129 20.67-.402 30.938-1.6 9.539-1.117 19.343-2.056 27.977-6.611 6.653-3.513-1.409-6.638-4.748-7.391-4.083-.922-8.429-1.344-12.622-1.354a239.432 239.432 0 0 0-46.963 4.514c-7.541 1.487-15.137 3.387-21.77 7.271-6.632 3.887-12.275 10.025-14.014 17.521"/>
    </g>
    <path fill="#fff" fill-rule="evenodd" d="M280.597 94.549v111.4c0 5.27-4.274 9.542-9.545 9.542H99.504c-5.272 0-9.546-4.272-9.546-9.542v-111.4c0-5.273 4.274-9.549 9.546-9.549h171.548c5.271 0 9.545 4.276 9.545 9.549Z" clip-rule="evenodd"/>
    <path stroke="#0E0916" stroke-linecap="round" stroke-linejoin="round" stroke-width="2" d="M280.597 94.549v111.4c0 5.27-4.274 9.542-9.545 9.542H99.504c-5.272 0-9.546-4.272-9.546-9.542v-111.4c0-5.273 4.274-9.549 9.546-9.549h171.548c5.271 0 9.545 4.276 9.545 9.549Z" clip-rule="evenodd"/>
    <path fill="#E6E2FF" fill-rule="evenodd" d="M89.97 112.421h190.916v-12.282H89.971v12.282Z" clip-rule="evenodd"/>
    <path stroke="#0E0916" stroke-linecap="round" stroke-linejoin="round" stroke-width="2" d="M89.97 112.421h190.916v-12.282H89.971v12.282Z" clip-rule="evenodd"/>
    <path stroke="#0E0916" stroke-linecap="round" stroke-linejoin="round" stroke-width="2" d="M89.958 204.661h190.646"/>
    <path fill="#fff" fill-rule="evenodd" d="M100.71 92.64a1.957 1.957 0 1 1-3.918 0 1.957 1.957 0 0 1 3.918 0Z" clip-rule="evenodd"/>
    <path stroke="#0E0916" stroke-linecap="round" stroke-linejoin="round" stroke-width="2" d="M100.71 92.64a1.957 1.957 0 1 1-3.918 0 1.957 1.957 0 0 1 3.918 0Z" clip-rule="evenodd"/>
    <path fill="#fff" fill-rule="evenodd" d="M109.509 92.64a1.96 1.96 0 0 1-1.957 1.957 1.955 1.955 0 0 1-1.957-1.957 1.957 1.957 0 0 1 3.914 0Z" clip-rule="evenodd"/>
    <path stroke="#0E0916" stroke-linecap="round" stroke-linejoin="round" stroke-width="2" d="M109.509 92.64a1.96 1.96 0 0 1-1.957 1.957 1.955 1.955 0 0 1-1.957-1.957 1.957 1.957 0 0 1 3.914 0Z" clip-rule="evenodd"/>
    <path fill="#fff" fill-rule="evenodd" d="M118.306 92.64a1.957 1.957 0 1 1-3.912.001 1.957 1.957 0 0 1 3.912-.001Z" clip-rule="evenodd"/>
    <path stroke="#0E0916" stroke-linecap="round" stroke-linejoin="round" stroke-width="2" d="M118.306 92.64a1.957 1.957 0 1 1-3.912.001 1.957 1.957 0 0 1 3.912-.001Z" clip-rule="evenodd"/>
    <path fill="#340096" fill-rule="evenodd" d="m196.32 166.797-26.591-10.866v-5.491l26.591-10.808v6.791l-17.087 6.791 17.087 6.792v6.791ZM200 179.985l22.235-47.655h6.79l-22.236 47.655H200ZM260.715 155.93l-26.589 10.866v-6.846l17.084-6.737-17.084-6.791v-6.791l26.589 10.811v5.488Z" clip-rule="evenodd"/>
    <path stroke="#0E0916" stroke-linecap="round" stroke-linejoin="round" stroke-width="2" d="M110.189 129.082h40.409M110.189 139.361h40.409M110.189 149.641h40.409M110.189 159.919h40.409M110.189 170.198h40.409M110.189 180.476h40.409"/>
    <path fill="#FBFBFC" fill-rule="evenodd" d="M158.536 220.944s-14.596 13.896-22.474 22.791a1410.453 1410.453 0 0 1 29.032 10.284l6.786-7.993-13.344-25.082Z" clip-rule="evenodd"/>
    <path stroke="#340096" stroke-linecap="round" stroke-linejoin="round" stroke-width="2" d="M158.536 220.944s-14.596 13.896-22.474 22.791a1410.453 1410.453 0 0 1 29.032 10.284l6.786-7.993-13.344-25.082Z" clip-rule="evenodd"/>
    <path fill="#2250FF" fill-rule="evenodd" d="m171.878 246.027-6.786 7.993c8.328 3.043 13.752 5.106 13.752 5.106l-6.966-13.099Z" clip-rule="evenodd"/>
    <path stroke="#340096" stroke-linecap="round" stroke-linejoin="round" stroke-width="2" d="m171.878 246.027-6.786 7.993c8.328 3.043 13.752 5.106 13.752 5.106l-6.966-13.099Z" clip-rule="evenodd"/>
    <path fill="#2250FF" fill-rule="evenodd" d="m69.263 176.83 23.206-23.223 66.088 67.348-22.522 22.787-66.772-66.912Z" clip-rule="evenodd"/>
    <path stroke="#340096" stroke-linecap="round" stroke-linejoin="round" stroke-width="2" d="m69.263 176.83 23.206-23.223 66.088 67.348-22.522 22.787-66.772-66.912Z" clip-rule="evenodd"/>
    <path fill="#FFD8BA" fill-rule="evenodd" d="M58.33 166.308c-2.27-12.701 7.334-23.24 23.21-23.24 4.094 4.099 8.201 8.194 12.302 12.289-7.756 7.727-15.494 15.485-23.243 23.226a6826.649 6826.649 0 0 0-12.269-12.275Z" clip-rule="evenodd"/>
    <path stroke="#340096" stroke-linecap="round" stroke-linejoin="round" stroke-width="2" d="M58.33 166.308c-2.27-12.701 7.334-23.24 23.21-23.24 4.094 4.099 8.201 8.194 12.302 12.289-7.756 7.727-15.494 15.485-23.243 23.226a6826.649 6826.649 0 0 0-12.269-12.275Z" clip-rule="evenodd"/>
    <path fill="#F2F0FF" fill-rule="evenodd" d="M67.07 175.061c8.845-9.528 15.495-16.006 23.216-23.24 4.101 4.099 8.192 8.194 12.296 12.289-7.746 7.731-15.484 15.486-23.226 23.227-4.088-4.106-8.192-8.187-12.286-12.276Z" clip-rule="evenodd"/>
    <path stroke="#340096" stroke-linecap="round" stroke-linejoin="round" stroke-width="2" d="M67.07 175.061c8.845-9.528 15.495-16.006 23.216-23.24 4.101 4.099 8.192 8.194 12.296 12.289-7.746 7.731-15.484 15.486-23.226 23.227-4.088-4.106-8.192-8.187-12.286-12.276Z" clip-rule="evenodd"/>
    <path stroke="#FFA578" stroke-linecap="round" stroke-linejoin="round" stroke-width="3" d="M406.214 175.227c0 31.622-25.622 57.255-57.233 57.255-31.612 0-57.241-25.633-57.241-57.255 0-31.617 25.629-57.25 57.241-57.25 31.611 0 57.233 25.633 57.233 57.25Z" clip-rule="evenodd"/>
    <path fill="#FFA578" fill-rule="evenodd" d="m387.118 248.128-81.552 20.288 7.922 31.89 81.556-20.295-7.926-31.883Z" clip-rule="evenodd"/>
    <path stroke="#0E0916" stroke-linecap="round" stroke-linejoin="round" stroke-width="2" d="m387.118 248.128-81.552 20.288 7.922 31.89 81.556-20.295-7.926-31.883Z" clip-rule="evenodd"/>
    <path fill="#E6E2FF" fill-rule="evenodd" d="m387.047 248.074-81.505 20.296 1.328 5.375 81.521-20.285-1.344-5.386Z" clip-rule="evenodd"/>
    <path stroke="#0E0916" stroke-linecap="round" stroke-linejoin="round" stroke-width="2" d="m387.047 248.074-81.505 20.296 1.328 5.375 81.521-20.285-1.344-5.386Z" clip-rule="evenodd"/>
    <path stroke="#0E0916" stroke-linecap="round" stroke-linejoin="round" stroke-width="2" d="m336.899 283.605-4.049-16.327M366.558 276.225l-4.066-16.319M350.119 275.583l-2.947-11.87M379.884 267.532l-2.723-10.938M321.199 282.787l-2.951-11.87"/>
  </g>
</svg>
