<svg fill="none" xmlns="http://www.w3.org/2000/svg" viewBox="0 0 98 97">
  <path d="M96.163 48.5c0 26.094-21.206 47.25-47.373 47.25-26.165 0-47.373-21.156-47.373-47.25 0-26.093 21.208-47.25 47.373-47.25 26.167 0 47.373 21.157 47.373 47.25z" fill="#F2F0FF" stroke="#340096" stroke-width="1.5"/>
  <path d="M97.292 24.346c0 4.668-3.794 8.453-8.477 8.453s-8.477-3.785-8.477-8.453c0-4.669 3.794-8.455 8.477-8.455s8.477 3.786 8.477 8.455z" fill="#FFD8BA" stroke="#340096" stroke-width=".75"/>
  <path d="M76.086 26.403s-32.531 9.89-32.105 45.85" stroke="#340096" stroke-linecap="round" stroke-linejoin="round" stroke-dasharray="3 3"/>
  <path d="M7.498 55.879s26.25-18.597 36.484 14.252" stroke="#340096" stroke-linecap="round" stroke-linejoin="round"/>
  <path d="M83.696 89.381h0c-7.556.872-14.388-4.531-15.26-12.066h0c-.874-7.533 4.542-14.35 12.098-15.221 7.556-.87 14.388 4.533 15.26 12.068l.498-.058-.497.058c.873 7.534-4.543 14.349-12.099 15.22z" fill="#2250FF" stroke="#340096"/>
  <path d="M82.207 76.527h0a.794.794 0 11-.185-1.578c.441-.05.835.264.886.699a.796.796 0 01-.7.88z" fill="#F2F0FF" stroke="#340096"/>
  <path fill-rule="evenodd" clip-rule="evenodd" d="M85.943 66.503a1.296 1.296 0 01-1.14 1.435 1.3 1.3 0 01-1.438-1.137 1.295 1.295 0 011.14-1.434 1.296 1.296 0 011.438 1.136zM77.641 68.113a1.298 1.298 0 01-2.578.297 1.295 1.295 0 011.14-1.434 1.297 1.297 0 011.438 1.137zM73.875 75.06a1.297 1.297 0 01-2.578.297 1.298 1.298 0 012.578-.297zM76.628 81.907a1.298 1.298 0 01-2.578.297 1.297 1.297 0 012.578-.297zM84.806 84.873a1.298 1.298 0 01-2.578.297 1.297 1.297 0 012.578-.297zM91.522 80.841a1.295 1.295 0 01-1.14 1.434 1.296 1.296 0 01-1.438-1.137 1.299 1.299 0 012.578-.297zM92.487 72.263a1.299 1.299 0 01-2.578.297 1.297 1.297 0 012.578-.297z" fill="#340096"/>
  <path d="M32.174 19.206c0 7.919-6.435 14.342-14.378 14.342-7.942 0-14.379-6.423-14.379-14.342 0-7.918 6.437-14.34 14.379-14.34 7.943 0 14.378 6.422 14.378 14.34z" fill="#fff" stroke="#340096"/>
  <path fill-rule="evenodd" clip-rule="evenodd" d="M14.799 13.458v10.886c0 .51.588.799.995.485l6.886-5.312a.614.614 0 00.01-.964l-6.887-5.573a.617.617 0 00-1.004.478z" fill="#340096"/>
</svg>
