<svg fill="none" xmlns="http://www.w3.org/2000/svg" viewBox="0 0 108 97">
  <path d="M95.04 48.5c0 26.097-21.11 47.25-47.145 47.25C21.859 95.75.75 74.597.75 48.5S21.859 1.25 47.895 1.25c26.035 0 47.144 21.153 47.144 47.25z" fill="#F2F0FF" stroke="#340096" stroke-width="1.5"/>
  <path fill-rule="evenodd" clip-rule="evenodd" d="M90.847 16.333c2.155 12.14-5.177 23.603-16.379 25.6-11.2 2-22.03-6.224-24.185-18.364l-15.491 2.762c3.803 21.413 22.901 35.915 42.658 32.391C97.206 55.2 110.14 34.983 106.337 13.57l-15.49 2.763z" fill="#2250FF"/>
  <mask id="mask-brand-design" maskUnits="userSpaceOnUse" x="34" y="13" width="73" height="47">
    <path d="M90.847 16.334c2.155 12.14-5.177 23.6-16.379 25.6-11.202 1.997-22.03-6.224-24.185-18.365L34.792 26.33c3.802 21.414 22.901 35.915 42.658 32.393 19.756-3.525 32.689-23.74 28.887-45.154" fill="#fff"/>
  </mask>
  <g mask="url(#mask-brand-design)">
    <path d="M143.198-26.65c-24.711 6.584-49.98 13.42-70.97 28.32-1.109.786-2.342 2.132-1.688 3.363.329.62 1.029.908 1.683 1.111 3.224.992 6.632 1.02 9.986 1.042l36.871.227c3.909.024 9.011 1.056 9.549 5.067l-42.467 2.046c-4.518.218-10.221 1.439-11.028 6.034-.716 4.078 3.225 7.436 6.953 9.015 11.316 4.785 24.263 2.644 35.975 6.227 1.304.399 2.855 1.258 2.75 2.654-24.214 1.552-48.342-5.513-72.616-5.277-5.004.05-10.19.465-14.544 2.97-.702.407-1.414.907-1.726 1.674-.616 1.513.587 3.158 1.82 4.214 4.968 4.251 11.555 5.683 17.829 7.135a389.626 389.626 0 0130.136 8.272c4.731 1.507 10.04 3.68 11.72 8.499.41 1.176.528 2.585-.195 3.573-.533.728-1.411 1.076-2.249 1.37-10.723 3.764-22.539 4.225-33.574 1.309-.66-.175-1.355-.384-1.819-.903-1.286-1.436.125-3.663 1.522-4.954 7.948-7.352 17.183-13.04 25.717-19.656 8.531-6.616 18.607-13.836 20.872-24.588 1.566-7.435-4.685-11.123-5.804-11.482-4.362-1.4-12.07-.374-16.557.39-18.585 3.163-31.251 12.923-44.786 26.373-8.724 8.669-15 20.193-25.403 26.6a33.522 33.522 0 01-17.271 4.968c-6.165.043-13.002-2.17-15.979-7.787-2.074-3.919-1.849-8.639-1.482-13.064.943-11.397 3.063-23.917 11.722-30.954 3.268-2.656 7.214-4.277 11.203-5.52A73.26 73.26 0 0125.05 8.416c2.264.124 4.604.376 6.585 1.534 1.982 1.16 3.52 3.449 3.182 5.762-.301 2.058-1.927 3.588-3.498 4.877C16.387 32.835-2.216 39.099-19.186 48.1c-1.873.994-3.987 2.45-3.949 4.635.019 1.138.646 2.164 1.281 3.098 10.925 16.09 29.538 24.646 47.865 29.683C36.561 88.415 47.54 90.419 58.325 89c3.678-.485 7.557-1.515 9.98-4.398 3.428-4.083 2.75-10.319 1.258-15.547-3.64-12.76-11.082-24.449-21.302-32.58-10.218-8.129-23.206-12.576-36.004-11.83-21.959 1.277-40.843 17.338-52.435 36.558" stroke="#FFD8BA" stroke-width=".75" stroke-linecap="round" stroke-linejoin="round"/>
  </g>
  <path clip-rule="evenodd" d="M90.846 16.333c2.155 12.14-5.177 23.603-16.379 25.6-11.2 2-22.03-6.224-24.185-18.364L34.79 26.331c3.803 21.413 22.901 35.915 42.658 32.391 19.756-3.523 32.689-23.739 28.887-45.152l-15.49 2.763z" stroke="#340096" stroke-width=".75" stroke-linecap="round" stroke-linejoin="round"/>
  <path d="M38.512 54.497c0 8.29-6.705 15.01-14.976 15.01-8.27 0-14.975-6.72-14.975-15.01 0-8.291 6.706-15.01 14.975-15.01 8.271 0 14.976 6.719 14.976 15.01z" fill="#FFD8BA" stroke="#340096" stroke-width=".75"/>
  <path fill-rule="evenodd" clip-rule="evenodd" d="M71.34 79.441h3.499c3.969 0 7.2-3.196 7.254-7.173l.12-8.94c0-.628-.211-1.152-.635-1.577-.422-.424-.947-.636-1.572-.636-.626 0-1.15.212-1.574.636-.422.425-.634.95-.634 1.577h-.442V62c0-.626-.211-1.15-.635-1.575-.422-.425-.948-.638-1.573-.638s-1.15.213-1.573.638c-.422.424-.635.949-.635 1.575v1.328h-.44v-2.213c0-.626-.213-1.152-.636-1.577-.424-.424-.948-.634-1.573-.634-.626 0-1.15.21-1.573.634-.424.425-.635.95-.635 1.577v2.213h-.442V52.265c0-.628-.211-1.154-.634-1.577-.424-.425-.948-.636-1.574-.636-.625 0-1.15.212-1.572.636-.424.423-.635.949-.635 1.577v15.267L61.46 65.1c-.331-.48-.8-.765-1.409-.859a2.202 2.202 0 00-1.655.389 2.06 2.06 0 00-.883 1.438 2.23 2.23 0 00.414 1.687l3.036 5.535A11.836 11.836 0 0071.34 79.44z" fill="#F2F0FF"/>
  <path clip-rule="evenodd" d="M71.34 79.441h3.499c3.969 0 7.2-3.196 7.254-7.173l.12-8.94c0-.628-.211-1.152-.635-1.577-.422-.424-.947-.636-1.572-.636-.626 0-1.15.212-1.574.636-.422.425-.634.95-.634 1.577h-.442V62c0-.626-.211-1.15-.635-1.575-.422-.425-.948-.638-1.573-.638s-1.15.213-1.573.638c-.422.424-.635.949-.635 1.575v1.328h-.44v-2.213c0-.626-.213-1.152-.636-1.577-.424-.424-.948-.635-1.573-.635-.626 0-1.15.21-1.573.636-.424.424-.635.95-.635 1.576v2.213h-.442V52.265c0-.628-.211-1.154-.634-1.577-.424-.425-.948-.636-1.574-.636-.625 0-1.15.212-1.572.636-.424.423-.635.949-.635 1.577v15.267L61.46 65.1c-.331-.48-.8-.765-1.409-.859a2.202 2.202 0 00-1.655.389 2.06 2.06 0 00-.883 1.438 2.23 2.23 0 00.414 1.687l3.036 5.535A11.836 11.836 0 0071.34 79.44z" stroke="#340096" stroke-linecap="round" stroke-linejoin="round"/>
  <path clip-rule="evenodd" d="M77.319 72.748h-.091a.196.196 0 01-.197-.196v-4.548c0-.107.087-.195.197-.195h.09c.11 0 .196.088.196.195v4.548a.195.195 0 01-.195.196zM72.853 72.748h-.09a.196.196 0 01-.198-.196v-4.548c0-.107.088-.195.197-.195h.091c.108 0 .196.088.196.195v4.548a.195.195 0 01-.196.196zM68.387 72.748h-.09a.196.196 0 01-.197-.196v-4.548c0-.107.087-.195.196-.195h.091c.109 0 .196.088.196.195v4.548a.195.195 0 01-.196.196z" stroke="#340096" stroke-linecap="round" stroke-linejoin="round"/>
  <path d="M46.06 54.752l4.77 10.266L5.421 89.743.651 79.478 46.06 54.752z" fill="#fff" stroke="#340096"/>
  <path d="M7.075 76.25l2.976 5.928M13.7 72.91l2.975 5.928M20.326 69.569l2.976 5.928M26.951 65.218l2.976 5.929M33.58 61.878l2.975 5.928M40.204 58.538l2.976 5.929" stroke="#340096" stroke-linecap="round" stroke-linejoin="round"/>
  <path clip-rule="evenodd" d="M34.865 24.936l14.139 7.254-13.337 8.645-13.337 8.643-.801-15.898-.802-15.897 14.138 7.253z" stroke="#340096" stroke-linecap="round" stroke-linejoin="round"/>
</svg>
