<svg fill="none" xmlns="http://www.w3.org/2000/svg" viewBox="0 0 97 97">
  <path d="M94.975 48.5c0 25.76-20.882 46.643-46.642 46.643S1.69 74.261 1.69 48.501 22.573 1.858 48.333 1.858s46.642 20.883 46.642 46.643z" fill="#F2F0FF" stroke="#340096" stroke-width="1.5"/>
  <mask id="mask-ds-a" maskUnits="userSpaceOnUse" x="0" y="0" width="97" height="97">
    <path d="M.333 96.5h96V.5h-96v96z" fill="#fff"/>
  </mask>
  <g mask="url(#mask-ds-a)">
    <path d="M83.229 76.217v11.567H65.772V76.217h17.457z" fill="#2250FF" stroke="#340096" stroke-width=".75"/>
    <path d="M56.454 76.217v11.567H38.997V76.217h17.457z" fill="#FFD8BA" stroke="#340096" stroke-width=".75"/>
    <path d="M29.678 76.217v11.567H12.22V76.217h17.457z" fill="#DCEAFF" stroke="#340096" stroke-width=".75"/>
    <path d="M21.485 73.412v-1.823M21.485 67.202v-1.823h1.823" stroke="#340096" stroke-width=".75" stroke-linecap="round" stroke-linejoin="round"/>
    <path d="M27.146 65.379h44.147" stroke="#340096" stroke-width=".75" stroke-linecap="round" stroke-linejoin="round" stroke-dasharray="3.16 3.16"/>
    <path d="M73.214 65.379h1.823v1.823M75.036 71.589v1.823M48.26 73.412v-1.823" stroke="#340096" stroke-width=".75" stroke-linecap="round" stroke-linejoin="round"/>
    <path d="M48.26 67.448v-6.21" stroke="#340096" stroke-width=".75" stroke-linecap="round" stroke-linejoin="round" stroke-dasharray="3.41 3.41"/>
    <path d="M48.26 59.169v-1.823" stroke="#340096" stroke-width=".75" stroke-linecap="round" stroke-linejoin="round"/>
    <path fill-rule="evenodd" clip-rule="evenodd" d="M82.895 54.46H13.77a1.5 1.5 0 01-1.5-1.499V9.29c0-.829.672-1.498 1.5-1.498h69.126c.83 0 1.5.67 1.5 1.498V52.96a1.5 1.5 0 01-1.5 1.5z" fill="#fff"/>
    <path clip-rule="evenodd" d="M82.895 54.46H13.77a1.5 1.5 0 01-1.5-1.499V9.29c0-.829.672-1.498 1.5-1.498h69.126c.83 0 1.5.67 1.5 1.498V52.96a1.5 1.5 0 01-1.5 1.5z" stroke="#340096"/>
    <path fill-rule="evenodd" clip-rule="evenodd" d="M86.15 57.006H10.517c-.67 0-1.215-.544-1.215-1.215v-.963c0-.672.544-1.216 1.215-1.216h75.635c.672 0 1.215.544 1.215 1.215v.964c0 .67-.543 1.215-1.215 1.215z" fill="#F2F0FF"/>
    <path clip-rule="evenodd" d="M86.15 57.006H10.517c-.67 0-1.215-.544-1.215-1.215v-.963c0-.672.544-1.216 1.215-1.216h75.635c.672 0 1.215.544 1.215 1.215v.964c0 .67-.543 1.215-1.215 1.215z" stroke="#340096"/>
    <path fill-rule="evenodd" clip-rule="evenodd" d="M48.379 27.622c-2.172-.006-3.963 1.776-3.973 3.95-.008 2.17 1.782 3.97 3.95 3.972 2.165.001 3.963-1.787 3.976-3.954.013-2.164-1.778-3.962-3.953-3.968zm-7.805.717c-.39-.822-.734-1.594-1.118-2.345-.26-.51-.214-.915.212-1.315a40.997 40.997 0 001.797-1.795c.401-.427.807-.468 1.316-.209.752.383 1.523.727 2.345 1.117.31-.85.632-1.654.899-2.474.188-.58.552-.812 1.145-.798.825.019 1.65.01 2.475.002.535-.005.871.214 1.047.74.281.838.607 1.662.926 2.529.844-.4 1.634-.76 2.409-1.146.463-.23.842-.179 1.205.196.62.641 1.25 1.27 1.892 1.892.377.364.415.746.186 1.205-.385.777-.746 1.563-1.144 2.406.83.302 1.617.605 2.415.87.572.189.815.535.79 1.144a40.232 40.232 0 00-.005 2.54c.013.522-.209.828-.7.995-.82.278-1.63.584-2.52.904.382.813.724 1.598 1.113 2.357.264.516.202.92-.215 1.316a59.64 59.64 0 00-1.797 1.795c-.377.392-.767.473-1.26.225-.77-.386-1.558-.741-2.399-1.14-.299.834-.6 1.619-.86 2.418-.185.563-.51.837-1.128.812a32.277 32.277 0 00-2.541-.001c-.587.02-.908-.238-1.085-.775-.266-.801-.563-1.592-.868-2.449-.814.38-1.605.723-2.37 1.116-.518.266-.917.19-1.312-.224a49.207 49.207 0 00-1.796-1.798c-.4-.38-.456-.777-.215-1.26.374-.758.727-1.526 1.137-2.392-.795-.283-1.549-.585-2.323-.818-.69-.205-.967-.612-.93-1.326.04-.777.016-1.56.006-2.339-.006-.535.21-.874.738-1.05.84-.28 1.664-.604 2.533-.925z" fill="#2250FF"/>
    <path clip-rule="evenodd" d="M48.379 27.622c-2.172-.006-3.963 1.776-3.973 3.95-.008 2.17 1.782 3.97 3.95 3.972 2.165.001 3.963-1.787 3.976-3.954.013-2.164-1.778-3.962-3.953-3.968zm-7.805.717c-.39-.822-.734-1.594-1.118-2.345-.26-.51-.214-.915.212-1.315a40.997 40.997 0 001.797-1.795c.401-.427.807-.468 1.316-.209.752.383 1.523.727 2.345 1.117.31-.85.632-1.654.899-2.474.188-.58.552-.812 1.145-.798.825.019 1.65.01 2.475.002.535-.005.871.214 1.047.74.281.838.607 1.662.926 2.529.844-.4 1.634-.76 2.409-1.146.463-.23.842-.179 1.205.196.62.641 1.25 1.27 1.892 1.892.377.364.415.746.186 1.205-.385.777-.746 1.563-1.144 2.406.83.302 1.617.605 2.415.87.572.189.815.535.79 1.144a40.232 40.232 0 00-.005 2.54c.013.522-.209.828-.7.995-.82.278-1.63.584-2.52.904.382.813.724 1.598 1.113 2.357.264.516.202.92-.215 1.316a59.64 59.64 0 00-1.797 1.795c-.377.392-.767.473-1.26.225-.77-.386-1.558-.741-2.399-1.14-.299.834-.6 1.619-.86 2.418-.185.563-.51.837-1.128.812a32.277 32.277 0 00-2.541-.001c-.587.02-.908-.238-1.085-.775-.266-.801-.563-1.592-.868-2.449-.814.38-1.605.723-2.37 1.116-.518.266-.917.19-1.312-.224a49.207 49.207 0 00-1.796-1.798c-.4-.38-.456-.777-.215-1.26.374-.758.727-1.526 1.137-2.392-.795-.283-1.549-.585-2.323-.818-.69-.205-.967-.612-.93-1.326.04-.777.016-1.56.006-2.339-.006-.535.21-.874.738-1.05.84-.28 1.664-.604 2.533-.925z" stroke="#340096" stroke-width=".75" stroke-linecap="round" stroke-linejoin="round"/>
    <path d="M30.543 31.491c0-9.809 7.951-17.76 17.76-17.76 2.876 0 5.592.683 7.996 1.897" stroke="#340096" stroke-width=".75" stroke-linecap="round" stroke-linejoin="round"/>
    <path fill-rule="evenodd" clip-rule="evenodd" d="M32.542 31.28l-1.938 1.938-1.938-1.939h3.876z" fill="#340096"/>
    <path clip-rule="evenodd" d="M32.542 31.28l-1.938 1.938-1.938-1.939h3.876z" stroke="#340096" stroke-linejoin="round"/>
    <path d="M66.064 31.492c0 9.808-7.951 17.76-17.76 17.76" stroke="#340096" stroke-width=".75" stroke-linecap="round" stroke-linejoin="round"/>
    <path fill-rule="evenodd" clip-rule="evenodd" d="M64.123 32.095l1.938-1.94L68 32.096h-3.876z" fill="#340096"/>
    <path clip-rule="evenodd" d="M64.123 32.095l1.938-1.94L68 32.096h-3.876z" stroke="#340096" stroke-linejoin="round"/>
  </g>
</svg>
