<svg fill="none" xmlns="http://www.w3.org/2000/svg" viewBox="0 0 24 24">
  <path d="M22.782 12.846c0 6.048-5.051 10.96-11.294 10.96S.194 18.894.194 12.846c0-6.047 5.05-10.96 11.294-10.96 6.243 0 11.294 4.913 11.294 10.96z" fill="#F2F0FF" stroke="#340096" stroke-width=".387"/>
  <path d="M14.118 2.923c0 1.559-1.302 2.827-2.914 2.827S8.291 4.482 8.291 2.923c0-1.558 1.301-2.826 2.913-2.826 1.612 0 2.914 1.268 2.914 2.826z" fill="#fff" stroke="#340096" stroke-width=".194"/>
  <path d="M9.481 1.942h3.335M9.481 2.992h3.335M9.481 4.042h3.335" stroke="#340096" stroke-width=".194" stroke-linecap="round" stroke-linejoin="round"/>
  <path d="M11.31 1.942a.38.38 0 01-.386.373.38.38 0 01-.387-.373.38.38 0 01.387-.373.38.38 0 01.386.373z" fill="#FFD8BA" stroke="#340096" stroke-width=".129"/>
  <path d="M11.94 2.992a.38.38 0 01-.386.373.38.38 0 01-.386-.373.38.38 0 01.386-.373.38.38 0 01.387.373z" fill="#2250FF" stroke="#340096" stroke-width=".129"/>
  <path d="M11.31 4.043a.38.38 0 01-.386.372.38.38 0 01-.387-.372.38.38 0 01.387-.373.38.38 0 01.386.373z" fill="#F2F0FF" stroke="#340096" stroke-width=".129"/>
  <path d="M22.004 6.424c0 1.846-1.542 3.347-3.45 3.347-1.909 0-3.45-1.501-3.45-3.347s1.541-3.347 3.45-3.347c1.908 0 3.45 1.501 3.45 3.347z" fill="#DCEAFF" stroke="#340096" stroke-width=".194"/>
  <path fill-rule="evenodd" clip-rule="evenodd" d="M16.77 7.845h1.19V6.402h-1.19v1.443z" fill="#FFD8BA"/>
  <path clip-rule="evenodd" d="M16.77 7.845h1.19V6.402h-1.19v1.443z" stroke="#340096" stroke-width=".194" stroke-linecap="round" stroke-linejoin="round"/>
  <path fill-rule="evenodd" clip-rule="evenodd" d="M17.96 7.845h1.188v-2.23H17.96v2.23z" fill="#2250FF"/>
  <path clip-rule="evenodd" d="M17.96 7.845h1.188v-2.23H17.96v2.23z" stroke="#340096" stroke-width=".194" stroke-linecap="round" stroke-linejoin="round"/>
  <path fill-rule="evenodd" clip-rule="evenodd" d="M19.148 7.845h1.19v-3.15h-1.19v3.15z" fill="#F2F0FF"/>
  <path clip-rule="evenodd" d="M19.148 7.845h1.19v-3.15h-1.19v3.15z" stroke="#340096" stroke-width=".194" stroke-linecap="round" stroke-linejoin="round"/>
  <path d="M16.446 7.845h4.216" stroke="#340096" stroke-width=".194" stroke-linecap="round" stroke-linejoin="round"/>
  <path d="M23.903 15.053c0 2.031-1.696 3.683-3.795 3.683-2.1 0-3.796-1.652-3.796-3.683 0-2.031 1.697-3.683 3.796-3.683 2.099 0 3.795 1.652 3.795 3.683z" fill="#FFD8BA" stroke="#340096" stroke-width=".194"/>
  <path fill-rule="evenodd" clip-rule="evenodd" d="M21.189 15.786c0-.477-.293-.756-.866-.968-.43-.158-.628-.278-.628-.543 0-.238.198-.437.552-.437.308 0 .546.106.676.186l.15-.424a1.675 1.675 0 00-.753-.197v-.55h-.425v.59c-.489.119-.774.478-.774.899 0 .384.28.702.874.907.444.16.614.311.614.59 0 .265-.205.477-.641.477-.3 0-.614-.12-.792-.232l-.15.444c.22.125.53.208.87.217v.508h.424v-.54c.556-.106.869-.459.869-.927z" fill="#340096"/>
  <path fill-rule="evenodd" clip-rule="evenodd" d="M13.235 16.807h-6.84a.744.744 0 01-.756-.733V9.433c0-.405.338-.733.755-.733h6.84c.418 0 .756.328.756.733v6.641a.744.744 0 01-.755.733z" fill="#2250FF"/>
  <mask id="marketing-a" maskUnits="userSpaceOnUse" x="5" y="8" width="9" height="9">
    <path d="M6.394 8.7a.744.744 0 00-.755.733v6.642c0 .405.339.733.755.733h6.84a.744.744 0 00.756-.733V9.433a.744.744 0 00-.755-.733" fill="#fff"/>
  </mask>
  <g mask="url(#marketing-a)">
    <path d="M3.849 17.413l1.211-.183c.085-.013.177-.03.23-.1.053-.072.045-.174.033-.266a8.3 8.3 0 00-1.72-4.072c-.129.309-.105.666-.043 1 .349 1.883 1.939 3.468 3.75 3.736.11.017.233.025.32-.046.143-.118.088-.36.01-.537-.308-.7-.765-1.318-1.229-1.92a62.355 62.355 0 00-2.816-3.399c.2.538.542 1.006.88 1.465.866 1.176 1.741 2.363 2.825 3.321.747.66 1.68 1.229 2.634 1.089.224-.034.457-.116.59-.306.105-.15.132-.348.129-.537-.01-.616-.294-1.196-.607-1.727-.789-1.336-1.793-2.523-2.854-3.637-.43-.452-.872-.896-1.378-1.25-.317-.22-.73-.408-1.058-.223-.23.13-.347.411-.385.684-.139.994.531 1.916 1.18 2.678.942 1.106 1.936 2.18 3.095 3.027 1.16.848 2.501 1.464 3.898 1.568.078.006.161.008.226-.035.118-.08.112-.261.082-.407-.123-.611-.42-1.17-.728-1.71-.942-1.652-2.017-3.22-3.108-4.772A246.38 246.38 0 004.39 4.486c-.147-.196-.32-.408-.554-.442-.169.83.186 1.685.587 2.436.771 1.444 1.76 2.781 3.01 3.797 1.25 1.016 2.77 1.696 4.334 1.768.206.01.442-.006.566-.176.07-.097.088-.225.096-.348.073-1.071-.359-2.125-.9-3.052-.48-.82-1.052-1.58-1.701-2.26-.107-.112-.235-.23-.384-.226-.224.008-.343.28-.366.513-.07.728.288 1.431.665 2.058.881 1.467 1.929 2.82 3.037 4.11.941 1.095 1.95 2.164 3.178 2.875-.026-.75-.253-1.479-.485-2.193a93.015 93.015 0 00-2.393-6.503c-.087-.213-.214-.458-.433-.486-.2.925.153 1.89.545 2.76.403.898.855 1.772 1.353 2.616.243.413.502.824.853 1.141.35.317.809.533 1.263.483.059-.006.121-.019.163-.061.07-.07.059-.188.042-.288-.392-2.362-1.559-4.594-3.257-6.229" stroke="#BCD7FE" stroke-width=".258"/>
  </g>
  <path clip-rule="evenodd" d="M13.235 16.807h-6.84a.744.744 0 01-.756-.733V9.433c0-.405.338-.733.755-.733h6.84c.418 0 .756.328.756.733v6.641a.744.744 0 01-.755.733z" stroke="#340096" stroke-width=".258" stroke-linecap="round" stroke-linejoin="round"/>
  <mask id="marketing-b" maskUnits="userSpaceOnUse" x="0" y="1" width="23" height="23">
    <path d="M0 12.846C0 19.006 5.143 24 11.488 24c6.344 0 11.487-4.994 11.487-11.154S17.832 1.693 11.488 1.693C5.143 1.693 0 6.686 0 12.846z" fill="#fff"/>
  </mask>
  <g mask="url(#marketing-b)">
    <path fill-rule="evenodd" clip-rule="evenodd" d="M4.283 15.282c.5-.324 1.012-.634 1.5-.975.729-.508 1.49-.552 2.307-.237.979.378 1.965.74 2.947 1.108.042.015.085.03.126.047.296.125.44.395.36.674-.083.287-.361.443-.688.39-.698-.113-1.396-.227-2.095-.335-.193-.03-.39-.038-.585-.053-.15-.012-.204.064-.186.201.025.196.12.35.308.43.848.36 1.696.72 2.55 1.064.1.04.253.01.363-.032.92-.348 1.839-.697 2.817-.86.248-.042.51-.043.761-.023.255.02.34.14.327.387-.014.28-.15.494-.417.603a468.207 468.207 0 01-3.71 1.5c-.37.147-.75.122-1.129 0-1.2-.386-2.4-.769-3.601-1.154-.25-.08-.495-.118-.758.026" fill="#FFD8BA"/>
    <path d="M4.283 15.282c.5-.324 1.012-.634 1.5-.975.729-.508 1.49-.552 2.307-.237.979.378 1.965.74 2.947 1.108.042.015.085.03.126.047.296.125.44.395.36.674-.083.287-.361.443-.688.39-.698-.113-1.396-.227-2.095-.335-.193-.03-.39-.038-.585-.053-.15-.012-.204.064-.186.201.025.196.12.35.308.43.848.36 1.696.72 2.55 1.064.1.04.253.01.363-.032.92-.348 1.839-.697 2.817-.86.248-.042.51-.043.761-.023.255.02.34.14.327.387-.014.28-.15.494-.417.603a468.207 468.207 0 01-3.71 1.5c-.37.147-.75.122-1.129 0-1.2-.386-2.4-.769-3.601-1.154-.25-.08-.495-.118-.758.026" stroke="#340096" stroke-width=".258" stroke-linecap="round" stroke-linejoin="round"/>
  </g>
  <mask id="marketing-c" maskUnits="userSpaceOnUse" x="0" y="1" width="23" height="23">
    <path d="M0 12.846C0 19.006 5.143 24 11.488 24c6.344 0 11.487-4.994 11.487-11.154S17.832 1.693 11.488 1.693C5.143 1.693 0 6.686 0 12.846z" fill="#fff"/>
  </mask>
  <g mask="url(#marketing-c)">
    <path fill-rule="evenodd" clip-rule="evenodd" d="M-5.502 22.417c4.975-1.31 6.685-1.714 8.718-2.969 1.025-.632 2.156-.863 2.455-1.205 0 0-.292-1.807-.87-2.425-.348-.37-.76-.71-.855-.689-.218.048-1.203.679-1.745.789-.541.11-1.499.382-2.24.44-.74.06-5.648 1.258-6.588 1.79" fill="#DCEAFF"/>
    <path d="M-5.502 22.417c4.975-1.31 6.685-1.714 8.718-2.969 1.025-.632 2.156-.863 2.455-1.205 0 0-.292-1.807-.87-2.425-.348-.37-.76-.71-.855-.689-.218.048-1.203.679-1.745.789-.541.11-1.499.382-2.24.44-.74.06-5.648 1.258-6.588 1.79" stroke="#340096" stroke-width=".258" stroke-linecap="round" stroke-linejoin="round"/>
  </g>
  <path d="M.626 15.908c.442 1.573 1.473 3.289 2.21 4.004" stroke="#340096" stroke-width=".387"/>
</svg>
