<svg fill="none" xmlns="http://www.w3.org/2000/svg" viewBox="0 0 110 97">
  <path fill-rule="evenodd" clip-rule="evenodd" d="M107.945 49.83c0 25.026-20.237 45.314-45.2 45.314-24.963 0-45.198-20.288-45.198-45.314S37.782 4.516 62.746 4.516c24.962 0 45.199 20.288 45.199 45.314z" fill="#F2F0FF"/>
  <mask id="product-strategy-a" maskUnits="userSpaceOnUse" x="17" y="4" width="91" height="92">
    <path d="M17.549 49.83c0 25.026 20.235 45.314 45.199 45.314 24.961 0 45.197-20.288 45.197-45.314S87.709 4.516 62.748 4.516c-24.964 0-45.2 20.288-45.2 45.314z" fill="#fff"/>
  </mask>
  <g mask="url(#product-strategy-a)">
    <mask id="product-strategy-b" maskUnits="userSpaceOnUse" x="66" y="50" width="39" height="45">
      <path d="M70.674 50.936a3.736 3.736 0 00-3.73 3.74V94.951c17.304-1.598 31.783-12.974 37.891-28.566V54.676c0-2.066-1.67-3.74-3.731-3.74h-30.43z" fill="#fff"/>
    </mask>
    <g mask="url(#product-strategy-b)" clip-rule="evenodd">
      <path fill-rule="evenodd" d="M66.943 80.185v-25.51a3.736 3.736 0 013.731-3.74h30.43c2.06 0 3.73 1.675 3.73 3.74v47.052c0 2.065-1.67 3.74-3.73 3.74h-30.43a3.735 3.735 0 01-3.73-3.74V82.169" fill="#fff"/>
      <path fill-rule="evenodd" d="M60.634 61.05h48.146v-4.592H60.634v4.593z" fill="#E6E2FF"/>
      <path d="M60.634 61.05h48.146v-4.592H60.634v4.593z" stroke="#340096" stroke-linecap="round" stroke-linejoin="round"/>
    </g>
    <mask id="product-strategy-c" maskUnits="userSpaceOnUse" x="66" y="50" width="39" height="45">
      <path d="M71.313 50.936a4.376 4.376 0 00-4.37 4.38v39.635c17.305-1.598 31.784-12.974 37.892-28.566V55.316c0-2.419-1.956-4.38-4.369-4.38H71.313z" fill="#fff"/>
    </mask>
    <g mask="url(#product-strategy-c)" clip-rule="evenodd">
      <path fill-rule="evenodd" d="M60.634 61.05h48.146v-4.592H60.634v4.593z" fill="#E6E2FF"/>
      <path d="M60.634 61.05h48.146v-4.592H60.634v4.593z" stroke="#340096" stroke-linecap="round" stroke-linejoin="round"/>
    </g>
    <path clip-rule="evenodd" d="M99.952 100.692H71.828a.469.469 0 01-.469-.469v-5.3c0-.257.209-.469.469-.469h28.124a.47.47 0 01.468.47v5.299a.47.47 0 01-.468.469z" stroke="#340096" stroke-linecap="round" stroke-linejoin="round"/>
    <path fill-rule="evenodd" clip-rule="evenodd" d="M99.952 90.738H71.828a.469.469 0 01-.469-.47V84.97c0-.257.209-.469.469-.469h28.124a.47.47 0 01.468.47v5.299a.47.47 0 01-.468.47z" fill="#F2F0FF"/>
    <path clip-rule="evenodd" d="M99.952 90.738H71.828a.469.469 0 01-.469-.47V84.97c0-.257.209-.469.469-.469h28.124a.47.47 0 01.468.47v5.299a.47.47 0 01-.468.47z" stroke="#340096" stroke-linecap="round" stroke-linejoin="round"/>
    <path fill-rule="evenodd" clip-rule="evenodd" d="M99.952 100.692H71.828a.469.469 0 01-.469-.469v-5.3c0-.257.209-.469.469-.469h28.124a.47.47 0 01.468.47v5.299a.47.47 0 01-.468.469z" fill="#F2F0FF"/>
    <path fill-rule="evenodd" clip-rule="evenodd" d="M71.814 68.58h29.083v-3.648H71.814v3.647z" fill="#BCD7FE"/>
    <path clip-rule="evenodd" d="M71.814 68.58h29.083v-3.648H71.814v3.647z" stroke="#340096"/>
    <path fill-rule="evenodd" clip-rule="evenodd" d="M71.815 80.734H94.7v-3.646H71.815v3.646z" fill="#DCEAFF"/>
    <path clip-rule="evenodd" d="M71.815 80.734H94.7v-3.646H71.815v3.646z" stroke="#340096" stroke-linecap="round" stroke-linejoin="round"/>
    <path fill-rule="evenodd" clip-rule="evenodd" d="M71.815 74.49h14.333v-3.646H71.815v3.647z" fill="#DCEAFF"/>
    <path clip-rule="evenodd" d="M71.815 74.49h14.333v-3.646H71.815v3.647z" stroke="#340096" stroke-linecap="round" stroke-linejoin="round"/>
    <path fill-rule="evenodd" clip-rule="evenodd" d="M70.685 53.813a.778.778 0 11-.778-.78c.43 0 .778.35.778.78zM74.18 53.813a.778.778 0 11-1.557.002.778.778 0 011.556-.002zM77.673 53.813c0 .43-.347.779-.776.779a.779.779 0 010-1.559c.429 0 .776.35.776.78z" fill="#340096"/>
    <mask id="product-strategy-d" maskUnits="userSpaceOnUse" x="17" y="4" width="91" height="92">
      <path d="M17.549 49.83c0 25.026 20.235 45.314 45.199 45.314 24.961 0 45.197-20.288 45.197-45.314S87.709 4.516 62.748 4.516c-24.964 0-45.2 20.288-45.2 45.314z" fill="#fff"/>
    </mask>
    <g mask="url(#product-strategy-d)">
      <path d="M66.943 80.185v-25.51a3.736 3.736 0 013.731-3.74h30.43c2.06 0 3.73 1.675 3.73 3.74v47.052c0 2.065-1.67 3.74-3.73 3.74h-30.43a3.735 3.735 0 01-3.73-3.74V82.169" stroke="#340096" stroke-linecap="round" stroke-linejoin="round"/>
    </g>
    <path clip-rule="evenodd" d="M59.418 29.837v47.89c0 3.016-2.438 5.462-5.448 5.462h-72.91a5.456 5.456 0 01-5.449-5.462v-47.89a5.456 5.456 0 015.45-5.462H53.97c3.01 0 5.448 2.446 5.448 5.462z" stroke="#340096"/>
    <path fill-rule="evenodd" clip-rule="evenodd" d="M55.999 30.074v47.218a2.827 2.827 0 01-2.823 2.83h-71.432a2.827 2.827 0 01-2.823-2.83V30.074a2.827 2.827 0 012.823-2.83h71.432a2.827 2.827 0 012.823 2.83z" fill="#fff"/>
    <path clip-rule="evenodd" d="M55.999 30.074v47.218a2.827 2.827 0 01-2.823 2.83h-71.432a2.827 2.827 0 01-2.823-2.83V30.074a2.827 2.827 0 012.823-2.83h71.432a2.827 2.827 0 012.823 2.83z" stroke="#340096" stroke-linecap="round" stroke-linejoin="round"/>
    <path fill-rule="evenodd" clip-rule="evenodd" d="M-21.078 38.355H56v-4.978h-77.078v4.978z" fill="#DCEAFF"/>
    <path clip-rule="evenodd" d="M-21.078 38.355H56v-4.978h-77.078v4.978z" stroke="#340096" stroke-linecap="round" stroke-linejoin="round"/>
    <path d="M-21.08 75.733h77.084" stroke="#340096" stroke-linecap="round" stroke-linejoin="round"/>
    <path fill-rule="evenodd" clip-rule="evenodd" d="M.55 51.14h46.213v-4.844H.55v4.843z" fill="#BCD7FE"/>
    <path clip-rule="evenodd" d="M.55 51.14h46.213v-4.844H.55v4.843z" stroke="#340096"/>
    <path fill-rule="evenodd" clip-rule="evenodd" d="M.549 65.396h36.363V61.12H.549v4.277z" fill="#DCEAFF"/>
    <path clip-rule="evenodd" d="M.549 65.396h36.363V61.12H.549v4.277z" stroke="#340096" stroke-linecap="round" stroke-linejoin="round"/>
    <path fill-rule="evenodd" clip-rule="evenodd" d="M.55 58.074h22.775v-4.279H.55v4.279z" fill="#DCEAFF"/>
    <path clip-rule="evenodd" d="M.55 58.074h22.775v-4.279H.55v4.279z" stroke="#340096" stroke-linecap="round" stroke-linejoin="round"/>
  </g>
  <path clip-rule="evenodd" d="M107.945 49.83c0 25.026-20.237 45.314-45.2 45.314-24.963 0-45.198-20.288-45.198-45.314S37.782 4.516 62.746 4.516c24.962 0 45.199 20.288 45.199 45.314z" stroke="#340096" stroke-width="1.5"/>
  <path fill-rule="evenodd" clip-rule="evenodd" d="M31.873 47.87l-5.282-9.71s-3.487 3.366-5.501 5.643c5.741 1.962 10.783 4.066 10.783 4.066z" fill="#F2F0FF"/>
  <path fill-rule="evenodd" clip-rule="evenodd" d="M30.235 44.347l-1.981 2.34 3.708 1.569.415-.097-2.143-3.812zM3.799 26.817l5.943-5.935 16.885 17.245-5.767 5.823L3.799 26.817z" fill="#2250FF"/>
  <path fill-rule="evenodd" clip-rule="evenodd" d="M1.084 24.103c-.58-3.253 1.874-5.951 5.93-5.951l3.144 3.147c-1.982 1.98-3.96 3.965-5.939 5.947-1.044-1.05-2.088-2.096-3.135-3.143z" fill="#FFEBDE"/>
  <path fill-rule="evenodd" clip-rule="evenodd" d="M3.315 26.343c2.26-2.44 3.96-4.098 5.933-5.95 1.048 1.048 2.092 2.098 3.14 3.146-1.977 1.98-3.955 3.965-5.933 5.947-1.044-1.05-2.093-2.096-3.14-3.143z" fill="#F2F0FF"/>
  <path clip-rule="evenodd" d="M31.873 47.87l-5.282-9.71s-3.487 3.366-5.501 5.643c5.741 1.962 10.783 4.066 10.783 4.066z" stroke="#340096" stroke-linecap="round" stroke-linejoin="round"/>
  <path clip-rule="evenodd" d="M30.235 44.347l-1.981 2.34 3.708 1.569.415-.097-2.143-3.812z" stroke="#340096" stroke-width=".5" stroke-linecap="round" stroke-linejoin="round"/>
  <path clip-rule="evenodd" d="M3.799 26.817l5.943-5.935 16.885 17.245-5.767 5.823L3.799 26.817z" stroke="#340096" stroke-width=".75" stroke-linecap="round" stroke-linejoin="round"/>
  <path clip-rule="evenodd" d="M1.084 24.103c-.58-3.253 1.874-5.951 5.93-5.951l3.144 3.147c-1.982 1.98-3.96 3.965-5.939 5.947-1.044-1.05-2.088-2.096-3.135-3.143z" stroke="#340096"/>
  <path clip-rule="evenodd" d="M3.315 26.343c2.26-2.44 3.96-4.098 5.933-5.95 1.048 1.048 2.092 2.098 3.14 3.146-1.977 1.98-3.955 3.965-5.933 5.947-1.044-1.05-2.093-2.096-3.14-3.143z" stroke="#340096" stroke-linecap="round" stroke-linejoin="round"/>
  <path fill-rule="evenodd" clip-rule="evenodd" d="M96.292 21.511c-2.744-1.099-5.902.26-7.003 3.012-1.098 2.746.263 5.926 3.003 7.018 2.737 1.09 5.907-.273 7.01-3.014 1.102-2.735-.263-5.915-3.01-7.016zM86.062 18.5c-.08-1.238-.129-2.39-.237-3.536-.074-.775.188-1.266.927-1.56a55.08 55.08 0 003.172-1.373c.721-.339 1.255-.187 1.769.398.758.863 1.561 1.688 2.405 2.592.82-.92 1.627-1.778 2.376-2.684.53-.642 1.105-.753 1.848-.436 1.034.438 2.08.843 3.128 1.247.679.261.997.709.955 1.465-.065 1.204-.067 2.411-.097 3.67 1.268-.083 2.446-.142 3.62-.241.7-.06 1.155.195 1.426.853.462 1.123.944 2.24 1.444 3.347.294.652.15 1.156-.368 1.623-.876.79-1.728 1.607-2.654 2.473.901.802 1.742 1.581 2.62 2.318.625.527.761 1.088.425 1.847a53.72 53.72 0 00-1.278 3.219c-.247.667-.682.944-1.386.908-1.177-.06-2.354-.079-3.64-.118.075 1.22.115 2.386.226 3.546.076.784-.205 1.266-.93 1.56a78.812 78.812 0 00-3.175 1.374c-.67.305-1.204.212-1.703-.349-.781-.88-1.6-1.725-2.464-2.65-.794.905-1.568 1.75-2.3 2.631-.515.622-1.062.806-1.832.463a44.75 44.75 0 00-3.212-1.278c-.752-.269-1.028-.757-.984-1.527.066-1.15.087-2.3.13-3.54-1.22.073-2.391.11-3.556.223-.79.078-1.255-.217-1.546-.944a67.482 67.482 0 00-1.37-3.18c-.316-.685-.187-1.215.36-1.707.851-.771 1.682-1.568 2.636-2.46-.864-.758-1.665-1.52-2.529-2.202-.77-.61-.914-1.266-.511-2.15.44-.966.802-1.97 1.182-2.964.26-.678.702-1 1.458-.96 1.202.067 2.407.07 3.666.102z" fill="#FFD8BA"/>
  <path clip-rule="evenodd" d="M96.292 21.511c-2.744-1.099-5.902.26-7.003 3.012-1.098 2.746.263 5.926 3.003 7.018 2.737 1.09 5.907-.273 7.01-3.014 1.102-2.735-.263-5.915-3.01-7.016zM86.062 18.5c-.08-1.238-.129-2.39-.237-3.536-.074-.775.188-1.266.927-1.56a55.08 55.08 0 003.172-1.373c.721-.339 1.255-.187 1.769.398.758.863 1.561 1.688 2.405 2.592.82-.92 1.627-1.778 2.376-2.684.53-.642 1.105-.753 1.848-.436 1.034.438 2.08.843 3.128 1.247.679.261.997.709.955 1.465-.065 1.204-.067 2.411-.097 3.67 1.268-.083 2.446-.142 3.62-.241.7-.06 1.155.195 1.426.853.462 1.123.944 2.24 1.444 3.347.294.652.15 1.156-.368 1.623-.876.79-1.728 1.607-2.654 2.473.901.802 1.742 1.581 2.62 2.318.625.527.761 1.088.425 1.847a53.72 53.72 0 00-1.278 3.219c-.247.667-.682.944-1.386.908-1.177-.06-2.354-.079-3.64-.118.075 1.22.115 2.386.226 3.546.076.784-.205 1.266-.93 1.56a78.812 78.812 0 00-3.175 1.374c-.67.305-1.204.212-1.703-.349-.781-.88-1.6-1.725-2.464-2.65-.794.905-1.568 1.75-2.3 2.631-.515.622-1.062.806-1.832.463a44.75 44.75 0 00-3.212-1.278c-.752-.269-1.028-.757-.984-1.527.066-1.15.087-2.3.13-3.54-1.22.073-2.391.11-3.556.223-.79.078-1.255-.217-1.546-.944a67.482 67.482 0 00-1.37-3.18c-.316-.685-.187-1.215.36-1.707.851-.771 1.682-1.568 2.636-2.46-.864-.758-1.665-1.52-2.529-2.202-.77-.61-.914-1.266-.511-2.15.44-.966.802-1.97 1.182-2.964.26-.678.702-1 1.458-.96 1.202.067 2.407.07 3.666.102z" stroke="#340096"/>
  <path fill-rule="evenodd" clip-rule="evenodd" d="M74.348 6.619c-1.84.138-3.24 1.77-3.103 3.617.137 1.842 1.772 3.252 3.608 3.11 1.835-.143 3.238-1.78 3.106-3.622-.132-1.838-1.768-3.245-3.611-3.105zm-6.563 1.127c-.385-.673-.728-1.305-1.102-1.919-.254-.413-.242-.762.092-1.129.485-.533.953-1.082 1.404-1.644.31-.39.652-.45 1.1-.265.663.275 1.338.517 2.06.793.208-.743.426-1.446.597-2.162.122-.505.414-.726.917-.752.7-.038 1.399-.1 2.096-.162.454-.04.752.123.938.558.293.692.622 1.37.95 2.086.689-.396 1.333-.755 1.965-1.134.376-.225.7-.208 1.033.088.568.503 1.144.995 1.728 1.48.343.285.401.605.238 1.01-.275.685-.529 1.378-.81 2.119.724.2 1.41.408 2.103.578.496.124.726.401.744.92.027.72.094 1.44.166 2.157.044.442-.123.717-.528.891-.677.29-1.342.604-2.075.936.378.664.72 1.308 1.1 1.927.257.418.23.767-.095 1.132-.48.537-.947 1.086-1.404 1.644-.291.356-.617.45-1.052.273-.678-.276-1.368-.526-2.107-.806-.198.726-.4 1.413-.569 2.109-.12.49-.375.744-.9.763-.72.027-1.439.087-2.154.168-.496.057-.783-.14-.97-.585-.278-.663-.582-1.314-.897-2.022-.664.377-1.31.72-1.933 1.105-.422.26-.765.223-1.126-.103a41.064 41.064 0 00-1.64-1.407c-.365-.298-.437-.63-.267-1.057.268-.667.515-1.343.806-2.106-.692-.187-1.35-.393-2.023-.538-.598-.13-.858-.459-.875-1.066-.018-.664-.09-1.325-.148-1.986-.042-.453.12-.757.554-.941.692-.294 1.369-.624 2.084-.953z" fill="#FFA578"/>
  <path clip-rule="evenodd" d="M74.348 6.619c-1.84.138-3.24 1.77-3.103 3.617.137 1.842 1.772 3.252 3.608 3.11 1.835-.143 3.238-1.78 3.106-3.622-.132-1.838-1.768-3.245-3.611-3.105zm-6.563 1.127c-.385-.673-.728-1.305-1.102-1.919-.254-.413-.242-.762.092-1.129.485-.533.953-1.082 1.404-1.644.31-.39.652-.45 1.1-.265.663.275 1.338.517 2.06.793.208-.743.426-1.446.597-2.162.122-.505.414-.726.917-.752.7-.038 1.399-.1 2.096-.162.454-.04.752.123.938.558.293.692.622 1.37.95 2.086.689-.396 1.333-.755 1.965-1.134.376-.225.7-.208 1.033.088.568.503 1.144.995 1.728 1.48.343.285.401.605.238 1.01-.275.685-.529 1.378-.81 2.119.724.2 1.41.408 2.103.578.496.124.726.401.744.92.027.72.094 1.44.166 2.157.044.442-.123.717-.528.891-.677.29-1.342.604-2.075.936.378.664.72 1.308 1.1 1.927.257.418.23.767-.095 1.132-.48.537-.947 1.086-1.404 1.644-.291.356-.617.45-1.052.273-.678-.276-1.368-.526-2.107-.806-.198.726-.4 1.413-.569 2.109-.12.49-.375.744-.9.763-.72.027-1.439.087-2.154.168-.496.057-.783-.14-.97-.585-.278-.663-.582-1.314-.897-2.022-.664.377-1.31.72-1.933 1.105-.422.26-.765.223-1.126-.103a41.064 41.064 0 00-1.64-1.407c-.365-.298-.437-.63-.267-1.057.268-.667.515-1.343.806-2.106-.692-.187-1.35-.393-2.023-.538-.598-.13-.858-.459-.875-1.066-.018-.664-.09-1.325-.148-1.986-.042-.453.12-.757.554-.941.692-.294 1.369-.624 2.084-.953z" stroke="#340096"/>
  <path fill-rule="evenodd" clip-rule="evenodd" d="M86.834 96.5l-1.041-24.415 16.231 15.342-8.64.689-6.55 8.384z" fill="#2250FF"/>
  <path clip-rule="evenodd" d="M86.834 96.5l-1.041-24.415 16.231 15.342-8.64.689-6.55 8.384z" stroke="#340096" stroke-linecap="round" stroke-linejoin="round"/>
</svg>
